%TF.GenerationSoftware,KiCad,Pcbnew,8.0.3-unknown-202406112021~03dd6c7a8e~ubuntu22.04.1*%
%TF.CreationDate,2024-06-13T18:15:46+05:30*%
%TF.ProjectId,SDR-Board,5344522d-426f-4617-9264-2e6b69636164,rev?*%
%TF.SameCoordinates,Original*%
%TF.FileFunction,Copper,L2,Bot*%
%TF.FilePolarity,Positive*%
%FSLAX46Y46*%
G04 Gerber Fmt 4.6, Leading zero omitted, Abs format (unit mm)*
G04 Created by KiCad (PCBNEW 8.0.3-unknown-202406112021~03dd6c7a8e~ubuntu22.04.1) date 2024-06-13 18:15:46*
%MOMM*%
%LPD*%
G01*
G04 APERTURE LIST*
G04 Aperture macros list*
%AMRoundRect*
0 Rectangle with rounded corners*
0 $1 Rounding radius*
0 $2 $3 $4 $5 $6 $7 $8 $9 X,Y pos of 4 corners*
0 Add a 4 corners polygon primitive as box body*
4,1,4,$2,$3,$4,$5,$6,$7,$8,$9,$2,$3,0*
0 Add four circle primitives for the rounded corners*
1,1,$1+$1,$2,$3*
1,1,$1+$1,$4,$5*
1,1,$1+$1,$6,$7*
1,1,$1+$1,$8,$9*
0 Add four rect primitives between the rounded corners*
20,1,$1+$1,$2,$3,$4,$5,0*
20,1,$1+$1,$4,$5,$6,$7,0*
20,1,$1+$1,$6,$7,$8,$9,0*
20,1,$1+$1,$8,$9,$2,$3,0*%
G04 Aperture macros list end*
%TA.AperFunction,ComponentPad*%
%ADD10C,1.600000*%
%TD*%
%TA.AperFunction,ComponentPad*%
%ADD11C,0.800000*%
%TD*%
%TA.AperFunction,ComponentPad*%
%ADD12C,6.400000*%
%TD*%
%TA.AperFunction,WasherPad*%
%ADD13C,1.200000*%
%TD*%
%TA.AperFunction,ComponentPad*%
%ADD14O,2.500000X1.800000*%
%TD*%
%TA.AperFunction,ComponentPad*%
%ADD15O,1.800000X2.500000*%
%TD*%
%TA.AperFunction,ComponentPad*%
%ADD16C,1.800000*%
%TD*%
%TA.AperFunction,SMDPad,CuDef*%
%ADD17RoundRect,0.250000X0.425000X1.600000X-0.425000X1.600000X-0.425000X-1.600000X0.425000X-1.600000X0*%
%TD*%
%TA.AperFunction,ComponentPad*%
%ADD18R,1.600000X1.600000*%
%TD*%
%TA.AperFunction,ComponentPad*%
%ADD19O,1.600000X1.600000*%
%TD*%
%TA.AperFunction,ComponentPad*%
%ADD20R,1.200000X1.200000*%
%TD*%
%TA.AperFunction,ComponentPad*%
%ADD21C,1.200000*%
%TD*%
%TA.AperFunction,ComponentPad*%
%ADD22R,1.700000X1.700000*%
%TD*%
%TA.AperFunction,ComponentPad*%
%ADD23O,1.700000X1.700000*%
%TD*%
%TA.AperFunction,SMDPad,CuDef*%
%ADD24RoundRect,0.250000X1.600000X-0.425000X1.600000X0.425000X-1.600000X0.425000X-1.600000X-0.425000X0*%
%TD*%
%TA.AperFunction,ViaPad*%
%ADD25C,0.600000*%
%TD*%
%TA.AperFunction,ViaPad*%
%ADD26C,0.800000*%
%TD*%
%TA.AperFunction,Conductor*%
%ADD27C,0.500000*%
%TD*%
%TA.AperFunction,Conductor*%
%ADD28C,1.000000*%
%TD*%
G04 APERTURE END LIST*
D10*
%TO.P,C5,1*%
%TO.N,GND*%
X97010000Y-65570000D03*
%TO.P,C5,2*%
%TO.N,Net-(U2-2B1)*%
X102010000Y-65570000D03*
%TD*%
D11*
%TO.P,H4,1,1*%
%TO.N,GND*%
X135790000Y-120660000D03*
X136492944Y-118962944D03*
X136492944Y-122357056D03*
X138190000Y-118260000D03*
D12*
X138190000Y-120660000D03*
D11*
X138190000Y-123060000D03*
X139887056Y-118962944D03*
X139887056Y-122357056D03*
X140590000Y-120660000D03*
%TD*%
D13*
%TO.P,J3,*%
%TO.N,*%
X94920000Y-89860000D03*
X94920000Y-99860000D03*
X97420000Y-89860000D03*
X97420000Y-99860000D03*
X102420000Y-94860000D03*
D14*
%TO.P,J3,R*%
%TO.N,Net-(CC2-Pad2)*%
X102420000Y-89860000D03*
%TO.P,J3,RN*%
%TO.N,unconnected-(J3-PadRN)*%
X102420000Y-92360000D03*
D15*
%TO.P,J3,S*%
%TO.N,GND*%
X97420000Y-94860000D03*
D14*
%TO.P,J3,T*%
%TO.N,Net-(CC1-Pad1)*%
X102420000Y-99860000D03*
%TO.P,J3,TN*%
%TO.N,unconnected-(J3-PadTN)*%
X102420000Y-97360000D03*
%TD*%
D16*
%TO.P,U1,1,VIN*%
%TO.N,+3.3V*%
X108406800Y-115540000D03*
%TO.P,U1,2,GND*%
%TO.N,GND*%
X108406800Y-113000000D03*
%TO.P,U1,3,SDA*%
%TO.N,Net-(J1-Pin_2)*%
X108406800Y-110460000D03*
%TO.P,U1,4,SCL*%
%TO.N,Net-(J1-Pin_1)*%
X108406800Y-107920000D03*
%TO.P,U1,5,S2*%
%TO.N,Net-(TX1-In)*%
X108406800Y-105380000D03*
%TO.P,U1,6,S1*%
%TO.N,Net-(U1-S1)*%
X108406800Y-102840000D03*
%TO.P,U1,7,SO*%
%TO.N,Net-(U1-SO)*%
X108406800Y-100300000D03*
%TD*%
D10*
%TO.P,C7,1*%
%TO.N,GND*%
X101920000Y-82710000D03*
%TO.P,C7,2*%
%TO.N,Net-(U2-2B4)*%
X101920000Y-77710000D03*
%TD*%
D17*
%TO.P,RX1,2,Ext*%
%TO.N,GND*%
X106415000Y-55982500D03*
X112065000Y-55982500D03*
%TD*%
D18*
%TO.P,D3,1,K*%
%TO.N,GND*%
X104244315Y-62750000D03*
D19*
%TO.P,D3,2,A*%
%TO.N,Net-(D2-K)*%
X106784315Y-62750000D03*
%TD*%
D18*
%TO.P,C8,1*%
%TO.N,+12V*%
X134870000Y-70900000D03*
D10*
%TO.P,C8,2*%
%TO.N,GND*%
X137370000Y-70900000D03*
%TD*%
D11*
%TO.P,H2,1,1*%
%TO.N,GND*%
X95150000Y-57360000D03*
X95852944Y-55662944D03*
X95852944Y-59057056D03*
X97550000Y-54960000D03*
D12*
X97550000Y-57360000D03*
D11*
X97550000Y-59760000D03*
X99247056Y-55662944D03*
X99247056Y-59057056D03*
X99950000Y-57360000D03*
%TD*%
D20*
%TO.P,C15,1*%
%TO.N,+3.3V*%
X133940000Y-98770000D03*
D21*
%TO.P,C15,2*%
%TO.N,GND*%
X135940000Y-98770000D03*
%TD*%
D22*
%TO.P,J1,1,Pin_1*%
%TO.N,Net-(J1-Pin_1)*%
X101150000Y-107900000D03*
D23*
%TO.P,J1,2,Pin_2*%
%TO.N,Net-(J1-Pin_2)*%
X101150000Y-110440000D03*
%TO.P,J1,3,Pin_3*%
%TO.N,GND*%
X101150000Y-112980000D03*
%TD*%
D10*
%TO.P,C6,1*%
%TO.N,GND*%
X117840000Y-63900000D03*
%TO.P,C6,2*%
%TO.N,Net-(U2-2B3)*%
X112840000Y-63900000D03*
%TD*%
D24*
%TO.P,TX1,2,Ext*%
%TO.N,GND*%
X139500000Y-104175000D03*
X139500000Y-109825000D03*
%TD*%
D11*
%TO.P,H1,1,1*%
%TO.N,GND*%
X135852944Y-57342944D03*
X136555888Y-55645888D03*
X136555888Y-59040000D03*
X138252944Y-54942944D03*
D12*
X138252944Y-57342944D03*
D11*
X138252944Y-59742944D03*
X139950000Y-55645888D03*
X139950000Y-59040000D03*
X140652944Y-57342944D03*
%TD*%
D18*
%TO.P,D2,1,K*%
%TO.N,Net-(D2-K)*%
X106781370Y-59770000D03*
D19*
%TO.P,D2,2,A*%
%TO.N,GND*%
X104241370Y-59770000D03*
%TD*%
D20*
%TO.P,C13,1*%
%TO.N,+5V*%
X138290000Y-83190000D03*
D21*
%TO.P,C13,2*%
%TO.N,GND*%
X140290000Y-83190000D03*
%TD*%
D22*
%TO.P,J2,1,Pin_1*%
%TO.N,Net-(D1-A)*%
X130530000Y-60725000D03*
D23*
%TO.P,J2,2,Pin_2*%
%TO.N,GND*%
X130530000Y-58185000D03*
%TD*%
D11*
%TO.P,H3,1,1*%
%TO.N,GND*%
X95220000Y-120790000D03*
X95922944Y-119092944D03*
X95922944Y-122487056D03*
X97620000Y-118390000D03*
D12*
X97620000Y-120790000D03*
D11*
X97620000Y-123190000D03*
X99317056Y-119092944D03*
X99317056Y-122487056D03*
X100020000Y-120790000D03*
%TD*%
D10*
%TO.P,C4,1*%
%TO.N,GND*%
X102000000Y-74070000D03*
%TO.P,C4,2*%
%TO.N,Net-(U2-2B2)*%
X102000000Y-69070000D03*
%TD*%
D25*
%TO.N,+5V*%
X116050000Y-84130000D03*
X106670000Y-75370000D03*
X117670000Y-72900000D03*
X116030000Y-83400000D03*
X105940000Y-75390000D03*
%TO.N,RX_Q*%
X116070000Y-78730000D03*
X116070000Y-78100000D03*
X111560000Y-89030000D03*
%TO.N,Net-(U6B--)*%
X113790000Y-86160000D03*
X114410000Y-85690000D03*
X107630000Y-86220000D03*
%TO.N,GND*%
X110000000Y-121500000D03*
X117500000Y-99000000D03*
X97000000Y-109500000D03*
X126000000Y-90000000D03*
X96500000Y-77000000D03*
X121000000Y-109500000D03*
X127000000Y-74000000D03*
X137500000Y-62000000D03*
X126500000Y-59500000D03*
X102000000Y-102500000D03*
X127500000Y-87000000D03*
X119000000Y-87000000D03*
X95500000Y-102000000D03*
X95500000Y-112500000D03*
X110000000Y-118500000D03*
X110000000Y-120000000D03*
X120500000Y-90000000D03*
X139500000Y-97500000D03*
X124500000Y-91500000D03*
X125500000Y-62000000D03*
X98500000Y-106500000D03*
X116000000Y-118500000D03*
X96500000Y-78500000D03*
X119000000Y-97500000D03*
X113000000Y-120000000D03*
X100500000Y-105500000D03*
X127000000Y-69500000D03*
X127000000Y-66500000D03*
X105000000Y-105500000D03*
X95000000Y-78500000D03*
X141000000Y-102000000D03*
X124000000Y-65000000D03*
X98500000Y-102000000D03*
X113000000Y-118500000D03*
X126500000Y-56500000D03*
X127000000Y-80000000D03*
X97000000Y-108000000D03*
X140500000Y-88500000D03*
X120500000Y-88500000D03*
X116000000Y-121500000D03*
X96500000Y-80000000D03*
X118000000Y-106500000D03*
X96500000Y-74000000D03*
D26*
X109115000Y-74140000D03*
D25*
X139000000Y-88500000D03*
X139500000Y-99000000D03*
X136500000Y-112000000D03*
X124000000Y-121500000D03*
X124000000Y-108000000D03*
X119000000Y-99000000D03*
X117500000Y-88500000D03*
X127000000Y-121500000D03*
X139000000Y-65000000D03*
X105000000Y-102500000D03*
X97000000Y-102000000D03*
X98000000Y-80000000D03*
X137500000Y-65000000D03*
X139500000Y-112000000D03*
X97000000Y-103500000D03*
X124500000Y-88500000D03*
X118000000Y-109500000D03*
X95500000Y-103500000D03*
X102000000Y-104000000D03*
X119000000Y-94500000D03*
X121000000Y-120000000D03*
X100000000Y-62000000D03*
X138500000Y-75500000D03*
X119500000Y-120000000D03*
X119500000Y-118500000D03*
X122500000Y-108000000D03*
X102000000Y-105500000D03*
X95000000Y-72500000D03*
X97000000Y-105000000D03*
X139000000Y-66500000D03*
X127000000Y-71000000D03*
X126000000Y-91500000D03*
X119050000Y-75350000D03*
X119000000Y-91500000D03*
X126000000Y-87000000D03*
X127500000Y-91500000D03*
X139500000Y-100500000D03*
X136000000Y-62000000D03*
X138000000Y-113500000D03*
X113000000Y-121500000D03*
X122500000Y-106500000D03*
X116500000Y-108000000D03*
X119500000Y-121500000D03*
X124000000Y-120000000D03*
X116000000Y-120000000D03*
X95500000Y-111000000D03*
X112270000Y-78070000D03*
X120500000Y-96000000D03*
X117500000Y-94500000D03*
X98000000Y-78500000D03*
X139500000Y-113500000D03*
X119000000Y-90000000D03*
X98500000Y-103500000D03*
X131500000Y-120000000D03*
X137500000Y-66500000D03*
X141000000Y-71500000D03*
X124000000Y-118500000D03*
X125500000Y-120000000D03*
X124500000Y-100500000D03*
X95500000Y-106500000D03*
X98000000Y-71000000D03*
X125500000Y-118500000D03*
X96500000Y-71000000D03*
X119500000Y-106500000D03*
X122500000Y-109500000D03*
X138000000Y-102000000D03*
X98500000Y-111000000D03*
X140000000Y-78500000D03*
X138500000Y-77000000D03*
X119500000Y-108000000D03*
X127000000Y-78500000D03*
X103500000Y-105500000D03*
X121000000Y-121500000D03*
X127000000Y-118500000D03*
X140500000Y-91500000D03*
X126000000Y-97500000D03*
X117500000Y-121500000D03*
X112270000Y-78880000D03*
X127000000Y-120000000D03*
X131500000Y-121500000D03*
X95500000Y-114000000D03*
X117500000Y-97500000D03*
X111500000Y-120000000D03*
X97000000Y-114000000D03*
X125500000Y-66500000D03*
X127000000Y-68000000D03*
X120500000Y-94500000D03*
X138000000Y-112000000D03*
X124000000Y-71000000D03*
X95000000Y-77000000D03*
X127000000Y-63500000D03*
X96500000Y-72500000D03*
X95500000Y-108000000D03*
X124000000Y-63500000D03*
X127000000Y-81500000D03*
X125000000Y-58000000D03*
X139000000Y-91500000D03*
X138000000Y-97500000D03*
X128500000Y-120000000D03*
X122500000Y-118500000D03*
X111500000Y-118500000D03*
X139000000Y-63500000D03*
X115000000Y-109500000D03*
X141000000Y-70000000D03*
X124000000Y-62000000D03*
X98000000Y-72500000D03*
X97000000Y-62000000D03*
X122500000Y-121500000D03*
X117610000Y-67680000D03*
X120500000Y-87000000D03*
X139000000Y-62000000D03*
X141000000Y-67000000D03*
X125000000Y-59500000D03*
X95000000Y-71000000D03*
X121000000Y-106500000D03*
X108500000Y-118500000D03*
X136000000Y-66500000D03*
X141000000Y-74500000D03*
X114500000Y-120000000D03*
X98500000Y-109500000D03*
X98500000Y-112500000D03*
X100500000Y-104000000D03*
X114500000Y-121500000D03*
X98500000Y-114000000D03*
X103500000Y-102500000D03*
X95000000Y-80000000D03*
X119500000Y-109500000D03*
X122500000Y-120000000D03*
X95500000Y-105000000D03*
X130000000Y-120000000D03*
X136500000Y-113500000D03*
X137500000Y-63500000D03*
X120500000Y-97500000D03*
X120500000Y-91500000D03*
X97000000Y-111000000D03*
X124000000Y-66500000D03*
X130000000Y-121500000D03*
X117500000Y-87000000D03*
X98500000Y-62000000D03*
X125500000Y-69500000D03*
X103500000Y-104000000D03*
X105000000Y-104000000D03*
X127500000Y-88500000D03*
X127500000Y-90000000D03*
X119700000Y-75370000D03*
X95000000Y-75500000D03*
X115000000Y-108000000D03*
X139500000Y-102000000D03*
X139000000Y-90000000D03*
X138000000Y-100500000D03*
X140000000Y-77000000D03*
X140000000Y-75500000D03*
X136000000Y-63500000D03*
X95500000Y-109500000D03*
X109520000Y-78330000D03*
X98500000Y-108000000D03*
X141000000Y-68500000D03*
X118000000Y-108000000D03*
X97000000Y-63500000D03*
X130000000Y-118500000D03*
X108500000Y-120000000D03*
X125500000Y-63500000D03*
X127000000Y-77000000D03*
X125000000Y-56500000D03*
X141000000Y-73000000D03*
X119000000Y-88500000D03*
X125500000Y-68000000D03*
X98500000Y-63500000D03*
X97000000Y-106500000D03*
X108500000Y-121500000D03*
X117500000Y-120000000D03*
X121000000Y-118500000D03*
X116500000Y-109500000D03*
X138000000Y-99000000D03*
X124000000Y-106500000D03*
X124000000Y-69500000D03*
X121000000Y-108000000D03*
X136000000Y-65000000D03*
X138500000Y-78500000D03*
X117500000Y-118500000D03*
X96500000Y-75500000D03*
X116500000Y-106500000D03*
X98000000Y-75500000D03*
X117500000Y-96000000D03*
X141000000Y-65500000D03*
X141000000Y-99000000D03*
X95000000Y-74000000D03*
X124000000Y-68000000D03*
X128500000Y-121500000D03*
X125500000Y-71000000D03*
X126000000Y-88500000D03*
X111500000Y-121500000D03*
X127000000Y-75500000D03*
X97000000Y-112500000D03*
X128500000Y-118500000D03*
X126500000Y-58000000D03*
X98000000Y-77000000D03*
X100000000Y-63500000D03*
X125500000Y-121500000D03*
X124500000Y-99000000D03*
X141000000Y-100500000D03*
X124500000Y-87000000D03*
X124500000Y-97500000D03*
X127000000Y-65000000D03*
X119000000Y-96000000D03*
X131500000Y-118500000D03*
X114500000Y-118500000D03*
X100500000Y-102500000D03*
X125500000Y-65000000D03*
X124000000Y-109500000D03*
X120500000Y-99000000D03*
X109480000Y-77580000D03*
X98000000Y-74000000D03*
X141000000Y-97500000D03*
X127000000Y-72500000D03*
X126000000Y-99000000D03*
X98500000Y-105000000D03*
X127000000Y-62000000D03*
X126000000Y-100500000D03*
X124500000Y-90000000D03*
X140500000Y-90000000D03*
X115000000Y-106500000D03*
%TO.N,Net-(U1-SO)*%
X106080000Y-72850000D03*
X106780000Y-72830000D03*
%TD*%
D27*
%TO.N,+5V*%
X117670000Y-72900000D02*
X117670000Y-74900000D01*
D28*
X138290000Y-83190000D02*
X138290000Y-83780000D01*
D27*
X125240000Y-72900000D02*
X125260000Y-72920000D01*
X116050000Y-84130000D02*
X125240000Y-84130000D01*
D28*
X126650000Y-84130000D02*
X137940000Y-84130000D01*
X117670000Y-72900000D02*
X125240000Y-72900000D01*
X125240000Y-84130000D02*
X126650000Y-84130000D01*
D27*
X116030000Y-83400000D02*
X116030000Y-84110000D01*
X105940000Y-75390000D02*
X117180000Y-75390000D01*
D28*
X126650000Y-84130000D02*
X116230000Y-84130000D01*
D27*
X117180000Y-75390000D02*
X117670000Y-74900000D01*
X116030000Y-84110000D02*
X116050000Y-84130000D01*
D28*
X138290000Y-83780000D02*
X137940000Y-84130000D01*
X125260000Y-72920000D02*
X125260000Y-84110000D01*
D27*
X125260000Y-84110000D02*
X125240000Y-84130000D01*
%TO.N,RX_Q*%
X111560000Y-87890000D02*
X111560000Y-89030000D01*
X116070000Y-78100000D02*
X116040000Y-78070000D01*
X116040000Y-78760000D02*
X116040000Y-78960000D01*
X116040000Y-78070000D02*
X116040000Y-78010000D01*
X116040000Y-78700000D02*
X116040000Y-78130000D01*
X116070000Y-78730000D02*
X116040000Y-78700000D01*
X111880000Y-87570000D02*
X111560000Y-87890000D01*
X116040000Y-78960000D02*
X115280000Y-79720000D01*
X115280000Y-79720000D02*
X115280000Y-87570000D01*
X115280000Y-87570000D02*
X111880000Y-87570000D01*
X116070000Y-78730000D02*
X116040000Y-78760000D01*
X116040000Y-78130000D02*
X116070000Y-78100000D01*
%TO.N,Net-(U6B--)*%
X114440000Y-85690000D02*
X114540000Y-85590000D01*
X114410000Y-85720000D02*
X114410000Y-85690000D01*
X114210000Y-85920000D02*
X114410000Y-85720000D01*
X114410000Y-85690000D02*
X114440000Y-85690000D01*
X107630000Y-86220000D02*
X113910000Y-86220000D01*
X113910000Y-86220000D02*
X114170000Y-85960000D01*
%TO.N,GND*%
X109480000Y-78290000D02*
X109520000Y-78330000D01*
X109520000Y-78330000D02*
X112010000Y-78330000D01*
X112010000Y-78330000D02*
X112270000Y-78070000D01*
X109480000Y-77580000D02*
X109480000Y-78290000D01*
X112270000Y-78880000D02*
X112270000Y-78070000D01*
%TO.N,+3.3V*%
X133940000Y-114860000D02*
X133650000Y-115150000D01*
X133260000Y-115540000D02*
X107460000Y-115540000D01*
D28*
X133260000Y-115540000D02*
X133650000Y-115150000D01*
X133940000Y-114860000D02*
X133260000Y-115540000D01*
X108406800Y-115540000D02*
X133260000Y-115540000D01*
X133940000Y-98770000D02*
X133940000Y-114860000D01*
D27*
%TO.N,Net-(U1-SO)*%
X106750000Y-72860000D02*
X106780000Y-72830000D01*
X104451600Y-79810474D02*
X105891600Y-79810474D01*
X106171600Y-78830474D02*
X106171600Y-78690474D01*
X105240000Y-72860000D02*
X106750000Y-72860000D01*
X105891600Y-77010474D02*
X105451600Y-77010474D01*
X104451600Y-81210474D02*
X105891600Y-81210474D01*
X105160000Y-100300000D02*
X105171600Y-100288400D01*
X105171600Y-76590474D02*
X105171600Y-72928400D01*
X104171600Y-82330474D02*
X104171600Y-82190474D01*
X104451600Y-78410474D02*
X105891600Y-78410474D01*
X105171600Y-100288400D02*
X105171600Y-85690474D01*
X104451600Y-84010474D02*
X105891600Y-84010474D01*
X106171600Y-81630474D02*
X106171600Y-81490474D01*
X104451600Y-80510474D02*
X105891600Y-80510474D01*
X104171600Y-83730474D02*
X104171600Y-83590474D01*
X104451600Y-83310474D02*
X105891600Y-83310474D01*
X104171600Y-78130474D02*
X104171600Y-77990474D01*
X104891600Y-85410474D02*
X104451600Y-85410474D01*
X104451600Y-84710474D02*
X105891600Y-84710474D01*
X105171600Y-72928400D02*
X105240000Y-72860000D01*
X107460000Y-100300000D02*
X105160000Y-100300000D01*
X106171600Y-80230474D02*
X106171600Y-80090474D01*
X105171600Y-76730474D02*
X105171600Y-76590474D01*
X104451600Y-82610474D02*
X105891600Y-82610474D01*
X104451600Y-81910474D02*
X105891600Y-81910474D01*
X106171600Y-84430474D02*
X106171600Y-84290474D01*
X106171600Y-77430474D02*
X106171600Y-77290474D01*
X104451600Y-79110474D02*
X105891600Y-79110474D01*
X104171600Y-85130474D02*
X104171600Y-84990474D01*
X104171600Y-80930474D02*
X104171600Y-80790474D01*
X104451600Y-77710474D02*
X105891600Y-77710474D01*
X106171600Y-83030474D02*
X106171600Y-82890474D01*
X104171600Y-79530474D02*
X104171600Y-79390474D01*
X106171600Y-81490474D02*
G75*
G03*
X105891600Y-81210500I-280000J-26D01*
G01*
X106171600Y-77290474D02*
G75*
G03*
X105891600Y-77010500I-280000J-26D01*
G01*
X105891600Y-80510474D02*
G75*
G03*
X106171574Y-80230474I0J279974D01*
G01*
X104171600Y-79390474D02*
G75*
G02*
X104451600Y-79110500I280000J-26D01*
G01*
X105891600Y-77710474D02*
G75*
G03*
X106171574Y-77430474I0J279974D01*
G01*
X106171600Y-80090474D02*
G75*
G03*
X105891600Y-79810500I-280000J-26D01*
G01*
X104451600Y-78410474D02*
G75*
G02*
X104171626Y-78130474I0J279974D01*
G01*
X104451600Y-84010474D02*
G75*
G02*
X104171626Y-83730474I0J279974D01*
G01*
X104171600Y-77990474D02*
G75*
G02*
X104451600Y-77710500I280000J-26D01*
G01*
X106171600Y-84290474D02*
G75*
G03*
X105891600Y-84010500I-280000J-26D01*
G01*
X104451600Y-81210474D02*
G75*
G02*
X104171626Y-80930474I0J279974D01*
G01*
X105891600Y-83310474D02*
G75*
G03*
X106171574Y-83030474I0J279974D01*
G01*
X104171600Y-83590474D02*
G75*
G02*
X104451600Y-83310500I280000J-26D01*
G01*
X105891600Y-79110474D02*
G75*
G03*
X106171574Y-78830474I0J279974D01*
G01*
X104171600Y-80790474D02*
G75*
G02*
X104451600Y-80510500I280000J-26D01*
G01*
X104171600Y-84990474D02*
G75*
G02*
X104451600Y-84710500I280000J-26D01*
G01*
X105171600Y-85690474D02*
G75*
G03*
X104891600Y-85410500I-280000J-26D01*
G01*
X104171600Y-82190474D02*
G75*
G02*
X104451600Y-81910500I280000J-26D01*
G01*
X104451600Y-82610474D02*
G75*
G02*
X104171626Y-82330474I0J279974D01*
G01*
X106171600Y-82890474D02*
G75*
G03*
X105891600Y-82610500I-280000J-26D01*
G01*
X105451600Y-77010474D02*
G75*
G02*
X105171626Y-76730474I0J279974D01*
G01*
X104451600Y-79810474D02*
G75*
G02*
X104171626Y-79530474I0J279974D01*
G01*
X104451600Y-85410474D02*
G75*
G02*
X104171626Y-85130474I0J279974D01*
G01*
X105891600Y-81910474D02*
G75*
G03*
X106171574Y-81630474I0J279974D01*
G01*
X105891600Y-84710474D02*
G75*
G03*
X106171574Y-84430474I0J279974D01*
G01*
X106171600Y-78690474D02*
G75*
G03*
X105891600Y-78410500I-280000J-26D01*
G01*
%TD*%
%TA.AperFunction,Conductor*%
%TO.N,GND*%
G36*
X96399588Y-121832330D02*
G01*
X96577670Y-122010412D01*
X96679300Y-122084251D01*
X95184648Y-123578903D01*
X95184649Y-123578904D01*
X95442206Y-123787468D01*
X95571610Y-123871505D01*
X95617113Y-123924526D01*
X95626727Y-123993731D01*
X95597400Y-124057148D01*
X95538443Y-124094642D01*
X95504075Y-124099500D01*
X94424500Y-124099500D01*
X94357461Y-124079815D01*
X94311706Y-124027011D01*
X94300500Y-123975500D01*
X94300500Y-122890526D01*
X94320185Y-122823487D01*
X94372989Y-122777732D01*
X94442147Y-122767788D01*
X94505703Y-122796813D01*
X94528495Y-122822991D01*
X94622531Y-122967793D01*
X94831095Y-123225350D01*
X94831096Y-123225350D01*
X96325748Y-121730698D01*
X96399588Y-121832330D01*
G37*
%TD.AperFunction*%
%TA.AperFunction,Conductor*%
G36*
X105193429Y-54120185D02*
G01*
X105239184Y-54172989D01*
X105249748Y-54237103D01*
X105240000Y-54332513D01*
X105240000Y-55732500D01*
X107589999Y-55732500D01*
X107589999Y-54332528D01*
X107589998Y-54332510D01*
X107580252Y-54237101D01*
X107593022Y-54168408D01*
X107640903Y-54117524D01*
X107703610Y-54100500D01*
X110776390Y-54100500D01*
X110843429Y-54120185D01*
X110889184Y-54172989D01*
X110899748Y-54237103D01*
X110890000Y-54332513D01*
X110890000Y-55732500D01*
X113239999Y-55732500D01*
X113239999Y-54332528D01*
X113239998Y-54332510D01*
X113230252Y-54237101D01*
X113243022Y-54168408D01*
X113290903Y-54117524D01*
X113353610Y-54100500D01*
X136033762Y-54100500D01*
X136100801Y-54120185D01*
X136146556Y-54172989D01*
X136156500Y-54242147D01*
X136127475Y-54305703D01*
X136101298Y-54328495D01*
X136075146Y-54345478D01*
X135817592Y-54554039D01*
X135817592Y-54554040D01*
X137312245Y-56048692D01*
X137210614Y-56122532D01*
X137032532Y-56300614D01*
X136958692Y-56402244D01*
X135464040Y-54907592D01*
X135464039Y-54907592D01*
X135255475Y-55165150D01*
X135044254Y-55490400D01*
X134868188Y-55835949D01*
X134729206Y-56198007D01*
X134628831Y-56572613D01*
X134628830Y-56572620D01*
X134568163Y-56955656D01*
X134547866Y-57342943D01*
X134547866Y-57342944D01*
X134568163Y-57730231D01*
X134628830Y-58113267D01*
X134628831Y-58113274D01*
X134729206Y-58487880D01*
X134868188Y-58849938D01*
X135044254Y-59195487D01*
X135255475Y-59520737D01*
X135464039Y-59778294D01*
X135464040Y-59778294D01*
X136958692Y-58283642D01*
X137032532Y-58385274D01*
X137210614Y-58563356D01*
X137312244Y-58637195D01*
X135817592Y-60131847D01*
X135817593Y-60131848D01*
X136075150Y-60340412D01*
X136400400Y-60551633D01*
X136745949Y-60727699D01*
X137108007Y-60866681D01*
X137482613Y-60967056D01*
X137482620Y-60967057D01*
X137865656Y-61027724D01*
X138252943Y-61048022D01*
X138252945Y-61048022D01*
X138640231Y-61027724D01*
X139023267Y-60967057D01*
X139023274Y-60967056D01*
X139397880Y-60866681D01*
X139759938Y-60727699D01*
X140105487Y-60551633D01*
X140430727Y-60340420D01*
X140430729Y-60340419D01*
X140688293Y-60131846D01*
X139193642Y-58637195D01*
X139295274Y-58563356D01*
X139473356Y-58385274D01*
X139547195Y-58283642D01*
X141041846Y-59778293D01*
X141250419Y-59520729D01*
X141250420Y-59520727D01*
X141281505Y-59472861D01*
X141334526Y-59427358D01*
X141403731Y-59417744D01*
X141467148Y-59447071D01*
X141504642Y-59506028D01*
X141509500Y-59540396D01*
X141509500Y-82644053D01*
X141489815Y-82711092D01*
X141437011Y-82756847D01*
X141367853Y-82766791D01*
X141304297Y-82737766D01*
X141274500Y-82699325D01*
X141229249Y-82608450D01*
X141229247Y-82608447D01*
X141227465Y-82606087D01*
X140643553Y-83190000D01*
X141227465Y-83773912D01*
X141229247Y-83771553D01*
X141229251Y-83771547D01*
X141274500Y-83680675D01*
X141322002Y-83629437D01*
X141389665Y-83612016D01*
X141456006Y-83633941D01*
X141499961Y-83688253D01*
X141509500Y-83735946D01*
X141509500Y-102923870D01*
X141489815Y-102990909D01*
X141437011Y-103036664D01*
X141367853Y-103046608D01*
X141346497Y-103041576D01*
X141252700Y-103010495D01*
X141252690Y-103010493D01*
X141149986Y-103000000D01*
X139750000Y-103000000D01*
X139750000Y-105349999D01*
X141149972Y-105349999D01*
X141149986Y-105349998D01*
X141252695Y-105339506D01*
X141346495Y-105308423D01*
X141416323Y-105306021D01*
X141476366Y-105341752D01*
X141507559Y-105404272D01*
X141509500Y-105426129D01*
X141509500Y-108573870D01*
X141489815Y-108640909D01*
X141437011Y-108686664D01*
X141367853Y-108696608D01*
X141346497Y-108691576D01*
X141252700Y-108660495D01*
X141252690Y-108660493D01*
X141149986Y-108650000D01*
X139750000Y-108650000D01*
X139750000Y-110999999D01*
X141149972Y-110999999D01*
X141149986Y-110999998D01*
X141252695Y-110989506D01*
X141346495Y-110958423D01*
X141416323Y-110956021D01*
X141476366Y-110991752D01*
X141507559Y-111054272D01*
X141509500Y-111076129D01*
X141509500Y-118559473D01*
X141489815Y-118626512D01*
X141437011Y-118672267D01*
X141367853Y-118682211D01*
X141304297Y-118653186D01*
X141281505Y-118627009D01*
X141187465Y-118482202D01*
X140978904Y-118224649D01*
X140978903Y-118224648D01*
X139484251Y-119719300D01*
X139410412Y-119617670D01*
X139232330Y-119439588D01*
X139130698Y-119365748D01*
X140625350Y-117871096D01*
X140625350Y-117871095D01*
X140367793Y-117662531D01*
X140042543Y-117451310D01*
X139696994Y-117275244D01*
X139334936Y-117136262D01*
X138960330Y-117035887D01*
X138960323Y-117035886D01*
X138577287Y-116975219D01*
X138190001Y-116954922D01*
X138189999Y-116954922D01*
X137802712Y-116975219D01*
X137419676Y-117035886D01*
X137419669Y-117035887D01*
X137045063Y-117136262D01*
X136683005Y-117275244D01*
X136337456Y-117451310D01*
X136012206Y-117662531D01*
X135754648Y-117871095D01*
X135754648Y-117871096D01*
X137249301Y-119365748D01*
X137147670Y-119439588D01*
X136969588Y-119617670D01*
X136895748Y-119719300D01*
X135401096Y-118224648D01*
X135401095Y-118224648D01*
X135192531Y-118482206D01*
X134981310Y-118807456D01*
X134805244Y-119153005D01*
X134666262Y-119515063D01*
X134565887Y-119889669D01*
X134565886Y-119889676D01*
X134505219Y-120272712D01*
X134484922Y-120659999D01*
X134484922Y-120660000D01*
X134505219Y-121047287D01*
X134565886Y-121430323D01*
X134565887Y-121430330D01*
X134666262Y-121804936D01*
X134805244Y-122166994D01*
X134981310Y-122512543D01*
X135192531Y-122837793D01*
X135401095Y-123095350D01*
X135401096Y-123095350D01*
X136895748Y-121600698D01*
X136969588Y-121702330D01*
X137147670Y-121880412D01*
X137249300Y-121954251D01*
X135754648Y-123448903D01*
X135754649Y-123448904D01*
X136012206Y-123657468D01*
X136340184Y-123870461D01*
X136339582Y-123871387D01*
X136384676Y-123918687D01*
X136397895Y-123987295D01*
X136371923Y-124052158D01*
X136315006Y-124092683D01*
X136274457Y-124099500D01*
X99735926Y-124099500D01*
X99668887Y-124079815D01*
X99623132Y-124027011D01*
X99613188Y-123957853D01*
X99642213Y-123894297D01*
X99668391Y-123871505D01*
X99797783Y-123787476D01*
X99797785Y-123787475D01*
X100055349Y-123578902D01*
X98560698Y-122084251D01*
X98662330Y-122010412D01*
X98840412Y-121832330D01*
X98914251Y-121730698D01*
X100408902Y-123225349D01*
X100617475Y-122967785D01*
X100617476Y-122967783D01*
X100828689Y-122642543D01*
X101004755Y-122296994D01*
X101143737Y-121934936D01*
X101244112Y-121560330D01*
X101244113Y-121560323D01*
X101304780Y-121177287D01*
X101325078Y-120790000D01*
X101325078Y-120789999D01*
X101304780Y-120402712D01*
X101244113Y-120019676D01*
X101244112Y-120019669D01*
X101143737Y-119645063D01*
X101004755Y-119283005D01*
X100828689Y-118937456D01*
X100617468Y-118612206D01*
X100408904Y-118354649D01*
X100408903Y-118354648D01*
X98914251Y-119849300D01*
X98840412Y-119747670D01*
X98662330Y-119569588D01*
X98560698Y-119495748D01*
X100055350Y-118001096D01*
X100055350Y-118001095D01*
X99797793Y-117792531D01*
X99472543Y-117581310D01*
X99126994Y-117405244D01*
X98764936Y-117266262D01*
X98390330Y-117165887D01*
X98390323Y-117165886D01*
X98007287Y-117105219D01*
X97620001Y-117084922D01*
X97619999Y-117084922D01*
X97232712Y-117105219D01*
X96849676Y-117165886D01*
X96849669Y-117165887D01*
X96475063Y-117266262D01*
X96113005Y-117405244D01*
X95767456Y-117581310D01*
X95442206Y-117792531D01*
X95184648Y-118001095D01*
X95184648Y-118001096D01*
X96679301Y-119495748D01*
X96577670Y-119569588D01*
X96399588Y-119747670D01*
X96325748Y-119849300D01*
X94831096Y-118354648D01*
X94831095Y-118354648D01*
X94622534Y-118612202D01*
X94528495Y-118757009D01*
X94475474Y-118802511D01*
X94406268Y-118812125D01*
X94342852Y-118782798D01*
X94305358Y-118723841D01*
X94300500Y-118689473D01*
X94300500Y-110439999D01*
X99794341Y-110439999D01*
X99794341Y-110440000D01*
X99814936Y-110675403D01*
X99814938Y-110675413D01*
X99876094Y-110903655D01*
X99876096Y-110903659D01*
X99876097Y-110903663D01*
X99975965Y-111117830D01*
X99975967Y-111117834D01*
X100111501Y-111311395D01*
X100111506Y-111311402D01*
X100278597Y-111478493D01*
X100278603Y-111478498D01*
X100464594Y-111608730D01*
X100508219Y-111663307D01*
X100515413Y-111732805D01*
X100483890Y-111795160D01*
X100464595Y-111811880D01*
X100278922Y-111941890D01*
X100278920Y-111941891D01*
X100111891Y-112108920D01*
X100111886Y-112108926D01*
X99976400Y-112302420D01*
X99976399Y-112302422D01*
X99876570Y-112516507D01*
X99876567Y-112516513D01*
X99819364Y-112729999D01*
X99819364Y-112730000D01*
X100716988Y-112730000D01*
X100684075Y-112787007D01*
X100650000Y-112914174D01*
X100650000Y-113045826D01*
X100684075Y-113172993D01*
X100716988Y-113230000D01*
X99819364Y-113230000D01*
X99876567Y-113443486D01*
X99876570Y-113443492D01*
X99976399Y-113657578D01*
X100111894Y-113851082D01*
X100278917Y-114018105D01*
X100472421Y-114153600D01*
X100686507Y-114253429D01*
X100686516Y-114253433D01*
X100900000Y-114310634D01*
X100900000Y-113413012D01*
X100957007Y-113445925D01*
X101084174Y-113480000D01*
X101215826Y-113480000D01*
X101342993Y-113445925D01*
X101400000Y-113413012D01*
X101400000Y-114310633D01*
X101613483Y-114253433D01*
X101613492Y-114253429D01*
X101827578Y-114153600D01*
X102021082Y-114018105D01*
X102188105Y-113851082D01*
X102323600Y-113657578D01*
X102423429Y-113443492D01*
X102423432Y-113443486D01*
X102480636Y-113230000D01*
X101583012Y-113230000D01*
X101615925Y-113172993D01*
X101650000Y-113045826D01*
X101650000Y-112914174D01*
X101615925Y-112787007D01*
X101583012Y-112730000D01*
X102480636Y-112730000D01*
X102480635Y-112729999D01*
X102423432Y-112516513D01*
X102423429Y-112516507D01*
X102323600Y-112302422D01*
X102323599Y-112302420D01*
X102188113Y-112108926D01*
X102188108Y-112108920D01*
X102021078Y-111941890D01*
X101835405Y-111811879D01*
X101791780Y-111757302D01*
X101784588Y-111687804D01*
X101816110Y-111625449D01*
X101835406Y-111608730D01*
X102021401Y-111478495D01*
X102188495Y-111311401D01*
X102324035Y-111117830D01*
X102423903Y-110903663D01*
X102485063Y-110675408D01*
X102505659Y-110440000D01*
X102485063Y-110204592D01*
X102423903Y-109976337D01*
X102324035Y-109762171D01*
X102208274Y-109596847D01*
X102188496Y-109568600D01*
X102188495Y-109568599D01*
X102066567Y-109446671D01*
X102033084Y-109385351D01*
X102038068Y-109315659D01*
X102079939Y-109259725D01*
X102110915Y-109242810D01*
X102242331Y-109193796D01*
X102357546Y-109107546D01*
X102443796Y-108992331D01*
X102494091Y-108857483D01*
X102500500Y-108797873D01*
X102500499Y-107002128D01*
X102494091Y-106942517D01*
X102443796Y-106807669D01*
X102443795Y-106807668D01*
X102443793Y-106807664D01*
X102357547Y-106692455D01*
X102357544Y-106692452D01*
X102242335Y-106606206D01*
X102242328Y-106606202D01*
X102107482Y-106555908D01*
X102107483Y-106555908D01*
X102047883Y-106549501D01*
X102047881Y-106549500D01*
X102047873Y-106549500D01*
X102047864Y-106549500D01*
X100252129Y-106549500D01*
X100252123Y-106549501D01*
X100192516Y-106555908D01*
X100057671Y-106606202D01*
X100057664Y-106606206D01*
X99942455Y-106692452D01*
X99942452Y-106692455D01*
X99856206Y-106807664D01*
X99856202Y-106807671D01*
X99805908Y-106942517D01*
X99799501Y-107002116D01*
X99799501Y-107002123D01*
X99799500Y-107002135D01*
X99799500Y-108797870D01*
X99799501Y-108797876D01*
X99805908Y-108857483D01*
X99856202Y-108992328D01*
X99856206Y-108992335D01*
X99942452Y-109107544D01*
X99942455Y-109107547D01*
X100057664Y-109193793D01*
X100057671Y-109193797D01*
X100189081Y-109242810D01*
X100245015Y-109284681D01*
X100269432Y-109350145D01*
X100254580Y-109418418D01*
X100233430Y-109446673D01*
X100111503Y-109568600D01*
X99975965Y-109762169D01*
X99975964Y-109762171D01*
X99876098Y-109976335D01*
X99876094Y-109976344D01*
X99814938Y-110204586D01*
X99814936Y-110204596D01*
X99794341Y-110439999D01*
X94300500Y-110439999D01*
X94300500Y-100981219D01*
X94320185Y-100914180D01*
X94372989Y-100868425D01*
X94442147Y-100858481D01*
X94469293Y-100865591D01*
X94617544Y-100923024D01*
X94818024Y-100960500D01*
X94818026Y-100960500D01*
X95021974Y-100960500D01*
X95021976Y-100960500D01*
X95222456Y-100923024D01*
X95412637Y-100849348D01*
X95586041Y-100741981D01*
X95736764Y-100604579D01*
X95859673Y-100441821D01*
X95950582Y-100259250D01*
X96006397Y-100063083D01*
X96025215Y-99860000D01*
X96025215Y-99859999D01*
X96314785Y-99859999D01*
X96314785Y-99860000D01*
X96333602Y-100063082D01*
X96389417Y-100259247D01*
X96389422Y-100259260D01*
X96480327Y-100441821D01*
X96603237Y-100604581D01*
X96753958Y-100741980D01*
X96753960Y-100741982D01*
X96853141Y-100803392D01*
X96927363Y-100849348D01*
X97117544Y-100923024D01*
X97318024Y-100960500D01*
X97318026Y-100960500D01*
X97521974Y-100960500D01*
X97521976Y-100960500D01*
X97722456Y-100923024D01*
X97912637Y-100849348D01*
X98086041Y-100741981D01*
X98236764Y-100604579D01*
X98359673Y-100441821D01*
X98450582Y-100259250D01*
X98506397Y-100063083D01*
X98525215Y-99860000D01*
X98506397Y-99656917D01*
X98450582Y-99460750D01*
X98449728Y-99459035D01*
X98380696Y-99320400D01*
X98359673Y-99278179D01*
X98242905Y-99123553D01*
X98236762Y-99115418D01*
X98086041Y-98978019D01*
X98086039Y-98978017D01*
X97912642Y-98870655D01*
X97912635Y-98870651D01*
X97754774Y-98809496D01*
X97722456Y-98796976D01*
X97521976Y-98759500D01*
X97318024Y-98759500D01*
X97117544Y-98796976D01*
X97117541Y-98796976D01*
X97117541Y-98796977D01*
X96927364Y-98870651D01*
X96927357Y-98870655D01*
X96753960Y-98978017D01*
X96753958Y-98978019D01*
X96603237Y-99115418D01*
X96480327Y-99278178D01*
X96389422Y-99460739D01*
X96389417Y-99460752D01*
X96333602Y-99656917D01*
X96314785Y-99859999D01*
X96025215Y-99859999D01*
X96006397Y-99656917D01*
X95950582Y-99460750D01*
X95949728Y-99459035D01*
X95880696Y-99320400D01*
X95859673Y-99278179D01*
X95742905Y-99123553D01*
X95736762Y-99115418D01*
X95586041Y-98978019D01*
X95586039Y-98978017D01*
X95412642Y-98870655D01*
X95412635Y-98870651D01*
X95254774Y-98809496D01*
X95222456Y-98796976D01*
X95021976Y-98759500D01*
X94818024Y-98759500D01*
X94617544Y-98796976D01*
X94617541Y-98796976D01*
X94617541Y-98796977D01*
X94469294Y-98854408D01*
X94399670Y-98860270D01*
X94337930Y-98827560D01*
X94303675Y-98766663D01*
X94300500Y-98738781D01*
X94300500Y-94399818D01*
X96020000Y-94399818D01*
X96020000Y-94610000D01*
X96970000Y-94610000D01*
X96970000Y-95110000D01*
X96020000Y-95110000D01*
X96020000Y-95320181D01*
X96054473Y-95537835D01*
X96122567Y-95747410D01*
X96222613Y-95943760D01*
X96352142Y-96122041D01*
X96507958Y-96277857D01*
X96686239Y-96407386D01*
X96882589Y-96507432D01*
X97092163Y-96575526D01*
X97169999Y-96587854D01*
X97170000Y-96587854D01*
X97170000Y-95635277D01*
X97246306Y-95679333D01*
X97360756Y-95710000D01*
X97479244Y-95710000D01*
X97593694Y-95679333D01*
X97670000Y-95635277D01*
X97670000Y-96587854D01*
X97747834Y-96575526D01*
X97747837Y-96575526D01*
X97957410Y-96507432D01*
X98153760Y-96407386D01*
X98332041Y-96277857D01*
X98487857Y-96122041D01*
X98617386Y-95943760D01*
X98717432Y-95747410D01*
X98785526Y-95537835D01*
X98820000Y-95320181D01*
X98820000Y-95110000D01*
X97870000Y-95110000D01*
X97870000Y-94610000D01*
X98820000Y-94610000D01*
X98820000Y-94399818D01*
X98785526Y-94182164D01*
X98717432Y-93972589D01*
X98617386Y-93776239D01*
X98487857Y-93597958D01*
X98332041Y-93442142D01*
X98153760Y-93312613D01*
X97957410Y-93212567D01*
X97747836Y-93144473D01*
X97670000Y-93132144D01*
X97670000Y-94084722D01*
X97593694Y-94040667D01*
X97479244Y-94010000D01*
X97360756Y-94010000D01*
X97246306Y-94040667D01*
X97170000Y-94084722D01*
X97170000Y-93132144D01*
X97092164Y-93144473D01*
X97092161Y-93144473D01*
X96882589Y-93212567D01*
X96686239Y-93312613D01*
X96507958Y-93442142D01*
X96352142Y-93597958D01*
X96222613Y-93776239D01*
X96122567Y-93972589D01*
X96054473Y-94182164D01*
X96020000Y-94399818D01*
X94300500Y-94399818D01*
X94300500Y-90981219D01*
X94320185Y-90914180D01*
X94372989Y-90868425D01*
X94442147Y-90858481D01*
X94469293Y-90865591D01*
X94617544Y-90923024D01*
X94818024Y-90960500D01*
X94818026Y-90960500D01*
X95021974Y-90960500D01*
X95021976Y-90960500D01*
X95222456Y-90923024D01*
X95412637Y-90849348D01*
X95586041Y-90741981D01*
X95736764Y-90604579D01*
X95859673Y-90441821D01*
X95950582Y-90259250D01*
X96006397Y-90063083D01*
X96025215Y-89860000D01*
X96025215Y-89859999D01*
X96314785Y-89859999D01*
X96314785Y-89860000D01*
X96333602Y-90063082D01*
X96389417Y-90259247D01*
X96389422Y-90259260D01*
X96480327Y-90441821D01*
X96603237Y-90604581D01*
X96753958Y-90741980D01*
X96753960Y-90741982D01*
X96803031Y-90772365D01*
X96927363Y-90849348D01*
X97117544Y-90923024D01*
X97318024Y-90960500D01*
X97318026Y-90960500D01*
X97521974Y-90960500D01*
X97521976Y-90960500D01*
X97722456Y-90923024D01*
X97912637Y-90849348D01*
X98086041Y-90741981D01*
X98236764Y-90604579D01*
X98359673Y-90441821D01*
X98450582Y-90259250D01*
X98506397Y-90063083D01*
X98525215Y-89860000D01*
X98515002Y-89749778D01*
X100669500Y-89749778D01*
X100669500Y-89970221D01*
X100703985Y-90187952D01*
X100772103Y-90397603D01*
X100772104Y-90397606D01*
X100872187Y-90594025D01*
X101001752Y-90772358D01*
X101001756Y-90772363D01*
X101157636Y-90928243D01*
X101157641Y-90928247D01*
X101269727Y-91009682D01*
X101312393Y-91065011D01*
X101318372Y-91134625D01*
X101285767Y-91196420D01*
X101269727Y-91210318D01*
X101157641Y-91291752D01*
X101157636Y-91291756D01*
X101001756Y-91447636D01*
X101001752Y-91447641D01*
X100872187Y-91625974D01*
X100772104Y-91822393D01*
X100772103Y-91822396D01*
X100703985Y-92032047D01*
X100669500Y-92249778D01*
X100669500Y-92470221D01*
X100703985Y-92687952D01*
X100772103Y-92897603D01*
X100772104Y-92897606D01*
X100872187Y-93094025D01*
X101001752Y-93272358D01*
X101001756Y-93272363D01*
X101157636Y-93428243D01*
X101157641Y-93428247D01*
X101313192Y-93541260D01*
X101335978Y-93557815D01*
X101464375Y-93623237D01*
X101532393Y-93657895D01*
X101532396Y-93657896D01*
X101630166Y-93689662D01*
X101742049Y-93726015D01*
X101745993Y-93726639D01*
X101809126Y-93756564D01*
X101846062Y-93815873D01*
X101845069Y-93885735D01*
X101806463Y-93943971D01*
X101791879Y-93954539D01*
X101753959Y-93978018D01*
X101753958Y-93978019D01*
X101603237Y-94115418D01*
X101480327Y-94278178D01*
X101389422Y-94460739D01*
X101389417Y-94460752D01*
X101333602Y-94656917D01*
X101314785Y-94859999D01*
X101314785Y-94860000D01*
X101333602Y-95063082D01*
X101389417Y-95259247D01*
X101389422Y-95259260D01*
X101480327Y-95441821D01*
X101603237Y-95604581D01*
X101753958Y-95741980D01*
X101753960Y-95741982D01*
X101791877Y-95765459D01*
X101838513Y-95817486D01*
X101849617Y-95886468D01*
X101821664Y-95950502D01*
X101763529Y-95989259D01*
X101746006Y-95993358D01*
X101742049Y-95993985D01*
X101742047Y-95993985D01*
X101742044Y-95993986D01*
X101532396Y-96062103D01*
X101532393Y-96062104D01*
X101335974Y-96162187D01*
X101157641Y-96291752D01*
X101157636Y-96291756D01*
X101001756Y-96447636D01*
X101001752Y-96447641D01*
X100872187Y-96625974D01*
X100772104Y-96822393D01*
X100772103Y-96822396D01*
X100703985Y-97032047D01*
X100669500Y-97249778D01*
X100669500Y-97470221D01*
X100703985Y-97687952D01*
X100772103Y-97897603D01*
X100772104Y-97897606D01*
X100872187Y-98094025D01*
X101001752Y-98272358D01*
X101001756Y-98272363D01*
X101157636Y-98428243D01*
X101157641Y-98428247D01*
X101269727Y-98509682D01*
X101312393Y-98565011D01*
X101318372Y-98634625D01*
X101285767Y-98696420D01*
X101269727Y-98710318D01*
X101157641Y-98791752D01*
X101157636Y-98791756D01*
X101001756Y-98947636D01*
X101001752Y-98947641D01*
X100872189Y-99125971D01*
X100772104Y-99322393D01*
X100772103Y-99322396D01*
X100703985Y-99532047D01*
X100669500Y-99749778D01*
X100669500Y-99970221D01*
X100703985Y-100187952D01*
X100772103Y-100397603D01*
X100772104Y-100397606D01*
X100872187Y-100594025D01*
X101001752Y-100772358D01*
X101001756Y-100772363D01*
X101157635Y-100928242D01*
X101157641Y-100928247D01*
X101213526Y-100968849D01*
X101335978Y-101057815D01*
X101464375Y-101123237D01*
X101532393Y-101157895D01*
X101532396Y-101157896D01*
X101637221Y-101191955D01*
X101742049Y-101226015D01*
X101959778Y-101260500D01*
X101959779Y-101260500D01*
X102880221Y-101260500D01*
X102880222Y-101260500D01*
X103097951Y-101226015D01*
X103307606Y-101157895D01*
X103504022Y-101057815D01*
X103682365Y-100928242D01*
X103838242Y-100772365D01*
X103967815Y-100594022D01*
X104067895Y-100397606D01*
X104136015Y-100187951D01*
X104170500Y-99970222D01*
X104170500Y-99749778D01*
X104136015Y-99532049D01*
X104070641Y-99330845D01*
X104067896Y-99322396D01*
X104067895Y-99322393D01*
X103967811Y-99125971D01*
X103838247Y-98947641D01*
X103838243Y-98947636D01*
X103682365Y-98791758D01*
X103682357Y-98791752D01*
X103570270Y-98710317D01*
X103527606Y-98654989D01*
X103521627Y-98585376D01*
X103554232Y-98523580D01*
X103570265Y-98509686D01*
X103682365Y-98428242D01*
X103838242Y-98272365D01*
X103967815Y-98094022D01*
X104067895Y-97897606D01*
X104136015Y-97687951D01*
X104170500Y-97470222D01*
X104170500Y-97249778D01*
X104136015Y-97032049D01*
X104067895Y-96822394D01*
X104067895Y-96822393D01*
X104033237Y-96754375D01*
X103967815Y-96625978D01*
X103951260Y-96603192D01*
X103838247Y-96447641D01*
X103838243Y-96447636D01*
X103682363Y-96291756D01*
X103682358Y-96291752D01*
X103504025Y-96162187D01*
X103504024Y-96162186D01*
X103504022Y-96162185D01*
X103425236Y-96122041D01*
X103307606Y-96062104D01*
X103307603Y-96062103D01*
X103097954Y-95993985D01*
X103094661Y-95993464D01*
X103093997Y-95993358D01*
X103030864Y-95963428D01*
X102993934Y-95904115D01*
X102994934Y-95834253D01*
X103033545Y-95776021D01*
X103048115Y-95765463D01*
X103086041Y-95741981D01*
X103236764Y-95604579D01*
X103359673Y-95441821D01*
X103450582Y-95259250D01*
X103506397Y-95063083D01*
X103525215Y-94860000D01*
X103506397Y-94656917D01*
X103450582Y-94460750D01*
X103359673Y-94278179D01*
X103236764Y-94115421D01*
X103236762Y-94115418D01*
X103086042Y-93978020D01*
X103086041Y-93978019D01*
X103048120Y-93954539D01*
X103001486Y-93902512D01*
X102990382Y-93833530D01*
X103018335Y-93769496D01*
X103076471Y-93730739D01*
X103094000Y-93726640D01*
X103097951Y-93726015D01*
X103307606Y-93657895D01*
X103504022Y-93557815D01*
X103682365Y-93428242D01*
X103838242Y-93272365D01*
X103967815Y-93094022D01*
X104067895Y-92897606D01*
X104136015Y-92687951D01*
X104170500Y-92470222D01*
X104170500Y-92249778D01*
X104136015Y-92032049D01*
X104067895Y-91822394D01*
X104067895Y-91822393D01*
X104033237Y-91754375D01*
X103967815Y-91625978D01*
X103951260Y-91603192D01*
X103838247Y-91447641D01*
X103838243Y-91447636D01*
X103682365Y-91291758D01*
X103682357Y-91291752D01*
X103570270Y-91210317D01*
X103527606Y-91154989D01*
X103521627Y-91085376D01*
X103554232Y-91023580D01*
X103570265Y-91009686D01*
X103682365Y-90928242D01*
X103838242Y-90772365D01*
X103967815Y-90594022D01*
X104067895Y-90397606D01*
X104136015Y-90187951D01*
X104170500Y-89970222D01*
X104170500Y-89749778D01*
X104136015Y-89532049D01*
X104086457Y-89379522D01*
X104067896Y-89322396D01*
X104067895Y-89322393D01*
X104010247Y-89209255D01*
X103967815Y-89125978D01*
X103917013Y-89056054D01*
X103838247Y-88947641D01*
X103838243Y-88947636D01*
X103682363Y-88791756D01*
X103682358Y-88791752D01*
X103504025Y-88662187D01*
X103504024Y-88662186D01*
X103504022Y-88662185D01*
X103441096Y-88630122D01*
X103307606Y-88562104D01*
X103307603Y-88562103D01*
X103097952Y-88493985D01*
X102989086Y-88476742D01*
X102880222Y-88459500D01*
X101959778Y-88459500D01*
X101887201Y-88470995D01*
X101742047Y-88493985D01*
X101532396Y-88562103D01*
X101532393Y-88562104D01*
X101335974Y-88662187D01*
X101157641Y-88791752D01*
X101157636Y-88791756D01*
X101001756Y-88947636D01*
X101001752Y-88947641D01*
X100872187Y-89125974D01*
X100772104Y-89322393D01*
X100772103Y-89322396D01*
X100703985Y-89532047D01*
X100669500Y-89749778D01*
X98515002Y-89749778D01*
X98506397Y-89656917D01*
X98450582Y-89460750D01*
X98359673Y-89278179D01*
X98236764Y-89115421D01*
X98236762Y-89115418D01*
X98086041Y-88978019D01*
X98086039Y-88978017D01*
X97912642Y-88870655D01*
X97912635Y-88870651D01*
X97801403Y-88827560D01*
X97722456Y-88796976D01*
X97521976Y-88759500D01*
X97318024Y-88759500D01*
X97117544Y-88796976D01*
X97117541Y-88796976D01*
X97117541Y-88796977D01*
X96927364Y-88870651D01*
X96927357Y-88870655D01*
X96753960Y-88978017D01*
X96753958Y-88978019D01*
X96603237Y-89115418D01*
X96480327Y-89278178D01*
X96389422Y-89460739D01*
X96389417Y-89460752D01*
X96333602Y-89656917D01*
X96314785Y-89859999D01*
X96025215Y-89859999D01*
X96006397Y-89656917D01*
X95950582Y-89460750D01*
X95859673Y-89278179D01*
X95736764Y-89115421D01*
X95736762Y-89115418D01*
X95586041Y-88978019D01*
X95586039Y-88978017D01*
X95412642Y-88870655D01*
X95412635Y-88870651D01*
X95301403Y-88827560D01*
X95222456Y-88796976D01*
X95021976Y-88759500D01*
X94818024Y-88759500D01*
X94617544Y-88796976D01*
X94617541Y-88796976D01*
X94617541Y-88796977D01*
X94469294Y-88854408D01*
X94399670Y-88860270D01*
X94337930Y-88827560D01*
X94303675Y-88766663D01*
X94300500Y-88738781D01*
X94300500Y-77709998D01*
X100614532Y-77709998D01*
X100614532Y-77710001D01*
X100634364Y-77936686D01*
X100634366Y-77936697D01*
X100693258Y-78156488D01*
X100693261Y-78156497D01*
X100789431Y-78362732D01*
X100789432Y-78362734D01*
X100919954Y-78549141D01*
X101080858Y-78710045D01*
X101109354Y-78729998D01*
X101267266Y-78840568D01*
X101473504Y-78936739D01*
X101693308Y-78995635D01*
X101855230Y-79009801D01*
X101919998Y-79015468D01*
X101920000Y-79015468D01*
X101920002Y-79015468D01*
X101976673Y-79010509D01*
X102146692Y-78995635D01*
X102366496Y-78936739D01*
X102572734Y-78840568D01*
X102759139Y-78710047D01*
X102920047Y-78549139D01*
X103050568Y-78362734D01*
X103146739Y-78156496D01*
X103177317Y-78042375D01*
X103213682Y-77982716D01*
X103276528Y-77952186D01*
X103345904Y-77960480D01*
X103399782Y-78004965D01*
X103418288Y-78062856D01*
X103420374Y-78062631D01*
X103420382Y-78062705D01*
X103420816Y-78070763D01*
X103421057Y-78071517D01*
X103421092Y-78074469D01*
X103421092Y-78075884D01*
X103421100Y-78076033D01*
X103421100Y-78210199D01*
X103421118Y-78210585D01*
X103421118Y-78220566D01*
X103452415Y-78398146D01*
X103514075Y-78567595D01*
X103514077Y-78567598D01*
X103574170Y-78671698D01*
X103589635Y-78698487D01*
X103606103Y-78766388D01*
X103589627Y-78822486D01*
X103532994Y-78920567D01*
X103514110Y-78953270D01*
X103452433Y-79122688D01*
X103452429Y-79122700D01*
X103421109Y-79300240D01*
X103421107Y-79300257D01*
X103421106Y-79310924D01*
X103421100Y-79311075D01*
X103421100Y-79390416D01*
X103421092Y-79475884D01*
X103421100Y-79476033D01*
X103421100Y-79610199D01*
X103421118Y-79610585D01*
X103421118Y-79620566D01*
X103452415Y-79798146D01*
X103514075Y-79967595D01*
X103514077Y-79967598D01*
X103589635Y-80098487D01*
X103606103Y-80166388D01*
X103589627Y-80222486D01*
X103532994Y-80320567D01*
X103514110Y-80353270D01*
X103452433Y-80522688D01*
X103452429Y-80522700D01*
X103421109Y-80700240D01*
X103421107Y-80700257D01*
X103421106Y-80710924D01*
X103421100Y-80711075D01*
X103421100Y-80790416D01*
X103421092Y-80875884D01*
X103421100Y-80876033D01*
X103421100Y-81010199D01*
X103421118Y-81010585D01*
X103421118Y-81020566D01*
X103452415Y-81198146D01*
X103514075Y-81367595D01*
X103514077Y-81367598D01*
X103581118Y-81483734D01*
X103589635Y-81498487D01*
X103606103Y-81566388D01*
X103589628Y-81622486D01*
X103584727Y-81630974D01*
X103532994Y-81720567D01*
X103514110Y-81753270D01*
X103452433Y-81922688D01*
X103452429Y-81922700D01*
X103421109Y-82100240D01*
X103421107Y-82100257D01*
X103421106Y-82110924D01*
X103421100Y-82111075D01*
X103421100Y-82190405D01*
X103421092Y-82275884D01*
X103421100Y-82276033D01*
X103421100Y-82347491D01*
X103401415Y-82414530D01*
X103348611Y-82460285D01*
X103279453Y-82470229D01*
X103215897Y-82441204D01*
X103178123Y-82382426D01*
X103177325Y-82379584D01*
X103146269Y-82263682D01*
X103146264Y-82263668D01*
X103050136Y-82057521D01*
X103050132Y-82057513D01*
X102999025Y-81984526D01*
X102320000Y-82663551D01*
X102320000Y-82657339D01*
X102292741Y-82555606D01*
X102240080Y-82464394D01*
X102165606Y-82389920D01*
X102074394Y-82337259D01*
X101972661Y-82310000D01*
X101966448Y-82310000D01*
X102645472Y-81630974D01*
X102572478Y-81579863D01*
X102366331Y-81483735D01*
X102366317Y-81483730D01*
X102146610Y-81424860D01*
X102146599Y-81424858D01*
X101920002Y-81405034D01*
X101919998Y-81405034D01*
X101693400Y-81424858D01*
X101693389Y-81424860D01*
X101473682Y-81483730D01*
X101473673Y-81483734D01*
X101267516Y-81579866D01*
X101267512Y-81579868D01*
X101194526Y-81630973D01*
X101194526Y-81630974D01*
X101873553Y-82310000D01*
X101867339Y-82310000D01*
X101765606Y-82337259D01*
X101674394Y-82389920D01*
X101599920Y-82464394D01*
X101547259Y-82555606D01*
X101520000Y-82657339D01*
X101520000Y-82663552D01*
X100840974Y-81984526D01*
X100840973Y-81984526D01*
X100789868Y-82057512D01*
X100789866Y-82057516D01*
X100693734Y-82263673D01*
X100693730Y-82263682D01*
X100634860Y-82483389D01*
X100634858Y-82483400D01*
X100615034Y-82709997D01*
X100615034Y-82710002D01*
X100634858Y-82936599D01*
X100634860Y-82936610D01*
X100693730Y-83156317D01*
X100693735Y-83156331D01*
X100789863Y-83362478D01*
X100840974Y-83435472D01*
X101520000Y-82756446D01*
X101520000Y-82762661D01*
X101547259Y-82864394D01*
X101599920Y-82955606D01*
X101674394Y-83030080D01*
X101765606Y-83082741D01*
X101867339Y-83110000D01*
X101873553Y-83110000D01*
X101194526Y-83789025D01*
X101267513Y-83840132D01*
X101267521Y-83840136D01*
X101473668Y-83936264D01*
X101473682Y-83936269D01*
X101693389Y-83995139D01*
X101693400Y-83995141D01*
X101919998Y-84014966D01*
X101920002Y-84014966D01*
X102146599Y-83995141D01*
X102146610Y-83995139D01*
X102366317Y-83936269D01*
X102366331Y-83936264D01*
X102572478Y-83840136D01*
X102645471Y-83789024D01*
X101966447Y-83110000D01*
X101972661Y-83110000D01*
X102074394Y-83082741D01*
X102165606Y-83030080D01*
X102240080Y-82955606D01*
X102292741Y-82864394D01*
X102320000Y-82762661D01*
X102320000Y-82756447D01*
X102999024Y-83435471D01*
X103050136Y-83362478D01*
X103146264Y-83156331D01*
X103146269Y-83156317D01*
X103205139Y-82936610D01*
X103205141Y-82936599D01*
X103224966Y-82710002D01*
X103222200Y-82678394D01*
X103235965Y-82609894D01*
X103284580Y-82559710D01*
X103352608Y-82543775D01*
X103418452Y-82567149D01*
X103461207Y-82622410D01*
X103462253Y-82625182D01*
X103514075Y-82767594D01*
X103514077Y-82767598D01*
X103589202Y-82897738D01*
X103589635Y-82898487D01*
X103606103Y-82966388D01*
X103589627Y-83022486D01*
X103532994Y-83120567D01*
X103514110Y-83153270D01*
X103452433Y-83322688D01*
X103452429Y-83322700D01*
X103421109Y-83500240D01*
X103421107Y-83500257D01*
X103421106Y-83510924D01*
X103421100Y-83511075D01*
X103421100Y-83590416D01*
X103421092Y-83675884D01*
X103421100Y-83676033D01*
X103421100Y-83810199D01*
X103421118Y-83810585D01*
X103421118Y-83820566D01*
X103452415Y-83998146D01*
X103514075Y-84167595D01*
X103514077Y-84167598D01*
X103563901Y-84253909D01*
X103589635Y-84298487D01*
X103606103Y-84366388D01*
X103589627Y-84422486D01*
X103532994Y-84520567D01*
X103514110Y-84553270D01*
X103452433Y-84722688D01*
X103452429Y-84722700D01*
X103421109Y-84900240D01*
X103421107Y-84900257D01*
X103421106Y-84910924D01*
X103421100Y-84911075D01*
X103421100Y-84990416D01*
X103421092Y-85075884D01*
X103421100Y-85076033D01*
X103421100Y-85210199D01*
X103421118Y-85210585D01*
X103421118Y-85220566D01*
X103452415Y-85398146D01*
X103514075Y-85567595D01*
X103514077Y-85567598D01*
X103604224Y-85723761D01*
X103604226Y-85723763D01*
X103604227Y-85723765D01*
X103720128Y-85861904D01*
X103720130Y-85861906D01*
X103720131Y-85861907D01*
X103858257Y-85977819D01*
X104014407Y-86067979D01*
X104014409Y-86067979D01*
X104014415Y-86067983D01*
X104183860Y-86129659D01*
X104183859Y-86129659D01*
X104217801Y-86135644D01*
X104318634Y-86153424D01*
X104381236Y-86184451D01*
X104417126Y-86244398D01*
X104421100Y-86275540D01*
X104421100Y-100155553D01*
X104418717Y-100179745D01*
X104409500Y-100226079D01*
X104409500Y-100226082D01*
X104409500Y-100373918D01*
X104409500Y-100373920D01*
X104409499Y-100373920D01*
X104438340Y-100518907D01*
X104438343Y-100518917D01*
X104494913Y-100655490D01*
X104494914Y-100655492D01*
X104526205Y-100702322D01*
X104526206Y-100702324D01*
X104577043Y-100778410D01*
X104577047Y-100778415D01*
X104681586Y-100882954D01*
X104708697Y-100901068D01*
X104749367Y-100928242D01*
X104804505Y-100965084D01*
X104804507Y-100965085D01*
X104804511Y-100965087D01*
X104941082Y-101021656D01*
X104941087Y-101021658D01*
X104941091Y-101021658D01*
X104941092Y-101021659D01*
X105086079Y-101050500D01*
X105086082Y-101050500D01*
X105086083Y-101050500D01*
X105233917Y-101050500D01*
X107157115Y-101050500D01*
X107224154Y-101070185D01*
X107260923Y-101106678D01*
X107297815Y-101163145D01*
X107297817Y-101163147D01*
X107297821Y-101163153D01*
X107455016Y-101333913D01*
X107455019Y-101333915D01*
X107455022Y-101333918D01*
X107632618Y-101472147D01*
X107673431Y-101528857D01*
X107677106Y-101598630D01*
X107642474Y-101659313D01*
X107632618Y-101667853D01*
X107455022Y-101806081D01*
X107455019Y-101806084D01*
X107297816Y-101976852D01*
X107170875Y-102171151D01*
X107077642Y-102383699D01*
X107020666Y-102608691D01*
X107020664Y-102608702D01*
X107001500Y-102839993D01*
X107001500Y-102840006D01*
X107020664Y-103071297D01*
X107020666Y-103071308D01*
X107077642Y-103296300D01*
X107170875Y-103508848D01*
X107297816Y-103703147D01*
X107297819Y-103703151D01*
X107297821Y-103703153D01*
X107455016Y-103873913D01*
X107455019Y-103873915D01*
X107455022Y-103873918D01*
X107632618Y-104012147D01*
X107673431Y-104068857D01*
X107677106Y-104138630D01*
X107642474Y-104199313D01*
X107632618Y-104207853D01*
X107455022Y-104346081D01*
X107455019Y-104346084D01*
X107297816Y-104516852D01*
X107170875Y-104711151D01*
X107077642Y-104923699D01*
X107020666Y-105148691D01*
X107020664Y-105148702D01*
X107001500Y-105379993D01*
X107001500Y-105380006D01*
X107020664Y-105611297D01*
X107020666Y-105611308D01*
X107077642Y-105836300D01*
X107170875Y-106048848D01*
X107297816Y-106243147D01*
X107297819Y-106243151D01*
X107297821Y-106243153D01*
X107455016Y-106413913D01*
X107455019Y-106413915D01*
X107455022Y-106413918D01*
X107632618Y-106552147D01*
X107673431Y-106608857D01*
X107677106Y-106678630D01*
X107642474Y-106739313D01*
X107632618Y-106747853D01*
X107455022Y-106886081D01*
X107455019Y-106886084D01*
X107297816Y-107056852D01*
X107170875Y-107251151D01*
X107077642Y-107463699D01*
X107020666Y-107688691D01*
X107020664Y-107688702D01*
X107001500Y-107919993D01*
X107001500Y-107920006D01*
X107020664Y-108151297D01*
X107020666Y-108151308D01*
X107077642Y-108376300D01*
X107170875Y-108588848D01*
X107297816Y-108783147D01*
X107297819Y-108783151D01*
X107297821Y-108783153D01*
X107455016Y-108953913D01*
X107455019Y-108953915D01*
X107455022Y-108953918D01*
X107632618Y-109092147D01*
X107673431Y-109148857D01*
X107677106Y-109218630D01*
X107642474Y-109279313D01*
X107632618Y-109287853D01*
X107455022Y-109426081D01*
X107455019Y-109426084D01*
X107455016Y-109426086D01*
X107455016Y-109426087D01*
X107396067Y-109490122D01*
X107297816Y-109596852D01*
X107170875Y-109791151D01*
X107077642Y-110003699D01*
X107020666Y-110228691D01*
X107020664Y-110228702D01*
X107001500Y-110459993D01*
X107001500Y-110460006D01*
X107020664Y-110691297D01*
X107020666Y-110691308D01*
X107077642Y-110916300D01*
X107170875Y-111128848D01*
X107297816Y-111323147D01*
X107297819Y-111323151D01*
X107297821Y-111323153D01*
X107455016Y-111493913D01*
X107633025Y-111632462D01*
X107673838Y-111689173D01*
X107677513Y-111758946D01*
X107642882Y-111819629D01*
X107633025Y-111828170D01*
X107608001Y-111847646D01*
X107608000Y-111847647D01*
X108270858Y-112510504D01*
X108210719Y-112526619D01*
X108094880Y-112593498D01*
X108000298Y-112688080D01*
X107933419Y-112803919D01*
X107917304Y-112864058D01*
X107255611Y-112202365D01*
X107171316Y-112331390D01*
X107078117Y-112543864D01*
X107021161Y-112768781D01*
X107002002Y-112999994D01*
X107002002Y-113000005D01*
X107021161Y-113231218D01*
X107078117Y-113456135D01*
X107171315Y-113668606D01*
X107255612Y-113797633D01*
X107917304Y-113135941D01*
X107933419Y-113196081D01*
X108000298Y-113311920D01*
X108094880Y-113406502D01*
X108210719Y-113473381D01*
X108270857Y-113489495D01*
X107608001Y-114152351D01*
X107633026Y-114171829D01*
X107673838Y-114228539D01*
X107677513Y-114298312D01*
X107642881Y-114358995D01*
X107633026Y-114367535D01*
X107455018Y-114506085D01*
X107297823Y-114676844D01*
X107213084Y-114806545D01*
X107159937Y-114851901D01*
X107156730Y-114853282D01*
X107104513Y-114874911D01*
X107104498Y-114874919D01*
X106981584Y-114957048D01*
X106981580Y-114957051D01*
X106877051Y-115061580D01*
X106877048Y-115061584D01*
X106794919Y-115184498D01*
X106794912Y-115184511D01*
X106738343Y-115321082D01*
X106738340Y-115321092D01*
X106709500Y-115466079D01*
X106709500Y-115466082D01*
X106709500Y-115613918D01*
X106709500Y-115613920D01*
X106709499Y-115613920D01*
X106738340Y-115758907D01*
X106738343Y-115758917D01*
X106794912Y-115895488D01*
X106794919Y-115895501D01*
X106877048Y-116018415D01*
X106877051Y-116018419D01*
X106981580Y-116122948D01*
X106981588Y-116122954D01*
X107104494Y-116205077D01*
X107104498Y-116205079D01*
X107104505Y-116205084D01*
X107156729Y-116226715D01*
X107211130Y-116270553D01*
X107213073Y-116273436D01*
X107297821Y-116403153D01*
X107455016Y-116573913D01*
X107455019Y-116573915D01*
X107455022Y-116573918D01*
X107638165Y-116716464D01*
X107638171Y-116716468D01*
X107638174Y-116716470D01*
X107842297Y-116826936D01*
X107948801Y-116863499D01*
X108061815Y-116902297D01*
X108061817Y-116902297D01*
X108061819Y-116902298D01*
X108290751Y-116940500D01*
X108290752Y-116940500D01*
X108522848Y-116940500D01*
X108522849Y-116940500D01*
X108751781Y-116902298D01*
X108854571Y-116867009D01*
X108868837Y-116863499D01*
X108868761Y-116863165D01*
X110271990Y-116543596D01*
X110299525Y-116540500D01*
X133358542Y-116540500D01*
X133377870Y-116536655D01*
X133455188Y-116521275D01*
X133551836Y-116502051D01*
X133605165Y-116479961D01*
X133733914Y-116426632D01*
X133897782Y-116317139D01*
X134037139Y-116177782D01*
X134037140Y-116177779D01*
X134044206Y-116170714D01*
X134044210Y-116170709D01*
X134127741Y-116087180D01*
X134279184Y-115935736D01*
X134427139Y-115787782D01*
X134427139Y-115787780D01*
X134434200Y-115780720D01*
X134434206Y-115780713D01*
X134577778Y-115637141D01*
X134577782Y-115637139D01*
X134717139Y-115497782D01*
X134826632Y-115333914D01*
X134888519Y-115184505D01*
X134902051Y-115151836D01*
X134940500Y-114958540D01*
X134940500Y-114761460D01*
X134940500Y-110299986D01*
X137150001Y-110299986D01*
X137160494Y-110402697D01*
X137215641Y-110569119D01*
X137215643Y-110569124D01*
X137307684Y-110718345D01*
X137431654Y-110842315D01*
X137580875Y-110934356D01*
X137580880Y-110934358D01*
X137747302Y-110989505D01*
X137747309Y-110989506D01*
X137850019Y-110999999D01*
X139249999Y-110999999D01*
X139250000Y-110999998D01*
X139250000Y-110075000D01*
X137150001Y-110075000D01*
X137150001Y-110299986D01*
X134940500Y-110299986D01*
X134940500Y-109350013D01*
X137150000Y-109350013D01*
X137150000Y-109575000D01*
X139250000Y-109575000D01*
X139250000Y-108650000D01*
X137850028Y-108650000D01*
X137850012Y-108650001D01*
X137747302Y-108660494D01*
X137580880Y-108715641D01*
X137580875Y-108715643D01*
X137431654Y-108807684D01*
X137307684Y-108931654D01*
X137215643Y-109080875D01*
X137215641Y-109080880D01*
X137160494Y-109247302D01*
X137160493Y-109247309D01*
X137150000Y-109350013D01*
X134940500Y-109350013D01*
X134940500Y-104649986D01*
X137150001Y-104649986D01*
X137160494Y-104752697D01*
X137215641Y-104919119D01*
X137215643Y-104919124D01*
X137307684Y-105068345D01*
X137431654Y-105192315D01*
X137580875Y-105284356D01*
X137580880Y-105284358D01*
X137747302Y-105339505D01*
X137747309Y-105339506D01*
X137850019Y-105349999D01*
X139249999Y-105349999D01*
X139250000Y-105349998D01*
X139250000Y-104425000D01*
X137150001Y-104425000D01*
X137150001Y-104649986D01*
X134940500Y-104649986D01*
X134940500Y-103700013D01*
X137150000Y-103700013D01*
X137150000Y-103925000D01*
X139250000Y-103925000D01*
X139250000Y-103000000D01*
X137850028Y-103000000D01*
X137850012Y-103000001D01*
X137747302Y-103010494D01*
X137580880Y-103065641D01*
X137580875Y-103065643D01*
X137431654Y-103157684D01*
X137307684Y-103281654D01*
X137215643Y-103430875D01*
X137215641Y-103430880D01*
X137160494Y-103597302D01*
X137160493Y-103597309D01*
X137150000Y-103700013D01*
X134940500Y-103700013D01*
X134940500Y-100052099D01*
X134942187Y-100031714D01*
X134970806Y-99859999D01*
X134996766Y-99704240D01*
X135359311Y-99704240D01*
X135447585Y-99758897D01*
X135637678Y-99832539D01*
X135838072Y-99870000D01*
X136041928Y-99870000D01*
X136242322Y-99832539D01*
X136432412Y-99758899D01*
X136432416Y-99758897D01*
X136520686Y-99704241D01*
X136520686Y-99704240D01*
X135940001Y-99123553D01*
X135940000Y-99123553D01*
X135359311Y-99704240D01*
X134996766Y-99704240D01*
X135037633Y-99459035D01*
X135042764Y-99417885D01*
X135042774Y-99417805D01*
X135042813Y-99417329D01*
X135042933Y-99415890D01*
X135042360Y-99366900D01*
X135061260Y-99299639D01*
X135078671Y-99277773D01*
X135586446Y-98770000D01*
X135586446Y-98769999D01*
X135546951Y-98730504D01*
X135640000Y-98730504D01*
X135640000Y-98809496D01*
X135660444Y-98885796D01*
X135699940Y-98954205D01*
X135755795Y-99010060D01*
X135824204Y-99049556D01*
X135900504Y-99070000D01*
X135979496Y-99070000D01*
X136055796Y-99049556D01*
X136124205Y-99010060D01*
X136180060Y-98954205D01*
X136219556Y-98885796D01*
X136240000Y-98809496D01*
X136240000Y-98770000D01*
X136293553Y-98770000D01*
X136877465Y-99353912D01*
X136879247Y-99351553D01*
X136879248Y-99351551D01*
X136970113Y-99169069D01*
X136970116Y-99169063D01*
X137025902Y-98972992D01*
X137025903Y-98972989D01*
X137044713Y-98770000D01*
X137044713Y-98769999D01*
X137025903Y-98567010D01*
X137025902Y-98567007D01*
X136970116Y-98370936D01*
X136970113Y-98370930D01*
X136879249Y-98188449D01*
X136879247Y-98188447D01*
X136877465Y-98186087D01*
X136293553Y-98770000D01*
X136240000Y-98770000D01*
X136240000Y-98730504D01*
X136219556Y-98654204D01*
X136180060Y-98585795D01*
X136124205Y-98529940D01*
X136055796Y-98490444D01*
X135979496Y-98470000D01*
X135900504Y-98470000D01*
X135824204Y-98490444D01*
X135755795Y-98529940D01*
X135699940Y-98585795D01*
X135660444Y-98654204D01*
X135640000Y-98730504D01*
X135546951Y-98730504D01*
X135076818Y-98260371D01*
X135043333Y-98199048D01*
X135040499Y-98172690D01*
X135040499Y-98122129D01*
X135040498Y-98122123D01*
X135040497Y-98122116D01*
X135034091Y-98062517D01*
X134983796Y-97927669D01*
X134983795Y-97927668D01*
X134983793Y-97927664D01*
X134914992Y-97835758D01*
X135359311Y-97835758D01*
X135940000Y-98416446D01*
X135940001Y-98416446D01*
X136520687Y-97835758D01*
X136432413Y-97781101D01*
X136432411Y-97781100D01*
X136242321Y-97707460D01*
X136041928Y-97670000D01*
X135838072Y-97670000D01*
X135637678Y-97707460D01*
X135447588Y-97781100D01*
X135447581Y-97781104D01*
X135359312Y-97835757D01*
X135359311Y-97835758D01*
X134914992Y-97835758D01*
X134897547Y-97812455D01*
X134897544Y-97812452D01*
X134782335Y-97726206D01*
X134782328Y-97726202D01*
X134647482Y-97675908D01*
X134647483Y-97675908D01*
X134587883Y-97669501D01*
X134587881Y-97669500D01*
X134587873Y-97669500D01*
X134587864Y-97669500D01*
X133292129Y-97669500D01*
X133292123Y-97669501D01*
X133232516Y-97675908D01*
X133097671Y-97726202D01*
X133097664Y-97726206D01*
X132982455Y-97812452D01*
X132982452Y-97812455D01*
X132896206Y-97927664D01*
X132896202Y-97927671D01*
X132845908Y-98062517D01*
X132842521Y-98094025D01*
X132839501Y-98122123D01*
X132839500Y-98122135D01*
X132839500Y-99305886D01*
X132839149Y-99315152D01*
X132839469Y-99329452D01*
X132839500Y-99332218D01*
X132839500Y-99417866D01*
X132839501Y-99417885D01*
X132841394Y-99435492D01*
X132842073Y-99445963D01*
X132842365Y-99459027D01*
X132842366Y-99459038D01*
X132937813Y-100031715D01*
X132939500Y-100052101D01*
X132939500Y-114394217D01*
X132919815Y-114461256D01*
X132903181Y-114481898D01*
X132881898Y-114503181D01*
X132820575Y-114536666D01*
X132794217Y-114539500D01*
X110299528Y-114539500D01*
X110271993Y-114536404D01*
X109299711Y-114314978D01*
X109238717Y-114280899D01*
X109205829Y-114219253D01*
X109203484Y-114186390D01*
X109205597Y-114152350D01*
X108542742Y-113489494D01*
X108602881Y-113473381D01*
X108718720Y-113406502D01*
X108813302Y-113311920D01*
X108880181Y-113196081D01*
X108896295Y-113135942D01*
X109557986Y-113797633D01*
X109642282Y-113668611D01*
X109735482Y-113456135D01*
X109792438Y-113231218D01*
X109811598Y-113000005D01*
X109811598Y-112999994D01*
X109792438Y-112768781D01*
X109735482Y-112543864D01*
X109642284Y-112331393D01*
X109557986Y-112202365D01*
X108896294Y-112864057D01*
X108880181Y-112803919D01*
X108813302Y-112688080D01*
X108718720Y-112593498D01*
X108602881Y-112526619D01*
X108542741Y-112510504D01*
X109205597Y-111847647D01*
X109205597Y-111847646D01*
X109180573Y-111828169D01*
X109139761Y-111771459D01*
X109136086Y-111701686D01*
X109170718Y-111641003D01*
X109180560Y-111632473D01*
X109358584Y-111493913D01*
X109515779Y-111323153D01*
X109642724Y-111128849D01*
X109735957Y-110916300D01*
X109792934Y-110691305D01*
X109794251Y-110675413D01*
X109812100Y-110460006D01*
X109812100Y-110459993D01*
X109792935Y-110228702D01*
X109792933Y-110228691D01*
X109735957Y-110003699D01*
X109642724Y-109791151D01*
X109515783Y-109596852D01*
X109515780Y-109596849D01*
X109515779Y-109596847D01*
X109358584Y-109426087D01*
X109180980Y-109287853D01*
X109140168Y-109231143D01*
X109136493Y-109161370D01*
X109171124Y-109100687D01*
X109180981Y-109092146D01*
X109358584Y-108953913D01*
X109515779Y-108783153D01*
X109642724Y-108588849D01*
X109735957Y-108376300D01*
X109792934Y-108151305D01*
X109812100Y-107920000D01*
X109812100Y-107919993D01*
X109792935Y-107688702D01*
X109792933Y-107688691D01*
X109735957Y-107463699D01*
X109642724Y-107251151D01*
X109515783Y-107056852D01*
X109515780Y-107056849D01*
X109515779Y-107056847D01*
X109358584Y-106886087D01*
X109180980Y-106747853D01*
X109140168Y-106691143D01*
X109136493Y-106621370D01*
X109171124Y-106560687D01*
X109180981Y-106552146D01*
X109358584Y-106413913D01*
X109515779Y-106243153D01*
X109642724Y-106048849D01*
X109735957Y-105836300D01*
X109792934Y-105611305D01*
X109812100Y-105380000D01*
X109812100Y-105379993D01*
X109792935Y-105148702D01*
X109792933Y-105148691D01*
X109735957Y-104923699D01*
X109642724Y-104711151D01*
X109515783Y-104516852D01*
X109515780Y-104516849D01*
X109515779Y-104516847D01*
X109358584Y-104346087D01*
X109180980Y-104207853D01*
X109140168Y-104151143D01*
X109136493Y-104081370D01*
X109171124Y-104020687D01*
X109180981Y-104012146D01*
X109358584Y-103873913D01*
X109515779Y-103703153D01*
X109517831Y-103700013D01*
X109584935Y-103597302D01*
X109642724Y-103508849D01*
X109735957Y-103296300D01*
X109792934Y-103071305D01*
X109793403Y-103065643D01*
X109812100Y-102840006D01*
X109812100Y-102839993D01*
X109792935Y-102608702D01*
X109792933Y-102608691D01*
X109735957Y-102383699D01*
X109642724Y-102171151D01*
X109515783Y-101976852D01*
X109515780Y-101976849D01*
X109515779Y-101976847D01*
X109358584Y-101806087D01*
X109180980Y-101667853D01*
X109140168Y-101611143D01*
X109136493Y-101541370D01*
X109171124Y-101480687D01*
X109180981Y-101472146D01*
X109358584Y-101333913D01*
X109515779Y-101163153D01*
X109642724Y-100968849D01*
X109735957Y-100756300D01*
X109792934Y-100531305D01*
X109792935Y-100531297D01*
X109812100Y-100300006D01*
X109812100Y-100299993D01*
X109792935Y-100068702D01*
X109792933Y-100068691D01*
X109735957Y-99843699D01*
X109642724Y-99631151D01*
X109515783Y-99436852D01*
X109515780Y-99436849D01*
X109515779Y-99436847D01*
X109358584Y-99266087D01*
X109358579Y-99266083D01*
X109358577Y-99266081D01*
X109175434Y-99123535D01*
X109175428Y-99123531D01*
X108971304Y-99013064D01*
X108971295Y-99013061D01*
X108751784Y-98937702D01*
X108580082Y-98909050D01*
X108522849Y-98899500D01*
X108290751Y-98899500D01*
X108244964Y-98907140D01*
X108061815Y-98937702D01*
X107842304Y-99013061D01*
X107842295Y-99013064D01*
X107638171Y-99123531D01*
X107638165Y-99123535D01*
X107455022Y-99266081D01*
X107455019Y-99266084D01*
X107455016Y-99266086D01*
X107455016Y-99266087D01*
X107299069Y-99435492D01*
X107297815Y-99436854D01*
X107260923Y-99493322D01*
X107207777Y-99538678D01*
X107157115Y-99549500D01*
X106046100Y-99549500D01*
X105979061Y-99529815D01*
X105933306Y-99477011D01*
X105922100Y-99425500D01*
X105922100Y-85776033D01*
X105922107Y-85775884D01*
X105922106Y-85769287D01*
X105922107Y-85769285D01*
X105922104Y-85741798D01*
X105922130Y-85741708D01*
X105922118Y-85600254D01*
X105922118Y-85600250D01*
X105921638Y-85597530D01*
X105921773Y-85596315D01*
X105921646Y-85594862D01*
X105921938Y-85594836D01*
X105929372Y-85528090D01*
X105973421Y-85473855D01*
X106022218Y-85453865D01*
X106159347Y-85429684D01*
X106328796Y-85368006D01*
X106484959Y-85277839D01*
X106623091Y-85161923D01*
X106738994Y-85023780D01*
X106829147Y-84867609D01*
X106839376Y-84839500D01*
X106865472Y-84767782D01*
X106890809Y-84698154D01*
X106922108Y-84520567D01*
X106922100Y-84430404D01*
X106922100Y-84376033D01*
X106922107Y-84375884D01*
X106922106Y-84369287D01*
X106922107Y-84369285D01*
X106922104Y-84341798D01*
X106922130Y-84341708D01*
X106922122Y-84252539D01*
X106922118Y-84200250D01*
X106890793Y-84022684D01*
X106829112Y-83853255D01*
X106753601Y-83722486D01*
X106737125Y-83654588D01*
X106753595Y-83598486D01*
X106785307Y-83543553D01*
X106829147Y-83467609D01*
X106842811Y-83430060D01*
X106863135Y-83374205D01*
X106890809Y-83298154D01*
X106922108Y-83120567D01*
X106922100Y-83030404D01*
X106922100Y-83028478D01*
X106922100Y-82976033D01*
X106922107Y-82975884D01*
X106922106Y-82969287D01*
X106922107Y-82969285D01*
X106922104Y-82941798D01*
X106922130Y-82941708D01*
X106922123Y-82864394D01*
X106922118Y-82800250D01*
X106890793Y-82622684D01*
X106829112Y-82453255D01*
X106753601Y-82322486D01*
X106737125Y-82254588D01*
X106753595Y-82198486D01*
X106758783Y-82189500D01*
X106829147Y-82067609D01*
X106832822Y-82057512D01*
X106881881Y-81922688D01*
X106890809Y-81898154D01*
X106922108Y-81720567D01*
X106922100Y-81630404D01*
X106922100Y-81576033D01*
X106922107Y-81575884D01*
X106922106Y-81569287D01*
X106922107Y-81569285D01*
X106922104Y-81541798D01*
X106922130Y-81541708D01*
X106922118Y-81400254D01*
X106922117Y-81400246D01*
X106916357Y-81367598D01*
X106890793Y-81222684D01*
X106829112Y-81053255D01*
X106753601Y-80922486D01*
X106737125Y-80854588D01*
X106753595Y-80798486D01*
X106804143Y-80710924D01*
X106829147Y-80667609D01*
X106890809Y-80498154D01*
X106922108Y-80320567D01*
X106922100Y-80230404D01*
X106922100Y-80176033D01*
X106922107Y-80175884D01*
X106922106Y-80169287D01*
X106922107Y-80169285D01*
X106922104Y-80141798D01*
X106922130Y-80141708D01*
X106922118Y-80000254D01*
X106922117Y-80000246D01*
X106916357Y-79967598D01*
X106890793Y-79822684D01*
X106829112Y-79653255D01*
X106753601Y-79522486D01*
X106737125Y-79454588D01*
X106753595Y-79398486D01*
X106773211Y-79364507D01*
X106829147Y-79267609D01*
X106838618Y-79241583D01*
X106885420Y-79112963D01*
X106890809Y-79098154D01*
X106922108Y-78920567D01*
X106922100Y-78830404D01*
X106922100Y-78825789D01*
X106922100Y-78776033D01*
X106922107Y-78775884D01*
X106922106Y-78769287D01*
X106922107Y-78769285D01*
X106922104Y-78741798D01*
X106922130Y-78741708D01*
X106922123Y-78664178D01*
X106922118Y-78600250D01*
X106890793Y-78422684D01*
X106829112Y-78253255D01*
X106753601Y-78122486D01*
X106737125Y-78054588D01*
X106753595Y-77998486D01*
X106760782Y-77986037D01*
X106829147Y-77867609D01*
X106832003Y-77859762D01*
X106881880Y-77722691D01*
X106890809Y-77698154D01*
X106922108Y-77520567D01*
X106922100Y-77430404D01*
X106922100Y-77427049D01*
X106922100Y-77376033D01*
X106922107Y-77375884D01*
X106922106Y-77369287D01*
X106922107Y-77369285D01*
X106922104Y-77341798D01*
X106922130Y-77341708D01*
X106922125Y-77288343D01*
X106922118Y-77200250D01*
X106890793Y-77022684D01*
X106829112Y-76853255D01*
X106738948Y-76697109D01*
X106623041Y-76558991D01*
X106484912Y-76443097D01*
X106387124Y-76386643D01*
X106338908Y-76336078D01*
X106325683Y-76267472D01*
X106351649Y-76202606D01*
X106408562Y-76162076D01*
X106438819Y-76155683D01*
X106458718Y-76154025D01*
X106483687Y-76155797D01*
X106483824Y-76154589D01*
X106669996Y-76175565D01*
X106670000Y-76175565D01*
X106670004Y-76175565D01*
X106849246Y-76155369D01*
X106849245Y-76155369D01*
X106849255Y-76155368D01*
X106871857Y-76147458D01*
X106912812Y-76140500D01*
X117253920Y-76140500D01*
X117351462Y-76121096D01*
X117398913Y-76111658D01*
X117535495Y-76055084D01*
X117588277Y-76019816D01*
X117658416Y-75972952D01*
X118252952Y-75378415D01*
X118294601Y-75316082D01*
X118335084Y-75255495D01*
X118369003Y-75173608D01*
X118391659Y-75118912D01*
X118414763Y-75002759D01*
X118420500Y-74973918D01*
X118420500Y-74024500D01*
X118440185Y-73957461D01*
X118492989Y-73911706D01*
X118544500Y-73900500D01*
X124135500Y-73900500D01*
X124202539Y-73920185D01*
X124248294Y-73972989D01*
X124259500Y-74024500D01*
X124259500Y-83005500D01*
X124239815Y-83072539D01*
X124187011Y-83118294D01*
X124135500Y-83129500D01*
X116871423Y-83129500D01*
X116804384Y-83109815D01*
X116758629Y-83057011D01*
X116757068Y-83053133D01*
X116755792Y-83050483D01*
X116755789Y-83050478D01*
X116659816Y-82897738D01*
X116532262Y-82770184D01*
X116436480Y-82710000D01*
X116379521Y-82674210D01*
X116209249Y-82614630D01*
X116140616Y-82606897D01*
X116076202Y-82579830D01*
X116036647Y-82522235D01*
X116030500Y-82483677D01*
X116030500Y-80082229D01*
X116050185Y-80015190D01*
X116066819Y-79994548D01*
X116622948Y-79438419D01*
X116622951Y-79438416D01*
X116705084Y-79315495D01*
X116761658Y-79178913D01*
X116770316Y-79135384D01*
X116786938Y-79093606D01*
X116795789Y-79079522D01*
X116837506Y-78960300D01*
X116855366Y-78909262D01*
X116855369Y-78909249D01*
X116875565Y-78730003D01*
X116875565Y-78729998D01*
X116872014Y-78698487D01*
X116869837Y-78679167D01*
X116869063Y-78664178D01*
X116869196Y-78649317D01*
X116858190Y-78567595D01*
X116839869Y-78431548D01*
X116839869Y-78398448D01*
X116844679Y-78362732D01*
X116869196Y-78180684D01*
X116872522Y-78147985D01*
X116872627Y-78146462D01*
X116872459Y-78136864D01*
X116873220Y-78120805D01*
X116875565Y-78100000D01*
X116871788Y-78066482D01*
X116871535Y-78062586D01*
X116870462Y-78054499D01*
X116870163Y-78052060D01*
X116855369Y-77920750D01*
X116855368Y-77920745D01*
X116809999Y-77791089D01*
X116795789Y-77750478D01*
X116699816Y-77597738D01*
X116572262Y-77470184D01*
X116555270Y-77459507D01*
X116533561Y-77442194D01*
X116518418Y-77427050D01*
X116518415Y-77427048D01*
X116395501Y-77344919D01*
X116395488Y-77344912D01*
X116258917Y-77288343D01*
X116258907Y-77288340D01*
X116113920Y-77259500D01*
X116113918Y-77259500D01*
X115966082Y-77259500D01*
X115966080Y-77259500D01*
X115821092Y-77288340D01*
X115821082Y-77288343D01*
X115684511Y-77344912D01*
X115684498Y-77344919D01*
X115561584Y-77427048D01*
X115561580Y-77427051D01*
X115457051Y-77531580D01*
X115457048Y-77531584D01*
X115374919Y-77654498D01*
X115374912Y-77654511D01*
X115318342Y-77791084D01*
X115318341Y-77791089D01*
X115304680Y-77859762D01*
X115300106Y-77876519D01*
X115284632Y-77920745D01*
X115284630Y-77920751D01*
X115264435Y-78099995D01*
X115264435Y-78099998D01*
X115264891Y-78104049D01*
X115264924Y-78124623D01*
X115265358Y-78124640D01*
X115265191Y-78129063D01*
X115274677Y-78410826D01*
X115274677Y-78419171D01*
X115271292Y-78519710D01*
X115260436Y-78566433D01*
X115178279Y-78748959D01*
X115152886Y-78785744D01*
X114697048Y-79241583D01*
X114679664Y-79267602D01*
X114652077Y-79308890D01*
X114614914Y-79364507D01*
X114614913Y-79364509D01*
X114558343Y-79501082D01*
X114558340Y-79501092D01*
X114529500Y-79646079D01*
X114529500Y-84725121D01*
X114509815Y-84792160D01*
X114457011Y-84837915D01*
X114429692Y-84846738D01*
X114321093Y-84868340D01*
X114321090Y-84868341D01*
X114321088Y-84868341D01*
X114321087Y-84868342D01*
X114296322Y-84878599D01*
X114246483Y-84899243D01*
X114237261Y-84902184D01*
X114237314Y-84902334D01*
X114230747Y-84904631D01*
X114230745Y-84904632D01*
X114171520Y-84925355D01*
X114060478Y-84964210D01*
X113907737Y-85060184D01*
X113780183Y-85187738D01*
X113700846Y-85314002D01*
X113648511Y-85360293D01*
X113632920Y-85366359D01*
X113596549Y-85377752D01*
X113570561Y-85385892D01*
X113556298Y-85389446D01*
X113314736Y-85434632D01*
X113139631Y-85467386D01*
X113116834Y-85469500D01*
X108293364Y-85469500D01*
X108265591Y-85466349D01*
X108261252Y-85465352D01*
X107684598Y-85417297D01*
X107684593Y-85417296D01*
X107684561Y-85417294D01*
X107663986Y-85416002D01*
X107663072Y-85415964D01*
X107663066Y-85415964D01*
X107663061Y-85415964D01*
X107663059Y-85415964D01*
X107656609Y-85416161D01*
X107638931Y-85415441D01*
X107630000Y-85414435D01*
X107629999Y-85414435D01*
X107629998Y-85414435D01*
X107629997Y-85414435D01*
X107603945Y-85417369D01*
X107593892Y-85418089D01*
X107589364Y-85418228D01*
X107585257Y-85418801D01*
X107575426Y-85420583D01*
X107450750Y-85434630D01*
X107280478Y-85494210D01*
X107127737Y-85590184D01*
X107000184Y-85717737D01*
X106904211Y-85870476D01*
X106844631Y-86040745D01*
X106844630Y-86040750D01*
X106824435Y-86219996D01*
X106824435Y-86220003D01*
X106844630Y-86399249D01*
X106844631Y-86399254D01*
X106904211Y-86569523D01*
X106962235Y-86661867D01*
X107000184Y-86722262D01*
X107127738Y-86849816D01*
X107280478Y-86945789D01*
X107450745Y-87005368D01*
X107450750Y-87005369D01*
X107629997Y-87025565D01*
X107629999Y-87025565D01*
X107629999Y-87025564D01*
X107630000Y-87025565D01*
X107654919Y-87022756D01*
X107676193Y-87022198D01*
X107684608Y-87022701D01*
X108261251Y-86974648D01*
X108261261Y-86974646D01*
X108261271Y-86974646D01*
X108289717Y-86971333D01*
X108304063Y-86970500D01*
X111118770Y-86970500D01*
X111185809Y-86990185D01*
X111231564Y-87042989D01*
X111241508Y-87112147D01*
X111212483Y-87175703D01*
X111206451Y-87182181D01*
X110977050Y-87411580D01*
X110977044Y-87411588D01*
X110927812Y-87485268D01*
X110927813Y-87485269D01*
X110894921Y-87534496D01*
X110894914Y-87534508D01*
X110838342Y-87671086D01*
X110838340Y-87671092D01*
X110809500Y-87816079D01*
X110809500Y-88366632D01*
X110806349Y-88394407D01*
X110805353Y-88398738D01*
X110805352Y-88398743D01*
X110775289Y-88759500D01*
X110759611Y-88947641D01*
X110757297Y-88975403D01*
X110756015Y-88995720D01*
X110755975Y-88996658D01*
X110756177Y-89003301D01*
X110755456Y-89020928D01*
X110754435Y-89029998D01*
X110754435Y-89030003D01*
X110757370Y-89056054D01*
X110758092Y-89066157D01*
X110758228Y-89070631D01*
X110758801Y-89074744D01*
X110760583Y-89084573D01*
X110774630Y-89209249D01*
X110834210Y-89379521D01*
X110885243Y-89460739D01*
X110930184Y-89532262D01*
X111057738Y-89659816D01*
X111148080Y-89716582D01*
X111200911Y-89749778D01*
X111210478Y-89755789D01*
X111380745Y-89815368D01*
X111380750Y-89815369D01*
X111559996Y-89835565D01*
X111560000Y-89835565D01*
X111560004Y-89835565D01*
X111739249Y-89815369D01*
X111739252Y-89815368D01*
X111739255Y-89815368D01*
X111909522Y-89755789D01*
X112062262Y-89659816D01*
X112189816Y-89532262D01*
X112285789Y-89379522D01*
X112345368Y-89209255D01*
X112354752Y-89125974D01*
X112365565Y-89030002D01*
X112365565Y-89029999D01*
X112362757Y-89005083D01*
X112362198Y-88983804D01*
X112362701Y-88975391D01*
X112328261Y-88562103D01*
X112319319Y-88454797D01*
X112333369Y-88386355D01*
X112382191Y-88336373D01*
X112442891Y-88320500D01*
X115353920Y-88320500D01*
X115451462Y-88301096D01*
X115498913Y-88291658D01*
X115635495Y-88235084D01*
X115758416Y-88152951D01*
X115862951Y-88048416D01*
X115945084Y-87925495D01*
X116001658Y-87788913D01*
X116030500Y-87643918D01*
X116030500Y-85254500D01*
X116050185Y-85187461D01*
X116102989Y-85141706D01*
X116154500Y-85130500D01*
X138038543Y-85130500D01*
X138139504Y-85110417D01*
X138174092Y-85103537D01*
X138231836Y-85092051D01*
X138321335Y-85054979D01*
X138413914Y-85016632D01*
X138577782Y-84907139D01*
X138717139Y-84767782D01*
X138717140Y-84767779D01*
X139067140Y-84417781D01*
X139101759Y-84365969D01*
X139176632Y-84253914D01*
X139195602Y-84208112D01*
X139235855Y-84156297D01*
X139247546Y-84147546D01*
X139264993Y-84124240D01*
X139709311Y-84124240D01*
X139797585Y-84178897D01*
X139987678Y-84252539D01*
X140188072Y-84290000D01*
X140391928Y-84290000D01*
X140592322Y-84252539D01*
X140782412Y-84178899D01*
X140782416Y-84178897D01*
X140870686Y-84124241D01*
X140870686Y-84124240D01*
X140290001Y-83543553D01*
X140290000Y-83543553D01*
X139709311Y-84124240D01*
X139264993Y-84124240D01*
X139333796Y-84032331D01*
X139384091Y-83897483D01*
X139388846Y-83853255D01*
X139390499Y-83837886D01*
X139390499Y-83837882D01*
X139390500Y-83837873D01*
X139390499Y-83787305D01*
X139410182Y-83720269D01*
X139426818Y-83699626D01*
X139936446Y-83190000D01*
X139936446Y-83189999D01*
X139896951Y-83150504D01*
X139990000Y-83150504D01*
X139990000Y-83229496D01*
X140010444Y-83305796D01*
X140049940Y-83374205D01*
X140105795Y-83430060D01*
X140174204Y-83469556D01*
X140250504Y-83490000D01*
X140329496Y-83490000D01*
X140405796Y-83469556D01*
X140474205Y-83430060D01*
X140530060Y-83374205D01*
X140569556Y-83305796D01*
X140590000Y-83229496D01*
X140590000Y-83150504D01*
X140569556Y-83074204D01*
X140530060Y-83005795D01*
X140474205Y-82949940D01*
X140405796Y-82910444D01*
X140329496Y-82890000D01*
X140250504Y-82890000D01*
X140174204Y-82910444D01*
X140105795Y-82949940D01*
X140049940Y-83005795D01*
X140010444Y-83074204D01*
X139990000Y-83150504D01*
X139896951Y-83150504D01*
X139426818Y-82680371D01*
X139393333Y-82619048D01*
X139390499Y-82592690D01*
X139390499Y-82542129D01*
X139390498Y-82542123D01*
X139390497Y-82542116D01*
X139384091Y-82482517D01*
X139368682Y-82441204D01*
X139333797Y-82347671D01*
X139333793Y-82347664D01*
X139264992Y-82255758D01*
X139709311Y-82255758D01*
X140290000Y-82836446D01*
X140290001Y-82836446D01*
X140870687Y-82255758D01*
X140782413Y-82201101D01*
X140782411Y-82201100D01*
X140592321Y-82127460D01*
X140391928Y-82090000D01*
X140188072Y-82090000D01*
X139987678Y-82127460D01*
X139797588Y-82201100D01*
X139797581Y-82201104D01*
X139709312Y-82255757D01*
X139709311Y-82255758D01*
X139264992Y-82255758D01*
X139247547Y-82232455D01*
X139247544Y-82232452D01*
X139132335Y-82146206D01*
X139132328Y-82146202D01*
X138997482Y-82095908D01*
X138997483Y-82095908D01*
X138937883Y-82089501D01*
X138937881Y-82089500D01*
X138937873Y-82089500D01*
X138937864Y-82089500D01*
X137642129Y-82089500D01*
X137642123Y-82089501D01*
X137582516Y-82095908D01*
X137447671Y-82146202D01*
X137447664Y-82146206D01*
X137332455Y-82232452D01*
X137332452Y-82232455D01*
X137246206Y-82347664D01*
X137246202Y-82347671D01*
X137195908Y-82482517D01*
X137189501Y-82542116D01*
X137189501Y-82542123D01*
X137189500Y-82542135D01*
X137189500Y-83005500D01*
X137169815Y-83072539D01*
X137117011Y-83118294D01*
X137065500Y-83129500D01*
X126384500Y-83129500D01*
X126317461Y-83109815D01*
X126271706Y-83057011D01*
X126260500Y-83005500D01*
X126260500Y-72821456D01*
X126222052Y-72628170D01*
X126222051Y-72628169D01*
X126222051Y-72628165D01*
X126178768Y-72523669D01*
X126146635Y-72446092D01*
X126146628Y-72446079D01*
X126037140Y-72282219D01*
X126017135Y-72262214D01*
X125897782Y-72142861D01*
X125893261Y-72138340D01*
X125877784Y-72122862D01*
X125877781Y-72122860D01*
X125713920Y-72013371D01*
X125713907Y-72013364D01*
X125531839Y-71937950D01*
X125531829Y-71937947D01*
X125338543Y-71899500D01*
X125338541Y-71899500D01*
X117571459Y-71899500D01*
X117571457Y-71899500D01*
X117378170Y-71937947D01*
X117378160Y-71937950D01*
X117196092Y-72013364D01*
X117196079Y-72013371D01*
X117032218Y-72122860D01*
X117032214Y-72122863D01*
X116892863Y-72262214D01*
X116892860Y-72262218D01*
X116783371Y-72426079D01*
X116783364Y-72426092D01*
X116707950Y-72608160D01*
X116707947Y-72608170D01*
X116669500Y-72801456D01*
X116669500Y-72801459D01*
X116669500Y-72998541D01*
X116669500Y-72998543D01*
X116669499Y-72998543D01*
X116707947Y-73191829D01*
X116707950Y-73191839D01*
X116783364Y-73373907D01*
X116783371Y-73373920D01*
X116896245Y-73542847D01*
X116894717Y-73543867D01*
X116918666Y-73600255D01*
X116919500Y-73614610D01*
X116919500Y-74515500D01*
X116899815Y-74582539D01*
X116847011Y-74628294D01*
X116795500Y-74639500D01*
X107027129Y-74639500D01*
X106986174Y-74632542D01*
X106849254Y-74584631D01*
X106849249Y-74584630D01*
X106670004Y-74564435D01*
X106669996Y-74564435D01*
X106490746Y-74584631D01*
X106490745Y-74584631D01*
X106414090Y-74611453D01*
X106362840Y-74617983D01*
X106138868Y-74599319D01*
X106035802Y-74590730D01*
X105970630Y-74565547D01*
X105929418Y-74509126D01*
X105922100Y-74467159D01*
X105922100Y-73776530D01*
X105941785Y-73709491D01*
X105994589Y-73663736D01*
X106059984Y-73653310D01*
X106079997Y-73655565D01*
X106080000Y-73655565D01*
X106080004Y-73655565D01*
X106259247Y-73635369D01*
X106259247Y-73635368D01*
X106259255Y-73635368D01*
X106281951Y-73627425D01*
X106327078Y-73620536D01*
X106750936Y-73634808D01*
X106757980Y-73634996D01*
X106758335Y-73635003D01*
X106760896Y-73634895D01*
X106779978Y-73635565D01*
X106780000Y-73635565D01*
X106796529Y-73633701D01*
X106805181Y-73633033D01*
X106820638Y-73632384D01*
X106822601Y-73631889D01*
X106838969Y-73628919D01*
X106959255Y-73615368D01*
X107129522Y-73555789D01*
X107282262Y-73459816D01*
X107409816Y-73332262D01*
X107505789Y-73179522D01*
X107565368Y-73009255D01*
X107573186Y-72939868D01*
X107585565Y-72830003D01*
X107585565Y-72829996D01*
X107565369Y-72650750D01*
X107565368Y-72650745D01*
X107538132Y-72572908D01*
X107505789Y-72480478D01*
X107409816Y-72327738D01*
X107282262Y-72200184D01*
X107192523Y-72143797D01*
X107129523Y-72104211D01*
X106959254Y-72044631D01*
X106959249Y-72044630D01*
X106780004Y-72024435D01*
X106780002Y-72024435D01*
X106780000Y-72024435D01*
X106761159Y-72026557D01*
X106729168Y-72030161D01*
X106714189Y-72030935D01*
X106699315Y-72030803D01*
X106699308Y-72030803D01*
X106341192Y-72079030D01*
X106283691Y-72073181D01*
X106259258Y-72064632D01*
X106259253Y-72064631D01*
X106080004Y-72044435D01*
X106079996Y-72044435D01*
X105900753Y-72064630D01*
X105900742Y-72064632D01*
X105792408Y-72102541D01*
X105751453Y-72109500D01*
X105166080Y-72109500D01*
X105021092Y-72138340D01*
X105021082Y-72138343D01*
X104884511Y-72194912D01*
X104884498Y-72194919D01*
X104761584Y-72277048D01*
X104761580Y-72277051D01*
X104588650Y-72449980D01*
X104588644Y-72449988D01*
X104539412Y-72523668D01*
X104539413Y-72523669D01*
X104506521Y-72572896D01*
X104506514Y-72572908D01*
X104449942Y-72709486D01*
X104449940Y-72709492D01*
X104421100Y-72854479D01*
X104421100Y-76810199D01*
X104421118Y-76810585D01*
X104421118Y-76820561D01*
X104421119Y-76820573D01*
X104421633Y-76823490D01*
X104421487Y-76824792D01*
X104421590Y-76825965D01*
X104421354Y-76825985D01*
X104413880Y-76892928D01*
X104369817Y-76947152D01*
X104321045Y-76967123D01*
X104183885Y-76991306D01*
X104014450Y-77052972D01*
X103858303Y-77143117D01*
X103858299Y-77143120D01*
X103720180Y-77259006D01*
X103720178Y-77259007D01*
X103720177Y-77259009D01*
X103693831Y-77290404D01*
X103604275Y-77397121D01*
X103604274Y-77397122D01*
X103604273Y-77397124D01*
X103526635Y-77531580D01*
X103514109Y-77553272D01*
X103514108Y-77553274D01*
X103461644Y-77697383D01*
X103420214Y-77753643D01*
X103354943Y-77778574D01*
X103286556Y-77764259D01*
X103236764Y-77715243D01*
X103221598Y-77665770D01*
X103220613Y-77654511D01*
X103205635Y-77483308D01*
X103146739Y-77263504D01*
X103050568Y-77057266D01*
X102920047Y-76870861D01*
X102920045Y-76870858D01*
X102759141Y-76709954D01*
X102572734Y-76579432D01*
X102572732Y-76579431D01*
X102366497Y-76483261D01*
X102366488Y-76483258D01*
X102146697Y-76424366D01*
X102146693Y-76424365D01*
X102146692Y-76424365D01*
X102146691Y-76424364D01*
X102146686Y-76424364D01*
X101920002Y-76404532D01*
X101919998Y-76404532D01*
X101693313Y-76424364D01*
X101693302Y-76424366D01*
X101473511Y-76483258D01*
X101473502Y-76483261D01*
X101267267Y-76579431D01*
X101267265Y-76579432D01*
X101080858Y-76709954D01*
X100919954Y-76870858D01*
X100789432Y-77057265D01*
X100789431Y-77057267D01*
X100693261Y-77263502D01*
X100693258Y-77263511D01*
X100634366Y-77483302D01*
X100634364Y-77483313D01*
X100614532Y-77709998D01*
X94300500Y-77709998D01*
X94300500Y-74069997D01*
X100695034Y-74069997D01*
X100695034Y-74070002D01*
X100714858Y-74296599D01*
X100714860Y-74296610D01*
X100773730Y-74516317D01*
X100773735Y-74516331D01*
X100869863Y-74722478D01*
X100920974Y-74795472D01*
X101600000Y-74116446D01*
X101600000Y-74122661D01*
X101627259Y-74224394D01*
X101679920Y-74315606D01*
X101754394Y-74390080D01*
X101845606Y-74442741D01*
X101947339Y-74470000D01*
X101953553Y-74470000D01*
X101274526Y-75149025D01*
X101347513Y-75200132D01*
X101347521Y-75200136D01*
X101553668Y-75296264D01*
X101553682Y-75296269D01*
X101773389Y-75355139D01*
X101773400Y-75355141D01*
X101999998Y-75374966D01*
X102000002Y-75374966D01*
X102226599Y-75355141D01*
X102226610Y-75355139D01*
X102446317Y-75296269D01*
X102446331Y-75296264D01*
X102652478Y-75200136D01*
X102725471Y-75149024D01*
X102046447Y-74470000D01*
X102052661Y-74470000D01*
X102154394Y-74442741D01*
X102245606Y-74390080D01*
X102320080Y-74315606D01*
X102372741Y-74224394D01*
X102400000Y-74122661D01*
X102400000Y-74116447D01*
X103079024Y-74795471D01*
X103130136Y-74722478D01*
X103226264Y-74516331D01*
X103226269Y-74516317D01*
X103285139Y-74296610D01*
X103285141Y-74296599D01*
X103304966Y-74070002D01*
X103304966Y-74069997D01*
X103285141Y-73843400D01*
X103285139Y-73843389D01*
X103226269Y-73623682D01*
X103226264Y-73623668D01*
X103130136Y-73417521D01*
X103130132Y-73417513D01*
X103079025Y-73344526D01*
X102400000Y-74023551D01*
X102400000Y-74017339D01*
X102372741Y-73915606D01*
X102320080Y-73824394D01*
X102245606Y-73749920D01*
X102154394Y-73697259D01*
X102052661Y-73670000D01*
X102046448Y-73670000D01*
X102725472Y-72990974D01*
X102652478Y-72939863D01*
X102446331Y-72843735D01*
X102446317Y-72843730D01*
X102226610Y-72784860D01*
X102226599Y-72784858D01*
X102000002Y-72765034D01*
X101999998Y-72765034D01*
X101773400Y-72784858D01*
X101773389Y-72784860D01*
X101553682Y-72843730D01*
X101553673Y-72843734D01*
X101347516Y-72939866D01*
X101347512Y-72939868D01*
X101274526Y-72990973D01*
X101274526Y-72990974D01*
X101953553Y-73670000D01*
X101947339Y-73670000D01*
X101845606Y-73697259D01*
X101754394Y-73749920D01*
X101679920Y-73824394D01*
X101627259Y-73915606D01*
X101600000Y-74017339D01*
X101600000Y-74023552D01*
X100920974Y-73344526D01*
X100920973Y-73344526D01*
X100869868Y-73417512D01*
X100869866Y-73417516D01*
X100773734Y-73623673D01*
X100773730Y-73623682D01*
X100714860Y-73843389D01*
X100714858Y-73843400D01*
X100695034Y-74069997D01*
X94300500Y-74069997D01*
X94300500Y-69069998D01*
X100694532Y-69069998D01*
X100694532Y-69070001D01*
X100714364Y-69296686D01*
X100714366Y-69296697D01*
X100773258Y-69516488D01*
X100773261Y-69516497D01*
X100869431Y-69722732D01*
X100869432Y-69722734D01*
X100999954Y-69909141D01*
X101160858Y-70070045D01*
X101160861Y-70070047D01*
X101347266Y-70200568D01*
X101553504Y-70296739D01*
X101773308Y-70355635D01*
X101935230Y-70369801D01*
X101999998Y-70375468D01*
X102000000Y-70375468D01*
X102000002Y-70375468D01*
X102056673Y-70370509D01*
X102226692Y-70355635D01*
X102446496Y-70296739D01*
X102652734Y-70200568D01*
X102839139Y-70070047D01*
X102857051Y-70052135D01*
X133569500Y-70052135D01*
X133569500Y-71747870D01*
X133569501Y-71747876D01*
X133575908Y-71807483D01*
X133626202Y-71942328D01*
X133626206Y-71942335D01*
X133712452Y-72057544D01*
X133712455Y-72057547D01*
X133827664Y-72143793D01*
X133827671Y-72143797D01*
X133962517Y-72194091D01*
X133962516Y-72194091D01*
X133969444Y-72194835D01*
X134022127Y-72200500D01*
X135717872Y-72200499D01*
X135777483Y-72194091D01*
X135912331Y-72143796D01*
X136027546Y-72057546D01*
X136113796Y-71942331D01*
X136164091Y-71807483D01*
X136170500Y-71747873D01*
X136170499Y-71747845D01*
X136170678Y-71744547D01*
X136172183Y-71744627D01*
X136190112Y-71683326D01*
X136242868Y-71637514D01*
X136286465Y-71629981D01*
X136970000Y-70946446D01*
X136970000Y-70952661D01*
X136997259Y-71054394D01*
X137049920Y-71145606D01*
X137124394Y-71220080D01*
X137215606Y-71272741D01*
X137317339Y-71300000D01*
X137323553Y-71300000D01*
X136644526Y-71979025D01*
X136717513Y-72030132D01*
X136717521Y-72030136D01*
X136923668Y-72126264D01*
X136923682Y-72126269D01*
X137143389Y-72185139D01*
X137143400Y-72185141D01*
X137369998Y-72204966D01*
X137370002Y-72204966D01*
X137596599Y-72185141D01*
X137596610Y-72185139D01*
X137816317Y-72126269D01*
X137816331Y-72126264D01*
X138022478Y-72030136D01*
X138095471Y-71979024D01*
X137416447Y-71300000D01*
X137422661Y-71300000D01*
X137524394Y-71272741D01*
X137615606Y-71220080D01*
X137690080Y-71145606D01*
X137742741Y-71054394D01*
X137770000Y-70952661D01*
X137770000Y-70946447D01*
X138449024Y-71625471D01*
X138500136Y-71552478D01*
X138596264Y-71346331D01*
X138596269Y-71346317D01*
X138655139Y-71126610D01*
X138655141Y-71126599D01*
X138674966Y-70900002D01*
X138674966Y-70899997D01*
X138655141Y-70673400D01*
X138655139Y-70673389D01*
X138596269Y-70453682D01*
X138596264Y-70453668D01*
X138500136Y-70247521D01*
X138500132Y-70247513D01*
X138449025Y-70174526D01*
X137770000Y-70853551D01*
X137770000Y-70847339D01*
X137742741Y-70745606D01*
X137690080Y-70654394D01*
X137615606Y-70579920D01*
X137524394Y-70527259D01*
X137422661Y-70500000D01*
X137416448Y-70500000D01*
X138095472Y-69820974D01*
X138022478Y-69769863D01*
X137816331Y-69673735D01*
X137816317Y-69673730D01*
X137596610Y-69614860D01*
X137596599Y-69614858D01*
X137370002Y-69595034D01*
X137369998Y-69595034D01*
X137143400Y-69614858D01*
X137143389Y-69614860D01*
X136923682Y-69673730D01*
X136923673Y-69673734D01*
X136717516Y-69769866D01*
X136717512Y-69769868D01*
X136644526Y-69820973D01*
X136644526Y-69820974D01*
X137323553Y-70500000D01*
X137317339Y-70500000D01*
X137215606Y-70527259D01*
X137124394Y-70579920D01*
X137049920Y-70654394D01*
X136997259Y-70745606D01*
X136970000Y-70847339D01*
X136970000Y-70853552D01*
X136285799Y-70169351D01*
X136236805Y-70159505D01*
X136186622Y-70110889D01*
X136171981Y-70055366D01*
X136170900Y-70055423D01*
X136170854Y-70055429D01*
X136170853Y-70055426D01*
X136170676Y-70055436D01*
X136170499Y-70052135D01*
X136170499Y-70052128D01*
X136164091Y-69992517D01*
X136113796Y-69857669D01*
X136113795Y-69857668D01*
X136113793Y-69857664D01*
X136027547Y-69742455D01*
X136027544Y-69742452D01*
X135912335Y-69656206D01*
X135912328Y-69656202D01*
X135777482Y-69605908D01*
X135777483Y-69605908D01*
X135717883Y-69599501D01*
X135717881Y-69599500D01*
X135717873Y-69599500D01*
X135717864Y-69599500D01*
X134022129Y-69599500D01*
X134022123Y-69599501D01*
X133962516Y-69605908D01*
X133827671Y-69656202D01*
X133827664Y-69656206D01*
X133712455Y-69742452D01*
X133712452Y-69742455D01*
X133626206Y-69857664D01*
X133626202Y-69857671D01*
X133575908Y-69992517D01*
X133569501Y-70052116D01*
X133569501Y-70052123D01*
X133569500Y-70052135D01*
X102857051Y-70052135D01*
X103000047Y-69909139D01*
X103130568Y-69722734D01*
X103226739Y-69516496D01*
X103285635Y-69296692D01*
X103305468Y-69070000D01*
X103285635Y-68843308D01*
X103226739Y-68623504D01*
X103130568Y-68417266D01*
X103000047Y-68230861D01*
X103000045Y-68230858D01*
X102839141Y-68069954D01*
X102652734Y-67939432D01*
X102652732Y-67939431D01*
X102446497Y-67843261D01*
X102446488Y-67843258D01*
X102226697Y-67784366D01*
X102226693Y-67784365D01*
X102226692Y-67784365D01*
X102226691Y-67784364D01*
X102226686Y-67784364D01*
X102000002Y-67764532D01*
X101999998Y-67764532D01*
X101773313Y-67784364D01*
X101773302Y-67784366D01*
X101553511Y-67843258D01*
X101553502Y-67843261D01*
X101347267Y-67939431D01*
X101347265Y-67939432D01*
X101160858Y-68069954D01*
X100999954Y-68230858D01*
X100869432Y-68417265D01*
X100869431Y-68417267D01*
X100773261Y-68623502D01*
X100773258Y-68623511D01*
X100714366Y-68843302D01*
X100714364Y-68843313D01*
X100694532Y-69069998D01*
X94300500Y-69069998D01*
X94300500Y-65569997D01*
X95705034Y-65569997D01*
X95705034Y-65570002D01*
X95724858Y-65796599D01*
X95724860Y-65796610D01*
X95783730Y-66016317D01*
X95783735Y-66016331D01*
X95879863Y-66222478D01*
X95930974Y-66295472D01*
X96610000Y-65616446D01*
X96610000Y-65622661D01*
X96637259Y-65724394D01*
X96689920Y-65815606D01*
X96764394Y-65890080D01*
X96855606Y-65942741D01*
X96957339Y-65970000D01*
X96963553Y-65970000D01*
X96284526Y-66649025D01*
X96357513Y-66700132D01*
X96357521Y-66700136D01*
X96563668Y-66796264D01*
X96563682Y-66796269D01*
X96783389Y-66855139D01*
X96783400Y-66855141D01*
X97009998Y-66874966D01*
X97010002Y-66874966D01*
X97236599Y-66855141D01*
X97236610Y-66855139D01*
X97456317Y-66796269D01*
X97456331Y-66796264D01*
X97662478Y-66700136D01*
X97735471Y-66649024D01*
X97056447Y-65970000D01*
X97062661Y-65970000D01*
X97164394Y-65942741D01*
X97255606Y-65890080D01*
X97330080Y-65815606D01*
X97382741Y-65724394D01*
X97410000Y-65622661D01*
X97410000Y-65616447D01*
X98089024Y-66295471D01*
X98140136Y-66222478D01*
X98236264Y-66016331D01*
X98236269Y-66016317D01*
X98295139Y-65796610D01*
X98295141Y-65796599D01*
X98314966Y-65570002D01*
X98314966Y-65569998D01*
X100704532Y-65569998D01*
X100704532Y-65570001D01*
X100724364Y-65796686D01*
X100724366Y-65796697D01*
X100783258Y-66016488D01*
X100783261Y-66016497D01*
X100879431Y-66222732D01*
X100879432Y-66222734D01*
X101009954Y-66409141D01*
X101170858Y-66570045D01*
X101170861Y-66570047D01*
X101357266Y-66700568D01*
X101563504Y-66796739D01*
X101783308Y-66855635D01*
X101945230Y-66869801D01*
X102009998Y-66875468D01*
X102010000Y-66875468D01*
X102010002Y-66875468D01*
X102066673Y-66870509D01*
X102236692Y-66855635D01*
X102456496Y-66796739D01*
X102662734Y-66700568D01*
X102849139Y-66570047D01*
X103010047Y-66409139D01*
X103140568Y-66222734D01*
X103236739Y-66016496D01*
X103295635Y-65796692D01*
X103315468Y-65570000D01*
X103295635Y-65343308D01*
X103236739Y-65123504D01*
X103140568Y-64917266D01*
X103010047Y-64730861D01*
X103010045Y-64730858D01*
X102849141Y-64569954D01*
X102662734Y-64439432D01*
X102662732Y-64439431D01*
X102456497Y-64343261D01*
X102456488Y-64343258D01*
X102236697Y-64284366D01*
X102236693Y-64284365D01*
X102236692Y-64284365D01*
X102236691Y-64284364D01*
X102236686Y-64284364D01*
X102010002Y-64264532D01*
X102009998Y-64264532D01*
X101783313Y-64284364D01*
X101783302Y-64284366D01*
X101563511Y-64343258D01*
X101563502Y-64343261D01*
X101357267Y-64439431D01*
X101357265Y-64439432D01*
X101170858Y-64569954D01*
X101009954Y-64730858D01*
X100879432Y-64917265D01*
X100879431Y-64917267D01*
X100783261Y-65123502D01*
X100783258Y-65123511D01*
X100724366Y-65343302D01*
X100724364Y-65343313D01*
X100704532Y-65569998D01*
X98314966Y-65569998D01*
X98314966Y-65569997D01*
X98295141Y-65343400D01*
X98295139Y-65343389D01*
X98236269Y-65123682D01*
X98236264Y-65123668D01*
X98140136Y-64917521D01*
X98140132Y-64917513D01*
X98089025Y-64844526D01*
X97410000Y-65523551D01*
X97410000Y-65517339D01*
X97382741Y-65415606D01*
X97330080Y-65324394D01*
X97255606Y-65249920D01*
X97164394Y-65197259D01*
X97062661Y-65170000D01*
X97056448Y-65170000D01*
X97735472Y-64490974D01*
X97662478Y-64439863D01*
X97456331Y-64343735D01*
X97456317Y-64343730D01*
X97236610Y-64284860D01*
X97236599Y-64284858D01*
X97010002Y-64265034D01*
X97009998Y-64265034D01*
X96783400Y-64284858D01*
X96783389Y-64284860D01*
X96563682Y-64343730D01*
X96563673Y-64343734D01*
X96357516Y-64439866D01*
X96357512Y-64439868D01*
X96284526Y-64490973D01*
X96284526Y-64490974D01*
X96963553Y-65170000D01*
X96957339Y-65170000D01*
X96855606Y-65197259D01*
X96764394Y-65249920D01*
X96689920Y-65324394D01*
X96637259Y-65415606D01*
X96610000Y-65517339D01*
X96610000Y-65523552D01*
X95930974Y-64844526D01*
X95930973Y-64844526D01*
X95879868Y-64917512D01*
X95879866Y-64917516D01*
X95783734Y-65123673D01*
X95783730Y-65123682D01*
X95724860Y-65343389D01*
X95724858Y-65343400D01*
X95705034Y-65569997D01*
X94300500Y-65569997D01*
X94300500Y-61902155D01*
X102944315Y-61902155D01*
X102944315Y-62500000D01*
X103928629Y-62500000D01*
X103924235Y-62504394D01*
X103871574Y-62595606D01*
X103844315Y-62697339D01*
X103844315Y-62802661D01*
X103871574Y-62904394D01*
X103924235Y-62995606D01*
X103928629Y-63000000D01*
X102944315Y-63000000D01*
X102944315Y-63597844D01*
X102950716Y-63657372D01*
X102950718Y-63657379D01*
X103000960Y-63792086D01*
X103000964Y-63792093D01*
X103087124Y-63907187D01*
X103087127Y-63907190D01*
X103202221Y-63993350D01*
X103202228Y-63993354D01*
X103336935Y-64043596D01*
X103336942Y-64043598D01*
X103396470Y-64049999D01*
X103396487Y-64050000D01*
X103994315Y-64050000D01*
X103994315Y-63065686D01*
X103998709Y-63070080D01*
X104089921Y-63122741D01*
X104191654Y-63150000D01*
X104296976Y-63150000D01*
X104398709Y-63122741D01*
X104489921Y-63070080D01*
X104494315Y-63065686D01*
X104494315Y-64050000D01*
X105092143Y-64050000D01*
X105092159Y-64049999D01*
X105151687Y-64043598D01*
X105151694Y-64043596D01*
X105286401Y-63993354D01*
X105286408Y-63993350D01*
X105401502Y-63907190D01*
X105401505Y-63907187D01*
X105487665Y-63792093D01*
X105487669Y-63792086D01*
X105537911Y-63657380D01*
X105541739Y-63621781D01*
X105568477Y-63557230D01*
X105625870Y-63517382D01*
X105695695Y-63514888D01*
X105755784Y-63550540D01*
X105766604Y-63563912D01*
X105784271Y-63589143D01*
X105945173Y-63750045D01*
X105945176Y-63750047D01*
X106131581Y-63880568D01*
X106337819Y-63976739D01*
X106557623Y-64035635D01*
X106719545Y-64049801D01*
X106784313Y-64055468D01*
X106784315Y-64055468D01*
X106784317Y-64055468D01*
X106846826Y-64049999D01*
X107011007Y-64035635D01*
X107230811Y-63976739D01*
X107395382Y-63899998D01*
X111534532Y-63899998D01*
X111534532Y-63900001D01*
X111554364Y-64126686D01*
X111554366Y-64126697D01*
X111613258Y-64346488D01*
X111613261Y-64346497D01*
X111709431Y-64552732D01*
X111709432Y-64552734D01*
X111839954Y-64739141D01*
X112000858Y-64900045D01*
X112025817Y-64917521D01*
X112187266Y-65030568D01*
X112393504Y-65126739D01*
X112613308Y-65185635D01*
X112775230Y-65199801D01*
X112839998Y-65205468D01*
X112840000Y-65205468D01*
X112840002Y-65205468D01*
X112896673Y-65200509D01*
X113066692Y-65185635D01*
X113286496Y-65126739D01*
X113492734Y-65030568D01*
X113679139Y-64900047D01*
X113840047Y-64739139D01*
X113970568Y-64552734D01*
X114066739Y-64346496D01*
X114125635Y-64126692D01*
X114145468Y-63900000D01*
X114145468Y-63899997D01*
X116535034Y-63899997D01*
X116535034Y-63900002D01*
X116554858Y-64126599D01*
X116554860Y-64126610D01*
X116613730Y-64346317D01*
X116613735Y-64346331D01*
X116709863Y-64552478D01*
X116760974Y-64625472D01*
X117440000Y-63946446D01*
X117440000Y-63952661D01*
X117467259Y-64054394D01*
X117519920Y-64145606D01*
X117594394Y-64220080D01*
X117685606Y-64272741D01*
X117787339Y-64300000D01*
X117793553Y-64300000D01*
X117114526Y-64979025D01*
X117187513Y-65030132D01*
X117187521Y-65030136D01*
X117393668Y-65126264D01*
X117393682Y-65126269D01*
X117613389Y-65185139D01*
X117613400Y-65185141D01*
X117839998Y-65204966D01*
X117840002Y-65204966D01*
X118066599Y-65185141D01*
X118066610Y-65185139D01*
X118286317Y-65126269D01*
X118286331Y-65126264D01*
X118492478Y-65030136D01*
X118565471Y-64979024D01*
X117886447Y-64300000D01*
X117892661Y-64300000D01*
X117994394Y-64272741D01*
X118085606Y-64220080D01*
X118160080Y-64145606D01*
X118212741Y-64054394D01*
X118240000Y-63952661D01*
X118240000Y-63946447D01*
X118919024Y-64625471D01*
X118970136Y-64552478D01*
X119066264Y-64346331D01*
X119066269Y-64346317D01*
X119125139Y-64126610D01*
X119125141Y-64126599D01*
X119144966Y-63900002D01*
X119144966Y-63899997D01*
X119125141Y-63673400D01*
X119125139Y-63673389D01*
X119066269Y-63453682D01*
X119066264Y-63453668D01*
X118970136Y-63247521D01*
X118970132Y-63247513D01*
X118919025Y-63174526D01*
X118240000Y-63853551D01*
X118240000Y-63847339D01*
X118212741Y-63745606D01*
X118160080Y-63654394D01*
X118085606Y-63579920D01*
X117994394Y-63527259D01*
X117892661Y-63500000D01*
X117886448Y-63500000D01*
X118565472Y-62820974D01*
X118492478Y-62769863D01*
X118286331Y-62673735D01*
X118286317Y-62673730D01*
X118066610Y-62614860D01*
X118066599Y-62614858D01*
X117840002Y-62595034D01*
X117839998Y-62595034D01*
X117613400Y-62614858D01*
X117613389Y-62614860D01*
X117393682Y-62673730D01*
X117393673Y-62673734D01*
X117187516Y-62769866D01*
X117187512Y-62769868D01*
X117114526Y-62820973D01*
X117114526Y-62820974D01*
X117793553Y-63500000D01*
X117787339Y-63500000D01*
X117685606Y-63527259D01*
X117594394Y-63579920D01*
X117519920Y-63654394D01*
X117467259Y-63745606D01*
X117440000Y-63847339D01*
X117440000Y-63853552D01*
X116760974Y-63174526D01*
X116760973Y-63174526D01*
X116709868Y-63247512D01*
X116709866Y-63247516D01*
X116613734Y-63453673D01*
X116613730Y-63453682D01*
X116554860Y-63673389D01*
X116554858Y-63673400D01*
X116535034Y-63899997D01*
X114145468Y-63899997D01*
X114125635Y-63673308D01*
X114066739Y-63453504D01*
X113970568Y-63247266D01*
X113840047Y-63060861D01*
X113840045Y-63060858D01*
X113679141Y-62899954D01*
X113492734Y-62769432D01*
X113492732Y-62769431D01*
X113286497Y-62673261D01*
X113286488Y-62673258D01*
X113066697Y-62614366D01*
X113066693Y-62614365D01*
X113066692Y-62614365D01*
X113066691Y-62614364D01*
X113066686Y-62614364D01*
X112840002Y-62594532D01*
X112839998Y-62594532D01*
X112613313Y-62614364D01*
X112613302Y-62614366D01*
X112393511Y-62673258D01*
X112393502Y-62673261D01*
X112187267Y-62769431D01*
X112187265Y-62769432D01*
X112000858Y-62899954D01*
X111839954Y-63060858D01*
X111709432Y-63247265D01*
X111709431Y-63247267D01*
X111613261Y-63453502D01*
X111613258Y-63453511D01*
X111554366Y-63673302D01*
X111554364Y-63673313D01*
X111534532Y-63899998D01*
X107395382Y-63899998D01*
X107437049Y-63880568D01*
X107623454Y-63750047D01*
X107784362Y-63589139D01*
X107914883Y-63402734D01*
X108011054Y-63196496D01*
X108069950Y-62976692D01*
X108089783Y-62750000D01*
X108069950Y-62523308D01*
X108011054Y-62303504D01*
X107914883Y-62097266D01*
X107799546Y-61932546D01*
X107784360Y-61910858D01*
X107623456Y-61749954D01*
X107437049Y-61619432D01*
X107437047Y-61619431D01*
X107230812Y-61523261D01*
X107230803Y-61523258D01*
X107011012Y-61464366D01*
X107011008Y-61464365D01*
X107011007Y-61464365D01*
X107011006Y-61464364D01*
X107011001Y-61464364D01*
X106784317Y-61444532D01*
X106784313Y-61444532D01*
X106557628Y-61464364D01*
X106557617Y-61464366D01*
X106337826Y-61523258D01*
X106337817Y-61523261D01*
X106131582Y-61619431D01*
X106131580Y-61619432D01*
X105945173Y-61749954D01*
X105784266Y-61910861D01*
X105766602Y-61936088D01*
X105712025Y-61979712D01*
X105642526Y-61986904D01*
X105580172Y-61955380D01*
X105544760Y-61895150D01*
X105541740Y-61878218D01*
X105537913Y-61842627D01*
X105537911Y-61842620D01*
X105487669Y-61707913D01*
X105487665Y-61707906D01*
X105401505Y-61592812D01*
X105401502Y-61592809D01*
X105286408Y-61506649D01*
X105286401Y-61506645D01*
X105151694Y-61456403D01*
X105151687Y-61456401D01*
X105092159Y-61450000D01*
X104494315Y-61450000D01*
X104494315Y-62434314D01*
X104489921Y-62429920D01*
X104398709Y-62377259D01*
X104296976Y-62350000D01*
X104191654Y-62350000D01*
X104089921Y-62377259D01*
X103998709Y-62429920D01*
X103994315Y-62434314D01*
X103994315Y-61450000D01*
X103396470Y-61450000D01*
X103336942Y-61456401D01*
X103336935Y-61456403D01*
X103202228Y-61506645D01*
X103202221Y-61506649D01*
X103087127Y-61592809D01*
X103087124Y-61592812D01*
X103000964Y-61707906D01*
X103000960Y-61707913D01*
X102950718Y-61842620D01*
X102950716Y-61842627D01*
X102944315Y-61902155D01*
X94300500Y-61902155D01*
X94300500Y-59568316D01*
X94320185Y-59501277D01*
X94372989Y-59455522D01*
X94442147Y-59445578D01*
X94505703Y-59474603D01*
X94528495Y-59500781D01*
X94552531Y-59537793D01*
X94761095Y-59795350D01*
X94761096Y-59795350D01*
X96255748Y-58300698D01*
X96329588Y-58402330D01*
X96507670Y-58580412D01*
X96609300Y-58654251D01*
X95114648Y-60148903D01*
X95114649Y-60148904D01*
X95372206Y-60357468D01*
X95697456Y-60568689D01*
X96043005Y-60744755D01*
X96405063Y-60883737D01*
X96779669Y-60984112D01*
X96779676Y-60984113D01*
X97162712Y-61044780D01*
X97549999Y-61065078D01*
X97550001Y-61065078D01*
X97937287Y-61044780D01*
X98320323Y-60984113D01*
X98320330Y-60984112D01*
X98694936Y-60883737D01*
X99056994Y-60744755D01*
X99402543Y-60568689D01*
X99727783Y-60357476D01*
X99727785Y-60357475D01*
X99985349Y-60148902D01*
X98490698Y-58654251D01*
X98592330Y-58580412D01*
X98770412Y-58402330D01*
X98844251Y-58300698D01*
X100338902Y-59795349D01*
X100547475Y-59537785D01*
X100547476Y-59537783D01*
X100559025Y-59519999D01*
X102962497Y-59519999D01*
X102962498Y-59520000D01*
X103925684Y-59520000D01*
X103921290Y-59524394D01*
X103868629Y-59615606D01*
X103841370Y-59717339D01*
X103841370Y-59822661D01*
X103868629Y-59924394D01*
X103921290Y-60015606D01*
X103925684Y-60020000D01*
X102962498Y-60020000D01*
X103015100Y-60216317D01*
X103015104Y-60216326D01*
X103111235Y-60422482D01*
X103241712Y-60608820D01*
X103402549Y-60769657D01*
X103588887Y-60900134D01*
X103795043Y-60996265D01*
X103795052Y-60996269D01*
X103991369Y-61048872D01*
X103991370Y-61048871D01*
X103991370Y-60085686D01*
X103995764Y-60090080D01*
X104086976Y-60142741D01*
X104188709Y-60170000D01*
X104294031Y-60170000D01*
X104395764Y-60142741D01*
X104486976Y-60090080D01*
X104491370Y-60085686D01*
X104491370Y-61048872D01*
X104687687Y-60996269D01*
X104687696Y-60996265D01*
X104893852Y-60900134D01*
X105080190Y-60769657D01*
X105241028Y-60608819D01*
X105258560Y-60583781D01*
X105313136Y-60540155D01*
X105382634Y-60532961D01*
X105444989Y-60564482D01*
X105480404Y-60624712D01*
X105483425Y-60641647D01*
X105487277Y-60677480D01*
X105537572Y-60812328D01*
X105537576Y-60812335D01*
X105623822Y-60927544D01*
X105623825Y-60927547D01*
X105739034Y-61013793D01*
X105739041Y-61013797D01*
X105873887Y-61064091D01*
X105873886Y-61064091D01*
X105880814Y-61064835D01*
X105933497Y-61070500D01*
X107629242Y-61070499D01*
X107688853Y-61064091D01*
X107823701Y-61013796D01*
X107938916Y-60927546D01*
X108025166Y-60812331D01*
X108075461Y-60677483D01*
X108081870Y-60617873D01*
X108081870Y-59827135D01*
X129179500Y-59827135D01*
X129179500Y-61622870D01*
X129179501Y-61622876D01*
X129185908Y-61682483D01*
X129236202Y-61817328D01*
X129236206Y-61817335D01*
X129322452Y-61932544D01*
X129322455Y-61932547D01*
X129437664Y-62018793D01*
X129437671Y-62018797D01*
X129572517Y-62069091D01*
X129572516Y-62069091D01*
X129579444Y-62069835D01*
X129632127Y-62075500D01*
X131427872Y-62075499D01*
X131487483Y-62069091D01*
X131622331Y-62018796D01*
X131737546Y-61932546D01*
X131823796Y-61817331D01*
X131874091Y-61682483D01*
X131880500Y-61622873D01*
X131880499Y-59827128D01*
X131874091Y-59767517D01*
X131823796Y-59632669D01*
X131823795Y-59632668D01*
X131823793Y-59632664D01*
X131737547Y-59517455D01*
X131737544Y-59517452D01*
X131622335Y-59431206D01*
X131622328Y-59431202D01*
X131490401Y-59381997D01*
X131434467Y-59340126D01*
X131410050Y-59274662D01*
X131424902Y-59206389D01*
X131446053Y-59178133D01*
X131568108Y-59056078D01*
X131703600Y-58862578D01*
X131803429Y-58648492D01*
X131803432Y-58648486D01*
X131860636Y-58435000D01*
X130963012Y-58435000D01*
X130995925Y-58377993D01*
X131030000Y-58250826D01*
X131030000Y-58119174D01*
X130995925Y-57992007D01*
X130963012Y-57935000D01*
X131860636Y-57935000D01*
X131860635Y-57934999D01*
X131803432Y-57721513D01*
X131803429Y-57721507D01*
X131703600Y-57507422D01*
X131703599Y-57507420D01*
X131568113Y-57313926D01*
X131568108Y-57313920D01*
X131401082Y-57146894D01*
X131207578Y-57011399D01*
X130993492Y-56911570D01*
X130993486Y-56911567D01*
X130780000Y-56854364D01*
X130780000Y-57751988D01*
X130722993Y-57719075D01*
X130595826Y-57685000D01*
X130464174Y-57685000D01*
X130337007Y-57719075D01*
X130280000Y-57751988D01*
X130280000Y-56854364D01*
X130279999Y-56854364D01*
X130066513Y-56911567D01*
X130066507Y-56911570D01*
X129852422Y-57011399D01*
X129852420Y-57011400D01*
X129658926Y-57146886D01*
X129658920Y-57146891D01*
X129491891Y-57313920D01*
X129491886Y-57313926D01*
X129356400Y-57507420D01*
X129356399Y-57507422D01*
X129256570Y-57721507D01*
X129256567Y-57721513D01*
X129199364Y-57934999D01*
X129199364Y-57935000D01*
X130096988Y-57935000D01*
X130064075Y-57992007D01*
X130030000Y-58119174D01*
X130030000Y-58250826D01*
X130064075Y-58377993D01*
X130096988Y-58435000D01*
X129199364Y-58435000D01*
X129256567Y-58648486D01*
X129256570Y-58648492D01*
X129356399Y-58862578D01*
X129491894Y-59056082D01*
X129613946Y-59178134D01*
X129647431Y-59239457D01*
X129642447Y-59309149D01*
X129600575Y-59365082D01*
X129569598Y-59381997D01*
X129437671Y-59431202D01*
X129437664Y-59431206D01*
X129322455Y-59517452D01*
X129322452Y-59517455D01*
X129236206Y-59632664D01*
X129236202Y-59632671D01*
X129185908Y-59767517D01*
X129179980Y-59822661D01*
X129179501Y-59827123D01*
X129179500Y-59827135D01*
X108081870Y-59827135D01*
X108081869Y-58922128D01*
X108075461Y-58862517D01*
X108070769Y-58849938D01*
X108025167Y-58727671D01*
X108025163Y-58727664D01*
X107938917Y-58612455D01*
X107938914Y-58612452D01*
X107823705Y-58526206D01*
X107823698Y-58526202D01*
X107688852Y-58475908D01*
X107688853Y-58475908D01*
X107629253Y-58469501D01*
X107629251Y-58469500D01*
X107629243Y-58469500D01*
X107629235Y-58469500D01*
X107267824Y-58469500D01*
X107200785Y-58449815D01*
X107155030Y-58397011D01*
X107145086Y-58327853D01*
X107174111Y-58264297D01*
X107202728Y-58239961D01*
X107308343Y-58174817D01*
X107432315Y-58050845D01*
X107524356Y-57901624D01*
X107524358Y-57901619D01*
X107579505Y-57735197D01*
X107579506Y-57735190D01*
X107589999Y-57632486D01*
X110890001Y-57632486D01*
X110900494Y-57735197D01*
X110955641Y-57901619D01*
X110955643Y-57901624D01*
X111047684Y-58050845D01*
X111171654Y-58174815D01*
X111320875Y-58266856D01*
X111320880Y-58266858D01*
X111487302Y-58322005D01*
X111487309Y-58322006D01*
X111590019Y-58332499D01*
X111814999Y-58332499D01*
X112315000Y-58332499D01*
X112539972Y-58332499D01*
X112539986Y-58332498D01*
X112642697Y-58322005D01*
X112809119Y-58266858D01*
X112809124Y-58266856D01*
X112958345Y-58174815D01*
X113082315Y-58050845D01*
X113174356Y-57901624D01*
X113174358Y-57901619D01*
X113229505Y-57735197D01*
X113229506Y-57735190D01*
X113239999Y-57632486D01*
X113240000Y-57632473D01*
X113240000Y-56232500D01*
X112315000Y-56232500D01*
X112315000Y-58332499D01*
X111814999Y-58332499D01*
X111815000Y-58332498D01*
X111815000Y-56232500D01*
X110890001Y-56232500D01*
X110890001Y-57632486D01*
X107589999Y-57632486D01*
X107590000Y-57632473D01*
X107590000Y-56232500D01*
X105240001Y-56232500D01*
X105240001Y-57632486D01*
X105250494Y-57735197D01*
X105305641Y-57901619D01*
X105305643Y-57901624D01*
X105397684Y-58050845D01*
X105521654Y-58174815D01*
X105670875Y-58266856D01*
X105670880Y-58266858D01*
X105740823Y-58290035D01*
X105798268Y-58329808D01*
X105825091Y-58394323D01*
X105812776Y-58463099D01*
X105765233Y-58514299D01*
X105745156Y-58523921D01*
X105739046Y-58526199D01*
X105739034Y-58526206D01*
X105623825Y-58612452D01*
X105623822Y-58612455D01*
X105537576Y-58727664D01*
X105537572Y-58727671D01*
X105487278Y-58862517D01*
X105483426Y-58898352D01*
X105456688Y-58962903D01*
X105399296Y-59002752D01*
X105329471Y-59005245D01*
X105269382Y-58969593D01*
X105258562Y-58956221D01*
X105241027Y-58931179D01*
X105080190Y-58770342D01*
X104893852Y-58639865D01*
X104687698Y-58543734D01*
X104491370Y-58491127D01*
X104491370Y-59454314D01*
X104486976Y-59449920D01*
X104395764Y-59397259D01*
X104294031Y-59370000D01*
X104188709Y-59370000D01*
X104086976Y-59397259D01*
X103995764Y-59449920D01*
X103991370Y-59454314D01*
X103991370Y-58491127D01*
X103795041Y-58543734D01*
X103588887Y-58639865D01*
X103402549Y-58770342D01*
X103241712Y-58931179D01*
X103111235Y-59117517D01*
X103015104Y-59323673D01*
X103015100Y-59323682D01*
X102962497Y-59519999D01*
X100559025Y-59519999D01*
X100758689Y-59212543D01*
X100934755Y-58866994D01*
X101073737Y-58504936D01*
X101174112Y-58130330D01*
X101174113Y-58130323D01*
X101234780Y-57747287D01*
X101255078Y-57360000D01*
X101255078Y-57359999D01*
X101234780Y-56972712D01*
X101174113Y-56589676D01*
X101174112Y-56589669D01*
X101073737Y-56215063D01*
X100934755Y-55853005D01*
X100758689Y-55507456D01*
X100547468Y-55182206D01*
X100338904Y-54924649D01*
X100338903Y-54924648D01*
X98844251Y-56419300D01*
X98770412Y-56317670D01*
X98592330Y-56139588D01*
X98490698Y-56065748D01*
X99985350Y-54571096D01*
X99985350Y-54571095D01*
X99727793Y-54362531D01*
X99675383Y-54328495D01*
X99629880Y-54275474D01*
X99620266Y-54206269D01*
X99649593Y-54142852D01*
X99708550Y-54105358D01*
X99742918Y-54100500D01*
X105126390Y-54100500D01*
X105193429Y-54120185D01*
G37*
%TD.AperFunction*%
%TA.AperFunction,Conductor*%
G36*
X140978902Y-123095349D02*
G01*
X141187475Y-122837785D01*
X141187475Y-122837783D01*
X141281505Y-122692991D01*
X141334526Y-122647488D01*
X141403731Y-122637873D01*
X141467148Y-122667200D01*
X141504642Y-122726158D01*
X141509500Y-122760526D01*
X141509500Y-123975500D01*
X141489815Y-124042539D01*
X141437011Y-124088294D01*
X141385500Y-124099500D01*
X140105543Y-124099500D01*
X140038504Y-124079815D01*
X139992749Y-124027011D01*
X139982805Y-123957853D01*
X140011830Y-123894297D01*
X140040123Y-123870934D01*
X140039816Y-123870461D01*
X140367783Y-123657476D01*
X140367785Y-123657475D01*
X140625349Y-123448902D01*
X139130698Y-121954251D01*
X139232330Y-121880412D01*
X139410412Y-121702330D01*
X139484251Y-121600698D01*
X140978902Y-123095349D01*
G37*
%TD.AperFunction*%
%TA.AperFunction,Conductor*%
G36*
X95424121Y-54120185D02*
G01*
X95469876Y-54172989D01*
X95479820Y-54242147D01*
X95450795Y-54305703D01*
X95424617Y-54328495D01*
X95372206Y-54362531D01*
X95114648Y-54571095D01*
X95114648Y-54571096D01*
X96609301Y-56065748D01*
X96507670Y-56139588D01*
X96329588Y-56317670D01*
X96255748Y-56419300D01*
X94761096Y-54924648D01*
X94761095Y-54924648D01*
X94552534Y-55182202D01*
X94528495Y-55219219D01*
X94475473Y-55264722D01*
X94406268Y-55274335D01*
X94342851Y-55245008D01*
X94305358Y-55186050D01*
X94300500Y-55151683D01*
X94300500Y-54224500D01*
X94320185Y-54157461D01*
X94372989Y-54111706D01*
X94424500Y-54100500D01*
X95357082Y-54100500D01*
X95424121Y-54120185D01*
G37*
%TD.AperFunction*%
%TA.AperFunction,Conductor*%
G36*
X141452539Y-54120185D02*
G01*
X141498294Y-54172989D01*
X141509500Y-54224500D01*
X141509500Y-55145492D01*
X141489815Y-55212531D01*
X141437011Y-55258286D01*
X141367853Y-55268230D01*
X141304297Y-55239205D01*
X141281505Y-55213028D01*
X141250409Y-55165146D01*
X141041848Y-54907593D01*
X141041847Y-54907592D01*
X139547195Y-56402244D01*
X139473356Y-56300614D01*
X139295274Y-56122532D01*
X139193642Y-56048692D01*
X140688294Y-54554040D01*
X140688294Y-54554039D01*
X140430741Y-54345478D01*
X140404590Y-54328495D01*
X140359087Y-54275473D01*
X140349474Y-54206268D01*
X140378801Y-54142852D01*
X140437758Y-54105358D01*
X140472126Y-54100500D01*
X141385500Y-54100500D01*
X141452539Y-54120185D01*
G37*
%TD.AperFunction*%
%TD*%
%TA.AperFunction,Conductor*%
%TO.N,GND*%
G36*
X110120000Y-78080000D02*
G01*
X110120000Y-78580000D01*
X109520000Y-78630000D01*
X109519000Y-78330000D01*
X109520000Y-78030000D01*
X110120000Y-78080000D01*
G37*
%TD.AperFunction*%
%TD*%
%TA.AperFunction,Conductor*%
%TO.N,GND*%
G36*
X112271000Y-78070000D02*
G01*
X112384805Y-78347164D01*
X111777695Y-78580000D01*
X111777695Y-78080000D01*
X112057868Y-77857868D01*
X112271000Y-78070000D01*
G37*
%TD.AperFunction*%
%TD*%
%TA.AperFunction,Conductor*%
%TO.N,+5V*%
G36*
X106661588Y-75164437D02*
G01*
X106665944Y-75172261D01*
X106666022Y-75173608D01*
X106666022Y-75619897D01*
X106662595Y-75628170D01*
X106654322Y-75631597D01*
X106648543Y-75630070D01*
X106404703Y-75491546D01*
X106399202Y-75484480D01*
X106400309Y-75475594D01*
X106401305Y-75474114D01*
X106645151Y-75166341D01*
X106652975Y-75161986D01*
X106661588Y-75164437D01*
G37*
%TD.AperFunction*%
%TD*%
%TA.AperFunction,Conductor*%
%TO.N,+5V*%
G36*
X116277867Y-83537405D02*
G01*
X116281214Y-83544313D01*
X116348470Y-84116978D01*
X116346032Y-84125595D01*
X116338215Y-84129963D01*
X116336889Y-84130043D01*
X116050039Y-84130999D01*
X116049961Y-84130999D01*
X115762262Y-84130040D01*
X115754000Y-84126586D01*
X115750601Y-84118301D01*
X115750616Y-84117752D01*
X115779441Y-83545090D01*
X115783279Y-83536999D01*
X115791126Y-83533978D01*
X116269594Y-83533978D01*
X116277867Y-83537405D01*
G37*
%TD.AperFunction*%
%TD*%
%TA.AperFunction,Conductor*%
%TO.N,+3.3V*%
G36*
X108404618Y-115305942D02*
G01*
X108406800Y-115312746D01*
X108406800Y-115779553D01*
X108403373Y-115787826D01*
X108396420Y-115791178D01*
X107620126Y-115879325D01*
X107611519Y-115876854D01*
X107607181Y-115869020D01*
X107609652Y-115860413D01*
X107611996Y-115858187D01*
X108388296Y-115303227D01*
X108397019Y-115301204D01*
X108404618Y-115305942D01*
G37*
%TD.AperFunction*%
%TD*%
%TA.AperFunction,Conductor*%
%TO.N,+3.3V*%
G36*
X110197698Y-115037927D02*
G01*
X110205004Y-115043105D01*
X110206800Y-115049335D01*
X110206800Y-116030664D01*
X110203373Y-116038937D01*
X110197698Y-116042072D01*
X108760833Y-116369301D01*
X108752005Y-116367797D01*
X108747430Y-116362381D01*
X108407663Y-115544487D01*
X108407655Y-115535534D01*
X108407664Y-115535512D01*
X108612218Y-115043105D01*
X108747430Y-114717617D01*
X108753769Y-114711292D01*
X108760831Y-114710698D01*
X110197698Y-115037927D01*
G37*
%TD.AperFunction*%
%TD*%
%TA.AperFunction,Conductor*%
%TO.N,+3.3V*%
G36*
X133067677Y-115081860D02*
G01*
X133072573Y-115087463D01*
X133259127Y-115535503D01*
X133259144Y-115544457D01*
X133259127Y-115544497D01*
X133072573Y-115992536D01*
X133066229Y-115998857D01*
X133058806Y-115999357D01*
X132268734Y-115792289D01*
X132261600Y-115786876D01*
X132260000Y-115780971D01*
X132260000Y-115299028D01*
X132263427Y-115290755D01*
X132268731Y-115287711D01*
X133058806Y-115080642D01*
X133067677Y-115081860D01*
G37*
%TD.AperFunction*%
%TD*%
%TA.AperFunction,Conductor*%
%TO.N,Net-(U1-SO)*%
G36*
X106775439Y-72534072D02*
G01*
X106779939Y-72541813D01*
X106780044Y-72543336D01*
X106781000Y-72830000D01*
X106781000Y-72830078D01*
X106780040Y-73117940D01*
X106776586Y-73126202D01*
X106768301Y-73129601D01*
X106767946Y-73129594D01*
X106197273Y-73110380D01*
X106189120Y-73106677D01*
X106185967Y-73098687D01*
X106185967Y-72620229D01*
X106189394Y-72611956D01*
X106196103Y-72608634D01*
X106766782Y-72531780D01*
X106775439Y-72534072D01*
G37*
%TD.AperFunction*%
%TD*%
%TA.AperFunction,Conductor*%
%TO.N,RX_Q*%
G36*
X111807507Y-88433427D02*
G01*
X111810894Y-88440728D01*
X111858947Y-89017370D01*
X111856219Y-89025900D01*
X111848259Y-89030002D01*
X111847326Y-89030042D01*
X111560039Y-89030999D01*
X111559961Y-89030999D01*
X111272673Y-89030042D01*
X111264411Y-89026588D01*
X111261012Y-89018303D01*
X111261052Y-89017370D01*
X111309106Y-88440728D01*
X111313208Y-88432768D01*
X111320766Y-88430000D01*
X111799234Y-88430000D01*
X111807507Y-88433427D01*
G37*
%TD.AperFunction*%
%TD*%
%TA.AperFunction,Conductor*%
%TO.N,+5V*%
G36*
X117957327Y-72899957D02*
G01*
X117965588Y-72903411D01*
X117968987Y-72911696D01*
X117968947Y-72912629D01*
X117920894Y-73489272D01*
X117916792Y-73497232D01*
X117909234Y-73500000D01*
X117430766Y-73500000D01*
X117422493Y-73496573D01*
X117419106Y-73489272D01*
X117371052Y-72912629D01*
X117373780Y-72904099D01*
X117381740Y-72899997D01*
X117382653Y-72899957D01*
X117670000Y-72899000D01*
X117957327Y-72899957D01*
G37*
%TD.AperFunction*%
%TD*%
%TA.AperFunction,Conductor*%
%TO.N,RX_Q*%
G36*
X115803303Y-78619492D02*
G01*
X116068517Y-78728393D01*
X116072373Y-78730970D01*
X116275148Y-78935101D01*
X116278547Y-78943386D01*
X116276346Y-78950177D01*
X115959273Y-79391139D01*
X115951661Y-79395856D01*
X115942944Y-79393808D01*
X115941501Y-79392582D01*
X115603393Y-79054474D01*
X115599966Y-79046201D01*
X115600996Y-79041403D01*
X115788191Y-78625513D01*
X115794712Y-78619376D01*
X115803303Y-78619492D01*
G37*
%TD.AperFunction*%
%TD*%
%TA.AperFunction,Conductor*%
%TO.N,GND*%
G36*
X109820000Y-78330000D02*
G01*
X109520000Y-78331000D01*
X109220000Y-78330000D01*
X109230000Y-77737956D01*
X109730000Y-77737956D01*
X109820000Y-78330000D01*
G37*
%TD.AperFunction*%
%TD*%
%TA.AperFunction,Conductor*%
%TO.N,RX_Q*%
G36*
X116356664Y-78099955D02*
G01*
X116364925Y-78103409D01*
X116368324Y-78111694D01*
X116368219Y-78113217D01*
X116291365Y-78683895D01*
X116286865Y-78691636D01*
X116279770Y-78694033D01*
X115801312Y-78694033D01*
X115793039Y-78690606D01*
X115789619Y-78682727D01*
X115770405Y-78112051D01*
X115773551Y-78103669D01*
X115781704Y-78099966D01*
X115782009Y-78099959D01*
X116070000Y-78099000D01*
X116356664Y-78099955D01*
G37*
%TD.AperFunction*%
%TD*%
%TA.AperFunction,Conductor*%
%TO.N,Net-(U6B--)*%
G36*
X113784957Y-85864430D02*
G01*
X113789847Y-85871932D01*
X113790046Y-85874044D01*
X113791000Y-86160000D01*
X113791000Y-86160078D01*
X113790038Y-86448535D01*
X113786584Y-86456797D01*
X113778537Y-86460194D01*
X113213834Y-86469797D01*
X113205504Y-86466512D01*
X113201937Y-86458298D01*
X113201935Y-86458099D01*
X113201935Y-85979714D01*
X113205362Y-85971441D01*
X113211481Y-85968214D01*
X113776195Y-85862582D01*
X113784957Y-85864430D01*
G37*
%TD.AperFunction*%
%TD*%
%TA.AperFunction,Conductor*%
%TO.N,+3.3V*%
G36*
X133948264Y-98777278D02*
G01*
X134480328Y-99310228D01*
X134535750Y-99365743D01*
X134539170Y-99374019D01*
X134539011Y-99375932D01*
X134441630Y-99960223D01*
X134436890Y-99967821D01*
X134430089Y-99970000D01*
X133449911Y-99970000D01*
X133441638Y-99966573D01*
X133438370Y-99960223D01*
X133340988Y-99375930D01*
X133343008Y-99367209D01*
X133344243Y-99365749D01*
X133931721Y-98777292D01*
X133939990Y-98773859D01*
X133948264Y-98777278D01*
G37*
%TD.AperFunction*%
%TD*%
%TA.AperFunction,Conductor*%
%TO.N,Net-(U6B--)*%
G36*
X113995381Y-85786138D02*
G01*
X113998232Y-85788233D01*
X114336798Y-86126799D01*
X114340225Y-86135072D01*
X114336798Y-86143345D01*
X114335123Y-86144734D01*
X114010116Y-86366679D01*
X114001351Y-86368515D01*
X113995272Y-86365318D01*
X113790970Y-86162373D01*
X113788393Y-86158516D01*
X113680039Y-85894633D01*
X113680066Y-85885678D01*
X113686418Y-85879366D01*
X113687365Y-85879024D01*
X113986463Y-85785341D01*
X113995381Y-85786138D01*
G37*
%TD.AperFunction*%
%TD*%
%TA.AperFunction,Conductor*%
%TO.N,+3.3V*%
G36*
X133067677Y-115081860D02*
G01*
X133072573Y-115087463D01*
X133259127Y-115535503D01*
X133259144Y-115544457D01*
X133259127Y-115544497D01*
X133072573Y-115992536D01*
X133066229Y-115998857D01*
X133058806Y-115999357D01*
X132268734Y-115792289D01*
X132261600Y-115786876D01*
X132260000Y-115780971D01*
X132260000Y-115299028D01*
X132263427Y-115290755D01*
X132268731Y-115287711D01*
X133058806Y-115080642D01*
X133067677Y-115081860D01*
G37*
%TD.AperFunction*%
%TD*%
%TA.AperFunction,Conductor*%
%TO.N,Net-(U6B--)*%
G36*
X114142187Y-85579034D02*
G01*
X114408517Y-85688393D01*
X114412373Y-85690970D01*
X114613098Y-85893038D01*
X114616497Y-85901323D01*
X114613043Y-85909585D01*
X114612254Y-85910300D01*
X114394979Y-86089991D01*
X114386419Y-86092623D01*
X114379249Y-86089248D01*
X114039647Y-85749646D01*
X114036220Y-85741373D01*
X114037854Y-85735412D01*
X114127681Y-85583889D01*
X114134846Y-85578522D01*
X114142187Y-85579034D01*
G37*
%TD.AperFunction*%
%TD*%
%TA.AperFunction,Conductor*%
%TO.N,GND*%
G36*
X112570000Y-78880000D02*
G01*
X112270000Y-78881000D01*
X111970000Y-78880000D01*
X112020000Y-78280000D01*
X112520000Y-78280000D01*
X112570000Y-78880000D01*
G37*
%TD.AperFunction*%
%TD*%
%TA.AperFunction,Conductor*%
%TO.N,Net-(U1-SO)*%
G36*
X106073481Y-72634931D02*
G01*
X106077919Y-72642709D01*
X106078011Y-72644176D01*
X106078011Y-73090597D01*
X106074584Y-73098870D01*
X106066311Y-73102297D01*
X106060851Y-73100945D01*
X105815162Y-72971309D01*
X105809444Y-72964417D01*
X105810274Y-72955501D01*
X105811371Y-72953799D01*
X106057066Y-72637005D01*
X106064844Y-72632568D01*
X106073481Y-72634931D01*
G37*
%TD.AperFunction*%
%TD*%
%TA.AperFunction,Conductor*%
%TO.N,+5V*%
G36*
X125047677Y-83671860D02*
G01*
X125052573Y-83677463D01*
X125239127Y-84125503D01*
X125239144Y-84134457D01*
X125239127Y-84134497D01*
X125052573Y-84582536D01*
X125046229Y-84588857D01*
X125038806Y-84589357D01*
X124248734Y-84382289D01*
X124241600Y-84376876D01*
X124240000Y-84370971D01*
X124240000Y-83889028D01*
X124243427Y-83880755D01*
X124248731Y-83877711D01*
X125038806Y-83670642D01*
X125047677Y-83671860D01*
G37*
%TD.AperFunction*%
%TD*%
%TA.AperFunction,Conductor*%
%TO.N,RX_Q*%
G36*
X116288043Y-78139394D02*
G01*
X116291365Y-78146105D01*
X116368219Y-78716782D01*
X116365927Y-78725439D01*
X116358186Y-78729939D01*
X116356663Y-78730044D01*
X116070039Y-78730999D01*
X116069961Y-78730999D01*
X115782059Y-78730040D01*
X115773797Y-78726586D01*
X115770398Y-78718301D01*
X115770403Y-78718005D01*
X115789619Y-78147272D01*
X115793322Y-78139120D01*
X115801312Y-78135967D01*
X116279770Y-78135967D01*
X116288043Y-78139394D01*
G37*
%TD.AperFunction*%
%TD*%
%TA.AperFunction,Conductor*%
%TO.N,+5V*%
G36*
X116062618Y-83831051D02*
G01*
X116639272Y-83879106D01*
X116647232Y-83883208D01*
X116650000Y-83890766D01*
X116650000Y-84369234D01*
X116646573Y-84377507D01*
X116639272Y-84380894D01*
X116062629Y-84428947D01*
X116054099Y-84426219D01*
X116049997Y-84418259D01*
X116049957Y-84417345D01*
X116049000Y-84130000D01*
X116049957Y-83842671D01*
X116053411Y-83834411D01*
X116061696Y-83831012D01*
X116062618Y-83831051D01*
G37*
%TD.AperFunction*%
%TD*%
%TA.AperFunction,Conductor*%
%TO.N,+5V*%
G36*
X105952618Y-75091051D02*
G01*
X106529272Y-75139106D01*
X106537232Y-75143208D01*
X106540000Y-75150766D01*
X106540000Y-75629234D01*
X106536573Y-75637507D01*
X106529272Y-75640894D01*
X105952629Y-75688947D01*
X105944099Y-75686219D01*
X105939997Y-75678259D01*
X105939957Y-75677345D01*
X105939000Y-75390000D01*
X105939957Y-75102671D01*
X105943411Y-75094411D01*
X105951696Y-75091012D01*
X105952618Y-75091051D01*
G37*
%TD.AperFunction*%
%TD*%
%TA.AperFunction,Conductor*%
%TO.N,GND*%
G36*
X112570000Y-78070000D02*
G01*
X112520000Y-78670000D01*
X112020000Y-78670000D01*
X111970000Y-78070000D01*
X112270000Y-78069000D01*
X112570000Y-78070000D01*
G37*
%TD.AperFunction*%
%TD*%
%TA.AperFunction,Conductor*%
%TO.N,GND*%
G36*
X109780000Y-77580000D02*
G01*
X109730000Y-78180000D01*
X109230000Y-78180000D01*
X109180000Y-77580000D01*
X109480000Y-77579000D01*
X109780000Y-77580000D01*
G37*
%TD.AperFunction*%
%TD*%
%TA.AperFunction,Conductor*%
%TO.N,+5V*%
G36*
X116317327Y-83399957D02*
G01*
X116325588Y-83403411D01*
X116328987Y-83411696D01*
X116328947Y-83412629D01*
X116280894Y-83989272D01*
X116276792Y-83997232D01*
X116269234Y-84000000D01*
X115790766Y-84000000D01*
X115782493Y-83996573D01*
X115779106Y-83989272D01*
X115731052Y-83412629D01*
X115733780Y-83404099D01*
X115741740Y-83399997D01*
X115742653Y-83399957D01*
X116030000Y-83399000D01*
X116317327Y-83399957D01*
G37*
%TD.AperFunction*%
%TD*%
%TA.AperFunction,Conductor*%
%TO.N,+3.3V*%
G36*
X133067677Y-115081860D02*
G01*
X133072573Y-115087463D01*
X133259127Y-115535503D01*
X133259144Y-115544457D01*
X133259127Y-115544497D01*
X133072573Y-115992536D01*
X133066229Y-115998857D01*
X133058806Y-115999357D01*
X132268734Y-115792289D01*
X132261600Y-115786876D01*
X132260000Y-115780971D01*
X132260000Y-115299028D01*
X132263427Y-115290755D01*
X132268731Y-115287711D01*
X133058806Y-115080642D01*
X133067677Y-115081860D01*
G37*
%TD.AperFunction*%
%TD*%
%TA.AperFunction,Conductor*%
%TO.N,Net-(U6B--)*%
G36*
X107642618Y-85921051D02*
G01*
X108219272Y-85969106D01*
X108227232Y-85973208D01*
X108230000Y-85980766D01*
X108230000Y-86459234D01*
X108226573Y-86467507D01*
X108219272Y-86470894D01*
X107642629Y-86518947D01*
X107634099Y-86516219D01*
X107629997Y-86508259D01*
X107629957Y-86507345D01*
X107629000Y-86220000D01*
X107629957Y-85932671D01*
X107633411Y-85924411D01*
X107641696Y-85921012D01*
X107642618Y-85921051D01*
G37*
%TD.AperFunction*%
%TD*%
M02*
