%TF.GenerationSoftware,KiCad,Pcbnew,8.0.3-unknown-202406112021~03dd6c7a8e~ubuntu22.04.1*%
%TF.CreationDate,2024-06-13T18:15:46+05:30*%
%TF.ProjectId,SDR-Board,5344522d-426f-4617-9264-2e6b69636164,rev?*%
%TF.SameCoordinates,Original*%
%TF.FileFunction,Soldermask,Top*%
%TF.FilePolarity,Negative*%
%FSLAX46Y46*%
G04 Gerber Fmt 4.6, Leading zero omitted, Abs format (unit mm)*
G04 Created by KiCad (PCBNEW 8.0.3-unknown-202406112021~03dd6c7a8e~ubuntu22.04.1) date 2024-06-13 18:15:46*
%MOMM*%
%LPD*%
G01*
G04 APERTURE LIST*
G04 Aperture macros list*
%AMRoundRect*
0 Rectangle with rounded corners*
0 $1 Rounding radius*
0 $2 $3 $4 $5 $6 $7 $8 $9 X,Y pos of 4 corners*
0 Add a 4 corners polygon primitive as box body*
4,1,4,$2,$3,$4,$5,$6,$7,$8,$9,$2,$3,0*
0 Add four circle primitives for the rounded corners*
1,1,$1+$1,$2,$3*
1,1,$1+$1,$4,$5*
1,1,$1+$1,$6,$7*
1,1,$1+$1,$8,$9*
0 Add four rect primitives between the rounded corners*
20,1,$1+$1,$2,$3,$4,$5,0*
20,1,$1+$1,$4,$5,$6,$7,0*
20,1,$1+$1,$6,$7,$8,$9,0*
20,1,$1+$1,$8,$9,$2,$3,0*%
G04 Aperture macros list end*
%ADD10RoundRect,0.250000X-0.650000X0.412500X-0.650000X-0.412500X0.650000X-0.412500X0.650000X0.412500X0*%
%ADD11RoundRect,0.250000X0.650000X-0.412500X0.650000X0.412500X-0.650000X0.412500X-0.650000X-0.412500X0*%
%ADD12RoundRect,0.250000X-0.412500X-0.650000X0.412500X-0.650000X0.412500X0.650000X-0.412500X0.650000X0*%
%ADD13RoundRect,0.250000X-0.625000X0.400000X-0.625000X-0.400000X0.625000X-0.400000X0.625000X0.400000X0*%
%ADD14RoundRect,0.137500X0.662500X0.137500X-0.662500X0.137500X-0.662500X-0.137500X0.662500X-0.137500X0*%
%ADD15C,1.600000*%
%ADD16RoundRect,0.150000X-0.150000X0.725000X-0.150000X-0.725000X0.150000X-0.725000X0.150000X0.725000X0*%
%ADD17C,0.800000*%
%ADD18C,6.400000*%
%ADD19RoundRect,0.250000X0.412500X0.650000X-0.412500X0.650000X-0.412500X-0.650000X0.412500X-0.650000X0*%
%ADD20C,1.200000*%
%ADD21O,2.500000X1.800000*%
%ADD22O,1.800000X2.500000*%
%ADD23RoundRect,0.250001X0.462499X1.074999X-0.462499X1.074999X-0.462499X-1.074999X0.462499X-1.074999X0*%
%ADD24RoundRect,0.250000X0.625000X-0.400000X0.625000X0.400000X-0.625000X0.400000X-0.625000X-0.400000X0*%
%ADD25C,1.800000*%
%ADD26RoundRect,0.375000X-0.375000X0.625000X-0.375000X-0.625000X0.375000X-0.625000X0.375000X0.625000X0*%
%ADD27RoundRect,0.500000X-1.400000X0.500000X-1.400000X-0.500000X1.400000X-0.500000X1.400000X0.500000X0*%
%ADD28RoundRect,0.250000X0.385000X1.350000X-0.385000X1.350000X-0.385000X-1.350000X0.385000X-1.350000X0*%
%ADD29RoundRect,0.250000X0.425000X1.600000X-0.425000X1.600000X-0.425000X-1.600000X0.425000X-1.600000X0*%
%ADD30R,1.600000X1.600000*%
%ADD31O,1.600000X1.600000*%
%ADD32R,1.200000X1.200000*%
%ADD33R,1.700000X1.700000*%
%ADD34O,1.700000X1.700000*%
%ADD35RoundRect,0.250000X1.350000X-0.385000X1.350000X0.385000X-1.350000X0.385000X-1.350000X-0.385000X0*%
%ADD36RoundRect,0.250000X1.600000X-0.425000X1.600000X0.425000X-1.600000X0.425000X-1.600000X-0.425000X0*%
%ADD37RoundRect,0.250000X0.400000X0.625000X-0.400000X0.625000X-0.400000X-0.625000X0.400000X-0.625000X0*%
%ADD38RoundRect,0.250000X0.650000X-1.500000X0.650000X1.500000X-0.650000X1.500000X-0.650000X-1.500000X0*%
G04 APERTURE END LIST*
D10*
%TO.C,C16*%
X117670000Y-69725000D03*
X117670000Y-72850000D03*
%TD*%
D11*
%TO.C,C1*%
X109290000Y-62482500D03*
X109290000Y-59357500D03*
%TD*%
D12*
%TO.C,C3*%
X106330000Y-78020000D03*
X109455000Y-78020000D03*
%TD*%
D13*
%TO.C,R3*%
X116770000Y-57575000D03*
X116770000Y-60675000D03*
%TD*%
D14*
%TO.C,U2*%
X112815000Y-75395000D03*
X112815000Y-74125000D03*
X112815000Y-72855000D03*
X112815000Y-71585000D03*
X112815000Y-70315000D03*
X112815000Y-69045000D03*
X112815000Y-67775000D03*
X112815000Y-66505000D03*
X106315000Y-66505000D03*
X106315000Y-67775000D03*
X106315000Y-69045000D03*
X106315000Y-70315000D03*
X106315000Y-71585000D03*
X106315000Y-72855000D03*
X106315000Y-74125000D03*
X106315000Y-75395000D03*
%TD*%
D10*
%TO.C,C2*%
X122170000Y-57545000D03*
X122170000Y-60670000D03*
%TD*%
D15*
%TO.C,C5*%
X97010000Y-65570000D03*
X102010000Y-65570000D03*
%TD*%
D16*
%TO.C,U6*%
X116030000Y-78575000D03*
X114760000Y-78575000D03*
X113490000Y-78575000D03*
X112220000Y-78575000D03*
X112220000Y-83725000D03*
X113490000Y-83725000D03*
X114760000Y-83725000D03*
X116030000Y-83725000D03*
%TD*%
D17*
%TO.C,H4*%
X135790000Y-120660000D03*
X136492944Y-118962944D03*
X136492944Y-122357056D03*
X138190000Y-118260000D03*
D18*
X138190000Y-120660000D03*
D17*
X138190000Y-123060000D03*
X139887056Y-118962944D03*
X139887056Y-122357056D03*
X140590000Y-120660000D03*
%TD*%
D19*
%TO.C,CC2*%
X109622500Y-91800000D03*
X106497500Y-91800000D03*
%TD*%
D20*
%TO.C,J3*%
X94920000Y-89860000D03*
X94920000Y-99860000D03*
X97420000Y-89860000D03*
X97420000Y-99860000D03*
X102420000Y-94860000D03*
D21*
X102420000Y-89860000D03*
X102420000Y-92360000D03*
D22*
X97420000Y-94860000D03*
D21*
X102420000Y-99860000D03*
X102420000Y-97360000D03*
%TD*%
D11*
%TO.C,C17*%
X130190000Y-100505000D03*
X130190000Y-97380000D03*
%TD*%
D23*
%TO.C,L1*%
X114487500Y-60700000D03*
X111512500Y-60700000D03*
%TD*%
D24*
%TO.C,R5*%
X118440000Y-79910000D03*
X118440000Y-76810000D03*
%TD*%
D25*
%TO.C,U1*%
X108406800Y-115540000D03*
X108406800Y-113000000D03*
X108406800Y-110460000D03*
X108406800Y-107920000D03*
X108406800Y-105380000D03*
X108406800Y-102840000D03*
X108406800Y-100300000D03*
%TD*%
D26*
%TO.C,U5*%
X135270000Y-88500000D03*
X132970000Y-88500000D03*
D27*
X132970000Y-94800000D03*
D26*
X130670000Y-88500000D03*
%TD*%
D15*
%TO.C,C7*%
X101920000Y-82710000D03*
X101920000Y-77710000D03*
%TD*%
D28*
%TO.C,RX1*%
X109240000Y-55732500D03*
D29*
X106415000Y-55982500D03*
X112065000Y-55982500D03*
%TD*%
D30*
%TO.C,D3*%
X104244315Y-62750000D03*
D31*
X106784315Y-62750000D03*
%TD*%
D13*
%TO.C,R6*%
X110070000Y-80470000D03*
X110070000Y-83570000D03*
%TD*%
D26*
%TO.C,U3*%
X135220000Y-76910000D03*
X132920000Y-76910000D03*
D27*
X132920000Y-83210000D03*
D26*
X130620000Y-76910000D03*
%TD*%
D10*
%TO.C,C11*%
X118470000Y-81945000D03*
X118470000Y-85070000D03*
%TD*%
D30*
%TO.C,C8*%
X134870000Y-70900000D03*
D15*
X137370000Y-70900000D03*
%TD*%
D19*
%TO.C,C12*%
X109322500Y-88400000D03*
X106197500Y-88400000D03*
%TD*%
D17*
%TO.C,H2*%
X95150000Y-57360000D03*
X95852944Y-55662944D03*
X95852944Y-59057056D03*
X97550000Y-54960000D03*
D18*
X97550000Y-57360000D03*
D17*
X97550000Y-59760000D03*
X99247056Y-55662944D03*
X99247056Y-59057056D03*
X99950000Y-57360000D03*
%TD*%
D32*
%TO.C,C15*%
X133940000Y-98770000D03*
D20*
X135940000Y-98770000D03*
%TD*%
D33*
%TO.C,J1*%
X101150000Y-107900000D03*
D34*
X101150000Y-110440000D03*
X101150000Y-112980000D03*
%TD*%
D15*
%TO.C,C6*%
X117840000Y-63900000D03*
X112840000Y-63900000D03*
%TD*%
D35*
%TO.C,TX1*%
X139750000Y-107000000D03*
D36*
X139500000Y-104175000D03*
X139500000Y-109825000D03*
%TD*%
D17*
%TO.C,H1*%
X135852944Y-57342944D03*
X136555888Y-55645888D03*
X136555888Y-59040000D03*
X138252944Y-54942944D03*
D18*
X138252944Y-57342944D03*
D17*
X138252944Y-59742944D03*
X139950000Y-55645888D03*
X139950000Y-59040000D03*
X140652944Y-57342944D03*
%TD*%
D24*
%TO.C,R4*%
X107595000Y-86150000D03*
X107595000Y-83050000D03*
%TD*%
D19*
%TO.C,CC1*%
X115625000Y-91500000D03*
X112500000Y-91500000D03*
%TD*%
D30*
%TO.C,D2*%
X106781370Y-59770000D03*
D31*
X104241370Y-59770000D03*
%TD*%
D32*
%TO.C,C13*%
X138290000Y-83190000D03*
D20*
X140290000Y-83190000D03*
%TD*%
D37*
%TO.C,R7*%
X107370000Y-80730000D03*
X104270000Y-80730000D03*
%TD*%
D24*
%TO.C,R2*%
X119360000Y-60675000D03*
X119360000Y-57575000D03*
%TD*%
D33*
%TO.C,J2*%
X130530000Y-60725000D03*
D34*
X130530000Y-58185000D03*
%TD*%
D10*
%TO.C,C14*%
X104110000Y-115527500D03*
X104110000Y-118652500D03*
%TD*%
D17*
%TO.C,H3*%
X95220000Y-120790000D03*
X95922944Y-119092944D03*
X95922944Y-122487056D03*
X97620000Y-118390000D03*
D18*
X97620000Y-120790000D03*
D17*
X97620000Y-123190000D03*
X99317056Y-119092944D03*
X99317056Y-122487056D03*
X100020000Y-120790000D03*
%TD*%
D38*
%TO.C,D1*%
X130590000Y-70880000D03*
X130590000Y-65880000D03*
%TD*%
D15*
%TO.C,C4*%
X102000000Y-74070000D03*
X102000000Y-69070000D03*
%TD*%
D13*
%TO.C,R9*%
X111520000Y-85910000D03*
X111520000Y-89010000D03*
%TD*%
%TO.C,R8*%
X114090000Y-85920000D03*
X114090000Y-89020000D03*
%TD*%
M02*
