%TF.GenerationSoftware,KiCad,Pcbnew,8.0.3-unknown-202406112021~03dd6c7a8e~ubuntu22.04.1*%
%TF.CreationDate,2024-06-13T18:15:46+05:30*%
%TF.ProjectId,SDR-Board,5344522d-426f-4617-9264-2e6b69636164,rev?*%
%TF.SameCoordinates,Original*%
%TF.FileFunction,Copper,L1,Top*%
%TF.FilePolarity,Positive*%
%FSLAX46Y46*%
G04 Gerber Fmt 4.6, Leading zero omitted, Abs format (unit mm)*
G04 Created by KiCad (PCBNEW 8.0.3-unknown-202406112021~03dd6c7a8e~ubuntu22.04.1) date 2024-06-13 18:15:46*
%MOMM*%
%LPD*%
G01*
G04 APERTURE LIST*
G04 Aperture macros list*
%AMRoundRect*
0 Rectangle with rounded corners*
0 $1 Rounding radius*
0 $2 $3 $4 $5 $6 $7 $8 $9 X,Y pos of 4 corners*
0 Add a 4 corners polygon primitive as box body*
4,1,4,$2,$3,$4,$5,$6,$7,$8,$9,$2,$3,0*
0 Add four circle primitives for the rounded corners*
1,1,$1+$1,$2,$3*
1,1,$1+$1,$4,$5*
1,1,$1+$1,$6,$7*
1,1,$1+$1,$8,$9*
0 Add four rect primitives between the rounded corners*
20,1,$1+$1,$2,$3,$4,$5,0*
20,1,$1+$1,$4,$5,$6,$7,0*
20,1,$1+$1,$6,$7,$8,$9,0*
20,1,$1+$1,$8,$9,$2,$3,0*%
G04 Aperture macros list end*
%TA.AperFunction,SMDPad,CuDef*%
%ADD10RoundRect,0.250000X-0.650000X0.412500X-0.650000X-0.412500X0.650000X-0.412500X0.650000X0.412500X0*%
%TD*%
%TA.AperFunction,SMDPad,CuDef*%
%ADD11RoundRect,0.250000X0.650000X-0.412500X0.650000X0.412500X-0.650000X0.412500X-0.650000X-0.412500X0*%
%TD*%
%TA.AperFunction,SMDPad,CuDef*%
%ADD12RoundRect,0.250000X-0.412500X-0.650000X0.412500X-0.650000X0.412500X0.650000X-0.412500X0.650000X0*%
%TD*%
%TA.AperFunction,SMDPad,CuDef*%
%ADD13RoundRect,0.250000X-0.625000X0.400000X-0.625000X-0.400000X0.625000X-0.400000X0.625000X0.400000X0*%
%TD*%
%TA.AperFunction,SMDPad,CuDef*%
%ADD14RoundRect,0.137500X0.662500X0.137500X-0.662500X0.137500X-0.662500X-0.137500X0.662500X-0.137500X0*%
%TD*%
%TA.AperFunction,ComponentPad*%
%ADD15C,1.600000*%
%TD*%
%TA.AperFunction,SMDPad,CuDef*%
%ADD16RoundRect,0.150000X-0.150000X0.725000X-0.150000X-0.725000X0.150000X-0.725000X0.150000X0.725000X0*%
%TD*%
%TA.AperFunction,ComponentPad*%
%ADD17C,0.800000*%
%TD*%
%TA.AperFunction,ComponentPad*%
%ADD18C,6.400000*%
%TD*%
%TA.AperFunction,SMDPad,CuDef*%
%ADD19RoundRect,0.250000X0.412500X0.650000X-0.412500X0.650000X-0.412500X-0.650000X0.412500X-0.650000X0*%
%TD*%
%TA.AperFunction,WasherPad*%
%ADD20C,1.200000*%
%TD*%
%TA.AperFunction,ComponentPad*%
%ADD21O,2.500000X1.800000*%
%TD*%
%TA.AperFunction,ComponentPad*%
%ADD22O,1.800000X2.500000*%
%TD*%
%TA.AperFunction,SMDPad,CuDef*%
%ADD23RoundRect,0.250001X0.462499X1.074999X-0.462499X1.074999X-0.462499X-1.074999X0.462499X-1.074999X0*%
%TD*%
%TA.AperFunction,SMDPad,CuDef*%
%ADD24RoundRect,0.250000X0.625000X-0.400000X0.625000X0.400000X-0.625000X0.400000X-0.625000X-0.400000X0*%
%TD*%
%TA.AperFunction,ComponentPad*%
%ADD25C,1.800000*%
%TD*%
%TA.AperFunction,SMDPad,CuDef*%
%ADD26RoundRect,0.375000X-0.375000X0.625000X-0.375000X-0.625000X0.375000X-0.625000X0.375000X0.625000X0*%
%TD*%
%TA.AperFunction,SMDPad,CuDef*%
%ADD27RoundRect,0.500000X-1.400000X0.500000X-1.400000X-0.500000X1.400000X-0.500000X1.400000X0.500000X0*%
%TD*%
%TA.AperFunction,SMDPad,CuDef*%
%ADD28RoundRect,0.250000X0.385000X1.350000X-0.385000X1.350000X-0.385000X-1.350000X0.385000X-1.350000X0*%
%TD*%
%TA.AperFunction,SMDPad,CuDef*%
%ADD29RoundRect,0.250000X0.425000X1.600000X-0.425000X1.600000X-0.425000X-1.600000X0.425000X-1.600000X0*%
%TD*%
%TA.AperFunction,ComponentPad*%
%ADD30R,1.600000X1.600000*%
%TD*%
%TA.AperFunction,ComponentPad*%
%ADD31O,1.600000X1.600000*%
%TD*%
%TA.AperFunction,ComponentPad*%
%ADD32R,1.200000X1.200000*%
%TD*%
%TA.AperFunction,ComponentPad*%
%ADD33C,1.200000*%
%TD*%
%TA.AperFunction,ComponentPad*%
%ADD34R,1.700000X1.700000*%
%TD*%
%TA.AperFunction,ComponentPad*%
%ADD35O,1.700000X1.700000*%
%TD*%
%TA.AperFunction,SMDPad,CuDef*%
%ADD36RoundRect,0.250000X1.350000X-0.385000X1.350000X0.385000X-1.350000X0.385000X-1.350000X-0.385000X0*%
%TD*%
%TA.AperFunction,SMDPad,CuDef*%
%ADD37RoundRect,0.250000X1.600000X-0.425000X1.600000X0.425000X-1.600000X0.425000X-1.600000X-0.425000X0*%
%TD*%
%TA.AperFunction,SMDPad,CuDef*%
%ADD38RoundRect,0.250000X0.400000X0.625000X-0.400000X0.625000X-0.400000X-0.625000X0.400000X-0.625000X0*%
%TD*%
%TA.AperFunction,SMDPad,CuDef*%
%ADD39RoundRect,0.250000X0.650000X-1.500000X0.650000X1.500000X-0.650000X1.500000X-0.650000X-1.500000X0*%
%TD*%
%TA.AperFunction,ViaPad*%
%ADD40C,0.600000*%
%TD*%
%TA.AperFunction,ViaPad*%
%ADD41C,0.800000*%
%TD*%
%TA.AperFunction,Conductor*%
%ADD42C,1.000000*%
%TD*%
%TA.AperFunction,Conductor*%
%ADD43C,0.500000*%
%TD*%
%TA.AperFunction,Conductor*%
%ADD44C,0.250000*%
%TD*%
G04 APERTURE END LIST*
D10*
%TO.P,C16,1*%
%TO.N,GND*%
X117670000Y-69725000D03*
%TO.P,C16,2*%
%TO.N,+5V*%
X117670000Y-72850000D03*
%TD*%
D11*
%TO.P,C1,1*%
%TO.N,Net-(U2-2A)*%
X109290000Y-62482500D03*
%TO.P,C1,2*%
%TO.N,Net-(D2-K)*%
X109290000Y-59357500D03*
%TD*%
D12*
%TO.P,C3,1*%
%TO.N,+5V*%
X106330000Y-78020000D03*
%TO.P,C3,2*%
%TO.N,GND*%
X109455000Y-78020000D03*
%TD*%
D13*
%TO.P,R3,1*%
%TO.N,Net-(C2-Pad1)*%
X116770000Y-57575000D03*
%TO.P,R3,2*%
%TO.N,GND*%
X116770000Y-60675000D03*
%TD*%
D14*
%TO.P,U2,1,1~{OE}*%
%TO.N,GND*%
X112815000Y-75395000D03*
%TO.P,U2,2,S1*%
%TO.N,Net-(U1-S1)*%
X112815000Y-74125000D03*
%TO.P,U2,3,1B4*%
%TO.N,unconnected-(U2-1B4-Pad3)*%
X112815000Y-72855000D03*
%TO.P,U2,4,1B3*%
%TO.N,unconnected-(U2-1B3-Pad4)*%
X112815000Y-71585000D03*
%TO.P,U2,5,1B2*%
%TO.N,unconnected-(U2-1B2-Pad5)*%
X112815000Y-70315000D03*
%TO.P,U2,6,1B1*%
%TO.N,unconnected-(U2-1B1-Pad6)*%
X112815000Y-69045000D03*
%TO.P,U2,7,1A*%
%TO.N,unconnected-(U2-1A-Pad7)*%
X112815000Y-67775000D03*
%TO.P,U2,8,GND*%
%TO.N,GND*%
X112815000Y-66505000D03*
%TO.P,U2,9,2A*%
%TO.N,Net-(U2-2A)*%
X106315000Y-66505000D03*
%TO.P,U2,10,2B1*%
%TO.N,Net-(U2-2B1)*%
X106315000Y-67775000D03*
%TO.P,U2,11,2B2*%
%TO.N,Net-(U2-2B2)*%
X106315000Y-69045000D03*
%TO.P,U2,12,2B3*%
%TO.N,Net-(U2-2B3)*%
X106315000Y-70315000D03*
%TO.P,U2,13,2B4*%
%TO.N,Net-(U2-2B4)*%
X106315000Y-71585000D03*
%TO.P,U2,14,S0*%
%TO.N,Net-(U1-SO)*%
X106315000Y-72855000D03*
%TO.P,U2,15,2~{OE}*%
%TO.N,GND*%
X106315000Y-74125000D03*
%TO.P,U2,16,VCC*%
%TO.N,+5V*%
X106315000Y-75395000D03*
%TD*%
D10*
%TO.P,C2,1*%
%TO.N,Net-(C2-Pad1)*%
X122170000Y-57545000D03*
%TO.P,C2,2*%
%TO.N,GND*%
X122170000Y-60670000D03*
%TD*%
D15*
%TO.P,C5,1*%
%TO.N,GND*%
X97010000Y-65570000D03*
%TO.P,C5,2*%
%TO.N,Net-(U2-2B1)*%
X102010000Y-65570000D03*
%TD*%
D16*
%TO.P,U6,1*%
%TO.N,RX_Q*%
X116030000Y-78575000D03*
%TO.P,U6,2,-*%
%TO.N,Net-(U6A--)*%
X114760000Y-78575000D03*
%TO.P,U6,3,+*%
%TO.N,Net-(U6A-+)*%
X113490000Y-78575000D03*
%TO.P,U6,4,V-*%
%TO.N,GND*%
X112220000Y-78575000D03*
%TO.P,U6,5,+*%
%TO.N,Net-(U6B-+)*%
X112220000Y-83725000D03*
%TO.P,U6,6,-*%
%TO.N,Net-(U6B--)*%
X113490000Y-83725000D03*
%TO.P,U6,7*%
%TO.N,RX_I*%
X114760000Y-83725000D03*
%TO.P,U6,8,V+*%
%TO.N,+5V*%
X116030000Y-83725000D03*
%TD*%
D17*
%TO.P,H4,1,1*%
%TO.N,GND*%
X135790000Y-120660000D03*
X136492944Y-118962944D03*
X136492944Y-122357056D03*
X138190000Y-118260000D03*
D18*
X138190000Y-120660000D03*
D17*
X138190000Y-123060000D03*
X139887056Y-118962944D03*
X139887056Y-122357056D03*
X140590000Y-120660000D03*
%TD*%
D19*
%TO.P,CC2,1*%
%TO.N,RX_Q*%
X109622500Y-91800000D03*
%TO.P,CC2,2*%
%TO.N,Net-(CC2-Pad2)*%
X106497500Y-91800000D03*
%TD*%
D20*
%TO.P,J3,*%
%TO.N,*%
X94920000Y-89860000D03*
X94920000Y-99860000D03*
X97420000Y-89860000D03*
X97420000Y-99860000D03*
X102420000Y-94860000D03*
D21*
%TO.P,J3,R*%
%TO.N,Net-(CC2-Pad2)*%
X102420000Y-89860000D03*
%TO.P,J3,RN*%
%TO.N,unconnected-(J3-PadRN)*%
X102420000Y-92360000D03*
D22*
%TO.P,J3,S*%
%TO.N,GND*%
X97420000Y-94860000D03*
D21*
%TO.P,J3,T*%
%TO.N,Net-(CC1-Pad1)*%
X102420000Y-99860000D03*
%TO.P,J3,TN*%
%TO.N,unconnected-(J3-PadTN)*%
X102420000Y-97360000D03*
%TD*%
D11*
%TO.P,C17,1*%
%TO.N,GND*%
X130190000Y-100505000D03*
%TO.P,C17,2*%
%TO.N,+3.3V*%
X130190000Y-97380000D03*
%TD*%
D23*
%TO.P,L1,1*%
%TO.N,Net-(C2-Pad1)*%
X114487500Y-60700000D03*
%TO.P,L1,2*%
%TO.N,Net-(U2-2A)*%
X111512500Y-60700000D03*
%TD*%
D24*
%TO.P,R5,1*%
%TO.N,Net-(U6B-+)*%
X118440000Y-79910000D03*
%TO.P,R5,2*%
%TO.N,Net-(U2-2B3)*%
X118440000Y-76810000D03*
%TD*%
D25*
%TO.P,U1,1,VIN*%
%TO.N,+3.3V*%
X108406800Y-115540000D03*
%TO.P,U1,2,GND*%
%TO.N,GND*%
X108406800Y-113000000D03*
%TO.P,U1,3,SDA*%
%TO.N,Net-(J1-Pin_2)*%
X108406800Y-110460000D03*
%TO.P,U1,4,SCL*%
%TO.N,Net-(J1-Pin_1)*%
X108406800Y-107920000D03*
%TO.P,U1,5,S2*%
%TO.N,Net-(TX1-In)*%
X108406800Y-105380000D03*
%TO.P,U1,6,S1*%
%TO.N,Net-(U1-S1)*%
X108406800Y-102840000D03*
%TO.P,U1,7,SO*%
%TO.N,Net-(U1-SO)*%
X108406800Y-100300000D03*
%TD*%
D26*
%TO.P,U5,1,GND*%
%TO.N,GND*%
X135270000Y-88500000D03*
%TO.P,U5,2,VO*%
%TO.N,+3.3V*%
X132970000Y-88500000D03*
D27*
X132970000Y-94800000D03*
D26*
%TO.P,U5,3,VI*%
%TO.N,+5V*%
X130670000Y-88500000D03*
%TD*%
D15*
%TO.P,C7,1*%
%TO.N,GND*%
X101920000Y-82710000D03*
%TO.P,C7,2*%
%TO.N,Net-(U2-2B4)*%
X101920000Y-77710000D03*
%TD*%
D28*
%TO.P,RX1,1,In*%
%TO.N,Net-(D2-K)*%
X109240000Y-55732500D03*
D29*
%TO.P,RX1,2,Ext*%
%TO.N,GND*%
X106415000Y-55982500D03*
X112065000Y-55982500D03*
%TD*%
D30*
%TO.P,D3,1,K*%
%TO.N,GND*%
X104244315Y-62750000D03*
D31*
%TO.P,D3,2,A*%
%TO.N,Net-(D2-K)*%
X106784315Y-62750000D03*
%TD*%
D13*
%TO.P,R6,1*%
%TO.N,Net-(U6A--)*%
X110070000Y-80470000D03*
%TO.P,R6,2*%
%TO.N,Net-(U2-2B1)*%
X110070000Y-83570000D03*
%TD*%
D26*
%TO.P,U3,1,GND*%
%TO.N,GND*%
X135220000Y-76910000D03*
%TO.P,U3,2,VO*%
%TO.N,+5V*%
X132920000Y-76910000D03*
D27*
X132920000Y-83210000D03*
D26*
%TO.P,U3,3,VI*%
%TO.N,+12V*%
X130620000Y-76910000D03*
%TD*%
D10*
%TO.P,C11,1*%
%TO.N,Net-(U6B--)*%
X118470000Y-81945000D03*
%TO.P,C11,2*%
%TO.N,RX_I*%
X118470000Y-85070000D03*
%TD*%
D30*
%TO.P,C8,1*%
%TO.N,+12V*%
X134870000Y-70900000D03*
D15*
%TO.P,C8,2*%
%TO.N,GND*%
X137370000Y-70900000D03*
%TD*%
D19*
%TO.P,C12,1*%
%TO.N,Net-(U6A--)*%
X109322500Y-88400000D03*
%TO.P,C12,2*%
%TO.N,RX_Q*%
X106197500Y-88400000D03*
%TD*%
D17*
%TO.P,H2,1,1*%
%TO.N,GND*%
X95150000Y-57360000D03*
X95852944Y-55662944D03*
X95852944Y-59057056D03*
X97550000Y-54960000D03*
D18*
X97550000Y-57360000D03*
D17*
X97550000Y-59760000D03*
X99247056Y-55662944D03*
X99247056Y-59057056D03*
X99950000Y-57360000D03*
%TD*%
D32*
%TO.P,C15,1*%
%TO.N,+3.3V*%
X133940000Y-98770000D03*
D33*
%TO.P,C15,2*%
%TO.N,GND*%
X135940000Y-98770000D03*
%TD*%
D34*
%TO.P,J1,1,Pin_1*%
%TO.N,Net-(J1-Pin_1)*%
X101150000Y-107900000D03*
D35*
%TO.P,J1,2,Pin_2*%
%TO.N,Net-(J1-Pin_2)*%
X101150000Y-110440000D03*
%TO.P,J1,3,Pin_3*%
%TO.N,GND*%
X101150000Y-112980000D03*
%TD*%
D15*
%TO.P,C6,1*%
%TO.N,GND*%
X117840000Y-63900000D03*
%TO.P,C6,2*%
%TO.N,Net-(U2-2B3)*%
X112840000Y-63900000D03*
%TD*%
D36*
%TO.P,TX1,1,In*%
%TO.N,Net-(TX1-In)*%
X139750000Y-107000000D03*
D37*
%TO.P,TX1,2,Ext*%
%TO.N,GND*%
X139500000Y-104175000D03*
X139500000Y-109825000D03*
%TD*%
D17*
%TO.P,H1,1,1*%
%TO.N,GND*%
X135852944Y-57342944D03*
X136555888Y-55645888D03*
X136555888Y-59040000D03*
X138252944Y-54942944D03*
D18*
X138252944Y-57342944D03*
D17*
X138252944Y-59742944D03*
X139950000Y-55645888D03*
X139950000Y-59040000D03*
X140652944Y-57342944D03*
%TD*%
D24*
%TO.P,R4,1*%
%TO.N,Net-(U6B--)*%
X107595000Y-86150000D03*
%TO.P,R4,2*%
%TO.N,Net-(U2-2B2)*%
X107595000Y-83050000D03*
%TD*%
D19*
%TO.P,CC1,1*%
%TO.N,Net-(CC1-Pad1)*%
X115625000Y-91500000D03*
%TO.P,CC1,2*%
%TO.N,RX_I*%
X112500000Y-91500000D03*
%TD*%
D30*
%TO.P,D2,1,K*%
%TO.N,Net-(D2-K)*%
X106781370Y-59770000D03*
D31*
%TO.P,D2,2,A*%
%TO.N,GND*%
X104241370Y-59770000D03*
%TD*%
D32*
%TO.P,C13,1*%
%TO.N,+5V*%
X138290000Y-83190000D03*
D33*
%TO.P,C13,2*%
%TO.N,GND*%
X140290000Y-83190000D03*
%TD*%
D38*
%TO.P,R7,1*%
%TO.N,Net-(U6A-+)*%
X107370000Y-80730000D03*
%TO.P,R7,2*%
%TO.N,Net-(U2-2B4)*%
X104270000Y-80730000D03*
%TD*%
D24*
%TO.P,R2,1*%
%TO.N,+5V*%
X119360000Y-60675000D03*
%TO.P,R2,2*%
%TO.N,Net-(C2-Pad1)*%
X119360000Y-57575000D03*
%TD*%
D34*
%TO.P,J2,1,Pin_1*%
%TO.N,Net-(D1-A)*%
X130530000Y-60725000D03*
D35*
%TO.P,J2,2,Pin_2*%
%TO.N,GND*%
X130530000Y-58185000D03*
%TD*%
D10*
%TO.P,C14,1*%
%TO.N,+3.3V*%
X104110000Y-115527500D03*
%TO.P,C14,2*%
%TO.N,GND*%
X104110000Y-118652500D03*
%TD*%
D17*
%TO.P,H3,1,1*%
%TO.N,GND*%
X95220000Y-120790000D03*
X95922944Y-119092944D03*
X95922944Y-122487056D03*
X97620000Y-118390000D03*
D18*
X97620000Y-120790000D03*
D17*
X97620000Y-123190000D03*
X99317056Y-119092944D03*
X99317056Y-122487056D03*
X100020000Y-120790000D03*
%TD*%
D39*
%TO.P,D1,1,K*%
%TO.N,+12V*%
X130590000Y-70880000D03*
%TO.P,D1,2,A*%
%TO.N,Net-(D1-A)*%
X130590000Y-65880000D03*
%TD*%
D15*
%TO.P,C4,1*%
%TO.N,GND*%
X102000000Y-74070000D03*
%TO.P,C4,2*%
%TO.N,Net-(U2-2B2)*%
X102000000Y-69070000D03*
%TD*%
D13*
%TO.P,R9,1*%
%TO.N,Net-(U6A--)*%
X111520000Y-85910000D03*
%TO.P,R9,2*%
%TO.N,RX_Q*%
X111520000Y-89010000D03*
%TD*%
%TO.P,R8,1*%
%TO.N,Net-(U6B--)*%
X114090000Y-85920000D03*
%TO.P,R8,2*%
%TO.N,RX_I*%
X114090000Y-89020000D03*
%TD*%
D40*
%TO.N,+5V*%
X116050000Y-84130000D03*
X106670000Y-75370000D03*
X117670000Y-72900000D03*
X116030000Y-83400000D03*
X105940000Y-75390000D03*
%TO.N,RX_Q*%
X116070000Y-78730000D03*
X116070000Y-78100000D03*
X111560000Y-89030000D03*
%TO.N,Net-(U6B--)*%
X113790000Y-86160000D03*
X114410000Y-85690000D03*
X107630000Y-86220000D03*
%TO.N,GND*%
X110000000Y-121500000D03*
X117500000Y-99000000D03*
X97000000Y-109500000D03*
X126000000Y-90000000D03*
X96500000Y-77000000D03*
X121000000Y-109500000D03*
X127000000Y-74000000D03*
X137500000Y-62000000D03*
X126500000Y-59500000D03*
X102000000Y-102500000D03*
X127500000Y-87000000D03*
X119000000Y-87000000D03*
X95500000Y-102000000D03*
X95500000Y-112500000D03*
X110000000Y-118500000D03*
X110000000Y-120000000D03*
X120500000Y-90000000D03*
X139500000Y-97500000D03*
X124500000Y-91500000D03*
X125500000Y-62000000D03*
X98500000Y-106500000D03*
X116000000Y-118500000D03*
X96500000Y-78500000D03*
X119000000Y-97500000D03*
X113000000Y-120000000D03*
X100500000Y-105500000D03*
X127000000Y-69500000D03*
X127000000Y-66500000D03*
X105000000Y-105500000D03*
X95000000Y-78500000D03*
X141000000Y-102000000D03*
X124000000Y-65000000D03*
X98500000Y-102000000D03*
X113000000Y-118500000D03*
X126500000Y-56500000D03*
X127000000Y-80000000D03*
X97000000Y-108000000D03*
X140500000Y-88500000D03*
X120500000Y-88500000D03*
X116000000Y-121500000D03*
X96500000Y-80000000D03*
X118000000Y-106500000D03*
X96500000Y-74000000D03*
D41*
X109115000Y-74140000D03*
D40*
X139000000Y-88500000D03*
X139500000Y-99000000D03*
X136500000Y-112000000D03*
X124000000Y-121500000D03*
X124000000Y-108000000D03*
X119000000Y-99000000D03*
X117500000Y-88500000D03*
X127000000Y-121500000D03*
X139000000Y-65000000D03*
X105000000Y-102500000D03*
X97000000Y-102000000D03*
X98000000Y-80000000D03*
X137500000Y-65000000D03*
X139500000Y-112000000D03*
X97000000Y-103500000D03*
X124500000Y-88500000D03*
X118000000Y-109500000D03*
X95500000Y-103500000D03*
X102000000Y-104000000D03*
X119000000Y-94500000D03*
X121000000Y-120000000D03*
X100000000Y-62000000D03*
X138500000Y-75500000D03*
X119500000Y-120000000D03*
X119500000Y-118500000D03*
X122500000Y-108000000D03*
X102000000Y-105500000D03*
X95000000Y-72500000D03*
X97000000Y-105000000D03*
X139000000Y-66500000D03*
X127000000Y-71000000D03*
X126000000Y-91500000D03*
X119050000Y-75350000D03*
X119000000Y-91500000D03*
X126000000Y-87000000D03*
X127500000Y-91500000D03*
X139500000Y-100500000D03*
X136000000Y-62000000D03*
X138000000Y-113500000D03*
X113000000Y-121500000D03*
X122500000Y-106500000D03*
X116500000Y-108000000D03*
X119500000Y-121500000D03*
X124000000Y-120000000D03*
X116000000Y-120000000D03*
X95500000Y-111000000D03*
X112270000Y-78070000D03*
X120500000Y-96000000D03*
X117500000Y-94500000D03*
X98000000Y-78500000D03*
X139500000Y-113500000D03*
X119000000Y-90000000D03*
X98500000Y-103500000D03*
X131500000Y-120000000D03*
X137500000Y-66500000D03*
X141000000Y-71500000D03*
X124000000Y-118500000D03*
X125500000Y-120000000D03*
X124500000Y-100500000D03*
X95500000Y-106500000D03*
X98000000Y-71000000D03*
X125500000Y-118500000D03*
X96500000Y-71000000D03*
X119500000Y-106500000D03*
X122500000Y-109500000D03*
X138000000Y-102000000D03*
X98500000Y-111000000D03*
X140000000Y-78500000D03*
X138500000Y-77000000D03*
X119500000Y-108000000D03*
X127000000Y-78500000D03*
X103500000Y-105500000D03*
X121000000Y-121500000D03*
X127000000Y-118500000D03*
X140500000Y-91500000D03*
X126000000Y-97500000D03*
X117500000Y-121500000D03*
X112270000Y-78880000D03*
X127000000Y-120000000D03*
X131500000Y-121500000D03*
X95500000Y-114000000D03*
X117500000Y-97500000D03*
X111500000Y-120000000D03*
X97000000Y-114000000D03*
X125500000Y-66500000D03*
X127000000Y-68000000D03*
X120500000Y-94500000D03*
X138000000Y-112000000D03*
X124000000Y-71000000D03*
X95000000Y-77000000D03*
X127000000Y-63500000D03*
X96500000Y-72500000D03*
X95500000Y-108000000D03*
X124000000Y-63500000D03*
X127000000Y-81500000D03*
X125000000Y-58000000D03*
X139000000Y-91500000D03*
X138000000Y-97500000D03*
X128500000Y-120000000D03*
X122500000Y-118500000D03*
X111500000Y-118500000D03*
X139000000Y-63500000D03*
X115000000Y-109500000D03*
X141000000Y-70000000D03*
X124000000Y-62000000D03*
X98000000Y-72500000D03*
X97000000Y-62000000D03*
X122500000Y-121500000D03*
X117610000Y-67680000D03*
X120500000Y-87000000D03*
X139000000Y-62000000D03*
X141000000Y-67000000D03*
X125000000Y-59500000D03*
X95000000Y-71000000D03*
X121000000Y-106500000D03*
X108500000Y-118500000D03*
X136000000Y-66500000D03*
X141000000Y-74500000D03*
X114500000Y-120000000D03*
X98500000Y-109500000D03*
X98500000Y-112500000D03*
X100500000Y-104000000D03*
X114500000Y-121500000D03*
X98500000Y-114000000D03*
X103500000Y-102500000D03*
X95000000Y-80000000D03*
X119500000Y-109500000D03*
X122500000Y-120000000D03*
X95500000Y-105000000D03*
X130000000Y-120000000D03*
X136500000Y-113500000D03*
X137500000Y-63500000D03*
X120500000Y-97500000D03*
X120500000Y-91500000D03*
X97000000Y-111000000D03*
X124000000Y-66500000D03*
X130000000Y-121500000D03*
X117500000Y-87000000D03*
X98500000Y-62000000D03*
X125500000Y-69500000D03*
X103500000Y-104000000D03*
X105000000Y-104000000D03*
X127500000Y-88500000D03*
X127500000Y-90000000D03*
X119700000Y-75370000D03*
X95000000Y-75500000D03*
X115000000Y-108000000D03*
X139500000Y-102000000D03*
X139000000Y-90000000D03*
X138000000Y-100500000D03*
X140000000Y-77000000D03*
X140000000Y-75500000D03*
X136000000Y-63500000D03*
X95500000Y-109500000D03*
X109520000Y-78330000D03*
X98500000Y-108000000D03*
X141000000Y-68500000D03*
X118000000Y-108000000D03*
X97000000Y-63500000D03*
X130000000Y-118500000D03*
X108500000Y-120000000D03*
X125500000Y-63500000D03*
X127000000Y-77000000D03*
X125000000Y-56500000D03*
X141000000Y-73000000D03*
X119000000Y-88500000D03*
X125500000Y-68000000D03*
X98500000Y-63500000D03*
X97000000Y-106500000D03*
X108500000Y-121500000D03*
X117500000Y-120000000D03*
X121000000Y-118500000D03*
X116500000Y-109500000D03*
X138000000Y-99000000D03*
X124000000Y-106500000D03*
X124000000Y-69500000D03*
X121000000Y-108000000D03*
X136000000Y-65000000D03*
X138500000Y-78500000D03*
X117500000Y-118500000D03*
X96500000Y-75500000D03*
X116500000Y-106500000D03*
X98000000Y-75500000D03*
X117500000Y-96000000D03*
X141000000Y-65500000D03*
X141000000Y-99000000D03*
X95000000Y-74000000D03*
X124000000Y-68000000D03*
X128500000Y-121500000D03*
X125500000Y-71000000D03*
X126000000Y-88500000D03*
X111500000Y-121500000D03*
X127000000Y-75500000D03*
X97000000Y-112500000D03*
X128500000Y-118500000D03*
X126500000Y-58000000D03*
X98000000Y-77000000D03*
X100000000Y-63500000D03*
X125500000Y-121500000D03*
X124500000Y-99000000D03*
X141000000Y-100500000D03*
X124500000Y-87000000D03*
X124500000Y-97500000D03*
X127000000Y-65000000D03*
X119000000Y-96000000D03*
X131500000Y-118500000D03*
X114500000Y-118500000D03*
X100500000Y-102500000D03*
X125500000Y-65000000D03*
X124000000Y-109500000D03*
X120500000Y-99000000D03*
X109480000Y-77580000D03*
X98000000Y-74000000D03*
X141000000Y-97500000D03*
X127000000Y-72500000D03*
X126000000Y-99000000D03*
X98500000Y-105000000D03*
X127000000Y-62000000D03*
X126000000Y-100500000D03*
X124500000Y-90000000D03*
X140500000Y-90000000D03*
X115000000Y-106500000D03*
%TO.N,Net-(U1-SO)*%
X106080000Y-72850000D03*
X106780000Y-72830000D03*
%TD*%
D42*
%TO.N,Net-(D2-K)*%
X106781370Y-59770000D02*
X106781370Y-62747055D01*
X107193870Y-59357500D02*
X106781370Y-59770000D01*
X109290000Y-59357500D02*
X107193870Y-59357500D01*
X109290000Y-59357500D02*
X109290000Y-55782500D01*
D43*
%TO.N,+12V*%
X130590000Y-70880000D02*
X134850000Y-70880000D01*
D42*
X130620000Y-76910000D02*
X130620000Y-70910000D01*
%TO.N,+5V*%
X130790000Y-83210000D02*
X132920000Y-83210000D01*
X132920000Y-83210000D02*
X132920000Y-76910000D01*
D43*
X119360000Y-71160000D02*
X117670000Y-72850000D01*
D42*
X130670000Y-88500000D02*
X130670000Y-83330000D01*
D43*
X119360000Y-60675000D02*
X119360000Y-71160000D01*
D42*
X132920000Y-83210000D02*
X138270000Y-83210000D01*
X130670000Y-83330000D02*
X130790000Y-83210000D01*
D43*
X106330000Y-78020000D02*
X106330000Y-75410000D01*
%TO.N,RX_I*%
X114090000Y-89910000D02*
X112500000Y-91500000D01*
X115190000Y-89050000D02*
X114090000Y-89050000D01*
X114090000Y-89020000D02*
X114090000Y-89910000D01*
X115588658Y-85011342D02*
X115647316Y-85070000D01*
X114760000Y-84182684D02*
X115588658Y-85011342D01*
X115588658Y-85011342D02*
X115588658Y-88651342D01*
X115588658Y-88651342D02*
X115190000Y-89050000D01*
X115647316Y-85070000D02*
X118470000Y-85070000D01*
%TO.N,RX_Q*%
X106197500Y-89617500D02*
X106470000Y-89890000D01*
X109610000Y-89890000D02*
X110640000Y-89890000D01*
X110640000Y-89890000D02*
X111500000Y-89030000D01*
X109622500Y-91800000D02*
X109622500Y-89902500D01*
X109622500Y-89902500D02*
X109610000Y-89890000D01*
X106197500Y-88400000D02*
X106197500Y-89617500D01*
X106470000Y-89890000D02*
X109610000Y-89890000D01*
%TO.N,Net-(U6B--)*%
X113490000Y-82180000D02*
X113725000Y-81945000D01*
X113490000Y-85350000D02*
X114090000Y-85950000D01*
X113490000Y-83725000D02*
X113490000Y-82180000D01*
X113490000Y-83725000D02*
X113490000Y-85350000D01*
X113725000Y-81945000D02*
X118470000Y-81945000D01*
%TO.N,Net-(U6A--)*%
X111470000Y-80720000D02*
X111720000Y-80470000D01*
X109560000Y-85910000D02*
X109322500Y-86147500D01*
X111720000Y-80470000D02*
X113322684Y-80470000D01*
X109322500Y-88400000D02*
X109322500Y-86147500D01*
X110070000Y-80470000D02*
X111720000Y-80470000D01*
X113322684Y-80470000D02*
X114760000Y-79032684D01*
X111520000Y-85910000D02*
X109560000Y-85910000D01*
X111470000Y-85860000D02*
X111470000Y-80720000D01*
%TO.N,Net-(U6B-+)*%
X112220000Y-81720000D02*
X112770000Y-81170000D01*
X117180000Y-81170000D02*
X118440000Y-79910000D01*
X112770000Y-81170000D02*
X117180000Y-81170000D01*
X112220000Y-83725000D02*
X112220000Y-81720000D01*
%TO.N,Net-(U6A-+)*%
X111470000Y-77597316D02*
X111817316Y-77250000D01*
X113270000Y-77250000D02*
X113490000Y-77470000D01*
X107370000Y-80730000D02*
X107370000Y-79810000D01*
X107370000Y-79810000D02*
X107810000Y-79370000D01*
X111817316Y-77250000D02*
X113270000Y-77250000D01*
X111470000Y-79250000D02*
X111470000Y-77597316D01*
X111350000Y-79370000D02*
X111470000Y-79250000D01*
X113490000Y-77470000D02*
X113490000Y-78575000D01*
X107810000Y-79370000D02*
X111350000Y-79370000D01*
%TO.N,Net-(U2-2A)*%
X109290000Y-60980000D02*
X109570000Y-60700000D01*
X109290000Y-62482500D02*
X109290000Y-60980000D01*
X106315000Y-66505000D02*
X108245000Y-66505000D01*
X108560000Y-66190000D02*
X108560000Y-63212500D01*
X108560000Y-63212500D02*
X109290000Y-62482500D01*
X109570000Y-60700000D02*
X111512500Y-60700000D01*
X108245000Y-66505000D02*
X108560000Y-66190000D01*
D42*
%TO.N,Net-(C2-Pad1)*%
X114935000Y-57545000D02*
X122170000Y-57545000D01*
X114487500Y-57992500D02*
X114935000Y-57545000D01*
D43*
X116770000Y-57575000D02*
X122140000Y-57575000D01*
D42*
X114487500Y-60700000D02*
X114487500Y-57992500D01*
D43*
%TO.N,GND*%
X106315000Y-74125000D02*
X109100000Y-74125000D01*
D42*
X108406800Y-113000000D02*
X101170000Y-113000000D01*
D43*
X109100000Y-74125000D02*
X109115000Y-74140000D01*
X109455000Y-74480000D02*
X109115000Y-74140000D01*
D44*
X109180000Y-74205000D02*
X109115000Y-74140000D01*
D43*
X112815000Y-75395000D02*
X119765000Y-75395000D01*
X109455000Y-77555000D02*
X109455000Y-74480000D01*
%TO.N,Net-(U2-2B2)*%
X99960000Y-83940000D02*
X99960000Y-69210000D01*
X100100000Y-69070000D02*
X102000000Y-69070000D01*
X100260000Y-84240000D02*
X99960000Y-83940000D01*
X107595000Y-83050000D02*
X107595000Y-84015000D01*
X107400000Y-84240000D02*
X100260000Y-84240000D01*
X107595000Y-84015000D02*
X107610000Y-84030000D01*
X102000000Y-69070000D02*
X106290000Y-69070000D01*
X99960000Y-69210000D02*
X100100000Y-69070000D01*
X107610000Y-84030000D02*
X107400000Y-84240000D01*
%TO.N,Net-(U2-2B1)*%
X103360000Y-67775000D02*
X106315000Y-67775000D01*
X106315000Y-67775000D02*
X99305000Y-67775000D01*
X101970000Y-67775000D02*
X103360000Y-67775000D01*
X102010000Y-65570000D02*
X102010000Y-67735000D01*
X100085000Y-67775000D02*
X100080000Y-67780000D01*
X99170000Y-85040000D02*
X109669999Y-85040000D01*
X102010000Y-67735000D02*
X101970000Y-67775000D01*
X109669999Y-85040000D02*
X109939999Y-84770000D01*
X99305000Y-67775000D02*
X99170000Y-67910000D01*
X101970000Y-67775000D02*
X100085000Y-67775000D01*
X109939999Y-84770000D02*
X109939999Y-83570000D01*
X99170000Y-67910000D02*
X99170000Y-85040000D01*
%TO.N,Net-(U2-2B3)*%
X112840000Y-63900000D02*
X111340000Y-63900000D01*
X111200000Y-64040000D02*
X111340000Y-63900000D01*
X111200000Y-76460000D02*
X111200000Y-70320000D01*
X111195000Y-70315000D02*
X111200000Y-70320000D01*
X106315000Y-70315000D02*
X111195000Y-70315000D01*
X111200000Y-76460000D02*
X118090000Y-76460000D01*
X111200000Y-70320000D02*
X111200000Y-64040000D01*
%TO.N,Net-(U2-2B4)*%
X104300000Y-78890000D02*
X104300000Y-76750000D01*
X104300000Y-77560000D02*
X104150000Y-77710000D01*
X104565000Y-71585000D02*
X104300000Y-71850000D01*
D42*
X104270000Y-80730000D02*
X104270000Y-78920000D01*
D43*
X104300000Y-76750000D02*
X104300000Y-77560000D01*
X106315000Y-71585000D02*
X104565000Y-71585000D01*
X104300000Y-71850000D02*
X104300000Y-76750000D01*
X104150000Y-77710000D02*
X101920000Y-77710000D01*
D42*
%TO.N,+3.3V*%
X133940000Y-98770000D02*
X133270000Y-98770000D01*
X132970000Y-94800000D02*
X130700000Y-94800000D01*
X132970000Y-88500000D02*
X132970000Y-94800000D01*
X104110000Y-115527500D02*
X108394300Y-115527500D01*
X133270000Y-98770000D02*
X133000000Y-98500000D01*
X133000000Y-97500000D02*
X132970000Y-97470000D01*
X130190000Y-95310000D02*
X130700000Y-94800000D01*
D43*
X130700000Y-94800000D02*
X130610000Y-94800000D01*
D42*
X132970000Y-97470000D02*
X132970000Y-94800000D01*
X130190000Y-97380000D02*
X130190000Y-95310000D01*
X133000000Y-98500000D02*
X133000000Y-97500000D01*
%TO.N,Net-(D1-A)*%
X130530000Y-60725000D02*
X130530000Y-65820000D01*
%TO.N,Net-(J1-Pin_2)*%
X101150000Y-110440000D02*
X108386800Y-110440000D01*
%TO.N,Net-(J1-Pin_1)*%
X101150000Y-107900000D02*
X108386800Y-107900000D01*
%TO.N,Net-(TX1-In)*%
X108406800Y-105380000D02*
X134380000Y-105380000D01*
X134380000Y-105380000D02*
X136000000Y-107000000D01*
X136000000Y-107000000D02*
X139750000Y-107000000D01*
%TO.N,Net-(U1-S1)*%
X108406800Y-102840000D02*
X122430000Y-102840000D01*
X122430000Y-74555000D02*
X122000000Y-74125000D01*
D43*
X119500000Y-74125000D02*
X112815000Y-74125000D01*
D42*
X122430000Y-102840000D02*
X122430000Y-74555000D01*
X122000000Y-74125000D02*
X119500000Y-74125000D01*
%TO.N,Net-(CC1-Pad1)*%
X107780000Y-97850000D02*
X115625000Y-97850000D01*
X102420000Y-99860000D02*
X105770000Y-99860000D01*
X115625000Y-97850000D02*
X115625000Y-91500000D01*
X105770000Y-99860000D02*
X107780000Y-97850000D01*
%TO.N,Net-(CC2-Pad2)*%
X104557500Y-89860000D02*
X106497500Y-91800000D01*
X102420000Y-89860000D02*
X104557500Y-89860000D01*
%TD*%
%TA.AperFunction,Conductor*%
%TO.N,+12V*%
G36*
X134076762Y-70106754D02*
G01*
X134600662Y-70630000D01*
X134862659Y-70891669D01*
X134866091Y-70899940D01*
X134862669Y-70908215D01*
X134862607Y-70908277D01*
X134076940Y-71683210D01*
X134068644Y-71686580D01*
X134062014Y-71684465D01*
X133274990Y-71133493D01*
X133270178Y-71125941D01*
X133270000Y-71123908D01*
X133270000Y-70636283D01*
X133273427Y-70628010D01*
X133275232Y-70626533D01*
X134062033Y-70105277D01*
X134070822Y-70103566D01*
X134076762Y-70106754D01*
G37*
%TD.AperFunction*%
%TD*%
%TA.AperFunction,Conductor*%
%TO.N,Net-(U1-S1)*%
G36*
X119307677Y-73666860D02*
G01*
X119312573Y-73672463D01*
X119499127Y-74120503D01*
X119499144Y-74129457D01*
X119499127Y-74129497D01*
X119312573Y-74577536D01*
X119306229Y-74583857D01*
X119298806Y-74584357D01*
X118508734Y-74377289D01*
X118501600Y-74371876D01*
X118500000Y-74365971D01*
X118500000Y-73884028D01*
X118503427Y-73875755D01*
X118508731Y-73872711D01*
X119298806Y-73665642D01*
X119307677Y-73666860D01*
G37*
%TD.AperFunction*%
%TD*%
%TA.AperFunction,Conductor*%
%TO.N,+3.3V*%
G36*
X132978269Y-94807277D02*
G01*
X132978277Y-94807285D01*
X133964042Y-95794037D01*
X133967465Y-95802312D01*
X133966230Y-95807538D01*
X133473234Y-96793532D01*
X133466469Y-96799400D01*
X133462769Y-96800000D01*
X132477231Y-96800000D01*
X132468958Y-96796573D01*
X132466766Y-96793532D01*
X131973769Y-95807538D01*
X131973134Y-95798606D01*
X131975957Y-95794037D01*
X132961723Y-94807285D01*
X132969994Y-94803854D01*
X132978269Y-94807277D01*
G37*
%TD.AperFunction*%
%TD*%
%TA.AperFunction,Conductor*%
%TO.N,+5V*%
G36*
X117895585Y-72287004D02*
G01*
X118233899Y-72625318D01*
X118237326Y-72633591D01*
X118234993Y-72640601D01*
X117890196Y-73101355D01*
X117882496Y-73105926D01*
X117873819Y-73103712D01*
X117872583Y-73102646D01*
X117669293Y-72900707D01*
X117669238Y-72900652D01*
X117466291Y-72696347D01*
X117462892Y-72688062D01*
X117466346Y-72679800D01*
X117466434Y-72679714D01*
X117879246Y-72286801D01*
X117887601Y-72283581D01*
X117895585Y-72287004D01*
G37*
%TD.AperFunction*%
%TD*%
%TA.AperFunction,Conductor*%
%TO.N,+12V*%
G36*
X131498071Y-69985829D02*
G01*
X131499744Y-69987037D01*
X132385150Y-70626497D01*
X132389851Y-70634119D01*
X132390000Y-70635982D01*
X132390000Y-71124017D01*
X132386573Y-71132290D01*
X132385150Y-71133502D01*
X131498073Y-71774169D01*
X131489360Y-71776235D01*
X131482954Y-71772962D01*
X130597286Y-70888277D01*
X130593856Y-70880006D01*
X130597278Y-70871731D01*
X130597287Y-70871722D01*
X130835154Y-70634119D01*
X131482956Y-69987036D01*
X131491229Y-69983615D01*
X131498071Y-69985829D01*
G37*
%TD.AperFunction*%
%TD*%
%TA.AperFunction,Conductor*%
%TO.N,+5V*%
G36*
X118628192Y-71550425D02*
G01*
X118970152Y-71892385D01*
X118973579Y-71900658D01*
X118972704Y-71905098D01*
X118573109Y-72879335D01*
X118566799Y-72885689D01*
X118561814Y-72886586D01*
X117676779Y-72851007D01*
X117668650Y-72847250D01*
X117666434Y-72843779D01*
X117399655Y-72197367D01*
X117399666Y-72188413D01*
X117405036Y-72182543D01*
X118614486Y-71548335D01*
X118623404Y-71547529D01*
X118628192Y-71550425D01*
G37*
%TD.AperFunction*%
%TD*%
%TA.AperFunction,Conductor*%
%TO.N,Net-(U6B-+)*%
G36*
X118433302Y-79908924D02*
G01*
X118441394Y-79912758D01*
X118443535Y-79916147D01*
X118705177Y-80550159D01*
X118705166Y-80559114D01*
X118699823Y-80564969D01*
X117675206Y-81105743D01*
X117673609Y-81106439D01*
X117656997Y-81112252D01*
X117656057Y-81112538D01*
X117636465Y-81117593D01*
X117628238Y-81119717D01*
X117628236Y-81119717D01*
X117628235Y-81119718D01*
X117609101Y-81128934D01*
X117607896Y-81129434D01*
X117607120Y-81129705D01*
X117606816Y-81129866D01*
X117605419Y-81130708D01*
X117562146Y-81151554D01*
X117532419Y-81169092D01*
X117532398Y-81169106D01*
X117529234Y-81171351D01*
X117516400Y-81182188D01*
X117507868Y-81184907D01*
X117500579Y-81181521D01*
X117163302Y-80844244D01*
X117159875Y-80835971D01*
X117160781Y-80831457D01*
X117561830Y-79873333D01*
X117568184Y-79867028D01*
X117573198Y-79866168D01*
X118433302Y-79908924D01*
G37*
%TD.AperFunction*%
%TD*%
%TA.AperFunction,Conductor*%
%TO.N,GND*%
G36*
X119701000Y-75370000D02*
G01*
X119700000Y-75670000D01*
X119104973Y-75645000D01*
X119104973Y-75145000D01*
X119700000Y-75070000D01*
X119701000Y-75370000D01*
G37*
%TD.AperFunction*%
%TD*%
%TA.AperFunction,Conductor*%
%TO.N,Net-(D2-K)*%
G36*
X108642673Y-58698005D02*
G01*
X108644323Y-58699400D01*
X109282942Y-59349300D01*
X109286297Y-59357602D01*
X109282942Y-59365700D01*
X108644323Y-60015599D01*
X108636080Y-60019099D01*
X108633927Y-60018918D01*
X107737149Y-59859218D01*
X107729605Y-59854394D01*
X107727500Y-59847699D01*
X107727500Y-58867300D01*
X107730927Y-58859027D01*
X107737147Y-58855782D01*
X108633928Y-58696081D01*
X108642673Y-58698005D01*
G37*
%TD.AperFunction*%
%TD*%
%TA.AperFunction,Conductor*%
%TO.N,Net-(TX1-In)*%
G36*
X110197698Y-104877927D02*
G01*
X110205004Y-104883105D01*
X110206800Y-104889335D01*
X110206800Y-105870664D01*
X110203373Y-105878937D01*
X110197698Y-105882072D01*
X108760833Y-106209301D01*
X108752005Y-106207797D01*
X108747430Y-106202381D01*
X108407663Y-105384487D01*
X108407655Y-105375534D01*
X108407664Y-105375512D01*
X108612218Y-104883105D01*
X108747430Y-104557617D01*
X108753769Y-104551292D01*
X108760831Y-104550698D01*
X110197698Y-104877927D01*
G37*
%TD.AperFunction*%
%TD*%
%TA.AperFunction,Conductor*%
%TO.N,Net-(U6B--)*%
G36*
X113737801Y-82553427D02*
G01*
X113741156Y-82560408D01*
X113789668Y-82997014D01*
X113788853Y-83002774D01*
X113500813Y-83699832D01*
X113494487Y-83706170D01*
X113485532Y-83706177D01*
X113479195Y-83699852D01*
X113191145Y-83002772D01*
X113190331Y-82997017D01*
X113238844Y-82560408D01*
X113243163Y-82552564D01*
X113250472Y-82550000D01*
X113729528Y-82550000D01*
X113737801Y-82553427D01*
G37*
%TD.AperFunction*%
%TD*%
%TA.AperFunction,Conductor*%
%TO.N,Net-(U2-2B4)*%
G36*
X104768362Y-79208427D02*
G01*
X104771630Y-79214777D01*
X104918987Y-80098923D01*
X104916967Y-80107646D01*
X104915562Y-80109273D01*
X104278116Y-80723183D01*
X104269780Y-80726454D01*
X104261884Y-80723183D01*
X103624437Y-80109273D01*
X103620855Y-80101066D01*
X103621011Y-80098931D01*
X103768370Y-79214775D01*
X103773111Y-79207179D01*
X103779911Y-79205000D01*
X104760089Y-79205000D01*
X104768362Y-79208427D01*
G37*
%TD.AperFunction*%
%TD*%
%TA.AperFunction,Conductor*%
%TO.N,+5V*%
G36*
X137692780Y-82602898D02*
G01*
X137694333Y-82604179D01*
X138282567Y-83181720D01*
X138286070Y-83189962D01*
X138282719Y-83198266D01*
X138282636Y-83198349D01*
X137694087Y-83785919D01*
X137685811Y-83789339D01*
X137684275Y-83789236D01*
X137100154Y-83711353D01*
X137092406Y-83706863D01*
X137090000Y-83699756D01*
X137090000Y-82719748D01*
X137093427Y-82711475D01*
X137099586Y-82708241D01*
X137684025Y-82601020D01*
X137692780Y-82602898D01*
G37*
%TD.AperFunction*%
%TD*%
%TA.AperFunction,Conductor*%
%TO.N,Net-(C2-Pad1)*%
G36*
X114986396Y-58665928D02*
G01*
X114989542Y-58671652D01*
X115179960Y-59524808D01*
X115178610Y-59533316D01*
X114497569Y-60683987D01*
X114490406Y-60689361D01*
X114481541Y-60688097D01*
X114477431Y-60683987D01*
X113796389Y-59533316D01*
X113795039Y-59524808D01*
X113985458Y-58671652D01*
X113990605Y-58664324D01*
X113996877Y-58662501D01*
X114978123Y-58662501D01*
X114986396Y-58665928D01*
G37*
%TD.AperFunction*%
%TD*%
%TA.AperFunction,Conductor*%
%TO.N,RX_Q*%
G36*
X109873422Y-90240927D02*
G01*
X109875690Y-90244122D01*
X110262642Y-91047421D01*
X110263145Y-91056362D01*
X110260964Y-91060137D01*
X109631363Y-91790715D01*
X109623366Y-91794745D01*
X109614862Y-91791940D01*
X109613637Y-91790715D01*
X108984035Y-91060137D01*
X108981230Y-91051633D01*
X108982356Y-91047423D01*
X109369310Y-90244121D01*
X109375988Y-90238156D01*
X109379851Y-90237500D01*
X109865149Y-90237500D01*
X109873422Y-90240927D01*
G37*
%TD.AperFunction*%
%TD*%
%TA.AperFunction,Conductor*%
%TO.N,Net-(U2-2B1)*%
G36*
X102738646Y-65871801D02*
G01*
X102744970Y-65878139D01*
X102745099Y-65886741D01*
X102262859Y-67162437D01*
X102256728Y-67168964D01*
X102251915Y-67170000D01*
X101768085Y-67170000D01*
X101759812Y-67166573D01*
X101757141Y-67162437D01*
X101274900Y-65886739D01*
X101275180Y-65877791D01*
X101281352Y-65871801D01*
X102005512Y-65570864D01*
X102014461Y-65570854D01*
X102738646Y-65871801D01*
G37*
%TD.AperFunction*%
%TD*%
%TA.AperFunction,Conductor*%
%TO.N,Net-(J1-Pin_1)*%
G36*
X102007204Y-107052966D02*
G01*
X102842756Y-107397017D01*
X102849100Y-107403335D01*
X102850000Y-107407835D01*
X102850000Y-108392164D01*
X102846573Y-108400437D01*
X102842755Y-108402983D01*
X102007207Y-108747032D01*
X101998252Y-108747013D01*
X101994485Y-108744492D01*
X101157286Y-107908276D01*
X101153855Y-107900007D01*
X101157276Y-107891733D01*
X101994486Y-107055506D01*
X102002759Y-107052086D01*
X102007204Y-107052966D01*
G37*
%TD.AperFunction*%
%TD*%
%TA.AperFunction,Conductor*%
%TO.N,Net-(U2-2B2)*%
G36*
X101692208Y-68335180D02*
G01*
X101698199Y-68341354D01*
X101999134Y-69065510D01*
X101999144Y-69074463D01*
X101999135Y-69074485D01*
X101999134Y-69074490D01*
X101698199Y-69798645D01*
X101691860Y-69804970D01*
X101683258Y-69805099D01*
X100407563Y-69322858D01*
X100401036Y-69316727D01*
X100400000Y-69311914D01*
X100400000Y-68828085D01*
X100403427Y-68819812D01*
X100407563Y-68817141D01*
X101683260Y-68334900D01*
X101692208Y-68335180D01*
G37*
%TD.AperFunction*%
%TD*%
%TA.AperFunction,Conductor*%
%TO.N,+5V*%
G36*
X131168919Y-86753427D02*
G01*
X131172059Y-86759125D01*
X131390089Y-87725442D01*
X131388567Y-87734266D01*
X131387211Y-87736019D01*
X130678535Y-88491896D01*
X130670377Y-88495588D01*
X130661998Y-88492429D01*
X130661465Y-88491896D01*
X129952788Y-87736019D01*
X129949629Y-87727640D01*
X129949909Y-87725447D01*
X130167941Y-86759124D01*
X130173105Y-86751809D01*
X130179354Y-86750000D01*
X131160646Y-86750000D01*
X131168919Y-86753427D01*
G37*
%TD.AperFunction*%
%TD*%
%TA.AperFunction,Conductor*%
%TO.N,Net-(CC2-Pad2)*%
G36*
X105730239Y-90323349D02*
G01*
X106529290Y-90896324D01*
X106534016Y-90903930D01*
X106534163Y-90906302D01*
X106498507Y-91793220D01*
X106494750Y-91801349D01*
X106491279Y-91803565D01*
X105843214Y-92071026D01*
X105834260Y-92071015D01*
X105829530Y-92067413D01*
X105021433Y-91032826D01*
X105019041Y-91024197D01*
X105022380Y-91017352D01*
X105715149Y-90324583D01*
X105723421Y-90321157D01*
X105730239Y-90323349D01*
G37*
%TD.AperFunction*%
%TD*%
%TA.AperFunction,Conductor*%
%TO.N,+3.3V*%
G36*
X133358586Y-98146625D02*
G01*
X134009931Y-98169544D01*
X134018078Y-98173260D01*
X134021212Y-98181648D01*
X134021111Y-98182822D01*
X133941368Y-98765870D01*
X133936852Y-98773603D01*
X133936805Y-98773638D01*
X133345947Y-99217719D01*
X133337275Y-99219950D01*
X133333427Y-99218697D01*
X133024088Y-99054277D01*
X132660410Y-98860974D01*
X132654714Y-98854066D01*
X132655571Y-98845153D01*
X132657626Y-98842374D01*
X133349955Y-98150045D01*
X133358227Y-98146619D01*
X133358586Y-98146625D01*
G37*
%TD.AperFunction*%
%TD*%
%TA.AperFunction,Conductor*%
%TO.N,+12V*%
G36*
X130595652Y-70892974D02*
G01*
X130600244Y-70897566D01*
X131468494Y-72471185D01*
X131469490Y-72480084D01*
X131469351Y-72480532D01*
X131122665Y-73521995D01*
X131116801Y-73528763D01*
X131111564Y-73530000D01*
X130127997Y-73530000D01*
X130119724Y-73526573D01*
X130117096Y-73522549D01*
X129951298Y-73097202D01*
X129711019Y-72480773D01*
X129711207Y-72471822D01*
X129711669Y-72470887D01*
X130579756Y-70897565D01*
X130586753Y-70891978D01*
X130595652Y-70892974D01*
G37*
%TD.AperFunction*%
%TD*%
%TA.AperFunction,Conductor*%
%TO.N,Net-(U1-S1)*%
G36*
X110197698Y-102337927D02*
G01*
X110205004Y-102343105D01*
X110206800Y-102349335D01*
X110206800Y-103330664D01*
X110203373Y-103338937D01*
X110197698Y-103342072D01*
X108760833Y-103669301D01*
X108752005Y-103667797D01*
X108747430Y-103662381D01*
X108407663Y-102844487D01*
X108407655Y-102835534D01*
X108407664Y-102835512D01*
X108612218Y-102343105D01*
X108747430Y-102017617D01*
X108753769Y-102011292D01*
X108760831Y-102010698D01*
X110197698Y-102337927D01*
G37*
%TD.AperFunction*%
%TD*%
%TA.AperFunction,Conductor*%
%TO.N,Net-(U6B--)*%
G36*
X113500804Y-83750146D02*
G01*
X113500813Y-83750167D01*
X113788853Y-84447225D01*
X113789668Y-84452985D01*
X113741156Y-84889592D01*
X113736837Y-84897436D01*
X113729528Y-84900000D01*
X113250472Y-84900000D01*
X113242199Y-84896573D01*
X113238844Y-84889592D01*
X113219438Y-84714949D01*
X113190331Y-84452982D01*
X113191145Y-84447227D01*
X113479187Y-83750166D01*
X113485513Y-83743829D01*
X113494468Y-83743822D01*
X113500804Y-83750146D01*
G37*
%TD.AperFunction*%
%TD*%
%TA.AperFunction,Conductor*%
%TO.N,GND*%
G36*
X109705000Y-74799168D02*
G01*
X109205000Y-74799168D01*
X108832157Y-74422843D01*
X109115000Y-74139000D01*
X109484552Y-73986927D01*
X109705000Y-74799168D01*
G37*
%TD.AperFunction*%
%TD*%
%TA.AperFunction,Conductor*%
%TO.N,+3.3V*%
G36*
X104766068Y-114866080D02*
G01*
X105662852Y-115025781D01*
X105670395Y-115030605D01*
X105672500Y-115037300D01*
X105672500Y-116017699D01*
X105669073Y-116025972D01*
X105662851Y-116029218D01*
X104766072Y-116188918D01*
X104757326Y-116186994D01*
X104755676Y-116185599D01*
X104450266Y-115874794D01*
X104117056Y-115535698D01*
X104113702Y-115527398D01*
X104117056Y-115519301D01*
X104755676Y-114869399D01*
X104763919Y-114865900D01*
X104766068Y-114866080D01*
G37*
%TD.AperFunction*%
%TD*%
%TA.AperFunction,Conductor*%
%TO.N,Net-(C2-Pad1)*%
G36*
X121430324Y-56906697D02*
G01*
X122160715Y-57536137D01*
X122164745Y-57544134D01*
X122161940Y-57552638D01*
X122160715Y-57553863D01*
X121429947Y-58183628D01*
X121421443Y-58186433D01*
X121417552Y-58185454D01*
X120614443Y-57828089D01*
X120608278Y-57821595D01*
X120607500Y-57817400D01*
X120607500Y-57332113D01*
X120610927Y-57323840D01*
X120613815Y-57321726D01*
X121417302Y-56905172D01*
X121426223Y-56904407D01*
X121430324Y-56906697D01*
G37*
%TD.AperFunction*%
%TD*%
%TA.AperFunction,Conductor*%
%TO.N,+3.3V*%
G36*
X130689087Y-96058427D02*
G01*
X130692180Y-96063923D01*
X130850935Y-96713583D01*
X130849570Y-96722433D01*
X130847833Y-96724642D01*
X130198264Y-97372754D01*
X130189987Y-97376172D01*
X130181736Y-97372754D01*
X129532166Y-96724642D01*
X129528730Y-96716373D01*
X129529063Y-96713588D01*
X129687820Y-96063923D01*
X129693113Y-96056699D01*
X129699186Y-96055000D01*
X130680814Y-96055000D01*
X130689087Y-96058427D01*
G37*
%TD.AperFunction*%
%TD*%
%TA.AperFunction,Conductor*%
%TO.N,+3.3V*%
G36*
X133471042Y-92803427D02*
G01*
X133473234Y-92806468D01*
X133966230Y-93792461D01*
X133966865Y-93801393D01*
X133964042Y-93805962D01*
X132978277Y-94792714D01*
X132970006Y-94796145D01*
X132961731Y-94792722D01*
X132961723Y-94792714D01*
X131975957Y-93805962D01*
X131972534Y-93797687D01*
X131973768Y-93792462D01*
X132466766Y-92806468D01*
X132473531Y-92800600D01*
X132477231Y-92800000D01*
X133462769Y-92800000D01*
X133471042Y-92803427D01*
G37*
%TD.AperFunction*%
%TD*%
%TA.AperFunction,Conductor*%
%TO.N,GND*%
G36*
X119041049Y-75354107D02*
G01*
X119041049Y-75645000D01*
X118772836Y-75464805D01*
X119041049Y-75145000D01*
X119041049Y-75354107D01*
G37*
%TD.AperFunction*%
%TD*%
%TA.AperFunction,Conductor*%
%TO.N,Net-(U6A--)*%
G36*
X110797600Y-79842312D02*
G01*
X111588308Y-80216830D01*
X111594318Y-80223469D01*
X111595000Y-80227404D01*
X111595000Y-80712595D01*
X111591573Y-80720868D01*
X111588308Y-80723169D01*
X110797604Y-81097686D01*
X110788661Y-81098130D01*
X110784895Y-81095920D01*
X110079074Y-80478808D01*
X110075101Y-80470783D01*
X110077967Y-80462299D01*
X110079074Y-80461192D01*
X110784896Y-79844078D01*
X110793379Y-79841213D01*
X110797600Y-79842312D01*
G37*
%TD.AperFunction*%
%TD*%
%TA.AperFunction,Conductor*%
%TO.N,Net-(J1-Pin_2)*%
G36*
X108061669Y-109632166D02*
G01*
X108066121Y-109637503D01*
X108405935Y-110455512D01*
X108405944Y-110464466D01*
X108405935Y-110464488D01*
X108066222Y-111282255D01*
X108059883Y-111288581D01*
X108052664Y-111289138D01*
X106619725Y-110942166D01*
X106612490Y-110936889D01*
X106610778Y-110930795D01*
X106610778Y-109949456D01*
X106614205Y-109941183D01*
X106620022Y-109938016D01*
X108052862Y-109630551D01*
X108061669Y-109632166D01*
G37*
%TD.AperFunction*%
%TD*%
%TA.AperFunction,Conductor*%
%TO.N,Net-(U2-2A)*%
G36*
X110806697Y-59994188D02*
G01*
X111505209Y-60691721D01*
X111508642Y-60699992D01*
X111505221Y-60708267D01*
X111505209Y-60708279D01*
X110806698Y-61405811D01*
X110798423Y-61409232D01*
X110792061Y-61407346D01*
X110092831Y-60953459D01*
X110087757Y-60946080D01*
X110087501Y-60943645D01*
X110087501Y-60456354D01*
X110090928Y-60448081D01*
X110092831Y-60446540D01*
X110792062Y-59992652D01*
X110800865Y-59991023D01*
X110806697Y-59994188D01*
G37*
%TD.AperFunction*%
%TD*%
%TA.AperFunction,Conductor*%
%TO.N,+5V*%
G36*
X106580922Y-76460927D02*
G01*
X106583190Y-76464122D01*
X106970142Y-77267421D01*
X106970645Y-77276362D01*
X106968464Y-77280137D01*
X106338863Y-78010715D01*
X106330866Y-78014745D01*
X106322362Y-78011940D01*
X106321137Y-78010715D01*
X105691535Y-77280137D01*
X105688730Y-77271633D01*
X105689856Y-77267423D01*
X106076810Y-76464121D01*
X106083488Y-76458156D01*
X106087351Y-76457500D01*
X106572649Y-76457500D01*
X106580922Y-76460927D01*
G37*
%TD.AperFunction*%
%TD*%
%TA.AperFunction,Conductor*%
%TO.N,Net-(C2-Pad1)*%
G36*
X117497600Y-56947312D02*
G01*
X118288308Y-57321830D01*
X118294318Y-57328469D01*
X118295000Y-57332404D01*
X118295000Y-57817595D01*
X118291573Y-57825868D01*
X118288308Y-57828169D01*
X117497604Y-58202686D01*
X117488661Y-58203130D01*
X117484895Y-58200920D01*
X116779074Y-57583808D01*
X116775101Y-57575783D01*
X116777967Y-57567299D01*
X116779074Y-57566192D01*
X117484896Y-56949078D01*
X117493379Y-56946213D01*
X117497600Y-56947312D01*
G37*
%TD.AperFunction*%
%TD*%
%TA.AperFunction,Conductor*%
%TO.N,Net-(U6A-+)*%
G36*
X107629261Y-79213663D02*
G01*
X107971544Y-79555946D01*
X107974931Y-79563249D01*
X108019538Y-80099453D01*
X108016809Y-80107982D01*
X108015988Y-80108857D01*
X107381135Y-80719319D01*
X107372796Y-80722583D01*
X107364591Y-80718995D01*
X107362403Y-80715791D01*
X106968666Y-79863386D01*
X106968309Y-79854441D01*
X106971047Y-79850178D01*
X107612750Y-79213628D01*
X107621035Y-79210236D01*
X107629261Y-79213663D01*
G37*
%TD.AperFunction*%
%TD*%
%TA.AperFunction,Conductor*%
%TO.N,Net-(D1-A)*%
G36*
X131030439Y-63233427D02*
G01*
X131032984Y-63237244D01*
X131451403Y-64253093D01*
X131451385Y-64262048D01*
X131450914Y-64263045D01*
X130600142Y-65861939D01*
X130593230Y-65867633D01*
X130584317Y-65866772D01*
X130579569Y-65862095D01*
X130579483Y-65861939D01*
X129711417Y-64288656D01*
X129710422Y-64279759D01*
X129710442Y-64279688D01*
X130027475Y-63238292D01*
X130033163Y-63231376D01*
X130038668Y-63230000D01*
X131022166Y-63230000D01*
X131030439Y-63233427D01*
G37*
%TD.AperFunction*%
%TD*%
%TA.AperFunction,Conductor*%
%TO.N,RX_I*%
G36*
X113453856Y-90197326D02*
G01*
X113457614Y-90199847D01*
X113799574Y-90541807D01*
X113803001Y-90550080D01*
X113801663Y-90555513D01*
X113167457Y-91764961D01*
X113160580Y-91770697D01*
X113152632Y-91770343D01*
X112506220Y-91503565D01*
X112499879Y-91497241D01*
X112498992Y-91493220D01*
X112463413Y-90608185D01*
X112466505Y-90599781D01*
X112470660Y-90596892D01*
X113444902Y-90197295D01*
X113453856Y-90197326D01*
G37*
%TD.AperFunction*%
%TD*%
%TA.AperFunction,Conductor*%
%TO.N,Net-(D2-K)*%
G36*
X107279951Y-61154013D02*
G01*
X107283174Y-61160109D01*
X107581689Y-62736140D01*
X107579861Y-62744906D01*
X107572370Y-62749813D01*
X107570208Y-62750017D01*
X106784330Y-62750999D01*
X106784300Y-62750999D01*
X105998369Y-62750017D01*
X105990101Y-62746580D01*
X105986684Y-62738302D01*
X105986880Y-62736187D01*
X106279594Y-61160150D01*
X106284474Y-61152641D01*
X106291097Y-61150586D01*
X107271678Y-61150586D01*
X107279951Y-61154013D01*
G37*
%TD.AperFunction*%
%TD*%
%TA.AperFunction,Conductor*%
%TO.N,Net-(J1-Pin_1)*%
G36*
X108061669Y-107092166D02*
G01*
X108066121Y-107097503D01*
X108405935Y-107915512D01*
X108405944Y-107924466D01*
X108405935Y-107924488D01*
X108066222Y-108742255D01*
X108059883Y-108748581D01*
X108052664Y-108749138D01*
X106619725Y-108402166D01*
X106612490Y-108396889D01*
X106610778Y-108390795D01*
X106610778Y-107409456D01*
X106614205Y-107401183D01*
X106620022Y-107398016D01*
X108052862Y-107090551D01*
X108061669Y-107092166D01*
G37*
%TD.AperFunction*%
%TD*%
%TA.AperFunction,Conductor*%
%TO.N,Net-(U6A--)*%
G36*
X109573422Y-86840927D02*
G01*
X109575690Y-86844122D01*
X109962642Y-87647421D01*
X109963145Y-87656362D01*
X109960964Y-87660137D01*
X109331363Y-88390715D01*
X109323366Y-88394745D01*
X109314862Y-88391940D01*
X109313637Y-88390715D01*
X108684035Y-87660137D01*
X108681230Y-87651633D01*
X108682356Y-87647423D01*
X109069310Y-86844121D01*
X109075988Y-86838156D01*
X109079851Y-86837500D01*
X109565149Y-86837500D01*
X109573422Y-86840927D01*
G37*
%TD.AperFunction*%
%TD*%
%TA.AperFunction,Conductor*%
%TO.N,Net-(CC1-Pad1)*%
G36*
X104543717Y-99357859D02*
G01*
X104550972Y-99363109D01*
X104552707Y-99369241D01*
X104552707Y-100350758D01*
X104549280Y-100359031D01*
X104543717Y-100362140D01*
X102953937Y-100740717D01*
X102945095Y-100739300D01*
X102941180Y-100735330D01*
X102422574Y-99865992D01*
X102421280Y-99857134D01*
X102422573Y-99854010D01*
X102941181Y-98984668D01*
X102948361Y-98979321D01*
X102953933Y-98979282D01*
X104543717Y-99357859D01*
G37*
%TD.AperFunction*%
%TD*%
%TA.AperFunction,Conductor*%
%TO.N,RX_I*%
G36*
X115059374Y-83655254D02*
G01*
X115063964Y-83660479D01*
X115440213Y-84505269D01*
X115440448Y-84514221D01*
X115437798Y-84518302D01*
X115099256Y-84856844D01*
X115090983Y-84860271D01*
X115082710Y-84856844D01*
X115081784Y-84855800D01*
X114882727Y-84602488D01*
X114880337Y-84596867D01*
X114869438Y-84518302D01*
X114760748Y-83734782D01*
X114763006Y-83726117D01*
X114769585Y-83721804D01*
X115050528Y-83653868D01*
X115059374Y-83655254D01*
G37*
%TD.AperFunction*%
%TD*%
%TA.AperFunction,Conductor*%
%TO.N,Net-(U2-2B2)*%
G36*
X107602615Y-83057406D02*
G01*
X108241058Y-83679814D01*
X108244590Y-83688043D01*
X108241269Y-83696359D01*
X108236679Y-83699262D01*
X107786773Y-83853225D01*
X107441762Y-84198237D01*
X107433489Y-84201664D01*
X107425216Y-84198237D01*
X107424959Y-84197972D01*
X107235726Y-83996404D01*
X106962291Y-83705146D01*
X106959128Y-83696770D01*
X106962497Y-83688918D01*
X107586126Y-83057561D01*
X107594376Y-83054084D01*
X107602615Y-83057406D01*
G37*
%TD.AperFunction*%
%TD*%
%TA.AperFunction,Conductor*%
%TO.N,+5V*%
G36*
X132928002Y-76917570D02*
G01*
X132928535Y-76918103D01*
X133637211Y-77673980D01*
X133640370Y-77682359D01*
X133640089Y-77684557D01*
X133422059Y-78650875D01*
X133416895Y-78658191D01*
X133410646Y-78660000D01*
X132429354Y-78660000D01*
X132421081Y-78656573D01*
X132417941Y-78650875D01*
X132199910Y-77684557D01*
X132201432Y-77675733D01*
X132202788Y-77673980D01*
X132911465Y-76918103D01*
X132919623Y-76914411D01*
X132928002Y-76917570D01*
G37*
%TD.AperFunction*%
%TD*%
%TA.AperFunction,Conductor*%
%TO.N,+12V*%
G36*
X131118919Y-75163427D02*
G01*
X131122059Y-75169125D01*
X131340089Y-76135442D01*
X131338567Y-76144266D01*
X131337211Y-76146019D01*
X130628535Y-76901896D01*
X130620377Y-76905588D01*
X130611998Y-76902429D01*
X130611465Y-76901896D01*
X129902788Y-76146019D01*
X129899629Y-76137640D01*
X129899909Y-76135447D01*
X130117941Y-75169124D01*
X130123105Y-75161809D01*
X130129354Y-75160000D01*
X131110646Y-75160000D01*
X131118919Y-75163427D01*
G37*
%TD.AperFunction*%
%TD*%
%TA.AperFunction,Conductor*%
%TO.N,Net-(U2-2B4)*%
G36*
X103512437Y-77457141D02*
G01*
X103518964Y-77463272D01*
X103520000Y-77468085D01*
X103520000Y-77951914D01*
X103516573Y-77960187D01*
X103512437Y-77962858D01*
X102236741Y-78445099D01*
X102227791Y-78444819D01*
X102221801Y-78438646D01*
X101920864Y-77714487D01*
X101920854Y-77705538D01*
X102221801Y-76981352D01*
X102228139Y-76975029D01*
X102236739Y-76974900D01*
X103512437Y-77457141D01*
G37*
%TD.AperFunction*%
%TD*%
%TA.AperFunction,Conductor*%
%TO.N,+5V*%
G36*
X133421042Y-81213427D02*
G01*
X133423234Y-81216468D01*
X133916230Y-82202461D01*
X133916865Y-82211393D01*
X133914042Y-82215962D01*
X132928277Y-83202714D01*
X132920006Y-83206145D01*
X132911731Y-83202722D01*
X132911723Y-83202714D01*
X131925957Y-82215962D01*
X131922534Y-82207687D01*
X131923768Y-82202462D01*
X132416766Y-81216468D01*
X132423531Y-81210600D01*
X132427231Y-81210000D01*
X133412769Y-81210000D01*
X133421042Y-81213427D01*
G37*
%TD.AperFunction*%
%TD*%
%TA.AperFunction,Conductor*%
%TO.N,Net-(D2-K)*%
G36*
X106789638Y-59777278D02*
G01*
X106789648Y-59777288D01*
X107576049Y-60564672D01*
X107579471Y-60572947D01*
X107578726Y-60577048D01*
X107284217Y-61362408D01*
X107278104Y-61368951D01*
X107273262Y-61370000D01*
X106289478Y-61370000D01*
X106281205Y-61366573D01*
X106278523Y-61362408D01*
X105984013Y-60577048D01*
X105984317Y-60568099D01*
X105986686Y-60564676D01*
X106773092Y-59777287D01*
X106781363Y-59773856D01*
X106789638Y-59777278D01*
G37*
%TD.AperFunction*%
%TD*%
%TA.AperFunction,Conductor*%
%TO.N,Net-(U6B--)*%
G36*
X113743275Y-84622781D02*
G01*
X114497781Y-85263392D01*
X114501869Y-85271359D01*
X114500070Y-85278606D01*
X114095479Y-85912416D01*
X114088139Y-85917546D01*
X114080743Y-85916757D01*
X113222035Y-85523224D01*
X113215941Y-85516662D01*
X113215214Y-85512267D01*
X113239684Y-84631374D01*
X113243339Y-84623200D01*
X113251379Y-84620000D01*
X113735702Y-84620000D01*
X113743275Y-84622781D01*
G37*
%TD.AperFunction*%
%TD*%
%TA.AperFunction,Conductor*%
%TO.N,Net-(C2-Pad1)*%
G36*
X121522673Y-56885505D02*
G01*
X121524323Y-56886900D01*
X122162942Y-57536800D01*
X122166297Y-57545102D01*
X122162942Y-57553200D01*
X121524323Y-58203099D01*
X121516080Y-58206599D01*
X121513927Y-58206418D01*
X120617149Y-58046718D01*
X120609605Y-58041894D01*
X120607500Y-58035199D01*
X120607500Y-57054800D01*
X120610927Y-57046527D01*
X120617147Y-57043282D01*
X121513928Y-56883581D01*
X121522673Y-56885505D01*
G37*
%TD.AperFunction*%
%TD*%
%TA.AperFunction,Conductor*%
%TO.N,Net-(U6A-+)*%
G36*
X113619507Y-77258043D02*
G01*
X113622533Y-77263280D01*
X113754553Y-77754635D01*
X113754385Y-77761275D01*
X113501109Y-78543575D01*
X113495301Y-78550390D01*
X113486374Y-78551102D01*
X113479559Y-78545294D01*
X113479003Y-78544025D01*
X113478837Y-78543575D01*
X113202811Y-77796370D01*
X113202640Y-77788766D01*
X113262863Y-77599982D01*
X113265734Y-77595270D01*
X113602962Y-77258042D01*
X113611234Y-77254616D01*
X113619507Y-77258043D01*
G37*
%TD.AperFunction*%
%TD*%
%TA.AperFunction,Conductor*%
%TO.N,Net-(U6B-+)*%
G36*
X112467801Y-82553427D02*
G01*
X112471156Y-82560408D01*
X112519668Y-82997014D01*
X112518853Y-83002774D01*
X112230813Y-83699832D01*
X112224487Y-83706170D01*
X112215532Y-83706177D01*
X112209195Y-83699852D01*
X111921387Y-83003356D01*
X111920500Y-82998888D01*
X111920500Y-82996144D01*
X111920572Y-82994852D01*
X111968844Y-82560408D01*
X111973163Y-82552564D01*
X111980472Y-82550000D01*
X112459528Y-82550000D01*
X112467801Y-82553427D01*
G37*
%TD.AperFunction*%
%TD*%
%TA.AperFunction,Conductor*%
%TO.N,Net-(D2-K)*%
G36*
X109251311Y-55755566D02*
G01*
X109873636Y-57079598D01*
X109874693Y-57085694D01*
X109791016Y-57956919D01*
X109786814Y-57964826D01*
X109779370Y-57967500D01*
X108799609Y-57967500D01*
X108791336Y-57964073D01*
X108788132Y-57958074D01*
X108638330Y-57202003D01*
X108638983Y-57195292D01*
X109229900Y-55756097D01*
X109236211Y-55749748D01*
X109245166Y-55749720D01*
X109251311Y-55755566D01*
G37*
%TD.AperFunction*%
%TD*%
%TA.AperFunction,Conductor*%
%TO.N,+5V*%
G36*
X119368246Y-60682196D02*
G01*
X120003448Y-61313515D01*
X120006900Y-61321777D01*
X120005185Y-61327911D01*
X119613421Y-61969398D01*
X119606185Y-61974673D01*
X119603436Y-61975000D01*
X119116564Y-61975000D01*
X119108291Y-61971573D01*
X119106579Y-61969398D01*
X119029406Y-61843034D01*
X118714813Y-61327909D01*
X118713426Y-61319064D01*
X118716549Y-61313517D01*
X119351753Y-60682196D01*
X119360036Y-60678795D01*
X119368246Y-60682196D01*
G37*
%TD.AperFunction*%
%TD*%
%TA.AperFunction,Conductor*%
%TO.N,Net-(U6A--)*%
G36*
X110805104Y-85284079D02*
G01*
X111510925Y-85901192D01*
X111514898Y-85909217D01*
X111512032Y-85917701D01*
X111510925Y-85918808D01*
X110805104Y-86535920D01*
X110796620Y-86538786D01*
X110792396Y-86537686D01*
X110554261Y-86424894D01*
X110001692Y-86163169D01*
X109995682Y-86156530D01*
X109995000Y-86152595D01*
X109995000Y-85667404D01*
X109998427Y-85659131D01*
X110001690Y-85656831D01*
X110792398Y-85282312D01*
X110801338Y-85281869D01*
X110805104Y-85284079D01*
G37*
%TD.AperFunction*%
%TD*%
%TA.AperFunction,Conductor*%
%TO.N,+3.3V*%
G36*
X131126258Y-94091939D02*
G01*
X132948379Y-94790730D01*
X132954877Y-94796892D01*
X132955114Y-94805843D01*
X132950244Y-94811666D01*
X131382611Y-95759549D01*
X131374137Y-95760984D01*
X130611474Y-95599748D01*
X130605621Y-95596574D01*
X129911126Y-94902079D01*
X129907699Y-94893806D01*
X129911126Y-94885533D01*
X129912970Y-94884031D01*
X130023006Y-94811666D01*
X131115651Y-94093090D01*
X131124444Y-94091408D01*
X131126258Y-94091939D01*
G37*
%TD.AperFunction*%
%TD*%
%TA.AperFunction,Conductor*%
%TO.N,Net-(U6B--)*%
G36*
X117730136Y-81306535D02*
G01*
X118460715Y-81936137D01*
X118464745Y-81944134D01*
X118461940Y-81952638D01*
X118460715Y-81953863D01*
X117730137Y-82583464D01*
X117721633Y-82586269D01*
X117717421Y-82585142D01*
X116914122Y-82198189D01*
X116908156Y-82191511D01*
X116907500Y-82187648D01*
X116907500Y-81702351D01*
X116910927Y-81694078D01*
X116914122Y-81691810D01*
X117059753Y-81621659D01*
X117064831Y-81620500D01*
X117239311Y-81620500D01*
X117239311Y-81620499D01*
X117329673Y-81596286D01*
X117353887Y-81589799D01*
X117456614Y-81530489D01*
X117648153Y-81338949D01*
X117651335Y-81336691D01*
X117717422Y-81304856D01*
X117726361Y-81304354D01*
X117730136Y-81306535D01*
G37*
%TD.AperFunction*%
%TD*%
%TA.AperFunction,Conductor*%
%TO.N,Net-(U2-2B3)*%
G36*
X117818094Y-76163260D02*
G01*
X117818720Y-76163863D01*
X118430351Y-76798943D01*
X118433622Y-76807279D01*
X118430040Y-76815486D01*
X118427515Y-76817336D01*
X117585831Y-77275258D01*
X117576927Y-77276202D01*
X117572624Y-77273863D01*
X116919084Y-76713501D01*
X116915034Y-76705514D01*
X116915000Y-76704619D01*
X116915000Y-76221068D01*
X116918427Y-76212795D01*
X116926050Y-76209386D01*
X117809645Y-76160297D01*
X117818094Y-76163260D01*
G37*
%TD.AperFunction*%
%TD*%
%TA.AperFunction,Conductor*%
%TO.N,RX_Q*%
G36*
X106204518Y-88409121D02*
G01*
X106207315Y-88411485D01*
X106836262Y-89140216D01*
X106839074Y-89148718D01*
X106838218Y-89152328D01*
X106619118Y-89682519D01*
X106616578Y-89686324D01*
X106274082Y-90028820D01*
X106265809Y-90032247D01*
X106257536Y-90028820D01*
X106256547Y-90027696D01*
X105675406Y-89274741D01*
X105673064Y-89266098D01*
X105674659Y-89261534D01*
X106188451Y-88413067D01*
X106195667Y-88407767D01*
X106204518Y-88409121D01*
G37*
%TD.AperFunction*%
%TD*%
%TA.AperFunction,Conductor*%
%TO.N,Net-(U2-2B3)*%
G36*
X112538341Y-63171702D02*
G01*
X112538433Y-63171917D01*
X112838842Y-63894807D01*
X112838853Y-63903762D01*
X112838845Y-63903780D01*
X112538477Y-64627953D01*
X112532142Y-64634282D01*
X112523187Y-64634277D01*
X112522852Y-64634132D01*
X111448011Y-64148366D01*
X111444556Y-64145977D01*
X111104615Y-63806036D01*
X111101188Y-63797763D01*
X111104615Y-63789490D01*
X111108180Y-63787053D01*
X112522926Y-63165694D01*
X112531877Y-63165505D01*
X112538341Y-63171702D01*
G37*
%TD.AperFunction*%
%TD*%
%TA.AperFunction,Conductor*%
%TO.N,Net-(U2-2B1)*%
G36*
X110078098Y-83577958D02*
G01*
X110619745Y-84212985D01*
X110622506Y-84221504D01*
X110620307Y-84227457D01*
X110054117Y-85006408D01*
X110046481Y-85011085D01*
X110037774Y-85008993D01*
X110036380Y-85007802D01*
X109693032Y-84664454D01*
X109692061Y-84663353D01*
X109323085Y-84187799D01*
X109320722Y-84179163D01*
X109324978Y-84171527D01*
X110061846Y-83576448D01*
X110070434Y-83573917D01*
X110078098Y-83577958D01*
G37*
%TD.AperFunction*%
%TD*%
%TA.AperFunction,Conductor*%
%TO.N,RX_Q*%
G36*
X111514186Y-89008727D02*
G01*
X111521689Y-89013614D01*
X111523157Y-89016588D01*
X111730210Y-89649004D01*
X111729528Y-89657932D01*
X111722855Y-89663722D01*
X110336599Y-90134745D01*
X110327663Y-90134162D01*
X110321757Y-90127431D01*
X110321135Y-90123667D01*
X110321135Y-89642296D01*
X110322002Y-89637875D01*
X110641396Y-88855224D01*
X110647695Y-88848859D01*
X110654375Y-88848144D01*
X111514186Y-89008727D01*
G37*
%TD.AperFunction*%
%TD*%
%TA.AperFunction,Conductor*%
%TO.N,Net-(TX1-In)*%
G36*
X138403218Y-106366512D02*
G01*
X139567390Y-106913699D01*
X139728471Y-106989411D01*
X139734501Y-106996032D01*
X139734083Y-107004977D01*
X139728471Y-107010589D01*
X138403221Y-107633486D01*
X138396480Y-107634463D01*
X137524936Y-107501515D01*
X137517274Y-107496880D01*
X137515000Y-107489949D01*
X137515000Y-106510050D01*
X137518427Y-106501777D01*
X137524935Y-106498484D01*
X138396483Y-106365536D01*
X138403218Y-106366512D01*
G37*
%TD.AperFunction*%
%TD*%
%TA.AperFunction,Conductor*%
%TO.N,Net-(D2-K)*%
G36*
X108377380Y-58861198D02*
G01*
X108381345Y-58869228D01*
X108381370Y-58869999D01*
X108381370Y-59851231D01*
X108377943Y-59859504D01*
X108376151Y-59860972D01*
X107588365Y-60385093D01*
X107579579Y-60386823D01*
X107574724Y-60384606D01*
X106784206Y-59772968D01*
X106779761Y-59765197D01*
X106680529Y-58982325D01*
X106682888Y-58973688D01*
X106690665Y-58969248D01*
X106691342Y-58969182D01*
X108368899Y-58858324D01*
X108377380Y-58861198D01*
G37*
%TD.AperFunction*%
%TD*%
%TA.AperFunction,Conductor*%
%TO.N,Net-(U6A--)*%
G36*
X114750413Y-78571803D02*
G01*
X114757648Y-78577078D01*
X114759251Y-78584783D01*
X114639663Y-79446867D01*
X114637273Y-79452488D01*
X114438215Y-79705800D01*
X114430409Y-79710188D01*
X114421787Y-79707770D01*
X114420743Y-79706844D01*
X114082201Y-79368302D01*
X114078774Y-79360029D01*
X114079784Y-79355274D01*
X114456036Y-78510478D01*
X114462530Y-78504318D01*
X114469470Y-78503869D01*
X114750413Y-78571803D01*
G37*
%TD.AperFunction*%
%TD*%
%TA.AperFunction,Conductor*%
%TO.N,Net-(CC1-Pad1)*%
G36*
X115633198Y-91507056D02*
G01*
X115972294Y-91840266D01*
X116283099Y-92145676D01*
X116286599Y-92153919D01*
X116286418Y-92156072D01*
X116126718Y-93052851D01*
X116121894Y-93060395D01*
X116115199Y-93062500D01*
X115134801Y-93062500D01*
X115126528Y-93059073D01*
X115123282Y-93052851D01*
X114963581Y-92156072D01*
X114965505Y-92147326D01*
X114966900Y-92145676D01*
X115616801Y-91507056D01*
X115625102Y-91503702D01*
X115633198Y-91507056D01*
G37*
%TD.AperFunction*%
%TD*%
%TA.AperFunction,Conductor*%
%TO.N,Net-(D1-A)*%
G36*
X130538266Y-60732276D02*
G01*
X131374491Y-61569484D01*
X131377913Y-61577759D01*
X131377032Y-61582207D01*
X131032983Y-62417755D01*
X131026664Y-62424100D01*
X131022164Y-62425000D01*
X130037836Y-62425000D01*
X130029563Y-62421573D01*
X130027017Y-62417755D01*
X129928717Y-62179027D01*
X129682967Y-61582205D01*
X129682986Y-61573252D01*
X129685504Y-61569488D01*
X130521723Y-60732286D01*
X130529993Y-60728855D01*
X130538266Y-60732276D01*
G37*
%TD.AperFunction*%
%TD*%
%TA.AperFunction,Conductor*%
%TO.N,GND*%
G36*
X109116000Y-74140000D02*
G01*
X108961927Y-74509552D01*
X108317984Y-74375000D01*
X108317984Y-73875000D01*
X109115000Y-73740000D01*
X109116000Y-74140000D01*
G37*
%TD.AperFunction*%
%TD*%
%TA.AperFunction,Conductor*%
%TO.N,Net-(U2-2A)*%
G36*
X109290204Y-62484997D02*
G01*
X109294531Y-62489279D01*
X109671190Y-63135875D01*
X109672393Y-63144748D01*
X109667972Y-63151219D01*
X108813080Y-63774363D01*
X108806188Y-63776608D01*
X108322628Y-63776608D01*
X108314355Y-63773181D01*
X108310928Y-63764908D01*
X108310962Y-63764017D01*
X108389373Y-62737205D01*
X108393420Y-62729217D01*
X108397935Y-62726815D01*
X109281319Y-62483887D01*
X109290204Y-62484997D01*
G37*
%TD.AperFunction*%
%TD*%
%TA.AperFunction,Conductor*%
%TO.N,RX_I*%
G36*
X117730137Y-84431535D02*
G01*
X118460715Y-85061137D01*
X118464745Y-85069134D01*
X118461940Y-85077638D01*
X118460715Y-85078863D01*
X117730137Y-85708464D01*
X117721633Y-85711269D01*
X117717421Y-85710142D01*
X116914122Y-85323189D01*
X116908156Y-85316511D01*
X116907500Y-85312648D01*
X116907500Y-84827351D01*
X116910927Y-84819078D01*
X116914122Y-84816810D01*
X117717422Y-84429856D01*
X117726362Y-84429354D01*
X117730137Y-84431535D01*
G37*
%TD.AperFunction*%
%TD*%
%TA.AperFunction,Conductor*%
%TO.N,GND*%
G36*
X109780000Y-77580000D02*
G01*
X109480000Y-77581000D01*
X109180000Y-77580000D01*
X109205000Y-76984973D01*
X109705000Y-76984973D01*
X109780000Y-77580000D01*
G37*
%TD.AperFunction*%
%TD*%
%TA.AperFunction,Conductor*%
%TO.N,RX_Q*%
G36*
X111356168Y-88826115D02*
G01*
X111356247Y-88826192D01*
X111560707Y-89029293D01*
X111560762Y-89029348D01*
X111762530Y-89232466D01*
X111765929Y-89240751D01*
X111762475Y-89249013D01*
X111761126Y-89250163D01*
X111296569Y-89589170D01*
X111287866Y-89591279D01*
X111281399Y-89587992D01*
X110943094Y-89249687D01*
X110939667Y-89241414D01*
X110942987Y-89233250D01*
X111339624Y-88826325D01*
X111347851Y-88822794D01*
X111356168Y-88826115D01*
G37*
%TD.AperFunction*%
%TD*%
%TA.AperFunction,Conductor*%
%TO.N,Net-(D2-K)*%
G36*
X109789087Y-58035927D02*
G01*
X109792180Y-58041423D01*
X109950935Y-58691083D01*
X109949570Y-58699933D01*
X109947833Y-58702142D01*
X109298264Y-59350254D01*
X109289987Y-59353672D01*
X109281736Y-59350254D01*
X108632166Y-58702142D01*
X108628730Y-58693873D01*
X108629063Y-58691088D01*
X108787820Y-58041423D01*
X108793113Y-58034199D01*
X108799186Y-58032500D01*
X109780814Y-58032500D01*
X109789087Y-58035927D01*
G37*
%TD.AperFunction*%
%TD*%
%TA.AperFunction,Conductor*%
%TO.N,+3.3V*%
G36*
X132978002Y-88507570D02*
G01*
X132978535Y-88508103D01*
X133687211Y-89263980D01*
X133690370Y-89272359D01*
X133690089Y-89274557D01*
X133472059Y-90240875D01*
X133466895Y-90248191D01*
X133460646Y-90250000D01*
X132479354Y-90250000D01*
X132471081Y-90246573D01*
X132467941Y-90240875D01*
X132249910Y-89274557D01*
X132251432Y-89265733D01*
X132252788Y-89263980D01*
X132961465Y-88508103D01*
X132969623Y-88504411D01*
X132978002Y-88507570D01*
G37*
%TD.AperFunction*%
%TD*%
%TA.AperFunction,Conductor*%
%TO.N,Net-(J1-Pin_2)*%
G36*
X102840677Y-109938065D02*
G01*
X102848082Y-109943102D01*
X102850000Y-109949521D01*
X102850000Y-110930478D01*
X102846573Y-110938751D01*
X102840677Y-110941934D01*
X101484751Y-111223332D01*
X101475955Y-111221658D01*
X101471569Y-111216365D01*
X101150865Y-110444489D01*
X101150856Y-110435534D01*
X101150865Y-110435511D01*
X101471570Y-109663632D01*
X101477908Y-109657309D01*
X101484749Y-109656667D01*
X102840677Y-109938065D01*
G37*
%TD.AperFunction*%
%TD*%
%TA.AperFunction,Conductor*%
%TO.N,RX_I*%
G36*
X114097633Y-89028143D02*
G01*
X114593941Y-89662343D01*
X114596341Y-89670971D01*
X114593503Y-89677292D01*
X113985102Y-90367345D01*
X113977060Y-90371284D01*
X113968588Y-90368383D01*
X113968053Y-90367880D01*
X113623806Y-90023633D01*
X113622880Y-90022590D01*
X113295764Y-89606372D01*
X113293347Y-89597752D01*
X113297734Y-89589945D01*
X113298108Y-89589663D01*
X114081585Y-89025856D01*
X114090302Y-89023806D01*
X114097633Y-89028143D01*
G37*
%TD.AperFunction*%
%TD*%
%TA.AperFunction,Conductor*%
%TO.N,Net-(U6A--)*%
G36*
X111721947Y-84613427D02*
G01*
X111723464Y-84615293D01*
X112140362Y-85252296D01*
X112142025Y-85261095D01*
X112139008Y-85266810D01*
X111528058Y-85902613D01*
X111519855Y-85906204D01*
X111511566Y-85902991D01*
X110851523Y-85276273D01*
X110847883Y-85268091D01*
X110849406Y-85262009D01*
X111216636Y-84615919D01*
X111223704Y-84610419D01*
X111226808Y-84610000D01*
X111713674Y-84610000D01*
X111721947Y-84613427D01*
G37*
%TD.AperFunction*%
%TD*%
%TA.AperFunction,Conductor*%
%TO.N,Net-(CC2-Pad2)*%
G36*
X104543717Y-89357859D02*
G01*
X104550972Y-89363109D01*
X104552707Y-89369241D01*
X104552707Y-90350758D01*
X104549280Y-90359031D01*
X104543717Y-90362140D01*
X102953937Y-90740717D01*
X102945095Y-90739300D01*
X102941180Y-90735330D01*
X102422574Y-89865992D01*
X102421280Y-89857134D01*
X102422573Y-89854010D01*
X102941181Y-88984668D01*
X102948361Y-88979321D01*
X102953933Y-88979282D01*
X104543717Y-89357859D01*
G37*
%TD.AperFunction*%
%TD*%
%TA.AperFunction,Conductor*%
%TO.N,+5V*%
G36*
X134516545Y-82249896D02*
G01*
X135812195Y-82707244D01*
X135818855Y-82713229D01*
X135820000Y-82718277D01*
X135820000Y-83701722D01*
X135816573Y-83709995D01*
X135812194Y-83712755D01*
X134516553Y-84170100D01*
X134507611Y-84169622D01*
X134506609Y-84169081D01*
X132935575Y-83220013D01*
X132930267Y-83212803D01*
X132931612Y-83203950D01*
X132935575Y-83199986D01*
X134506611Y-82250917D01*
X134515462Y-82249573D01*
X134516545Y-82249896D01*
G37*
%TD.AperFunction*%
%TD*%
%TA.AperFunction,Conductor*%
%TO.N,Net-(U2-2A)*%
G36*
X109541763Y-61160927D02*
G01*
X109543432Y-61163033D01*
X109947605Y-61814595D01*
X109949054Y-61823431D01*
X109945927Y-61829044D01*
X109298264Y-62475254D01*
X109289987Y-62478672D01*
X109281736Y-62475254D01*
X109009824Y-62203952D01*
X108634071Y-61829042D01*
X108630636Y-61820775D01*
X108632393Y-61814597D01*
X109036568Y-61163033D01*
X109043841Y-61157809D01*
X109046510Y-61157500D01*
X109533490Y-61157500D01*
X109541763Y-61160927D01*
G37*
%TD.AperFunction*%
%TD*%
%TA.AperFunction,Conductor*%
%TO.N,Net-(U2-2B2)*%
G36*
X103592437Y-68817141D02*
G01*
X103598964Y-68823272D01*
X103600000Y-68828085D01*
X103600000Y-69311914D01*
X103596573Y-69320187D01*
X103592437Y-69322858D01*
X102316741Y-69805099D01*
X102307791Y-69804819D01*
X102301801Y-69798646D01*
X102000864Y-69074487D01*
X102000854Y-69065538D01*
X102301801Y-68341352D01*
X102308139Y-68335029D01*
X102316739Y-68334900D01*
X103592437Y-68817141D01*
G37*
%TD.AperFunction*%
%TD*%
%TA.AperFunction,Conductor*%
%TO.N,+3.3V*%
G36*
X108061641Y-114712179D02*
G01*
X108066139Y-114717546D01*
X108405935Y-115535512D01*
X108405944Y-115544466D01*
X108405935Y-115544488D01*
X108066202Y-116362302D01*
X108059863Y-116368628D01*
X108052702Y-116369199D01*
X106618291Y-116029631D01*
X106611030Y-116024391D01*
X106609286Y-116018246D01*
X106609286Y-115036910D01*
X106612713Y-115028637D01*
X106618475Y-115025482D01*
X108052826Y-114710606D01*
X108061641Y-114712179D01*
G37*
%TD.AperFunction*%
%TD*%
%TA.AperFunction,Conductor*%
%TO.N,RX_I*%
G36*
X114817178Y-88391405D02*
G01*
X115311313Y-88571816D01*
X115315572Y-88574532D01*
X115658154Y-88917114D01*
X115661581Y-88925387D01*
X115658154Y-88933660D01*
X115657289Y-88934443D01*
X114951258Y-89512010D01*
X114942685Y-89514596D01*
X114937979Y-89513074D01*
X114103395Y-89028888D01*
X114097958Y-89021772D01*
X114099146Y-89012897D01*
X114101554Y-89009969D01*
X114805459Y-88393593D01*
X114813940Y-88390722D01*
X114817178Y-88391405D01*
G37*
%TD.AperFunction*%
%TD*%
%TA.AperFunction,Conductor*%
%TO.N,GND*%
G36*
X96399588Y-121832330D02*
G01*
X96577670Y-122010412D01*
X96679300Y-122084251D01*
X95184648Y-123578903D01*
X95184649Y-123578904D01*
X95442206Y-123787468D01*
X95571610Y-123871505D01*
X95617113Y-123924526D01*
X95626727Y-123993731D01*
X95597400Y-124057148D01*
X95538443Y-124094642D01*
X95504075Y-124099500D01*
X94424500Y-124099500D01*
X94357461Y-124079815D01*
X94311706Y-124027011D01*
X94300500Y-123975500D01*
X94300500Y-122890526D01*
X94320185Y-122823487D01*
X94372989Y-122777732D01*
X94442147Y-122767788D01*
X94505703Y-122796813D01*
X94528495Y-122822991D01*
X94622531Y-122967793D01*
X94831095Y-123225350D01*
X94831096Y-123225350D01*
X96325748Y-121730698D01*
X96399588Y-121832330D01*
G37*
%TD.AperFunction*%
%TA.AperFunction,Conductor*%
G36*
X105193429Y-54120185D02*
G01*
X105239184Y-54172989D01*
X105249748Y-54237103D01*
X105240000Y-54332513D01*
X105240000Y-55732500D01*
X107589999Y-55732500D01*
X107589999Y-54332528D01*
X107589998Y-54332510D01*
X107580252Y-54237101D01*
X107593022Y-54168408D01*
X107640903Y-54117524D01*
X107703610Y-54100500D01*
X107990887Y-54100500D01*
X108057926Y-54120185D01*
X108103681Y-54172989D01*
X108114245Y-54237103D01*
X108104500Y-54332483D01*
X108104500Y-57132501D01*
X108104501Y-57132518D01*
X108115000Y-57235296D01*
X108115001Y-57235299D01*
X108133480Y-57291065D01*
X108148883Y-57337548D01*
X108152809Y-57352441D01*
X108201228Y-57596814D01*
X108274195Y-57965089D01*
X108273015Y-58018625D01*
X108233871Y-58178807D01*
X108198835Y-58239257D01*
X108136679Y-58271169D01*
X108135156Y-58271450D01*
X107665552Y-58355079D01*
X107643812Y-58357000D01*
X107425523Y-58357000D01*
X107358484Y-58337315D01*
X107312729Y-58284511D01*
X107302785Y-58215353D01*
X107331810Y-58151797D01*
X107337842Y-58145319D01*
X107432315Y-58050845D01*
X107524356Y-57901624D01*
X107524358Y-57901619D01*
X107579505Y-57735197D01*
X107579506Y-57735190D01*
X107589999Y-57632486D01*
X107590000Y-57632473D01*
X107590000Y-56232500D01*
X105240001Y-56232500D01*
X105240001Y-57632486D01*
X105250494Y-57735197D01*
X105305641Y-57901619D01*
X105305643Y-57901624D01*
X105397684Y-58050845D01*
X105521654Y-58174815D01*
X105670875Y-58266856D01*
X105670880Y-58266858D01*
X105740823Y-58290035D01*
X105798268Y-58329808D01*
X105825091Y-58394323D01*
X105812776Y-58463099D01*
X105765233Y-58514299D01*
X105745156Y-58523921D01*
X105739046Y-58526199D01*
X105739034Y-58526206D01*
X105623825Y-58612452D01*
X105623822Y-58612455D01*
X105537576Y-58727664D01*
X105537572Y-58727671D01*
X105487278Y-58862517D01*
X105483426Y-58898352D01*
X105456688Y-58962903D01*
X105399296Y-59002752D01*
X105329471Y-59005245D01*
X105269382Y-58969593D01*
X105258562Y-58956221D01*
X105241027Y-58931179D01*
X105080190Y-58770342D01*
X104893852Y-58639865D01*
X104687698Y-58543734D01*
X104491370Y-58491127D01*
X104491370Y-59454314D01*
X104486976Y-59449920D01*
X104395764Y-59397259D01*
X104294031Y-59370000D01*
X104188709Y-59370000D01*
X104086976Y-59397259D01*
X103995764Y-59449920D01*
X103991370Y-59454314D01*
X103991370Y-58491127D01*
X103795041Y-58543734D01*
X103588887Y-58639865D01*
X103402549Y-58770342D01*
X103241712Y-58931179D01*
X103111235Y-59117517D01*
X103015104Y-59323673D01*
X103015100Y-59323682D01*
X102962497Y-59519999D01*
X102962498Y-59520000D01*
X103925684Y-59520000D01*
X103921290Y-59524394D01*
X103868629Y-59615606D01*
X103841370Y-59717339D01*
X103841370Y-59822661D01*
X103868629Y-59924394D01*
X103921290Y-60015606D01*
X103925684Y-60020000D01*
X102962498Y-60020000D01*
X103015100Y-60216317D01*
X103015104Y-60216326D01*
X103111235Y-60422482D01*
X103241712Y-60608820D01*
X103402549Y-60769657D01*
X103588887Y-60900134D01*
X103795043Y-60996265D01*
X103795052Y-60996269D01*
X103991369Y-61048872D01*
X103991370Y-61048871D01*
X103991370Y-60085686D01*
X103995764Y-60090080D01*
X104086976Y-60142741D01*
X104188709Y-60170000D01*
X104294031Y-60170000D01*
X104395764Y-60142741D01*
X104486976Y-60090080D01*
X104491370Y-60085686D01*
X104491370Y-61048872D01*
X104687687Y-60996269D01*
X104687696Y-60996265D01*
X104893852Y-60900134D01*
X105080190Y-60769657D01*
X105241028Y-60608819D01*
X105258561Y-60583780D01*
X105313138Y-60540154D01*
X105382636Y-60532960D01*
X105444991Y-60564482D01*
X105480406Y-60624711D01*
X105483427Y-60641649D01*
X105487278Y-60677483D01*
X105500038Y-60711692D01*
X105504975Y-60728452D01*
X105510697Y-60754536D01*
X105510701Y-60754547D01*
X105719342Y-61310926D01*
X105725152Y-61377108D01*
X105680374Y-61618205D01*
X105648779Y-61680523D01*
X105588508Y-61715866D01*
X105518696Y-61713014D01*
X105461509Y-61672871D01*
X105459192Y-61669873D01*
X105401501Y-61592809D01*
X105286408Y-61506649D01*
X105286401Y-61506645D01*
X105151694Y-61456403D01*
X105151687Y-61456401D01*
X105092159Y-61450000D01*
X104494315Y-61450000D01*
X104494315Y-62434314D01*
X104489921Y-62429920D01*
X104398709Y-62377259D01*
X104296976Y-62350000D01*
X104191654Y-62350000D01*
X104089921Y-62377259D01*
X103998709Y-62429920D01*
X103994315Y-62434314D01*
X103994315Y-61450000D01*
X103396470Y-61450000D01*
X103336942Y-61456401D01*
X103336935Y-61456403D01*
X103202228Y-61506645D01*
X103202221Y-61506649D01*
X103087127Y-61592809D01*
X103087124Y-61592812D01*
X103000964Y-61707906D01*
X103000960Y-61707913D01*
X102950718Y-61842620D01*
X102950716Y-61842627D01*
X102944315Y-61902155D01*
X102944315Y-62500000D01*
X103928629Y-62500000D01*
X103924235Y-62504394D01*
X103871574Y-62595606D01*
X103844315Y-62697339D01*
X103844315Y-62802661D01*
X103871574Y-62904394D01*
X103924235Y-62995606D01*
X103928629Y-63000000D01*
X102944315Y-63000000D01*
X102944315Y-63597844D01*
X102950716Y-63657372D01*
X102950718Y-63657379D01*
X103000960Y-63792086D01*
X103000964Y-63792093D01*
X103087124Y-63907187D01*
X103087127Y-63907190D01*
X103202221Y-63993350D01*
X103202228Y-63993354D01*
X103336935Y-64043596D01*
X103336942Y-64043598D01*
X103396470Y-64049999D01*
X103396487Y-64050000D01*
X103994315Y-64050000D01*
X103994315Y-63065686D01*
X103998709Y-63070080D01*
X104089921Y-63122741D01*
X104191654Y-63150000D01*
X104296976Y-63150000D01*
X104398709Y-63122741D01*
X104489921Y-63070080D01*
X104494315Y-63065686D01*
X104494315Y-64050000D01*
X105092143Y-64050000D01*
X105092159Y-64049999D01*
X105151687Y-64043598D01*
X105151694Y-64043596D01*
X105286401Y-63993354D01*
X105286408Y-63993350D01*
X105401502Y-63907190D01*
X105401505Y-63907187D01*
X105487665Y-63792093D01*
X105487669Y-63792086D01*
X105537911Y-63657380D01*
X105541739Y-63621781D01*
X105568477Y-63557230D01*
X105625870Y-63517382D01*
X105695695Y-63514888D01*
X105755784Y-63550540D01*
X105766604Y-63563912D01*
X105784271Y-63589143D01*
X105945173Y-63750045D01*
X105945176Y-63750047D01*
X106131581Y-63880568D01*
X106337819Y-63976739D01*
X106337824Y-63976740D01*
X106337826Y-63976741D01*
X106390730Y-63990916D01*
X106557623Y-64035635D01*
X106719545Y-64049801D01*
X106784313Y-64055468D01*
X106784315Y-64055468D01*
X106784317Y-64055468D01*
X106846826Y-64049999D01*
X107011007Y-64035635D01*
X107230811Y-63976739D01*
X107437049Y-63880568D01*
X107614377Y-63756403D01*
X107680583Y-63734076D01*
X107748351Y-63751087D01*
X107796163Y-63802035D01*
X107809500Y-63857978D01*
X107809500Y-65630500D01*
X107789815Y-65697539D01*
X107737011Y-65743294D01*
X107685500Y-65754500D01*
X107171999Y-65754500D01*
X107137404Y-65749576D01*
X107114999Y-65743067D01*
X107078099Y-65732346D01*
X107078096Y-65732345D01*
X107041935Y-65729500D01*
X105588077Y-65729500D01*
X105588052Y-65729501D01*
X105551901Y-65732346D01*
X105397110Y-65777317D01*
X105397103Y-65777320D01*
X105258363Y-65859369D01*
X105258351Y-65859378D01*
X105144378Y-65973351D01*
X105144369Y-65973363D01*
X105062320Y-66112103D01*
X105062317Y-66112110D01*
X105017346Y-66266897D01*
X105017345Y-66266903D01*
X105014500Y-66303057D01*
X105014500Y-66706922D01*
X105014501Y-66706947D01*
X105017346Y-66743098D01*
X105053025Y-66865905D01*
X105052826Y-66935774D01*
X105014884Y-66994444D01*
X104951246Y-67023288D01*
X104933949Y-67024500D01*
X103034852Y-67024500D01*
X102967813Y-67004815D01*
X102922058Y-66952011D01*
X102912114Y-66882853D01*
X102918863Y-66856654D01*
X102957291Y-66755000D01*
X103217942Y-66065486D01*
X103225121Y-66043526D01*
X103230589Y-66029681D01*
X103236739Y-66016496D01*
X103295635Y-65796692D01*
X103315468Y-65570000D01*
X103295635Y-65343308D01*
X103236739Y-65123504D01*
X103140568Y-64917266D01*
X103010047Y-64730861D01*
X103010045Y-64730858D01*
X102849141Y-64569954D01*
X102662734Y-64439432D01*
X102662732Y-64439431D01*
X102456497Y-64343261D01*
X102456488Y-64343258D01*
X102236697Y-64284366D01*
X102236693Y-64284365D01*
X102236692Y-64284365D01*
X102236691Y-64284364D01*
X102236686Y-64284364D01*
X102010002Y-64264532D01*
X102009998Y-64264532D01*
X101783313Y-64284364D01*
X101783302Y-64284366D01*
X101563511Y-64343258D01*
X101563502Y-64343261D01*
X101357267Y-64439431D01*
X101357265Y-64439432D01*
X101170858Y-64569954D01*
X101009954Y-64730858D01*
X100879432Y-64917265D01*
X100879431Y-64917267D01*
X100783261Y-65123502D01*
X100783258Y-65123511D01*
X100724366Y-65343302D01*
X100724364Y-65343313D01*
X100704532Y-65569998D01*
X100704532Y-65570001D01*
X100724364Y-65796686D01*
X100724366Y-65796697D01*
X100783258Y-66016488D01*
X100783263Y-66016502D01*
X100792646Y-66036623D01*
X100801310Y-66062124D01*
X100802057Y-66065484D01*
X100802058Y-66065486D01*
X100802062Y-66065499D01*
X100931878Y-66408907D01*
X101062708Y-66755000D01*
X101101136Y-66856654D01*
X101106428Y-66926322D01*
X101073215Y-66987793D01*
X101012040Y-67021549D01*
X100985147Y-67024500D01*
X99231080Y-67024500D01*
X99086092Y-67053340D01*
X99086082Y-67053343D01*
X98949511Y-67109912D01*
X98949499Y-67109919D01*
X98920385Y-67129373D01*
X98920384Y-67129373D01*
X98826585Y-67192046D01*
X98826578Y-67192052D01*
X98587050Y-67431580D01*
X98587044Y-67431588D01*
X98537812Y-67505268D01*
X98537813Y-67505269D01*
X98504921Y-67554496D01*
X98504914Y-67554508D01*
X98448342Y-67691086D01*
X98448340Y-67691092D01*
X98419500Y-67836079D01*
X98419500Y-67836082D01*
X98419500Y-85113918D01*
X98419500Y-85113920D01*
X98419499Y-85113920D01*
X98448340Y-85258907D01*
X98448343Y-85258917D01*
X98504912Y-85395488D01*
X98504919Y-85395501D01*
X98587048Y-85518415D01*
X98587051Y-85518419D01*
X98691580Y-85622948D01*
X98691584Y-85622951D01*
X98814498Y-85705080D01*
X98814511Y-85705087D01*
X98951082Y-85761656D01*
X98951087Y-85761658D01*
X98951091Y-85761658D01*
X98951092Y-85761659D01*
X99096079Y-85790500D01*
X99096082Y-85790500D01*
X99243918Y-85790500D01*
X106095500Y-85790500D01*
X106162539Y-85810185D01*
X106208294Y-85862989D01*
X106219500Y-85914500D01*
X106219500Y-86600001D01*
X106219501Y-86600019D01*
X106230000Y-86702796D01*
X106230001Y-86702799D01*
X106274304Y-86836496D01*
X106276706Y-86906325D01*
X106240974Y-86966366D01*
X106178453Y-86997559D01*
X106156598Y-86999500D01*
X105734998Y-86999500D01*
X105734980Y-86999501D01*
X105632203Y-87010000D01*
X105632200Y-87010001D01*
X105465668Y-87065185D01*
X105465663Y-87065187D01*
X105316342Y-87157289D01*
X105192289Y-87281342D01*
X105100187Y-87430663D01*
X105100185Y-87430668D01*
X105072349Y-87514670D01*
X105045001Y-87597203D01*
X105045001Y-87597204D01*
X105045000Y-87597204D01*
X105034500Y-87699983D01*
X105034500Y-88789067D01*
X105014815Y-88856106D01*
X104962011Y-88901861D01*
X104892853Y-88911805D01*
X104863050Y-88903629D01*
X104849340Y-88897950D01*
X104849328Y-88897947D01*
X104740082Y-88876217D01*
X104710064Y-88870246D01*
X104656043Y-88859500D01*
X104656041Y-88859500D01*
X104647625Y-88859500D01*
X104618900Y-88856127D01*
X103071038Y-88487532D01*
X103071032Y-88487531D01*
X103024507Y-88482232D01*
X103019143Y-88481502D01*
X102880227Y-88459500D01*
X102880222Y-88459500D01*
X101959778Y-88459500D01*
X101887201Y-88470995D01*
X101742047Y-88493985D01*
X101532396Y-88562103D01*
X101532393Y-88562104D01*
X101335974Y-88662187D01*
X101157641Y-88791752D01*
X101157636Y-88791756D01*
X101001756Y-88947636D01*
X101001756Y-88947637D01*
X100872187Y-89125974D01*
X100772104Y-89322393D01*
X100772103Y-89322396D01*
X100703985Y-89532047D01*
X100703985Y-89532049D01*
X100669500Y-89749778D01*
X100669500Y-89970222D01*
X100674296Y-90000500D01*
X100703985Y-90187952D01*
X100772103Y-90397603D01*
X100772104Y-90397606D01*
X100810496Y-90472952D01*
X100852345Y-90555085D01*
X100872187Y-90594025D01*
X101001752Y-90772358D01*
X101001756Y-90772363D01*
X101157636Y-90928243D01*
X101157641Y-90928247D01*
X101269727Y-91009682D01*
X101312393Y-91065011D01*
X101318372Y-91134625D01*
X101285767Y-91196420D01*
X101269727Y-91210318D01*
X101157641Y-91291752D01*
X101157636Y-91291756D01*
X101001756Y-91447636D01*
X101001752Y-91447641D01*
X100872187Y-91625974D01*
X100772104Y-91822393D01*
X100772103Y-91822396D01*
X100703985Y-92032047D01*
X100677976Y-92196260D01*
X100669500Y-92249778D01*
X100669500Y-92470222D01*
X100686742Y-92579086D01*
X100703985Y-92687952D01*
X100772103Y-92897603D01*
X100772104Y-92897606D01*
X100872187Y-93094025D01*
X101001752Y-93272358D01*
X101001756Y-93272363D01*
X101157636Y-93428243D01*
X101157641Y-93428247D01*
X101313192Y-93541260D01*
X101335978Y-93557815D01*
X101464375Y-93623237D01*
X101532393Y-93657895D01*
X101532396Y-93657896D01*
X101630166Y-93689662D01*
X101742049Y-93726015D01*
X101745993Y-93726639D01*
X101809126Y-93756564D01*
X101846062Y-93815873D01*
X101845069Y-93885735D01*
X101806463Y-93943971D01*
X101791879Y-93954539D01*
X101753959Y-93978018D01*
X101753958Y-93978019D01*
X101603237Y-94115418D01*
X101480327Y-94278178D01*
X101389422Y-94460739D01*
X101389417Y-94460752D01*
X101333602Y-94656917D01*
X101314785Y-94859999D01*
X101314785Y-94860000D01*
X101333602Y-95063082D01*
X101389417Y-95259247D01*
X101389422Y-95259260D01*
X101480327Y-95441821D01*
X101603237Y-95604581D01*
X101753958Y-95741980D01*
X101753960Y-95741982D01*
X101791877Y-95765459D01*
X101838513Y-95817486D01*
X101849617Y-95886468D01*
X101821664Y-95950502D01*
X101763529Y-95989259D01*
X101746006Y-95993358D01*
X101742049Y-95993985D01*
X101742047Y-95993985D01*
X101742044Y-95993986D01*
X101532396Y-96062103D01*
X101532393Y-96062104D01*
X101335974Y-96162187D01*
X101157641Y-96291752D01*
X101157636Y-96291756D01*
X101001756Y-96447636D01*
X101001752Y-96447641D01*
X100872187Y-96625974D01*
X100772104Y-96822393D01*
X100772103Y-96822396D01*
X100703985Y-97032047D01*
X100669500Y-97249778D01*
X100669500Y-97470221D01*
X100703985Y-97687952D01*
X100772103Y-97897603D01*
X100772104Y-97897606D01*
X100872187Y-98094025D01*
X101001752Y-98272358D01*
X101001756Y-98272363D01*
X101157636Y-98428243D01*
X101157641Y-98428247D01*
X101269727Y-98509682D01*
X101312393Y-98565011D01*
X101318372Y-98634625D01*
X101285767Y-98696420D01*
X101269727Y-98710318D01*
X101157641Y-98791752D01*
X101157636Y-98791756D01*
X101001756Y-98947636D01*
X101001752Y-98947641D01*
X100872189Y-99125971D01*
X100872186Y-99125976D01*
X100872185Y-99125978D01*
X100850232Y-99169063D01*
X100772104Y-99322393D01*
X100772103Y-99322396D01*
X100703985Y-99532047D01*
X100669500Y-99749778D01*
X100669500Y-99970221D01*
X100703985Y-100187952D01*
X100772103Y-100397603D01*
X100772104Y-100397606D01*
X100872187Y-100594025D01*
X101001752Y-100772358D01*
X101001756Y-100772363D01*
X101157636Y-100928243D01*
X101157641Y-100928247D01*
X101213526Y-100968849D01*
X101335978Y-101057815D01*
X101464375Y-101123237D01*
X101532393Y-101157895D01*
X101532396Y-101157896D01*
X101637221Y-101191955D01*
X101742049Y-101226015D01*
X101959778Y-101260500D01*
X101959779Y-101260500D01*
X102880221Y-101260500D01*
X102880222Y-101260500D01*
X103034380Y-101236082D01*
X103042513Y-101235069D01*
X103063885Y-101233119D01*
X103071038Y-101232467D01*
X104618896Y-100863873D01*
X104647621Y-100860500D01*
X105868542Y-100860500D01*
X105887870Y-100856655D01*
X105965188Y-100841275D01*
X106061836Y-100822051D01*
X106115165Y-100799961D01*
X106243914Y-100746632D01*
X106407782Y-100637139D01*
X106547139Y-100497782D01*
X106547139Y-100497780D01*
X106557347Y-100487573D01*
X106557349Y-100487570D01*
X106792702Y-100252216D01*
X106854023Y-100218733D01*
X106923715Y-100223717D01*
X106979648Y-100265589D01*
X107003957Y-100329659D01*
X107020664Y-100531297D01*
X107020666Y-100531308D01*
X107077642Y-100756300D01*
X107170875Y-100968848D01*
X107297816Y-101163147D01*
X107297819Y-101163151D01*
X107297821Y-101163153D01*
X107455016Y-101333913D01*
X107455019Y-101333915D01*
X107455022Y-101333918D01*
X107632618Y-101472147D01*
X107673431Y-101528857D01*
X107677106Y-101598630D01*
X107642474Y-101659313D01*
X107632618Y-101667853D01*
X107455022Y-101806081D01*
X107455019Y-101806084D01*
X107297816Y-101976852D01*
X107170875Y-102171151D01*
X107077642Y-102383699D01*
X107020666Y-102608691D01*
X107020664Y-102608702D01*
X107001500Y-102839993D01*
X107001500Y-102840006D01*
X107020664Y-103071297D01*
X107020666Y-103071308D01*
X107077642Y-103296300D01*
X107170875Y-103508848D01*
X107297816Y-103703147D01*
X107297819Y-103703151D01*
X107297821Y-103703153D01*
X107455016Y-103873913D01*
X107455019Y-103873915D01*
X107455022Y-103873918D01*
X107632618Y-104012147D01*
X107673431Y-104068857D01*
X107677106Y-104138630D01*
X107642474Y-104199313D01*
X107632618Y-104207853D01*
X107455022Y-104346081D01*
X107455019Y-104346084D01*
X107297816Y-104516852D01*
X107170875Y-104711151D01*
X107077642Y-104923699D01*
X107020666Y-105148691D01*
X107020664Y-105148702D01*
X107001500Y-105379993D01*
X107001500Y-105380006D01*
X107020664Y-105611297D01*
X107020666Y-105611308D01*
X107077642Y-105836300D01*
X107170875Y-106048848D01*
X107297816Y-106243147D01*
X107297819Y-106243151D01*
X107297821Y-106243153D01*
X107455016Y-106413913D01*
X107535169Y-106476298D01*
X107575982Y-106533009D01*
X107579657Y-106602782D01*
X107545026Y-106663465D01*
X107485023Y-106695392D01*
X106546711Y-106896740D01*
X106520695Y-106899500D01*
X102986674Y-106899500D01*
X102939461Y-106890160D01*
X102929569Y-106886087D01*
X102311958Y-106631776D01*
X102199676Y-106585542D01*
X102136789Y-106566568D01*
X102129280Y-106564038D01*
X102107483Y-106555909D01*
X102107479Y-106555908D01*
X102047883Y-106549501D01*
X102047881Y-106549500D01*
X102047873Y-106549500D01*
X102047865Y-106549500D01*
X101952842Y-106549500D01*
X101948337Y-106549418D01*
X101945490Y-106549314D01*
X101941988Y-106549500D01*
X100252129Y-106549500D01*
X100252123Y-106549501D01*
X100192516Y-106555908D01*
X100057671Y-106606202D01*
X100057664Y-106606206D01*
X99942455Y-106692452D01*
X99942452Y-106692455D01*
X99856206Y-106807664D01*
X99856202Y-106807671D01*
X99805908Y-106942517D01*
X99799501Y-107002116D01*
X99799500Y-107002135D01*
X99799500Y-108797870D01*
X99799501Y-108797876D01*
X99805908Y-108857483D01*
X99856202Y-108992328D01*
X99856206Y-108992335D01*
X99942452Y-109107544D01*
X99942455Y-109107547D01*
X100057664Y-109193793D01*
X100057671Y-109193797D01*
X100189081Y-109242810D01*
X100245015Y-109284681D01*
X100269432Y-109350145D01*
X100254580Y-109418418D01*
X100233430Y-109446673D01*
X100111503Y-109568600D01*
X99975965Y-109762169D01*
X99975964Y-109762171D01*
X99876098Y-109976335D01*
X99876094Y-109976344D01*
X99814938Y-110204586D01*
X99814936Y-110204596D01*
X99794341Y-110439999D01*
X99794341Y-110440000D01*
X99814936Y-110675403D01*
X99814938Y-110675413D01*
X99876094Y-110903655D01*
X99876096Y-110903659D01*
X99876097Y-110903663D01*
X99975965Y-111117830D01*
X99975967Y-111117834D01*
X100111501Y-111311395D01*
X100111506Y-111311402D01*
X100278597Y-111478493D01*
X100278603Y-111478498D01*
X100464594Y-111608730D01*
X100508219Y-111663307D01*
X100515413Y-111732805D01*
X100483890Y-111795160D01*
X100464595Y-111811880D01*
X100278922Y-111941890D01*
X100278920Y-111941891D01*
X100111891Y-112108920D01*
X100111886Y-112108926D01*
X99976400Y-112302420D01*
X99976399Y-112302422D01*
X99876570Y-112516507D01*
X99876567Y-112516513D01*
X99819364Y-112729999D01*
X99819364Y-112730000D01*
X100716988Y-112730000D01*
X100684075Y-112787007D01*
X100650000Y-112914174D01*
X100650000Y-113045826D01*
X100684075Y-113172993D01*
X100716988Y-113230000D01*
X99819364Y-113230000D01*
X99876567Y-113443486D01*
X99876570Y-113443492D01*
X99976399Y-113657578D01*
X100111894Y-113851082D01*
X100278917Y-114018105D01*
X100472421Y-114153600D01*
X100686507Y-114253429D01*
X100686516Y-114253433D01*
X100900000Y-114310634D01*
X100900000Y-113413012D01*
X100957007Y-113445925D01*
X101084174Y-113480000D01*
X101215826Y-113480000D01*
X101342993Y-113445925D01*
X101400000Y-113413012D01*
X101400000Y-114310633D01*
X101613483Y-114253433D01*
X101613492Y-114253429D01*
X101827578Y-114153600D01*
X102021082Y-114018105D01*
X102188105Y-113851082D01*
X102323600Y-113657578D01*
X102423429Y-113443492D01*
X102423432Y-113443486D01*
X102480636Y-113230000D01*
X101583012Y-113230000D01*
X101615925Y-113172993D01*
X101650000Y-113045826D01*
X101650000Y-112914174D01*
X101615925Y-112787007D01*
X101583012Y-112730000D01*
X102480636Y-112730000D01*
X102480635Y-112729999D01*
X102423432Y-112516513D01*
X102423429Y-112516507D01*
X102323600Y-112302422D01*
X102323599Y-112302420D01*
X102188113Y-112108926D01*
X102188108Y-112108920D01*
X102021078Y-111941890D01*
X101910763Y-111864646D01*
X101867138Y-111810069D01*
X101859946Y-111740571D01*
X101891468Y-111678216D01*
X101951698Y-111642803D01*
X101956626Y-111641673D01*
X102913525Y-111443086D01*
X102938722Y-111440500D01*
X106515004Y-111440500D01*
X106544186Y-111443983D01*
X107515916Y-111679277D01*
X107576439Y-111714185D01*
X107608482Y-111776274D01*
X107610495Y-111807478D01*
X107608000Y-111847647D01*
X108270858Y-112510504D01*
X108210719Y-112526619D01*
X108094880Y-112593498D01*
X108000298Y-112688080D01*
X107933419Y-112803919D01*
X107917304Y-112864058D01*
X107255611Y-112202365D01*
X107171316Y-112331390D01*
X107078117Y-112543864D01*
X107021161Y-112768781D01*
X107002002Y-112999994D01*
X107002002Y-113000005D01*
X107021161Y-113231218D01*
X107078117Y-113456135D01*
X107171315Y-113668606D01*
X107255612Y-113797633D01*
X107917304Y-113135941D01*
X107933419Y-113196081D01*
X108000298Y-113311920D01*
X108094880Y-113406502D01*
X108210719Y-113473381D01*
X108270857Y-113489495D01*
X107608001Y-114152351D01*
X107609894Y-114182835D01*
X107594401Y-114250966D01*
X107544534Y-114299905D01*
X107512720Y-114311635D01*
X106544811Y-114524116D01*
X106518223Y-114527000D01*
X105756192Y-114527000D01*
X105734452Y-114525079D01*
X104946092Y-114384685D01*
X104928834Y-114380314D01*
X104912801Y-114375002D01*
X104912795Y-114375000D01*
X104867908Y-114370414D01*
X104858801Y-114369140D01*
X104854736Y-114368417D01*
X104854712Y-114368413D01*
X104854694Y-114368410D01*
X104808261Y-114362344D01*
X104807988Y-114362321D01*
X104806107Y-114362163D01*
X104701159Y-114363856D01*
X104691807Y-114364500D01*
X103409998Y-114364500D01*
X103409981Y-114364501D01*
X103307203Y-114375000D01*
X103307200Y-114375001D01*
X103140668Y-114430185D01*
X103140663Y-114430187D01*
X102991342Y-114522289D01*
X102867289Y-114646342D01*
X102775187Y-114795663D01*
X102775186Y-114795666D01*
X102720001Y-114962203D01*
X102720001Y-114962204D01*
X102720000Y-114962204D01*
X102709500Y-115064983D01*
X102709500Y-115990001D01*
X102709501Y-115990019D01*
X102720000Y-116092796D01*
X102720001Y-116092799D01*
X102758457Y-116208849D01*
X102775186Y-116259334D01*
X102867288Y-116408656D01*
X102991344Y-116532712D01*
X103140666Y-116624814D01*
X103307203Y-116679999D01*
X103409991Y-116690500D01*
X104695303Y-116690499D01*
X104704793Y-116691274D01*
X104704811Y-116691004D01*
X104710888Y-116691397D01*
X104710891Y-116691396D01*
X104710898Y-116691398D01*
X104734692Y-116690602D01*
X104735712Y-116690568D01*
X104739855Y-116690499D01*
X104810004Y-116690499D01*
X104810008Y-116690499D01*
X104840968Y-116687335D01*
X104849416Y-116686764D01*
X104854698Y-116686588D01*
X104857877Y-116686021D01*
X104858756Y-116685865D01*
X104867910Y-116684583D01*
X104912797Y-116679999D01*
X104928840Y-116674682D01*
X104946090Y-116670312D01*
X105718773Y-116532712D01*
X105734446Y-116529921D01*
X105756186Y-116528000D01*
X106514675Y-116528000D01*
X106543239Y-116531334D01*
X107936253Y-116861103D01*
X107945388Y-116863138D01*
X107958651Y-116866880D01*
X108035554Y-116893281D01*
X108061818Y-116902298D01*
X108176285Y-116921399D01*
X108290751Y-116940500D01*
X108290752Y-116940500D01*
X108522848Y-116940500D01*
X108522849Y-116940500D01*
X108751781Y-116902298D01*
X108971303Y-116826936D01*
X109175426Y-116716470D01*
X109208793Y-116690500D01*
X109293186Y-116624814D01*
X109358584Y-116573913D01*
X109515779Y-116403153D01*
X109642724Y-116208849D01*
X109735957Y-115996300D01*
X109792934Y-115771305D01*
X109812100Y-115540000D01*
X109812100Y-115539993D01*
X109792935Y-115308702D01*
X109792933Y-115308691D01*
X109735957Y-115083699D01*
X109642724Y-114871151D01*
X109515783Y-114676852D01*
X109515780Y-114676849D01*
X109515779Y-114676847D01*
X109358584Y-114506087D01*
X109180573Y-114367536D01*
X109139761Y-114310826D01*
X109136086Y-114241053D01*
X109170717Y-114180370D01*
X109180572Y-114171831D01*
X109205597Y-114152352D01*
X109205598Y-114152350D01*
X108542742Y-113489494D01*
X108602881Y-113473381D01*
X108718720Y-113406502D01*
X108813302Y-113311920D01*
X108880181Y-113196081D01*
X108896295Y-113135942D01*
X109557986Y-113797633D01*
X109642282Y-113668611D01*
X109735482Y-113456135D01*
X109792438Y-113231218D01*
X109811598Y-113000005D01*
X109811598Y-112999994D01*
X109792438Y-112768781D01*
X109735482Y-112543864D01*
X109642284Y-112331393D01*
X109557986Y-112202365D01*
X108896294Y-112864057D01*
X108880181Y-112803919D01*
X108813302Y-112688080D01*
X108718720Y-112593498D01*
X108602881Y-112526619D01*
X108542741Y-112510504D01*
X109205597Y-111847647D01*
X109205597Y-111847646D01*
X109180573Y-111828169D01*
X109139761Y-111771459D01*
X109136086Y-111701686D01*
X109170718Y-111641003D01*
X109180560Y-111632473D01*
X109358584Y-111493913D01*
X109515779Y-111323153D01*
X109642724Y-111128849D01*
X109735957Y-110916300D01*
X109792934Y-110691305D01*
X109794251Y-110675413D01*
X109812100Y-110460006D01*
X109812100Y-110459993D01*
X109798842Y-110299986D01*
X137150001Y-110299986D01*
X137160494Y-110402697D01*
X137215641Y-110569119D01*
X137215643Y-110569124D01*
X137307684Y-110718345D01*
X137431654Y-110842315D01*
X137580875Y-110934356D01*
X137580880Y-110934358D01*
X137747302Y-110989505D01*
X137747309Y-110989506D01*
X137850019Y-110999999D01*
X139249999Y-110999999D01*
X139250000Y-110999998D01*
X139250000Y-110075000D01*
X137150001Y-110075000D01*
X137150001Y-110299986D01*
X109798842Y-110299986D01*
X109792935Y-110228702D01*
X109792933Y-110228691D01*
X109735957Y-110003699D01*
X109642724Y-109791151D01*
X109515783Y-109596852D01*
X109515780Y-109596849D01*
X109515779Y-109596847D01*
X109358584Y-109426087D01*
X109260844Y-109350013D01*
X137150000Y-109350013D01*
X137150000Y-109575000D01*
X139250000Y-109575000D01*
X139250000Y-108650000D01*
X137850028Y-108650000D01*
X137850012Y-108650001D01*
X137747302Y-108660494D01*
X137580880Y-108715641D01*
X137580875Y-108715643D01*
X137431654Y-108807684D01*
X137307684Y-108931654D01*
X137215643Y-109080875D01*
X137215641Y-109080880D01*
X137160494Y-109247302D01*
X137160493Y-109247309D01*
X137150000Y-109350013D01*
X109260844Y-109350013D01*
X109180980Y-109287853D01*
X109140168Y-109231143D01*
X109136493Y-109161370D01*
X109171124Y-109100687D01*
X109180981Y-109092146D01*
X109358584Y-108953913D01*
X109515779Y-108783153D01*
X109642724Y-108588849D01*
X109735957Y-108376300D01*
X109792934Y-108151305D01*
X109794257Y-108135339D01*
X109812100Y-107920006D01*
X109812100Y-107919993D01*
X109792935Y-107688702D01*
X109792933Y-107688691D01*
X109735957Y-107463699D01*
X109642724Y-107251151D01*
X109515783Y-107056852D01*
X109515780Y-107056849D01*
X109515779Y-107056847D01*
X109358584Y-106886087D01*
X109272314Y-106818941D01*
X109231503Y-106762233D01*
X109227828Y-106692460D01*
X109262459Y-106631776D01*
X109320943Y-106600185D01*
X110271990Y-106383595D01*
X110299524Y-106380500D01*
X133914218Y-106380500D01*
X133981257Y-106400185D01*
X134001899Y-106416819D01*
X135219735Y-107634655D01*
X135219764Y-107634686D01*
X135362214Y-107777136D01*
X135362218Y-107777139D01*
X135526079Y-107886628D01*
X135526086Y-107886632D01*
X135640523Y-107934033D01*
X135708164Y-107962051D01*
X135786897Y-107977712D01*
X135815537Y-107983409D01*
X135901456Y-108000500D01*
X135901459Y-108000500D01*
X135901460Y-108000500D01*
X136098540Y-108000500D01*
X137434494Y-108000500D01*
X137453188Y-108001917D01*
X138040763Y-108091548D01*
X138225884Y-108119787D01*
X138246188Y-108124663D01*
X138246686Y-108124827D01*
X138247203Y-108124999D01*
X138283056Y-108128661D01*
X138289125Y-108129433D01*
X138320251Y-108134182D01*
X138325106Y-108134899D01*
X138337509Y-108134884D01*
X138346836Y-108135354D01*
X138346837Y-108135339D01*
X138349970Y-108135497D01*
X138349991Y-108135500D01*
X141150008Y-108135499D01*
X141151428Y-108135354D01*
X141209361Y-108129436D01*
X141252797Y-108124999D01*
X141346496Y-108093949D01*
X141416324Y-108091548D01*
X141476366Y-108127280D01*
X141507559Y-108189800D01*
X141509500Y-108211656D01*
X141509500Y-108573870D01*
X141489815Y-108640909D01*
X141437011Y-108686664D01*
X141367853Y-108696608D01*
X141346497Y-108691576D01*
X141252700Y-108660495D01*
X141252690Y-108660493D01*
X141149986Y-108650000D01*
X139750000Y-108650000D01*
X139750000Y-110999999D01*
X141149972Y-110999999D01*
X141149986Y-110999998D01*
X141252695Y-110989506D01*
X141346495Y-110958423D01*
X141416323Y-110956021D01*
X141476366Y-110991752D01*
X141507559Y-111054272D01*
X141509500Y-111076129D01*
X141509500Y-118559473D01*
X141489815Y-118626512D01*
X141437011Y-118672267D01*
X141367853Y-118682211D01*
X141304297Y-118653186D01*
X141281505Y-118627009D01*
X141187465Y-118482202D01*
X140978904Y-118224649D01*
X140978903Y-118224648D01*
X139484251Y-119719300D01*
X139410412Y-119617670D01*
X139232330Y-119439588D01*
X139130698Y-119365748D01*
X140625350Y-117871096D01*
X140625350Y-117871095D01*
X140367793Y-117662531D01*
X140042543Y-117451310D01*
X139696994Y-117275244D01*
X139334936Y-117136262D01*
X138960330Y-117035887D01*
X138960323Y-117035886D01*
X138577287Y-116975219D01*
X138190001Y-116954922D01*
X138189999Y-116954922D01*
X137802712Y-116975219D01*
X137419676Y-117035886D01*
X137419669Y-117035887D01*
X137045063Y-117136262D01*
X136683005Y-117275244D01*
X136337456Y-117451310D01*
X136012206Y-117662531D01*
X135754648Y-117871095D01*
X135754648Y-117871096D01*
X137249301Y-119365748D01*
X137147670Y-119439588D01*
X136969588Y-119617670D01*
X136895748Y-119719300D01*
X135401096Y-118224648D01*
X135401095Y-118224648D01*
X135192531Y-118482206D01*
X134981310Y-118807456D01*
X134805244Y-119153005D01*
X134666262Y-119515063D01*
X134565887Y-119889669D01*
X134565886Y-119889676D01*
X134505219Y-120272712D01*
X134484922Y-120659999D01*
X134484922Y-120660000D01*
X134505219Y-121047287D01*
X134565886Y-121430323D01*
X134565887Y-121430330D01*
X134666262Y-121804936D01*
X134805244Y-122166994D01*
X134981310Y-122512543D01*
X135192531Y-122837793D01*
X135401095Y-123095350D01*
X135401096Y-123095350D01*
X136895748Y-121600698D01*
X136969588Y-121702330D01*
X137147670Y-121880412D01*
X137249300Y-121954251D01*
X135754648Y-123448903D01*
X135754649Y-123448904D01*
X136012206Y-123657468D01*
X136340184Y-123870461D01*
X136339582Y-123871387D01*
X136384676Y-123918687D01*
X136397895Y-123987295D01*
X136371923Y-124052158D01*
X136315006Y-124092683D01*
X136274457Y-124099500D01*
X99735926Y-124099500D01*
X99668887Y-124079815D01*
X99623132Y-124027011D01*
X99613188Y-123957853D01*
X99642213Y-123894297D01*
X99668391Y-123871505D01*
X99797783Y-123787476D01*
X99797785Y-123787475D01*
X100055349Y-123578902D01*
X98560698Y-122084251D01*
X98662330Y-122010412D01*
X98840412Y-121832330D01*
X98914251Y-121730698D01*
X100408902Y-123225349D01*
X100617475Y-122967785D01*
X100617476Y-122967783D01*
X100828689Y-122642543D01*
X101004755Y-122296994D01*
X101143737Y-121934936D01*
X101244112Y-121560330D01*
X101244113Y-121560323D01*
X101304780Y-121177287D01*
X101325078Y-120790000D01*
X101325078Y-120789999D01*
X101304780Y-120402712D01*
X101244113Y-120019676D01*
X101244112Y-120019669D01*
X101143737Y-119645063D01*
X101004755Y-119283005D01*
X100919145Y-119114986D01*
X102710001Y-119114986D01*
X102720494Y-119217697D01*
X102775641Y-119384119D01*
X102775643Y-119384124D01*
X102867684Y-119533345D01*
X102991654Y-119657315D01*
X103140875Y-119749356D01*
X103140880Y-119749358D01*
X103307302Y-119804505D01*
X103307309Y-119804506D01*
X103410019Y-119814999D01*
X103859999Y-119814999D01*
X104360000Y-119814999D01*
X104809972Y-119814999D01*
X104809986Y-119814998D01*
X104912697Y-119804505D01*
X105079119Y-119749358D01*
X105079124Y-119749356D01*
X105228345Y-119657315D01*
X105352315Y-119533345D01*
X105444356Y-119384124D01*
X105444358Y-119384119D01*
X105499505Y-119217697D01*
X105499506Y-119217690D01*
X105509999Y-119114986D01*
X105510000Y-119114973D01*
X105510000Y-118902500D01*
X104360000Y-118902500D01*
X104360000Y-119814999D01*
X103859999Y-119814999D01*
X103860000Y-119814998D01*
X103860000Y-118902500D01*
X102710001Y-118902500D01*
X102710001Y-119114986D01*
X100919145Y-119114986D01*
X100828689Y-118937456D01*
X100617468Y-118612206D01*
X100408904Y-118354649D01*
X100408903Y-118354648D01*
X98914251Y-119849300D01*
X98840412Y-119747670D01*
X98662330Y-119569588D01*
X98560698Y-119495748D01*
X99866433Y-118190013D01*
X102710000Y-118190013D01*
X102710000Y-118402500D01*
X103860000Y-118402500D01*
X104360000Y-118402500D01*
X105509999Y-118402500D01*
X105509999Y-118190028D01*
X105509998Y-118190013D01*
X105499505Y-118087302D01*
X105444358Y-117920880D01*
X105444356Y-117920875D01*
X105352315Y-117771654D01*
X105228345Y-117647684D01*
X105079124Y-117555643D01*
X105079119Y-117555641D01*
X104912697Y-117500494D01*
X104912690Y-117500493D01*
X104809986Y-117490000D01*
X104360000Y-117490000D01*
X104360000Y-118402500D01*
X103860000Y-118402500D01*
X103860000Y-117490000D01*
X103410028Y-117490000D01*
X103410012Y-117490001D01*
X103307302Y-117500494D01*
X103140880Y-117555641D01*
X103140875Y-117555643D01*
X102991654Y-117647684D01*
X102867684Y-117771654D01*
X102775643Y-117920875D01*
X102775641Y-117920880D01*
X102720494Y-118087302D01*
X102720493Y-118087309D01*
X102710000Y-118190013D01*
X99866433Y-118190013D01*
X100055350Y-118001096D01*
X100055350Y-118001095D01*
X99797793Y-117792531D01*
X99472543Y-117581310D01*
X99126994Y-117405244D01*
X98764936Y-117266262D01*
X98390330Y-117165887D01*
X98390323Y-117165886D01*
X98007287Y-117105219D01*
X97620001Y-117084922D01*
X97619999Y-117084922D01*
X97232712Y-117105219D01*
X96849676Y-117165886D01*
X96849669Y-117165887D01*
X96475063Y-117266262D01*
X96113005Y-117405244D01*
X95767456Y-117581310D01*
X95442206Y-117792531D01*
X95184648Y-118001095D01*
X95184648Y-118001096D01*
X96679301Y-119495748D01*
X96577670Y-119569588D01*
X96399588Y-119747670D01*
X96325748Y-119849300D01*
X94831096Y-118354648D01*
X94831095Y-118354648D01*
X94622534Y-118612202D01*
X94528495Y-118757009D01*
X94475474Y-118802511D01*
X94406268Y-118812125D01*
X94342852Y-118782798D01*
X94305358Y-118723841D01*
X94300500Y-118689473D01*
X94300500Y-100981219D01*
X94320185Y-100914180D01*
X94372989Y-100868425D01*
X94442147Y-100858481D01*
X94469293Y-100865591D01*
X94617544Y-100923024D01*
X94818024Y-100960500D01*
X94818026Y-100960500D01*
X95021974Y-100960500D01*
X95021976Y-100960500D01*
X95222456Y-100923024D01*
X95412637Y-100849348D01*
X95586041Y-100741981D01*
X95736764Y-100604579D01*
X95859673Y-100441821D01*
X95950582Y-100259250D01*
X96006397Y-100063083D01*
X96025215Y-99860000D01*
X96025215Y-99859999D01*
X96314785Y-99859999D01*
X96314785Y-99860000D01*
X96333602Y-100063082D01*
X96389417Y-100259247D01*
X96389422Y-100259260D01*
X96480327Y-100441821D01*
X96603237Y-100604581D01*
X96753958Y-100741980D01*
X96753960Y-100741982D01*
X96803031Y-100772365D01*
X96927363Y-100849348D01*
X97117544Y-100923024D01*
X97318024Y-100960500D01*
X97318026Y-100960500D01*
X97521974Y-100960500D01*
X97521976Y-100960500D01*
X97722456Y-100923024D01*
X97912637Y-100849348D01*
X98086041Y-100741981D01*
X98236764Y-100604579D01*
X98359673Y-100441821D01*
X98450582Y-100259250D01*
X98506397Y-100063083D01*
X98525215Y-99860000D01*
X98506397Y-99656917D01*
X98450582Y-99460750D01*
X98438682Y-99436852D01*
X98370672Y-99300269D01*
X98359673Y-99278179D01*
X98242905Y-99123553D01*
X98236762Y-99115418D01*
X98086041Y-98978019D01*
X98086039Y-98978017D01*
X97912642Y-98870655D01*
X97912635Y-98870651D01*
X97754774Y-98809496D01*
X97722456Y-98796976D01*
X97521976Y-98759500D01*
X97318024Y-98759500D01*
X97117544Y-98796976D01*
X97117541Y-98796976D01*
X97117541Y-98796977D01*
X96927364Y-98870651D01*
X96927357Y-98870655D01*
X96753960Y-98978017D01*
X96753958Y-98978019D01*
X96603237Y-99115418D01*
X96480327Y-99278178D01*
X96389422Y-99460739D01*
X96389417Y-99460752D01*
X96333602Y-99656917D01*
X96314785Y-99859999D01*
X96025215Y-99859999D01*
X96006397Y-99656917D01*
X95950582Y-99460750D01*
X95938682Y-99436852D01*
X95870672Y-99300269D01*
X95859673Y-99278179D01*
X95742905Y-99123553D01*
X95736762Y-99115418D01*
X95586041Y-98978019D01*
X95586039Y-98978017D01*
X95412642Y-98870655D01*
X95412635Y-98870651D01*
X95254774Y-98809496D01*
X95222456Y-98796976D01*
X95021976Y-98759500D01*
X94818024Y-98759500D01*
X94617544Y-98796976D01*
X94617541Y-98796976D01*
X94617541Y-98796977D01*
X94469294Y-98854408D01*
X94399670Y-98860270D01*
X94337930Y-98827560D01*
X94303675Y-98766663D01*
X94300500Y-98738781D01*
X94300500Y-94399818D01*
X96020000Y-94399818D01*
X96020000Y-94610000D01*
X96970000Y-94610000D01*
X96970000Y-95110000D01*
X96020000Y-95110000D01*
X96020000Y-95320181D01*
X96054473Y-95537835D01*
X96122567Y-95747410D01*
X96222613Y-95943760D01*
X96352142Y-96122041D01*
X96507958Y-96277857D01*
X96686239Y-96407386D01*
X96882589Y-96507432D01*
X97092163Y-96575526D01*
X97169999Y-96587854D01*
X97170000Y-96587854D01*
X97170000Y-95635277D01*
X97246306Y-95679333D01*
X97360756Y-95710000D01*
X97479244Y-95710000D01*
X97593694Y-95679333D01*
X97670000Y-95635277D01*
X97670000Y-96587854D01*
X97747834Y-96575526D01*
X97747837Y-96575526D01*
X97957410Y-96507432D01*
X98153760Y-96407386D01*
X98332041Y-96277857D01*
X98487857Y-96122041D01*
X98617386Y-95943760D01*
X98717432Y-95747410D01*
X98785526Y-95537835D01*
X98820000Y-95320181D01*
X98820000Y-95110000D01*
X97870000Y-95110000D01*
X97870000Y-94610000D01*
X98820000Y-94610000D01*
X98820000Y-94399818D01*
X98785526Y-94182164D01*
X98717432Y-93972589D01*
X98617386Y-93776239D01*
X98487857Y-93597958D01*
X98332041Y-93442142D01*
X98153760Y-93312613D01*
X97957410Y-93212567D01*
X97747836Y-93144473D01*
X97670000Y-93132144D01*
X97670000Y-94084722D01*
X97593694Y-94040667D01*
X97479244Y-94010000D01*
X97360756Y-94010000D01*
X97246306Y-94040667D01*
X97170000Y-94084722D01*
X97170000Y-93132144D01*
X97092164Y-93144473D01*
X97092161Y-93144473D01*
X96882589Y-93212567D01*
X96686239Y-93312613D01*
X96507958Y-93442142D01*
X96352142Y-93597958D01*
X96222613Y-93776239D01*
X96122567Y-93972589D01*
X96054473Y-94182164D01*
X96020000Y-94399818D01*
X94300500Y-94399818D01*
X94300500Y-90981219D01*
X94320185Y-90914180D01*
X94372989Y-90868425D01*
X94442147Y-90858481D01*
X94469293Y-90865591D01*
X94617544Y-90923024D01*
X94818024Y-90960500D01*
X94818026Y-90960500D01*
X95021974Y-90960500D01*
X95021976Y-90960500D01*
X95222456Y-90923024D01*
X95412637Y-90849348D01*
X95586041Y-90741981D01*
X95736764Y-90604579D01*
X95859673Y-90441821D01*
X95950582Y-90259250D01*
X96006397Y-90063083D01*
X96025215Y-89860000D01*
X96025215Y-89859999D01*
X96314785Y-89859999D01*
X96314785Y-89860000D01*
X96333602Y-90063082D01*
X96389417Y-90259247D01*
X96389422Y-90259260D01*
X96480327Y-90441821D01*
X96603237Y-90604581D01*
X96753958Y-90741980D01*
X96753960Y-90741982D01*
X96803031Y-90772365D01*
X96927363Y-90849348D01*
X97117544Y-90923024D01*
X97318024Y-90960500D01*
X97318026Y-90960500D01*
X97521974Y-90960500D01*
X97521976Y-90960500D01*
X97722456Y-90923024D01*
X97912637Y-90849348D01*
X98086041Y-90741981D01*
X98236764Y-90604579D01*
X98359673Y-90441821D01*
X98450582Y-90259250D01*
X98506397Y-90063083D01*
X98525215Y-89860000D01*
X98506397Y-89656917D01*
X98450582Y-89460750D01*
X98359673Y-89278179D01*
X98236764Y-89115421D01*
X98236762Y-89115418D01*
X98086041Y-88978019D01*
X98086039Y-88978017D01*
X97912642Y-88870655D01*
X97912635Y-88870651D01*
X97801403Y-88827560D01*
X97722456Y-88796976D01*
X97521976Y-88759500D01*
X97318024Y-88759500D01*
X97117544Y-88796976D01*
X97117541Y-88796976D01*
X97117541Y-88796977D01*
X96927364Y-88870651D01*
X96927357Y-88870655D01*
X96753960Y-88978017D01*
X96753958Y-88978019D01*
X96603237Y-89115418D01*
X96480327Y-89278178D01*
X96389422Y-89460739D01*
X96389417Y-89460752D01*
X96333602Y-89656917D01*
X96314785Y-89859999D01*
X96025215Y-89859999D01*
X96006397Y-89656917D01*
X95950582Y-89460750D01*
X95859673Y-89278179D01*
X95736764Y-89115421D01*
X95736762Y-89115418D01*
X95586041Y-88978019D01*
X95586039Y-88978017D01*
X95412642Y-88870655D01*
X95412635Y-88870651D01*
X95301403Y-88827560D01*
X95222456Y-88796976D01*
X95021976Y-88759500D01*
X94818024Y-88759500D01*
X94617544Y-88796976D01*
X94617541Y-88796976D01*
X94617541Y-88796977D01*
X94469294Y-88854408D01*
X94399670Y-88860270D01*
X94337930Y-88827560D01*
X94303675Y-88766663D01*
X94300500Y-88738781D01*
X94300500Y-65569997D01*
X95705034Y-65569997D01*
X95705034Y-65570002D01*
X95724858Y-65796599D01*
X95724860Y-65796610D01*
X95783730Y-66016317D01*
X95783735Y-66016331D01*
X95879863Y-66222478D01*
X95930974Y-66295472D01*
X96610000Y-65616446D01*
X96610000Y-65622661D01*
X96637259Y-65724394D01*
X96689920Y-65815606D01*
X96764394Y-65890080D01*
X96855606Y-65942741D01*
X96957339Y-65970000D01*
X96963553Y-65970000D01*
X96284526Y-66649025D01*
X96357513Y-66700132D01*
X96357521Y-66700136D01*
X96563668Y-66796264D01*
X96563682Y-66796269D01*
X96783389Y-66855139D01*
X96783400Y-66855141D01*
X97009998Y-66874966D01*
X97010002Y-66874966D01*
X97236599Y-66855141D01*
X97236610Y-66855139D01*
X97456317Y-66796269D01*
X97456331Y-66796264D01*
X97662478Y-66700136D01*
X97735471Y-66649024D01*
X97056447Y-65970000D01*
X97062661Y-65970000D01*
X97164394Y-65942741D01*
X97255606Y-65890080D01*
X97330080Y-65815606D01*
X97382741Y-65724394D01*
X97410000Y-65622661D01*
X97410000Y-65616447D01*
X98089024Y-66295471D01*
X98140136Y-66222478D01*
X98236264Y-66016331D01*
X98236269Y-66016317D01*
X98295139Y-65796610D01*
X98295141Y-65796599D01*
X98314966Y-65570002D01*
X98314966Y-65569997D01*
X98295141Y-65343400D01*
X98295139Y-65343389D01*
X98236269Y-65123682D01*
X98236264Y-65123668D01*
X98140136Y-64917521D01*
X98140132Y-64917513D01*
X98089025Y-64844526D01*
X97410000Y-65523551D01*
X97410000Y-65517339D01*
X97382741Y-65415606D01*
X97330080Y-65324394D01*
X97255606Y-65249920D01*
X97164394Y-65197259D01*
X97062661Y-65170000D01*
X97056448Y-65170000D01*
X97735472Y-64490974D01*
X97662478Y-64439863D01*
X97456331Y-64343735D01*
X97456317Y-64343730D01*
X97236610Y-64284860D01*
X97236599Y-64284858D01*
X97010002Y-64265034D01*
X97009998Y-64265034D01*
X96783400Y-64284858D01*
X96783389Y-64284860D01*
X96563682Y-64343730D01*
X96563673Y-64343734D01*
X96357516Y-64439866D01*
X96357512Y-64439868D01*
X96284526Y-64490973D01*
X96284526Y-64490974D01*
X96963553Y-65170000D01*
X96957339Y-65170000D01*
X96855606Y-65197259D01*
X96764394Y-65249920D01*
X96689920Y-65324394D01*
X96637259Y-65415606D01*
X96610000Y-65517339D01*
X96610000Y-65523552D01*
X95930974Y-64844526D01*
X95930973Y-64844526D01*
X95879868Y-64917512D01*
X95879866Y-64917516D01*
X95783734Y-65123673D01*
X95783730Y-65123682D01*
X95724860Y-65343389D01*
X95724858Y-65343400D01*
X95705034Y-65569997D01*
X94300500Y-65569997D01*
X94300500Y-59568316D01*
X94320185Y-59501277D01*
X94372989Y-59455522D01*
X94442147Y-59445578D01*
X94505703Y-59474603D01*
X94528495Y-59500781D01*
X94552531Y-59537793D01*
X94761095Y-59795350D01*
X94761096Y-59795350D01*
X96255748Y-58300698D01*
X96329588Y-58402330D01*
X96507670Y-58580412D01*
X96609300Y-58654251D01*
X95114648Y-60148903D01*
X95114649Y-60148904D01*
X95372206Y-60357468D01*
X95697456Y-60568689D01*
X96043005Y-60744755D01*
X96405063Y-60883737D01*
X96779669Y-60984112D01*
X96779676Y-60984113D01*
X97162712Y-61044780D01*
X97549999Y-61065078D01*
X97550001Y-61065078D01*
X97937287Y-61044780D01*
X98320323Y-60984113D01*
X98320330Y-60984112D01*
X98694936Y-60883737D01*
X99056994Y-60744755D01*
X99402543Y-60568689D01*
X99727783Y-60357476D01*
X99727785Y-60357475D01*
X99985349Y-60148902D01*
X98490698Y-58654251D01*
X98592330Y-58580412D01*
X98770412Y-58402330D01*
X98844251Y-58300698D01*
X100338902Y-59795349D01*
X100547475Y-59537785D01*
X100547476Y-59537783D01*
X100758689Y-59212543D01*
X100934755Y-58866994D01*
X101073737Y-58504936D01*
X101174112Y-58130330D01*
X101174113Y-58130323D01*
X101234780Y-57747287D01*
X101255078Y-57360000D01*
X101255078Y-57359999D01*
X101234780Y-56972712D01*
X101174113Y-56589676D01*
X101174112Y-56589669D01*
X101073737Y-56215063D01*
X100934755Y-55853005D01*
X100758689Y-55507456D01*
X100547468Y-55182206D01*
X100338904Y-54924649D01*
X100338903Y-54924648D01*
X98844251Y-56419300D01*
X98770412Y-56317670D01*
X98592330Y-56139588D01*
X98490698Y-56065748D01*
X99985350Y-54571096D01*
X99985350Y-54571095D01*
X99727793Y-54362531D01*
X99675383Y-54328495D01*
X99629880Y-54275474D01*
X99620266Y-54206269D01*
X99649593Y-54142852D01*
X99708550Y-54105358D01*
X99742918Y-54100500D01*
X105126390Y-54100500D01*
X105193429Y-54120185D01*
G37*
%TD.AperFunction*%
%TA.AperFunction,Conductor*%
G36*
X140978902Y-123095349D02*
G01*
X141187475Y-122837785D01*
X141187475Y-122837783D01*
X141281505Y-122692991D01*
X141334526Y-122647488D01*
X141403731Y-122637873D01*
X141467148Y-122667200D01*
X141504642Y-122726158D01*
X141509500Y-122760526D01*
X141509500Y-123975500D01*
X141489815Y-124042539D01*
X141437011Y-124088294D01*
X141385500Y-124099500D01*
X140105543Y-124099500D01*
X140038504Y-124079815D01*
X139992749Y-124027011D01*
X139982805Y-123957853D01*
X140011830Y-123894297D01*
X140040123Y-123870934D01*
X140039816Y-123870461D01*
X140367783Y-123657476D01*
X140367785Y-123657475D01*
X140625349Y-123448902D01*
X139130698Y-121954251D01*
X139232330Y-121880412D01*
X139410412Y-121702330D01*
X139484251Y-121600698D01*
X140978902Y-123095349D01*
G37*
%TD.AperFunction*%
%TA.AperFunction,Conductor*%
G36*
X110843429Y-54120185D02*
G01*
X110889184Y-54172989D01*
X110899748Y-54237103D01*
X110890000Y-54332513D01*
X110890000Y-55732500D01*
X113239999Y-55732500D01*
X113239999Y-54332528D01*
X113239998Y-54332510D01*
X113230252Y-54237101D01*
X113243022Y-54168408D01*
X113290903Y-54117524D01*
X113353610Y-54100500D01*
X136033762Y-54100500D01*
X136100801Y-54120185D01*
X136146556Y-54172989D01*
X136156500Y-54242147D01*
X136127475Y-54305703D01*
X136101298Y-54328495D01*
X136075146Y-54345478D01*
X135817592Y-54554039D01*
X135817592Y-54554040D01*
X137312245Y-56048692D01*
X137210614Y-56122532D01*
X137032532Y-56300614D01*
X136958692Y-56402244D01*
X135464040Y-54907592D01*
X135464039Y-54907592D01*
X135255475Y-55165150D01*
X135044254Y-55490400D01*
X134868188Y-55835949D01*
X134729206Y-56198007D01*
X134628831Y-56572613D01*
X134628830Y-56572620D01*
X134568163Y-56955656D01*
X134547866Y-57342943D01*
X134547866Y-57342944D01*
X134568163Y-57730231D01*
X134628830Y-58113267D01*
X134628831Y-58113274D01*
X134729206Y-58487880D01*
X134868188Y-58849938D01*
X135044254Y-59195487D01*
X135255475Y-59520737D01*
X135464039Y-59778294D01*
X135464040Y-59778294D01*
X136958692Y-58283642D01*
X137032532Y-58385274D01*
X137210614Y-58563356D01*
X137312244Y-58637195D01*
X135817592Y-60131847D01*
X135817593Y-60131848D01*
X136075150Y-60340412D01*
X136400400Y-60551633D01*
X136745949Y-60727699D01*
X137108007Y-60866681D01*
X137482613Y-60967056D01*
X137482620Y-60967057D01*
X137865656Y-61027724D01*
X138252943Y-61048022D01*
X138252945Y-61048022D01*
X138640231Y-61027724D01*
X139023267Y-60967057D01*
X139023274Y-60967056D01*
X139397880Y-60866681D01*
X139759938Y-60727699D01*
X140105487Y-60551633D01*
X140430727Y-60340420D01*
X140430729Y-60340419D01*
X140688293Y-60131846D01*
X139193642Y-58637195D01*
X139295274Y-58563356D01*
X139473356Y-58385274D01*
X139547195Y-58283642D01*
X141041846Y-59778293D01*
X141250419Y-59520729D01*
X141250420Y-59520727D01*
X141281505Y-59472861D01*
X141334526Y-59427358D01*
X141403731Y-59417744D01*
X141467148Y-59447071D01*
X141504642Y-59506028D01*
X141509500Y-59540396D01*
X141509500Y-82644053D01*
X141489815Y-82711092D01*
X141437011Y-82756847D01*
X141367853Y-82766791D01*
X141304297Y-82737766D01*
X141274500Y-82699325D01*
X141229249Y-82608450D01*
X141229247Y-82608447D01*
X141227465Y-82606087D01*
X140643553Y-83190000D01*
X141227465Y-83773912D01*
X141229247Y-83771553D01*
X141229251Y-83771547D01*
X141274500Y-83680675D01*
X141322002Y-83629437D01*
X141389665Y-83612016D01*
X141456006Y-83633941D01*
X141499961Y-83688253D01*
X141509500Y-83735946D01*
X141509500Y-102923870D01*
X141489815Y-102990909D01*
X141437011Y-103036664D01*
X141367853Y-103046608D01*
X141346497Y-103041576D01*
X141252700Y-103010495D01*
X141252690Y-103010493D01*
X141149986Y-103000000D01*
X139750000Y-103000000D01*
X139750000Y-105349999D01*
X141149972Y-105349999D01*
X141149986Y-105349998D01*
X141252695Y-105339506D01*
X141346495Y-105308423D01*
X141416323Y-105306021D01*
X141476366Y-105341752D01*
X141507559Y-105404272D01*
X141509500Y-105426129D01*
X141509500Y-105788344D01*
X141489815Y-105855383D01*
X141437011Y-105901138D01*
X141367853Y-105911082D01*
X141346497Y-105906050D01*
X141252797Y-105875001D01*
X141252795Y-105875000D01*
X141150010Y-105864500D01*
X138350001Y-105864500D01*
X138349978Y-105864502D01*
X138344396Y-105865072D01*
X138332874Y-105865708D01*
X138320257Y-105865816D01*
X138289136Y-105870563D01*
X138283048Y-105871338D01*
X138247199Y-105875001D01*
X138246190Y-105875336D01*
X138225886Y-105880212D01*
X137453182Y-105998082D01*
X137434483Y-105999500D01*
X136465782Y-105999500D01*
X136398743Y-105979815D01*
X136378101Y-105963181D01*
X135161479Y-104746559D01*
X135161459Y-104746537D01*
X135064908Y-104649986D01*
X137150001Y-104649986D01*
X137160494Y-104752697D01*
X137215641Y-104919119D01*
X137215643Y-104919124D01*
X137307684Y-105068345D01*
X137431654Y-105192315D01*
X137580875Y-105284356D01*
X137580880Y-105284358D01*
X137747302Y-105339505D01*
X137747309Y-105339506D01*
X137850019Y-105349999D01*
X139249999Y-105349999D01*
X139250000Y-105349998D01*
X139250000Y-104425000D01*
X137150001Y-104425000D01*
X137150001Y-104649986D01*
X135064908Y-104649986D01*
X135017785Y-104602863D01*
X135017781Y-104602860D01*
X134853920Y-104493371D01*
X134853907Y-104493364D01*
X134716950Y-104436636D01*
X134671836Y-104417949D01*
X134671828Y-104417947D01*
X134506427Y-104385047D01*
X134506426Y-104385046D01*
X134492484Y-104382273D01*
X134478542Y-104379500D01*
X134478541Y-104379500D01*
X110299528Y-104379500D01*
X110271993Y-104376404D01*
X110138871Y-104346087D01*
X109633099Y-104230903D01*
X109572105Y-104196824D01*
X109539217Y-104135178D01*
X109544879Y-104065538D01*
X109587292Y-104010014D01*
X109633098Y-103989095D01*
X110271990Y-103843595D01*
X110299524Y-103840500D01*
X122528543Y-103840500D01*
X122658582Y-103814632D01*
X122721835Y-103802051D01*
X122903914Y-103726632D01*
X122943752Y-103700013D01*
X137150000Y-103700013D01*
X137150000Y-103925000D01*
X139250000Y-103925000D01*
X139250000Y-103000000D01*
X137850028Y-103000000D01*
X137850012Y-103000001D01*
X137747302Y-103010494D01*
X137580880Y-103065641D01*
X137580875Y-103065643D01*
X137431654Y-103157684D01*
X137307684Y-103281654D01*
X137215643Y-103430875D01*
X137215641Y-103430880D01*
X137160494Y-103597302D01*
X137160493Y-103597309D01*
X137150000Y-103700013D01*
X122943752Y-103700013D01*
X123067782Y-103617139D01*
X123207139Y-103477782D01*
X123316632Y-103313914D01*
X123392051Y-103131835D01*
X123416187Y-103010495D01*
X123430500Y-102938543D01*
X123430500Y-100967486D01*
X128790001Y-100967486D01*
X128800494Y-101070197D01*
X128855641Y-101236619D01*
X128855643Y-101236624D01*
X128947684Y-101385845D01*
X129071654Y-101509815D01*
X129220875Y-101601856D01*
X129220880Y-101601858D01*
X129387302Y-101657005D01*
X129387309Y-101657006D01*
X129490019Y-101667499D01*
X129939999Y-101667499D01*
X130440000Y-101667499D01*
X130889972Y-101667499D01*
X130889986Y-101667498D01*
X130992697Y-101657005D01*
X131159119Y-101601858D01*
X131159124Y-101601856D01*
X131308345Y-101509815D01*
X131432315Y-101385845D01*
X131524356Y-101236624D01*
X131524358Y-101236619D01*
X131579505Y-101070197D01*
X131579506Y-101070190D01*
X131589999Y-100967486D01*
X131590000Y-100967473D01*
X131590000Y-100755000D01*
X130440000Y-100755000D01*
X130440000Y-101667499D01*
X129939999Y-101667499D01*
X129940000Y-101667498D01*
X129940000Y-100755000D01*
X128790001Y-100755000D01*
X128790001Y-100967486D01*
X123430500Y-100967486D01*
X123430500Y-100042513D01*
X128790000Y-100042513D01*
X128790000Y-100255000D01*
X129940000Y-100255000D01*
X130440000Y-100255000D01*
X131589999Y-100255000D01*
X131589999Y-100042528D01*
X131589998Y-100042513D01*
X131579505Y-99939802D01*
X131524358Y-99773380D01*
X131524356Y-99773375D01*
X131432315Y-99624154D01*
X131308345Y-99500184D01*
X131159124Y-99408143D01*
X131159119Y-99408141D01*
X130992697Y-99352994D01*
X130992690Y-99352993D01*
X130889986Y-99342500D01*
X130440000Y-99342500D01*
X130440000Y-100255000D01*
X129940000Y-100255000D01*
X129940000Y-99342500D01*
X129490028Y-99342500D01*
X129490012Y-99342501D01*
X129387302Y-99352994D01*
X129220880Y-99408141D01*
X129220875Y-99408143D01*
X129071654Y-99500184D01*
X128947684Y-99624154D01*
X128855643Y-99773375D01*
X128855641Y-99773380D01*
X128800494Y-99939802D01*
X128800493Y-99939809D01*
X128790000Y-100042513D01*
X123430500Y-100042513D01*
X123430500Y-96917483D01*
X128789500Y-96917483D01*
X128789500Y-97842501D01*
X128789501Y-97842519D01*
X128800000Y-97945296D01*
X128800001Y-97945299D01*
X128838844Y-98062517D01*
X128855186Y-98111834D01*
X128947288Y-98261156D01*
X129071344Y-98385212D01*
X129220666Y-98477314D01*
X129387203Y-98532499D01*
X129489991Y-98543000D01*
X130890008Y-98542999D01*
X130992797Y-98532499D01*
X131159334Y-98477314D01*
X131308656Y-98385212D01*
X131432712Y-98261156D01*
X131524814Y-98111834D01*
X131579999Y-97945297D01*
X131590500Y-97842509D01*
X131590499Y-96917492D01*
X131579999Y-96814703D01*
X131524814Y-96648166D01*
X131432712Y-96498844D01*
X131432710Y-96498842D01*
X131428920Y-96492697D01*
X131430766Y-96491558D01*
X131408600Y-96436613D01*
X131421641Y-96367972D01*
X131469722Y-96317277D01*
X131532003Y-96300499D01*
X131578447Y-96300499D01*
X131645485Y-96320184D01*
X131689355Y-96369044D01*
X131956409Y-96903150D01*
X131969500Y-96958605D01*
X131969500Y-97568541D01*
X131969500Y-97568543D01*
X131969499Y-97568543D01*
X131985666Y-97649815D01*
X131988559Y-97664357D01*
X131993252Y-97687952D01*
X131997117Y-97707379D01*
X131999500Y-97731571D01*
X131999500Y-98598541D01*
X132010572Y-98654204D01*
X132014005Y-98671459D01*
X132014005Y-98671461D01*
X132037947Y-98791828D01*
X132037949Y-98791836D01*
X132055567Y-98834369D01*
X132055567Y-98834370D01*
X132113364Y-98973907D01*
X132113371Y-98973920D01*
X132222859Y-99137780D01*
X132222860Y-99137781D01*
X132222861Y-99137782D01*
X132299716Y-99214637D01*
X132303326Y-99218404D01*
X132307008Y-99222412D01*
X132308977Y-99224172D01*
X132314018Y-99228939D01*
X132362219Y-99277140D01*
X132632215Y-99547137D01*
X132632219Y-99547140D01*
X132796079Y-99656628D01*
X132796085Y-99656631D01*
X132796086Y-99656632D01*
X132978165Y-99732052D01*
X132978167Y-99732052D01*
X132983794Y-99734383D01*
X132983370Y-99735404D01*
X133012947Y-99750373D01*
X133097669Y-99813796D01*
X133097671Y-99813797D01*
X133232517Y-99864091D01*
X133232516Y-99864091D01*
X133239444Y-99864835D01*
X133292127Y-99870500D01*
X134587872Y-99870499D01*
X134647483Y-99864091D01*
X134782331Y-99813796D01*
X134897546Y-99727546D01*
X134914993Y-99704240D01*
X135359311Y-99704240D01*
X135447585Y-99758897D01*
X135637678Y-99832539D01*
X135838072Y-99870000D01*
X136041928Y-99870000D01*
X136242322Y-99832539D01*
X136432412Y-99758899D01*
X136432416Y-99758897D01*
X136520686Y-99704241D01*
X136520686Y-99704240D01*
X135940001Y-99123553D01*
X135940000Y-99123553D01*
X135359311Y-99704240D01*
X134914993Y-99704240D01*
X134983796Y-99612331D01*
X135034091Y-99477483D01*
X135035891Y-99460739D01*
X135040499Y-99417886D01*
X135040499Y-99417882D01*
X135040500Y-99417873D01*
X135040499Y-99367305D01*
X135060182Y-99300269D01*
X135076818Y-99279626D01*
X135586446Y-98770000D01*
X135586446Y-98769999D01*
X135546951Y-98730504D01*
X135640000Y-98730504D01*
X135640000Y-98809496D01*
X135660444Y-98885796D01*
X135699940Y-98954205D01*
X135755795Y-99010060D01*
X135824204Y-99049556D01*
X135900504Y-99070000D01*
X135979496Y-99070000D01*
X136055796Y-99049556D01*
X136124205Y-99010060D01*
X136180060Y-98954205D01*
X136219556Y-98885796D01*
X136240000Y-98809496D01*
X136240000Y-98770000D01*
X136293553Y-98770000D01*
X136877465Y-99353912D01*
X136879247Y-99351553D01*
X136879248Y-99351551D01*
X136970113Y-99169069D01*
X136970116Y-99169063D01*
X137025902Y-98972992D01*
X137025903Y-98972989D01*
X137044713Y-98770000D01*
X137044713Y-98769999D01*
X137025903Y-98567010D01*
X137025902Y-98567007D01*
X136970116Y-98370936D01*
X136970113Y-98370930D01*
X136879249Y-98188449D01*
X136879247Y-98188447D01*
X136877465Y-98186087D01*
X136293553Y-98770000D01*
X136240000Y-98770000D01*
X136240000Y-98730504D01*
X136219556Y-98654204D01*
X136180060Y-98585795D01*
X136124205Y-98529940D01*
X136055796Y-98490444D01*
X135979496Y-98470000D01*
X135900504Y-98470000D01*
X135824204Y-98490444D01*
X135755795Y-98529940D01*
X135699940Y-98585795D01*
X135660444Y-98654204D01*
X135640000Y-98730504D01*
X135546951Y-98730504D01*
X135076818Y-98260371D01*
X135043333Y-98199048D01*
X135040499Y-98172690D01*
X135040499Y-98122129D01*
X135040498Y-98122123D01*
X135039392Y-98111836D01*
X135034091Y-98062517D01*
X134991581Y-97948543D01*
X134983797Y-97927671D01*
X134983793Y-97927664D01*
X134914992Y-97835758D01*
X135359311Y-97835758D01*
X135940000Y-98416446D01*
X135940001Y-98416446D01*
X136520687Y-97835758D01*
X136432413Y-97781101D01*
X136432411Y-97781100D01*
X136242321Y-97707460D01*
X136041928Y-97670000D01*
X135838072Y-97670000D01*
X135637678Y-97707460D01*
X135447588Y-97781100D01*
X135447581Y-97781104D01*
X135359312Y-97835757D01*
X135359311Y-97835758D01*
X134914992Y-97835758D01*
X134897547Y-97812455D01*
X134897544Y-97812452D01*
X134782335Y-97726206D01*
X134782328Y-97726202D01*
X134647482Y-97675908D01*
X134647483Y-97675908D01*
X134587883Y-97669501D01*
X134587881Y-97669500D01*
X134587873Y-97669500D01*
X134587865Y-97669500D01*
X134124500Y-97669500D01*
X134057461Y-97649815D01*
X134011706Y-97597011D01*
X134000500Y-97545500D01*
X134000500Y-97401456D01*
X133980116Y-97298983D01*
X133980116Y-97298982D01*
X133972883Y-97262619D01*
X133970500Y-97238428D01*
X133970500Y-96958602D01*
X133983591Y-96903148D01*
X133991191Y-96887949D01*
X134250642Y-96369044D01*
X134298229Y-96317886D01*
X134361551Y-96300499D01*
X134428028Y-96300499D01*
X134428036Y-96300499D01*
X134547418Y-96289886D01*
X134743049Y-96233909D01*
X134923407Y-96139698D01*
X135081109Y-96011109D01*
X135209698Y-95853407D01*
X135303909Y-95673049D01*
X135359886Y-95477418D01*
X135370500Y-95358037D01*
X135370499Y-94241964D01*
X135359886Y-94122582D01*
X135303909Y-93926951D01*
X135209698Y-93746593D01*
X135137375Y-93657896D01*
X135081109Y-93588890D01*
X134923409Y-93460304D01*
X134923410Y-93460304D01*
X134923407Y-93460302D01*
X134743049Y-93366091D01*
X134743048Y-93366090D01*
X134743045Y-93366089D01*
X134625829Y-93332550D01*
X134547418Y-93310114D01*
X134547415Y-93310113D01*
X134547413Y-93310113D01*
X134474631Y-93303642D01*
X134428037Y-93299500D01*
X134428033Y-93299500D01*
X134361551Y-93299500D01*
X134294512Y-93279815D01*
X134250642Y-93230954D01*
X133983591Y-92696850D01*
X133970500Y-92641396D01*
X133970500Y-90342294D01*
X133973541Y-90315002D01*
X134002207Y-90187952D01*
X134084129Y-89824870D01*
X134118085Y-89763810D01*
X134179664Y-89730799D01*
X134249315Y-89736321D01*
X134282775Y-89755518D01*
X134420978Y-89866609D01*
X134591476Y-89951168D01*
X134776175Y-89997102D01*
X134818903Y-90000000D01*
X135020000Y-90000000D01*
X135520000Y-90000000D01*
X135721097Y-90000000D01*
X135763824Y-89997102D01*
X135948523Y-89951168D01*
X136119022Y-89866609D01*
X136119025Y-89866607D01*
X136267366Y-89747367D01*
X136267367Y-89747366D01*
X136386607Y-89599025D01*
X136386609Y-89599022D01*
X136471168Y-89428523D01*
X136517102Y-89243824D01*
X136520000Y-89201096D01*
X136520000Y-88750000D01*
X135520000Y-88750000D01*
X135520000Y-90000000D01*
X135020000Y-90000000D01*
X135020000Y-88250000D01*
X135520000Y-88250000D01*
X136520000Y-88250000D01*
X136520000Y-87798903D01*
X136517102Y-87756175D01*
X136471168Y-87571476D01*
X136386609Y-87400977D01*
X136386607Y-87400974D01*
X136267367Y-87252633D01*
X136267366Y-87252632D01*
X136119025Y-87133392D01*
X136119022Y-87133390D01*
X135948523Y-87048831D01*
X135763824Y-87002897D01*
X135721097Y-87000000D01*
X135520000Y-87000000D01*
X135520000Y-88250000D01*
X135020000Y-88250000D01*
X135020000Y-87000000D01*
X134818903Y-87000000D01*
X134776175Y-87002897D01*
X134591476Y-87048831D01*
X134420977Y-87133390D01*
X134420974Y-87133392D01*
X134272635Y-87252631D01*
X134216967Y-87321885D01*
X134159624Y-87361803D01*
X134089801Y-87364383D01*
X134029669Y-87328804D01*
X134023673Y-87321884D01*
X133967722Y-87252278D01*
X133967721Y-87252277D01*
X133819295Y-87132969D01*
X133819292Y-87132967D01*
X133648697Y-87048360D01*
X133463892Y-87002400D01*
X133442506Y-87000950D01*
X133421123Y-86999500D01*
X133421120Y-86999500D01*
X132518877Y-86999500D01*
X132518874Y-86999501D01*
X132476113Y-87002399D01*
X132476112Y-87002399D01*
X132291303Y-87048360D01*
X132120707Y-87132967D01*
X132120704Y-87132969D01*
X131982652Y-87243939D01*
X131918068Y-87270598D01*
X131849324Y-87258107D01*
X131798245Y-87210434D01*
X131784006Y-87174584D01*
X131774616Y-87132969D01*
X131745701Y-87004812D01*
X131673541Y-86684996D01*
X131670500Y-86657704D01*
X131670500Y-84834499D01*
X131690185Y-84767460D01*
X131742989Y-84721705D01*
X131794500Y-84710499D01*
X134378028Y-84710499D01*
X134378036Y-84710499D01*
X134497418Y-84699886D01*
X134674078Y-84649336D01*
X134683966Y-84646943D01*
X134684813Y-84646775D01*
X134688849Y-84645349D01*
X134691924Y-84644369D01*
X134696344Y-84642703D01*
X135900731Y-84217570D01*
X135942005Y-84210500D01*
X137011377Y-84210500D01*
X137028893Y-84212291D01*
X137028955Y-84211834D01*
X137213429Y-84236430D01*
X137617466Y-84290302D01*
X137650453Y-84293603D01*
X137651989Y-84293706D01*
X137737181Y-84292031D01*
X137739431Y-84291987D01*
X137742160Y-84291618D01*
X137758780Y-84290499D01*
X138937871Y-84290499D01*
X138937872Y-84290499D01*
X138997483Y-84284091D01*
X139132331Y-84233796D01*
X139247546Y-84147546D01*
X139264993Y-84124240D01*
X139709311Y-84124240D01*
X139797585Y-84178897D01*
X139987678Y-84252539D01*
X140188072Y-84290000D01*
X140391928Y-84290000D01*
X140592322Y-84252539D01*
X140782412Y-84178899D01*
X140782416Y-84178897D01*
X140870686Y-84124241D01*
X140870686Y-84124240D01*
X140290001Y-83543553D01*
X140290000Y-83543553D01*
X139709311Y-84124240D01*
X139264993Y-84124240D01*
X139333796Y-84032331D01*
X139384091Y-83897483D01*
X139390500Y-83837873D01*
X139390499Y-83787305D01*
X139410182Y-83720269D01*
X139426818Y-83699626D01*
X139936446Y-83190000D01*
X139936446Y-83189999D01*
X139896951Y-83150504D01*
X139990000Y-83150504D01*
X139990000Y-83229496D01*
X140010444Y-83305796D01*
X140049940Y-83374205D01*
X140105795Y-83430060D01*
X140174204Y-83469556D01*
X140250504Y-83490000D01*
X140329496Y-83490000D01*
X140405796Y-83469556D01*
X140474205Y-83430060D01*
X140530060Y-83374205D01*
X140569556Y-83305796D01*
X140590000Y-83229496D01*
X140590000Y-83150504D01*
X140569556Y-83074204D01*
X140530060Y-83005795D01*
X140474205Y-82949940D01*
X140405796Y-82910444D01*
X140329496Y-82890000D01*
X140250504Y-82890000D01*
X140174204Y-82910444D01*
X140105795Y-82949940D01*
X140049940Y-83005795D01*
X140010444Y-83074204D01*
X139990000Y-83150504D01*
X139896951Y-83150504D01*
X139426818Y-82680371D01*
X139393333Y-82619048D01*
X139390499Y-82592690D01*
X139390499Y-82542129D01*
X139390498Y-82542123D01*
X139384091Y-82482516D01*
X139333797Y-82347671D01*
X139333793Y-82347664D01*
X139264992Y-82255758D01*
X139709311Y-82255758D01*
X140290000Y-82836446D01*
X140290001Y-82836446D01*
X140870687Y-82255758D01*
X140782413Y-82201101D01*
X140782411Y-82201100D01*
X140592321Y-82127460D01*
X140391928Y-82090000D01*
X140188072Y-82090000D01*
X139987678Y-82127460D01*
X139797588Y-82201100D01*
X139797581Y-82201104D01*
X139709312Y-82255757D01*
X139709311Y-82255758D01*
X139264992Y-82255758D01*
X139247547Y-82232455D01*
X139247544Y-82232452D01*
X139132335Y-82146206D01*
X139132328Y-82146202D01*
X138997482Y-82095908D01*
X138997483Y-82095908D01*
X138937883Y-82089501D01*
X138937881Y-82089500D01*
X138937873Y-82089500D01*
X138937864Y-82089500D01*
X137642129Y-82089500D01*
X137642123Y-82089501D01*
X137582520Y-82095908D01*
X137582512Y-82095910D01*
X137541040Y-82111377D01*
X137520087Y-82117158D01*
X137027856Y-82207464D01*
X137005480Y-82209500D01*
X135942010Y-82209500D01*
X135900735Y-82202429D01*
X135840996Y-82181342D01*
X135489559Y-82057289D01*
X134696277Y-81777270D01*
X134691967Y-81775649D01*
X134688967Y-81774690D01*
X134684805Y-81773221D01*
X134684797Y-81773218D01*
X134661003Y-81765476D01*
X134659939Y-81765159D01*
X134659932Y-81765157D01*
X134643289Y-81761569D01*
X134635316Y-81759571D01*
X134548946Y-81734858D01*
X134497418Y-81720114D01*
X134497416Y-81720113D01*
X134497413Y-81720113D01*
X134424631Y-81713642D01*
X134378037Y-81709500D01*
X134378033Y-81709500D01*
X134311551Y-81709500D01*
X134244512Y-81689815D01*
X134200642Y-81640954D01*
X134070015Y-81379700D01*
X133933591Y-81106850D01*
X133920500Y-81051396D01*
X133920500Y-78752294D01*
X133923541Y-78725002D01*
X133940838Y-78648342D01*
X134034129Y-78234870D01*
X134068085Y-78173810D01*
X134129664Y-78140799D01*
X134199315Y-78146321D01*
X134232775Y-78165518D01*
X134370978Y-78276609D01*
X134541476Y-78361168D01*
X134726175Y-78407102D01*
X134768903Y-78410000D01*
X134970000Y-78410000D01*
X135470000Y-78410000D01*
X135671097Y-78410000D01*
X135713824Y-78407102D01*
X135898523Y-78361168D01*
X136069022Y-78276609D01*
X136069025Y-78276607D01*
X136217366Y-78157367D01*
X136217367Y-78157366D01*
X136336607Y-78009025D01*
X136336609Y-78009022D01*
X136421168Y-77838523D01*
X136467102Y-77653824D01*
X136470000Y-77611096D01*
X136470000Y-77160000D01*
X135470000Y-77160000D01*
X135470000Y-78410000D01*
X134970000Y-78410000D01*
X134970000Y-76660000D01*
X135470000Y-76660000D01*
X136470000Y-76660000D01*
X136470000Y-76208903D01*
X136467102Y-76166175D01*
X136421168Y-75981476D01*
X136336609Y-75810977D01*
X136336607Y-75810974D01*
X136217367Y-75662633D01*
X136217366Y-75662632D01*
X136069025Y-75543392D01*
X136069022Y-75543390D01*
X135898523Y-75458831D01*
X135713824Y-75412897D01*
X135671097Y-75410000D01*
X135470000Y-75410000D01*
X135470000Y-76660000D01*
X134970000Y-76660000D01*
X134970000Y-75410000D01*
X134768903Y-75410000D01*
X134726175Y-75412897D01*
X134541476Y-75458831D01*
X134370977Y-75543390D01*
X134370974Y-75543392D01*
X134222635Y-75662631D01*
X134166967Y-75731885D01*
X134109624Y-75771803D01*
X134039801Y-75774383D01*
X133979669Y-75738804D01*
X133973673Y-75731884D01*
X133917722Y-75662278D01*
X133917721Y-75662277D01*
X133769295Y-75542969D01*
X133769292Y-75542967D01*
X133598697Y-75458360D01*
X133413892Y-75412400D01*
X133392506Y-75410950D01*
X133371123Y-75409500D01*
X133371120Y-75409500D01*
X132468877Y-75409500D01*
X132468874Y-75409501D01*
X132426113Y-75412399D01*
X132426112Y-75412399D01*
X132241303Y-75458360D01*
X132070707Y-75542967D01*
X132070704Y-75542969D01*
X131932652Y-75653939D01*
X131868068Y-75680598D01*
X131799324Y-75668107D01*
X131748245Y-75620434D01*
X131734006Y-75584584D01*
X131724616Y-75542969D01*
X131705526Y-75458359D01*
X131623541Y-75094996D01*
X131620500Y-75067704D01*
X131620500Y-73647045D01*
X131626847Y-73607880D01*
X131665576Y-73491537D01*
X131948975Y-72640191D01*
X131952146Y-72630328D01*
X131952285Y-72629880D01*
X131963167Y-72584921D01*
X131965969Y-72575132D01*
X131979999Y-72532797D01*
X131990500Y-72430009D01*
X131990499Y-72105479D01*
X132010183Y-72038441D01*
X132041896Y-72004957D01*
X132397861Y-71747873D01*
X132527873Y-71653976D01*
X132593746Y-71630683D01*
X132600474Y-71630500D01*
X133064410Y-71630500D01*
X133131449Y-71650185D01*
X133135524Y-71652919D01*
X133701112Y-72048871D01*
X133705269Y-72052357D01*
X133705361Y-72052236D01*
X133712453Y-72057545D01*
X133712454Y-72057546D01*
X133804249Y-72126264D01*
X133827669Y-72143796D01*
X133827671Y-72143797D01*
X133962517Y-72194091D01*
X133962516Y-72194091D01*
X133967549Y-72194632D01*
X134022127Y-72200500D01*
X135717872Y-72200499D01*
X135777483Y-72194091D01*
X135912331Y-72143796D01*
X136027546Y-72057546D01*
X136113796Y-71942331D01*
X136164091Y-71807483D01*
X136170500Y-71747873D01*
X136170499Y-71747845D01*
X136170678Y-71744547D01*
X136172183Y-71744627D01*
X136190112Y-71683326D01*
X136242868Y-71637514D01*
X136286465Y-71629981D01*
X136970000Y-70946446D01*
X136970000Y-70952661D01*
X136997259Y-71054394D01*
X137049920Y-71145606D01*
X137124394Y-71220080D01*
X137215606Y-71272741D01*
X137317339Y-71300000D01*
X137323553Y-71300000D01*
X136644526Y-71979025D01*
X136717513Y-72030132D01*
X136717521Y-72030136D01*
X136923668Y-72126264D01*
X136923682Y-72126269D01*
X137143389Y-72185139D01*
X137143400Y-72185141D01*
X137369998Y-72204966D01*
X137370002Y-72204966D01*
X137596599Y-72185141D01*
X137596610Y-72185139D01*
X137816317Y-72126269D01*
X137816331Y-72126264D01*
X138022478Y-72030136D01*
X138095471Y-71979024D01*
X137416447Y-71300000D01*
X137422661Y-71300000D01*
X137524394Y-71272741D01*
X137615606Y-71220080D01*
X137690080Y-71145606D01*
X137742741Y-71054394D01*
X137770000Y-70952661D01*
X137770000Y-70946447D01*
X138449024Y-71625471D01*
X138500136Y-71552478D01*
X138596264Y-71346331D01*
X138596269Y-71346317D01*
X138655139Y-71126610D01*
X138655141Y-71126599D01*
X138674966Y-70900002D01*
X138674966Y-70899997D01*
X138655141Y-70673400D01*
X138655139Y-70673389D01*
X138596269Y-70453682D01*
X138596264Y-70453668D01*
X138500136Y-70247521D01*
X138500132Y-70247513D01*
X138449025Y-70174526D01*
X137770000Y-70853551D01*
X137770000Y-70847339D01*
X137742741Y-70745606D01*
X137690080Y-70654394D01*
X137615606Y-70579920D01*
X137524394Y-70527259D01*
X137422661Y-70500000D01*
X137416448Y-70500000D01*
X138095472Y-69820974D01*
X138022478Y-69769863D01*
X137816331Y-69673735D01*
X137816317Y-69673730D01*
X137596610Y-69614860D01*
X137596599Y-69614858D01*
X137370002Y-69595034D01*
X137369998Y-69595034D01*
X137143400Y-69614858D01*
X137143389Y-69614860D01*
X136923682Y-69673730D01*
X136923673Y-69673734D01*
X136717516Y-69769866D01*
X136717512Y-69769868D01*
X136644526Y-69820973D01*
X136644526Y-69820974D01*
X137323553Y-70500000D01*
X137317339Y-70500000D01*
X137215606Y-70527259D01*
X137124394Y-70579920D01*
X137049920Y-70654394D01*
X136997259Y-70745606D01*
X136970000Y-70847339D01*
X136970000Y-70853552D01*
X136285799Y-70169351D01*
X136236805Y-70159505D01*
X136186622Y-70110889D01*
X136171981Y-70055366D01*
X136170900Y-70055423D01*
X136170854Y-70055429D01*
X136170853Y-70055426D01*
X136170676Y-70055436D01*
X136170499Y-70052141D01*
X136170499Y-70052128D01*
X136164091Y-69992517D01*
X136137829Y-69922106D01*
X136113797Y-69857671D01*
X136113793Y-69857664D01*
X136027547Y-69742455D01*
X136027544Y-69742452D01*
X135912335Y-69656206D01*
X135912328Y-69656202D01*
X135777482Y-69605908D01*
X135777483Y-69605908D01*
X135717883Y-69599501D01*
X135717881Y-69599500D01*
X135717873Y-69599500D01*
X135717864Y-69599500D01*
X134022129Y-69599500D01*
X134022123Y-69599501D01*
X133962516Y-69605908D01*
X133936869Y-69615474D01*
X133923727Y-69619560D01*
X133912884Y-69622281D01*
X133912877Y-69622284D01*
X133896401Y-69630086D01*
X133886669Y-69634197D01*
X133827668Y-69656204D01*
X133814240Y-69666257D01*
X133793006Y-69679056D01*
X133782852Y-69683864D01*
X133141331Y-70108873D01*
X133074572Y-70129488D01*
X133072847Y-70129500D01*
X132600475Y-70129500D01*
X132533436Y-70109815D01*
X132527874Y-70106024D01*
X132041898Y-69755041D01*
X131999076Y-69699832D01*
X131990499Y-69654517D01*
X131990499Y-69329998D01*
X131990498Y-69329981D01*
X131979999Y-69227203D01*
X131979998Y-69227200D01*
X131957664Y-69159802D01*
X131924814Y-69060666D01*
X131832712Y-68911344D01*
X131708656Y-68787288D01*
X131615888Y-68730069D01*
X131559336Y-68695187D01*
X131559331Y-68695185D01*
X131557862Y-68694698D01*
X131392797Y-68640001D01*
X131392795Y-68640000D01*
X131290010Y-68629500D01*
X129889998Y-68629500D01*
X129889981Y-68629501D01*
X129787203Y-68640000D01*
X129787200Y-68640001D01*
X129620668Y-68695185D01*
X129620663Y-68695187D01*
X129471342Y-68787289D01*
X129347289Y-68911342D01*
X129255187Y-69060663D01*
X129255186Y-69060666D01*
X129200001Y-69227203D01*
X129200001Y-69227204D01*
X129200000Y-69227204D01*
X129189500Y-69329983D01*
X129189500Y-72430001D01*
X129189501Y-72430018D01*
X129200001Y-72532798D01*
X129229821Y-72622790D01*
X129232879Y-72633650D01*
X129240034Y-72664359D01*
X129309951Y-72843730D01*
X129484985Y-73292776D01*
X129484989Y-73292783D01*
X129533608Y-73417513D01*
X129607812Y-73607880D01*
X129611033Y-73616142D01*
X129619500Y-73661176D01*
X129619500Y-75067703D01*
X129616459Y-75094995D01*
X129406807Y-76024174D01*
X129406803Y-76024195D01*
X129405384Y-76032243D01*
X129403604Y-76040630D01*
X129372400Y-76166106D01*
X129369500Y-76208879D01*
X129369500Y-77611122D01*
X129369501Y-77611125D01*
X129372399Y-77653886D01*
X129372399Y-77653887D01*
X129395662Y-77747426D01*
X129415850Y-77828606D01*
X129418360Y-77838696D01*
X129502967Y-78009292D01*
X129502969Y-78009295D01*
X129622277Y-78157721D01*
X129622278Y-78157722D01*
X129770704Y-78277030D01*
X129770707Y-78277032D01*
X129941302Y-78361639D01*
X129941303Y-78361639D01*
X129941307Y-78361641D01*
X130126111Y-78407600D01*
X130168877Y-78410500D01*
X131071122Y-78410499D01*
X131113889Y-78407600D01*
X131298693Y-78361641D01*
X131383324Y-78319667D01*
X131469291Y-78277033D01*
X131469292Y-78277031D01*
X131469296Y-78277030D01*
X131607350Y-78166058D01*
X131671929Y-78139402D01*
X131740673Y-78151892D01*
X131791752Y-78199565D01*
X131805992Y-78235416D01*
X131916459Y-78725002D01*
X131919500Y-78752294D01*
X131919500Y-81051392D01*
X131906409Y-81106847D01*
X131639354Y-81640955D01*
X131591766Y-81692113D01*
X131528447Y-81709500D01*
X131461972Y-81709500D01*
X131461964Y-81709501D01*
X131342584Y-81720113D01*
X131146954Y-81776089D01*
X131056772Y-81823196D01*
X130966593Y-81870302D01*
X130966591Y-81870303D01*
X130966590Y-81870304D01*
X130808890Y-81998890D01*
X130680299Y-82156596D01*
X130675651Y-82165494D01*
X130627162Y-82215798D01*
X130589937Y-82229693D01*
X130498172Y-82247946D01*
X130498164Y-82247948D01*
X130316088Y-82323366D01*
X130316079Y-82323371D01*
X130172214Y-82419500D01*
X130152218Y-82432860D01*
X130120685Y-82464394D01*
X130032218Y-82552861D01*
X129992389Y-82592690D01*
X129892859Y-82692219D01*
X129783371Y-82856079D01*
X129783364Y-82856092D01*
X129737540Y-82966724D01*
X129707950Y-83038159D01*
X129707949Y-83038163D01*
X129707123Y-83042316D01*
X129697323Y-83091584D01*
X129694058Y-83107998D01*
X129669500Y-83231456D01*
X129669500Y-86657703D01*
X129666459Y-86684995D01*
X129456807Y-87614174D01*
X129456803Y-87614195D01*
X129455384Y-87622243D01*
X129453604Y-87630630D01*
X129422400Y-87756106D01*
X129419500Y-87798879D01*
X129419500Y-89201122D01*
X129419501Y-89201125D01*
X129422399Y-89243886D01*
X129422399Y-89243887D01*
X129468360Y-89428696D01*
X129552967Y-89599292D01*
X129552969Y-89599295D01*
X129672277Y-89747721D01*
X129672278Y-89747722D01*
X129820704Y-89867030D01*
X129820707Y-89867032D01*
X129991302Y-89951639D01*
X129991303Y-89951639D01*
X129991307Y-89951641D01*
X130176111Y-89997600D01*
X130218877Y-90000500D01*
X131121122Y-90000499D01*
X131163889Y-89997600D01*
X131348693Y-89951641D01*
X131464317Y-89894297D01*
X131519291Y-89867033D01*
X131519292Y-89867031D01*
X131519296Y-89867030D01*
X131657350Y-89756058D01*
X131721929Y-89729402D01*
X131790673Y-89741892D01*
X131841752Y-89789565D01*
X131855992Y-89825416D01*
X131966459Y-90315002D01*
X131969500Y-90342294D01*
X131969500Y-92641392D01*
X131956409Y-92696847D01*
X131689354Y-93230955D01*
X131641766Y-93282113D01*
X131578447Y-93299500D01*
X131511972Y-93299500D01*
X131511964Y-93299501D01*
X131392584Y-93310113D01*
X131196954Y-93366089D01*
X131106772Y-93413196D01*
X131016593Y-93460302D01*
X131016591Y-93460303D01*
X131016590Y-93460304D01*
X130858888Y-93588893D01*
X130751304Y-93720833D01*
X130723340Y-93746073D01*
X130707389Y-93756564D01*
X130673118Y-93779102D01*
X130606293Y-93799493D01*
X130604983Y-93799500D01*
X130601455Y-93799500D01*
X130504812Y-93818724D01*
X130408167Y-93837947D01*
X130408161Y-93837949D01*
X130354834Y-93860037D01*
X130354834Y-93860038D01*
X130329210Y-93870652D01*
X130226089Y-93913366D01*
X130226079Y-93913371D01*
X130062219Y-94022859D01*
X129992540Y-94092538D01*
X129922861Y-94162218D01*
X129922858Y-94162221D01*
X129552221Y-94532858D01*
X129552218Y-94532861D01*
X129482538Y-94602540D01*
X129412859Y-94672219D01*
X129303371Y-94836079D01*
X129303364Y-94836092D01*
X129227950Y-95018160D01*
X129227947Y-95018170D01*
X129189500Y-95211456D01*
X129189500Y-95958739D01*
X129185956Y-95988175D01*
X129106229Y-96314431D01*
X129073455Y-96372676D01*
X128947287Y-96498845D01*
X128855187Y-96648163D01*
X128855186Y-96648166D01*
X128800001Y-96814703D01*
X128800001Y-96814704D01*
X128800000Y-96814704D01*
X128789500Y-96917483D01*
X123430500Y-96917483D01*
X123430500Y-74456456D01*
X123392052Y-74263170D01*
X123392051Y-74263169D01*
X123392051Y-74263165D01*
X123320572Y-74090598D01*
X123316635Y-74081092D01*
X123316628Y-74081079D01*
X123207139Y-73917218D01*
X123207136Y-73917214D01*
X123064686Y-73774764D01*
X123064655Y-73774735D01*
X122781479Y-73491559D01*
X122781459Y-73491537D01*
X122637785Y-73347863D01*
X122637781Y-73347860D01*
X122473920Y-73238371D01*
X122473907Y-73238364D01*
X122331847Y-73179522D01*
X122331845Y-73179521D01*
X122291840Y-73162950D01*
X122291828Y-73162947D01*
X122148929Y-73134523D01*
X122148928Y-73134522D01*
X122123735Y-73129511D01*
X122098542Y-73124500D01*
X122098541Y-73124500D01*
X119401459Y-73124500D01*
X119401457Y-73124500D01*
X119218691Y-73160855D01*
X119149099Y-73154628D01*
X119093922Y-73111765D01*
X119070677Y-73045875D01*
X119070499Y-73039238D01*
X119070499Y-73023188D01*
X119079774Y-72976132D01*
X119094649Y-72939868D01*
X119400316Y-72194631D01*
X119427360Y-72154007D01*
X119639039Y-71942328D01*
X119942952Y-71638416D01*
X119992186Y-71564729D01*
X120025084Y-71515495D01*
X120081658Y-71378913D01*
X120097355Y-71300000D01*
X120110500Y-71233920D01*
X120110500Y-62160209D01*
X120128674Y-62095580D01*
X120129433Y-62094337D01*
X120336029Y-61756049D01*
X120376754Y-61715144D01*
X120453656Y-61667712D01*
X120577712Y-61543656D01*
X120644942Y-61434658D01*
X120696888Y-61387934D01*
X120765851Y-61376711D01*
X120829933Y-61404554D01*
X120856019Y-61434658D01*
X120927684Y-61550845D01*
X121051654Y-61674815D01*
X121200875Y-61766856D01*
X121200880Y-61766858D01*
X121367302Y-61822005D01*
X121367309Y-61822006D01*
X121470019Y-61832499D01*
X121919999Y-61832499D01*
X122420000Y-61832499D01*
X122869972Y-61832499D01*
X122869986Y-61832498D01*
X122972697Y-61822005D01*
X123139119Y-61766858D01*
X123139124Y-61766856D01*
X123288345Y-61674815D01*
X123382022Y-61581138D01*
X129177468Y-61581138D01*
X129179337Y-61617455D01*
X129179455Y-61622029D01*
X129179580Y-61624349D01*
X129179900Y-61628369D01*
X129180251Y-61635193D01*
X129181160Y-61641219D01*
X129181003Y-61641242D01*
X129182183Y-61647823D01*
X129185909Y-61682483D01*
X129203153Y-61728717D01*
X129207183Y-61741636D01*
X129215540Y-61774670D01*
X129374292Y-62160210D01*
X129461292Y-62371496D01*
X129497658Y-62459814D01*
X129520160Y-62514460D01*
X129529500Y-62561673D01*
X129529500Y-63119876D01*
X129524125Y-63155989D01*
X129226838Y-64132521D01*
X129223880Y-64142617D01*
X129223860Y-64142688D01*
X129223854Y-64142710D01*
X129215999Y-64177123D01*
X129212816Y-64188528D01*
X129200000Y-64227203D01*
X129189500Y-64329983D01*
X129189500Y-67430001D01*
X129189501Y-67430018D01*
X129200000Y-67532796D01*
X129200001Y-67532799D01*
X129213348Y-67573077D01*
X129255186Y-67699334D01*
X129347288Y-67848656D01*
X129471344Y-67972712D01*
X129620666Y-68064814D01*
X129787203Y-68119999D01*
X129889991Y-68130500D01*
X131290008Y-68130499D01*
X131392797Y-68119999D01*
X131559334Y-68064814D01*
X131708656Y-67972712D01*
X131832712Y-67848656D01*
X131924814Y-67699334D01*
X131979999Y-67532797D01*
X131990500Y-67430009D01*
X131990499Y-64329992D01*
X131983863Y-64265034D01*
X131979999Y-64227203D01*
X131979998Y-64227200D01*
X131952960Y-64145606D01*
X131924814Y-64060666D01*
X131912126Y-64040096D01*
X131903016Y-64022238D01*
X131539845Y-63140519D01*
X131530500Y-63093294D01*
X131530500Y-62561673D01*
X131539840Y-62514460D01*
X131600267Y-62367710D01*
X131844457Y-61774676D01*
X131863450Y-61711733D01*
X131865962Y-61704275D01*
X131874091Y-61682483D01*
X131878752Y-61639133D01*
X131880499Y-61622886D01*
X131880499Y-61622882D01*
X131880500Y-61622873D01*
X131880499Y-61527629D01*
X131880584Y-61523041D01*
X131880685Y-61520291D01*
X131880499Y-61516842D01*
X131880499Y-59827129D01*
X131880498Y-59827123D01*
X131880497Y-59827116D01*
X131874091Y-59767517D01*
X131842450Y-59682684D01*
X131823797Y-59632671D01*
X131823793Y-59632664D01*
X131737547Y-59517455D01*
X131737544Y-59517452D01*
X131622335Y-59431206D01*
X131622328Y-59431202D01*
X131490401Y-59381997D01*
X131434467Y-59340126D01*
X131410050Y-59274662D01*
X131424902Y-59206389D01*
X131446053Y-59178133D01*
X131568108Y-59056078D01*
X131703600Y-58862578D01*
X131803429Y-58648492D01*
X131803432Y-58648486D01*
X131860636Y-58435000D01*
X130963012Y-58435000D01*
X130995925Y-58377993D01*
X131030000Y-58250826D01*
X131030000Y-58119174D01*
X130995925Y-57992007D01*
X130963012Y-57935000D01*
X131860636Y-57935000D01*
X131860635Y-57934999D01*
X131803432Y-57721513D01*
X131803429Y-57721507D01*
X131703600Y-57507422D01*
X131703599Y-57507420D01*
X131568113Y-57313926D01*
X131568108Y-57313920D01*
X131401082Y-57146894D01*
X131207578Y-57011399D01*
X130993492Y-56911570D01*
X130993486Y-56911567D01*
X130780000Y-56854364D01*
X130780000Y-57751988D01*
X130722993Y-57719075D01*
X130595826Y-57685000D01*
X130464174Y-57685000D01*
X130337007Y-57719075D01*
X130280000Y-57751988D01*
X130280000Y-56854364D01*
X130279999Y-56854364D01*
X130066513Y-56911567D01*
X130066507Y-56911570D01*
X129852422Y-57011399D01*
X129852420Y-57011400D01*
X129658926Y-57146886D01*
X129658920Y-57146891D01*
X129491891Y-57313920D01*
X129491886Y-57313926D01*
X129356400Y-57507420D01*
X129356399Y-57507422D01*
X129256570Y-57721507D01*
X129256567Y-57721513D01*
X129199364Y-57934999D01*
X129199364Y-57935000D01*
X130096988Y-57935000D01*
X130064075Y-57992007D01*
X130030000Y-58119174D01*
X130030000Y-58250826D01*
X130064075Y-58377993D01*
X130096988Y-58435000D01*
X129199364Y-58435000D01*
X129256567Y-58648486D01*
X129256570Y-58648492D01*
X129356399Y-58862578D01*
X129491894Y-59056082D01*
X129613946Y-59178134D01*
X129647431Y-59239457D01*
X129642447Y-59309149D01*
X129600575Y-59365082D01*
X129569598Y-59381997D01*
X129437671Y-59431202D01*
X129437664Y-59431206D01*
X129322455Y-59517452D01*
X129322452Y-59517455D01*
X129236206Y-59632664D01*
X129236202Y-59632671D01*
X129185908Y-59767517D01*
X129179501Y-59827116D01*
X129179501Y-59827123D01*
X129179500Y-59827135D01*
X129179500Y-61549385D01*
X129178202Y-61567272D01*
X129177487Y-61572179D01*
X129177468Y-61581138D01*
X123382022Y-61581138D01*
X123412315Y-61550845D01*
X123504356Y-61401624D01*
X123504358Y-61401619D01*
X123559505Y-61235197D01*
X123559506Y-61235190D01*
X123569999Y-61132486D01*
X123570000Y-61132473D01*
X123570000Y-60920000D01*
X122420000Y-60920000D01*
X122420000Y-61832499D01*
X121919999Y-61832499D01*
X121920000Y-61832498D01*
X121920000Y-60420000D01*
X122420000Y-60420000D01*
X123569999Y-60420000D01*
X123569999Y-60207528D01*
X123569998Y-60207513D01*
X123559505Y-60104802D01*
X123504358Y-59938380D01*
X123504356Y-59938375D01*
X123412315Y-59789154D01*
X123288345Y-59665184D01*
X123139124Y-59573143D01*
X123139119Y-59573141D01*
X122972697Y-59517994D01*
X122972690Y-59517993D01*
X122869986Y-59507500D01*
X122420000Y-59507500D01*
X122420000Y-60420000D01*
X121920000Y-60420000D01*
X121920000Y-59507500D01*
X121470028Y-59507500D01*
X121470012Y-59507501D01*
X121367302Y-59517994D01*
X121200880Y-59573141D01*
X121200875Y-59573143D01*
X121051654Y-59665184D01*
X120927683Y-59789155D01*
X120927680Y-59789159D01*
X120852934Y-59910341D01*
X120800986Y-59957066D01*
X120732024Y-59968287D01*
X120667942Y-59940444D01*
X120641857Y-59910341D01*
X120577712Y-59806344D01*
X120453656Y-59682288D01*
X120304334Y-59590186D01*
X120137797Y-59535001D01*
X120137795Y-59535000D01*
X120035010Y-59524500D01*
X118684998Y-59524500D01*
X118684981Y-59524501D01*
X118582203Y-59535000D01*
X118582200Y-59535001D01*
X118415668Y-59590185D01*
X118415663Y-59590187D01*
X118266345Y-59682287D01*
X118152327Y-59796305D01*
X118091004Y-59829789D01*
X118021312Y-59824805D01*
X117976965Y-59796304D01*
X117863345Y-59682684D01*
X117714124Y-59590643D01*
X117714119Y-59590641D01*
X117547697Y-59535494D01*
X117547690Y-59535493D01*
X117444986Y-59525000D01*
X117020000Y-59525000D01*
X117020000Y-61824999D01*
X117444972Y-61824999D01*
X117444986Y-61824998D01*
X117547697Y-61814505D01*
X117714119Y-61759358D01*
X117714124Y-61759356D01*
X117863342Y-61667317D01*
X117976964Y-61553695D01*
X118038287Y-61520210D01*
X118107979Y-61525194D01*
X118152327Y-61553695D01*
X118266344Y-61667712D01*
X118343241Y-61715142D01*
X118383970Y-61756051D01*
X118385990Y-61759358D01*
X118591326Y-62095582D01*
X118609500Y-62160210D01*
X118609500Y-62629791D01*
X118589815Y-62696830D01*
X118537011Y-62742585D01*
X118467853Y-62752529D01*
X118433095Y-62742173D01*
X118286326Y-62673734D01*
X118286317Y-62673730D01*
X118066610Y-62614860D01*
X118066599Y-62614858D01*
X117840002Y-62595034D01*
X117839998Y-62595034D01*
X117613400Y-62614858D01*
X117613389Y-62614860D01*
X117393682Y-62673730D01*
X117393673Y-62673734D01*
X117187516Y-62769866D01*
X117187512Y-62769868D01*
X117114526Y-62820973D01*
X117114526Y-62820974D01*
X117793553Y-63500000D01*
X117787339Y-63500000D01*
X117685606Y-63527259D01*
X117594394Y-63579920D01*
X117519920Y-63654394D01*
X117467259Y-63745606D01*
X117440000Y-63847339D01*
X117440000Y-63853552D01*
X116760974Y-63174526D01*
X116760973Y-63174526D01*
X116709868Y-63247512D01*
X116709866Y-63247516D01*
X116613734Y-63453673D01*
X116613730Y-63453682D01*
X116554860Y-63673389D01*
X116554858Y-63673400D01*
X116535034Y-63899997D01*
X116535034Y-63900002D01*
X116554858Y-64126599D01*
X116554860Y-64126610D01*
X116613730Y-64346317D01*
X116613735Y-64346331D01*
X116709863Y-64552478D01*
X116760974Y-64625472D01*
X117440000Y-63946446D01*
X117440000Y-63952661D01*
X117467259Y-64054394D01*
X117519920Y-64145606D01*
X117594394Y-64220080D01*
X117685606Y-64272741D01*
X117787339Y-64300000D01*
X117793551Y-64300000D01*
X117114526Y-64979025D01*
X117187513Y-65030132D01*
X117187521Y-65030136D01*
X117393668Y-65126264D01*
X117393682Y-65126269D01*
X117613389Y-65185139D01*
X117613400Y-65185141D01*
X117839998Y-65204966D01*
X117840002Y-65204966D01*
X118066599Y-65185141D01*
X118066610Y-65185139D01*
X118286317Y-65126269D01*
X118286326Y-65126266D01*
X118433095Y-65057826D01*
X118502172Y-65047334D01*
X118565956Y-65075853D01*
X118604196Y-65134330D01*
X118609500Y-65170208D01*
X118609500Y-68449656D01*
X118589815Y-68516695D01*
X118537011Y-68562450D01*
X118472898Y-68573014D01*
X118369988Y-68562500D01*
X117920000Y-68562500D01*
X117920000Y-70887499D01*
X118271770Y-70887499D01*
X118338809Y-70907184D01*
X118384564Y-70959988D01*
X118394508Y-71029146D01*
X118365483Y-71092702D01*
X118359460Y-71099170D01*
X118347970Y-71110660D01*
X118347357Y-71111274D01*
X118317265Y-71133406D01*
X117288596Y-71672817D01*
X117231010Y-71687000D01*
X116969999Y-71687000D01*
X116969980Y-71687001D01*
X116867203Y-71697500D01*
X116867200Y-71697501D01*
X116700668Y-71752685D01*
X116700663Y-71752687D01*
X116551342Y-71844789D01*
X116427289Y-71968842D01*
X116335187Y-72118163D01*
X116335185Y-72118168D01*
X116323309Y-72154007D01*
X116280001Y-72284703D01*
X116280001Y-72284704D01*
X116280000Y-72284704D01*
X116269500Y-72387483D01*
X116269500Y-72387491D01*
X116269500Y-72843735D01*
X116269501Y-73250500D01*
X116249817Y-73317539D01*
X116197013Y-73363294D01*
X116145501Y-73374500D01*
X114196051Y-73374500D01*
X114129012Y-73354815D01*
X114083257Y-73302011D01*
X114073313Y-73232853D01*
X114076975Y-73215905D01*
X114112653Y-73093102D01*
X114112654Y-73093096D01*
X114115499Y-73056942D01*
X114115500Y-73056935D01*
X114115499Y-72653066D01*
X114112654Y-72616902D01*
X114067681Y-72462106D01*
X114023550Y-72387483D01*
X113985630Y-72323363D01*
X113985628Y-72323361D01*
X113985626Y-72323357D01*
X113969952Y-72307683D01*
X113936465Y-72246361D01*
X113941448Y-72176669D01*
X113969952Y-72132317D01*
X113976005Y-72126264D01*
X113985626Y-72116643D01*
X114067681Y-71977894D01*
X114112654Y-71823098D01*
X114115500Y-71786935D01*
X114115499Y-71383066D01*
X114112654Y-71346902D01*
X114067681Y-71192106D01*
X114028941Y-71126599D01*
X113985630Y-71053363D01*
X113985628Y-71053361D01*
X113985626Y-71053357D01*
X113969952Y-71037683D01*
X113936465Y-70976361D01*
X113941448Y-70906669D01*
X113969952Y-70862317D01*
X113985626Y-70846643D01*
X114067681Y-70707894D01*
X114112654Y-70553098D01*
X114115500Y-70516935D01*
X114115499Y-70187486D01*
X116270001Y-70187486D01*
X116280494Y-70290197D01*
X116335641Y-70456619D01*
X116335643Y-70456624D01*
X116427684Y-70605845D01*
X116551654Y-70729815D01*
X116700875Y-70821856D01*
X116700880Y-70821858D01*
X116867302Y-70877005D01*
X116867309Y-70877006D01*
X116970019Y-70887499D01*
X117419999Y-70887499D01*
X117420000Y-70887498D01*
X117420000Y-69975000D01*
X116270001Y-69975000D01*
X116270001Y-70187486D01*
X114115499Y-70187486D01*
X114115499Y-70113066D01*
X114112654Y-70076902D01*
X114067681Y-69922106D01*
X114029575Y-69857671D01*
X113985630Y-69783363D01*
X113985628Y-69783361D01*
X113985626Y-69783357D01*
X113969952Y-69767683D01*
X113936465Y-69706361D01*
X113941448Y-69636669D01*
X113969952Y-69592317D01*
X113985626Y-69576643D01*
X114067681Y-69437894D01*
X114112654Y-69283098D01*
X114114274Y-69262513D01*
X116270000Y-69262513D01*
X116270000Y-69475000D01*
X117420000Y-69475000D01*
X117420000Y-68562500D01*
X116970028Y-68562500D01*
X116970012Y-68562501D01*
X116867302Y-68572994D01*
X116700880Y-68628141D01*
X116700875Y-68628143D01*
X116551654Y-68720184D01*
X116427684Y-68844154D01*
X116335643Y-68993375D01*
X116335641Y-68993380D01*
X116280494Y-69159802D01*
X116280493Y-69159809D01*
X116270000Y-69262513D01*
X114114274Y-69262513D01*
X114115500Y-69246935D01*
X114115499Y-68843066D01*
X114112654Y-68806902D01*
X114067681Y-68652106D01*
X114020895Y-68572994D01*
X113985630Y-68513363D01*
X113985628Y-68513361D01*
X113985626Y-68513357D01*
X113969952Y-68497683D01*
X113936465Y-68436361D01*
X113941448Y-68366669D01*
X113969952Y-68322317D01*
X113985626Y-68306643D01*
X114067681Y-68167894D01*
X114112654Y-68013098D01*
X114115500Y-67976935D01*
X114115499Y-67573066D01*
X114112654Y-67536902D01*
X114067681Y-67382106D01*
X113993524Y-67256712D01*
X113985630Y-67243363D01*
X113985628Y-67243361D01*
X113985626Y-67243357D01*
X113969598Y-67227329D01*
X113936111Y-67166007D01*
X113941094Y-67096315D01*
X113969598Y-67051963D01*
X113985225Y-67036336D01*
X113985231Y-67036329D01*
X114067218Y-66897695D01*
X114067218Y-66897694D01*
X114108674Y-66755000D01*
X112689000Y-66755000D01*
X112621961Y-66735315D01*
X112576206Y-66682511D01*
X112565000Y-66631000D01*
X112565000Y-66255000D01*
X113065000Y-66255000D01*
X114108674Y-66255000D01*
X114067218Y-66112305D01*
X114067218Y-66112304D01*
X113985229Y-65973668D01*
X113985223Y-65973660D01*
X113871339Y-65859776D01*
X113871331Y-65859770D01*
X113732692Y-65777780D01*
X113732689Y-65777779D01*
X113578024Y-65732844D01*
X113578018Y-65732843D01*
X113541890Y-65730000D01*
X113065000Y-65730000D01*
X113065000Y-66255000D01*
X112565000Y-66255000D01*
X112565000Y-65730000D01*
X112088128Y-65730000D01*
X112088098Y-65730002D01*
X112084223Y-65730307D01*
X112015846Y-65715940D01*
X111966092Y-65666886D01*
X111950500Y-65606689D01*
X111950500Y-65122305D01*
X111970185Y-65055266D01*
X112022989Y-65009511D01*
X112092147Y-64999567D01*
X112125562Y-65009307D01*
X112314669Y-65094773D01*
X112322056Y-65098041D01*
X112322391Y-65098186D01*
X112361365Y-65112294D01*
X112371560Y-65116506D01*
X112393504Y-65126739D01*
X112613308Y-65185635D01*
X112775230Y-65199801D01*
X112839998Y-65205468D01*
X112840000Y-65205468D01*
X112840002Y-65205468D01*
X112896673Y-65200509D01*
X113066692Y-65185635D01*
X113286496Y-65126739D01*
X113492734Y-65030568D01*
X113679139Y-64900047D01*
X113840047Y-64739139D01*
X113970568Y-64552734D01*
X114066739Y-64346496D01*
X114125635Y-64126692D01*
X114145468Y-63900000D01*
X114125635Y-63673308D01*
X114066739Y-63453504D01*
X113970568Y-63247266D01*
X113840047Y-63060861D01*
X113840045Y-63060858D01*
X113679141Y-62899954D01*
X113492734Y-62769432D01*
X113492732Y-62769431D01*
X113286497Y-62673261D01*
X113286488Y-62673258D01*
X113066697Y-62614366D01*
X113066693Y-62614365D01*
X113066692Y-62614365D01*
X113066691Y-62614364D01*
X113066686Y-62614364D01*
X112840002Y-62594532D01*
X112839998Y-62594532D01*
X112613313Y-62614364D01*
X112613302Y-62614366D01*
X112424018Y-62665084D01*
X112354168Y-62663421D01*
X112303504Y-62629130D01*
X112298557Y-62674589D01*
X112254644Y-62728935D01*
X112233922Y-62740518D01*
X111326563Y-63139032D01*
X111276699Y-63149500D01*
X111266080Y-63149500D01*
X111121092Y-63178340D01*
X111121082Y-63178343D01*
X110984509Y-63234913D01*
X110952204Y-63256499D01*
X110861579Y-63317051D01*
X110861577Y-63317052D01*
X110825457Y-63353173D01*
X110764134Y-63386658D01*
X110694442Y-63381672D01*
X110638509Y-63339800D01*
X110614093Y-63274336D01*
X110623823Y-63221613D01*
X110622542Y-63221189D01*
X110624812Y-63214335D01*
X110624814Y-63214334D01*
X110679999Y-63047797D01*
X110690500Y-62945009D01*
X110690499Y-62618222D01*
X110710183Y-62551185D01*
X110762987Y-62505430D01*
X110832146Y-62495486D01*
X110853500Y-62500517D01*
X110897203Y-62514999D01*
X110999992Y-62525500D01*
X110999997Y-62525500D01*
X112025003Y-62525500D01*
X112025008Y-62525500D01*
X112127797Y-62514999D01*
X112145056Y-62509279D01*
X112214881Y-62506878D01*
X112272021Y-62540881D01*
X112280389Y-62491127D01*
X112326825Y-62439772D01*
X112443655Y-62367711D01*
X112567711Y-62243655D01*
X112659814Y-62094334D01*
X112714999Y-61927797D01*
X112725500Y-61825008D01*
X112725500Y-59574992D01*
X112725499Y-59574984D01*
X113274500Y-59574984D01*
X113274500Y-61825015D01*
X113285000Y-61927795D01*
X113285001Y-61927796D01*
X113340186Y-62094335D01*
X113340187Y-62094337D01*
X113432286Y-62243651D01*
X113432289Y-62243655D01*
X113556344Y-62367710D01*
X113556348Y-62367713D01*
X113705662Y-62459812D01*
X113705664Y-62459813D01*
X113705666Y-62459814D01*
X113872203Y-62514999D01*
X113974992Y-62525500D01*
X113974997Y-62525500D01*
X115000003Y-62525500D01*
X115000008Y-62525500D01*
X115102797Y-62514999D01*
X115269334Y-62459814D01*
X115418655Y-62367711D01*
X115542711Y-62243655D01*
X115634814Y-62094334D01*
X115689999Y-61927797D01*
X115695390Y-61875022D01*
X115721785Y-61810332D01*
X115778966Y-61770180D01*
X115848777Y-61767316D01*
X115857752Y-61769919D01*
X115992302Y-61814505D01*
X115992309Y-61814506D01*
X116095019Y-61824999D01*
X116519999Y-61824999D01*
X116520000Y-61824998D01*
X116520000Y-59525000D01*
X116095028Y-59525000D01*
X116095012Y-59525001D01*
X115992302Y-59535494D01*
X115852811Y-59581717D01*
X115782982Y-59584119D01*
X115722941Y-59548387D01*
X115691748Y-59485867D01*
X115690450Y-59476627D01*
X115689999Y-59472203D01*
X115681176Y-59445578D01*
X115678629Y-59437890D01*
X115673693Y-59417191D01*
X115673322Y-59414710D01*
X115673321Y-59414694D01*
X115517639Y-58717169D01*
X115522247Y-58647453D01*
X115563816Y-58591294D01*
X115629148Y-58566524D01*
X115697500Y-58581008D01*
X115703733Y-58584605D01*
X115825666Y-58659814D01*
X115992203Y-58714999D01*
X116094991Y-58725500D01*
X117445008Y-58725499D01*
X117547797Y-58714999D01*
X117714334Y-58659814D01*
X117714336Y-58659812D01*
X117714338Y-58659812D01*
X117716955Y-58658591D01*
X117723636Y-58654961D01*
X117929543Y-58557435D01*
X117982622Y-58545500D01*
X118195166Y-58545500D01*
X118260262Y-58563961D01*
X118415659Y-58659810D01*
X118415660Y-58659810D01*
X118415666Y-58659814D01*
X118582203Y-58714999D01*
X118684991Y-58725500D01*
X120035008Y-58725499D01*
X120137797Y-58714999D01*
X120304334Y-58659814D01*
X120453656Y-58567712D01*
X120453659Y-58567708D01*
X120459508Y-58564101D01*
X120526900Y-58545661D01*
X120546334Y-58547559D01*
X121333903Y-58687811D01*
X121351156Y-58692181D01*
X121367203Y-58697499D01*
X121399945Y-58700843D01*
X121412089Y-58702084D01*
X121421228Y-58703363D01*
X121425289Y-58704086D01*
X121425294Y-58704086D01*
X121425301Y-58704088D01*
X121471580Y-58710141D01*
X121473733Y-58710322D01*
X121473737Y-58710321D01*
X121473738Y-58710322D01*
X121499235Y-58709913D01*
X121574554Y-58708706D01*
X121574554Y-58708705D01*
X121578968Y-58708635D01*
X121588202Y-58707999D01*
X122870002Y-58707999D01*
X122870008Y-58707999D01*
X122972797Y-58697499D01*
X123139334Y-58642314D01*
X123288656Y-58550212D01*
X123412712Y-58426156D01*
X123504814Y-58276834D01*
X123559999Y-58110297D01*
X123570500Y-58007509D01*
X123570499Y-57082492D01*
X123569609Y-57073783D01*
X123559999Y-56979703D01*
X123559998Y-56979700D01*
X123556212Y-56968276D01*
X123504814Y-56813166D01*
X123412712Y-56663844D01*
X123288656Y-56539788D01*
X123156252Y-56458121D01*
X123139336Y-56447687D01*
X123139331Y-56447685D01*
X123069363Y-56424500D01*
X122972797Y-56392501D01*
X122972795Y-56392500D01*
X122870016Y-56382000D01*
X122870009Y-56382000D01*
X121584691Y-56382000D01*
X121575195Y-56381225D01*
X121575178Y-56381495D01*
X121569103Y-56381101D01*
X121569102Y-56381101D01*
X121569100Y-56381101D01*
X121569099Y-56381101D01*
X121544260Y-56381931D01*
X121540122Y-56382000D01*
X121470000Y-56382000D01*
X121469975Y-56382002D01*
X121439058Y-56385160D01*
X121430613Y-56385732D01*
X121425310Y-56385909D01*
X121425308Y-56385909D01*
X121421192Y-56386642D01*
X121412086Y-56387915D01*
X121367202Y-56392501D01*
X121367200Y-56392501D01*
X121351167Y-56397814D01*
X121333907Y-56402186D01*
X120545552Y-56542579D01*
X120523812Y-56544500D01*
X120427558Y-56544500D01*
X120362462Y-56526039D01*
X120304340Y-56490189D01*
X120304335Y-56490187D01*
X120304334Y-56490186D01*
X120137797Y-56435001D01*
X120137795Y-56435000D01*
X120035010Y-56424500D01*
X118684998Y-56424500D01*
X118684981Y-56424501D01*
X118582203Y-56435000D01*
X118582200Y-56435001D01*
X118415668Y-56490185D01*
X118415659Y-56490189D01*
X118357538Y-56526039D01*
X118292442Y-56544500D01*
X117855946Y-56544500D01*
X117802866Y-56532565D01*
X117789088Y-56526039D01*
X117723620Y-56495029D01*
X117716932Y-56491398D01*
X117714338Y-56490188D01*
X117714334Y-56490186D01*
X117714328Y-56490184D01*
X117714326Y-56490183D01*
X117703278Y-56486521D01*
X117699947Y-56485364D01*
X117624985Y-56458127D01*
X117624982Y-56458126D01*
X117624968Y-56458121D01*
X117620747Y-56457022D01*
X117620682Y-56457005D01*
X117616229Y-56455867D01*
X117613195Y-56455327D01*
X117595949Y-56450957D01*
X117547800Y-56435002D01*
X117547797Y-56435001D01*
X117547792Y-56435000D01*
X117547790Y-56435000D01*
X117445010Y-56424500D01*
X116094998Y-56424500D01*
X116094981Y-56424501D01*
X115992203Y-56435000D01*
X115992200Y-56435001D01*
X115825668Y-56490185D01*
X115825659Y-56490189D01*
X115767538Y-56526039D01*
X115702442Y-56544500D01*
X115039675Y-56544500D01*
X115039655Y-56544499D01*
X115033541Y-56544499D01*
X114836460Y-56544499D01*
X114836457Y-56544499D01*
X114643172Y-56582946D01*
X114643164Y-56582948D01*
X114461088Y-56658366D01*
X114461079Y-56658371D01*
X114297219Y-56767859D01*
X114297215Y-56767862D01*
X113932578Y-57132501D01*
X113849720Y-57215359D01*
X113849718Y-57215361D01*
X113780038Y-57285040D01*
X113710359Y-57354719D01*
X113600871Y-57518580D01*
X113600864Y-57518593D01*
X113568465Y-57596814D01*
X113568465Y-57596815D01*
X113525449Y-57700663D01*
X113525447Y-57700671D01*
X113508088Y-57787942D01*
X113508088Y-57787943D01*
X113487000Y-57893957D01*
X113487000Y-58570704D01*
X113484022Y-58597715D01*
X113301687Y-59414647D01*
X113301674Y-59414712D01*
X113300558Y-59421061D01*
X113296140Y-59438583D01*
X113285001Y-59472203D01*
X113274500Y-59574984D01*
X112725499Y-59574984D01*
X112714999Y-59472203D01*
X112659814Y-59305666D01*
X112640690Y-59274662D01*
X112567713Y-59156348D01*
X112567710Y-59156344D01*
X112443655Y-59032289D01*
X112443651Y-59032286D01*
X112294337Y-58940187D01*
X112294335Y-58940186D01*
X112211065Y-58912593D01*
X112127797Y-58885001D01*
X112127795Y-58885000D01*
X112025015Y-58874500D01*
X112025008Y-58874500D01*
X110999992Y-58874500D01*
X110999984Y-58874500D01*
X110897204Y-58885000D01*
X110897200Y-58885001D01*
X110842939Y-58902982D01*
X110773111Y-58905384D01*
X110713069Y-58869652D01*
X110681877Y-58807131D01*
X110680580Y-58797896D01*
X110679999Y-58792203D01*
X110624814Y-58625666D01*
X110532712Y-58476344D01*
X110408656Y-58352288D01*
X110406544Y-58350176D01*
X110373769Y-58291930D01*
X110370079Y-58276831D01*
X110301866Y-57997690D01*
X110298891Y-57956401D01*
X110330002Y-57632486D01*
X110890001Y-57632486D01*
X110900494Y-57735197D01*
X110955641Y-57901619D01*
X110955643Y-57901624D01*
X111047684Y-58050845D01*
X111171654Y-58174815D01*
X111320875Y-58266856D01*
X111320880Y-58266858D01*
X111487302Y-58322005D01*
X111487309Y-58322006D01*
X111590019Y-58332499D01*
X111814999Y-58332499D01*
X112315000Y-58332499D01*
X112539972Y-58332499D01*
X112539986Y-58332498D01*
X112642697Y-58322005D01*
X112809119Y-58266858D01*
X112809124Y-58266856D01*
X112958345Y-58174815D01*
X113082315Y-58050845D01*
X113174356Y-57901624D01*
X113174358Y-57901619D01*
X113229505Y-57735197D01*
X113229506Y-57735190D01*
X113239999Y-57632486D01*
X113240000Y-57632473D01*
X113240000Y-56232500D01*
X112315000Y-56232500D01*
X112315000Y-58332499D01*
X111814999Y-58332499D01*
X111815000Y-58332498D01*
X111815000Y-56232500D01*
X110890001Y-56232500D01*
X110890001Y-57632486D01*
X110330002Y-57632486D01*
X110377877Y-57134022D01*
X110375588Y-57073783D01*
X110375499Y-57069075D01*
X110375499Y-54332498D01*
X110375498Y-54332480D01*
X110365755Y-54237101D01*
X110378525Y-54168408D01*
X110426406Y-54117524D01*
X110489113Y-54100500D01*
X110776390Y-54100500D01*
X110843429Y-54120185D01*
G37*
%TD.AperFunction*%
%TA.AperFunction,Conductor*%
G36*
X118431235Y-74879550D02*
G01*
X118568818Y-74915609D01*
X119170659Y-75073345D01*
X119171856Y-75073634D01*
X119190186Y-75079603D01*
X119194808Y-75081518D01*
X119208165Y-75087051D01*
X119208169Y-75087052D01*
X119401456Y-75125500D01*
X119401459Y-75125500D01*
X121305500Y-75125500D01*
X121372539Y-75145185D01*
X121418294Y-75197989D01*
X121429500Y-75249500D01*
X121429500Y-101715500D01*
X121409815Y-101782539D01*
X121357011Y-101828294D01*
X121305500Y-101839500D01*
X110299528Y-101839500D01*
X110271993Y-101836404D01*
X109320945Y-101619813D01*
X109259951Y-101585734D01*
X109227063Y-101524088D01*
X109232725Y-101454448D01*
X109272315Y-101401057D01*
X109358584Y-101333913D01*
X109515779Y-101163153D01*
X109642724Y-100968849D01*
X109735957Y-100756300D01*
X109792934Y-100531305D01*
X109796558Y-100487573D01*
X109812100Y-100300006D01*
X109812100Y-100299993D01*
X109792935Y-100068702D01*
X109792933Y-100068691D01*
X109735957Y-99843699D01*
X109642724Y-99631151D01*
X109515783Y-99436852D01*
X109515780Y-99436849D01*
X109515779Y-99436847D01*
X109358584Y-99266087D01*
X109358579Y-99266083D01*
X109358577Y-99266081D01*
X109175434Y-99123535D01*
X109175423Y-99123528D01*
X109101559Y-99083555D01*
X109051968Y-99034335D01*
X109036860Y-98966119D01*
X109061030Y-98900563D01*
X109116806Y-98858482D01*
X109160576Y-98850500D01*
X115723543Y-98850500D01*
X115860881Y-98823181D01*
X115916835Y-98812051D01*
X116098914Y-98736632D01*
X116262782Y-98627139D01*
X116402139Y-98487782D01*
X116511632Y-98323914D01*
X116587051Y-98141835D01*
X116625500Y-97948541D01*
X116625500Y-93146184D01*
X116627421Y-93124444D01*
X116667301Y-92900500D01*
X116767811Y-92336093D01*
X116772183Y-92318837D01*
X116777499Y-92302797D01*
X116782086Y-92257891D01*
X116783366Y-92248751D01*
X116784088Y-92244698D01*
X116790141Y-92198419D01*
X116790322Y-92196266D01*
X116788706Y-92095445D01*
X116788705Y-92095444D01*
X116788635Y-92091030D01*
X116787999Y-92081797D01*
X116787999Y-90799998D01*
X116787998Y-90799981D01*
X116777499Y-90697203D01*
X116777498Y-90697200D01*
X116754667Y-90628302D01*
X116722314Y-90530666D01*
X116630212Y-90381344D01*
X116506156Y-90257288D01*
X116356834Y-90165186D01*
X116190297Y-90110001D01*
X116190295Y-90110000D01*
X116087516Y-90099500D01*
X115396230Y-90099500D01*
X115329191Y-90079815D01*
X115283436Y-90027011D01*
X115273492Y-89957853D01*
X115302517Y-89894297D01*
X115307393Y-89889059D01*
X115307710Y-89888659D01*
X115307712Y-89888656D01*
X115315648Y-89875787D01*
X115342676Y-89844904D01*
X115441957Y-89763688D01*
X115473012Y-89745106D01*
X115545495Y-89715084D01*
X115611340Y-89671088D01*
X115611340Y-89671087D01*
X115611342Y-89671087D01*
X115639878Y-89652020D01*
X115668416Y-89632952D01*
X115963680Y-89337686D01*
X115972833Y-89329405D01*
X115977359Y-89325704D01*
X115996526Y-89309207D01*
X115997391Y-89308424D01*
X116051750Y-89250854D01*
X116051750Y-89250853D01*
X116054490Y-89247952D01*
X116061656Y-89239709D01*
X116171610Y-89129757D01*
X116201080Y-89085652D01*
X116253742Y-89006837D01*
X116278264Y-88947635D01*
X116310317Y-88870254D01*
X116339158Y-88725259D01*
X116339158Y-88577424D01*
X116339158Y-85944500D01*
X116358843Y-85877461D01*
X116411647Y-85831706D01*
X116463158Y-85820500D01*
X116753408Y-85820500D01*
X116807217Y-85832784D01*
X117491231Y-86162276D01*
X117499085Y-86166576D01*
X117500660Y-86167310D01*
X117500666Y-86167314D01*
X117500671Y-86167315D01*
X117500672Y-86167316D01*
X117518416Y-86173196D01*
X117522533Y-86174641D01*
X117586761Y-86198464D01*
X117590973Y-86199591D01*
X117595302Y-86200729D01*
X117595314Y-86200730D01*
X117599799Y-86201563D01*
X117599700Y-86202094D01*
X117617015Y-86205867D01*
X117667203Y-86222499D01*
X117769991Y-86233000D01*
X119170008Y-86232999D01*
X119272797Y-86222499D01*
X119439334Y-86167314D01*
X119588656Y-86075212D01*
X119712712Y-85951156D01*
X119804814Y-85801834D01*
X119859999Y-85635297D01*
X119870500Y-85532509D01*
X119870499Y-84607492D01*
X119859999Y-84504703D01*
X119804814Y-84338166D01*
X119712712Y-84188844D01*
X119588656Y-84064788D01*
X119442971Y-83974929D01*
X119439336Y-83972687D01*
X119439331Y-83972685D01*
X119437862Y-83972198D01*
X119272797Y-83917501D01*
X119272795Y-83917500D01*
X119170010Y-83907000D01*
X117769998Y-83907000D01*
X117769981Y-83907001D01*
X117667203Y-83917500D01*
X117667200Y-83917501D01*
X117500663Y-83972686D01*
X117499096Y-83973417D01*
X117491229Y-83977722D01*
X117029479Y-84200149D01*
X116960539Y-84211509D01*
X116896402Y-84183793D01*
X116857430Y-84125802D01*
X116852446Y-84102318D01*
X116835369Y-83950750D01*
X116833818Y-83943953D01*
X116835228Y-83943631D01*
X116830500Y-83915762D01*
X116830500Y-83451914D01*
X116831280Y-83438029D01*
X116835565Y-83400001D01*
X116835565Y-83399998D01*
X116831280Y-83361969D01*
X116830500Y-83348085D01*
X116830500Y-82934313D01*
X116830500Y-82934306D01*
X116829813Y-82925580D01*
X116844176Y-82857204D01*
X116893227Y-82807447D01*
X116961392Y-82792107D01*
X117007240Y-82804136D01*
X117491215Y-83037269D01*
X117499082Y-83041574D01*
X117500660Y-83042310D01*
X117500666Y-83042314D01*
X117500671Y-83042315D01*
X117500672Y-83042316D01*
X117518416Y-83048196D01*
X117522533Y-83049641D01*
X117586761Y-83073464D01*
X117590973Y-83074591D01*
X117595302Y-83075729D01*
X117595314Y-83075730D01*
X117599799Y-83076563D01*
X117599700Y-83077094D01*
X117617015Y-83080867D01*
X117667203Y-83097499D01*
X117769991Y-83108000D01*
X119170008Y-83107999D01*
X119272797Y-83097499D01*
X119439334Y-83042314D01*
X119588656Y-82950212D01*
X119712712Y-82826156D01*
X119804814Y-82676834D01*
X119859999Y-82510297D01*
X119870500Y-82407509D01*
X119870499Y-81482492D01*
X119868478Y-81462712D01*
X119859999Y-81379703D01*
X119859998Y-81379700D01*
X119811861Y-81234433D01*
X119804814Y-81213166D01*
X119712712Y-81063844D01*
X119630299Y-80981431D01*
X119596814Y-80920108D01*
X119601798Y-80850416D01*
X119630299Y-80806069D01*
X119657712Y-80778656D01*
X119749814Y-80629334D01*
X119804999Y-80462797D01*
X119815500Y-80360009D01*
X119815499Y-79459992D01*
X119813475Y-79440183D01*
X119804999Y-79357203D01*
X119804998Y-79357200D01*
X119779345Y-79279785D01*
X119749814Y-79190666D01*
X119657712Y-79041344D01*
X119533656Y-78917288D01*
X119440888Y-78860069D01*
X119384336Y-78825187D01*
X119384331Y-78825185D01*
X119373081Y-78821457D01*
X119217797Y-78770001D01*
X119217795Y-78770000D01*
X119115010Y-78759500D01*
X117764998Y-78759500D01*
X117764981Y-78759501D01*
X117662203Y-78770000D01*
X117662200Y-78770001D01*
X117495668Y-78825185D01*
X117495663Y-78825187D01*
X117346342Y-78917289D01*
X117222289Y-79041342D01*
X117130187Y-79190663D01*
X117130186Y-79190666D01*
X117075794Y-79354812D01*
X117072872Y-79363629D01*
X117070752Y-79362926D01*
X117048471Y-79404046D01*
X117064499Y-79458062D01*
X117064500Y-79458416D01*
X117064500Y-79727382D01*
X117054884Y-79775260D01*
X116817083Y-80343378D01*
X116773040Y-80397618D01*
X116706664Y-80419437D01*
X116702699Y-80419500D01*
X114733914Y-80419500D01*
X114666875Y-80399815D01*
X114621120Y-80347011D01*
X114611176Y-80277853D01*
X114640201Y-80214297D01*
X114646233Y-80207819D01*
X114867233Y-79986819D01*
X114928556Y-79953334D01*
X114954914Y-79950500D01*
X114975686Y-79950500D01*
X114975694Y-79950500D01*
X115012569Y-79947598D01*
X115012571Y-79947597D01*
X115012573Y-79947597D01*
X115059263Y-79934032D01*
X115170398Y-79901744D01*
X115311865Y-79818081D01*
X115311870Y-79818075D01*
X115318031Y-79813298D01*
X115319933Y-79815750D01*
X115368579Y-79789155D01*
X115438274Y-79794104D01*
X115470695Y-79814940D01*
X115471969Y-79813298D01*
X115478132Y-79818078D01*
X115478135Y-79818081D01*
X115619602Y-79901744D01*
X115661224Y-79913836D01*
X115777426Y-79947597D01*
X115777429Y-79947597D01*
X115777431Y-79947598D01*
X115814306Y-79950500D01*
X115814314Y-79950500D01*
X116245686Y-79950500D01*
X116245694Y-79950500D01*
X116282569Y-79947598D01*
X116282571Y-79947597D01*
X116282573Y-79947597D01*
X116329263Y-79934032D01*
X116440398Y-79901744D01*
X116581865Y-79818081D01*
X116698081Y-79701865D01*
X116781744Y-79560398D01*
X116810915Y-79459991D01*
X116821424Y-79423821D01*
X116847924Y-79382324D01*
X116830845Y-79336981D01*
X116830500Y-79327735D01*
X116830500Y-79001390D01*
X116837459Y-78960435D01*
X116845750Y-78936741D01*
X116855368Y-78909255D01*
X116865260Y-78821459D01*
X116875565Y-78730003D01*
X116875565Y-78729996D01*
X116855369Y-78550750D01*
X116855368Y-78550745D01*
X116837458Y-78499561D01*
X116830500Y-78458606D01*
X116830500Y-78371390D01*
X116837459Y-78330435D01*
X116852571Y-78287248D01*
X116855368Y-78279255D01*
X116868183Y-78165518D01*
X116875565Y-78100003D01*
X116875565Y-78099996D01*
X116855369Y-77920750D01*
X116855368Y-77920745D01*
X116837458Y-77869561D01*
X116830500Y-77828606D01*
X116830500Y-77784313D01*
X116830499Y-77784298D01*
X116827598Y-77747432D01*
X116827597Y-77747426D01*
X116781745Y-77589606D01*
X116781745Y-77589605D01*
X116781744Y-77589604D01*
X116781744Y-77589602D01*
X116769735Y-77569297D01*
X116752555Y-77501574D01*
X116774715Y-77435311D01*
X116829181Y-77391549D01*
X116898661Y-77384180D01*
X116957180Y-77412042D01*
X117156157Y-77582650D01*
X117180980Y-77611685D01*
X117222288Y-77678656D01*
X117346344Y-77802712D01*
X117495666Y-77894814D01*
X117662203Y-77949999D01*
X117764991Y-77960500D01*
X119115008Y-77960499D01*
X119217797Y-77949999D01*
X119384334Y-77894814D01*
X119533656Y-77802712D01*
X119657712Y-77678656D01*
X119749814Y-77529334D01*
X119804999Y-77362797D01*
X119815500Y-77260009D01*
X119815499Y-76359992D01*
X119812610Y-76331714D01*
X119804999Y-76257203D01*
X119804998Y-76257200D01*
X119788986Y-76208879D01*
X119749814Y-76090666D01*
X119657712Y-75941344D01*
X119533656Y-75817288D01*
X119420046Y-75747213D01*
X119384336Y-75725187D01*
X119384331Y-75725185D01*
X119382862Y-75724698D01*
X119217797Y-75670001D01*
X119217795Y-75670000D01*
X119115016Y-75659500D01*
X119115009Y-75659500D01*
X117831875Y-75659500D01*
X117821066Y-75659028D01*
X117781601Y-75655574D01*
X116898001Y-75704664D01*
X116853255Y-75708938D01*
X116841467Y-75709500D01*
X114219062Y-75709500D01*
X114152023Y-75689815D01*
X114119901Y-75659952D01*
X114108675Y-75645000D01*
X112689000Y-75645000D01*
X112621961Y-75625315D01*
X112576206Y-75572511D01*
X112565000Y-75521000D01*
X112565000Y-75269000D01*
X112584685Y-75201961D01*
X112637489Y-75156206D01*
X112689000Y-75145000D01*
X114108675Y-75145000D01*
X114108674Y-75144999D01*
X114076454Y-75034094D01*
X114076654Y-74964225D01*
X114114597Y-74905555D01*
X114178235Y-74876712D01*
X114195531Y-74875500D01*
X118399799Y-74875500D01*
X118431235Y-74879550D01*
G37*
%TD.AperFunction*%
%TA.AperFunction,Conductor*%
G36*
X100915703Y-78545336D02*
G01*
X100922181Y-78551368D01*
X101080858Y-78710045D01*
X101080861Y-78710047D01*
X101267266Y-78840568D01*
X101473504Y-78936739D01*
X101693308Y-78995635D01*
X101855230Y-79009801D01*
X101919998Y-79015468D01*
X101920000Y-79015468D01*
X101920002Y-79015468D01*
X101976673Y-79010509D01*
X102146692Y-78995635D01*
X102366496Y-78936739D01*
X102386623Y-78927353D01*
X102412150Y-78918683D01*
X102415486Y-78917942D01*
X103109119Y-78655732D01*
X103178785Y-78650440D01*
X103240256Y-78683654D01*
X103274012Y-78744829D01*
X103274581Y-78795911D01*
X103269500Y-78821457D01*
X103269500Y-79122894D01*
X103267813Y-79143280D01*
X103137600Y-79924553D01*
X103132997Y-79943160D01*
X103130000Y-79952204D01*
X103125660Y-79994690D01*
X103124615Y-80002469D01*
X103122391Y-80015810D01*
X103122382Y-80015872D01*
X103116855Y-80062084D01*
X103116699Y-80064218D01*
X103116699Y-80064243D01*
X103119456Y-80168273D01*
X103119500Y-80171558D01*
X103119500Y-81405001D01*
X103119501Y-81405018D01*
X103130000Y-81507796D01*
X103130001Y-81507799D01*
X103170818Y-81630974D01*
X103185186Y-81674334D01*
X103277288Y-81823656D01*
X103401344Y-81947712D01*
X103550666Y-82039814D01*
X103717203Y-82094999D01*
X103819991Y-82105500D01*
X104720008Y-82105499D01*
X104720016Y-82105498D01*
X104720019Y-82105498D01*
X104776302Y-82099748D01*
X104822797Y-82094999D01*
X104989334Y-82039814D01*
X105138656Y-81947712D01*
X105262712Y-81823656D01*
X105354814Y-81674334D01*
X105409999Y-81507797D01*
X105420500Y-81405009D01*
X105420499Y-80168640D01*
X105420829Y-80159928D01*
X105420823Y-80159668D01*
X105420824Y-80159664D01*
X105420530Y-80146511D01*
X105420499Y-80143741D01*
X105420499Y-80054997D01*
X105420498Y-80054991D01*
X105418420Y-80034646D01*
X105417810Y-80024825D01*
X105417609Y-80015820D01*
X105415377Y-80002434D01*
X105414342Y-79994726D01*
X105409999Y-79952203D01*
X105407003Y-79943162D01*
X105402395Y-79924540D01*
X105384651Y-79818076D01*
X105318995Y-79424136D01*
X105327391Y-79354776D01*
X105371954Y-79300963D01*
X105438537Y-79279785D01*
X105506000Y-79297966D01*
X105598166Y-79354814D01*
X105764703Y-79409999D01*
X105867491Y-79420500D01*
X106293771Y-79420499D01*
X106360809Y-79440183D01*
X106406564Y-79492987D01*
X106416508Y-79562146D01*
X106387483Y-79625702D01*
X106381456Y-79632176D01*
X106377288Y-79636343D01*
X106285187Y-79785663D01*
X106285185Y-79785668D01*
X106275217Y-79815750D01*
X106230001Y-79952203D01*
X106230001Y-79952204D01*
X106230000Y-79952204D01*
X106219500Y-80054983D01*
X106219500Y-81405001D01*
X106219501Y-81405018D01*
X106230000Y-81507796D01*
X106230001Y-81507799D01*
X106285185Y-81674331D01*
X106285187Y-81674336D01*
X106377289Y-81823657D01*
X106468451Y-81914819D01*
X106501936Y-81976142D01*
X106496952Y-82045834D01*
X106468451Y-82090181D01*
X106377289Y-82181342D01*
X106285187Y-82330663D01*
X106285185Y-82330668D01*
X106279551Y-82347671D01*
X106230001Y-82497203D01*
X106230001Y-82497204D01*
X106230000Y-82497204D01*
X106219500Y-82599983D01*
X106219500Y-82599991D01*
X106219500Y-83042316D01*
X106219501Y-83365500D01*
X106199817Y-83432539D01*
X106147013Y-83478294D01*
X106095501Y-83489500D01*
X103185546Y-83489500D01*
X103118507Y-83469815D01*
X103072752Y-83417011D01*
X103062808Y-83347853D01*
X103073164Y-83313095D01*
X103146265Y-83156326D01*
X103146269Y-83156317D01*
X103205139Y-82936610D01*
X103205141Y-82936599D01*
X103224966Y-82710002D01*
X103224966Y-82709997D01*
X103205141Y-82483400D01*
X103205139Y-82483389D01*
X103146269Y-82263682D01*
X103146264Y-82263668D01*
X103050136Y-82057521D01*
X103050132Y-82057513D01*
X102999025Y-81984526D01*
X102320000Y-82663551D01*
X102320000Y-82657339D01*
X102292741Y-82555606D01*
X102240080Y-82464394D01*
X102165606Y-82389920D01*
X102074394Y-82337259D01*
X101972661Y-82310000D01*
X101966448Y-82310000D01*
X102645472Y-81630974D01*
X102572478Y-81579863D01*
X102366331Y-81483735D01*
X102366317Y-81483730D01*
X102146610Y-81424860D01*
X102146599Y-81424858D01*
X101920002Y-81405034D01*
X101919998Y-81405034D01*
X101693400Y-81424858D01*
X101693389Y-81424860D01*
X101473682Y-81483730D01*
X101473673Y-81483734D01*
X101267516Y-81579866D01*
X101267512Y-81579868D01*
X101194526Y-81630973D01*
X101194526Y-81630974D01*
X101873553Y-82310000D01*
X101867339Y-82310000D01*
X101765606Y-82337259D01*
X101674394Y-82389920D01*
X101599920Y-82464394D01*
X101547259Y-82555606D01*
X101520000Y-82657339D01*
X101520000Y-82663553D01*
X100839409Y-81982962D01*
X100776806Y-81970380D01*
X100726624Y-81921764D01*
X100710500Y-81860619D01*
X100710500Y-78639049D01*
X100730185Y-78572010D01*
X100782989Y-78526255D01*
X100852147Y-78516311D01*
X100915703Y-78545336D01*
G37*
%TD.AperFunction*%
%TA.AperFunction,Conductor*%
G36*
X110392539Y-71085185D02*
G01*
X110438294Y-71137989D01*
X110449500Y-71189500D01*
X110449500Y-76533922D01*
X110465137Y-76612536D01*
X110458910Y-76682128D01*
X110416046Y-76737305D01*
X110350156Y-76760549D01*
X110282160Y-76744481D01*
X110278423Y-76742266D01*
X110186624Y-76685643D01*
X110186619Y-76685641D01*
X110020197Y-76630494D01*
X110020190Y-76630493D01*
X109917486Y-76620000D01*
X109705000Y-76620000D01*
X109705000Y-78146000D01*
X109685315Y-78213039D01*
X109632511Y-78258794D01*
X109581000Y-78270000D01*
X108292501Y-78270000D01*
X108292501Y-78495500D01*
X108272816Y-78562539D01*
X108220012Y-78608294D01*
X108168501Y-78619500D01*
X107736080Y-78619500D01*
X107641191Y-78638375D01*
X107571599Y-78632148D01*
X107516422Y-78589285D01*
X107493177Y-78523396D01*
X107492999Y-78516758D01*
X107492999Y-77320013D01*
X108292500Y-77320013D01*
X108292500Y-77770000D01*
X109205000Y-77770000D01*
X109205000Y-76620000D01*
X108992529Y-76620000D01*
X108992512Y-76620001D01*
X108889802Y-76630494D01*
X108723380Y-76685641D01*
X108723375Y-76685643D01*
X108574154Y-76777684D01*
X108450184Y-76901654D01*
X108358143Y-77050875D01*
X108358141Y-77050880D01*
X108302994Y-77217302D01*
X108302993Y-77217309D01*
X108292500Y-77320013D01*
X107492999Y-77320013D01*
X107492999Y-77319998D01*
X107492998Y-77319981D01*
X107482499Y-77217203D01*
X107482498Y-77217200D01*
X107458673Y-77145302D01*
X107427314Y-77050666D01*
X107427311Y-77050662D01*
X107426578Y-77049089D01*
X107422271Y-77041219D01*
X107092785Y-76357217D01*
X107080500Y-76303404D01*
X107080500Y-76260057D01*
X107100185Y-76193018D01*
X107152989Y-76147263D01*
X107169894Y-76140984D01*
X107232894Y-76122681D01*
X107371643Y-76040626D01*
X107485626Y-75926643D01*
X107567681Y-75787894D01*
X107604073Y-75662633D01*
X107612653Y-75633102D01*
X107612654Y-75633096D01*
X107615500Y-75596935D01*
X107615499Y-75193066D01*
X107612654Y-75156902D01*
X107567681Y-75002106D01*
X107507592Y-74900500D01*
X107485630Y-74863363D01*
X107485628Y-74863361D01*
X107485626Y-74863357D01*
X107469598Y-74847329D01*
X107436111Y-74786007D01*
X107441094Y-74716315D01*
X107469598Y-74671963D01*
X107485225Y-74656336D01*
X107485231Y-74656329D01*
X107567218Y-74517695D01*
X107567218Y-74517694D01*
X107608674Y-74375000D01*
X106189000Y-74375000D01*
X106121961Y-74355315D01*
X106076206Y-74302511D01*
X106065000Y-74251000D01*
X106065000Y-73999000D01*
X106084685Y-73931961D01*
X106137489Y-73886206D01*
X106189000Y-73875000D01*
X107608674Y-73875000D01*
X107567218Y-73732305D01*
X107567218Y-73732304D01*
X107485229Y-73593668D01*
X107485223Y-73593661D01*
X107469598Y-73578036D01*
X107436111Y-73516714D01*
X107441094Y-73447022D01*
X107469596Y-73402672D01*
X107485626Y-73386643D01*
X107567681Y-73247894D01*
X107612654Y-73093098D01*
X107615500Y-73056935D01*
X107615499Y-72653066D01*
X107612654Y-72616902D01*
X107567681Y-72462106D01*
X107523550Y-72387483D01*
X107485630Y-72323363D01*
X107485628Y-72323361D01*
X107485626Y-72323357D01*
X107469952Y-72307683D01*
X107436465Y-72246361D01*
X107441448Y-72176669D01*
X107469952Y-72132317D01*
X107476005Y-72126264D01*
X107485626Y-72116643D01*
X107567681Y-71977894D01*
X107612654Y-71823098D01*
X107615500Y-71786935D01*
X107615499Y-71383066D01*
X107612654Y-71346902D01*
X107576975Y-71224095D01*
X107577174Y-71154226D01*
X107615116Y-71095556D01*
X107678754Y-71066712D01*
X107696051Y-71065500D01*
X110325500Y-71065500D01*
X110392539Y-71085185D01*
G37*
%TD.AperFunction*%
%TA.AperFunction,Conductor*%
G36*
X104993724Y-69840185D02*
G01*
X105039479Y-69892989D01*
X105049423Y-69962147D01*
X105045761Y-69979095D01*
X105017346Y-70076897D01*
X105017345Y-70076903D01*
X105014500Y-70113057D01*
X105014500Y-70516922D01*
X105014501Y-70516947D01*
X105017346Y-70553098D01*
X105053025Y-70675905D01*
X105052826Y-70745774D01*
X105014884Y-70804444D01*
X104951246Y-70833288D01*
X104933949Y-70834500D01*
X104491076Y-70834500D01*
X104462242Y-70840234D01*
X104462243Y-70840235D01*
X104346093Y-70863339D01*
X104346083Y-70863342D01*
X104266081Y-70896479D01*
X104266082Y-70896480D01*
X104209506Y-70919915D01*
X104148578Y-70960626D01*
X104086582Y-71002049D01*
X104086579Y-71002052D01*
X103717050Y-71371580D01*
X103717044Y-71371588D01*
X103667812Y-71445268D01*
X103667813Y-71445269D01*
X103634921Y-71494496D01*
X103634914Y-71494508D01*
X103578342Y-71631086D01*
X103578340Y-71631092D01*
X103549500Y-71776079D01*
X103549500Y-74024969D01*
X103536264Y-74070042D01*
X103547069Y-74090598D01*
X103549500Y-74115030D01*
X103549500Y-76751300D01*
X103529815Y-76818339D01*
X103477011Y-76864094D01*
X103407853Y-76874038D01*
X103381654Y-76867289D01*
X102415491Y-76502059D01*
X102406407Y-76499088D01*
X102393533Y-76494879D01*
X102379675Y-76489406D01*
X102366495Y-76483260D01*
X102146697Y-76424366D01*
X102146693Y-76424365D01*
X102146692Y-76424365D01*
X102146691Y-76424364D01*
X102146686Y-76424364D01*
X101920002Y-76404532D01*
X101919998Y-76404532D01*
X101693313Y-76424364D01*
X101693302Y-76424366D01*
X101473511Y-76483258D01*
X101473502Y-76483261D01*
X101267267Y-76579431D01*
X101267265Y-76579432D01*
X101080858Y-76709954D01*
X100922181Y-76868632D01*
X100860858Y-76902117D01*
X100791166Y-76897133D01*
X100735233Y-76855261D01*
X100710816Y-76789797D01*
X100710500Y-76780951D01*
X100710500Y-74888161D01*
X100730185Y-74821122D01*
X100782989Y-74775367D01*
X100852147Y-74765423D01*
X100915703Y-74794448D01*
X100916254Y-74795059D01*
X100920974Y-74795472D01*
X101600000Y-74116446D01*
X101600000Y-74122661D01*
X101627259Y-74224394D01*
X101679920Y-74315606D01*
X101754394Y-74390080D01*
X101845606Y-74442741D01*
X101947339Y-74470000D01*
X101953553Y-74470000D01*
X101274526Y-75149025D01*
X101347513Y-75200132D01*
X101347521Y-75200136D01*
X101553668Y-75296264D01*
X101553682Y-75296269D01*
X101773389Y-75355139D01*
X101773400Y-75355141D01*
X101999998Y-75374966D01*
X102000002Y-75374966D01*
X102226599Y-75355141D01*
X102226610Y-75355139D01*
X102446317Y-75296269D01*
X102446331Y-75296264D01*
X102652478Y-75200136D01*
X102725471Y-75149024D01*
X102046447Y-74470000D01*
X102052661Y-74470000D01*
X102154394Y-74442741D01*
X102245606Y-74390080D01*
X102320080Y-74315606D01*
X102372741Y-74224394D01*
X102400000Y-74122661D01*
X102400000Y-74116447D01*
X103079024Y-74795471D01*
X103130136Y-74722478D01*
X103226264Y-74516331D01*
X103226269Y-74516317D01*
X103285139Y-74296610D01*
X103285141Y-74296599D01*
X103301972Y-74104223D01*
X103314470Y-74072270D01*
X103306523Y-74059904D01*
X103301972Y-74035776D01*
X103285141Y-73843400D01*
X103285139Y-73843389D01*
X103226269Y-73623682D01*
X103226264Y-73623668D01*
X103130136Y-73417521D01*
X103130132Y-73417513D01*
X103079025Y-73344526D01*
X102400000Y-74023551D01*
X102400000Y-74017339D01*
X102372741Y-73915606D01*
X102320080Y-73824394D01*
X102245606Y-73749920D01*
X102154394Y-73697259D01*
X102052661Y-73670000D01*
X102046448Y-73670000D01*
X102725472Y-72990974D01*
X102652478Y-72939863D01*
X102446331Y-72843735D01*
X102446317Y-72843730D01*
X102226610Y-72784860D01*
X102226599Y-72784858D01*
X102000002Y-72765034D01*
X101999998Y-72765034D01*
X101773400Y-72784858D01*
X101773389Y-72784860D01*
X101553682Y-72843730D01*
X101553673Y-72843734D01*
X101347516Y-72939866D01*
X101347512Y-72939868D01*
X101274526Y-72990973D01*
X101274526Y-72990974D01*
X101953553Y-73670000D01*
X101947339Y-73670000D01*
X101845606Y-73697259D01*
X101754394Y-73749920D01*
X101679920Y-73824394D01*
X101627259Y-73915606D01*
X101600000Y-74017339D01*
X101600000Y-74023552D01*
X100920974Y-73344526D01*
X100907633Y-73345693D01*
X100881498Y-73366584D01*
X100811999Y-73373777D01*
X100749645Y-73342255D01*
X100714231Y-73282025D01*
X100710500Y-73251836D01*
X100710500Y-70157226D01*
X100730185Y-70090187D01*
X100782989Y-70044432D01*
X100852147Y-70034488D01*
X100878347Y-70041237D01*
X101504513Y-70277942D01*
X101526470Y-70285121D01*
X101540330Y-70290596D01*
X101553504Y-70296739D01*
X101773308Y-70355635D01*
X101935230Y-70369801D01*
X101999998Y-70375468D01*
X102000000Y-70375468D01*
X102000002Y-70375468D01*
X102056673Y-70370509D01*
X102226692Y-70355635D01*
X102446496Y-70296739D01*
X102466623Y-70287353D01*
X102492150Y-70278683D01*
X102495482Y-70277943D01*
X102495482Y-70277942D01*
X102495486Y-70277942D01*
X103684388Y-69828510D01*
X103728234Y-69820500D01*
X104926685Y-69820500D01*
X104993724Y-69840185D01*
G37*
%TD.AperFunction*%
%TA.AperFunction,Conductor*%
G36*
X95424121Y-54120185D02*
G01*
X95469876Y-54172989D01*
X95479820Y-54242147D01*
X95450795Y-54305703D01*
X95424617Y-54328495D01*
X95372206Y-54362531D01*
X95114648Y-54571095D01*
X95114648Y-54571096D01*
X96609301Y-56065748D01*
X96507670Y-56139588D01*
X96329588Y-56317670D01*
X96255748Y-56419300D01*
X94761096Y-54924648D01*
X94761095Y-54924648D01*
X94552534Y-55182202D01*
X94528495Y-55219219D01*
X94475473Y-55264722D01*
X94406268Y-55274335D01*
X94342851Y-55245008D01*
X94305358Y-55186050D01*
X94300500Y-55151683D01*
X94300500Y-54224500D01*
X94320185Y-54157461D01*
X94372989Y-54111706D01*
X94424500Y-54100500D01*
X95357082Y-54100500D01*
X95424121Y-54120185D01*
G37*
%TD.AperFunction*%
%TA.AperFunction,Conductor*%
G36*
X141452539Y-54120185D02*
G01*
X141498294Y-54172989D01*
X141509500Y-54224500D01*
X141509500Y-55145492D01*
X141489815Y-55212531D01*
X141437011Y-55258286D01*
X141367853Y-55268230D01*
X141304297Y-55239205D01*
X141281505Y-55213028D01*
X141250409Y-55165146D01*
X141041848Y-54907593D01*
X141041847Y-54907592D01*
X139547195Y-56402244D01*
X139473356Y-56300614D01*
X139295274Y-56122532D01*
X139193642Y-56048692D01*
X140688294Y-54554040D01*
X140688294Y-54554039D01*
X140430741Y-54345478D01*
X140404590Y-54328495D01*
X140359087Y-54275473D01*
X140349474Y-54206268D01*
X140378801Y-54142852D01*
X140437758Y-54105358D01*
X140472126Y-54100500D01*
X141385500Y-54100500D01*
X141452539Y-54120185D01*
G37*
%TD.AperFunction*%
%TD*%
M02*
