M48
; DRILL file {KiCad 8.0.3-unknown-202406112021~03dd6c7a8e~ubuntu22.04.1} date 2024-06-13T18:15:46+0530
; FORMAT={-:-/ absolute / inch / decimal}
; #@! TF.CreationDate,2024-06-13T18:15:46+05:30
; #@! TF.GenerationSoftware,Kicad,Pcbnew,8.0.3-unknown-202406112021~03dd6c7a8e~ubuntu22.04.1
; #@! TF.FileFunction,Plated,1,2,PTH
FMAT,2
INCH
; #@! TA.AperFunction,Plated,PTH,ViaDrill
T1C0.0118
; #@! TA.AperFunction,Plated,PTH,ViaDrill
T2C0.0157
; #@! TA.AperFunction,Plated,PTH,ComponentDrill
T3C0.0197
; #@! TA.AperFunction,Plated,PTH,ComponentDrill
T4C0.0236
; #@! TA.AperFunction,Plated,PTH,ComponentDrill
T5C0.0315
; #@! TA.AperFunction,Plated,PTH,ComponentDrill
T6C0.0354
; #@! TA.AperFunction,Plated,PTH,ComponentDrill
T7C0.0394
; #@! TA.AperFunction,Plated,PTH,ComponentDrill
T8C0.0400
; #@! TA.AperFunction,Plated,PTH,ComponentDrill
T9C0.1260
%
G90
G05
T1
X3.7402Y-2.7953
X3.7402Y-2.8543
X3.7402Y-2.9134
X3.7402Y-2.9724
X3.7402Y-3.0315
X3.7402Y-3.0906
X3.7402Y-3.1496
X3.7598Y-4.0157
X3.7598Y-4.0748
X3.7598Y-4.1339
X3.7598Y-4.1929
X3.7598Y-4.252
X3.7598Y-4.311
X3.7598Y-4.3701
X3.7598Y-4.4291
X3.7598Y-4.4882
X3.7992Y-2.7953
X3.7992Y-2.8543
X3.7992Y-2.9134
X3.7992Y-2.9724
X3.7992Y-3.0315
X3.7992Y-3.0906
X3.7992Y-3.1496
X3.8189Y-2.4409
X3.8189Y-2.5
X3.8189Y-4.0157
X3.8189Y-4.0748
X3.8189Y-4.1339
X3.8189Y-4.1929
X3.8189Y-4.252
X3.8189Y-4.311
X3.8189Y-4.3701
X3.8189Y-4.4291
X3.8189Y-4.4882
X3.8583Y-2.7953
X3.8583Y-2.8543
X3.8583Y-2.9134
X3.8583Y-2.9724
X3.8583Y-3.0315
X3.8583Y-3.0906
X3.8583Y-3.1496
X3.878Y-2.4409
X3.878Y-2.5
X3.878Y-4.0157
X3.878Y-4.0748
X3.878Y-4.1339
X3.878Y-4.1929
X3.878Y-4.252
X3.878Y-4.311
X3.878Y-4.3701
X3.878Y-4.4291
X3.878Y-4.4882
X3.937Y-2.4409
X3.937Y-2.5
X3.9567Y-4.0354
X3.9567Y-4.0945
X3.9567Y-4.1535
X4.0157Y-4.0354
X4.0157Y-4.0945
X4.0157Y-4.1535
X4.0748Y-4.0354
X4.0748Y-4.0945
X4.0748Y-4.1535
X4.1339Y-4.0354
X4.1339Y-4.0945
X4.1339Y-4.1535
X4.1709Y-2.9681
X4.1764Y-2.8681
X4.1996Y-2.9673
X4.2039Y-2.8673
X4.2374Y-3.3945
X4.2717Y-4.6654
X4.2717Y-4.7244
X4.2717Y-4.7835
X4.3102Y-3.0543
X4.3118Y-3.0839
X4.3307Y-4.6654
X4.3307Y-4.7244
X4.3307Y-4.7835
X4.3898Y-4.6654
X4.3898Y-4.7244
X4.3898Y-4.7835
X4.3921Y-3.5051
X4.4201Y-3.0736
X4.4201Y-3.1055
X4.4488Y-4.6654
X4.4488Y-4.7244
X4.4488Y-4.7835
X4.4799Y-3.3921
X4.5043Y-3.3736
X4.5079Y-4.6654
X4.5079Y-4.7244
X4.5079Y-4.7835
X4.5276Y-4.1929
X4.5276Y-4.252
X4.5276Y-4.311
X4.5669Y-4.6654
X4.5669Y-4.7244
X4.5669Y-4.7835
X4.5681Y-3.2835
X4.5689Y-3.3122
X4.5697Y-3.0748
X4.5697Y-3.0996
X4.5866Y-4.1929
X4.5866Y-4.252
X4.5866Y-4.311
X4.626Y-3.4252
X4.626Y-3.4843
X4.626Y-3.7205
X4.626Y-3.7795
X4.626Y-3.8386
X4.626Y-3.8976
X4.626Y-4.6654
X4.626Y-4.7244
X4.626Y-4.7835
X4.6303Y-2.6646
X4.6327Y-2.8701
X4.6457Y-4.1929
X4.6457Y-4.252
X4.6457Y-4.311
X4.685Y-3.4252
X4.685Y-3.4843
X4.685Y-3.5433
X4.685Y-3.6024
X4.685Y-3.7205
X4.685Y-3.7795
X4.685Y-3.8386
X4.685Y-3.8976
X4.687Y-2.9665
X4.7047Y-4.1929
X4.7047Y-4.252
X4.7047Y-4.311
X4.7047Y-4.6654
X4.7047Y-4.7244
X4.7047Y-4.7835
X4.7126Y-2.9673
X4.7441Y-3.4252
X4.7441Y-3.4843
X4.7441Y-3.5433
X4.7441Y-3.6024
X4.7441Y-3.7205
X4.7441Y-3.7795
X4.7441Y-3.8386
X4.7441Y-3.8976
X4.7638Y-4.1929
X4.7638Y-4.252
X4.7638Y-4.311
X4.7638Y-4.6654
X4.7638Y-4.7244
X4.7638Y-4.7835
X4.8228Y-4.1929
X4.8228Y-4.252
X4.8228Y-4.311
X4.8228Y-4.6654
X4.8228Y-4.7244
X4.8228Y-4.7835
X4.8819Y-2.4409
X4.8819Y-2.5
X4.8819Y-2.5591
X4.8819Y-2.6181
X4.8819Y-2.6772
X4.8819Y-2.7362
X4.8819Y-2.7953
X4.8819Y-4.1929
X4.8819Y-4.252
X4.8819Y-4.311
X4.8819Y-4.6654
X4.8819Y-4.7244
X4.8819Y-4.7835
X4.9016Y-3.4252
X4.9016Y-3.4843
X4.9016Y-3.5433
X4.9016Y-3.6024
X4.9016Y-3.8386
X4.9016Y-3.8976
X4.9016Y-3.9567
X4.9213Y-2.2244
X4.9213Y-2.2835
X4.9213Y-2.3425
X4.9409Y-2.4409
X4.9409Y-2.5
X4.9409Y-2.5591
X4.9409Y-2.6181
X4.9409Y-2.6772
X4.9409Y-2.7362
X4.9409Y-2.7953
X4.9409Y-4.6654
X4.9409Y-4.7244
X4.9409Y-4.7835
X4.9606Y-3.4252
X4.9606Y-3.4843
X4.9606Y-3.5433
X4.9606Y-3.6024
X4.9606Y-3.8386
X4.9606Y-3.8976
X4.9606Y-3.9567
X4.9803Y-2.2244
X4.9803Y-2.2835
X4.9803Y-2.3425
X5.0Y-2.4409
X5.0Y-2.5
X5.0Y-2.5591
X5.0Y-2.6181
X5.0Y-2.6772
X5.0Y-2.7362
X5.0Y-2.7953
X5.0Y-2.8543
X5.0Y-2.9134
X5.0Y-2.9724
X5.0Y-3.0315
X5.0Y-3.0906
X5.0Y-3.1496
X5.0Y-3.2087
X5.0Y-4.6654
X5.0Y-4.7244
X5.0Y-4.7835
X5.0197Y-3.4252
X5.0197Y-3.4843
X5.0197Y-3.5433
X5.0197Y-3.6024
X5.0591Y-4.6654
X5.0591Y-4.7244
X5.0591Y-4.7835
X5.1181Y-4.6654
X5.1181Y-4.7244
X5.1181Y-4.7835
X5.1772Y-4.6654
X5.1772Y-4.7244
X5.1772Y-4.7835
X5.3543Y-2.4409
X5.3543Y-2.5
X5.3543Y-2.5591
X5.3543Y-2.6181
X5.374Y-4.4094
X5.374Y-4.4685
X5.4134Y-2.4409
X5.4134Y-2.5
X5.4134Y-2.5591
X5.4134Y-2.6181
X5.4331Y-3.8386
X5.4331Y-3.8976
X5.4331Y-3.9567
X5.4331Y-4.0157
X5.4331Y-4.4094
X5.4331Y-4.4685
X5.4528Y-2.9724
X5.4528Y-3.0315
X5.4528Y-3.0906
X5.4724Y-2.4409
X5.4724Y-2.5
X5.4724Y-2.5591
X5.4724Y-2.6181
X5.4724Y-3.4843
X5.4724Y-3.5433
X5.4724Y-3.6024
X5.4921Y-3.8386
X5.4921Y-3.8976
X5.4921Y-3.9567
X5.4921Y-4.0157
X5.4921Y-4.4094
X5.4921Y-4.4685
X5.5118Y-2.9724
X5.5118Y-3.0315
X5.5118Y-3.0906
X5.5315Y-3.4843
X5.5315Y-3.5433
X5.5315Y-3.6024
X5.5512Y-2.5787
X5.5512Y-2.6378
X5.5512Y-2.6969
X5.5512Y-2.7559
X5.5512Y-2.815
X5.5512Y-2.874
X5.5512Y-2.9331
X5.5512Y-3.8386
X5.5512Y-3.8976
X5.5512Y-3.9567
X5.5512Y-4.0157
T2
X4.2959Y-2.9189
T3
X3.7461Y-2.2583
X3.7488Y-4.7555
X3.7737Y-2.1915
X3.7737Y-2.3251
X3.7765Y-4.6887
X3.7765Y-4.8223
X3.8406Y-2.1638
X3.8406Y-2.3528
X3.8433Y-4.661
X3.8433Y-4.85
X3.9074Y-2.1915
X3.9074Y-2.3251
X3.9101Y-4.6887
X3.9101Y-4.8223
X3.935Y-2.2583
X3.9378Y-4.7555
X5.3461Y-4.7504
X5.3485Y-2.2576
X5.3737Y-4.6836
X5.3737Y-4.8172
X5.3762Y-2.1908
X5.3762Y-2.3244
X5.4406Y-4.6559
X5.4406Y-4.8449
X5.443Y-2.1631
X5.443Y-2.3521
X5.5074Y-4.6836
X5.5074Y-4.8172
X5.5098Y-2.1908
X5.5098Y-2.3244
X5.535Y-4.7504
X5.5375Y-2.2576
T4
X5.2732Y-3.8886
X5.352Y-3.8886
X5.4445Y-3.2752
X5.5232Y-3.2752
T5
X3.8193Y-2.5815
X4.0126Y-3.0594
X4.0126Y-3.2563
X4.0157Y-2.7193
X4.0157Y-2.9161
X4.0161Y-2.5815
X4.104Y-2.3531
X4.1041Y-2.4705
X4.204Y-2.3531
X4.2041Y-2.4705
X4.4425Y-2.5157
X4.6394Y-2.5157
X5.3098Y-2.7913
X5.4083Y-2.7913
T7
X3.9823Y-4.248
X3.9823Y-4.348
X3.9823Y-4.448
X5.139Y-2.2907
X5.139Y-2.3907
T8
X4.268Y-3.9488
X4.268Y-4.0488
X4.268Y-4.1488
X4.268Y-4.2488
X4.268Y-4.3488
X4.268Y-4.4488
X4.268Y-4.5488
T9
X3.8406Y-2.2583
X3.8433Y-4.7555
X5.4406Y-4.7504
X5.443Y-2.2576
T6
G00X3.8354Y-3.7504
M15
G01X3.8354Y-3.7189
M16
G05
G00X4.0165Y-3.5378
M15
G01X4.048Y-3.5378
M16
G05
G00X4.0165Y-3.6362
M15
G01X4.048Y-3.6362
M16
G05
G00X4.0165Y-3.8331
M15
G01X4.048Y-3.8331
M16
G05
G00X4.0165Y-3.9315
M15
G01X4.048Y-3.9315
M16
G05
M30
