%TF.GenerationSoftware,KiCad,Pcbnew,8.0.3-unknown-202406112021~03dd6c7a8e~ubuntu22.04.1*%
%TF.CreationDate,2024-06-13T18:15:46+05:30*%
%TF.ProjectId,SDR-Board,5344522d-426f-4617-9264-2e6b69636164,rev?*%
%TF.SameCoordinates,Original*%
%TF.FileFunction,Soldermask,Bot*%
%TF.FilePolarity,Negative*%
%FSLAX46Y46*%
G04 Gerber Fmt 4.6, Leading zero omitted, Abs format (unit mm)*
G04 Created by KiCad (PCBNEW 8.0.3-unknown-202406112021~03dd6c7a8e~ubuntu22.04.1) date 2024-06-13 18:15:46*
%MOMM*%
%LPD*%
G01*
G04 APERTURE LIST*
G04 Aperture macros list*
%AMRoundRect*
0 Rectangle with rounded corners*
0 $1 Rounding radius*
0 $2 $3 $4 $5 $6 $7 $8 $9 X,Y pos of 4 corners*
0 Add a 4 corners polygon primitive as box body*
4,1,4,$2,$3,$4,$5,$6,$7,$8,$9,$2,$3,0*
0 Add four circle primitives for the rounded corners*
1,1,$1+$1,$2,$3*
1,1,$1+$1,$4,$5*
1,1,$1+$1,$6,$7*
1,1,$1+$1,$8,$9*
0 Add four rect primitives between the rounded corners*
20,1,$1+$1,$2,$3,$4,$5,0*
20,1,$1+$1,$4,$5,$6,$7,0*
20,1,$1+$1,$6,$7,$8,$9,0*
20,1,$1+$1,$8,$9,$2,$3,0*%
G04 Aperture macros list end*
%ADD10C,1.600000*%
%ADD11C,0.800000*%
%ADD12C,6.400000*%
%ADD13C,1.200000*%
%ADD14O,2.500000X1.800000*%
%ADD15O,1.800000X2.500000*%
%ADD16C,1.800000*%
%ADD17RoundRect,0.250000X0.425000X1.600000X-0.425000X1.600000X-0.425000X-1.600000X0.425000X-1.600000X0*%
%ADD18R,1.600000X1.600000*%
%ADD19O,1.600000X1.600000*%
%ADD20R,1.200000X1.200000*%
%ADD21R,1.700000X1.700000*%
%ADD22O,1.700000X1.700000*%
%ADD23RoundRect,0.250000X1.600000X-0.425000X1.600000X0.425000X-1.600000X0.425000X-1.600000X-0.425000X0*%
G04 APERTURE END LIST*
D10*
%TO.C,C5*%
X97010000Y-65570000D03*
X102010000Y-65570000D03*
%TD*%
D11*
%TO.C,H4*%
X135790000Y-120660000D03*
X136492944Y-118962944D03*
X136492944Y-122357056D03*
X138190000Y-118260000D03*
D12*
X138190000Y-120660000D03*
D11*
X138190000Y-123060000D03*
X139887056Y-118962944D03*
X139887056Y-122357056D03*
X140590000Y-120660000D03*
%TD*%
D13*
%TO.C,J3*%
X94920000Y-89860000D03*
X94920000Y-99860000D03*
X97420000Y-89860000D03*
X97420000Y-99860000D03*
X102420000Y-94860000D03*
D14*
X102420000Y-89860000D03*
X102420000Y-92360000D03*
D15*
X97420000Y-94860000D03*
D14*
X102420000Y-99860000D03*
X102420000Y-97360000D03*
%TD*%
D16*
%TO.C,U1*%
X108406800Y-115540000D03*
X108406800Y-113000000D03*
X108406800Y-110460000D03*
X108406800Y-107920000D03*
X108406800Y-105380000D03*
X108406800Y-102840000D03*
X108406800Y-100300000D03*
%TD*%
D10*
%TO.C,C7*%
X101920000Y-82710000D03*
X101920000Y-77710000D03*
%TD*%
D17*
%TO.C,RX1*%
X106415000Y-55982500D03*
X112065000Y-55982500D03*
%TD*%
D18*
%TO.C,D3*%
X104244315Y-62750000D03*
D19*
X106784315Y-62750000D03*
%TD*%
D18*
%TO.C,C8*%
X134870000Y-70900000D03*
D10*
X137370000Y-70900000D03*
%TD*%
D11*
%TO.C,H2*%
X95150000Y-57360000D03*
X95852944Y-55662944D03*
X95852944Y-59057056D03*
X97550000Y-54960000D03*
D12*
X97550000Y-57360000D03*
D11*
X97550000Y-59760000D03*
X99247056Y-55662944D03*
X99247056Y-59057056D03*
X99950000Y-57360000D03*
%TD*%
D20*
%TO.C,C15*%
X133940000Y-98770000D03*
D13*
X135940000Y-98770000D03*
%TD*%
D21*
%TO.C,J1*%
X101150000Y-107900000D03*
D22*
X101150000Y-110440000D03*
X101150000Y-112980000D03*
%TD*%
D10*
%TO.C,C6*%
X117840000Y-63900000D03*
X112840000Y-63900000D03*
%TD*%
D23*
%TO.C,TX1*%
X139500000Y-104175000D03*
X139500000Y-109825000D03*
%TD*%
D11*
%TO.C,H1*%
X135852944Y-57342944D03*
X136555888Y-55645888D03*
X136555888Y-59040000D03*
X138252944Y-54942944D03*
D12*
X138252944Y-57342944D03*
D11*
X138252944Y-59742944D03*
X139950000Y-55645888D03*
X139950000Y-59040000D03*
X140652944Y-57342944D03*
%TD*%
D18*
%TO.C,D2*%
X106781370Y-59770000D03*
D19*
X104241370Y-59770000D03*
%TD*%
D20*
%TO.C,C13*%
X138290000Y-83190000D03*
D13*
X140290000Y-83190000D03*
%TD*%
D21*
%TO.C,J2*%
X130530000Y-60725000D03*
D22*
X130530000Y-58185000D03*
%TD*%
D11*
%TO.C,H3*%
X95220000Y-120790000D03*
X95922944Y-119092944D03*
X95922944Y-122487056D03*
X97620000Y-118390000D03*
D12*
X97620000Y-120790000D03*
D11*
X97620000Y-123190000D03*
X99317056Y-119092944D03*
X99317056Y-122487056D03*
X100020000Y-120790000D03*
%TD*%
D10*
%TO.C,C4*%
X102000000Y-74070000D03*
X102000000Y-69070000D03*
%TD*%
M02*
