%TF.GenerationSoftware,KiCad,Pcbnew,8.0.3-unknown-202406112021~03dd6c7a8e~ubuntu22.04.1*%
%TF.CreationDate,2024-06-13T18:15:46+05:30*%
%TF.ProjectId,SDR-Board,5344522d-426f-4617-9264-2e6b69636164,rev?*%
%TF.SameCoordinates,Original*%
%TF.FileFunction,Legend,Top*%
%TF.FilePolarity,Positive*%
%FSLAX46Y46*%
G04 Gerber Fmt 4.6, Leading zero omitted, Abs format (unit mm)*
G04 Created by KiCad (PCBNEW 8.0.3-unknown-202406112021~03dd6c7a8e~ubuntu22.04.1) date 2024-06-13 18:15:46*
%MOMM*%
%LPD*%
G01*
G04 APERTURE LIST*
G04 Aperture macros list*
%AMRoundRect*
0 Rectangle with rounded corners*
0 $1 Rounding radius*
0 $2 $3 $4 $5 $6 $7 $8 $9 X,Y pos of 4 corners*
0 Add a 4 corners polygon primitive as box body*
4,1,4,$2,$3,$4,$5,$6,$7,$8,$9,$2,$3,0*
0 Add four circle primitives for the rounded corners*
1,1,$1+$1,$2,$3*
1,1,$1+$1,$4,$5*
1,1,$1+$1,$6,$7*
1,1,$1+$1,$8,$9*
0 Add four rect primitives between the rounded corners*
20,1,$1+$1,$2,$3,$4,$5,0*
20,1,$1+$1,$4,$5,$6,$7,0*
20,1,$1+$1,$6,$7,$8,$9,0*
20,1,$1+$1,$8,$9,$2,$3,0*%
G04 Aperture macros list end*
%ADD10C,0.300000*%
%ADD11C,0.150000*%
%ADD12C,0.120000*%
%ADD13RoundRect,0.250000X-0.650000X0.412500X-0.650000X-0.412500X0.650000X-0.412500X0.650000X0.412500X0*%
%ADD14RoundRect,0.250000X0.650000X-0.412500X0.650000X0.412500X-0.650000X0.412500X-0.650000X-0.412500X0*%
%ADD15RoundRect,0.250000X-0.412500X-0.650000X0.412500X-0.650000X0.412500X0.650000X-0.412500X0.650000X0*%
%ADD16RoundRect,0.250000X-0.625000X0.400000X-0.625000X-0.400000X0.625000X-0.400000X0.625000X0.400000X0*%
%ADD17RoundRect,0.137500X0.662500X0.137500X-0.662500X0.137500X-0.662500X-0.137500X0.662500X-0.137500X0*%
%ADD18C,1.600000*%
%ADD19RoundRect,0.150000X-0.150000X0.725000X-0.150000X-0.725000X0.150000X-0.725000X0.150000X0.725000X0*%
%ADD20C,0.800000*%
%ADD21C,6.400000*%
%ADD22RoundRect,0.250000X0.412500X0.650000X-0.412500X0.650000X-0.412500X-0.650000X0.412500X-0.650000X0*%
%ADD23C,1.200000*%
%ADD24O,2.500000X1.800000*%
%ADD25O,1.800000X2.500000*%
%ADD26RoundRect,0.250001X0.462499X1.074999X-0.462499X1.074999X-0.462499X-1.074999X0.462499X-1.074999X0*%
%ADD27RoundRect,0.250000X0.625000X-0.400000X0.625000X0.400000X-0.625000X0.400000X-0.625000X-0.400000X0*%
%ADD28C,1.800000*%
%ADD29RoundRect,0.375000X-0.375000X0.625000X-0.375000X-0.625000X0.375000X-0.625000X0.375000X0.625000X0*%
%ADD30RoundRect,0.500000X-1.400000X0.500000X-1.400000X-0.500000X1.400000X-0.500000X1.400000X0.500000X0*%
%ADD31RoundRect,0.250000X0.385000X1.350000X-0.385000X1.350000X-0.385000X-1.350000X0.385000X-1.350000X0*%
%ADD32RoundRect,0.250000X0.425000X1.600000X-0.425000X1.600000X-0.425000X-1.600000X0.425000X-1.600000X0*%
%ADD33R,1.600000X1.600000*%
%ADD34O,1.600000X1.600000*%
%ADD35R,1.200000X1.200000*%
%ADD36R,1.700000X1.700000*%
%ADD37O,1.700000X1.700000*%
%ADD38RoundRect,0.250000X1.350000X-0.385000X1.350000X0.385000X-1.350000X0.385000X-1.350000X-0.385000X0*%
%ADD39RoundRect,0.250000X1.600000X-0.425000X1.600000X0.425000X-1.600000X0.425000X-1.600000X-0.425000X0*%
%ADD40RoundRect,0.250000X0.400000X0.625000X-0.400000X0.625000X-0.400000X-0.625000X0.400000X-0.625000X0*%
%ADD41RoundRect,0.250000X0.650000X-1.500000X0.650000X1.500000X-0.650000X1.500000X-0.650000X-1.500000X0*%
G04 APERTURE END LIST*
D10*
X132584510Y-60679400D02*
X133727368Y-60679400D01*
X133155939Y-61250828D02*
X133155939Y-60107971D01*
D11*
X130475169Y-116806554D02*
X130427550Y-116901792D01*
X130427550Y-116901792D02*
X130332312Y-116997030D01*
X130332312Y-116997030D02*
X130189454Y-117139887D01*
X130189454Y-117139887D02*
X130141835Y-117235125D01*
X130141835Y-117235125D02*
X130141835Y-117330363D01*
X130379931Y-117282744D02*
X130332312Y-117377982D01*
X130332312Y-117377982D02*
X130237073Y-117473220D01*
X130237073Y-117473220D02*
X130046597Y-117520839D01*
X130046597Y-117520839D02*
X129713264Y-117520839D01*
X129713264Y-117520839D02*
X129522788Y-117473220D01*
X129522788Y-117473220D02*
X129427550Y-117377982D01*
X129427550Y-117377982D02*
X129379931Y-117282744D01*
X129379931Y-117282744D02*
X129379931Y-117092268D01*
X129379931Y-117092268D02*
X129427550Y-116997030D01*
X129427550Y-116997030D02*
X129522788Y-116901792D01*
X129522788Y-116901792D02*
X129713264Y-116854173D01*
X129713264Y-116854173D02*
X130046597Y-116854173D01*
X130046597Y-116854173D02*
X130237073Y-116901792D01*
X130237073Y-116901792D02*
X130332312Y-116997030D01*
X130332312Y-116997030D02*
X130379931Y-117092268D01*
X130379931Y-117092268D02*
X130379931Y-117282744D01*
X130332312Y-116473220D02*
X130379931Y-116330363D01*
X130379931Y-116330363D02*
X130379931Y-116092268D01*
X130379931Y-116092268D02*
X130332312Y-115997030D01*
X130332312Y-115997030D02*
X130284692Y-115949411D01*
X130284692Y-115949411D02*
X130189454Y-115901792D01*
X130189454Y-115901792D02*
X130094216Y-115901792D01*
X130094216Y-115901792D02*
X129998978Y-115949411D01*
X129998978Y-115949411D02*
X129951359Y-115997030D01*
X129951359Y-115997030D02*
X129903740Y-116092268D01*
X129903740Y-116092268D02*
X129856121Y-116282744D01*
X129856121Y-116282744D02*
X129808502Y-116377982D01*
X129808502Y-116377982D02*
X129760883Y-116425601D01*
X129760883Y-116425601D02*
X129665645Y-116473220D01*
X129665645Y-116473220D02*
X129570407Y-116473220D01*
X129570407Y-116473220D02*
X129475169Y-116425601D01*
X129475169Y-116425601D02*
X129427550Y-116377982D01*
X129427550Y-116377982D02*
X129379931Y-116282744D01*
X129379931Y-116282744D02*
X129379931Y-116044649D01*
X129379931Y-116044649D02*
X129427550Y-115901792D01*
X130379931Y-115473220D02*
X129379931Y-115473220D01*
X129379931Y-115473220D02*
X129379931Y-115235125D01*
X129379931Y-115235125D02*
X129427550Y-115092268D01*
X129427550Y-115092268D02*
X129522788Y-114997030D01*
X129522788Y-114997030D02*
X129618026Y-114949411D01*
X129618026Y-114949411D02*
X129808502Y-114901792D01*
X129808502Y-114901792D02*
X129951359Y-114901792D01*
X129951359Y-114901792D02*
X130141835Y-114949411D01*
X130141835Y-114949411D02*
X130237073Y-114997030D01*
X130237073Y-114997030D02*
X130332312Y-115092268D01*
X130332312Y-115092268D02*
X130379931Y-115235125D01*
X130379931Y-115235125D02*
X130379931Y-115473220D01*
X130379931Y-113139887D02*
X129903740Y-113473220D01*
X130379931Y-113711315D02*
X129379931Y-113711315D01*
X129379931Y-113711315D02*
X129379931Y-113330363D01*
X129379931Y-113330363D02*
X129427550Y-113235125D01*
X129427550Y-113235125D02*
X129475169Y-113187506D01*
X129475169Y-113187506D02*
X129570407Y-113139887D01*
X129570407Y-113139887D02*
X129713264Y-113139887D01*
X129713264Y-113139887D02*
X129808502Y-113187506D01*
X129808502Y-113187506D02*
X129856121Y-113235125D01*
X129856121Y-113235125D02*
X129903740Y-113330363D01*
X129903740Y-113330363D02*
X129903740Y-113711315D01*
X129379931Y-112806553D02*
X130379931Y-112139887D01*
X129379931Y-112139887D02*
X130379931Y-112806553D01*
X129713264Y-110997029D02*
X130713264Y-110997029D01*
X129760883Y-110997029D02*
X129713264Y-110901791D01*
X129713264Y-110901791D02*
X129713264Y-110711315D01*
X129713264Y-110711315D02*
X129760883Y-110616077D01*
X129760883Y-110616077D02*
X129808502Y-110568458D01*
X129808502Y-110568458D02*
X129903740Y-110520839D01*
X129903740Y-110520839D02*
X130189454Y-110520839D01*
X130189454Y-110520839D02*
X130284692Y-110568458D01*
X130284692Y-110568458D02*
X130332312Y-110616077D01*
X130332312Y-110616077D02*
X130379931Y-110711315D01*
X130379931Y-110711315D02*
X130379931Y-110901791D01*
X130379931Y-110901791D02*
X130332312Y-110997029D01*
X130379931Y-109949410D02*
X130332312Y-110044648D01*
X130332312Y-110044648D02*
X130237073Y-110092267D01*
X130237073Y-110092267D02*
X129379931Y-110092267D01*
X130379931Y-109139886D02*
X129856121Y-109139886D01*
X129856121Y-109139886D02*
X129760883Y-109187505D01*
X129760883Y-109187505D02*
X129713264Y-109282743D01*
X129713264Y-109282743D02*
X129713264Y-109473219D01*
X129713264Y-109473219D02*
X129760883Y-109568457D01*
X130332312Y-109139886D02*
X130379931Y-109235124D01*
X130379931Y-109235124D02*
X130379931Y-109473219D01*
X130379931Y-109473219D02*
X130332312Y-109568457D01*
X130332312Y-109568457D02*
X130237073Y-109616076D01*
X130237073Y-109616076D02*
X130141835Y-109616076D01*
X130141835Y-109616076D02*
X130046597Y-109568457D01*
X130046597Y-109568457D02*
X129998978Y-109473219D01*
X129998978Y-109473219D02*
X129998978Y-109235124D01*
X129998978Y-109235124D02*
X129951359Y-109139886D01*
X129713264Y-108758933D02*
X130379931Y-108520838D01*
X129713264Y-108282743D02*
X130379931Y-108520838D01*
X130379931Y-108520838D02*
X130618026Y-108616076D01*
X130618026Y-108616076D02*
X130665645Y-108663695D01*
X130665645Y-108663695D02*
X130713264Y-108758933D01*
X129713264Y-107473219D02*
X130522788Y-107473219D01*
X130522788Y-107473219D02*
X130618026Y-107520838D01*
X130618026Y-107520838D02*
X130665645Y-107568457D01*
X130665645Y-107568457D02*
X130713264Y-107663695D01*
X130713264Y-107663695D02*
X130713264Y-107806552D01*
X130713264Y-107806552D02*
X130665645Y-107901790D01*
X130332312Y-107473219D02*
X130379931Y-107568457D01*
X130379931Y-107568457D02*
X130379931Y-107758933D01*
X130379931Y-107758933D02*
X130332312Y-107854171D01*
X130332312Y-107854171D02*
X130284692Y-107901790D01*
X130284692Y-107901790D02*
X130189454Y-107949409D01*
X130189454Y-107949409D02*
X129903740Y-107949409D01*
X129903740Y-107949409D02*
X129808502Y-107901790D01*
X129808502Y-107901790D02*
X129760883Y-107854171D01*
X129760883Y-107854171D02*
X129713264Y-107758933D01*
X129713264Y-107758933D02*
X129713264Y-107568457D01*
X129713264Y-107568457D02*
X129760883Y-107473219D01*
X130379931Y-106997028D02*
X129713264Y-106997028D01*
X129903740Y-106997028D02*
X129808502Y-106949409D01*
X129808502Y-106949409D02*
X129760883Y-106901790D01*
X129760883Y-106901790D02*
X129713264Y-106806552D01*
X129713264Y-106806552D02*
X129713264Y-106711314D01*
X130379931Y-106235123D02*
X130332312Y-106330361D01*
X130332312Y-106330361D02*
X130284692Y-106377980D01*
X130284692Y-106377980D02*
X130189454Y-106425599D01*
X130189454Y-106425599D02*
X129903740Y-106425599D01*
X129903740Y-106425599D02*
X129808502Y-106377980D01*
X129808502Y-106377980D02*
X129760883Y-106330361D01*
X129760883Y-106330361D02*
X129713264Y-106235123D01*
X129713264Y-106235123D02*
X129713264Y-106092266D01*
X129713264Y-106092266D02*
X129760883Y-105997028D01*
X129760883Y-105997028D02*
X129808502Y-105949409D01*
X129808502Y-105949409D02*
X129903740Y-105901790D01*
X129903740Y-105901790D02*
X130189454Y-105901790D01*
X130189454Y-105901790D02*
X130284692Y-105949409D01*
X130284692Y-105949409D02*
X130332312Y-105997028D01*
X130332312Y-105997028D02*
X130379931Y-106092266D01*
X130379931Y-106092266D02*
X130379931Y-106235123D01*
X129713264Y-105044647D02*
X130379931Y-105044647D01*
X129713264Y-105473218D02*
X130237073Y-105473218D01*
X130237073Y-105473218D02*
X130332312Y-105425599D01*
X130332312Y-105425599D02*
X130379931Y-105330361D01*
X130379931Y-105330361D02*
X130379931Y-105187504D01*
X130379931Y-105187504D02*
X130332312Y-105092266D01*
X130332312Y-105092266D02*
X130284692Y-105044647D01*
X129713264Y-104568456D02*
X130379931Y-104568456D01*
X129808502Y-104568456D02*
X129760883Y-104520837D01*
X129760883Y-104520837D02*
X129713264Y-104425599D01*
X129713264Y-104425599D02*
X129713264Y-104282742D01*
X129713264Y-104282742D02*
X129760883Y-104187504D01*
X129760883Y-104187504D02*
X129856121Y-104139885D01*
X129856121Y-104139885D02*
X130379931Y-104139885D01*
X130379931Y-103235123D02*
X129379931Y-103235123D01*
X130332312Y-103235123D02*
X130379931Y-103330361D01*
X130379931Y-103330361D02*
X130379931Y-103520837D01*
X130379931Y-103520837D02*
X130332312Y-103616075D01*
X130332312Y-103616075D02*
X130284692Y-103663694D01*
X130284692Y-103663694D02*
X130189454Y-103711313D01*
X130189454Y-103711313D02*
X129903740Y-103711313D01*
X129903740Y-103711313D02*
X129808502Y-103663694D01*
X129808502Y-103663694D02*
X129760883Y-103616075D01*
X129760883Y-103616075D02*
X129713264Y-103520837D01*
X129713264Y-103520837D02*
X129713264Y-103330361D01*
X129713264Y-103330361D02*
X129760883Y-103235123D01*
X133599819Y-117473220D02*
X132599819Y-117473220D01*
X132599819Y-117473220D02*
X132599819Y-117235125D01*
X132599819Y-117235125D02*
X132647438Y-117092268D01*
X132647438Y-117092268D02*
X132742676Y-116997030D01*
X132742676Y-116997030D02*
X132837914Y-116949411D01*
X132837914Y-116949411D02*
X133028390Y-116901792D01*
X133028390Y-116901792D02*
X133171247Y-116901792D01*
X133171247Y-116901792D02*
X133361723Y-116949411D01*
X133361723Y-116949411D02*
X133456961Y-116997030D01*
X133456961Y-116997030D02*
X133552200Y-117092268D01*
X133552200Y-117092268D02*
X133599819Y-117235125D01*
X133599819Y-117235125D02*
X133599819Y-117473220D01*
X133599819Y-116473220D02*
X132599819Y-116473220D01*
X133599819Y-116044649D02*
X133076009Y-116044649D01*
X133076009Y-116044649D02*
X132980771Y-116092268D01*
X132980771Y-116092268D02*
X132933152Y-116187506D01*
X132933152Y-116187506D02*
X132933152Y-116330363D01*
X132933152Y-116330363D02*
X132980771Y-116425601D01*
X132980771Y-116425601D02*
X133028390Y-116473220D01*
X133599819Y-115568458D02*
X132933152Y-115568458D01*
X132599819Y-115568458D02*
X132647438Y-115616077D01*
X132647438Y-115616077D02*
X132695057Y-115568458D01*
X132695057Y-115568458D02*
X132647438Y-115520839D01*
X132647438Y-115520839D02*
X132599819Y-115568458D01*
X132599819Y-115568458D02*
X132695057Y-115568458D01*
X133599819Y-115092268D02*
X132933152Y-115092268D01*
X133123628Y-115092268D02*
X133028390Y-115044649D01*
X133028390Y-115044649D02*
X132980771Y-114997030D01*
X132980771Y-114997030D02*
X132933152Y-114901792D01*
X132933152Y-114901792D02*
X132933152Y-114806554D01*
X132933152Y-114044649D02*
X133599819Y-114044649D01*
X132933152Y-114473220D02*
X133456961Y-114473220D01*
X133456961Y-114473220D02*
X133552200Y-114425601D01*
X133552200Y-114425601D02*
X133599819Y-114330363D01*
X133599819Y-114330363D02*
X133599819Y-114187506D01*
X133599819Y-114187506D02*
X133552200Y-114092268D01*
X133552200Y-114092268D02*
X133504580Y-114044649D01*
X132695057Y-112854172D02*
X132647438Y-112806553D01*
X132647438Y-112806553D02*
X132599819Y-112711315D01*
X132599819Y-112711315D02*
X132599819Y-112473220D01*
X132599819Y-112473220D02*
X132647438Y-112377982D01*
X132647438Y-112377982D02*
X132695057Y-112330363D01*
X132695057Y-112330363D02*
X132790295Y-112282744D01*
X132790295Y-112282744D02*
X132885533Y-112282744D01*
X132885533Y-112282744D02*
X133028390Y-112330363D01*
X133028390Y-112330363D02*
X133599819Y-112901791D01*
X133599819Y-112901791D02*
X133599819Y-112282744D01*
X132599819Y-111663696D02*
X132599819Y-111568458D01*
X132599819Y-111568458D02*
X132647438Y-111473220D01*
X132647438Y-111473220D02*
X132695057Y-111425601D01*
X132695057Y-111425601D02*
X132790295Y-111377982D01*
X132790295Y-111377982D02*
X132980771Y-111330363D01*
X132980771Y-111330363D02*
X133218866Y-111330363D01*
X133218866Y-111330363D02*
X133409342Y-111377982D01*
X133409342Y-111377982D02*
X133504580Y-111425601D01*
X133504580Y-111425601D02*
X133552200Y-111473220D01*
X133552200Y-111473220D02*
X133599819Y-111568458D01*
X133599819Y-111568458D02*
X133599819Y-111663696D01*
X133599819Y-111663696D02*
X133552200Y-111758934D01*
X133552200Y-111758934D02*
X133504580Y-111806553D01*
X133504580Y-111806553D02*
X133409342Y-111854172D01*
X133409342Y-111854172D02*
X133218866Y-111901791D01*
X133218866Y-111901791D02*
X132980771Y-111901791D01*
X132980771Y-111901791D02*
X132790295Y-111854172D01*
X132790295Y-111854172D02*
X132695057Y-111806553D01*
X132695057Y-111806553D02*
X132647438Y-111758934D01*
X132647438Y-111758934D02*
X132599819Y-111663696D01*
X132695057Y-110949410D02*
X132647438Y-110901791D01*
X132647438Y-110901791D02*
X132599819Y-110806553D01*
X132599819Y-110806553D02*
X132599819Y-110568458D01*
X132599819Y-110568458D02*
X132647438Y-110473220D01*
X132647438Y-110473220D02*
X132695057Y-110425601D01*
X132695057Y-110425601D02*
X132790295Y-110377982D01*
X132790295Y-110377982D02*
X132885533Y-110377982D01*
X132885533Y-110377982D02*
X133028390Y-110425601D01*
X133028390Y-110425601D02*
X133599819Y-110997029D01*
X133599819Y-110997029D02*
X133599819Y-110377982D01*
X132933152Y-109520839D02*
X133599819Y-109520839D01*
X132552200Y-109758934D02*
X133266485Y-109997029D01*
X133266485Y-109997029D02*
X133266485Y-109377982D01*
X119954819Y-72406547D02*
X119954819Y-72977975D01*
X119954819Y-72692261D02*
X118954819Y-72692261D01*
X118954819Y-72692261D02*
X119097676Y-72787499D01*
X119097676Y-72787499D02*
X119192914Y-72882737D01*
X119192914Y-72882737D02*
X119240533Y-72977975D01*
X118954819Y-71787499D02*
X118954819Y-71692261D01*
X118954819Y-71692261D02*
X119002438Y-71597023D01*
X119002438Y-71597023D02*
X119050057Y-71549404D01*
X119050057Y-71549404D02*
X119145295Y-71501785D01*
X119145295Y-71501785D02*
X119335771Y-71454166D01*
X119335771Y-71454166D02*
X119573866Y-71454166D01*
X119573866Y-71454166D02*
X119764342Y-71501785D01*
X119764342Y-71501785D02*
X119859580Y-71549404D01*
X119859580Y-71549404D02*
X119907200Y-71597023D01*
X119907200Y-71597023D02*
X119954819Y-71692261D01*
X119954819Y-71692261D02*
X119954819Y-71787499D01*
X119954819Y-71787499D02*
X119907200Y-71882737D01*
X119907200Y-71882737D02*
X119859580Y-71930356D01*
X119859580Y-71930356D02*
X119764342Y-71977975D01*
X119764342Y-71977975D02*
X119573866Y-72025594D01*
X119573866Y-72025594D02*
X119335771Y-72025594D01*
X119335771Y-72025594D02*
X119145295Y-71977975D01*
X119145295Y-71977975D02*
X119050057Y-71930356D01*
X119050057Y-71930356D02*
X119002438Y-71882737D01*
X119002438Y-71882737D02*
X118954819Y-71787499D01*
X118954819Y-70835118D02*
X118954819Y-70739880D01*
X118954819Y-70739880D02*
X119002438Y-70644642D01*
X119002438Y-70644642D02*
X119050057Y-70597023D01*
X119050057Y-70597023D02*
X119145295Y-70549404D01*
X119145295Y-70549404D02*
X119335771Y-70501785D01*
X119335771Y-70501785D02*
X119573866Y-70501785D01*
X119573866Y-70501785D02*
X119764342Y-70549404D01*
X119764342Y-70549404D02*
X119859580Y-70597023D01*
X119859580Y-70597023D02*
X119907200Y-70644642D01*
X119907200Y-70644642D02*
X119954819Y-70739880D01*
X119954819Y-70739880D02*
X119954819Y-70835118D01*
X119954819Y-70835118D02*
X119907200Y-70930356D01*
X119907200Y-70930356D02*
X119859580Y-70977975D01*
X119859580Y-70977975D02*
X119764342Y-71025594D01*
X119764342Y-71025594D02*
X119573866Y-71073213D01*
X119573866Y-71073213D02*
X119335771Y-71073213D01*
X119335771Y-71073213D02*
X119145295Y-71025594D01*
X119145295Y-71025594D02*
X119050057Y-70977975D01*
X119050057Y-70977975D02*
X119002438Y-70930356D01*
X119002438Y-70930356D02*
X118954819Y-70835118D01*
X119288152Y-70073213D02*
X119954819Y-70073213D01*
X119383390Y-70073213D02*
X119335771Y-70025594D01*
X119335771Y-70025594D02*
X119288152Y-69930356D01*
X119288152Y-69930356D02*
X119288152Y-69787499D01*
X119288152Y-69787499D02*
X119335771Y-69692261D01*
X119335771Y-69692261D02*
X119431009Y-69644642D01*
X119431009Y-69644642D02*
X119954819Y-69644642D01*
X105282295Y-78805238D02*
X105282295Y-79262381D01*
X105282295Y-79033809D02*
X104482295Y-79033809D01*
X104482295Y-79033809D02*
X104596580Y-79110000D01*
X104596580Y-79110000D02*
X104672771Y-79186190D01*
X104672771Y-79186190D02*
X104710866Y-79262381D01*
X104482295Y-78309999D02*
X104482295Y-78233809D01*
X104482295Y-78233809D02*
X104520390Y-78157618D01*
X104520390Y-78157618D02*
X104558485Y-78119523D01*
X104558485Y-78119523D02*
X104634676Y-78081428D01*
X104634676Y-78081428D02*
X104787057Y-78043333D01*
X104787057Y-78043333D02*
X104977533Y-78043333D01*
X104977533Y-78043333D02*
X105129914Y-78081428D01*
X105129914Y-78081428D02*
X105206104Y-78119523D01*
X105206104Y-78119523D02*
X105244200Y-78157618D01*
X105244200Y-78157618D02*
X105282295Y-78233809D01*
X105282295Y-78233809D02*
X105282295Y-78309999D01*
X105282295Y-78309999D02*
X105244200Y-78386190D01*
X105244200Y-78386190D02*
X105206104Y-78424285D01*
X105206104Y-78424285D02*
X105129914Y-78462380D01*
X105129914Y-78462380D02*
X104977533Y-78500476D01*
X104977533Y-78500476D02*
X104787057Y-78500476D01*
X104787057Y-78500476D02*
X104634676Y-78462380D01*
X104634676Y-78462380D02*
X104558485Y-78424285D01*
X104558485Y-78424285D02*
X104520390Y-78386190D01*
X104520390Y-78386190D02*
X104482295Y-78309999D01*
X104482295Y-77548094D02*
X104482295Y-77471904D01*
X104482295Y-77471904D02*
X104520390Y-77395713D01*
X104520390Y-77395713D02*
X104558485Y-77357618D01*
X104558485Y-77357618D02*
X104634676Y-77319523D01*
X104634676Y-77319523D02*
X104787057Y-77281428D01*
X104787057Y-77281428D02*
X104977533Y-77281428D01*
X104977533Y-77281428D02*
X105129914Y-77319523D01*
X105129914Y-77319523D02*
X105206104Y-77357618D01*
X105206104Y-77357618D02*
X105244200Y-77395713D01*
X105244200Y-77395713D02*
X105282295Y-77471904D01*
X105282295Y-77471904D02*
X105282295Y-77548094D01*
X105282295Y-77548094D02*
X105244200Y-77624285D01*
X105244200Y-77624285D02*
X105206104Y-77662380D01*
X105206104Y-77662380D02*
X105129914Y-77700475D01*
X105129914Y-77700475D02*
X104977533Y-77738571D01*
X104977533Y-77738571D02*
X104787057Y-77738571D01*
X104787057Y-77738571D02*
X104634676Y-77700475D01*
X104634676Y-77700475D02*
X104558485Y-77662380D01*
X104558485Y-77662380D02*
X104520390Y-77624285D01*
X104520390Y-77624285D02*
X104482295Y-77548094D01*
X104748961Y-76938570D02*
X105282295Y-76938570D01*
X104825152Y-76938570D02*
X104787057Y-76900475D01*
X104787057Y-76900475D02*
X104748961Y-76824285D01*
X104748961Y-76824285D02*
X104748961Y-76709999D01*
X104748961Y-76709999D02*
X104787057Y-76633808D01*
X104787057Y-76633808D02*
X104863247Y-76595713D01*
X104863247Y-76595713D02*
X105282295Y-76595713D01*
X116263809Y-56542295D02*
X115806666Y-56542295D01*
X116035238Y-56542295D02*
X116035238Y-55742295D01*
X116035238Y-55742295D02*
X115959047Y-55856580D01*
X115959047Y-55856580D02*
X115882857Y-55932771D01*
X115882857Y-55932771D02*
X115806666Y-55970866D01*
X116759048Y-55742295D02*
X116835238Y-55742295D01*
X116835238Y-55742295D02*
X116911429Y-55780390D01*
X116911429Y-55780390D02*
X116949524Y-55818485D01*
X116949524Y-55818485D02*
X116987619Y-55894676D01*
X116987619Y-55894676D02*
X117025714Y-56047057D01*
X117025714Y-56047057D02*
X117025714Y-56237533D01*
X117025714Y-56237533D02*
X116987619Y-56389914D01*
X116987619Y-56389914D02*
X116949524Y-56466104D01*
X116949524Y-56466104D02*
X116911429Y-56504200D01*
X116911429Y-56504200D02*
X116835238Y-56542295D01*
X116835238Y-56542295D02*
X116759048Y-56542295D01*
X116759048Y-56542295D02*
X116682857Y-56504200D01*
X116682857Y-56504200D02*
X116644762Y-56466104D01*
X116644762Y-56466104D02*
X116606667Y-56389914D01*
X116606667Y-56389914D02*
X116568571Y-56237533D01*
X116568571Y-56237533D02*
X116568571Y-56047057D01*
X116568571Y-56047057D02*
X116606667Y-55894676D01*
X116606667Y-55894676D02*
X116644762Y-55818485D01*
X116644762Y-55818485D02*
X116682857Y-55780390D01*
X116682857Y-55780390D02*
X116759048Y-55742295D01*
X117368572Y-56542295D02*
X117368572Y-55742295D01*
X117444762Y-56237533D02*
X117673334Y-56542295D01*
X117673334Y-56008961D02*
X117368572Y-56313723D01*
X114997200Y-76533809D02*
X115044819Y-76390952D01*
X115044819Y-76390952D02*
X115044819Y-76152857D01*
X115044819Y-76152857D02*
X114997200Y-76057619D01*
X114997200Y-76057619D02*
X114949580Y-76010000D01*
X114949580Y-76010000D02*
X114854342Y-75962381D01*
X114854342Y-75962381D02*
X114759104Y-75962381D01*
X114759104Y-75962381D02*
X114663866Y-76010000D01*
X114663866Y-76010000D02*
X114616247Y-76057619D01*
X114616247Y-76057619D02*
X114568628Y-76152857D01*
X114568628Y-76152857D02*
X114521009Y-76343333D01*
X114521009Y-76343333D02*
X114473390Y-76438571D01*
X114473390Y-76438571D02*
X114425771Y-76486190D01*
X114425771Y-76486190D02*
X114330533Y-76533809D01*
X114330533Y-76533809D02*
X114235295Y-76533809D01*
X114235295Y-76533809D02*
X114140057Y-76486190D01*
X114140057Y-76486190D02*
X114092438Y-76438571D01*
X114092438Y-76438571D02*
X114044819Y-76343333D01*
X114044819Y-76343333D02*
X114044819Y-76105238D01*
X114044819Y-76105238D02*
X114092438Y-75962381D01*
X115044819Y-75533809D02*
X114044819Y-75533809D01*
X114044819Y-75533809D02*
X115044819Y-74962381D01*
X115044819Y-74962381D02*
X114044819Y-74962381D01*
X114044819Y-74581428D02*
X114044819Y-73914762D01*
X114044819Y-73914762D02*
X115044819Y-74343333D01*
X114378152Y-73105238D02*
X115044819Y-73105238D01*
X113997200Y-73343333D02*
X114711485Y-73581428D01*
X114711485Y-73581428D02*
X114711485Y-72962381D01*
X114949580Y-72010000D02*
X114997200Y-72057619D01*
X114997200Y-72057619D02*
X115044819Y-72200476D01*
X115044819Y-72200476D02*
X115044819Y-72295714D01*
X115044819Y-72295714D02*
X114997200Y-72438571D01*
X114997200Y-72438571D02*
X114901961Y-72533809D01*
X114901961Y-72533809D02*
X114806723Y-72581428D01*
X114806723Y-72581428D02*
X114616247Y-72629047D01*
X114616247Y-72629047D02*
X114473390Y-72629047D01*
X114473390Y-72629047D02*
X114282914Y-72581428D01*
X114282914Y-72581428D02*
X114187676Y-72533809D01*
X114187676Y-72533809D02*
X114092438Y-72438571D01*
X114092438Y-72438571D02*
X114044819Y-72295714D01*
X114044819Y-72295714D02*
X114044819Y-72200476D01*
X114044819Y-72200476D02*
X114092438Y-72057619D01*
X114092438Y-72057619D02*
X114140057Y-72010000D01*
X114521009Y-71248095D02*
X114568628Y-71105238D01*
X114568628Y-71105238D02*
X114616247Y-71057619D01*
X114616247Y-71057619D02*
X114711485Y-71010000D01*
X114711485Y-71010000D02*
X114854342Y-71010000D01*
X114854342Y-71010000D02*
X114949580Y-71057619D01*
X114949580Y-71057619D02*
X114997200Y-71105238D01*
X114997200Y-71105238D02*
X115044819Y-71200476D01*
X115044819Y-71200476D02*
X115044819Y-71581428D01*
X115044819Y-71581428D02*
X114044819Y-71581428D01*
X114044819Y-71581428D02*
X114044819Y-71248095D01*
X114044819Y-71248095D02*
X114092438Y-71152857D01*
X114092438Y-71152857D02*
X114140057Y-71105238D01*
X114140057Y-71105238D02*
X114235295Y-71057619D01*
X114235295Y-71057619D02*
X114330533Y-71057619D01*
X114330533Y-71057619D02*
X114425771Y-71105238D01*
X114425771Y-71105238D02*
X114473390Y-71152857D01*
X114473390Y-71152857D02*
X114521009Y-71248095D01*
X114521009Y-71248095D02*
X114521009Y-71581428D01*
X114044819Y-70676666D02*
X114044819Y-70057619D01*
X114044819Y-70057619D02*
X114425771Y-70390952D01*
X114425771Y-70390952D02*
X114425771Y-70248095D01*
X114425771Y-70248095D02*
X114473390Y-70152857D01*
X114473390Y-70152857D02*
X114521009Y-70105238D01*
X114521009Y-70105238D02*
X114616247Y-70057619D01*
X114616247Y-70057619D02*
X114854342Y-70057619D01*
X114854342Y-70057619D02*
X114949580Y-70105238D01*
X114949580Y-70105238D02*
X114997200Y-70152857D01*
X114997200Y-70152857D02*
X115044819Y-70248095D01*
X115044819Y-70248095D02*
X115044819Y-70533809D01*
X115044819Y-70533809D02*
X114997200Y-70629047D01*
X114997200Y-70629047D02*
X114949580Y-70676666D01*
X114044819Y-69771904D02*
X114044819Y-69200476D01*
X115044819Y-69486190D02*
X114044819Y-69486190D01*
X114044819Y-68962380D02*
X114044819Y-68343333D01*
X114044819Y-68343333D02*
X114425771Y-68676666D01*
X114425771Y-68676666D02*
X114425771Y-68533809D01*
X114425771Y-68533809D02*
X114473390Y-68438571D01*
X114473390Y-68438571D02*
X114521009Y-68390952D01*
X114521009Y-68390952D02*
X114616247Y-68343333D01*
X114616247Y-68343333D02*
X114854342Y-68343333D01*
X114854342Y-68343333D02*
X114949580Y-68390952D01*
X114949580Y-68390952D02*
X114997200Y-68438571D01*
X114997200Y-68438571D02*
X115044819Y-68533809D01*
X115044819Y-68533809D02*
X115044819Y-68819523D01*
X115044819Y-68819523D02*
X114997200Y-68914761D01*
X114997200Y-68914761D02*
X114949580Y-68962380D01*
X114140057Y-67962380D02*
X114092438Y-67914761D01*
X114092438Y-67914761D02*
X114044819Y-67819523D01*
X114044819Y-67819523D02*
X114044819Y-67581428D01*
X114044819Y-67581428D02*
X114092438Y-67486190D01*
X114092438Y-67486190D02*
X114140057Y-67438571D01*
X114140057Y-67438571D02*
X114235295Y-67390952D01*
X114235295Y-67390952D02*
X114330533Y-67390952D01*
X114330533Y-67390952D02*
X114473390Y-67438571D01*
X114473390Y-67438571D02*
X115044819Y-68009999D01*
X115044819Y-68009999D02*
X115044819Y-67390952D01*
X114044819Y-66486190D02*
X114044819Y-66962380D01*
X114044819Y-66962380D02*
X114521009Y-67009999D01*
X114521009Y-67009999D02*
X114473390Y-66962380D01*
X114473390Y-66962380D02*
X114425771Y-66867142D01*
X114425771Y-66867142D02*
X114425771Y-66629047D01*
X114425771Y-66629047D02*
X114473390Y-66533809D01*
X114473390Y-66533809D02*
X114521009Y-66486190D01*
X114521009Y-66486190D02*
X114616247Y-66438571D01*
X114616247Y-66438571D02*
X114854342Y-66438571D01*
X114854342Y-66438571D02*
X114949580Y-66486190D01*
X114949580Y-66486190D02*
X114997200Y-66533809D01*
X114997200Y-66533809D02*
X115044819Y-66629047D01*
X115044819Y-66629047D02*
X115044819Y-66867142D01*
X115044819Y-66867142D02*
X114997200Y-66962380D01*
X114997200Y-66962380D02*
X114949580Y-67009999D01*
X114044819Y-66105237D02*
X114044819Y-65486190D01*
X114044819Y-65486190D02*
X114425771Y-65819523D01*
X114425771Y-65819523D02*
X114425771Y-65676666D01*
X114425771Y-65676666D02*
X114473390Y-65581428D01*
X114473390Y-65581428D02*
X114521009Y-65533809D01*
X114521009Y-65533809D02*
X114616247Y-65486190D01*
X114616247Y-65486190D02*
X114854342Y-65486190D01*
X114854342Y-65486190D02*
X114949580Y-65533809D01*
X114949580Y-65533809D02*
X114997200Y-65581428D01*
X114997200Y-65581428D02*
X115044819Y-65676666D01*
X115044819Y-65676666D02*
X115044819Y-65962380D01*
X115044819Y-65962380D02*
X114997200Y-66057618D01*
X114997200Y-66057618D02*
X114949580Y-66105237D01*
X121088094Y-55768485D02*
X121126190Y-55730390D01*
X121126190Y-55730390D02*
X121202380Y-55692295D01*
X121202380Y-55692295D02*
X121392856Y-55692295D01*
X121392856Y-55692295D02*
X121469047Y-55730390D01*
X121469047Y-55730390D02*
X121507142Y-55768485D01*
X121507142Y-55768485D02*
X121545237Y-55844676D01*
X121545237Y-55844676D02*
X121545237Y-55920866D01*
X121545237Y-55920866D02*
X121507142Y-56035152D01*
X121507142Y-56035152D02*
X121049999Y-56492295D01*
X121049999Y-56492295D02*
X121545237Y-56492295D01*
X121888095Y-56416104D02*
X121926190Y-56454200D01*
X121926190Y-56454200D02*
X121888095Y-56492295D01*
X121888095Y-56492295D02*
X121849999Y-56454200D01*
X121849999Y-56454200D02*
X121888095Y-56416104D01*
X121888095Y-56416104D02*
X121888095Y-56492295D01*
X122230951Y-55768485D02*
X122269047Y-55730390D01*
X122269047Y-55730390D02*
X122345237Y-55692295D01*
X122345237Y-55692295D02*
X122535713Y-55692295D01*
X122535713Y-55692295D02*
X122611904Y-55730390D01*
X122611904Y-55730390D02*
X122649999Y-55768485D01*
X122649999Y-55768485D02*
X122688094Y-55844676D01*
X122688094Y-55844676D02*
X122688094Y-55920866D01*
X122688094Y-55920866D02*
X122649999Y-56035152D01*
X122649999Y-56035152D02*
X122192856Y-56492295D01*
X122192856Y-56492295D02*
X122688094Y-56492295D01*
X123373809Y-55958961D02*
X123373809Y-56492295D01*
X123030952Y-55958961D02*
X123030952Y-56378009D01*
X123030952Y-56378009D02*
X123069047Y-56454200D01*
X123069047Y-56454200D02*
X123145237Y-56492295D01*
X123145237Y-56492295D02*
X123259523Y-56492295D01*
X123259523Y-56492295D02*
X123335714Y-56454200D01*
X123335714Y-56454200D02*
X123373809Y-56416104D01*
X111366104Y-92343332D02*
X111404200Y-92381428D01*
X111404200Y-92381428D02*
X111442295Y-92495713D01*
X111442295Y-92495713D02*
X111442295Y-92571904D01*
X111442295Y-92571904D02*
X111404200Y-92686190D01*
X111404200Y-92686190D02*
X111328009Y-92762380D01*
X111328009Y-92762380D02*
X111251819Y-92800475D01*
X111251819Y-92800475D02*
X111099438Y-92838571D01*
X111099438Y-92838571D02*
X110985152Y-92838571D01*
X110985152Y-92838571D02*
X110832771Y-92800475D01*
X110832771Y-92800475D02*
X110756580Y-92762380D01*
X110756580Y-92762380D02*
X110680390Y-92686190D01*
X110680390Y-92686190D02*
X110642295Y-92571904D01*
X110642295Y-92571904D02*
X110642295Y-92495713D01*
X110642295Y-92495713D02*
X110680390Y-92381428D01*
X110680390Y-92381428D02*
X110718485Y-92343332D01*
X111366104Y-91543332D02*
X111404200Y-91581428D01*
X111404200Y-91581428D02*
X111442295Y-91695713D01*
X111442295Y-91695713D02*
X111442295Y-91771904D01*
X111442295Y-91771904D02*
X111404200Y-91886190D01*
X111404200Y-91886190D02*
X111328009Y-91962380D01*
X111328009Y-91962380D02*
X111251819Y-92000475D01*
X111251819Y-92000475D02*
X111099438Y-92038571D01*
X111099438Y-92038571D02*
X110985152Y-92038571D01*
X110985152Y-92038571D02*
X110832771Y-92000475D01*
X110832771Y-92000475D02*
X110756580Y-91962380D01*
X110756580Y-91962380D02*
X110680390Y-91886190D01*
X110680390Y-91886190D02*
X110642295Y-91771904D01*
X110642295Y-91771904D02*
X110642295Y-91695713D01*
X110642295Y-91695713D02*
X110680390Y-91581428D01*
X110680390Y-91581428D02*
X110718485Y-91543332D01*
X110718485Y-91238571D02*
X110680390Y-91200475D01*
X110680390Y-91200475D02*
X110642295Y-91124285D01*
X110642295Y-91124285D02*
X110642295Y-90933809D01*
X110642295Y-90933809D02*
X110680390Y-90857618D01*
X110680390Y-90857618D02*
X110718485Y-90819523D01*
X110718485Y-90819523D02*
X110794676Y-90781428D01*
X110794676Y-90781428D02*
X110870866Y-90781428D01*
X110870866Y-90781428D02*
X110985152Y-90819523D01*
X110985152Y-90819523D02*
X111442295Y-91276666D01*
X111442295Y-91276666D02*
X111442295Y-90781428D01*
X132454819Y-100049047D02*
X132454819Y-100620475D01*
X132454819Y-100334761D02*
X131454819Y-100334761D01*
X131454819Y-100334761D02*
X131597676Y-100429999D01*
X131597676Y-100429999D02*
X131692914Y-100525237D01*
X131692914Y-100525237D02*
X131740533Y-100620475D01*
X131454819Y-99429999D02*
X131454819Y-99334761D01*
X131454819Y-99334761D02*
X131502438Y-99239523D01*
X131502438Y-99239523D02*
X131550057Y-99191904D01*
X131550057Y-99191904D02*
X131645295Y-99144285D01*
X131645295Y-99144285D02*
X131835771Y-99096666D01*
X131835771Y-99096666D02*
X132073866Y-99096666D01*
X132073866Y-99096666D02*
X132264342Y-99144285D01*
X132264342Y-99144285D02*
X132359580Y-99191904D01*
X132359580Y-99191904D02*
X132407200Y-99239523D01*
X132407200Y-99239523D02*
X132454819Y-99334761D01*
X132454819Y-99334761D02*
X132454819Y-99429999D01*
X132454819Y-99429999D02*
X132407200Y-99525237D01*
X132407200Y-99525237D02*
X132359580Y-99572856D01*
X132359580Y-99572856D02*
X132264342Y-99620475D01*
X132264342Y-99620475D02*
X132073866Y-99668094D01*
X132073866Y-99668094D02*
X131835771Y-99668094D01*
X131835771Y-99668094D02*
X131645295Y-99620475D01*
X131645295Y-99620475D02*
X131550057Y-99572856D01*
X131550057Y-99572856D02*
X131502438Y-99525237D01*
X131502438Y-99525237D02*
X131454819Y-99429999D01*
X131454819Y-98477618D02*
X131454819Y-98382380D01*
X131454819Y-98382380D02*
X131502438Y-98287142D01*
X131502438Y-98287142D02*
X131550057Y-98239523D01*
X131550057Y-98239523D02*
X131645295Y-98191904D01*
X131645295Y-98191904D02*
X131835771Y-98144285D01*
X131835771Y-98144285D02*
X132073866Y-98144285D01*
X132073866Y-98144285D02*
X132264342Y-98191904D01*
X132264342Y-98191904D02*
X132359580Y-98239523D01*
X132359580Y-98239523D02*
X132407200Y-98287142D01*
X132407200Y-98287142D02*
X132454819Y-98382380D01*
X132454819Y-98382380D02*
X132454819Y-98477618D01*
X132454819Y-98477618D02*
X132407200Y-98572856D01*
X132407200Y-98572856D02*
X132359580Y-98620475D01*
X132359580Y-98620475D02*
X132264342Y-98668094D01*
X132264342Y-98668094D02*
X132073866Y-98715713D01*
X132073866Y-98715713D02*
X131835771Y-98715713D01*
X131835771Y-98715713D02*
X131645295Y-98668094D01*
X131645295Y-98668094D02*
X131550057Y-98620475D01*
X131550057Y-98620475D02*
X131502438Y-98572856D01*
X131502438Y-98572856D02*
X131454819Y-98477618D01*
X131788152Y-97715713D02*
X132454819Y-97715713D01*
X131883390Y-97715713D02*
X131835771Y-97668094D01*
X131835771Y-97668094D02*
X131788152Y-97572856D01*
X131788152Y-97572856D02*
X131788152Y-97429999D01*
X131788152Y-97429999D02*
X131835771Y-97334761D01*
X131835771Y-97334761D02*
X131931009Y-97287142D01*
X131931009Y-97287142D02*
X132454819Y-97287142D01*
X113958152Y-58428095D02*
X114624819Y-58428095D01*
X113577200Y-58666190D02*
X114291485Y-58904285D01*
X114291485Y-58904285D02*
X114291485Y-58285238D01*
X113624819Y-57999523D02*
X113624819Y-57332857D01*
X113624819Y-57332857D02*
X114624819Y-57761428D01*
X113958152Y-56523333D02*
X114624819Y-56523333D01*
X113958152Y-56951904D02*
X114481961Y-56951904D01*
X114481961Y-56951904D02*
X114577200Y-56904285D01*
X114577200Y-56904285D02*
X114624819Y-56809047D01*
X114624819Y-56809047D02*
X114624819Y-56666190D01*
X114624819Y-56666190D02*
X114577200Y-56570952D01*
X114577200Y-56570952D02*
X114529580Y-56523333D01*
X120764819Y-79026666D02*
X120764819Y-79598094D01*
X120764819Y-79312380D02*
X119764819Y-79312380D01*
X119764819Y-79312380D02*
X119907676Y-79407618D01*
X119907676Y-79407618D02*
X120002914Y-79502856D01*
X120002914Y-79502856D02*
X120050533Y-79598094D01*
X119764819Y-78407618D02*
X119764819Y-78312380D01*
X119764819Y-78312380D02*
X119812438Y-78217142D01*
X119812438Y-78217142D02*
X119860057Y-78169523D01*
X119860057Y-78169523D02*
X119955295Y-78121904D01*
X119955295Y-78121904D02*
X120145771Y-78074285D01*
X120145771Y-78074285D02*
X120383866Y-78074285D01*
X120383866Y-78074285D02*
X120574342Y-78121904D01*
X120574342Y-78121904D02*
X120669580Y-78169523D01*
X120669580Y-78169523D02*
X120717200Y-78217142D01*
X120717200Y-78217142D02*
X120764819Y-78312380D01*
X120764819Y-78312380D02*
X120764819Y-78407618D01*
X120764819Y-78407618D02*
X120717200Y-78502856D01*
X120717200Y-78502856D02*
X120669580Y-78550475D01*
X120669580Y-78550475D02*
X120574342Y-78598094D01*
X120574342Y-78598094D02*
X120383866Y-78645713D01*
X120383866Y-78645713D02*
X120145771Y-78645713D01*
X120145771Y-78645713D02*
X119955295Y-78598094D01*
X119955295Y-78598094D02*
X119860057Y-78550475D01*
X119860057Y-78550475D02*
X119812438Y-78502856D01*
X119812438Y-78502856D02*
X119764819Y-78407618D01*
X119764819Y-77455237D02*
X119764819Y-77359999D01*
X119764819Y-77359999D02*
X119812438Y-77264761D01*
X119812438Y-77264761D02*
X119860057Y-77217142D01*
X119860057Y-77217142D02*
X119955295Y-77169523D01*
X119955295Y-77169523D02*
X120145771Y-77121904D01*
X120145771Y-77121904D02*
X120383866Y-77121904D01*
X120383866Y-77121904D02*
X120574342Y-77169523D01*
X120574342Y-77169523D02*
X120669580Y-77217142D01*
X120669580Y-77217142D02*
X120717200Y-77264761D01*
X120717200Y-77264761D02*
X120764819Y-77359999D01*
X120764819Y-77359999D02*
X120764819Y-77455237D01*
X120764819Y-77455237D02*
X120717200Y-77550475D01*
X120717200Y-77550475D02*
X120669580Y-77598094D01*
X120669580Y-77598094D02*
X120574342Y-77645713D01*
X120574342Y-77645713D02*
X120383866Y-77693332D01*
X120383866Y-77693332D02*
X120145771Y-77693332D01*
X120145771Y-77693332D02*
X119955295Y-77645713D01*
X119955295Y-77645713D02*
X119860057Y-77598094D01*
X119860057Y-77598094D02*
X119812438Y-77550475D01*
X119812438Y-77550475D02*
X119764819Y-77455237D01*
X110020019Y-116578304D02*
X110829542Y-116578304D01*
X110829542Y-116578304D02*
X110924780Y-116530685D01*
X110924780Y-116530685D02*
X110972400Y-116483066D01*
X110972400Y-116483066D02*
X111020019Y-116387828D01*
X111020019Y-116387828D02*
X111020019Y-116197352D01*
X111020019Y-116197352D02*
X110972400Y-116102114D01*
X110972400Y-116102114D02*
X110924780Y-116054495D01*
X110924780Y-116054495D02*
X110829542Y-116006876D01*
X110829542Y-116006876D02*
X110020019Y-116006876D01*
X111020019Y-115006876D02*
X111020019Y-115578304D01*
X111020019Y-115292590D02*
X110020019Y-115292590D01*
X110020019Y-115292590D02*
X110162876Y-115387828D01*
X110162876Y-115387828D02*
X110258114Y-115483066D01*
X110258114Y-115483066D02*
X110305733Y-115578304D01*
X111492400Y-112014018D02*
X111540019Y-111871161D01*
X111540019Y-111871161D02*
X111540019Y-111633066D01*
X111540019Y-111633066D02*
X111492400Y-111537828D01*
X111492400Y-111537828D02*
X111444780Y-111490209D01*
X111444780Y-111490209D02*
X111349542Y-111442590D01*
X111349542Y-111442590D02*
X111254304Y-111442590D01*
X111254304Y-111442590D02*
X111159066Y-111490209D01*
X111159066Y-111490209D02*
X111111447Y-111537828D01*
X111111447Y-111537828D02*
X111063828Y-111633066D01*
X111063828Y-111633066D02*
X111016209Y-111823542D01*
X111016209Y-111823542D02*
X110968590Y-111918780D01*
X110968590Y-111918780D02*
X110920971Y-111966399D01*
X110920971Y-111966399D02*
X110825733Y-112014018D01*
X110825733Y-112014018D02*
X110730495Y-112014018D01*
X110730495Y-112014018D02*
X110635257Y-111966399D01*
X110635257Y-111966399D02*
X110587638Y-111918780D01*
X110587638Y-111918780D02*
X110540019Y-111823542D01*
X110540019Y-111823542D02*
X110540019Y-111585447D01*
X110540019Y-111585447D02*
X110587638Y-111442590D01*
X111540019Y-111014018D02*
X110540019Y-111014018D01*
X110540019Y-110061638D02*
X110540019Y-110537828D01*
X110540019Y-110537828D02*
X111016209Y-110585447D01*
X111016209Y-110585447D02*
X110968590Y-110537828D01*
X110968590Y-110537828D02*
X110920971Y-110442590D01*
X110920971Y-110442590D02*
X110920971Y-110204495D01*
X110920971Y-110204495D02*
X110968590Y-110109257D01*
X110968590Y-110109257D02*
X111016209Y-110061638D01*
X111016209Y-110061638D02*
X111111447Y-110014019D01*
X111111447Y-110014019D02*
X111349542Y-110014019D01*
X111349542Y-110014019D02*
X111444780Y-110061638D01*
X111444780Y-110061638D02*
X111492400Y-110109257D01*
X111492400Y-110109257D02*
X111540019Y-110204495D01*
X111540019Y-110204495D02*
X111540019Y-110442590D01*
X111540019Y-110442590D02*
X111492400Y-110537828D01*
X111492400Y-110537828D02*
X111444780Y-110585447D01*
X110540019Y-109680685D02*
X110540019Y-109061638D01*
X110540019Y-109061638D02*
X110920971Y-109394971D01*
X110920971Y-109394971D02*
X110920971Y-109252114D01*
X110920971Y-109252114D02*
X110968590Y-109156876D01*
X110968590Y-109156876D02*
X111016209Y-109109257D01*
X111016209Y-109109257D02*
X111111447Y-109061638D01*
X111111447Y-109061638D02*
X111349542Y-109061638D01*
X111349542Y-109061638D02*
X111444780Y-109109257D01*
X111444780Y-109109257D02*
X111492400Y-109156876D01*
X111492400Y-109156876D02*
X111540019Y-109252114D01*
X111540019Y-109252114D02*
X111540019Y-109537828D01*
X111540019Y-109537828D02*
X111492400Y-109633066D01*
X111492400Y-109633066D02*
X111444780Y-109680685D01*
X110540019Y-108156876D02*
X110540019Y-108633066D01*
X110540019Y-108633066D02*
X111016209Y-108680685D01*
X111016209Y-108680685D02*
X110968590Y-108633066D01*
X110968590Y-108633066D02*
X110920971Y-108537828D01*
X110920971Y-108537828D02*
X110920971Y-108299733D01*
X110920971Y-108299733D02*
X110968590Y-108204495D01*
X110968590Y-108204495D02*
X111016209Y-108156876D01*
X111016209Y-108156876D02*
X111111447Y-108109257D01*
X111111447Y-108109257D02*
X111349542Y-108109257D01*
X111349542Y-108109257D02*
X111444780Y-108156876D01*
X111444780Y-108156876D02*
X111492400Y-108204495D01*
X111492400Y-108204495D02*
X111540019Y-108299733D01*
X111540019Y-108299733D02*
X111540019Y-108537828D01*
X111540019Y-108537828D02*
X111492400Y-108633066D01*
X111492400Y-108633066D02*
X111444780Y-108680685D01*
X111540019Y-107156876D02*
X111540019Y-107728304D01*
X111540019Y-107442590D02*
X110540019Y-107442590D01*
X110540019Y-107442590D02*
X110682876Y-107537828D01*
X110682876Y-107537828D02*
X110778114Y-107633066D01*
X110778114Y-107633066D02*
X110825733Y-107728304D01*
X111540019Y-106728304D02*
X110540019Y-106728304D01*
X110540019Y-106728304D02*
X111254304Y-106394971D01*
X111254304Y-106394971D02*
X110540019Y-106061638D01*
X110540019Y-106061638D02*
X111540019Y-106061638D01*
X111540019Y-105442590D02*
X111492400Y-105537828D01*
X111492400Y-105537828D02*
X111444780Y-105585447D01*
X111444780Y-105585447D02*
X111349542Y-105633066D01*
X111349542Y-105633066D02*
X111063828Y-105633066D01*
X111063828Y-105633066D02*
X110968590Y-105585447D01*
X110968590Y-105585447D02*
X110920971Y-105537828D01*
X110920971Y-105537828D02*
X110873352Y-105442590D01*
X110873352Y-105442590D02*
X110873352Y-105299733D01*
X110873352Y-105299733D02*
X110920971Y-105204495D01*
X110920971Y-105204495D02*
X110968590Y-105156876D01*
X110968590Y-105156876D02*
X111063828Y-105109257D01*
X111063828Y-105109257D02*
X111349542Y-105109257D01*
X111349542Y-105109257D02*
X111444780Y-105156876D01*
X111444780Y-105156876D02*
X111492400Y-105204495D01*
X111492400Y-105204495D02*
X111540019Y-105299733D01*
X111540019Y-105299733D02*
X111540019Y-105442590D01*
X111540019Y-104252114D02*
X110540019Y-104252114D01*
X111492400Y-104252114D02*
X111540019Y-104347352D01*
X111540019Y-104347352D02*
X111540019Y-104537828D01*
X111540019Y-104537828D02*
X111492400Y-104633066D01*
X111492400Y-104633066D02*
X111444780Y-104680685D01*
X111444780Y-104680685D02*
X111349542Y-104728304D01*
X111349542Y-104728304D02*
X111063828Y-104728304D01*
X111063828Y-104728304D02*
X110968590Y-104680685D01*
X110968590Y-104680685D02*
X110920971Y-104633066D01*
X110920971Y-104633066D02*
X110873352Y-104537828D01*
X110873352Y-104537828D02*
X110873352Y-104347352D01*
X110873352Y-104347352D02*
X110920971Y-104252114D01*
X110873352Y-103347352D02*
X111540019Y-103347352D01*
X110873352Y-103775923D02*
X111397161Y-103775923D01*
X111397161Y-103775923D02*
X111492400Y-103728304D01*
X111492400Y-103728304D02*
X111540019Y-103633066D01*
X111540019Y-103633066D02*
X111540019Y-103490209D01*
X111540019Y-103490209D02*
X111492400Y-103394971D01*
X111492400Y-103394971D02*
X111444780Y-103347352D01*
X111540019Y-102728304D02*
X111492400Y-102823542D01*
X111492400Y-102823542D02*
X111397161Y-102871161D01*
X111397161Y-102871161D02*
X110540019Y-102871161D01*
X111492400Y-101966399D02*
X111540019Y-102061637D01*
X111540019Y-102061637D02*
X111540019Y-102252113D01*
X111540019Y-102252113D02*
X111492400Y-102347351D01*
X111492400Y-102347351D02*
X111397161Y-102394970D01*
X111397161Y-102394970D02*
X111016209Y-102394970D01*
X111016209Y-102394970D02*
X110920971Y-102347351D01*
X110920971Y-102347351D02*
X110873352Y-102252113D01*
X110873352Y-102252113D02*
X110873352Y-102061637D01*
X110873352Y-102061637D02*
X110920971Y-101966399D01*
X110920971Y-101966399D02*
X111016209Y-101918780D01*
X111016209Y-101918780D02*
X111111447Y-101918780D01*
X111111447Y-101918780D02*
X111206685Y-102394970D01*
X127744780Y-100137828D02*
X127792400Y-100185447D01*
X127792400Y-100185447D02*
X127840019Y-100328304D01*
X127840019Y-100328304D02*
X127840019Y-100423542D01*
X127840019Y-100423542D02*
X127792400Y-100566399D01*
X127792400Y-100566399D02*
X127697161Y-100661637D01*
X127697161Y-100661637D02*
X127601923Y-100709256D01*
X127601923Y-100709256D02*
X127411447Y-100756875D01*
X127411447Y-100756875D02*
X127268590Y-100756875D01*
X127268590Y-100756875D02*
X127078114Y-100709256D01*
X127078114Y-100709256D02*
X126982876Y-100661637D01*
X126982876Y-100661637D02*
X126887638Y-100566399D01*
X126887638Y-100566399D02*
X126840019Y-100423542D01*
X126840019Y-100423542D02*
X126840019Y-100328304D01*
X126840019Y-100328304D02*
X126887638Y-100185447D01*
X126887638Y-100185447D02*
X126935257Y-100137828D01*
X127840019Y-99233066D02*
X127840019Y-99709256D01*
X127840019Y-99709256D02*
X126840019Y-99709256D01*
X127840019Y-98899732D02*
X126840019Y-98899732D01*
X127840019Y-98328304D02*
X127268590Y-98756875D01*
X126840019Y-98328304D02*
X127411447Y-98899732D01*
X126840019Y-97709256D02*
X126840019Y-97614018D01*
X126840019Y-97614018D02*
X126887638Y-97518780D01*
X126887638Y-97518780D02*
X126935257Y-97471161D01*
X126935257Y-97471161D02*
X127030495Y-97423542D01*
X127030495Y-97423542D02*
X127220971Y-97375923D01*
X127220971Y-97375923D02*
X127459066Y-97375923D01*
X127459066Y-97375923D02*
X127649542Y-97423542D01*
X127649542Y-97423542D02*
X127744780Y-97471161D01*
X127744780Y-97471161D02*
X127792400Y-97518780D01*
X127792400Y-97518780D02*
X127840019Y-97614018D01*
X127840019Y-97614018D02*
X127840019Y-97709256D01*
X127840019Y-97709256D02*
X127792400Y-97804494D01*
X127792400Y-97804494D02*
X127744780Y-97852113D01*
X127744780Y-97852113D02*
X127649542Y-97899732D01*
X127649542Y-97899732D02*
X127459066Y-97947351D01*
X127459066Y-97947351D02*
X127220971Y-97947351D01*
X127220971Y-97947351D02*
X127030495Y-97899732D01*
X127030495Y-97899732D02*
X126935257Y-97852113D01*
X126935257Y-97852113D02*
X126887638Y-97804494D01*
X126887638Y-97804494D02*
X126840019Y-97709256D01*
X127694780Y-111257828D02*
X127742400Y-111305447D01*
X127742400Y-111305447D02*
X127790019Y-111448304D01*
X127790019Y-111448304D02*
X127790019Y-111543542D01*
X127790019Y-111543542D02*
X127742400Y-111686399D01*
X127742400Y-111686399D02*
X127647161Y-111781637D01*
X127647161Y-111781637D02*
X127551923Y-111829256D01*
X127551923Y-111829256D02*
X127361447Y-111876875D01*
X127361447Y-111876875D02*
X127218590Y-111876875D01*
X127218590Y-111876875D02*
X127028114Y-111829256D01*
X127028114Y-111829256D02*
X126932876Y-111781637D01*
X126932876Y-111781637D02*
X126837638Y-111686399D01*
X126837638Y-111686399D02*
X126790019Y-111543542D01*
X126790019Y-111543542D02*
X126790019Y-111448304D01*
X126790019Y-111448304D02*
X126837638Y-111305447D01*
X126837638Y-111305447D02*
X126885257Y-111257828D01*
X127790019Y-110353066D02*
X127790019Y-110829256D01*
X127790019Y-110829256D02*
X126790019Y-110829256D01*
X127790019Y-110019732D02*
X126790019Y-110019732D01*
X127790019Y-109448304D02*
X127218590Y-109876875D01*
X126790019Y-109448304D02*
X127361447Y-110019732D01*
X127790019Y-108495923D02*
X127790019Y-109067351D01*
X127790019Y-108781637D02*
X126790019Y-108781637D01*
X126790019Y-108781637D02*
X126932876Y-108876875D01*
X126932876Y-108876875D02*
X127028114Y-108972113D01*
X127028114Y-108972113D02*
X127075733Y-109067351D01*
X127644780Y-122237828D02*
X127692400Y-122285447D01*
X127692400Y-122285447D02*
X127740019Y-122428304D01*
X127740019Y-122428304D02*
X127740019Y-122523542D01*
X127740019Y-122523542D02*
X127692400Y-122666399D01*
X127692400Y-122666399D02*
X127597161Y-122761637D01*
X127597161Y-122761637D02*
X127501923Y-122809256D01*
X127501923Y-122809256D02*
X127311447Y-122856875D01*
X127311447Y-122856875D02*
X127168590Y-122856875D01*
X127168590Y-122856875D02*
X126978114Y-122809256D01*
X126978114Y-122809256D02*
X126882876Y-122761637D01*
X126882876Y-122761637D02*
X126787638Y-122666399D01*
X126787638Y-122666399D02*
X126740019Y-122523542D01*
X126740019Y-122523542D02*
X126740019Y-122428304D01*
X126740019Y-122428304D02*
X126787638Y-122285447D01*
X126787638Y-122285447D02*
X126835257Y-122237828D01*
X127740019Y-121333066D02*
X127740019Y-121809256D01*
X127740019Y-121809256D02*
X126740019Y-121809256D01*
X127740019Y-120999732D02*
X126740019Y-120999732D01*
X127740019Y-120428304D02*
X127168590Y-120856875D01*
X126740019Y-120428304D02*
X127311447Y-120999732D01*
X126835257Y-120047351D02*
X126787638Y-119999732D01*
X126787638Y-119999732D02*
X126740019Y-119904494D01*
X126740019Y-119904494D02*
X126740019Y-119666399D01*
X126740019Y-119666399D02*
X126787638Y-119571161D01*
X126787638Y-119571161D02*
X126835257Y-119523542D01*
X126835257Y-119523542D02*
X126930495Y-119475923D01*
X126930495Y-119475923D02*
X127025733Y-119475923D01*
X127025733Y-119475923D02*
X127168590Y-119523542D01*
X127168590Y-119523542D02*
X127740019Y-120094970D01*
X127740019Y-120094970D02*
X127740019Y-119475923D01*
X137669104Y-96649999D02*
X137669104Y-96173809D01*
X137954819Y-96745237D02*
X136954819Y-96411904D01*
X136954819Y-96411904D02*
X137954819Y-96078571D01*
X137954819Y-95745237D02*
X136954819Y-95745237D01*
X136954819Y-95745237D02*
X137669104Y-95411904D01*
X137669104Y-95411904D02*
X136954819Y-95078571D01*
X136954819Y-95078571D02*
X137954819Y-95078571D01*
X137907200Y-94649999D02*
X137954819Y-94507142D01*
X137954819Y-94507142D02*
X137954819Y-94269047D01*
X137954819Y-94269047D02*
X137907200Y-94173809D01*
X137907200Y-94173809D02*
X137859580Y-94126190D01*
X137859580Y-94126190D02*
X137764342Y-94078571D01*
X137764342Y-94078571D02*
X137669104Y-94078571D01*
X137669104Y-94078571D02*
X137573866Y-94126190D01*
X137573866Y-94126190D02*
X137526247Y-94173809D01*
X137526247Y-94173809D02*
X137478628Y-94269047D01*
X137478628Y-94269047D02*
X137431009Y-94459523D01*
X137431009Y-94459523D02*
X137383390Y-94554761D01*
X137383390Y-94554761D02*
X137335771Y-94602380D01*
X137335771Y-94602380D02*
X137240533Y-94649999D01*
X137240533Y-94649999D02*
X137145295Y-94649999D01*
X137145295Y-94649999D02*
X137050057Y-94602380D01*
X137050057Y-94602380D02*
X137002438Y-94554761D01*
X137002438Y-94554761D02*
X136954819Y-94459523D01*
X136954819Y-94459523D02*
X136954819Y-94221428D01*
X136954819Y-94221428D02*
X137002438Y-94078571D01*
X137954819Y-93126190D02*
X137954819Y-93697618D01*
X137954819Y-93411904D02*
X136954819Y-93411904D01*
X136954819Y-93411904D02*
X137097676Y-93507142D01*
X137097676Y-93507142D02*
X137192914Y-93602380D01*
X137192914Y-93602380D02*
X137240533Y-93697618D01*
X137954819Y-92173809D02*
X137954819Y-92745237D01*
X137954819Y-92459523D02*
X136954819Y-92459523D01*
X136954819Y-92459523D02*
X137097676Y-92554761D01*
X137097676Y-92554761D02*
X137192914Y-92649999D01*
X137192914Y-92649999D02*
X137240533Y-92745237D01*
X137954819Y-91221428D02*
X137954819Y-91792856D01*
X137954819Y-91507142D02*
X136954819Y-91507142D01*
X136954819Y-91507142D02*
X137097676Y-91602380D01*
X137097676Y-91602380D02*
X137192914Y-91697618D01*
X137192914Y-91697618D02*
X137240533Y-91792856D01*
X136954819Y-90888094D02*
X136954819Y-90221428D01*
X136954819Y-90221428D02*
X137954819Y-90649999D01*
X137573866Y-89840475D02*
X137573866Y-89078571D01*
X136954819Y-88697618D02*
X136954819Y-88078571D01*
X136954819Y-88078571D02*
X137335771Y-88411904D01*
X137335771Y-88411904D02*
X137335771Y-88269047D01*
X137335771Y-88269047D02*
X137383390Y-88173809D01*
X137383390Y-88173809D02*
X137431009Y-88126190D01*
X137431009Y-88126190D02*
X137526247Y-88078571D01*
X137526247Y-88078571D02*
X137764342Y-88078571D01*
X137764342Y-88078571D02*
X137859580Y-88126190D01*
X137859580Y-88126190D02*
X137907200Y-88173809D01*
X137907200Y-88173809D02*
X137954819Y-88269047D01*
X137954819Y-88269047D02*
X137954819Y-88554761D01*
X137954819Y-88554761D02*
X137907200Y-88649999D01*
X137907200Y-88649999D02*
X137859580Y-88697618D01*
X137859580Y-87649999D02*
X137907200Y-87602380D01*
X137907200Y-87602380D02*
X137954819Y-87649999D01*
X137954819Y-87649999D02*
X137907200Y-87697618D01*
X137907200Y-87697618D02*
X137859580Y-87649999D01*
X137859580Y-87649999D02*
X137954819Y-87649999D01*
X136954819Y-87269047D02*
X136954819Y-86650000D01*
X136954819Y-86650000D02*
X137335771Y-86983333D01*
X137335771Y-86983333D02*
X137335771Y-86840476D01*
X137335771Y-86840476D02*
X137383390Y-86745238D01*
X137383390Y-86745238D02*
X137431009Y-86697619D01*
X137431009Y-86697619D02*
X137526247Y-86650000D01*
X137526247Y-86650000D02*
X137764342Y-86650000D01*
X137764342Y-86650000D02*
X137859580Y-86697619D01*
X137859580Y-86697619D02*
X137907200Y-86745238D01*
X137907200Y-86745238D02*
X137954819Y-86840476D01*
X137954819Y-86840476D02*
X137954819Y-87126190D01*
X137954819Y-87126190D02*
X137907200Y-87221428D01*
X137907200Y-87221428D02*
X137859580Y-87269047D01*
X104614819Y-56375357D02*
X104138628Y-56708690D01*
X104614819Y-56946785D02*
X103614819Y-56946785D01*
X103614819Y-56946785D02*
X103614819Y-56565833D01*
X103614819Y-56565833D02*
X103662438Y-56470595D01*
X103662438Y-56470595D02*
X103710057Y-56422976D01*
X103710057Y-56422976D02*
X103805295Y-56375357D01*
X103805295Y-56375357D02*
X103948152Y-56375357D01*
X103948152Y-56375357D02*
X104043390Y-56422976D01*
X104043390Y-56422976D02*
X104091009Y-56470595D01*
X104091009Y-56470595D02*
X104138628Y-56565833D01*
X104138628Y-56565833D02*
X104138628Y-56946785D01*
X103614819Y-56042023D02*
X104614819Y-55375357D01*
X103614819Y-55375357D02*
X104614819Y-56042023D01*
X104614819Y-54470595D02*
X104614819Y-55042023D01*
X104614819Y-54756309D02*
X103614819Y-54756309D01*
X103614819Y-54756309D02*
X103757676Y-54851547D01*
X103757676Y-54851547D02*
X103852914Y-54946785D01*
X103852914Y-54946785D02*
X103900533Y-55042023D01*
X102182410Y-63204819D02*
X102182410Y-62204819D01*
X102753838Y-63204819D02*
X102325267Y-62633390D01*
X102753838Y-62204819D02*
X102182410Y-62776247D01*
X128589104Y-85059999D02*
X128589104Y-84583809D01*
X128874819Y-85155237D02*
X127874819Y-84821904D01*
X127874819Y-84821904D02*
X128874819Y-84488571D01*
X128874819Y-84155237D02*
X127874819Y-84155237D01*
X127874819Y-84155237D02*
X128589104Y-83821904D01*
X128589104Y-83821904D02*
X127874819Y-83488571D01*
X127874819Y-83488571D02*
X128874819Y-83488571D01*
X128827200Y-83059999D02*
X128874819Y-82917142D01*
X128874819Y-82917142D02*
X128874819Y-82679047D01*
X128874819Y-82679047D02*
X128827200Y-82583809D01*
X128827200Y-82583809D02*
X128779580Y-82536190D01*
X128779580Y-82536190D02*
X128684342Y-82488571D01*
X128684342Y-82488571D02*
X128589104Y-82488571D01*
X128589104Y-82488571D02*
X128493866Y-82536190D01*
X128493866Y-82536190D02*
X128446247Y-82583809D01*
X128446247Y-82583809D02*
X128398628Y-82679047D01*
X128398628Y-82679047D02*
X128351009Y-82869523D01*
X128351009Y-82869523D02*
X128303390Y-82964761D01*
X128303390Y-82964761D02*
X128255771Y-83012380D01*
X128255771Y-83012380D02*
X128160533Y-83059999D01*
X128160533Y-83059999D02*
X128065295Y-83059999D01*
X128065295Y-83059999D02*
X127970057Y-83012380D01*
X127970057Y-83012380D02*
X127922438Y-82964761D01*
X127922438Y-82964761D02*
X127874819Y-82869523D01*
X127874819Y-82869523D02*
X127874819Y-82631428D01*
X127874819Y-82631428D02*
X127922438Y-82488571D01*
X128874819Y-81536190D02*
X128874819Y-82107618D01*
X128874819Y-81821904D02*
X127874819Y-81821904D01*
X127874819Y-81821904D02*
X128017676Y-81917142D01*
X128017676Y-81917142D02*
X128112914Y-82012380D01*
X128112914Y-82012380D02*
X128160533Y-82107618D01*
X128874819Y-80583809D02*
X128874819Y-81155237D01*
X128874819Y-80869523D02*
X127874819Y-80869523D01*
X127874819Y-80869523D02*
X128017676Y-80964761D01*
X128017676Y-80964761D02*
X128112914Y-81059999D01*
X128112914Y-81059999D02*
X128160533Y-81155237D01*
X128874819Y-79631428D02*
X128874819Y-80202856D01*
X128874819Y-79917142D02*
X127874819Y-79917142D01*
X127874819Y-79917142D02*
X128017676Y-80012380D01*
X128017676Y-80012380D02*
X128112914Y-80107618D01*
X128112914Y-80107618D02*
X128160533Y-80202856D01*
X127874819Y-79298094D02*
X127874819Y-78631428D01*
X127874819Y-78631428D02*
X128874819Y-79059999D01*
X128493866Y-78250475D02*
X128493866Y-77488571D01*
X127874819Y-76536190D02*
X127874819Y-77012380D01*
X127874819Y-77012380D02*
X128351009Y-77059999D01*
X128351009Y-77059999D02*
X128303390Y-77012380D01*
X128303390Y-77012380D02*
X128255771Y-76917142D01*
X128255771Y-76917142D02*
X128255771Y-76679047D01*
X128255771Y-76679047D02*
X128303390Y-76583809D01*
X128303390Y-76583809D02*
X128351009Y-76536190D01*
X128351009Y-76536190D02*
X128446247Y-76488571D01*
X128446247Y-76488571D02*
X128684342Y-76488571D01*
X128684342Y-76488571D02*
X128779580Y-76536190D01*
X128779580Y-76536190D02*
X128827200Y-76583809D01*
X128827200Y-76583809D02*
X128874819Y-76679047D01*
X128874819Y-76679047D02*
X128874819Y-76917142D01*
X128874819Y-76917142D02*
X128827200Y-77012380D01*
X128827200Y-77012380D02*
X128779580Y-77059999D01*
X128779580Y-76059999D02*
X128827200Y-76012380D01*
X128827200Y-76012380D02*
X128874819Y-76059999D01*
X128874819Y-76059999D02*
X128827200Y-76107618D01*
X128827200Y-76107618D02*
X128779580Y-76059999D01*
X128779580Y-76059999D02*
X128874819Y-76059999D01*
X127874819Y-75393333D02*
X127874819Y-75298095D01*
X127874819Y-75298095D02*
X127922438Y-75202857D01*
X127922438Y-75202857D02*
X127970057Y-75155238D01*
X127970057Y-75155238D02*
X128065295Y-75107619D01*
X128065295Y-75107619D02*
X128255771Y-75060000D01*
X128255771Y-75060000D02*
X128493866Y-75060000D01*
X128493866Y-75060000D02*
X128684342Y-75107619D01*
X128684342Y-75107619D02*
X128779580Y-75155238D01*
X128779580Y-75155238D02*
X128827200Y-75202857D01*
X128827200Y-75202857D02*
X128874819Y-75298095D01*
X128874819Y-75298095D02*
X128874819Y-75393333D01*
X128874819Y-75393333D02*
X128827200Y-75488571D01*
X128827200Y-75488571D02*
X128779580Y-75536190D01*
X128779580Y-75536190D02*
X128684342Y-75583809D01*
X128684342Y-75583809D02*
X128493866Y-75631428D01*
X128493866Y-75631428D02*
X128255771Y-75631428D01*
X128255771Y-75631428D02*
X128065295Y-75583809D01*
X128065295Y-75583809D02*
X127970057Y-75536190D01*
X127970057Y-75536190D02*
X127922438Y-75488571D01*
X127922438Y-75488571D02*
X127874819Y-75393333D01*
X120148152Y-84894285D02*
X120814819Y-84894285D01*
X119767200Y-85132380D02*
X120481485Y-85370475D01*
X120481485Y-85370475D02*
X120481485Y-84751428D01*
X119814819Y-84465713D02*
X119814819Y-83799047D01*
X119814819Y-83799047D02*
X120814819Y-84227618D01*
X119814819Y-83227618D02*
X119814819Y-83132380D01*
X119814819Y-83132380D02*
X119862438Y-83037142D01*
X119862438Y-83037142D02*
X119910057Y-82989523D01*
X119910057Y-82989523D02*
X120005295Y-82941904D01*
X120005295Y-82941904D02*
X120195771Y-82894285D01*
X120195771Y-82894285D02*
X120433866Y-82894285D01*
X120433866Y-82894285D02*
X120624342Y-82941904D01*
X120624342Y-82941904D02*
X120719580Y-82989523D01*
X120719580Y-82989523D02*
X120767200Y-83037142D01*
X120767200Y-83037142D02*
X120814819Y-83132380D01*
X120814819Y-83132380D02*
X120814819Y-83227618D01*
X120814819Y-83227618D02*
X120767200Y-83322856D01*
X120767200Y-83322856D02*
X120719580Y-83370475D01*
X120719580Y-83370475D02*
X120624342Y-83418094D01*
X120624342Y-83418094D02*
X120433866Y-83465713D01*
X120433866Y-83465713D02*
X120195771Y-83465713D01*
X120195771Y-83465713D02*
X120005295Y-83418094D01*
X120005295Y-83418094D02*
X119910057Y-83370475D01*
X119910057Y-83370475D02*
X119862438Y-83322856D01*
X119862438Y-83322856D02*
X119814819Y-83227618D01*
X120148152Y-82465713D02*
X121148152Y-82465713D01*
X120195771Y-82465713D02*
X120148152Y-82370475D01*
X120148152Y-82370475D02*
X120148152Y-82179999D01*
X120148152Y-82179999D02*
X120195771Y-82084761D01*
X120195771Y-82084761D02*
X120243390Y-82037142D01*
X120243390Y-82037142D02*
X120338628Y-81989523D01*
X120338628Y-81989523D02*
X120624342Y-81989523D01*
X120624342Y-81989523D02*
X120719580Y-82037142D01*
X120719580Y-82037142D02*
X120767200Y-82084761D01*
X120767200Y-82084761D02*
X120814819Y-82179999D01*
X120814819Y-82179999D02*
X120814819Y-82370475D01*
X120814819Y-82370475D02*
X120767200Y-82465713D01*
X135000952Y-75104819D02*
X134429524Y-75104819D01*
X134715238Y-75104819D02*
X134715238Y-74104819D01*
X134715238Y-74104819D02*
X134620000Y-74247676D01*
X134620000Y-74247676D02*
X134524762Y-74342914D01*
X134524762Y-74342914D02*
X134429524Y-74390533D01*
X135620000Y-74104819D02*
X135715238Y-74104819D01*
X135715238Y-74104819D02*
X135810476Y-74152438D01*
X135810476Y-74152438D02*
X135858095Y-74200057D01*
X135858095Y-74200057D02*
X135905714Y-74295295D01*
X135905714Y-74295295D02*
X135953333Y-74485771D01*
X135953333Y-74485771D02*
X135953333Y-74723866D01*
X135953333Y-74723866D02*
X135905714Y-74914342D01*
X135905714Y-74914342D02*
X135858095Y-75009580D01*
X135858095Y-75009580D02*
X135810476Y-75057200D01*
X135810476Y-75057200D02*
X135715238Y-75104819D01*
X135715238Y-75104819D02*
X135620000Y-75104819D01*
X135620000Y-75104819D02*
X135524762Y-75057200D01*
X135524762Y-75057200D02*
X135477143Y-75009580D01*
X135477143Y-75009580D02*
X135429524Y-74914342D01*
X135429524Y-74914342D02*
X135381905Y-74723866D01*
X135381905Y-74723866D02*
X135381905Y-74485771D01*
X135381905Y-74485771D02*
X135429524Y-74295295D01*
X135429524Y-74295295D02*
X135477143Y-74200057D01*
X135477143Y-74200057D02*
X135524762Y-74152438D01*
X135524762Y-74152438D02*
X135620000Y-74104819D01*
X136572381Y-74104819D02*
X136667619Y-74104819D01*
X136667619Y-74104819D02*
X136762857Y-74152438D01*
X136762857Y-74152438D02*
X136810476Y-74200057D01*
X136810476Y-74200057D02*
X136858095Y-74295295D01*
X136858095Y-74295295D02*
X136905714Y-74485771D01*
X136905714Y-74485771D02*
X136905714Y-74723866D01*
X136905714Y-74723866D02*
X136858095Y-74914342D01*
X136858095Y-74914342D02*
X136810476Y-75009580D01*
X136810476Y-75009580D02*
X136762857Y-75057200D01*
X136762857Y-75057200D02*
X136667619Y-75104819D01*
X136667619Y-75104819D02*
X136572381Y-75104819D01*
X136572381Y-75104819D02*
X136477143Y-75057200D01*
X136477143Y-75057200D02*
X136429524Y-75009580D01*
X136429524Y-75009580D02*
X136381905Y-74914342D01*
X136381905Y-74914342D02*
X136334286Y-74723866D01*
X136334286Y-74723866D02*
X136334286Y-74485771D01*
X136334286Y-74485771D02*
X136381905Y-74295295D01*
X136381905Y-74295295D02*
X136429524Y-74200057D01*
X136429524Y-74200057D02*
X136477143Y-74152438D01*
X136477143Y-74152438D02*
X136572381Y-74104819D01*
X137762857Y-74438152D02*
X137762857Y-75104819D01*
X137334286Y-74438152D02*
X137334286Y-74961961D01*
X137334286Y-74961961D02*
X137381905Y-75057200D01*
X137381905Y-75057200D02*
X137477143Y-75104819D01*
X137477143Y-75104819D02*
X137620000Y-75104819D01*
X137620000Y-75104819D02*
X137715238Y-75057200D01*
X137715238Y-75057200D02*
X137762857Y-75009580D01*
X102215714Y-87678152D02*
X102215714Y-88344819D01*
X101977619Y-87297200D02*
X101739524Y-88011485D01*
X101739524Y-88011485D02*
X102358571Y-88011485D01*
X102644286Y-87344819D02*
X103310952Y-87344819D01*
X103310952Y-87344819D02*
X102882381Y-88344819D01*
X103882381Y-87344819D02*
X103977619Y-87344819D01*
X103977619Y-87344819D02*
X104072857Y-87392438D01*
X104072857Y-87392438D02*
X104120476Y-87440057D01*
X104120476Y-87440057D02*
X104168095Y-87535295D01*
X104168095Y-87535295D02*
X104215714Y-87725771D01*
X104215714Y-87725771D02*
X104215714Y-87963866D01*
X104215714Y-87963866D02*
X104168095Y-88154342D01*
X104168095Y-88154342D02*
X104120476Y-88249580D01*
X104120476Y-88249580D02*
X104072857Y-88297200D01*
X104072857Y-88297200D02*
X103977619Y-88344819D01*
X103977619Y-88344819D02*
X103882381Y-88344819D01*
X103882381Y-88344819D02*
X103787143Y-88297200D01*
X103787143Y-88297200D02*
X103739524Y-88249580D01*
X103739524Y-88249580D02*
X103691905Y-88154342D01*
X103691905Y-88154342D02*
X103644286Y-87963866D01*
X103644286Y-87963866D02*
X103644286Y-87725771D01*
X103644286Y-87725771D02*
X103691905Y-87535295D01*
X103691905Y-87535295D02*
X103739524Y-87440057D01*
X103739524Y-87440057D02*
X103787143Y-87392438D01*
X103787143Y-87392438D02*
X103882381Y-87344819D01*
X104644286Y-87678152D02*
X104644286Y-88678152D01*
X104644286Y-87725771D02*
X104739524Y-87678152D01*
X104739524Y-87678152D02*
X104930000Y-87678152D01*
X104930000Y-87678152D02*
X105025238Y-87725771D01*
X105025238Y-87725771D02*
X105072857Y-87773390D01*
X105072857Y-87773390D02*
X105120476Y-87868628D01*
X105120476Y-87868628D02*
X105120476Y-88154342D01*
X105120476Y-88154342D02*
X105072857Y-88249580D01*
X105072857Y-88249580D02*
X105025238Y-88297200D01*
X105025238Y-88297200D02*
X104930000Y-88344819D01*
X104930000Y-88344819D02*
X104739524Y-88344819D01*
X104739524Y-88344819D02*
X104644286Y-88297200D01*
X133820952Y-102474819D02*
X133249524Y-102474819D01*
X133535238Y-102474819D02*
X133535238Y-101474819D01*
X133535238Y-101474819D02*
X133440000Y-101617676D01*
X133440000Y-101617676D02*
X133344762Y-101712914D01*
X133344762Y-101712914D02*
X133249524Y-101760533D01*
X134440000Y-101474819D02*
X134535238Y-101474819D01*
X134535238Y-101474819D02*
X134630476Y-101522438D01*
X134630476Y-101522438D02*
X134678095Y-101570057D01*
X134678095Y-101570057D02*
X134725714Y-101665295D01*
X134725714Y-101665295D02*
X134773333Y-101855771D01*
X134773333Y-101855771D02*
X134773333Y-102093866D01*
X134773333Y-102093866D02*
X134725714Y-102284342D01*
X134725714Y-102284342D02*
X134678095Y-102379580D01*
X134678095Y-102379580D02*
X134630476Y-102427200D01*
X134630476Y-102427200D02*
X134535238Y-102474819D01*
X134535238Y-102474819D02*
X134440000Y-102474819D01*
X134440000Y-102474819D02*
X134344762Y-102427200D01*
X134344762Y-102427200D02*
X134297143Y-102379580D01*
X134297143Y-102379580D02*
X134249524Y-102284342D01*
X134249524Y-102284342D02*
X134201905Y-102093866D01*
X134201905Y-102093866D02*
X134201905Y-101855771D01*
X134201905Y-101855771D02*
X134249524Y-101665295D01*
X134249524Y-101665295D02*
X134297143Y-101570057D01*
X134297143Y-101570057D02*
X134344762Y-101522438D01*
X134344762Y-101522438D02*
X134440000Y-101474819D01*
X135392381Y-101474819D02*
X135487619Y-101474819D01*
X135487619Y-101474819D02*
X135582857Y-101522438D01*
X135582857Y-101522438D02*
X135630476Y-101570057D01*
X135630476Y-101570057D02*
X135678095Y-101665295D01*
X135678095Y-101665295D02*
X135725714Y-101855771D01*
X135725714Y-101855771D02*
X135725714Y-102093866D01*
X135725714Y-102093866D02*
X135678095Y-102284342D01*
X135678095Y-102284342D02*
X135630476Y-102379580D01*
X135630476Y-102379580D02*
X135582857Y-102427200D01*
X135582857Y-102427200D02*
X135487619Y-102474819D01*
X135487619Y-102474819D02*
X135392381Y-102474819D01*
X135392381Y-102474819D02*
X135297143Y-102427200D01*
X135297143Y-102427200D02*
X135249524Y-102379580D01*
X135249524Y-102379580D02*
X135201905Y-102284342D01*
X135201905Y-102284342D02*
X135154286Y-102093866D01*
X135154286Y-102093866D02*
X135154286Y-101855771D01*
X135154286Y-101855771D02*
X135201905Y-101665295D01*
X135201905Y-101665295D02*
X135249524Y-101570057D01*
X135249524Y-101570057D02*
X135297143Y-101522438D01*
X135297143Y-101522438D02*
X135392381Y-101474819D01*
X136582857Y-101808152D02*
X136582857Y-102474819D01*
X136154286Y-101808152D02*
X136154286Y-102331961D01*
X136154286Y-102331961D02*
X136201905Y-102427200D01*
X136201905Y-102427200D02*
X136297143Y-102474819D01*
X136297143Y-102474819D02*
X136440000Y-102474819D01*
X136440000Y-102474819D02*
X136535238Y-102427200D01*
X136535238Y-102427200D02*
X136582857Y-102379580D01*
X99697619Y-115764819D02*
X99697619Y-114764819D01*
X100126190Y-114860057D02*
X100173809Y-114812438D01*
X100173809Y-114812438D02*
X100269047Y-114764819D01*
X100269047Y-114764819D02*
X100507142Y-114764819D01*
X100507142Y-114764819D02*
X100602380Y-114812438D01*
X100602380Y-114812438D02*
X100649999Y-114860057D01*
X100649999Y-114860057D02*
X100697618Y-114955295D01*
X100697618Y-114955295D02*
X100697618Y-115050533D01*
X100697618Y-115050533D02*
X100649999Y-115193390D01*
X100649999Y-115193390D02*
X100078571Y-115764819D01*
X100078571Y-115764819D02*
X100697618Y-115764819D01*
X101697618Y-115669580D02*
X101649999Y-115717200D01*
X101649999Y-115717200D02*
X101507142Y-115764819D01*
X101507142Y-115764819D02*
X101411904Y-115764819D01*
X101411904Y-115764819D02*
X101269047Y-115717200D01*
X101269047Y-115717200D02*
X101173809Y-115621961D01*
X101173809Y-115621961D02*
X101126190Y-115526723D01*
X101126190Y-115526723D02*
X101078571Y-115336247D01*
X101078571Y-115336247D02*
X101078571Y-115193390D01*
X101078571Y-115193390D02*
X101126190Y-115002914D01*
X101126190Y-115002914D02*
X101173809Y-114907676D01*
X101173809Y-114907676D02*
X101269047Y-114812438D01*
X101269047Y-114812438D02*
X101411904Y-114764819D01*
X101411904Y-114764819D02*
X101507142Y-114764819D01*
X101507142Y-114764819D02*
X101649999Y-114812438D01*
X101649999Y-114812438D02*
X101697618Y-114860057D01*
X102649999Y-115764819D02*
X102078571Y-115764819D01*
X102364285Y-115764819D02*
X102364285Y-114764819D01*
X102364285Y-114764819D02*
X102269047Y-114907676D01*
X102269047Y-114907676D02*
X102173809Y-115002914D01*
X102173809Y-115002914D02*
X102078571Y-115050533D01*
X135454819Y-106738094D02*
X135454819Y-106166666D01*
X136454819Y-106452380D02*
X135454819Y-106452380D01*
X135454819Y-105928570D02*
X136454819Y-105261904D01*
X135454819Y-105261904D02*
X136454819Y-105928570D01*
X136454819Y-104357142D02*
X136454819Y-104928570D01*
X136454819Y-104642856D02*
X135454819Y-104642856D01*
X135454819Y-104642856D02*
X135597676Y-104738094D01*
X135597676Y-104738094D02*
X135692914Y-104833332D01*
X135692914Y-104833332D02*
X135740533Y-104928570D01*
X106344819Y-85686666D02*
X106344819Y-86258094D01*
X106344819Y-85972380D02*
X105344819Y-85972380D01*
X105344819Y-85972380D02*
X105487676Y-86067618D01*
X105487676Y-86067618D02*
X105582914Y-86162856D01*
X105582914Y-86162856D02*
X105630533Y-86258094D01*
X105344819Y-85067618D02*
X105344819Y-84972380D01*
X105344819Y-84972380D02*
X105392438Y-84877142D01*
X105392438Y-84877142D02*
X105440057Y-84829523D01*
X105440057Y-84829523D02*
X105535295Y-84781904D01*
X105535295Y-84781904D02*
X105725771Y-84734285D01*
X105725771Y-84734285D02*
X105963866Y-84734285D01*
X105963866Y-84734285D02*
X106154342Y-84781904D01*
X106154342Y-84781904D02*
X106249580Y-84829523D01*
X106249580Y-84829523D02*
X106297200Y-84877142D01*
X106297200Y-84877142D02*
X106344819Y-84972380D01*
X106344819Y-84972380D02*
X106344819Y-85067618D01*
X106344819Y-85067618D02*
X106297200Y-85162856D01*
X106297200Y-85162856D02*
X106249580Y-85210475D01*
X106249580Y-85210475D02*
X106154342Y-85258094D01*
X106154342Y-85258094D02*
X105963866Y-85305713D01*
X105963866Y-85305713D02*
X105725771Y-85305713D01*
X105725771Y-85305713D02*
X105535295Y-85258094D01*
X105535295Y-85258094D02*
X105440057Y-85210475D01*
X105440057Y-85210475D02*
X105392438Y-85162856D01*
X105392438Y-85162856D02*
X105344819Y-85067618D01*
X105344819Y-84115237D02*
X105344819Y-84019999D01*
X105344819Y-84019999D02*
X105392438Y-83924761D01*
X105392438Y-83924761D02*
X105440057Y-83877142D01*
X105440057Y-83877142D02*
X105535295Y-83829523D01*
X105535295Y-83829523D02*
X105725771Y-83781904D01*
X105725771Y-83781904D02*
X105963866Y-83781904D01*
X105963866Y-83781904D02*
X106154342Y-83829523D01*
X106154342Y-83829523D02*
X106249580Y-83877142D01*
X106249580Y-83877142D02*
X106297200Y-83924761D01*
X106297200Y-83924761D02*
X106344819Y-84019999D01*
X106344819Y-84019999D02*
X106344819Y-84115237D01*
X106344819Y-84115237D02*
X106297200Y-84210475D01*
X106297200Y-84210475D02*
X106249580Y-84258094D01*
X106249580Y-84258094D02*
X106154342Y-84305713D01*
X106154342Y-84305713D02*
X105963866Y-84353332D01*
X105963866Y-84353332D02*
X105725771Y-84353332D01*
X105725771Y-84353332D02*
X105535295Y-84305713D01*
X105535295Y-84305713D02*
X105440057Y-84258094D01*
X105440057Y-84258094D02*
X105392438Y-84210475D01*
X105392438Y-84210475D02*
X105344819Y-84115237D01*
X117396104Y-92203332D02*
X117434200Y-92241428D01*
X117434200Y-92241428D02*
X117472295Y-92355713D01*
X117472295Y-92355713D02*
X117472295Y-92431904D01*
X117472295Y-92431904D02*
X117434200Y-92546190D01*
X117434200Y-92546190D02*
X117358009Y-92622380D01*
X117358009Y-92622380D02*
X117281819Y-92660475D01*
X117281819Y-92660475D02*
X117129438Y-92698571D01*
X117129438Y-92698571D02*
X117015152Y-92698571D01*
X117015152Y-92698571D02*
X116862771Y-92660475D01*
X116862771Y-92660475D02*
X116786580Y-92622380D01*
X116786580Y-92622380D02*
X116710390Y-92546190D01*
X116710390Y-92546190D02*
X116672295Y-92431904D01*
X116672295Y-92431904D02*
X116672295Y-92355713D01*
X116672295Y-92355713D02*
X116710390Y-92241428D01*
X116710390Y-92241428D02*
X116748485Y-92203332D01*
X117396104Y-91403332D02*
X117434200Y-91441428D01*
X117434200Y-91441428D02*
X117472295Y-91555713D01*
X117472295Y-91555713D02*
X117472295Y-91631904D01*
X117472295Y-91631904D02*
X117434200Y-91746190D01*
X117434200Y-91746190D02*
X117358009Y-91822380D01*
X117358009Y-91822380D02*
X117281819Y-91860475D01*
X117281819Y-91860475D02*
X117129438Y-91898571D01*
X117129438Y-91898571D02*
X117015152Y-91898571D01*
X117015152Y-91898571D02*
X116862771Y-91860475D01*
X116862771Y-91860475D02*
X116786580Y-91822380D01*
X116786580Y-91822380D02*
X116710390Y-91746190D01*
X116710390Y-91746190D02*
X116672295Y-91631904D01*
X116672295Y-91631904D02*
X116672295Y-91555713D01*
X116672295Y-91555713D02*
X116710390Y-91441428D01*
X116710390Y-91441428D02*
X116748485Y-91403332D01*
X117472295Y-90641428D02*
X117472295Y-91098571D01*
X117472295Y-90869999D02*
X116672295Y-90869999D01*
X116672295Y-90869999D02*
X116786580Y-90946190D01*
X116786580Y-90946190D02*
X116862771Y-91022380D01*
X116862771Y-91022380D02*
X116900866Y-91098571D01*
X137500952Y-80734819D02*
X136929524Y-80734819D01*
X137215238Y-80734819D02*
X137215238Y-79734819D01*
X137215238Y-79734819D02*
X137120000Y-79877676D01*
X137120000Y-79877676D02*
X137024762Y-79972914D01*
X137024762Y-79972914D02*
X136929524Y-80020533D01*
X138120000Y-79734819D02*
X138215238Y-79734819D01*
X138215238Y-79734819D02*
X138310476Y-79782438D01*
X138310476Y-79782438D02*
X138358095Y-79830057D01*
X138358095Y-79830057D02*
X138405714Y-79925295D01*
X138405714Y-79925295D02*
X138453333Y-80115771D01*
X138453333Y-80115771D02*
X138453333Y-80353866D01*
X138453333Y-80353866D02*
X138405714Y-80544342D01*
X138405714Y-80544342D02*
X138358095Y-80639580D01*
X138358095Y-80639580D02*
X138310476Y-80687200D01*
X138310476Y-80687200D02*
X138215238Y-80734819D01*
X138215238Y-80734819D02*
X138120000Y-80734819D01*
X138120000Y-80734819D02*
X138024762Y-80687200D01*
X138024762Y-80687200D02*
X137977143Y-80639580D01*
X137977143Y-80639580D02*
X137929524Y-80544342D01*
X137929524Y-80544342D02*
X137881905Y-80353866D01*
X137881905Y-80353866D02*
X137881905Y-80115771D01*
X137881905Y-80115771D02*
X137929524Y-79925295D01*
X137929524Y-79925295D02*
X137977143Y-79830057D01*
X137977143Y-79830057D02*
X138024762Y-79782438D01*
X138024762Y-79782438D02*
X138120000Y-79734819D01*
X139072381Y-79734819D02*
X139167619Y-79734819D01*
X139167619Y-79734819D02*
X139262857Y-79782438D01*
X139262857Y-79782438D02*
X139310476Y-79830057D01*
X139310476Y-79830057D02*
X139358095Y-79925295D01*
X139358095Y-79925295D02*
X139405714Y-80115771D01*
X139405714Y-80115771D02*
X139405714Y-80353866D01*
X139405714Y-80353866D02*
X139358095Y-80544342D01*
X139358095Y-80544342D02*
X139310476Y-80639580D01*
X139310476Y-80639580D02*
X139262857Y-80687200D01*
X139262857Y-80687200D02*
X139167619Y-80734819D01*
X139167619Y-80734819D02*
X139072381Y-80734819D01*
X139072381Y-80734819D02*
X138977143Y-80687200D01*
X138977143Y-80687200D02*
X138929524Y-80639580D01*
X138929524Y-80639580D02*
X138881905Y-80544342D01*
X138881905Y-80544342D02*
X138834286Y-80353866D01*
X138834286Y-80353866D02*
X138834286Y-80115771D01*
X138834286Y-80115771D02*
X138881905Y-79925295D01*
X138881905Y-79925295D02*
X138929524Y-79830057D01*
X138929524Y-79830057D02*
X138977143Y-79782438D01*
X138977143Y-79782438D02*
X139072381Y-79734819D01*
X140262857Y-80068152D02*
X140262857Y-80734819D01*
X139834286Y-80068152D02*
X139834286Y-80591961D01*
X139834286Y-80591961D02*
X139881905Y-80687200D01*
X139881905Y-80687200D02*
X139977143Y-80734819D01*
X139977143Y-80734819D02*
X140120000Y-80734819D01*
X140120000Y-80734819D02*
X140215238Y-80687200D01*
X140215238Y-80687200D02*
X140262857Y-80639580D01*
X104273333Y-82994819D02*
X103701905Y-82994819D01*
X103987619Y-82994819D02*
X103987619Y-81994819D01*
X103987619Y-81994819D02*
X103892381Y-82137676D01*
X103892381Y-82137676D02*
X103797143Y-82232914D01*
X103797143Y-82232914D02*
X103701905Y-82280533D01*
X104892381Y-81994819D02*
X104987619Y-81994819D01*
X104987619Y-81994819D02*
X105082857Y-82042438D01*
X105082857Y-82042438D02*
X105130476Y-82090057D01*
X105130476Y-82090057D02*
X105178095Y-82185295D01*
X105178095Y-82185295D02*
X105225714Y-82375771D01*
X105225714Y-82375771D02*
X105225714Y-82613866D01*
X105225714Y-82613866D02*
X105178095Y-82804342D01*
X105178095Y-82804342D02*
X105130476Y-82899580D01*
X105130476Y-82899580D02*
X105082857Y-82947200D01*
X105082857Y-82947200D02*
X104987619Y-82994819D01*
X104987619Y-82994819D02*
X104892381Y-82994819D01*
X104892381Y-82994819D02*
X104797143Y-82947200D01*
X104797143Y-82947200D02*
X104749524Y-82899580D01*
X104749524Y-82899580D02*
X104701905Y-82804342D01*
X104701905Y-82804342D02*
X104654286Y-82613866D01*
X104654286Y-82613866D02*
X104654286Y-82375771D01*
X104654286Y-82375771D02*
X104701905Y-82185295D01*
X104701905Y-82185295D02*
X104749524Y-82090057D01*
X104749524Y-82090057D02*
X104797143Y-82042438D01*
X104797143Y-82042438D02*
X104892381Y-81994819D01*
X105844762Y-81994819D02*
X105940000Y-81994819D01*
X105940000Y-81994819D02*
X106035238Y-82042438D01*
X106035238Y-82042438D02*
X106082857Y-82090057D01*
X106082857Y-82090057D02*
X106130476Y-82185295D01*
X106130476Y-82185295D02*
X106178095Y-82375771D01*
X106178095Y-82375771D02*
X106178095Y-82613866D01*
X106178095Y-82613866D02*
X106130476Y-82804342D01*
X106130476Y-82804342D02*
X106082857Y-82899580D01*
X106082857Y-82899580D02*
X106035238Y-82947200D01*
X106035238Y-82947200D02*
X105940000Y-82994819D01*
X105940000Y-82994819D02*
X105844762Y-82994819D01*
X105844762Y-82994819D02*
X105749524Y-82947200D01*
X105749524Y-82947200D02*
X105701905Y-82899580D01*
X105701905Y-82899580D02*
X105654286Y-82804342D01*
X105654286Y-82804342D02*
X105606667Y-82613866D01*
X105606667Y-82613866D02*
X105606667Y-82375771D01*
X105606667Y-82375771D02*
X105654286Y-82185295D01*
X105654286Y-82185295D02*
X105701905Y-82090057D01*
X105701905Y-82090057D02*
X105749524Y-82042438D01*
X105749524Y-82042438D02*
X105844762Y-81994819D01*
X119622295Y-56086190D02*
X119622295Y-56543333D01*
X119622295Y-56314761D02*
X118822295Y-56314761D01*
X118822295Y-56314761D02*
X118936580Y-56390952D01*
X118936580Y-56390952D02*
X119012771Y-56467142D01*
X119012771Y-56467142D02*
X119050866Y-56543333D01*
X118822295Y-55590951D02*
X118822295Y-55514761D01*
X118822295Y-55514761D02*
X118860390Y-55438570D01*
X118860390Y-55438570D02*
X118898485Y-55400475D01*
X118898485Y-55400475D02*
X118974676Y-55362380D01*
X118974676Y-55362380D02*
X119127057Y-55324285D01*
X119127057Y-55324285D02*
X119317533Y-55324285D01*
X119317533Y-55324285D02*
X119469914Y-55362380D01*
X119469914Y-55362380D02*
X119546104Y-55400475D01*
X119546104Y-55400475D02*
X119584200Y-55438570D01*
X119584200Y-55438570D02*
X119622295Y-55514761D01*
X119622295Y-55514761D02*
X119622295Y-55590951D01*
X119622295Y-55590951D02*
X119584200Y-55667142D01*
X119584200Y-55667142D02*
X119546104Y-55705237D01*
X119546104Y-55705237D02*
X119469914Y-55743332D01*
X119469914Y-55743332D02*
X119317533Y-55781428D01*
X119317533Y-55781428D02*
X119127057Y-55781428D01*
X119127057Y-55781428D02*
X118974676Y-55743332D01*
X118974676Y-55743332D02*
X118898485Y-55705237D01*
X118898485Y-55705237D02*
X118860390Y-55667142D01*
X118860390Y-55667142D02*
X118822295Y-55590951D01*
X119622295Y-54981427D02*
X118822295Y-54981427D01*
X119317533Y-54905237D02*
X119622295Y-54676665D01*
X119088961Y-54676665D02*
X119393723Y-54981427D01*
X128053809Y-56309819D02*
X128053809Y-55309819D01*
X128053809Y-55309819D02*
X128291904Y-55309819D01*
X128291904Y-55309819D02*
X128434761Y-55357438D01*
X128434761Y-55357438D02*
X128529999Y-55452676D01*
X128529999Y-55452676D02*
X128577618Y-55547914D01*
X128577618Y-55547914D02*
X128625237Y-55738390D01*
X128625237Y-55738390D02*
X128625237Y-55881247D01*
X128625237Y-55881247D02*
X128577618Y-56071723D01*
X128577618Y-56071723D02*
X128529999Y-56166961D01*
X128529999Y-56166961D02*
X128434761Y-56262200D01*
X128434761Y-56262200D02*
X128291904Y-56309819D01*
X128291904Y-56309819D02*
X128053809Y-56309819D01*
X129625237Y-56214580D02*
X129577618Y-56262200D01*
X129577618Y-56262200D02*
X129434761Y-56309819D01*
X129434761Y-56309819D02*
X129339523Y-56309819D01*
X129339523Y-56309819D02*
X129196666Y-56262200D01*
X129196666Y-56262200D02*
X129101428Y-56166961D01*
X129101428Y-56166961D02*
X129053809Y-56071723D01*
X129053809Y-56071723D02*
X129006190Y-55881247D01*
X129006190Y-55881247D02*
X129006190Y-55738390D01*
X129006190Y-55738390D02*
X129053809Y-55547914D01*
X129053809Y-55547914D02*
X129101428Y-55452676D01*
X129101428Y-55452676D02*
X129196666Y-55357438D01*
X129196666Y-55357438D02*
X129339523Y-55309819D01*
X129339523Y-55309819D02*
X129434761Y-55309819D01*
X129434761Y-55309819D02*
X129577618Y-55357438D01*
X129577618Y-55357438D02*
X129625237Y-55405057D01*
X131339523Y-56309819D02*
X130768095Y-56309819D01*
X131053809Y-56309819D02*
X131053809Y-55309819D01*
X131053809Y-55309819D02*
X130958571Y-55452676D01*
X130958571Y-55452676D02*
X130863333Y-55547914D01*
X130863333Y-55547914D02*
X130768095Y-55595533D01*
X131720476Y-55405057D02*
X131768095Y-55357438D01*
X131768095Y-55357438D02*
X131863333Y-55309819D01*
X131863333Y-55309819D02*
X132101428Y-55309819D01*
X132101428Y-55309819D02*
X132196666Y-55357438D01*
X132196666Y-55357438D02*
X132244285Y-55405057D01*
X132244285Y-55405057D02*
X132291904Y-55500295D01*
X132291904Y-55500295D02*
X132291904Y-55595533D01*
X132291904Y-55595533D02*
X132244285Y-55738390D01*
X132244285Y-55738390D02*
X131672857Y-56309819D01*
X131672857Y-56309819D02*
X132291904Y-56309819D01*
X132625238Y-55643152D02*
X132863333Y-56309819D01*
X132863333Y-56309819D02*
X133101428Y-55643152D01*
X103130952Y-120724819D02*
X102559524Y-120724819D01*
X102845238Y-120724819D02*
X102845238Y-119724819D01*
X102845238Y-119724819D02*
X102750000Y-119867676D01*
X102750000Y-119867676D02*
X102654762Y-119962914D01*
X102654762Y-119962914D02*
X102559524Y-120010533D01*
X103750000Y-119724819D02*
X103845238Y-119724819D01*
X103845238Y-119724819D02*
X103940476Y-119772438D01*
X103940476Y-119772438D02*
X103988095Y-119820057D01*
X103988095Y-119820057D02*
X104035714Y-119915295D01*
X104035714Y-119915295D02*
X104083333Y-120105771D01*
X104083333Y-120105771D02*
X104083333Y-120343866D01*
X104083333Y-120343866D02*
X104035714Y-120534342D01*
X104035714Y-120534342D02*
X103988095Y-120629580D01*
X103988095Y-120629580D02*
X103940476Y-120677200D01*
X103940476Y-120677200D02*
X103845238Y-120724819D01*
X103845238Y-120724819D02*
X103750000Y-120724819D01*
X103750000Y-120724819D02*
X103654762Y-120677200D01*
X103654762Y-120677200D02*
X103607143Y-120629580D01*
X103607143Y-120629580D02*
X103559524Y-120534342D01*
X103559524Y-120534342D02*
X103511905Y-120343866D01*
X103511905Y-120343866D02*
X103511905Y-120105771D01*
X103511905Y-120105771D02*
X103559524Y-119915295D01*
X103559524Y-119915295D02*
X103607143Y-119820057D01*
X103607143Y-119820057D02*
X103654762Y-119772438D01*
X103654762Y-119772438D02*
X103750000Y-119724819D01*
X104702381Y-119724819D02*
X104797619Y-119724819D01*
X104797619Y-119724819D02*
X104892857Y-119772438D01*
X104892857Y-119772438D02*
X104940476Y-119820057D01*
X104940476Y-119820057D02*
X104988095Y-119915295D01*
X104988095Y-119915295D02*
X105035714Y-120105771D01*
X105035714Y-120105771D02*
X105035714Y-120343866D01*
X105035714Y-120343866D02*
X104988095Y-120534342D01*
X104988095Y-120534342D02*
X104940476Y-120629580D01*
X104940476Y-120629580D02*
X104892857Y-120677200D01*
X104892857Y-120677200D02*
X104797619Y-120724819D01*
X104797619Y-120724819D02*
X104702381Y-120724819D01*
X104702381Y-120724819D02*
X104607143Y-120677200D01*
X104607143Y-120677200D02*
X104559524Y-120629580D01*
X104559524Y-120629580D02*
X104511905Y-120534342D01*
X104511905Y-120534342D02*
X104464286Y-120343866D01*
X104464286Y-120343866D02*
X104464286Y-120105771D01*
X104464286Y-120105771D02*
X104511905Y-119915295D01*
X104511905Y-119915295D02*
X104559524Y-119820057D01*
X104559524Y-119820057D02*
X104607143Y-119772438D01*
X104607143Y-119772438D02*
X104702381Y-119724819D01*
X105464286Y-120058152D02*
X105464286Y-120724819D01*
X105464286Y-120153390D02*
X105511905Y-120105771D01*
X105511905Y-120105771D02*
X105607143Y-120058152D01*
X105607143Y-120058152D02*
X105750000Y-120058152D01*
X105750000Y-120058152D02*
X105845238Y-120105771D01*
X105845238Y-120105771D02*
X105892857Y-120201009D01*
X105892857Y-120201009D02*
X105892857Y-120724819D01*
X130646069Y-3966844D02*
X129646069Y-3966844D01*
X129646069Y-3966844D02*
X129646069Y-3728749D01*
X129646069Y-3728749D02*
X129693688Y-3585892D01*
X129693688Y-3585892D02*
X129788926Y-3490654D01*
X129788926Y-3490654D02*
X129884164Y-3443035D01*
X129884164Y-3443035D02*
X130074640Y-3395416D01*
X130074640Y-3395416D02*
X130217497Y-3395416D01*
X130217497Y-3395416D02*
X130407973Y-3443035D01*
X130407973Y-3443035D02*
X130503211Y-3490654D01*
X130503211Y-3490654D02*
X130598450Y-3585892D01*
X130598450Y-3585892D02*
X130646069Y-3728749D01*
X130646069Y-3728749D02*
X130646069Y-3966844D01*
X130646069Y-2443035D02*
X130646069Y-3014463D01*
X130646069Y-2728749D02*
X129646069Y-2728749D01*
X129646069Y-2728749D02*
X129788926Y-2823987D01*
X129788926Y-2823987D02*
X129884164Y-2919225D01*
X129884164Y-2919225D02*
X129931783Y-3014463D01*
X133497200Y-68064285D02*
X133544819Y-67921428D01*
X133544819Y-67921428D02*
X133544819Y-67683333D01*
X133544819Y-67683333D02*
X133497200Y-67588095D01*
X133497200Y-67588095D02*
X133449580Y-67540476D01*
X133449580Y-67540476D02*
X133354342Y-67492857D01*
X133354342Y-67492857D02*
X133259104Y-67492857D01*
X133259104Y-67492857D02*
X133163866Y-67540476D01*
X133163866Y-67540476D02*
X133116247Y-67588095D01*
X133116247Y-67588095D02*
X133068628Y-67683333D01*
X133068628Y-67683333D02*
X133021009Y-67873809D01*
X133021009Y-67873809D02*
X132973390Y-67969047D01*
X132973390Y-67969047D02*
X132925771Y-68016666D01*
X132925771Y-68016666D02*
X132830533Y-68064285D01*
X132830533Y-68064285D02*
X132735295Y-68064285D01*
X132735295Y-68064285D02*
X132640057Y-68016666D01*
X132640057Y-68016666D02*
X132592438Y-67969047D01*
X132592438Y-67969047D02*
X132544819Y-67873809D01*
X132544819Y-67873809D02*
X132544819Y-67635714D01*
X132544819Y-67635714D02*
X132592438Y-67492857D01*
X133497200Y-67111904D02*
X133544819Y-66969047D01*
X133544819Y-66969047D02*
X133544819Y-66730952D01*
X133544819Y-66730952D02*
X133497200Y-66635714D01*
X133497200Y-66635714D02*
X133449580Y-66588095D01*
X133449580Y-66588095D02*
X133354342Y-66540476D01*
X133354342Y-66540476D02*
X133259104Y-66540476D01*
X133259104Y-66540476D02*
X133163866Y-66588095D01*
X133163866Y-66588095D02*
X133116247Y-66635714D01*
X133116247Y-66635714D02*
X133068628Y-66730952D01*
X133068628Y-66730952D02*
X133021009Y-66921428D01*
X133021009Y-66921428D02*
X132973390Y-67016666D01*
X132973390Y-67016666D02*
X132925771Y-67064285D01*
X132925771Y-67064285D02*
X132830533Y-67111904D01*
X132830533Y-67111904D02*
X132735295Y-67111904D01*
X132735295Y-67111904D02*
X132640057Y-67064285D01*
X132640057Y-67064285D02*
X132592438Y-67016666D01*
X132592438Y-67016666D02*
X132544819Y-66921428D01*
X132544819Y-66921428D02*
X132544819Y-66683333D01*
X132544819Y-66683333D02*
X132592438Y-66540476D01*
X132544819Y-66207142D02*
X132544819Y-65588095D01*
X132544819Y-65588095D02*
X132925771Y-65921428D01*
X132925771Y-65921428D02*
X132925771Y-65778571D01*
X132925771Y-65778571D02*
X132973390Y-65683333D01*
X132973390Y-65683333D02*
X133021009Y-65635714D01*
X133021009Y-65635714D02*
X133116247Y-65588095D01*
X133116247Y-65588095D02*
X133354342Y-65588095D01*
X133354342Y-65588095D02*
X133449580Y-65635714D01*
X133449580Y-65635714D02*
X133497200Y-65683333D01*
X133497200Y-65683333D02*
X133544819Y-65778571D01*
X133544819Y-65778571D02*
X133544819Y-66064285D01*
X133544819Y-66064285D02*
X133497200Y-66159523D01*
X133497200Y-66159523D02*
X133449580Y-66207142D01*
X132878152Y-64730952D02*
X133544819Y-64730952D01*
X132497200Y-64969047D02*
X133211485Y-65207142D01*
X133211485Y-65207142D02*
X133211485Y-64588095D01*
X116284819Y-88641428D02*
X116284819Y-89212856D01*
X116284819Y-88927142D02*
X115284819Y-88927142D01*
X115284819Y-88927142D02*
X115427676Y-89022380D01*
X115427676Y-89022380D02*
X115522914Y-89117618D01*
X115522914Y-89117618D02*
X115570533Y-89212856D01*
X115284819Y-88022380D02*
X115284819Y-87927142D01*
X115284819Y-87927142D02*
X115332438Y-87831904D01*
X115332438Y-87831904D02*
X115380057Y-87784285D01*
X115380057Y-87784285D02*
X115475295Y-87736666D01*
X115475295Y-87736666D02*
X115665771Y-87689047D01*
X115665771Y-87689047D02*
X115903866Y-87689047D01*
X115903866Y-87689047D02*
X116094342Y-87736666D01*
X116094342Y-87736666D02*
X116189580Y-87784285D01*
X116189580Y-87784285D02*
X116237200Y-87831904D01*
X116237200Y-87831904D02*
X116284819Y-87927142D01*
X116284819Y-87927142D02*
X116284819Y-88022380D01*
X116284819Y-88022380D02*
X116237200Y-88117618D01*
X116237200Y-88117618D02*
X116189580Y-88165237D01*
X116189580Y-88165237D02*
X116094342Y-88212856D01*
X116094342Y-88212856D02*
X115903866Y-88260475D01*
X115903866Y-88260475D02*
X115665771Y-88260475D01*
X115665771Y-88260475D02*
X115475295Y-88212856D01*
X115475295Y-88212856D02*
X115380057Y-88165237D01*
X115380057Y-88165237D02*
X115332438Y-88117618D01*
X115332438Y-88117618D02*
X115284819Y-88022380D01*
X115284819Y-87069999D02*
X115284819Y-86974761D01*
X115284819Y-86974761D02*
X115332438Y-86879523D01*
X115332438Y-86879523D02*
X115380057Y-86831904D01*
X115380057Y-86831904D02*
X115475295Y-86784285D01*
X115475295Y-86784285D02*
X115665771Y-86736666D01*
X115665771Y-86736666D02*
X115903866Y-86736666D01*
X115903866Y-86736666D02*
X116094342Y-86784285D01*
X116094342Y-86784285D02*
X116189580Y-86831904D01*
X116189580Y-86831904D02*
X116237200Y-86879523D01*
X116237200Y-86879523D02*
X116284819Y-86974761D01*
X116284819Y-86974761D02*
X116284819Y-87069999D01*
X116284819Y-87069999D02*
X116237200Y-87165237D01*
X116237200Y-87165237D02*
X116189580Y-87212856D01*
X116189580Y-87212856D02*
X116094342Y-87260475D01*
X116094342Y-87260475D02*
X115903866Y-87308094D01*
X115903866Y-87308094D02*
X115665771Y-87308094D01*
X115665771Y-87308094D02*
X115475295Y-87260475D01*
X115475295Y-87260475D02*
X115380057Y-87212856D01*
X115380057Y-87212856D02*
X115332438Y-87165237D01*
X115332438Y-87165237D02*
X115284819Y-87069999D01*
X116284819Y-86308094D02*
X115284819Y-86308094D01*
X115903866Y-86212856D02*
X116284819Y-85927142D01*
X115618152Y-85927142D02*
X115999104Y-86308094D01*
D12*
%TO.C,C16*%
X116760000Y-70576248D02*
X116760000Y-71998752D01*
X118580000Y-70576248D02*
X118580000Y-71998752D01*
%TO.C,C1*%
X108380000Y-61631252D02*
X108380000Y-60208748D01*
X110200000Y-61631252D02*
X110200000Y-60208748D01*
%TO.C,C3*%
X107181248Y-77110000D02*
X108603752Y-77110000D01*
X107181248Y-78930000D02*
X108603752Y-78930000D01*
%TO.C,R3*%
X115860000Y-58397936D02*
X115860000Y-59852064D01*
X117680000Y-58397936D02*
X117680000Y-59852064D01*
%TO.C,U2*%
X107180000Y-65690000D02*
X107180000Y-65970000D01*
X107180000Y-76210000D02*
X107180000Y-75930000D01*
X109565000Y-65690000D02*
X107180000Y-65690000D01*
X109565000Y-65690000D02*
X111950000Y-65690000D01*
X109565000Y-76210000D02*
X107180000Y-76210000D01*
X109565000Y-76210000D02*
X111950000Y-76210000D01*
X111950000Y-65690000D02*
X111950000Y-65970000D01*
X111950000Y-76210000D02*
X111950000Y-75930000D01*
X112967500Y-76260000D02*
X112487500Y-76260000D01*
X112727500Y-75930000D01*
X112967500Y-76260000D01*
G36*
X112967500Y-76260000D02*
G01*
X112487500Y-76260000D01*
X112727500Y-75930000D01*
X112967500Y-76260000D01*
G37*
%TO.C,C2*%
X121260000Y-58396248D02*
X121260000Y-59818752D01*
X123080000Y-58396248D02*
X123080000Y-59818752D01*
%TO.C,C5*%
X95890000Y-64450000D02*
X95890000Y-66690000D01*
X95890000Y-64450000D02*
X103130000Y-64450000D01*
X95890000Y-66690000D02*
X103130000Y-66690000D01*
X103130000Y-64450000D02*
X103130000Y-66690000D01*
%TO.C,U6*%
X111565000Y-81150000D02*
X111565000Y-79200000D01*
X111565000Y-81150000D02*
X111565000Y-83100000D01*
X116685000Y-81150000D02*
X116685000Y-79200000D01*
X116685000Y-81150000D02*
X116685000Y-83100000D01*
X116920000Y-78690000D02*
X116590000Y-78450000D01*
X116920000Y-78210000D01*
X116920000Y-78690000D01*
G36*
X116920000Y-78690000D02*
G01*
X116590000Y-78450000D01*
X116920000Y-78210000D01*
X116920000Y-78690000D01*
G37*
%TO.C,CC2*%
X108771252Y-90890000D02*
X107348748Y-90890000D01*
X108771252Y-92710000D02*
X107348748Y-92710000D01*
%TO.C,J3*%
X93910000Y-88850000D02*
X104920000Y-88850000D01*
X104920000Y-100860000D01*
X93910000Y-100860000D01*
X93910000Y-88850000D01*
%TO.C,C17*%
X129280000Y-99653752D02*
X129280000Y-98231248D01*
X131100000Y-99653752D02*
X131100000Y-98231248D01*
%TO.C,L1*%
X113602064Y-59340000D02*
X112397936Y-59340000D01*
X113602064Y-62060000D02*
X112397936Y-62060000D01*
%TO.C,R5*%
X117530000Y-79087064D02*
X117530000Y-77632936D01*
X119350000Y-79087064D02*
X119350000Y-77632936D01*
%TO.C,U1*%
X125704200Y-123591800D02*
X128218800Y-123591800D01*
X128091800Y-97086900D02*
X126415400Y-97099600D01*
X128168000Y-108326400D02*
X126313800Y-108326400D01*
X128218800Y-119045200D02*
X126491600Y-119045200D01*
X106781200Y-123566400D02*
X128218800Y-123566400D01*
X128218800Y-93162600D01*
X106781200Y-93162600D01*
X106781200Y-123566400D01*
%TO.C,U5*%
X129560000Y-89800000D02*
X129560000Y-93560000D01*
X129560000Y-93560000D02*
X130820000Y-93560000D01*
X136380000Y-89800000D02*
X136380000Y-93560000D01*
X136380000Y-93560000D02*
X135120000Y-93560000D01*
X136610000Y-88760000D02*
X136280000Y-88520000D01*
X136610000Y-88280000D01*
X136610000Y-88760000D01*
G36*
X136610000Y-88760000D02*
G01*
X136280000Y-88520000D01*
X136610000Y-88280000D01*
X136610000Y-88760000D01*
G37*
%TO.C,C7*%
X100800000Y-76590000D02*
X103040000Y-76590000D01*
X100800000Y-83830000D02*
X100800000Y-76590000D01*
X100800000Y-83830000D02*
X103040000Y-83830000D01*
X103040000Y-83830000D02*
X103040000Y-76590000D01*
%TO.C,RX1*%
X108400000Y-54192500D02*
X107290000Y-54192500D01*
X108400000Y-57442500D02*
X107290000Y-57442500D01*
X108990000Y-58492500D02*
X109490000Y-58492500D01*
X109240000Y-57992500D02*
X108990000Y-58492500D01*
X109490000Y-58492500D02*
X109240000Y-57992500D01*
X111190000Y-54192500D02*
X110080000Y-54192500D01*
X111190000Y-57442500D02*
X110080000Y-57442500D01*
%TO.C,D3*%
X105457944Y-62750000D02*
X105344315Y-62750000D01*
X108110686Y-62750000D02*
G75*
G02*
X105457944Y-62750000I-1326371J0D01*
G01*
X105457944Y-62750000D02*
G75*
G02*
X108110686Y-62750000I1326371J0D01*
G01*
%TO.C,R6*%
X109160000Y-81292936D02*
X109160000Y-82747064D01*
X110980000Y-81292936D02*
X110980000Y-82747064D01*
%TO.C,U3*%
X129510000Y-78210000D02*
X129510000Y-81970000D01*
X129510000Y-81970000D02*
X130770000Y-81970000D01*
X136330000Y-78210000D02*
X136330000Y-81970000D01*
X136330000Y-81970000D02*
X135070000Y-81970000D01*
X136560000Y-77170000D02*
X136230000Y-76930000D01*
X136560000Y-76690000D01*
X136560000Y-77170000D01*
G36*
X136560000Y-77170000D02*
G01*
X136230000Y-76930000D01*
X136560000Y-76690000D01*
X136560000Y-77170000D01*
G37*
%TO.C,C11*%
X117560000Y-82796248D02*
X117560000Y-84218752D01*
X119380000Y-82796248D02*
X119380000Y-84218752D01*
%TO.C,C8*%
X133315225Y-69425000D02*
X133815225Y-69425000D01*
X133565225Y-69175000D02*
X133565225Y-69675000D01*
X136120000Y-68320000D02*
X136120000Y-73480000D01*
X136160000Y-68320000D02*
X136160000Y-73480000D01*
X136200000Y-68321000D02*
X136200000Y-73479000D01*
X136240000Y-68322000D02*
X136240000Y-73478000D01*
X136280000Y-68324000D02*
X136280000Y-73476000D01*
X136320000Y-68327000D02*
X136320000Y-73473000D01*
X136360000Y-68331000D02*
X136360000Y-69860000D01*
X136360000Y-71940000D02*
X136360000Y-73469000D01*
X136400000Y-68335000D02*
X136400000Y-69860000D01*
X136400000Y-71940000D02*
X136400000Y-73465000D01*
X136440000Y-68339000D02*
X136440000Y-69860000D01*
X136440000Y-71940000D02*
X136440000Y-73461000D01*
X136480000Y-68344000D02*
X136480000Y-69860000D01*
X136480000Y-71940000D02*
X136480000Y-73456000D01*
X136520000Y-68350000D02*
X136520000Y-69860000D01*
X136520000Y-71940000D02*
X136520000Y-73450000D01*
X136560000Y-68357000D02*
X136560000Y-69860000D01*
X136560000Y-71940000D02*
X136560000Y-73443000D01*
X136600000Y-68364000D02*
X136600000Y-69860000D01*
X136600000Y-71940000D02*
X136600000Y-73436000D01*
X136640000Y-68372000D02*
X136640000Y-69860000D01*
X136640000Y-71940000D02*
X136640000Y-73428000D01*
X136680000Y-68380000D02*
X136680000Y-69860000D01*
X136680000Y-71940000D02*
X136680000Y-73420000D01*
X136720000Y-68389000D02*
X136720000Y-69860000D01*
X136720000Y-71940000D02*
X136720000Y-73411000D01*
X136760000Y-68399000D02*
X136760000Y-69860000D01*
X136760000Y-71940000D02*
X136760000Y-73401000D01*
X136800000Y-68409000D02*
X136800000Y-69860000D01*
X136800000Y-71940000D02*
X136800000Y-73391000D01*
X136841000Y-68420000D02*
X136841000Y-69860000D01*
X136841000Y-71940000D02*
X136841000Y-73380000D01*
X136881000Y-68432000D02*
X136881000Y-69860000D01*
X136881000Y-71940000D02*
X136881000Y-73368000D01*
X136921000Y-68445000D02*
X136921000Y-69860000D01*
X136921000Y-71940000D02*
X136921000Y-73355000D01*
X136961000Y-68458000D02*
X136961000Y-69860000D01*
X136961000Y-71940000D02*
X136961000Y-73342000D01*
X137001000Y-68472000D02*
X137001000Y-69860000D01*
X137001000Y-71940000D02*
X137001000Y-73328000D01*
X137041000Y-68486000D02*
X137041000Y-69860000D01*
X137041000Y-71940000D02*
X137041000Y-73314000D01*
X137081000Y-68502000D02*
X137081000Y-69860000D01*
X137081000Y-71940000D02*
X137081000Y-73298000D01*
X137121000Y-68518000D02*
X137121000Y-69860000D01*
X137121000Y-71940000D02*
X137121000Y-73282000D01*
X137161000Y-68535000D02*
X137161000Y-69860000D01*
X137161000Y-71940000D02*
X137161000Y-73265000D01*
X137201000Y-68552000D02*
X137201000Y-69860000D01*
X137201000Y-71940000D02*
X137201000Y-73248000D01*
X137241000Y-68571000D02*
X137241000Y-69860000D01*
X137241000Y-71940000D02*
X137241000Y-73229000D01*
X137281000Y-68590000D02*
X137281000Y-69860000D01*
X137281000Y-71940000D02*
X137281000Y-73210000D01*
X137321000Y-68610000D02*
X137321000Y-69860000D01*
X137321000Y-71940000D02*
X137321000Y-73190000D01*
X137361000Y-68632000D02*
X137361000Y-69860000D01*
X137361000Y-71940000D02*
X137361000Y-73168000D01*
X137401000Y-68653000D02*
X137401000Y-69860000D01*
X137401000Y-71940000D02*
X137401000Y-73147000D01*
X137441000Y-68676000D02*
X137441000Y-69860000D01*
X137441000Y-71940000D02*
X137441000Y-73124000D01*
X137481000Y-68700000D02*
X137481000Y-69860000D01*
X137481000Y-71940000D02*
X137481000Y-73100000D01*
X137521000Y-68725000D02*
X137521000Y-69860000D01*
X137521000Y-71940000D02*
X137521000Y-73075000D01*
X137561000Y-68751000D02*
X137561000Y-69860000D01*
X137561000Y-71940000D02*
X137561000Y-73049000D01*
X137601000Y-68778000D02*
X137601000Y-69860000D01*
X137601000Y-71940000D02*
X137601000Y-73022000D01*
X137641000Y-68805000D02*
X137641000Y-69860000D01*
X137641000Y-71940000D02*
X137641000Y-72995000D01*
X137681000Y-68835000D02*
X137681000Y-69860000D01*
X137681000Y-71940000D02*
X137681000Y-72965000D01*
X137721000Y-68865000D02*
X137721000Y-69860000D01*
X137721000Y-71940000D02*
X137721000Y-72935000D01*
X137761000Y-68896000D02*
X137761000Y-69860000D01*
X137761000Y-71940000D02*
X137761000Y-72904000D01*
X137801000Y-68929000D02*
X137801000Y-69860000D01*
X137801000Y-71940000D02*
X137801000Y-72871000D01*
X137841000Y-68963000D02*
X137841000Y-69860000D01*
X137841000Y-71940000D02*
X137841000Y-72837000D01*
X137881000Y-68999000D02*
X137881000Y-69860000D01*
X137881000Y-71940000D02*
X137881000Y-72801000D01*
X137921000Y-69036000D02*
X137921000Y-69860000D01*
X137921000Y-71940000D02*
X137921000Y-72764000D01*
X137961000Y-69074000D02*
X137961000Y-69860000D01*
X137961000Y-71940000D02*
X137961000Y-72726000D01*
X138001000Y-69115000D02*
X138001000Y-69860000D01*
X138001000Y-71940000D02*
X138001000Y-72685000D01*
X138041000Y-69157000D02*
X138041000Y-69860000D01*
X138041000Y-71940000D02*
X138041000Y-72643000D01*
X138081000Y-69201000D02*
X138081000Y-69860000D01*
X138081000Y-71940000D02*
X138081000Y-72599000D01*
X138121000Y-69247000D02*
X138121000Y-69860000D01*
X138121000Y-71940000D02*
X138121000Y-72553000D01*
X138161000Y-69295000D02*
X138161000Y-69860000D01*
X138161000Y-71940000D02*
X138161000Y-72505000D01*
X138201000Y-69346000D02*
X138201000Y-69860000D01*
X138201000Y-71940000D02*
X138201000Y-72454000D01*
X138241000Y-69400000D02*
X138241000Y-69860000D01*
X138241000Y-71940000D02*
X138241000Y-72400000D01*
X138281000Y-69457000D02*
X138281000Y-69860000D01*
X138281000Y-71940000D02*
X138281000Y-72343000D01*
X138321000Y-69517000D02*
X138321000Y-69860000D01*
X138321000Y-71940000D02*
X138321000Y-72283000D01*
X138361000Y-69581000D02*
X138361000Y-69860000D01*
X138361000Y-71940000D02*
X138361000Y-72219000D01*
X138401000Y-69649000D02*
X138401000Y-69860000D01*
X138401000Y-71940000D02*
X138401000Y-72151000D01*
X138441000Y-69722000D02*
X138441000Y-72078000D01*
X138481000Y-69802000D02*
X138481000Y-71998000D01*
X138521000Y-69889000D02*
X138521000Y-71911000D01*
X138561000Y-69985000D02*
X138561000Y-71815000D01*
X138601000Y-70095000D02*
X138601000Y-71705000D01*
X138641000Y-70223000D02*
X138641000Y-71577000D01*
X138681000Y-70382000D02*
X138681000Y-71418000D01*
X138721000Y-70616000D02*
X138721000Y-71184000D01*
X138740000Y-70900000D02*
G75*
G02*
X133500000Y-70900000I-2620000J0D01*
G01*
X133500000Y-70900000D02*
G75*
G02*
X138740000Y-70900000I2620000J0D01*
G01*
%TO.C,C12*%
X108471252Y-87490000D02*
X107048748Y-87490000D01*
X108471252Y-89310000D02*
X107048748Y-89310000D01*
%TO.C,C15*%
X132670199Y-97575000D02*
X133070199Y-97575000D01*
X132870199Y-97375000D02*
X132870199Y-97775000D01*
X134940000Y-96690000D02*
X134940000Y-100850000D01*
X134980000Y-96690000D02*
X134980000Y-100850000D01*
X135020000Y-96691000D02*
X135020000Y-100849000D01*
X135060000Y-96693000D02*
X135060000Y-100847000D01*
X135100000Y-96696000D02*
X135100000Y-100844000D01*
X135140000Y-96699000D02*
X135140000Y-97930000D01*
X135140000Y-99610000D02*
X135140000Y-100841000D01*
X135180000Y-96703000D02*
X135180000Y-97930000D01*
X135180000Y-99610000D02*
X135180000Y-100837000D01*
X135220000Y-96708000D02*
X135220000Y-97930000D01*
X135220000Y-99610000D02*
X135220000Y-100832000D01*
X135260000Y-96714000D02*
X135260000Y-97930000D01*
X135260000Y-99610000D02*
X135260000Y-100826000D01*
X135300000Y-96720000D02*
X135300000Y-97930000D01*
X135300000Y-99610000D02*
X135300000Y-100820000D01*
X135340000Y-96728000D02*
X135340000Y-97930000D01*
X135340000Y-99610000D02*
X135340000Y-100812000D01*
X135380000Y-96736000D02*
X135380000Y-97930000D01*
X135380000Y-99610000D02*
X135380000Y-100804000D01*
X135420000Y-96745000D02*
X135420000Y-97930000D01*
X135420000Y-99610000D02*
X135420000Y-100795000D01*
X135460000Y-96754000D02*
X135460000Y-97930000D01*
X135460000Y-99610000D02*
X135460000Y-100786000D01*
X135500000Y-96765000D02*
X135500000Y-97930000D01*
X135500000Y-99610000D02*
X135500000Y-100775000D01*
X135540000Y-96776000D02*
X135540000Y-97930000D01*
X135540000Y-99610000D02*
X135540000Y-100764000D01*
X135580000Y-96788000D02*
X135580000Y-97930000D01*
X135580000Y-99610000D02*
X135580000Y-100752000D01*
X135620000Y-96802000D02*
X135620000Y-97930000D01*
X135620000Y-99610000D02*
X135620000Y-100738000D01*
X135661000Y-96816000D02*
X135661000Y-97930000D01*
X135661000Y-99610000D02*
X135661000Y-100724000D01*
X135701000Y-96830000D02*
X135701000Y-97930000D01*
X135701000Y-99610000D02*
X135701000Y-100710000D01*
X135741000Y-96846000D02*
X135741000Y-97930000D01*
X135741000Y-99610000D02*
X135741000Y-100694000D01*
X135781000Y-96863000D02*
X135781000Y-97930000D01*
X135781000Y-99610000D02*
X135781000Y-100677000D01*
X135821000Y-96881000D02*
X135821000Y-97930000D01*
X135821000Y-99610000D02*
X135821000Y-100659000D01*
X135861000Y-96900000D02*
X135861000Y-97930000D01*
X135861000Y-99610000D02*
X135861000Y-100640000D01*
X135901000Y-96919000D02*
X135901000Y-97930000D01*
X135901000Y-99610000D02*
X135901000Y-100621000D01*
X135941000Y-96940000D02*
X135941000Y-97930000D01*
X135941000Y-99610000D02*
X135941000Y-100600000D01*
X135981000Y-96962000D02*
X135981000Y-97930000D01*
X135981000Y-99610000D02*
X135981000Y-100578000D01*
X136021000Y-96985000D02*
X136021000Y-97930000D01*
X136021000Y-99610000D02*
X136021000Y-100555000D01*
X136061000Y-97010000D02*
X136061000Y-97930000D01*
X136061000Y-99610000D02*
X136061000Y-100530000D01*
X136101000Y-97035000D02*
X136101000Y-97930000D01*
X136101000Y-99610000D02*
X136101000Y-100505000D01*
X136141000Y-97062000D02*
X136141000Y-97930000D01*
X136141000Y-99610000D02*
X136141000Y-100478000D01*
X136181000Y-97090000D02*
X136181000Y-97930000D01*
X136181000Y-99610000D02*
X136181000Y-100450000D01*
X136221000Y-97120000D02*
X136221000Y-97930000D01*
X136221000Y-99610000D02*
X136221000Y-100420000D01*
X136261000Y-97151000D02*
X136261000Y-97930000D01*
X136261000Y-99610000D02*
X136261000Y-100389000D01*
X136301000Y-97183000D02*
X136301000Y-97930000D01*
X136301000Y-99610000D02*
X136301000Y-100357000D01*
X136341000Y-97218000D02*
X136341000Y-97930000D01*
X136341000Y-99610000D02*
X136341000Y-100322000D01*
X136381000Y-97254000D02*
X136381000Y-97930000D01*
X136381000Y-99610000D02*
X136381000Y-100286000D01*
X136421000Y-97292000D02*
X136421000Y-97930000D01*
X136421000Y-99610000D02*
X136421000Y-100248000D01*
X136461000Y-97332000D02*
X136461000Y-97930000D01*
X136461000Y-99610000D02*
X136461000Y-100208000D01*
X136501000Y-97374000D02*
X136501000Y-97930000D01*
X136501000Y-99610000D02*
X136501000Y-100166000D01*
X136541000Y-97419000D02*
X136541000Y-97930000D01*
X136541000Y-99610000D02*
X136541000Y-100121000D01*
X136581000Y-97466000D02*
X136581000Y-97930000D01*
X136581000Y-99610000D02*
X136581000Y-100074000D01*
X136621000Y-97516000D02*
X136621000Y-97930000D01*
X136621000Y-99610000D02*
X136621000Y-100024000D01*
X136661000Y-97570000D02*
X136661000Y-97930000D01*
X136661000Y-99610000D02*
X136661000Y-99970000D01*
X136701000Y-97628000D02*
X136701000Y-97930000D01*
X136701000Y-99610000D02*
X136701000Y-99912000D01*
X136741000Y-97690000D02*
X136741000Y-97930000D01*
X136741000Y-99610000D02*
X136741000Y-99850000D01*
X136781000Y-97757000D02*
X136781000Y-99783000D01*
X136821000Y-97830000D02*
X136821000Y-99710000D01*
X136861000Y-97911000D02*
X136861000Y-99629000D01*
X136901000Y-98002000D02*
X136901000Y-99538000D01*
X136941000Y-98106000D02*
X136941000Y-99434000D01*
X136981000Y-98233000D02*
X136981000Y-99307000D01*
X137021000Y-98400000D02*
X137021000Y-99140000D01*
X137060000Y-98770000D02*
G75*
G02*
X132820000Y-98770000I-2120000J0D01*
G01*
X132820000Y-98770000D02*
G75*
G02*
X137060000Y-98770000I2120000J0D01*
G01*
%TO.C,J1*%
X99820000Y-106570000D02*
X101150000Y-106570000D01*
X99820000Y-107900000D02*
X99820000Y-106570000D01*
X99820000Y-109170000D02*
X99820000Y-114310000D01*
X99820000Y-109170000D02*
X102480000Y-109170000D01*
X99820000Y-114310000D02*
X102480000Y-114310000D01*
X102480000Y-109170000D02*
X102480000Y-114310000D01*
%TO.C,C6*%
X111720000Y-65020000D02*
X111720000Y-62780000D01*
X118960000Y-62780000D02*
X111720000Y-62780000D01*
X118960000Y-65020000D02*
X111720000Y-65020000D01*
X118960000Y-65020000D02*
X118960000Y-62780000D01*
%TO.C,TX1*%
X136990000Y-106750000D02*
X136990000Y-107250000D01*
X136990000Y-107250000D02*
X137490000Y-107000000D01*
X137490000Y-107000000D02*
X136990000Y-106750000D01*
X138040000Y-106160000D02*
X138040000Y-105050000D01*
X138040000Y-108950000D02*
X138040000Y-107840000D01*
X141290000Y-106160000D02*
X141290000Y-105050000D01*
X141290000Y-108950000D02*
X141290000Y-107840000D01*
%TO.C,R4*%
X106685000Y-85327064D02*
X106685000Y-83872936D01*
X108505000Y-85327064D02*
X108505000Y-83872936D01*
%TO.C,CC1*%
X114773752Y-90590000D02*
X113351248Y-90590000D01*
X114773752Y-92410000D02*
X113351248Y-92410000D01*
%TO.C,D2*%
X105567741Y-59770000D02*
X105681370Y-59770000D01*
X105567741Y-59770000D02*
G75*
G02*
X102914999Y-59770000I-1326371J0D01*
G01*
X102914999Y-59770000D02*
G75*
G02*
X105567741Y-59770000I1326371J0D01*
G01*
%TO.C,C13*%
X137020199Y-81995000D02*
X137420199Y-81995000D01*
X137220199Y-81795000D02*
X137220199Y-82195000D01*
X139290000Y-81110000D02*
X139290000Y-85270000D01*
X139330000Y-81110000D02*
X139330000Y-85270000D01*
X139370000Y-81111000D02*
X139370000Y-85269000D01*
X139410000Y-81113000D02*
X139410000Y-85267000D01*
X139450000Y-81116000D02*
X139450000Y-85264000D01*
X139490000Y-81119000D02*
X139490000Y-82350000D01*
X139490000Y-84030000D02*
X139490000Y-85261000D01*
X139530000Y-81123000D02*
X139530000Y-82350000D01*
X139530000Y-84030000D02*
X139530000Y-85257000D01*
X139570000Y-81128000D02*
X139570000Y-82350000D01*
X139570000Y-84030000D02*
X139570000Y-85252000D01*
X139610000Y-81134000D02*
X139610000Y-82350000D01*
X139610000Y-84030000D02*
X139610000Y-85246000D01*
X139650000Y-81140000D02*
X139650000Y-82350000D01*
X139650000Y-84030000D02*
X139650000Y-85240000D01*
X139690000Y-81148000D02*
X139690000Y-82350000D01*
X139690000Y-84030000D02*
X139690000Y-85232000D01*
X139730000Y-81156000D02*
X139730000Y-82350000D01*
X139730000Y-84030000D02*
X139730000Y-85224000D01*
X139770000Y-81165000D02*
X139770000Y-82350000D01*
X139770000Y-84030000D02*
X139770000Y-85215000D01*
X139810000Y-81174000D02*
X139810000Y-82350000D01*
X139810000Y-84030000D02*
X139810000Y-85206000D01*
X139850000Y-81185000D02*
X139850000Y-82350000D01*
X139850000Y-84030000D02*
X139850000Y-85195000D01*
X139890000Y-81196000D02*
X139890000Y-82350000D01*
X139890000Y-84030000D02*
X139890000Y-85184000D01*
X139930000Y-81208000D02*
X139930000Y-82350000D01*
X139930000Y-84030000D02*
X139930000Y-85172000D01*
X139970000Y-81222000D02*
X139970000Y-82350000D01*
X139970000Y-84030000D02*
X139970000Y-85158000D01*
X140011000Y-81236000D02*
X140011000Y-82350000D01*
X140011000Y-84030000D02*
X140011000Y-85144000D01*
X140051000Y-81250000D02*
X140051000Y-82350000D01*
X140051000Y-84030000D02*
X140051000Y-85130000D01*
X140091000Y-81266000D02*
X140091000Y-82350000D01*
X140091000Y-84030000D02*
X140091000Y-85114000D01*
X140131000Y-81283000D02*
X140131000Y-82350000D01*
X140131000Y-84030000D02*
X140131000Y-85097000D01*
X140171000Y-81301000D02*
X140171000Y-82350000D01*
X140171000Y-84030000D02*
X140171000Y-85079000D01*
X140211000Y-81320000D02*
X140211000Y-82350000D01*
X140211000Y-84030000D02*
X140211000Y-85060000D01*
X140251000Y-81339000D02*
X140251000Y-82350000D01*
X140251000Y-84030000D02*
X140251000Y-85041000D01*
X140291000Y-81360000D02*
X140291000Y-82350000D01*
X140291000Y-84030000D02*
X140291000Y-85020000D01*
X140331000Y-81382000D02*
X140331000Y-82350000D01*
X140331000Y-84030000D02*
X140331000Y-84998000D01*
X140371000Y-81405000D02*
X140371000Y-82350000D01*
X140371000Y-84030000D02*
X140371000Y-84975000D01*
X140411000Y-81430000D02*
X140411000Y-82350000D01*
X140411000Y-84030000D02*
X140411000Y-84950000D01*
X140451000Y-81455000D02*
X140451000Y-82350000D01*
X140451000Y-84030000D02*
X140451000Y-84925000D01*
X140491000Y-81482000D02*
X140491000Y-82350000D01*
X140491000Y-84030000D02*
X140491000Y-84898000D01*
X140531000Y-81510000D02*
X140531000Y-82350000D01*
X140531000Y-84030000D02*
X140531000Y-84870000D01*
X140571000Y-81540000D02*
X140571000Y-82350000D01*
X140571000Y-84030000D02*
X140571000Y-84840000D01*
X140611000Y-81571000D02*
X140611000Y-82350000D01*
X140611000Y-84030000D02*
X140611000Y-84809000D01*
X140651000Y-81603000D02*
X140651000Y-82350000D01*
X140651000Y-84030000D02*
X140651000Y-84777000D01*
X140691000Y-81638000D02*
X140691000Y-82350000D01*
X140691000Y-84030000D02*
X140691000Y-84742000D01*
X140731000Y-81674000D02*
X140731000Y-82350000D01*
X140731000Y-84030000D02*
X140731000Y-84706000D01*
X140771000Y-81712000D02*
X140771000Y-82350000D01*
X140771000Y-84030000D02*
X140771000Y-84668000D01*
X140811000Y-81752000D02*
X140811000Y-82350000D01*
X140811000Y-84030000D02*
X140811000Y-84628000D01*
X140851000Y-81794000D02*
X140851000Y-82350000D01*
X140851000Y-84030000D02*
X140851000Y-84586000D01*
X140891000Y-81839000D02*
X140891000Y-82350000D01*
X140891000Y-84030000D02*
X140891000Y-84541000D01*
X140931000Y-81886000D02*
X140931000Y-82350000D01*
X140931000Y-84030000D02*
X140931000Y-84494000D01*
X140971000Y-81936000D02*
X140971000Y-82350000D01*
X140971000Y-84030000D02*
X140971000Y-84444000D01*
X141011000Y-81990000D02*
X141011000Y-82350000D01*
X141011000Y-84030000D02*
X141011000Y-84390000D01*
X141051000Y-82048000D02*
X141051000Y-82350000D01*
X141051000Y-84030000D02*
X141051000Y-84332000D01*
X141091000Y-82110000D02*
X141091000Y-82350000D01*
X141091000Y-84030000D02*
X141091000Y-84270000D01*
X141131000Y-82177000D02*
X141131000Y-84203000D01*
X141171000Y-82250000D02*
X141171000Y-84130000D01*
X141211000Y-82331000D02*
X141211000Y-84049000D01*
X141251000Y-82422000D02*
X141251000Y-83958000D01*
X141291000Y-82526000D02*
X141291000Y-83854000D01*
X141331000Y-82653000D02*
X141331000Y-83727000D01*
X141371000Y-82820000D02*
X141371000Y-83560000D01*
X141410000Y-83190000D02*
G75*
G02*
X137170000Y-83190000I-2120000J0D01*
G01*
X137170000Y-83190000D02*
G75*
G02*
X141410000Y-83190000I2120000J0D01*
G01*
%TO.C,R7*%
X106547064Y-79820000D02*
X105092936Y-79820000D01*
X106547064Y-81640000D02*
X105092936Y-81640000D01*
%TO.C,R2*%
X118450000Y-59852064D02*
X118450000Y-58397936D01*
X120270000Y-59852064D02*
X120270000Y-58397936D01*
%TO.C,J2*%
X129200000Y-59455000D02*
X129200000Y-56855000D01*
X131860000Y-56855000D02*
X129200000Y-56855000D01*
X131860000Y-59455000D02*
X129200000Y-59455000D01*
X131860000Y-59455000D02*
X131860000Y-56855000D01*
X131860000Y-60725000D02*
X131860000Y-62055000D01*
X131860000Y-62055000D02*
X130530000Y-62055000D01*
%TO.C,C14*%
X103200000Y-116378748D02*
X103200000Y-117801252D01*
X105020000Y-116378748D02*
X105020000Y-117801252D01*
%TO.C,D1*%
X128940000Y-72890000D02*
X128940000Y-65880000D01*
X128940000Y-72890000D02*
X132240000Y-72890000D01*
X132240000Y-72890000D02*
X132240000Y-65880000D01*
%TO.C,C4*%
X100880000Y-67950000D02*
X103120000Y-67950000D01*
X100880000Y-75190000D02*
X100880000Y-67950000D01*
X100880000Y-75190000D02*
X103120000Y-75190000D01*
X103120000Y-75190000D02*
X103120000Y-67950000D01*
%TO.C,R9*%
X110610000Y-86732936D02*
X110610000Y-88187064D01*
X112430000Y-86732936D02*
X112430000Y-88187064D01*
%TO.C,R8*%
X113180000Y-86742936D02*
X113180000Y-88197064D01*
X115000000Y-86742936D02*
X115000000Y-88197064D01*
%TD*%
%LPC*%
D13*
%TO.C,C16*%
X117670000Y-69725000D03*
X117670000Y-72850000D03*
%TD*%
D14*
%TO.C,C1*%
X109290000Y-62482500D03*
X109290000Y-59357500D03*
%TD*%
D15*
%TO.C,C3*%
X106330000Y-78020000D03*
X109455000Y-78020000D03*
%TD*%
D16*
%TO.C,R3*%
X116770000Y-57575000D03*
X116770000Y-60675000D03*
%TD*%
D17*
%TO.C,U2*%
X112815000Y-75395000D03*
X112815000Y-74125000D03*
X112815000Y-72855000D03*
X112815000Y-71585000D03*
X112815000Y-70315000D03*
X112815000Y-69045000D03*
X112815000Y-67775000D03*
X112815000Y-66505000D03*
X106315000Y-66505000D03*
X106315000Y-67775000D03*
X106315000Y-69045000D03*
X106315000Y-70315000D03*
X106315000Y-71585000D03*
X106315000Y-72855000D03*
X106315000Y-74125000D03*
X106315000Y-75395000D03*
%TD*%
D13*
%TO.C,C2*%
X122170000Y-57545000D03*
X122170000Y-60670000D03*
%TD*%
D18*
%TO.C,C5*%
X97010000Y-65570000D03*
X102010000Y-65570000D03*
%TD*%
D19*
%TO.C,U6*%
X116030000Y-78575000D03*
X114760000Y-78575000D03*
X113490000Y-78575000D03*
X112220000Y-78575000D03*
X112220000Y-83725000D03*
X113490000Y-83725000D03*
X114760000Y-83725000D03*
X116030000Y-83725000D03*
%TD*%
D20*
%TO.C,H4*%
X135790000Y-120660000D03*
X136492944Y-118962944D03*
X136492944Y-122357056D03*
X138190000Y-118260000D03*
D21*
X138190000Y-120660000D03*
D20*
X138190000Y-123060000D03*
X139887056Y-118962944D03*
X139887056Y-122357056D03*
X140590000Y-120660000D03*
%TD*%
D22*
%TO.C,CC2*%
X109622500Y-91800000D03*
X106497500Y-91800000D03*
%TD*%
D23*
%TO.C,J3*%
X94920000Y-89860000D03*
X94920000Y-99860000D03*
X97420000Y-89860000D03*
X97420000Y-99860000D03*
X102420000Y-94860000D03*
D24*
X102420000Y-89860000D03*
X102420000Y-92360000D03*
D25*
X97420000Y-94860000D03*
D24*
X102420000Y-99860000D03*
X102420000Y-97360000D03*
%TD*%
D14*
%TO.C,C17*%
X130190000Y-100505000D03*
X130190000Y-97380000D03*
%TD*%
D26*
%TO.C,L1*%
X114487500Y-60700000D03*
X111512500Y-60700000D03*
%TD*%
D27*
%TO.C,R5*%
X118440000Y-79910000D03*
X118440000Y-76810000D03*
%TD*%
D28*
%TO.C,U1*%
X108406800Y-115540000D03*
X108406800Y-113000000D03*
X108406800Y-110460000D03*
X108406800Y-107920000D03*
X108406800Y-105380000D03*
X108406800Y-102840000D03*
X108406800Y-100300000D03*
%TD*%
D29*
%TO.C,U5*%
X135270000Y-88500000D03*
X132970000Y-88500000D03*
D30*
X132970000Y-94800000D03*
D29*
X130670000Y-88500000D03*
%TD*%
D18*
%TO.C,C7*%
X101920000Y-82710000D03*
X101920000Y-77710000D03*
%TD*%
D31*
%TO.C,RX1*%
X109240000Y-55732500D03*
D32*
X106415000Y-55982500D03*
X112065000Y-55982500D03*
%TD*%
D33*
%TO.C,D3*%
X104244315Y-62750000D03*
D34*
X106784315Y-62750000D03*
%TD*%
D16*
%TO.C,R6*%
X110070000Y-80470000D03*
X110070000Y-83570000D03*
%TD*%
D29*
%TO.C,U3*%
X135220000Y-76910000D03*
X132920000Y-76910000D03*
D30*
X132920000Y-83210000D03*
D29*
X130620000Y-76910000D03*
%TD*%
D13*
%TO.C,C11*%
X118470000Y-81945000D03*
X118470000Y-85070000D03*
%TD*%
D33*
%TO.C,C8*%
X134870000Y-70900000D03*
D18*
X137370000Y-70900000D03*
%TD*%
D22*
%TO.C,C12*%
X109322500Y-88400000D03*
X106197500Y-88400000D03*
%TD*%
D20*
%TO.C,H2*%
X95150000Y-57360000D03*
X95852944Y-55662944D03*
X95852944Y-59057056D03*
X97550000Y-54960000D03*
D21*
X97550000Y-57360000D03*
D20*
X97550000Y-59760000D03*
X99247056Y-55662944D03*
X99247056Y-59057056D03*
X99950000Y-57360000D03*
%TD*%
D35*
%TO.C,C15*%
X133940000Y-98770000D03*
D23*
X135940000Y-98770000D03*
%TD*%
D36*
%TO.C,J1*%
X101150000Y-107900000D03*
D37*
X101150000Y-110440000D03*
X101150000Y-112980000D03*
%TD*%
D18*
%TO.C,C6*%
X117840000Y-63900000D03*
X112840000Y-63900000D03*
%TD*%
D38*
%TO.C,TX1*%
X139750000Y-107000000D03*
D39*
X139500000Y-104175000D03*
X139500000Y-109825000D03*
%TD*%
D20*
%TO.C,H1*%
X135852944Y-57342944D03*
X136555888Y-55645888D03*
X136555888Y-59040000D03*
X138252944Y-54942944D03*
D21*
X138252944Y-57342944D03*
D20*
X138252944Y-59742944D03*
X139950000Y-55645888D03*
X139950000Y-59040000D03*
X140652944Y-57342944D03*
%TD*%
D27*
%TO.C,R4*%
X107595000Y-86150000D03*
X107595000Y-83050000D03*
%TD*%
D22*
%TO.C,CC1*%
X115625000Y-91500000D03*
X112500000Y-91500000D03*
%TD*%
D33*
%TO.C,D2*%
X106781370Y-59770000D03*
D34*
X104241370Y-59770000D03*
%TD*%
D35*
%TO.C,C13*%
X138290000Y-83190000D03*
D23*
X140290000Y-83190000D03*
%TD*%
D40*
%TO.C,R7*%
X107370000Y-80730000D03*
X104270000Y-80730000D03*
%TD*%
D27*
%TO.C,R2*%
X119360000Y-60675000D03*
X119360000Y-57575000D03*
%TD*%
D36*
%TO.C,J2*%
X130530000Y-60725000D03*
D37*
X130530000Y-58185000D03*
%TD*%
D13*
%TO.C,C14*%
X104110000Y-115527500D03*
X104110000Y-118652500D03*
%TD*%
D20*
%TO.C,H3*%
X95220000Y-120790000D03*
X95922944Y-119092944D03*
X95922944Y-122487056D03*
X97620000Y-118390000D03*
D21*
X97620000Y-120790000D03*
D20*
X97620000Y-123190000D03*
X99317056Y-119092944D03*
X99317056Y-122487056D03*
X100020000Y-120790000D03*
%TD*%
D41*
%TO.C,D1*%
X130590000Y-70880000D03*
X130590000Y-65880000D03*
%TD*%
D18*
%TO.C,C4*%
X102000000Y-74070000D03*
X102000000Y-69070000D03*
%TD*%
D16*
%TO.C,R9*%
X111520000Y-85910000D03*
X111520000Y-89010000D03*
%TD*%
%TO.C,R8*%
X114090000Y-85920000D03*
X114090000Y-89020000D03*
%TD*%
%LPD*%
M02*
