%TF.GenerationSoftware,KiCad,Pcbnew,8.0.3-unknown-202406112021~03dd6c7a8e~ubuntu22.04.1*%
%TF.CreationDate,2024-06-13T18:15:46+05:30*%
%TF.ProjectId,SDR-Board,5344522d-426f-4617-9264-2e6b69636164,rev?*%
%TF.SameCoordinates,Original*%
%TF.FileFunction,Paste,Top*%
%TF.FilePolarity,Positive*%
%FSLAX46Y46*%
G04 Gerber Fmt 4.6, Leading zero omitted, Abs format (unit mm)*
G04 Created by KiCad (PCBNEW 8.0.3-unknown-202406112021~03dd6c7a8e~ubuntu22.04.1) date 2024-06-13 18:15:46*
%MOMM*%
%LPD*%
G01*
G04 APERTURE LIST*
G04 Aperture macros list*
%AMRoundRect*
0 Rectangle with rounded corners*
0 $1 Rounding radius*
0 $2 $3 $4 $5 $6 $7 $8 $9 X,Y pos of 4 corners*
0 Add a 4 corners polygon primitive as box body*
4,1,4,$2,$3,$4,$5,$6,$7,$8,$9,$2,$3,0*
0 Add four circle primitives for the rounded corners*
1,1,$1+$1,$2,$3*
1,1,$1+$1,$4,$5*
1,1,$1+$1,$6,$7*
1,1,$1+$1,$8,$9*
0 Add four rect primitives between the rounded corners*
20,1,$1+$1,$2,$3,$4,$5,0*
20,1,$1+$1,$4,$5,$6,$7,0*
20,1,$1+$1,$6,$7,$8,$9,0*
20,1,$1+$1,$8,$9,$2,$3,0*%
G04 Aperture macros list end*
%ADD10RoundRect,0.250000X-0.650000X0.412500X-0.650000X-0.412500X0.650000X-0.412500X0.650000X0.412500X0*%
%ADD11RoundRect,0.250000X0.650000X-0.412500X0.650000X0.412500X-0.650000X0.412500X-0.650000X-0.412500X0*%
%ADD12RoundRect,0.250000X-0.412500X-0.650000X0.412500X-0.650000X0.412500X0.650000X-0.412500X0.650000X0*%
%ADD13RoundRect,0.250000X-0.625000X0.400000X-0.625000X-0.400000X0.625000X-0.400000X0.625000X0.400000X0*%
%ADD14RoundRect,0.137500X0.662500X0.137500X-0.662500X0.137500X-0.662500X-0.137500X0.662500X-0.137500X0*%
%ADD15RoundRect,0.150000X-0.150000X0.725000X-0.150000X-0.725000X0.150000X-0.725000X0.150000X0.725000X0*%
%ADD16RoundRect,0.250000X0.412500X0.650000X-0.412500X0.650000X-0.412500X-0.650000X0.412500X-0.650000X0*%
%ADD17RoundRect,0.250001X0.462499X1.074999X-0.462499X1.074999X-0.462499X-1.074999X0.462499X-1.074999X0*%
%ADD18RoundRect,0.250000X0.625000X-0.400000X0.625000X0.400000X-0.625000X0.400000X-0.625000X-0.400000X0*%
%ADD19RoundRect,0.375000X-0.375000X0.625000X-0.375000X-0.625000X0.375000X-0.625000X0.375000X0.625000X0*%
%ADD20RoundRect,0.500000X-1.400000X0.500000X-1.400000X-0.500000X1.400000X-0.500000X1.400000X0.500000X0*%
%ADD21RoundRect,0.250000X0.400000X0.625000X-0.400000X0.625000X-0.400000X-0.625000X0.400000X-0.625000X0*%
%ADD22RoundRect,0.250000X0.650000X-1.500000X0.650000X1.500000X-0.650000X1.500000X-0.650000X-1.500000X0*%
G04 APERTURE END LIST*
D10*
%TO.C,C16*%
X117670000Y-69725000D03*
X117670000Y-72850000D03*
%TD*%
D11*
%TO.C,C1*%
X109290000Y-62482500D03*
X109290000Y-59357500D03*
%TD*%
D12*
%TO.C,C3*%
X106330000Y-78020000D03*
X109455000Y-78020000D03*
%TD*%
D13*
%TO.C,R3*%
X116770000Y-57575000D03*
X116770000Y-60675000D03*
%TD*%
D14*
%TO.C,U2*%
X112815000Y-75395000D03*
X112815000Y-74125000D03*
X112815000Y-72855000D03*
X112815000Y-71585000D03*
X112815000Y-70315000D03*
X112815000Y-69045000D03*
X112815000Y-67775000D03*
X112815000Y-66505000D03*
X106315000Y-66505000D03*
X106315000Y-67775000D03*
X106315000Y-69045000D03*
X106315000Y-70315000D03*
X106315000Y-71585000D03*
X106315000Y-72855000D03*
X106315000Y-74125000D03*
X106315000Y-75395000D03*
%TD*%
D10*
%TO.C,C2*%
X122170000Y-57545000D03*
X122170000Y-60670000D03*
%TD*%
D15*
%TO.C,U6*%
X116030000Y-78575000D03*
X114760000Y-78575000D03*
X113490000Y-78575000D03*
X112220000Y-78575000D03*
X112220000Y-83725000D03*
X113490000Y-83725000D03*
X114760000Y-83725000D03*
X116030000Y-83725000D03*
%TD*%
D16*
%TO.C,CC2*%
X109622500Y-91800000D03*
X106497500Y-91800000D03*
%TD*%
D11*
%TO.C,C17*%
X130190000Y-100505000D03*
X130190000Y-97380000D03*
%TD*%
D17*
%TO.C,L1*%
X114487500Y-60700000D03*
X111512500Y-60700000D03*
%TD*%
D18*
%TO.C,R5*%
X118440000Y-79910000D03*
X118440000Y-76810000D03*
%TD*%
D19*
%TO.C,U5*%
X135270000Y-88500000D03*
X132970000Y-88500000D03*
D20*
X132970000Y-94800000D03*
D19*
X130670000Y-88500000D03*
%TD*%
D13*
%TO.C,R6*%
X110070000Y-80470000D03*
X110070000Y-83570000D03*
%TD*%
D19*
%TO.C,U3*%
X135220000Y-76910000D03*
X132920000Y-76910000D03*
D20*
X132920000Y-83210000D03*
D19*
X130620000Y-76910000D03*
%TD*%
D10*
%TO.C,C11*%
X118470000Y-81945000D03*
X118470000Y-85070000D03*
%TD*%
D16*
%TO.C,C12*%
X109322500Y-88400000D03*
X106197500Y-88400000D03*
%TD*%
D18*
%TO.C,R4*%
X107595000Y-86150000D03*
X107595000Y-83050000D03*
%TD*%
D16*
%TO.C,CC1*%
X115625000Y-91500000D03*
X112500000Y-91500000D03*
%TD*%
D21*
%TO.C,R7*%
X107370000Y-80730000D03*
X104270000Y-80730000D03*
%TD*%
D18*
%TO.C,R2*%
X119360000Y-60675000D03*
X119360000Y-57575000D03*
%TD*%
D10*
%TO.C,C14*%
X104110000Y-115527500D03*
X104110000Y-118652500D03*
%TD*%
D22*
%TO.C,D1*%
X130590000Y-70880000D03*
X130590000Y-65880000D03*
%TD*%
D13*
%TO.C,R9*%
X111520000Y-85910000D03*
X111520000Y-89010000D03*
%TD*%
%TO.C,R8*%
X114090000Y-85920000D03*
X114090000Y-89020000D03*
%TD*%
M02*
