%TF.GenerationSoftware,KiCad,Pcbnew,8.0.3-unknown-202406152119~3f4dc01d97~ubuntu22.04.1*%
%TF.CreationDate,2024-06-18T16:57:28+05:30*%
%TF.ProjectId,SDR-Board,5344522d-426f-4617-9264-2e6b69636164,rev?*%
%TF.SameCoordinates,Original*%
%TF.FileFunction,Copper,L2,Bot*%
%TF.FilePolarity,Positive*%
%FSLAX46Y46*%
G04 Gerber Fmt 4.6, Leading zero omitted, Abs format (unit mm)*
G04 Created by KiCad (PCBNEW 8.0.3-unknown-202406152119~3f4dc01d97~ubuntu22.04.1) date 2024-06-18 16:57:28*
%MOMM*%
%LPD*%
G01*
G04 APERTURE LIST*
G04 Aperture macros list*
%AMRoundRect*
0 Rectangle with rounded corners*
0 $1 Rounding radius*
0 $2 $3 $4 $5 $6 $7 $8 $9 X,Y pos of 4 corners*
0 Add a 4 corners polygon primitive as box body*
4,1,4,$2,$3,$4,$5,$6,$7,$8,$9,$2,$3,0*
0 Add four circle primitives for the rounded corners*
1,1,$1+$1,$2,$3*
1,1,$1+$1,$4,$5*
1,1,$1+$1,$6,$7*
1,1,$1+$1,$8,$9*
0 Add four rect primitives between the rounded corners*
20,1,$1+$1,$2,$3,$4,$5,0*
20,1,$1+$1,$4,$5,$6,$7,0*
20,1,$1+$1,$6,$7,$8,$9,0*
20,1,$1+$1,$8,$9,$2,$3,0*%
%AMFreePoly0*
4,1,6,1.000000,0.000000,0.500000,-0.750000,-0.500000,-0.750000,-0.500000,0.750000,0.500000,0.750000,1.000000,0.000000,1.000000,0.000000,$1*%
%AMFreePoly1*
4,1,6,0.500000,-0.750000,-0.650000,-0.750000,-0.150000,0.000000,-0.650000,0.750000,0.500000,0.750000,0.500000,-0.750000,0.500000,-0.750000,$1*%
G04 Aperture macros list end*
%TA.AperFunction,ComponentPad*%
%ADD10C,1.600000*%
%TD*%
%TA.AperFunction,ComponentPad*%
%ADD11C,0.800000*%
%TD*%
%TA.AperFunction,ComponentPad*%
%ADD12C,6.400000*%
%TD*%
%TA.AperFunction,ComponentPad*%
%ADD13R,1.700000X1.700000*%
%TD*%
%TA.AperFunction,ComponentPad*%
%ADD14O,1.700000X1.700000*%
%TD*%
%TA.AperFunction,ComponentPad*%
%ADD15C,1.800000*%
%TD*%
%TA.AperFunction,SMDPad,CuDef*%
%ADD16RoundRect,0.250000X0.425000X1.600000X-0.425000X1.600000X-0.425000X-1.600000X0.425000X-1.600000X0*%
%TD*%
%TA.AperFunction,ComponentPad*%
%ADD17R,1.600000X1.600000*%
%TD*%
%TA.AperFunction,ComponentPad*%
%ADD18O,1.600000X1.600000*%
%TD*%
%TA.AperFunction,SMDPad,CuDef*%
%ADD19RoundRect,0.250000X-1.600000X0.425000X-1.600000X-0.425000X1.600000X-0.425000X1.600000X0.425000X0*%
%TD*%
%TA.AperFunction,SMDPad,CuDef*%
%ADD20FreePoly0,0.000000*%
%TD*%
%TA.AperFunction,SMDPad,CuDef*%
%ADD21FreePoly1,0.000000*%
%TD*%
%TA.AperFunction,SMDPad,CuDef*%
%ADD22FreePoly0,180.000000*%
%TD*%
%TA.AperFunction,SMDPad,CuDef*%
%ADD23FreePoly1,180.000000*%
%TD*%
%TA.AperFunction,SMDPad,CuDef*%
%ADD24RoundRect,0.250000X0.412500X0.650000X-0.412500X0.650000X-0.412500X-0.650000X0.412500X-0.650000X0*%
%TD*%
%TA.AperFunction,ViaPad*%
%ADD25C,0.600000*%
%TD*%
%TA.AperFunction,Conductor*%
%ADD26C,1.000000*%
%TD*%
%TA.AperFunction,Conductor*%
%ADD27C,0.500000*%
%TD*%
G04 APERTURE END LIST*
D10*
%TO.P,C5,1*%
%TO.N,GND*%
X97100000Y-65570000D03*
%TO.P,C5,2*%
%TO.N,Net-(U2-2B1)*%
X102100000Y-65570000D03*
%TD*%
D11*
%TO.P,H4,1,1*%
%TO.N,GND*%
X129552944Y-94697056D03*
X130255888Y-93000000D03*
X130255888Y-96394112D03*
X131952944Y-92297056D03*
D12*
X131952944Y-94697056D03*
D11*
X131952944Y-97097056D03*
X133650000Y-93000000D03*
X133650000Y-96394112D03*
X134352944Y-94697056D03*
%TD*%
D13*
%TO.P,J3,1,Pin_1*%
%TO.N,Net-(J3-Pin_1)*%
X100500000Y-89900000D03*
D14*
%TO.P,J3,2,Pin_2*%
%TO.N,GND*%
X100500000Y-92440000D03*
%TO.P,J3,3,Pin_3*%
%TO.N,Net-(J3-Pin_3)*%
X100500000Y-94980000D03*
%TD*%
D15*
%TO.P,U1,1,VIN*%
%TO.N,+3.3V*%
X97600000Y-83880000D03*
%TO.P,U1,2,GND*%
%TO.N,GND*%
X97600000Y-81340000D03*
%TO.P,U1,3,SDA*%
%TO.N,Net-(J1-Pin_2)*%
X97600000Y-78800000D03*
%TO.P,U1,4,SCL*%
%TO.N,Net-(J1-Pin_1)*%
X97600000Y-76260000D03*
%TO.P,U1,5,S2*%
%TO.N,Net-(TX1-In)*%
X97600000Y-73720000D03*
%TO.P,U1,6,S1*%
%TO.N,Net-(U1-S1)*%
X97600000Y-71180000D03*
%TO.P,U1,7,SO*%
%TO.N,Net-(U1-SO)*%
X97600000Y-68640000D03*
%TD*%
D10*
%TO.P,C7,1*%
%TO.N,GND*%
X102000000Y-82000000D03*
%TO.P,C7,2*%
%TO.N,Net-(U2-2B4)*%
X102000000Y-77000000D03*
%TD*%
D16*
%TO.P,RX1,2,Ext*%
%TO.N,GND*%
X106415000Y-55982500D03*
X112065000Y-55982500D03*
%TD*%
D17*
%TO.P,D3,1,K*%
%TO.N,GND*%
X104244315Y-62750000D03*
D18*
%TO.P,D3,2,A*%
%TO.N,Net-(D2-K)*%
X106784315Y-62750000D03*
%TD*%
D17*
%TO.P,C8,1*%
%TO.N,+12V*%
X125600000Y-75250000D03*
D10*
%TO.P,C8,2*%
%TO.N,GND*%
X125600000Y-72750000D03*
%TD*%
D11*
%TO.P,H2,1,1*%
%TO.N,GND*%
X92402944Y-57302944D03*
X93105888Y-55605888D03*
X93105888Y-59000000D03*
X94802944Y-54902944D03*
D12*
X94802944Y-57302944D03*
D11*
X94802944Y-59702944D03*
X96500000Y-55605888D03*
X96500000Y-59000000D03*
X97202944Y-57302944D03*
%TD*%
D17*
%TO.P,C15,1*%
%TO.N,+3.3V*%
X122820000Y-93484888D03*
D10*
%TO.P,C15,2*%
%TO.N,GND*%
X122820000Y-95984888D03*
%TD*%
D13*
%TO.P,J1,1,Pin_1*%
%TO.N,Net-(J1-Pin_1)*%
X93200000Y-76275000D03*
D14*
%TO.P,J1,2,Pin_2*%
%TO.N,Net-(J1-Pin_2)*%
X93200000Y-78815000D03*
%TO.P,J1,3,Pin_3*%
%TO.N,GND*%
X93200000Y-81355000D03*
%TD*%
D10*
%TO.P,C6,1*%
%TO.N,GND*%
X116650000Y-70730000D03*
%TO.P,C6,2*%
%TO.N,Net-(JP2-B)*%
X116650000Y-65730000D03*
%TD*%
D19*
%TO.P,TX1,2,Ext*%
%TO.N,GND*%
X93350000Y-73225000D03*
X93350000Y-67575000D03*
%TD*%
D11*
%TO.P,H1,1,1*%
%TO.N,GND*%
X129700000Y-57350000D03*
X130402944Y-55652944D03*
X130402944Y-59047056D03*
X132100000Y-54950000D03*
D12*
X132100000Y-57350000D03*
D11*
X132100000Y-59750000D03*
X133797056Y-55652944D03*
X133797056Y-59047056D03*
X134500000Y-57350000D03*
%TD*%
D17*
%TO.P,D2,1,K*%
%TO.N,Net-(D2-K)*%
X106781370Y-59770000D03*
D18*
%TO.P,D2,2,A*%
%TO.N,GND*%
X104241370Y-59770000D03*
%TD*%
D17*
%TO.P,C13,1*%
%TO.N,+5V*%
X125150000Y-82245113D03*
D10*
%TO.P,C13,2*%
%TO.N,GND*%
X125150000Y-79745113D03*
%TD*%
D13*
%TO.P,J2,1,Pin_1*%
%TO.N,Net-(J2-Pin_1)*%
X125400000Y-58475000D03*
D14*
%TO.P,J2,2,Pin_2*%
%TO.N,GND*%
X125400000Y-55935000D03*
%TD*%
D11*
%TO.P,H3,1,1*%
%TO.N,GND*%
X92452944Y-94697056D03*
X93155888Y-93000000D03*
X93155888Y-96394112D03*
X94852944Y-92297056D03*
D12*
X94852944Y-94697056D03*
D11*
X94852944Y-97097056D03*
X96550000Y-93000000D03*
X96550000Y-96394112D03*
X97252944Y-94697056D03*
%TD*%
D10*
%TO.P,C4,1*%
%TO.N,GND*%
X102000000Y-74070000D03*
%TO.P,C4,2*%
%TO.N,Net-(JP1-B)*%
X102000000Y-69070000D03*
%TD*%
D20*
%TO.P,JP2,1,A*%
%TO.N,Net-(JP2-A)*%
X108695000Y-71630000D03*
D21*
%TO.P,JP2,2,B*%
%TO.N,Net-(JP2-B)*%
X110145000Y-71630000D03*
%TD*%
D22*
%TO.P,JP1,1,A*%
%TO.N,Net-(JP1-A)*%
X106130000Y-67010000D03*
D23*
%TO.P,JP1,2,B*%
%TO.N,Net-(JP1-B)*%
X104680000Y-67010000D03*
%TD*%
D24*
%TO.P,CD2,1*%
%TO.N,Net-(CD2-Pad1)*%
X112962500Y-85000000D03*
%TO.P,CD2,2*%
%TO.N,Net-(U2-2B1)*%
X109837500Y-85000000D03*
%TD*%
D20*
%TO.P,JP3,1,A*%
%TO.N,Net-(JP1-A)*%
X108705000Y-68990000D03*
D21*
%TO.P,JP3,2,B*%
%TO.N,Net-(JP2-B)*%
X110155000Y-68990000D03*
%TD*%
D22*
%TO.P,JP4,1,A*%
%TO.N,Net-(JP2-A)*%
X106420000Y-70280000D03*
D23*
%TO.P,JP4,2,B*%
%TO.N,Net-(JP1-B)*%
X104970000Y-70280000D03*
%TD*%
D25*
%TO.N,+5V*%
X116050000Y-84130000D03*
X106670000Y-75370000D03*
X119400000Y-61000000D03*
X119500000Y-60300000D03*
X116030000Y-83400000D03*
X105940000Y-75390000D03*
%TO.N,Net-(C12-Pad2)*%
X116070000Y-78730000D03*
X116070000Y-78100000D03*
X111560000Y-89030000D03*
%TO.N,Net-(U6B--)*%
X114004253Y-86370011D03*
X114410000Y-85690000D03*
X107630000Y-86220000D03*
%TO.N,GND*%
X121000000Y-64100000D03*
X94300000Y-89100000D03*
X115600000Y-97400000D03*
X113450000Y-63370000D03*
X121000000Y-69800000D03*
X101400000Y-57800000D03*
X99900000Y-57800000D03*
X92800000Y-86200000D03*
X94200000Y-62000000D03*
X120460000Y-92020000D03*
X101400000Y-55100000D03*
X102300000Y-70900000D03*
X105800000Y-91100000D03*
X121000000Y-67100000D03*
X101400000Y-56600000D03*
X117400000Y-73499000D03*
X134900000Y-68000000D03*
X100000000Y-62000000D03*
X114950000Y-63370000D03*
X95700000Y-63500000D03*
X121400000Y-76160000D03*
X122500000Y-67100000D03*
X122500000Y-71300000D03*
X95700000Y-62000000D03*
X131500000Y-89150000D03*
X99900000Y-56600000D03*
X114100000Y-97400000D03*
X134900000Y-74000000D03*
X112270000Y-78070000D03*
X101000000Y-72900000D03*
X134900000Y-69500000D03*
X117100000Y-97400000D03*
X111220000Y-73080000D03*
X134000000Y-87300000D03*
X132500000Y-87300000D03*
X107920000Y-76700000D03*
X134900000Y-62000000D03*
X101400000Y-59300000D03*
X133400000Y-62000000D03*
X122500000Y-64100000D03*
X103700000Y-70700000D03*
X102000000Y-79850000D03*
X112270000Y-78880000D03*
X127400000Y-77100000D03*
X116190000Y-76810000D03*
X92800000Y-87700000D03*
X116450000Y-63370000D03*
X134900000Y-71000000D03*
X99900000Y-59300000D03*
X134900000Y-65000000D03*
X121000000Y-71300000D03*
X133400000Y-63500000D03*
X94200000Y-63500000D03*
X116200000Y-73500000D03*
X97000000Y-62000000D03*
X102000000Y-79060000D03*
X134900000Y-66500000D03*
X111270000Y-66500000D03*
X122500000Y-69800000D03*
X122500000Y-65600000D03*
X120100000Y-97400000D03*
X121000000Y-65600000D03*
X122500000Y-68600000D03*
X134000000Y-85800000D03*
X98500000Y-62000000D03*
X134900000Y-72500000D03*
X131700000Y-62800000D03*
X121400000Y-75370000D03*
X92800000Y-89100000D03*
X94300000Y-90600000D03*
X109520000Y-78330000D03*
X97000000Y-63500000D03*
X103000000Y-70700000D03*
X98500000Y-63500000D03*
X99900000Y-55100000D03*
X131700000Y-61370000D03*
X115360000Y-76810000D03*
X92800000Y-90600000D03*
X120460000Y-91230000D03*
X132400000Y-89150000D03*
X118600000Y-97400000D03*
X100000000Y-63500000D03*
X132500000Y-85800000D03*
X134900000Y-63500000D03*
X121000000Y-68600000D03*
X109480000Y-77580000D03*
X111950000Y-63370000D03*
%TO.N,Net-(U2-2B1)*%
X110190000Y-84990000D03*
X109500000Y-85000000D03*
%TO.N,Net-(U1-SO)*%
X106080000Y-72850000D03*
X106780000Y-72830000D03*
%TO.N,Net-(U1-S1)*%
X112400000Y-74100000D03*
X113200000Y-74100000D03*
%TO.N,Net-(JP1-A)*%
X106200000Y-69010000D03*
X106810000Y-68990000D03*
%TO.N,Net-(JP2-A)*%
X106690000Y-70320000D03*
X105980000Y-70320000D03*
%TO.N,Net-(CD1-Pad1)*%
X104300000Y-86200000D03*
X107600000Y-82700000D03*
X105100000Y-86200000D03*
X107600000Y-83400000D03*
%TO.N,Net-(CD2-Pad1)*%
X110400000Y-83600000D03*
X109700000Y-83600000D03*
%TD*%
D26*
%TO.N,+5V*%
X119500000Y-72100000D02*
X119500000Y-60300000D01*
X123000000Y-84130000D02*
X121500000Y-84130000D01*
X119500000Y-72900000D02*
X119500000Y-72100000D01*
D27*
X113500000Y-75390000D02*
X114700000Y-75390000D01*
D26*
X121500000Y-84130000D02*
X116230000Y-84130000D01*
X118910000Y-75390000D02*
X113500000Y-75390000D01*
X125150000Y-83680000D02*
X124700000Y-84130000D01*
X121500000Y-84130000D02*
X124700000Y-84130000D01*
X125150000Y-82245113D02*
X125150000Y-83680000D01*
X119500000Y-72100000D02*
X119500000Y-74800000D01*
X123000000Y-72900000D02*
X123000000Y-84130000D01*
D27*
X114700000Y-75390000D02*
X117949339Y-75390000D01*
X105940000Y-75390000D02*
X113500000Y-75390000D01*
X116030000Y-83400000D02*
X116030000Y-84110000D01*
D26*
X119500000Y-72900000D02*
X123000000Y-72900000D01*
X119500000Y-74800000D02*
X118910000Y-75390000D01*
D27*
X116030000Y-84110000D02*
X116050000Y-84130000D01*
%TO.N,Net-(C12-Pad2)*%
X111560000Y-87890000D02*
X111560000Y-89030000D01*
X116070000Y-78100000D02*
X116040000Y-78070000D01*
X116040000Y-78760000D02*
X116040000Y-78960000D01*
X116040000Y-78070000D02*
X116040000Y-78010000D01*
X116040000Y-78700000D02*
X116040000Y-78130000D01*
X116070000Y-78730000D02*
X116040000Y-78700000D01*
X111880000Y-87570000D02*
X111560000Y-87890000D01*
X116040000Y-78960000D02*
X115280000Y-79720000D01*
X115280000Y-79720000D02*
X115280000Y-87570000D01*
X115280000Y-87570000D02*
X111880000Y-87570000D01*
X116070000Y-78730000D02*
X116040000Y-78760000D01*
X116040000Y-78130000D02*
X116070000Y-78100000D01*
%TO.N,Net-(U6B--)*%
X113700000Y-86800000D02*
X108000000Y-86800000D01*
X114410000Y-85690000D02*
X114410000Y-86090000D01*
X107630000Y-86430000D02*
X107630000Y-86220000D01*
X114410000Y-86090000D02*
X113700000Y-86800000D01*
X114410000Y-85720000D02*
X114410000Y-85690000D01*
X114410000Y-85690000D02*
X114440000Y-85690000D01*
X108000000Y-86800000D02*
X107630000Y-86430000D01*
%TO.N,GND*%
X109480000Y-78290000D02*
X109520000Y-78330000D01*
X109520000Y-78330000D02*
X112010000Y-78330000D01*
X112010000Y-78330000D02*
X112270000Y-78070000D01*
X109480000Y-77580000D02*
X109480000Y-78290000D01*
X112270000Y-78880000D02*
X112270000Y-78070000D01*
%TO.N,Net-(JP1-B)*%
X104965097Y-69334903D02*
X104675097Y-69044903D01*
X102000000Y-69070000D02*
X102000000Y-67350000D01*
X104965097Y-70280000D02*
X104965097Y-69334903D01*
X104650000Y-69070000D02*
X104675097Y-69044903D01*
X102000000Y-69070000D02*
X104650000Y-69070000D01*
X104675097Y-69044903D02*
X104675097Y-67010000D01*
X102000000Y-67350000D02*
X102020000Y-67330000D01*
%TO.N,Net-(JP2-B)*%
X110159903Y-65150000D02*
X116070000Y-65150000D01*
X110159903Y-65150000D02*
X110159903Y-68990000D01*
X110400000Y-71625000D02*
X110400000Y-68995000D01*
X116070000Y-65150000D02*
X116650000Y-65730000D01*
D26*
%TO.N,+3.3V*%
X97600000Y-83880000D02*
X99120000Y-85400000D01*
X99120000Y-85400000D02*
X101900000Y-85400000D01*
X102700000Y-86200000D02*
X102700000Y-94700000D01*
X103500000Y-95500000D02*
X120804888Y-95500000D01*
X101900000Y-85400000D02*
X102700000Y-86200000D01*
X120804888Y-95500000D02*
X122820000Y-93484888D01*
X102700000Y-94700000D02*
X103500000Y-95500000D01*
D27*
%TO.N,Net-(U1-SO)*%
X99107873Y-69507873D02*
X102500000Y-72900000D01*
X105477650Y-72900000D02*
X105266788Y-72900000D01*
X98240000Y-68640000D02*
X98851780Y-69251780D01*
X106710000Y-72900000D02*
X105477650Y-72900000D01*
X102046900Y-72446899D02*
X102500001Y-72900000D01*
X106780000Y-72830000D02*
X106710000Y-72900000D01*
X98851780Y-69251780D02*
X99107873Y-69507873D01*
X102188320Y-72588320D02*
X102046900Y-72446899D01*
X102500000Y-72900000D02*
X102188320Y-72588320D01*
X102500001Y-72900000D02*
X105266788Y-72900000D01*
%TO.N,Net-(U1-S1)*%
X102900000Y-75300000D02*
X104100000Y-74100000D01*
X102900000Y-75320000D02*
X102900000Y-75300000D01*
X101220000Y-75320000D02*
X102900000Y-75320000D01*
X104100000Y-74100000D02*
X113200000Y-74100000D01*
X97600000Y-71700000D02*
X101220000Y-75320000D01*
%TO.N,Net-(JP1-A)*%
X106200000Y-69010000D02*
X106790000Y-69010000D01*
X106130000Y-67010000D02*
X106130000Y-68990000D01*
X106130000Y-68990000D02*
X106150000Y-69010000D01*
X106200000Y-69010000D02*
X108685000Y-69010000D01*
X106150000Y-69010000D02*
X106200000Y-69010000D01*
X106790000Y-69010000D02*
X106810000Y-68990000D01*
%TO.N,Net-(JP2-A)*%
X106420000Y-70280000D02*
X106420000Y-71390000D01*
X106660000Y-71630000D02*
X108695000Y-71630000D01*
X106420000Y-71390000D02*
X106660000Y-71630000D01*
%TO.N,Net-(CD1-Pad1)*%
X105800000Y-86000000D02*
X107600000Y-84200000D01*
X107600000Y-84200000D02*
X107600000Y-83400000D01*
X105600000Y-86200000D02*
X105800000Y-86000000D01*
X104300000Y-86200000D02*
X105600000Y-86200000D01*
X107600000Y-83400000D02*
X107600000Y-82700000D01*
%TO.N,Net-(CD2-Pad1)*%
X109700000Y-83600000D02*
X109500000Y-83600000D01*
X112962500Y-83662500D02*
X112900000Y-83600000D01*
X112962500Y-85000000D02*
X112962500Y-83662500D01*
X112900000Y-83600000D02*
X110400000Y-83600000D01*
X110400000Y-83600000D02*
X109700000Y-83600000D01*
%TD*%
%TA.AperFunction,Conductor*%
%TO.N,GND*%
G36*
X93632532Y-95739386D02*
G01*
X93810614Y-95917468D01*
X93912244Y-95991307D01*
X92417592Y-97485959D01*
X92417593Y-97485960D01*
X92675150Y-97694524D01*
X92947675Y-97871505D01*
X92993178Y-97924526D01*
X93002792Y-97993731D01*
X92973465Y-98057148D01*
X92914508Y-98094642D01*
X92880140Y-98099500D01*
X91524500Y-98099500D01*
X91457461Y-98079815D01*
X91411706Y-98027011D01*
X91400500Y-97975500D01*
X91400500Y-96587702D01*
X91420185Y-96520663D01*
X91472989Y-96474908D01*
X91542147Y-96464964D01*
X91605703Y-96493989D01*
X91634985Y-96531408D01*
X91644251Y-96549594D01*
X91644252Y-96549597D01*
X91855475Y-96874849D01*
X92064039Y-97132406D01*
X92064040Y-97132406D01*
X93558692Y-95637754D01*
X93632532Y-95739386D01*
G37*
%TD.AperFunction*%
%TA.AperFunction,Conductor*%
G36*
X121942539Y-73920185D02*
G01*
X121988294Y-73972989D01*
X121999500Y-74024500D01*
X121999500Y-83005500D01*
X121979815Y-83072539D01*
X121927011Y-83118294D01*
X121875500Y-83129500D01*
X116871423Y-83129500D01*
X116804384Y-83109815D01*
X116758629Y-83057011D01*
X116757068Y-83053133D01*
X116755792Y-83050483D01*
X116734784Y-83017049D01*
X116659816Y-82897738D01*
X116532262Y-82770184D01*
X116507457Y-82754598D01*
X116379521Y-82674210D01*
X116209249Y-82614630D01*
X116140616Y-82606897D01*
X116076202Y-82579830D01*
X116036647Y-82522235D01*
X116030500Y-82483677D01*
X116030500Y-80082229D01*
X116050185Y-80015190D01*
X116066819Y-79994548D01*
X116622948Y-79438419D01*
X116622951Y-79438416D01*
X116705084Y-79315495D01*
X116761658Y-79178913D01*
X116770316Y-79135384D01*
X116786938Y-79093606D01*
X116795789Y-79079522D01*
X116855368Y-78909255D01*
X116855369Y-78909249D01*
X116875565Y-78730003D01*
X116875565Y-78729998D01*
X116869838Y-78679175D01*
X116869063Y-78664178D01*
X116869196Y-78649317D01*
X116839869Y-78431548D01*
X116839869Y-78398448D01*
X116846213Y-78351344D01*
X116869196Y-78180684D01*
X116872522Y-78147985D01*
X116872627Y-78146462D01*
X116872459Y-78136864D01*
X116873220Y-78120805D01*
X116875565Y-78100000D01*
X116871788Y-78066482D01*
X116871535Y-78062586D01*
X116870462Y-78054499D01*
X116870163Y-78052060D01*
X116855369Y-77920750D01*
X116855368Y-77920745D01*
X116834029Y-77859762D01*
X116795789Y-77750478D01*
X116699816Y-77597738D01*
X116572262Y-77470184D01*
X116555270Y-77459507D01*
X116533561Y-77442194D01*
X116518418Y-77427050D01*
X116518415Y-77427048D01*
X116395501Y-77344919D01*
X116395488Y-77344912D01*
X116258917Y-77288343D01*
X116258907Y-77288340D01*
X116113920Y-77259500D01*
X116113918Y-77259500D01*
X115966082Y-77259500D01*
X115966080Y-77259500D01*
X115821092Y-77288340D01*
X115821082Y-77288343D01*
X115684511Y-77344912D01*
X115684498Y-77344919D01*
X115561584Y-77427048D01*
X115561580Y-77427051D01*
X115457051Y-77531580D01*
X115457048Y-77531584D01*
X115374919Y-77654498D01*
X115374912Y-77654511D01*
X115318342Y-77791084D01*
X115318341Y-77791089D01*
X115304680Y-77859762D01*
X115300106Y-77876519D01*
X115284632Y-77920745D01*
X115284630Y-77920751D01*
X115264435Y-78099995D01*
X115264435Y-78099998D01*
X115264891Y-78104049D01*
X115264924Y-78124623D01*
X115265358Y-78124640D01*
X115265191Y-78129063D01*
X115274677Y-78410826D01*
X115274677Y-78419171D01*
X115271292Y-78519710D01*
X115260436Y-78566433D01*
X115178279Y-78748959D01*
X115152886Y-78785744D01*
X114697047Y-79241584D01*
X114697045Y-79241586D01*
X114674442Y-79275416D01*
X114665424Y-79288914D01*
X114658822Y-79298795D01*
X114614914Y-79364507D01*
X114558343Y-79501082D01*
X114558340Y-79501092D01*
X114529500Y-79646079D01*
X114529500Y-84760435D01*
X114509815Y-84827474D01*
X114457011Y-84873229D01*
X114416731Y-84881991D01*
X114416919Y-84883655D01*
X114263382Y-84900954D01*
X114194560Y-84888899D01*
X114143181Y-84841550D01*
X114125499Y-84777734D01*
X114125499Y-84299998D01*
X114125498Y-84299981D01*
X114114999Y-84197203D01*
X114114998Y-84197200D01*
X114086535Y-84111305D01*
X114059814Y-84030666D01*
X114020235Y-83966499D01*
X114015976Y-83958476D01*
X114015862Y-83958538D01*
X114013758Y-83954642D01*
X114013756Y-83954637D01*
X113986313Y-83911482D01*
X113985504Y-83910189D01*
X113967712Y-83881344D01*
X113967711Y-83881343D01*
X113966994Y-83880180D01*
X113961418Y-83872332D01*
X113681321Y-83431864D01*
X113671396Y-83412777D01*
X113627587Y-83307012D01*
X113627586Y-83307011D01*
X113627584Y-83307005D01*
X113606055Y-83274785D01*
X113545454Y-83184088D01*
X113545453Y-83184086D01*
X113513962Y-83152595D01*
X113464228Y-83102861D01*
X113378416Y-83017048D01*
X113297651Y-82963084D01*
X113255495Y-82934916D01*
X113255494Y-82934915D01*
X113255492Y-82934914D01*
X113255490Y-82934913D01*
X113118917Y-82878343D01*
X113118907Y-82878340D01*
X112973920Y-82849500D01*
X112973918Y-82849500D01*
X111063364Y-82849500D01*
X111035591Y-82846349D01*
X111031252Y-82845352D01*
X110454598Y-82797297D01*
X110454593Y-82797296D01*
X110454561Y-82797294D01*
X110433986Y-82796002D01*
X110433072Y-82795964D01*
X110433066Y-82795964D01*
X110433061Y-82795964D01*
X110433059Y-82795964D01*
X110426609Y-82796161D01*
X110408931Y-82795441D01*
X110400000Y-82794435D01*
X110399999Y-82794435D01*
X110399998Y-82794435D01*
X110375075Y-82797242D01*
X110353811Y-82797800D01*
X110346580Y-82797369D01*
X110345392Y-82797298D01*
X110345391Y-82797298D01*
X110327355Y-82798801D01*
X110060297Y-82821055D01*
X110039703Y-82821055D01*
X109754566Y-82797294D01*
X109733986Y-82796002D01*
X109733072Y-82795964D01*
X109733066Y-82795964D01*
X109733061Y-82795964D01*
X109733059Y-82795964D01*
X109726609Y-82796161D01*
X109708931Y-82795441D01*
X109700000Y-82794435D01*
X109699999Y-82794435D01*
X109699998Y-82794435D01*
X109699997Y-82794435D01*
X109673945Y-82797369D01*
X109663892Y-82798089D01*
X109659364Y-82798228D01*
X109655257Y-82798801D01*
X109645426Y-82800583D01*
X109520749Y-82814630D01*
X109520742Y-82814632D01*
X109422748Y-82848921D01*
X109405987Y-82853496D01*
X109281092Y-82878340D01*
X109281084Y-82878342D01*
X109144511Y-82934912D01*
X109144498Y-82934919D01*
X109021584Y-83017048D01*
X109021580Y-83017051D01*
X108917051Y-83121580D01*
X108917048Y-83121584D01*
X108834919Y-83244498D01*
X108834912Y-83244511D01*
X108778343Y-83381082D01*
X108778340Y-83381092D01*
X108749500Y-83526079D01*
X108749500Y-83526082D01*
X108749500Y-83673918D01*
X108749500Y-83673920D01*
X108749499Y-83673920D01*
X108778340Y-83818907D01*
X108778343Y-83818917D01*
X108791220Y-83850004D01*
X108798689Y-83919473D01*
X108782198Y-83962551D01*
X108740186Y-84030666D01*
X108685001Y-84197203D01*
X108685001Y-84197204D01*
X108685000Y-84197204D01*
X108674500Y-84299983D01*
X108674500Y-85700001D01*
X108674501Y-85700018D01*
X108685000Y-85802796D01*
X108685001Y-85802799D01*
X108712736Y-85886496D01*
X108715138Y-85956324D01*
X108679406Y-86016366D01*
X108616886Y-86047559D01*
X108595030Y-86049500D01*
X108515072Y-86049500D01*
X108448033Y-86029815D01*
X108402278Y-85977011D01*
X108401125Y-85974410D01*
X108376223Y-85916395D01*
X108376223Y-85916394D01*
X108364110Y-85891634D01*
X108358455Y-85878098D01*
X108355790Y-85870480D01*
X108313262Y-85802797D01*
X108259816Y-85717738D01*
X108132262Y-85590184D01*
X108100431Y-85570183D01*
X107979523Y-85494211D01*
X107809254Y-85434631D01*
X107809250Y-85434630D01*
X107721338Y-85424725D01*
X107656924Y-85397658D01*
X107617369Y-85340063D01*
X107615232Y-85270226D01*
X107647539Y-85213827D01*
X108182951Y-84678416D01*
X108265084Y-84555495D01*
X108321658Y-84418913D01*
X108335267Y-84350500D01*
X108350500Y-84273920D01*
X108350500Y-84063362D01*
X108353651Y-84035586D01*
X108354648Y-84031251D01*
X108402701Y-83454608D01*
X108403983Y-83434281D01*
X108404023Y-83433348D01*
X108403821Y-83426734D01*
X108404544Y-83409058D01*
X108405565Y-83400002D01*
X108405565Y-83400000D01*
X108402757Y-83375082D01*
X108402198Y-83353802D01*
X108402701Y-83345391D01*
X108378943Y-83060295D01*
X108378943Y-83039701D01*
X108402701Y-82754608D01*
X108403983Y-82734281D01*
X108404023Y-82733348D01*
X108403821Y-82726734D01*
X108404544Y-82709058D01*
X108405565Y-82700000D01*
X108402625Y-82673917D01*
X108401906Y-82663834D01*
X108401770Y-82659359D01*
X108401769Y-82659355D01*
X108401769Y-82659349D01*
X108401199Y-82655263D01*
X108399416Y-82645432D01*
X108385368Y-82520745D01*
X108325789Y-82350478D01*
X108229816Y-82197738D01*
X108102262Y-82070184D01*
X107949523Y-81974211D01*
X107779254Y-81914631D01*
X107779249Y-81914630D01*
X107600004Y-81894435D01*
X107599996Y-81894435D01*
X107420750Y-81914630D01*
X107420745Y-81914631D01*
X107250476Y-81974211D01*
X107097737Y-82070184D01*
X106970184Y-82197737D01*
X106874211Y-82350476D01*
X106814631Y-82520745D01*
X106814630Y-82520750D01*
X106794548Y-82698995D01*
X106794435Y-82700000D01*
X106796448Y-82717869D01*
X106797242Y-82724918D01*
X106797801Y-82746181D01*
X106797298Y-82754607D01*
X106821055Y-83039702D01*
X106821055Y-83060296D01*
X106813364Y-83152595D01*
X106797298Y-83345390D01*
X106796828Y-83352836D01*
X106796015Y-83365720D01*
X106795975Y-83366658D01*
X106796177Y-83373301D01*
X106795456Y-83390928D01*
X106794435Y-83399998D01*
X106794435Y-83400003D01*
X106797241Y-83424909D01*
X106797801Y-83446172D01*
X106797298Y-83454604D01*
X106797298Y-83454609D01*
X106813472Y-83648695D01*
X106829962Y-83846582D01*
X106815912Y-83915024D01*
X106794071Y-83944560D01*
X105361693Y-85376937D01*
X105300370Y-85410422D01*
X105260129Y-85412476D01*
X105100004Y-85394435D01*
X105099996Y-85394435D01*
X104920751Y-85414630D01*
X104920744Y-85414632D01*
X104876787Y-85430012D01*
X104825539Y-85436541D01*
X104354564Y-85397294D01*
X104333986Y-85396002D01*
X104333072Y-85395964D01*
X104333066Y-85395964D01*
X104333061Y-85395964D01*
X104333059Y-85395964D01*
X104326609Y-85396161D01*
X104308931Y-85395441D01*
X104300000Y-85394435D01*
X104299999Y-85394435D01*
X104299998Y-85394435D01*
X104299997Y-85394435D01*
X104273945Y-85397369D01*
X104263892Y-85398089D01*
X104259364Y-85398228D01*
X104255257Y-85398801D01*
X104245426Y-85400583D01*
X104120750Y-85414630D01*
X103950478Y-85474210D01*
X103797739Y-85570183D01*
X103715583Y-85652339D01*
X103654259Y-85685823D01*
X103584568Y-85680839D01*
X103528634Y-85638967D01*
X103524799Y-85633547D01*
X103477137Y-85562215D01*
X103334686Y-85419764D01*
X103334655Y-85419735D01*
X102681479Y-84766559D01*
X102681459Y-84766537D01*
X102537785Y-84622863D01*
X102537781Y-84622860D01*
X102373920Y-84513371D01*
X102373907Y-84513364D01*
X102222661Y-84450717D01*
X102191837Y-84437949D01*
X102191829Y-84437947D01*
X102095188Y-84418724D01*
X101998544Y-84399500D01*
X101998541Y-84399500D01*
X99640585Y-84399500D01*
X99573546Y-84379815D01*
X99535623Y-84341522D01*
X99509494Y-84299983D01*
X99078404Y-83614637D01*
X98866893Y-83278378D01*
X98858310Y-83262187D01*
X98835924Y-83211151D01*
X98797668Y-83152596D01*
X98708983Y-83016852D01*
X98708980Y-83016849D01*
X98708979Y-83016847D01*
X98551784Y-82846087D01*
X98373773Y-82707536D01*
X98332961Y-82650826D01*
X98329286Y-82581053D01*
X98363917Y-82520370D01*
X98373772Y-82511831D01*
X98398797Y-82492352D01*
X98398798Y-82492350D01*
X97735942Y-81829494D01*
X97796081Y-81813381D01*
X97911920Y-81746502D01*
X98006502Y-81651920D01*
X98073381Y-81536081D01*
X98089495Y-81475942D01*
X98751186Y-82137633D01*
X98835482Y-82008611D01*
X98839260Y-81999997D01*
X100695034Y-81999997D01*
X100695034Y-82000002D01*
X100714858Y-82226599D01*
X100714860Y-82226610D01*
X100773730Y-82446317D01*
X100773735Y-82446331D01*
X100869863Y-82652478D01*
X100920974Y-82725472D01*
X101600000Y-82046446D01*
X101600000Y-82052661D01*
X101627259Y-82154394D01*
X101679920Y-82245606D01*
X101754394Y-82320080D01*
X101845606Y-82372741D01*
X101947339Y-82400000D01*
X101953553Y-82400000D01*
X101274526Y-83079025D01*
X101347513Y-83130132D01*
X101347521Y-83130136D01*
X101553668Y-83226264D01*
X101553682Y-83226269D01*
X101773389Y-83285139D01*
X101773400Y-83285141D01*
X101999998Y-83304966D01*
X102000002Y-83304966D01*
X102226599Y-83285141D01*
X102226610Y-83285139D01*
X102446317Y-83226269D01*
X102446331Y-83226264D01*
X102652478Y-83130136D01*
X102725471Y-83079024D01*
X102046447Y-82400000D01*
X102052661Y-82400000D01*
X102154394Y-82372741D01*
X102245606Y-82320080D01*
X102320080Y-82245606D01*
X102372741Y-82154394D01*
X102400000Y-82052661D01*
X102400000Y-82046447D01*
X103079024Y-82725471D01*
X103130136Y-82652478D01*
X103226264Y-82446331D01*
X103226269Y-82446317D01*
X103285139Y-82226610D01*
X103285141Y-82226599D01*
X103304966Y-82000002D01*
X103304966Y-81999997D01*
X103285141Y-81773400D01*
X103285139Y-81773389D01*
X103226269Y-81553682D01*
X103226264Y-81553668D01*
X103130136Y-81347521D01*
X103130132Y-81347513D01*
X103079025Y-81274526D01*
X102400000Y-81953551D01*
X102400000Y-81947339D01*
X102372741Y-81845606D01*
X102320080Y-81754394D01*
X102245606Y-81679920D01*
X102154394Y-81627259D01*
X102052661Y-81600000D01*
X102046448Y-81600000D01*
X102725472Y-80920974D01*
X102652478Y-80869863D01*
X102446331Y-80773735D01*
X102446317Y-80773730D01*
X102226610Y-80714860D01*
X102226599Y-80714858D01*
X102000002Y-80695034D01*
X101999998Y-80695034D01*
X101773400Y-80714858D01*
X101773389Y-80714860D01*
X101553682Y-80773730D01*
X101553673Y-80773734D01*
X101347516Y-80869866D01*
X101347512Y-80869868D01*
X101274526Y-80920973D01*
X101274526Y-80920974D01*
X101953553Y-81600000D01*
X101947339Y-81600000D01*
X101845606Y-81627259D01*
X101754394Y-81679920D01*
X101679920Y-81754394D01*
X101627259Y-81845606D01*
X101600000Y-81947339D01*
X101600000Y-81953552D01*
X100920974Y-81274526D01*
X100920973Y-81274526D01*
X100869868Y-81347512D01*
X100869866Y-81347516D01*
X100773734Y-81553673D01*
X100773730Y-81553682D01*
X100714860Y-81773389D01*
X100714858Y-81773400D01*
X100695034Y-81999997D01*
X98839260Y-81999997D01*
X98928682Y-81796135D01*
X98985638Y-81571218D01*
X99004798Y-81340005D01*
X99004798Y-81339994D01*
X98985638Y-81108781D01*
X98928682Y-80883864D01*
X98835484Y-80671393D01*
X98751186Y-80542365D01*
X98089494Y-81204057D01*
X98073381Y-81143919D01*
X98006502Y-81028080D01*
X97911920Y-80933498D01*
X97796081Y-80866619D01*
X97735941Y-80850504D01*
X98398797Y-80187647D01*
X98398797Y-80187646D01*
X98373773Y-80168169D01*
X98332961Y-80111459D01*
X98329286Y-80041686D01*
X98363918Y-79981003D01*
X98373760Y-79972473D01*
X98551784Y-79833913D01*
X98708979Y-79663153D01*
X98835924Y-79468849D01*
X98929157Y-79256300D01*
X98986134Y-79031305D01*
X98996247Y-78909262D01*
X99005300Y-78800006D01*
X99005300Y-78799993D01*
X98986135Y-78568702D01*
X98986133Y-78568691D01*
X98929157Y-78343699D01*
X98835924Y-78131151D01*
X98708983Y-77936852D01*
X98708980Y-77936849D01*
X98708979Y-77936847D01*
X98551784Y-77766087D01*
X98374180Y-77627853D01*
X98333368Y-77571143D01*
X98329693Y-77501370D01*
X98364324Y-77440687D01*
X98374181Y-77432146D01*
X98551784Y-77293913D01*
X98708979Y-77123153D01*
X98835924Y-76928849D01*
X98929157Y-76716300D01*
X98986134Y-76491305D01*
X98986135Y-76491297D01*
X99005300Y-76260006D01*
X99005300Y-76259993D01*
X98986135Y-76028702D01*
X98986133Y-76028691D01*
X98929157Y-75803699D01*
X98835924Y-75591151D01*
X98708983Y-75396852D01*
X98708980Y-75396849D01*
X98708979Y-75396847D01*
X98551784Y-75226087D01*
X98374180Y-75087853D01*
X98333368Y-75031143D01*
X98329693Y-74961370D01*
X98364324Y-74900687D01*
X98374181Y-74892146D01*
X98551784Y-74753913D01*
X98708979Y-74583153D01*
X98835924Y-74388849D01*
X98882406Y-74282880D01*
X98927362Y-74229395D01*
X98994098Y-74208705D01*
X99061426Y-74227380D01*
X99083643Y-74245010D01*
X100637049Y-75798416D01*
X100730895Y-75892262D01*
X100741585Y-75902952D01*
X100864498Y-75985080D01*
X100864511Y-75985087D01*
X100922168Y-76008969D01*
X100976572Y-76052809D01*
X100998637Y-76119103D01*
X100981358Y-76186803D01*
X100976294Y-76194649D01*
X100869432Y-76347266D01*
X100869432Y-76347267D01*
X100869430Y-76347270D01*
X100773261Y-76553502D01*
X100773258Y-76553511D01*
X100714366Y-76773302D01*
X100714364Y-76773313D01*
X100694532Y-76999998D01*
X100694532Y-77000001D01*
X100714364Y-77226686D01*
X100714366Y-77226697D01*
X100773258Y-77446488D01*
X100773261Y-77446497D01*
X100869431Y-77652732D01*
X100869432Y-77652734D01*
X100999954Y-77839141D01*
X101160858Y-78000045D01*
X101160861Y-78000047D01*
X101347266Y-78130568D01*
X101553504Y-78226739D01*
X101773308Y-78285635D01*
X101935230Y-78299801D01*
X101999998Y-78305468D01*
X102000000Y-78305468D01*
X102000002Y-78305468D01*
X102056673Y-78300509D01*
X102226692Y-78285635D01*
X102446496Y-78226739D01*
X102652734Y-78130568D01*
X102839139Y-78000047D01*
X103000047Y-77839139D01*
X103130568Y-77652734D01*
X103226739Y-77446496D01*
X103285635Y-77226692D01*
X103305468Y-77000000D01*
X103285635Y-76773308D01*
X103226739Y-76553504D01*
X103130568Y-76347266D01*
X103050143Y-76232407D01*
X103027817Y-76166202D01*
X103044827Y-76098435D01*
X103095776Y-76050622D01*
X103115734Y-76042621D01*
X103118897Y-76041661D01*
X103118913Y-76041658D01*
X103255495Y-75985084D01*
X103378416Y-75902951D01*
X103482951Y-75798416D01*
X103516442Y-75748291D01*
X103531855Y-75729511D01*
X104374548Y-74886819D01*
X104435871Y-74853334D01*
X104462229Y-74850500D01*
X105109220Y-74850500D01*
X105176259Y-74870185D01*
X105222014Y-74922989D01*
X105231958Y-74992147D01*
X105216624Y-75033912D01*
X105217231Y-75034205D01*
X105214225Y-75040446D01*
X105214218Y-75040466D01*
X105214211Y-75040476D01*
X105154631Y-75210745D01*
X105154630Y-75210750D01*
X105134435Y-75389996D01*
X105134435Y-75390003D01*
X105154630Y-75569249D01*
X105154631Y-75569254D01*
X105214211Y-75739523D01*
X105310184Y-75892262D01*
X105437738Y-76019816D01*
X105490246Y-76052809D01*
X105561969Y-76097876D01*
X105590478Y-76115789D01*
X105731767Y-76165228D01*
X105760745Y-76175368D01*
X105760750Y-76175369D01*
X105939997Y-76195565D01*
X105939999Y-76195565D01*
X105939999Y-76195564D01*
X105940000Y-76195565D01*
X105964919Y-76192756D01*
X105986193Y-76192198D01*
X105994608Y-76192701D01*
X106458719Y-76154025D01*
X106483687Y-76155797D01*
X106483824Y-76154589D01*
X106669996Y-76175565D01*
X106670000Y-76175565D01*
X106670004Y-76175565D01*
X106849246Y-76155369D01*
X106849245Y-76155369D01*
X106849255Y-76155368D01*
X106871857Y-76147458D01*
X106912812Y-76140500D01*
X112785390Y-76140500D01*
X112852429Y-76160185D01*
X112859358Y-76165228D01*
X113026079Y-76276628D01*
X113026092Y-76276635D01*
X113208160Y-76352049D01*
X113208165Y-76352051D01*
X113208169Y-76352051D01*
X113208170Y-76352052D01*
X113401456Y-76390500D01*
X113401459Y-76390500D01*
X119008542Y-76390500D01*
X119027870Y-76386655D01*
X119105188Y-76371275D01*
X119201836Y-76352051D01*
X119255165Y-76329961D01*
X119383914Y-76276632D01*
X119547782Y-76167139D01*
X119687139Y-76027782D01*
X119687140Y-76027779D01*
X119694206Y-76020714D01*
X119694209Y-76020710D01*
X120137778Y-75577141D01*
X120137782Y-75577139D01*
X120277139Y-75437782D01*
X120386632Y-75273914D01*
X120386635Y-75273907D01*
X120459426Y-75098173D01*
X120459427Y-75098169D01*
X120459429Y-75098165D01*
X120462051Y-75091836D01*
X120493154Y-74935470D01*
X120500500Y-74898541D01*
X120500500Y-74024500D01*
X120520185Y-73957461D01*
X120572989Y-73911706D01*
X120624500Y-73900500D01*
X121875500Y-73900500D01*
X121942539Y-73920185D01*
G37*
%TD.AperFunction*%
%TA.AperFunction,Conductor*%
G36*
X124750000Y-79797774D02*
G01*
X124777259Y-79899507D01*
X124829920Y-79990719D01*
X124904394Y-80065193D01*
X124995606Y-80117854D01*
X125097339Y-80145113D01*
X125103553Y-80145113D01*
X124419352Y-80829312D01*
X124409506Y-80878307D01*
X124360890Y-80928490D01*
X124305367Y-80943162D01*
X124305423Y-80944212D01*
X124305429Y-80944259D01*
X124305426Y-80944259D01*
X124305436Y-80944437D01*
X124302123Y-80944614D01*
X124242514Y-80951022D01*
X124167832Y-80978876D01*
X124098140Y-80983860D01*
X124036817Y-80950374D01*
X124003333Y-80889050D01*
X124000500Y-80862694D01*
X124000500Y-80592422D01*
X124020185Y-80525383D01*
X124036819Y-80504741D01*
X124750000Y-79791560D01*
X124750000Y-79797774D01*
G37*
%TD.AperFunction*%
%TA.AperFunction,Conductor*%
G36*
X99092668Y-70568024D02*
G01*
X99133979Y-70595347D01*
X101320060Y-72781428D01*
X101353545Y-72842751D01*
X101348561Y-72912443D01*
X101306689Y-72968376D01*
X101303503Y-72970684D01*
X101274526Y-72990973D01*
X101274526Y-72990974D01*
X101953552Y-73670000D01*
X101947339Y-73670000D01*
X101845606Y-73697259D01*
X101754394Y-73749920D01*
X101679920Y-73824394D01*
X101627259Y-73915606D01*
X101600000Y-74017339D01*
X101600000Y-74023552D01*
X100920974Y-73344526D01*
X100920973Y-73344526D01*
X100869868Y-73417512D01*
X100869866Y-73417517D01*
X100788567Y-73591861D01*
X100742394Y-73644300D01*
X100675201Y-73663452D01*
X100608319Y-73643236D01*
X100588504Y-73627137D01*
X100363845Y-73402478D01*
X99229166Y-72267798D01*
X99195681Y-72206475D01*
X99194755Y-72201787D01*
X99180746Y-72122860D01*
X98999433Y-71101307D01*
X98999421Y-71101246D01*
X98999330Y-71100730D01*
X98999359Y-71100724D01*
X98997736Y-71088727D01*
X98986134Y-70948695D01*
X98929157Y-70723700D01*
X98929155Y-70723696D01*
X98929018Y-70723296D01*
X98929010Y-70723119D01*
X98927898Y-70718728D01*
X98928801Y-70718499D01*
X98925866Y-70653497D01*
X98960950Y-70593074D01*
X99023131Y-70561211D01*
X99092668Y-70568024D01*
G37*
%TD.AperFunction*%
%TA.AperFunction,Conductor*%
G36*
X105193429Y-54120185D02*
G01*
X105239184Y-54172989D01*
X105249748Y-54237103D01*
X105240000Y-54332513D01*
X105240000Y-55732500D01*
X107589999Y-55732500D01*
X107589999Y-54332528D01*
X107589998Y-54332510D01*
X107580252Y-54237101D01*
X107593022Y-54168408D01*
X107640903Y-54117524D01*
X107703610Y-54100500D01*
X110776390Y-54100500D01*
X110843429Y-54120185D01*
X110889184Y-54172989D01*
X110899748Y-54237103D01*
X110890000Y-54332513D01*
X110890000Y-55732500D01*
X113239999Y-55732500D01*
X113239999Y-54332528D01*
X113239998Y-54332510D01*
X113230252Y-54237101D01*
X113243022Y-54168408D01*
X113290903Y-54117524D01*
X113353610Y-54100500D01*
X129891683Y-54100500D01*
X129958722Y-54120185D01*
X130004477Y-54172989D01*
X130014421Y-54242147D01*
X129985396Y-54305703D01*
X129959219Y-54328495D01*
X129922202Y-54352534D01*
X129664648Y-54561095D01*
X129664648Y-54561096D01*
X131159301Y-56055748D01*
X131057670Y-56129588D01*
X130879588Y-56307670D01*
X130805748Y-56409300D01*
X129311096Y-54914648D01*
X129311095Y-54914648D01*
X129102531Y-55172206D01*
X128891310Y-55497456D01*
X128715244Y-55843005D01*
X128576262Y-56205063D01*
X128475887Y-56579669D01*
X128475886Y-56579676D01*
X128415219Y-56962712D01*
X128394922Y-57349999D01*
X128394922Y-57350000D01*
X128415219Y-57737287D01*
X128475886Y-58120323D01*
X128475887Y-58120330D01*
X128576262Y-58494936D01*
X128715244Y-58856994D01*
X128891310Y-59202543D01*
X129102531Y-59527793D01*
X129311095Y-59785350D01*
X129311096Y-59785350D01*
X130805748Y-58290698D01*
X130879588Y-58392330D01*
X131057670Y-58570412D01*
X131159300Y-58644251D01*
X129664648Y-60138903D01*
X129664649Y-60138904D01*
X129922206Y-60347468D01*
X130247456Y-60558689D01*
X130593005Y-60734755D01*
X130955063Y-60873737D01*
X131329669Y-60974112D01*
X131329676Y-60974113D01*
X131712712Y-61034780D01*
X132099999Y-61055078D01*
X132100001Y-61055078D01*
X132487287Y-61034780D01*
X132870323Y-60974113D01*
X132870330Y-60974112D01*
X133244936Y-60873737D01*
X133606994Y-60734755D01*
X133952543Y-60558689D01*
X134277783Y-60347476D01*
X134277785Y-60347475D01*
X134535349Y-60138902D01*
X133040698Y-58644251D01*
X133142330Y-58570412D01*
X133320412Y-58392330D01*
X133394251Y-58290698D01*
X134888902Y-59785349D01*
X135097475Y-59527785D01*
X135097476Y-59527783D01*
X135171505Y-59413789D01*
X135224526Y-59368286D01*
X135293731Y-59358672D01*
X135357148Y-59387999D01*
X135394642Y-59446956D01*
X135399500Y-59481324D01*
X135399500Y-92794853D01*
X135379815Y-92861892D01*
X135327011Y-92907647D01*
X135257853Y-92917591D01*
X135194297Y-92888566D01*
X135165017Y-92851150D01*
X135161641Y-92844526D01*
X135161635Y-92844514D01*
X134950412Y-92519262D01*
X134741848Y-92261705D01*
X134741847Y-92261704D01*
X133247195Y-93756356D01*
X133173356Y-93654726D01*
X132995274Y-93476644D01*
X132893642Y-93402804D01*
X134388294Y-91908152D01*
X134388294Y-91908151D01*
X134130737Y-91699587D01*
X133805487Y-91488366D01*
X133459938Y-91312300D01*
X133097880Y-91173318D01*
X132723274Y-91072943D01*
X132723267Y-91072942D01*
X132340231Y-91012275D01*
X131952945Y-90991978D01*
X131952943Y-90991978D01*
X131565656Y-91012275D01*
X131182620Y-91072942D01*
X131182613Y-91072943D01*
X130808007Y-91173318D01*
X130445949Y-91312300D01*
X130100400Y-91488366D01*
X129775150Y-91699587D01*
X129517592Y-91908151D01*
X129517592Y-91908152D01*
X131012245Y-93402804D01*
X130910614Y-93476644D01*
X130732532Y-93654726D01*
X130658692Y-93756356D01*
X129164040Y-92261704D01*
X129164039Y-92261704D01*
X128955475Y-92519262D01*
X128744254Y-92844512D01*
X128568188Y-93190061D01*
X128429206Y-93552119D01*
X128328831Y-93926725D01*
X128328830Y-93926732D01*
X128268163Y-94309768D01*
X128247866Y-94697055D01*
X128247866Y-94697056D01*
X128268163Y-95084343D01*
X128328830Y-95467379D01*
X128328831Y-95467386D01*
X128429206Y-95841992D01*
X128568188Y-96204050D01*
X128744254Y-96549599D01*
X128955475Y-96874849D01*
X129164039Y-97132406D01*
X129164040Y-97132406D01*
X130658692Y-95637754D01*
X130732532Y-95739386D01*
X130910614Y-95917468D01*
X131012244Y-95991307D01*
X129517592Y-97485959D01*
X129517593Y-97485960D01*
X129775150Y-97694524D01*
X130047675Y-97871505D01*
X130093178Y-97924526D01*
X130102792Y-97993731D01*
X130073465Y-98057148D01*
X130014508Y-98094642D01*
X129980140Y-98099500D01*
X96825749Y-98099500D01*
X96758710Y-98079815D01*
X96712955Y-98027011D01*
X96703011Y-97957853D01*
X96732036Y-97894297D01*
X96758214Y-97871505D01*
X97030727Y-97694532D01*
X97030729Y-97694531D01*
X97288293Y-97485958D01*
X95793642Y-95991307D01*
X95895274Y-95917468D01*
X96073356Y-95739386D01*
X96147195Y-95637754D01*
X97641846Y-97132405D01*
X97850419Y-96874841D01*
X97850420Y-96874839D01*
X98061633Y-96549599D01*
X98237699Y-96204050D01*
X98376681Y-95841992D01*
X98477056Y-95467386D01*
X98477057Y-95467379D01*
X98537724Y-95084343D01*
X98558022Y-94697056D01*
X98558022Y-94697055D01*
X98537724Y-94309768D01*
X98477057Y-93926732D01*
X98477056Y-93926725D01*
X98376681Y-93552119D01*
X98237699Y-93190061D01*
X98061633Y-92844512D01*
X97850412Y-92519262D01*
X97641848Y-92261705D01*
X97641847Y-92261704D01*
X96147195Y-93756356D01*
X96073356Y-93654726D01*
X95895274Y-93476644D01*
X95793642Y-93402804D01*
X97288294Y-91908152D01*
X97288294Y-91908151D01*
X97030737Y-91699587D01*
X96705487Y-91488366D01*
X96359938Y-91312300D01*
X95997880Y-91173318D01*
X95623274Y-91072943D01*
X95623267Y-91072942D01*
X95240231Y-91012275D01*
X94852945Y-90991978D01*
X94852943Y-90991978D01*
X94465656Y-91012275D01*
X94082620Y-91072942D01*
X94082613Y-91072943D01*
X93708007Y-91173318D01*
X93345949Y-91312300D01*
X93000400Y-91488366D01*
X92675150Y-91699587D01*
X92417592Y-91908151D01*
X92417592Y-91908152D01*
X93912245Y-93402804D01*
X93810614Y-93476644D01*
X93632532Y-93654726D01*
X93558692Y-93756356D01*
X92064040Y-92261704D01*
X92064039Y-92261704D01*
X91855475Y-92519262D01*
X91644252Y-92844514D01*
X91644250Y-92844518D01*
X91634984Y-92862705D01*
X91587010Y-92913500D01*
X91519189Y-92930295D01*
X91453054Y-92907757D01*
X91409603Y-92853042D01*
X91400500Y-92806409D01*
X91400500Y-78814999D01*
X91844341Y-78814999D01*
X91844341Y-78815000D01*
X91864936Y-79050403D01*
X91864938Y-79050413D01*
X91926094Y-79278655D01*
X91926096Y-79278659D01*
X91926097Y-79278663D01*
X92025965Y-79492830D01*
X92025967Y-79492834D01*
X92133271Y-79646079D01*
X92161505Y-79686401D01*
X92328599Y-79853495D01*
X92504225Y-79976470D01*
X92514594Y-79983730D01*
X92558219Y-80038307D01*
X92565413Y-80107805D01*
X92533890Y-80170160D01*
X92514595Y-80186880D01*
X92328922Y-80316890D01*
X92328920Y-80316891D01*
X92161891Y-80483920D01*
X92161886Y-80483926D01*
X92026400Y-80677420D01*
X92026399Y-80677422D01*
X91926570Y-80891507D01*
X91926567Y-80891513D01*
X91869364Y-81104999D01*
X91869364Y-81105000D01*
X92766988Y-81105000D01*
X92734075Y-81162007D01*
X92700000Y-81289174D01*
X92700000Y-81420826D01*
X92734075Y-81547993D01*
X92766988Y-81605000D01*
X91869364Y-81605000D01*
X91926567Y-81818486D01*
X91926570Y-81818492D01*
X92026399Y-82032578D01*
X92161894Y-82226082D01*
X92328917Y-82393105D01*
X92522421Y-82528600D01*
X92736507Y-82628429D01*
X92736516Y-82628433D01*
X92950000Y-82685634D01*
X92950000Y-81788012D01*
X93007007Y-81820925D01*
X93134174Y-81855000D01*
X93265826Y-81855000D01*
X93392993Y-81820925D01*
X93450000Y-81788012D01*
X93450000Y-82685633D01*
X93663483Y-82628433D01*
X93663492Y-82628429D01*
X93877578Y-82528600D01*
X94071082Y-82393105D01*
X94238105Y-82226082D01*
X94373600Y-82032578D01*
X94473429Y-81818492D01*
X94473432Y-81818486D01*
X94530636Y-81605000D01*
X93633012Y-81605000D01*
X93665925Y-81547993D01*
X93700000Y-81420826D01*
X93700000Y-81289174D01*
X93665925Y-81162007D01*
X93633012Y-81105000D01*
X94530636Y-81105000D01*
X94530635Y-81104999D01*
X94473432Y-80891513D01*
X94473429Y-80891507D01*
X94373600Y-80677422D01*
X94373599Y-80677420D01*
X94238113Y-80483926D01*
X94238108Y-80483920D01*
X94071078Y-80316890D01*
X93885405Y-80186879D01*
X93841780Y-80132302D01*
X93834588Y-80062804D01*
X93866110Y-80000449D01*
X93885406Y-79983730D01*
X93889301Y-79981003D01*
X94071401Y-79853495D01*
X94238495Y-79686401D01*
X94374035Y-79492830D01*
X94473903Y-79278663D01*
X94535063Y-79050408D01*
X94555659Y-78815000D01*
X94535063Y-78579592D01*
X94473903Y-78351337D01*
X94374035Y-78137171D01*
X94368356Y-78129061D01*
X94238496Y-77943600D01*
X94215641Y-77920745D01*
X94116567Y-77821671D01*
X94083084Y-77760351D01*
X94088068Y-77690659D01*
X94129939Y-77634725D01*
X94160915Y-77617810D01*
X94292331Y-77568796D01*
X94407546Y-77482546D01*
X94493796Y-77367331D01*
X94544091Y-77232483D01*
X94550500Y-77172873D01*
X94550499Y-75377128D01*
X94544091Y-75317517D01*
X94527830Y-75273920D01*
X94493797Y-75182671D01*
X94493793Y-75182664D01*
X94407547Y-75067455D01*
X94407544Y-75067452D01*
X94292335Y-74981206D01*
X94292328Y-74981202D01*
X94157482Y-74930908D01*
X94157483Y-74930908D01*
X94097883Y-74924501D01*
X94097881Y-74924500D01*
X94097873Y-74924500D01*
X94097864Y-74924500D01*
X92302129Y-74924500D01*
X92302123Y-74924501D01*
X92242516Y-74930908D01*
X92107671Y-74981202D01*
X92107664Y-74981206D01*
X91992455Y-75067452D01*
X91992452Y-75067455D01*
X91906206Y-75182664D01*
X91906202Y-75182671D01*
X91855908Y-75317517D01*
X91849501Y-75377116D01*
X91849501Y-75377123D01*
X91849500Y-75377135D01*
X91849500Y-77172870D01*
X91849501Y-77172876D01*
X91855908Y-77232483D01*
X91906202Y-77367328D01*
X91906206Y-77367335D01*
X91992452Y-77482544D01*
X91992455Y-77482547D01*
X92107664Y-77568793D01*
X92107671Y-77568797D01*
X92239081Y-77617810D01*
X92295015Y-77659681D01*
X92319432Y-77725145D01*
X92304580Y-77793418D01*
X92283430Y-77821673D01*
X92161503Y-77943600D01*
X92025965Y-78137169D01*
X92025964Y-78137171D01*
X91926098Y-78351335D01*
X91926094Y-78351344D01*
X91864938Y-78579586D01*
X91864936Y-78579596D01*
X91844341Y-78814999D01*
X91400500Y-78814999D01*
X91400500Y-74496011D01*
X91420185Y-74428972D01*
X91472989Y-74383217D01*
X91542147Y-74373273D01*
X91563505Y-74378305D01*
X91597305Y-74389505D01*
X91597309Y-74389506D01*
X91700019Y-74399999D01*
X93099999Y-74399999D01*
X93600000Y-74399999D01*
X94999972Y-74399999D01*
X94999986Y-74399998D01*
X95102697Y-74389505D01*
X95269119Y-74334358D01*
X95269124Y-74334356D01*
X95418345Y-74242315D01*
X95542315Y-74118345D01*
X95634356Y-73969124D01*
X95634358Y-73969119D01*
X95689505Y-73802697D01*
X95689506Y-73802690D01*
X95699999Y-73699986D01*
X95700000Y-73699973D01*
X95700000Y-73475000D01*
X93600000Y-73475000D01*
X93600000Y-74399999D01*
X93099999Y-74399999D01*
X93100000Y-74399998D01*
X93100000Y-72975000D01*
X93600000Y-72975000D01*
X95699999Y-72975000D01*
X95699999Y-72750028D01*
X95699998Y-72750013D01*
X95689505Y-72647302D01*
X95634358Y-72480880D01*
X95634356Y-72480875D01*
X95542315Y-72331654D01*
X95418345Y-72207684D01*
X95269124Y-72115643D01*
X95269119Y-72115641D01*
X95102697Y-72060494D01*
X95102690Y-72060493D01*
X94999986Y-72050000D01*
X93600000Y-72050000D01*
X93600000Y-72975000D01*
X93100000Y-72975000D01*
X93100000Y-72050000D01*
X91700028Y-72050000D01*
X91700012Y-72050001D01*
X91597302Y-72060494D01*
X91563504Y-72071694D01*
X91493676Y-72074096D01*
X91433634Y-72038364D01*
X91402441Y-71975844D01*
X91400500Y-71953988D01*
X91400500Y-68846011D01*
X91420185Y-68778972D01*
X91472989Y-68733217D01*
X91542147Y-68723273D01*
X91563505Y-68728305D01*
X91597305Y-68739505D01*
X91597309Y-68739506D01*
X91700019Y-68749999D01*
X93099999Y-68749999D01*
X93600000Y-68749999D01*
X94999972Y-68749999D01*
X94999986Y-68749998D01*
X95102697Y-68739505D01*
X95269119Y-68684358D01*
X95269124Y-68684356D01*
X95341047Y-68639993D01*
X96194700Y-68639993D01*
X96194700Y-68640006D01*
X96213864Y-68871297D01*
X96213866Y-68871308D01*
X96270842Y-69096300D01*
X96364075Y-69308848D01*
X96491016Y-69503147D01*
X96491019Y-69503151D01*
X96491021Y-69503153D01*
X96648216Y-69673913D01*
X96648219Y-69673915D01*
X96648222Y-69673918D01*
X96825818Y-69812147D01*
X96866631Y-69868857D01*
X96870306Y-69938630D01*
X96835674Y-69999313D01*
X96825818Y-70007853D01*
X96648222Y-70146081D01*
X96648219Y-70146084D01*
X96491016Y-70316852D01*
X96364075Y-70511151D01*
X96270842Y-70723699D01*
X96213866Y-70948691D01*
X96213864Y-70948702D01*
X96194700Y-71179993D01*
X96194700Y-71180006D01*
X96213864Y-71411297D01*
X96213866Y-71411308D01*
X96270842Y-71636300D01*
X96364075Y-71848848D01*
X96491016Y-72043147D01*
X96491019Y-72043151D01*
X96491021Y-72043153D01*
X96648216Y-72213913D01*
X96648219Y-72213915D01*
X96648222Y-72213918D01*
X96825818Y-72352147D01*
X96866631Y-72408857D01*
X96870306Y-72478630D01*
X96835674Y-72539313D01*
X96825818Y-72547853D01*
X96648222Y-72686081D01*
X96648219Y-72686084D01*
X96491016Y-72856852D01*
X96364075Y-73051151D01*
X96270842Y-73263699D01*
X96213866Y-73488691D01*
X96213864Y-73488702D01*
X96194700Y-73719993D01*
X96194700Y-73720006D01*
X96213864Y-73951297D01*
X96213866Y-73951308D01*
X96270842Y-74176300D01*
X96364075Y-74388848D01*
X96491016Y-74583147D01*
X96491019Y-74583151D01*
X96491021Y-74583153D01*
X96648216Y-74753913D01*
X96648219Y-74753915D01*
X96648222Y-74753918D01*
X96825818Y-74892147D01*
X96866631Y-74948857D01*
X96870306Y-75018630D01*
X96835674Y-75079313D01*
X96825818Y-75087853D01*
X96648222Y-75226081D01*
X96648219Y-75226084D01*
X96491016Y-75396852D01*
X96364075Y-75591151D01*
X96270842Y-75803699D01*
X96213866Y-76028691D01*
X96213864Y-76028702D01*
X96194700Y-76259993D01*
X96194700Y-76260006D01*
X96213864Y-76491297D01*
X96213866Y-76491308D01*
X96270842Y-76716300D01*
X96364075Y-76928848D01*
X96491016Y-77123147D01*
X96491019Y-77123151D01*
X96491021Y-77123153D01*
X96648216Y-77293913D01*
X96648219Y-77293915D01*
X96648222Y-77293918D01*
X96825818Y-77432147D01*
X96866631Y-77488857D01*
X96870306Y-77558630D01*
X96835674Y-77619313D01*
X96825818Y-77627853D01*
X96648222Y-77766081D01*
X96648219Y-77766084D01*
X96491016Y-77936852D01*
X96364075Y-78131151D01*
X96270842Y-78343699D01*
X96213866Y-78568691D01*
X96213864Y-78568702D01*
X96194700Y-78799993D01*
X96194700Y-78800006D01*
X96213864Y-79031297D01*
X96213866Y-79031308D01*
X96270842Y-79256300D01*
X96364075Y-79468848D01*
X96491016Y-79663147D01*
X96491019Y-79663151D01*
X96491021Y-79663153D01*
X96648216Y-79833913D01*
X96826225Y-79972462D01*
X96867038Y-80029173D01*
X96870713Y-80098946D01*
X96836082Y-80159629D01*
X96826225Y-80168170D01*
X96801201Y-80187646D01*
X96801200Y-80187647D01*
X97464058Y-80850504D01*
X97403919Y-80866619D01*
X97288080Y-80933498D01*
X97193498Y-81028080D01*
X97126619Y-81143919D01*
X97110504Y-81204058D01*
X96448811Y-80542365D01*
X96364516Y-80671390D01*
X96271317Y-80883864D01*
X96214361Y-81108781D01*
X96195202Y-81339994D01*
X96195202Y-81340005D01*
X96214361Y-81571218D01*
X96271317Y-81796135D01*
X96364515Y-82008606D01*
X96448812Y-82137633D01*
X97110504Y-81475941D01*
X97126619Y-81536081D01*
X97193498Y-81651920D01*
X97288080Y-81746502D01*
X97403919Y-81813381D01*
X97464057Y-81829495D01*
X96801201Y-82492351D01*
X96826226Y-82511829D01*
X96867038Y-82568539D01*
X96870713Y-82638312D01*
X96836081Y-82698995D01*
X96826226Y-82707535D01*
X96648218Y-82846085D01*
X96491016Y-83016852D01*
X96364075Y-83211151D01*
X96270842Y-83423699D01*
X96213866Y-83648691D01*
X96213864Y-83648702D01*
X96194700Y-83879993D01*
X96194700Y-83880006D01*
X96213864Y-84111297D01*
X96213866Y-84111308D01*
X96270842Y-84336300D01*
X96364075Y-84548848D01*
X96491016Y-84743147D01*
X96491019Y-84743151D01*
X96491021Y-84743153D01*
X96648216Y-84913913D01*
X96648219Y-84913915D01*
X96648222Y-84913918D01*
X96831365Y-85056464D01*
X96831372Y-85056468D01*
X96831374Y-85056470D01*
X96891380Y-85088943D01*
X96994293Y-85144637D01*
X97001299Y-85148730D01*
X97125935Y-85227128D01*
X97125934Y-85227128D01*
X98041131Y-85802797D01*
X98174195Y-85886496D01*
X98209241Y-85908540D01*
X98230900Y-85925821D01*
X98482215Y-86177137D01*
X98482219Y-86177140D01*
X98646079Y-86286628D01*
X98646085Y-86286631D01*
X98646086Y-86286632D01*
X98828165Y-86362052D01*
X99015171Y-86399250D01*
X99021455Y-86400500D01*
X99021458Y-86400501D01*
X99021460Y-86400501D01*
X99224655Y-86400501D01*
X99224675Y-86400500D01*
X101434218Y-86400500D01*
X101501257Y-86420185D01*
X101521899Y-86436819D01*
X101663181Y-86578101D01*
X101696666Y-86639424D01*
X101699500Y-86665782D01*
X101699500Y-88467581D01*
X101679815Y-88534620D01*
X101627011Y-88580375D01*
X101557853Y-88590319D01*
X101532168Y-88583763D01*
X101457485Y-88555909D01*
X101457483Y-88555908D01*
X101397883Y-88549501D01*
X101397881Y-88549500D01*
X101397873Y-88549500D01*
X101397864Y-88549500D01*
X99602129Y-88549500D01*
X99602123Y-88549501D01*
X99542516Y-88555908D01*
X99407671Y-88606202D01*
X99407664Y-88606206D01*
X99292455Y-88692452D01*
X99292452Y-88692455D01*
X99206206Y-88807664D01*
X99206202Y-88807671D01*
X99155908Y-88942517D01*
X99149501Y-89002116D01*
X99149500Y-89002135D01*
X99149500Y-90797870D01*
X99149501Y-90797876D01*
X99155908Y-90857483D01*
X99206202Y-90992328D01*
X99206206Y-90992335D01*
X99292452Y-91107544D01*
X99292455Y-91107547D01*
X99407664Y-91193793D01*
X99407671Y-91193797D01*
X99469902Y-91217007D01*
X99539598Y-91243002D01*
X99595531Y-91284873D01*
X99619949Y-91350337D01*
X99605098Y-91418610D01*
X99583947Y-91446865D01*
X99461886Y-91568926D01*
X99326400Y-91762420D01*
X99326399Y-91762422D01*
X99226570Y-91976507D01*
X99226567Y-91976513D01*
X99169364Y-92189999D01*
X99169364Y-92190000D01*
X100066988Y-92190000D01*
X100034075Y-92247007D01*
X100000000Y-92374174D01*
X100000000Y-92505826D01*
X100034075Y-92632993D01*
X100066988Y-92690000D01*
X99169364Y-92690000D01*
X99226567Y-92903486D01*
X99226570Y-92903492D01*
X99326399Y-93117578D01*
X99461894Y-93311082D01*
X99628917Y-93478105D01*
X99814595Y-93608119D01*
X99858219Y-93662696D01*
X99865412Y-93732195D01*
X99833890Y-93794549D01*
X99814595Y-93811269D01*
X99628594Y-93941508D01*
X99461505Y-94108597D01*
X99325965Y-94302169D01*
X99325964Y-94302171D01*
X99226098Y-94516335D01*
X99226094Y-94516344D01*
X99164938Y-94744586D01*
X99164936Y-94744596D01*
X99144341Y-94979999D01*
X99144341Y-94980000D01*
X99164936Y-95215403D01*
X99164938Y-95215413D01*
X99226094Y-95443655D01*
X99226096Y-95443659D01*
X99226097Y-95443663D01*
X99304663Y-95612147D01*
X99325965Y-95657830D01*
X99325967Y-95657834D01*
X99434281Y-95812521D01*
X99461505Y-95851401D01*
X99628599Y-96018495D01*
X99655811Y-96037549D01*
X99822165Y-96154032D01*
X99822167Y-96154033D01*
X99822170Y-96154035D01*
X100036337Y-96253903D01*
X100036343Y-96253904D01*
X100036344Y-96253905D01*
X100091285Y-96268626D01*
X100264592Y-96315063D01*
X100452918Y-96331539D01*
X100499999Y-96335659D01*
X100500000Y-96335659D01*
X100500001Y-96335659D01*
X100539234Y-96332226D01*
X100735408Y-96315063D01*
X100963663Y-96253903D01*
X101177830Y-96154035D01*
X101371401Y-96018495D01*
X101538495Y-95851401D01*
X101674035Y-95657830D01*
X101773903Y-95443663D01*
X101773904Y-95443660D01*
X101775333Y-95439734D01*
X101816757Y-95383468D01*
X101882024Y-95358530D01*
X101950414Y-95372838D01*
X101979537Y-95394459D01*
X102066537Y-95481459D01*
X102066559Y-95481479D01*
X102719735Y-96134655D01*
X102719764Y-96134686D01*
X102862214Y-96277136D01*
X102862218Y-96277139D01*
X103026079Y-96386628D01*
X103026092Y-96386635D01*
X103154833Y-96439961D01*
X103197744Y-96457735D01*
X103208164Y-96462051D01*
X103304812Y-96481275D01*
X103353135Y-96490887D01*
X103401458Y-96500500D01*
X103401459Y-96500500D01*
X120903430Y-96500500D01*
X120922758Y-96496655D01*
X121000076Y-96481275D01*
X121096724Y-96462051D01*
X121150053Y-96439961D01*
X121278802Y-96386632D01*
X121391899Y-96311062D01*
X121458577Y-96290185D01*
X121525957Y-96308670D01*
X121572647Y-96360648D01*
X121580565Y-96382071D01*
X121593731Y-96431207D01*
X121593735Y-96431219D01*
X121689863Y-96637366D01*
X121740974Y-96710360D01*
X122420000Y-96031334D01*
X122420000Y-96037549D01*
X122447259Y-96139282D01*
X122499920Y-96230494D01*
X122574394Y-96304968D01*
X122665606Y-96357629D01*
X122767339Y-96384888D01*
X122773553Y-96384888D01*
X122094526Y-97063913D01*
X122167513Y-97115020D01*
X122167521Y-97115024D01*
X122373668Y-97211152D01*
X122373682Y-97211157D01*
X122593389Y-97270027D01*
X122593400Y-97270029D01*
X122819998Y-97289854D01*
X122820002Y-97289854D01*
X123046599Y-97270029D01*
X123046610Y-97270027D01*
X123266317Y-97211157D01*
X123266331Y-97211152D01*
X123472478Y-97115024D01*
X123545471Y-97063912D01*
X122866447Y-96384888D01*
X122872661Y-96384888D01*
X122974394Y-96357629D01*
X123065606Y-96304968D01*
X123140080Y-96230494D01*
X123192741Y-96139282D01*
X123220000Y-96037549D01*
X123220000Y-96031335D01*
X123899024Y-96710359D01*
X123950136Y-96637366D01*
X124046264Y-96431219D01*
X124046269Y-96431205D01*
X124105139Y-96211498D01*
X124105141Y-96211487D01*
X124124966Y-95984890D01*
X124124966Y-95984885D01*
X124105141Y-95758288D01*
X124105139Y-95758277D01*
X124046269Y-95538570D01*
X124046264Y-95538556D01*
X123950136Y-95332409D01*
X123950132Y-95332401D01*
X123899025Y-95259414D01*
X123220000Y-95938439D01*
X123220000Y-95932227D01*
X123192741Y-95830494D01*
X123140080Y-95739282D01*
X123065606Y-95664808D01*
X122974394Y-95612147D01*
X122872661Y-95584888D01*
X122866446Y-95584888D01*
X123550645Y-94900689D01*
X123560492Y-94851695D01*
X123609107Y-94801512D01*
X123664633Y-94786869D01*
X123664576Y-94785788D01*
X123664571Y-94785742D01*
X123664573Y-94785741D01*
X123664564Y-94785564D01*
X123667857Y-94785387D01*
X123667872Y-94785387D01*
X123727483Y-94778979D01*
X123862331Y-94728684D01*
X123977546Y-94642434D01*
X124063796Y-94527219D01*
X124114091Y-94392371D01*
X124120500Y-94332761D01*
X124120499Y-92637016D01*
X124114091Y-92577405D01*
X124109837Y-92566000D01*
X124063797Y-92442559D01*
X124063793Y-92442552D01*
X123977547Y-92327343D01*
X123977544Y-92327340D01*
X123862335Y-92241094D01*
X123862328Y-92241090D01*
X123727482Y-92190796D01*
X123727483Y-92190796D01*
X123667883Y-92184389D01*
X123667881Y-92184388D01*
X123667873Y-92184388D01*
X123667864Y-92184388D01*
X121972129Y-92184388D01*
X121972123Y-92184389D01*
X121912516Y-92190796D01*
X121777671Y-92241090D01*
X121777664Y-92241094D01*
X121662455Y-92327340D01*
X121662452Y-92327343D01*
X121576206Y-92442552D01*
X121576202Y-92442559D01*
X121525908Y-92577405D01*
X121519932Y-92632993D01*
X121519501Y-92637011D01*
X121519500Y-92637023D01*
X121519500Y-92951464D01*
X121499815Y-93018503D01*
X121497838Y-93021485D01*
X121373506Y-93203202D01*
X120701283Y-94185680D01*
X120686626Y-94203340D01*
X120426785Y-94463182D01*
X120365465Y-94496666D01*
X120339106Y-94499500D01*
X103965782Y-94499500D01*
X103898743Y-94479815D01*
X103878101Y-94463181D01*
X103736819Y-94321899D01*
X103703334Y-94260576D01*
X103700500Y-94234218D01*
X103700500Y-86993078D01*
X103720185Y-86926039D01*
X103772989Y-86880284D01*
X103842147Y-86870340D01*
X103890471Y-86888084D01*
X103906458Y-86898129D01*
X103950475Y-86925788D01*
X104120745Y-86985368D01*
X104120750Y-86985369D01*
X104299997Y-87005565D01*
X104299999Y-87005565D01*
X104299999Y-87005564D01*
X104300000Y-87005565D01*
X104324919Y-87002756D01*
X104346193Y-87002198D01*
X104354608Y-87002701D01*
X104825539Y-86963456D01*
X104876789Y-86969986D01*
X104920745Y-86985368D01*
X104920752Y-86985369D01*
X105099996Y-87005565D01*
X105100000Y-87005565D01*
X105100004Y-87005565D01*
X105279249Y-86985369D01*
X105279252Y-86985368D01*
X105279255Y-86985368D01*
X105359017Y-86957457D01*
X105399972Y-86950500D01*
X105673920Y-86950500D01*
X105771462Y-86931096D01*
X105818913Y-86921658D01*
X105955495Y-86865084D01*
X106022539Y-86820287D01*
X106078416Y-86782952D01*
X106382952Y-86478416D01*
X106382952Y-86478415D01*
X106623826Y-86237540D01*
X106685147Y-86204057D01*
X106754839Y-86209041D01*
X106810772Y-86250913D01*
X106834725Y-86311339D01*
X106844630Y-86399250D01*
X106844632Y-86399257D01*
X106874311Y-86484076D01*
X106878886Y-86500837D01*
X106908341Y-86648908D01*
X106908343Y-86648917D01*
X106964914Y-86785492D01*
X106988094Y-86820183D01*
X106988095Y-86820186D01*
X107047046Y-86908414D01*
X107047052Y-86908421D01*
X107336686Y-87198054D01*
X107344045Y-87206089D01*
X107346300Y-87208780D01*
X107404493Y-87265868D01*
X107405337Y-87266705D01*
X107521586Y-87382954D01*
X107550152Y-87402040D01*
X107564436Y-87411584D01*
X107644505Y-87465084D01*
X107781087Y-87521658D01*
X107781091Y-87521658D01*
X107781092Y-87521659D01*
X107926079Y-87550500D01*
X107926082Y-87550500D01*
X107926083Y-87550500D01*
X108073917Y-87550500D01*
X110711234Y-87550500D01*
X110778273Y-87570185D01*
X110824028Y-87622989D01*
X110833972Y-87692147D01*
X110832851Y-87698692D01*
X110809500Y-87816079D01*
X110809500Y-88366632D01*
X110806349Y-88394407D01*
X110805353Y-88398738D01*
X110805352Y-88398743D01*
X110757297Y-88975403D01*
X110756015Y-88995720D01*
X110755975Y-88996658D01*
X110756177Y-89003301D01*
X110755456Y-89020928D01*
X110754435Y-89029998D01*
X110754435Y-89030003D01*
X110757370Y-89056054D01*
X110758092Y-89066157D01*
X110758228Y-89070631D01*
X110758801Y-89074744D01*
X110760583Y-89084573D01*
X110774630Y-89209249D01*
X110834210Y-89379521D01*
X110930184Y-89532262D01*
X111057738Y-89659816D01*
X111210478Y-89755789D01*
X111380745Y-89815368D01*
X111380750Y-89815369D01*
X111559996Y-89835565D01*
X111560000Y-89835565D01*
X111560004Y-89835565D01*
X111739249Y-89815369D01*
X111739252Y-89815368D01*
X111739255Y-89815368D01*
X111909522Y-89755789D01*
X112062262Y-89659816D01*
X112189816Y-89532262D01*
X112285789Y-89379522D01*
X112345368Y-89209255D01*
X112362630Y-89056054D01*
X112365565Y-89030002D01*
X112365565Y-89029999D01*
X112362757Y-89005083D01*
X112362198Y-88983804D01*
X112362701Y-88975391D01*
X112330066Y-88583763D01*
X112319319Y-88454797D01*
X112333369Y-88386355D01*
X112382191Y-88336373D01*
X112442891Y-88320500D01*
X115353920Y-88320500D01*
X115451462Y-88301096D01*
X115498913Y-88291658D01*
X115635495Y-88235084D01*
X115758416Y-88152951D01*
X115862951Y-88048416D01*
X115945084Y-87925495D01*
X116001658Y-87788913D01*
X116019605Y-87698692D01*
X116030500Y-87643920D01*
X116030500Y-85254500D01*
X116050185Y-85187461D01*
X116102989Y-85141706D01*
X116154500Y-85130500D01*
X124798542Y-85130500D01*
X124817870Y-85126655D01*
X124895188Y-85111275D01*
X124991836Y-85092051D01*
X125068769Y-85060184D01*
X125173914Y-85016632D01*
X125337782Y-84907139D01*
X125477139Y-84767782D01*
X125477140Y-84767779D01*
X125484206Y-84760714D01*
X125484209Y-84760710D01*
X125787778Y-84457141D01*
X125787782Y-84457139D01*
X125927139Y-84317782D01*
X126036632Y-84153914D01*
X126054281Y-84111305D01*
X126091839Y-84020633D01*
X126112049Y-83971840D01*
X126112051Y-83971836D01*
X126139363Y-83834530D01*
X126150500Y-83778541D01*
X126150500Y-83723068D01*
X126161740Y-83671482D01*
X126259687Y-83457382D01*
X126298136Y-83409702D01*
X126307546Y-83402659D01*
X126393796Y-83287444D01*
X126444091Y-83152596D01*
X126450500Y-83092986D01*
X126450499Y-81397241D01*
X126444091Y-81337630D01*
X126420030Y-81273120D01*
X126393797Y-81202784D01*
X126393793Y-81202777D01*
X126307547Y-81087568D01*
X126307544Y-81087565D01*
X126192335Y-81001319D01*
X126192328Y-81001315D01*
X126057482Y-80951021D01*
X126057483Y-80951021D01*
X125997883Y-80944614D01*
X125997881Y-80944613D01*
X125997873Y-80944613D01*
X125997864Y-80944613D01*
X125994548Y-80944435D01*
X125994627Y-80942960D01*
X125933215Y-80924928D01*
X125887460Y-80872124D01*
X125879969Y-80828635D01*
X125196447Y-80145113D01*
X125202661Y-80145113D01*
X125304394Y-80117854D01*
X125395606Y-80065193D01*
X125470080Y-79990719D01*
X125522741Y-79899507D01*
X125550000Y-79797774D01*
X125550000Y-79791560D01*
X126229024Y-80470584D01*
X126280136Y-80397591D01*
X126376264Y-80191444D01*
X126376269Y-80191430D01*
X126435139Y-79971723D01*
X126435141Y-79971712D01*
X126454966Y-79745115D01*
X126454966Y-79745110D01*
X126435141Y-79518513D01*
X126435139Y-79518502D01*
X126376269Y-79298795D01*
X126376264Y-79298781D01*
X126280136Y-79092634D01*
X126280132Y-79092626D01*
X126229025Y-79019639D01*
X125550000Y-79698664D01*
X125550000Y-79692452D01*
X125522741Y-79590719D01*
X125470080Y-79499507D01*
X125395606Y-79425033D01*
X125304394Y-79372372D01*
X125202661Y-79345113D01*
X125196448Y-79345113D01*
X125875472Y-78666087D01*
X125802478Y-78614976D01*
X125596331Y-78518848D01*
X125596317Y-78518843D01*
X125376610Y-78459973D01*
X125376599Y-78459971D01*
X125150002Y-78440147D01*
X125149998Y-78440147D01*
X124923400Y-78459971D01*
X124923389Y-78459973D01*
X124703682Y-78518843D01*
X124703673Y-78518847D01*
X124497516Y-78614979D01*
X124497512Y-78614981D01*
X124424526Y-78666086D01*
X124424526Y-78666087D01*
X125103553Y-79345113D01*
X125097339Y-79345113D01*
X124995606Y-79372372D01*
X124904394Y-79425033D01*
X124829920Y-79499507D01*
X124777259Y-79590719D01*
X124750000Y-79692452D01*
X124750000Y-79698665D01*
X124036819Y-78985484D01*
X124003334Y-78924161D01*
X124000500Y-78897803D01*
X124000500Y-72801456D01*
X123990264Y-72749997D01*
X124295034Y-72749997D01*
X124295034Y-72750002D01*
X124314858Y-72976599D01*
X124314860Y-72976610D01*
X124373730Y-73196317D01*
X124373735Y-73196331D01*
X124469863Y-73402478D01*
X124520974Y-73475472D01*
X125200000Y-72796446D01*
X125200000Y-72802661D01*
X125227259Y-72904394D01*
X125279920Y-72995606D01*
X125354394Y-73070080D01*
X125445606Y-73122741D01*
X125547339Y-73150000D01*
X125553553Y-73150000D01*
X124869352Y-73834199D01*
X124859506Y-73883194D01*
X124810890Y-73933377D01*
X124755367Y-73948049D01*
X124755423Y-73949099D01*
X124755429Y-73949146D01*
X124755426Y-73949146D01*
X124755436Y-73949324D01*
X124752123Y-73949501D01*
X124692516Y-73955908D01*
X124557671Y-74006202D01*
X124557664Y-74006206D01*
X124442455Y-74092452D01*
X124442452Y-74092455D01*
X124356206Y-74207664D01*
X124356202Y-74207671D01*
X124305908Y-74342517D01*
X124300857Y-74389505D01*
X124299501Y-74402123D01*
X124299500Y-74402135D01*
X124299500Y-76097870D01*
X124299501Y-76097876D01*
X124305908Y-76157483D01*
X124356202Y-76292328D01*
X124356206Y-76292335D01*
X124442452Y-76407544D01*
X124442455Y-76407547D01*
X124557664Y-76493793D01*
X124557671Y-76493797D01*
X124692517Y-76544091D01*
X124692516Y-76544091D01*
X124699444Y-76544835D01*
X124752127Y-76550500D01*
X126447872Y-76550499D01*
X126507483Y-76544091D01*
X126642331Y-76493796D01*
X126757546Y-76407546D01*
X126843796Y-76292331D01*
X126894091Y-76157483D01*
X126900500Y-76097873D01*
X126900499Y-74402128D01*
X126894091Y-74342517D01*
X126891612Y-74335871D01*
X126843797Y-74207671D01*
X126843793Y-74207664D01*
X126757547Y-74092455D01*
X126757544Y-74092452D01*
X126642335Y-74006206D01*
X126642328Y-74006202D01*
X126507482Y-73955908D01*
X126507483Y-73955908D01*
X126447883Y-73949501D01*
X126447881Y-73949500D01*
X126447873Y-73949500D01*
X126447864Y-73949500D01*
X126444548Y-73949322D01*
X126444627Y-73947847D01*
X126383215Y-73929815D01*
X126337460Y-73877011D01*
X126329969Y-73833522D01*
X125646447Y-73150000D01*
X125652661Y-73150000D01*
X125754394Y-73122741D01*
X125845606Y-73070080D01*
X125920080Y-72995606D01*
X125972741Y-72904394D01*
X126000000Y-72802661D01*
X126000000Y-72796447D01*
X126679024Y-73475471D01*
X126730136Y-73402478D01*
X126826264Y-73196331D01*
X126826269Y-73196317D01*
X126885139Y-72976610D01*
X126885141Y-72976599D01*
X126904966Y-72750002D01*
X126904966Y-72749997D01*
X126885141Y-72523400D01*
X126885139Y-72523389D01*
X126826269Y-72303682D01*
X126826264Y-72303668D01*
X126730136Y-72097521D01*
X126730132Y-72097513D01*
X126679025Y-72024526D01*
X126000000Y-72703551D01*
X126000000Y-72697339D01*
X125972741Y-72595606D01*
X125920080Y-72504394D01*
X125845606Y-72429920D01*
X125754394Y-72377259D01*
X125652661Y-72350000D01*
X125646448Y-72350000D01*
X126325472Y-71670974D01*
X126252478Y-71619863D01*
X126046331Y-71523735D01*
X126046317Y-71523730D01*
X125826610Y-71464860D01*
X125826599Y-71464858D01*
X125600002Y-71445034D01*
X125599998Y-71445034D01*
X125373400Y-71464858D01*
X125373389Y-71464860D01*
X125153682Y-71523730D01*
X125153673Y-71523734D01*
X124947516Y-71619866D01*
X124947512Y-71619868D01*
X124874526Y-71670973D01*
X124874526Y-71670974D01*
X125553553Y-72350000D01*
X125547339Y-72350000D01*
X125445606Y-72377259D01*
X125354394Y-72429920D01*
X125279920Y-72504394D01*
X125227259Y-72595606D01*
X125200000Y-72697339D01*
X125200000Y-72703552D01*
X124520974Y-72024526D01*
X124520973Y-72024526D01*
X124469868Y-72097512D01*
X124469866Y-72097516D01*
X124373734Y-72303673D01*
X124373730Y-72303682D01*
X124314860Y-72523389D01*
X124314858Y-72523400D01*
X124295034Y-72749997D01*
X123990264Y-72749997D01*
X123962052Y-72608170D01*
X123962051Y-72608169D01*
X123962051Y-72608165D01*
X123933532Y-72539313D01*
X123886635Y-72426092D01*
X123886628Y-72426079D01*
X123777139Y-72262218D01*
X123777136Y-72262214D01*
X123637785Y-72122863D01*
X123637781Y-72122860D01*
X123473920Y-72013371D01*
X123473907Y-72013364D01*
X123291839Y-71937950D01*
X123291829Y-71937947D01*
X123098543Y-71899500D01*
X123098541Y-71899500D01*
X120624500Y-71899500D01*
X120557461Y-71879815D01*
X120511706Y-71827011D01*
X120500500Y-71775500D01*
X120500500Y-60201456D01*
X120462052Y-60008170D01*
X120462051Y-60008169D01*
X120462051Y-60008165D01*
X120427352Y-59924394D01*
X120386635Y-59826092D01*
X120386628Y-59826079D01*
X120277139Y-59662218D01*
X120277136Y-59662214D01*
X120137785Y-59522863D01*
X120137781Y-59522860D01*
X119973920Y-59413371D01*
X119973907Y-59413364D01*
X119791839Y-59337950D01*
X119791829Y-59337947D01*
X119598543Y-59299500D01*
X119598541Y-59299500D01*
X119401459Y-59299500D01*
X119401457Y-59299500D01*
X119208170Y-59337947D01*
X119208160Y-59337950D01*
X119026092Y-59413364D01*
X119026079Y-59413371D01*
X118862218Y-59522860D01*
X118862214Y-59522863D01*
X118722863Y-59662214D01*
X118722860Y-59662218D01*
X118613371Y-59826079D01*
X118613364Y-59826092D01*
X118537950Y-60008160D01*
X118537947Y-60008170D01*
X118499500Y-60201456D01*
X118499500Y-74265500D01*
X118479815Y-74332539D01*
X118427011Y-74378294D01*
X118375500Y-74389500D01*
X114111703Y-74389500D01*
X114044664Y-74369815D01*
X113998909Y-74317011D01*
X113988483Y-74251617D01*
X114005565Y-74100003D01*
X114005565Y-74099996D01*
X113985369Y-73920750D01*
X113985368Y-73920745D01*
X113925788Y-73750476D01*
X113871107Y-73663452D01*
X113829816Y-73597738D01*
X113702262Y-73470184D01*
X113549523Y-73374211D01*
X113379254Y-73314631D01*
X113379249Y-73314630D01*
X113200004Y-73294435D01*
X113200002Y-73294435D01*
X113200000Y-73294435D01*
X113185285Y-73296092D01*
X113175080Y-73297242D01*
X113153817Y-73297800D01*
X113149812Y-73297561D01*
X113145392Y-73297298D01*
X113145391Y-73297298D01*
X113099981Y-73301082D01*
X112674459Y-73336541D01*
X112623209Y-73330011D01*
X112579254Y-73314631D01*
X112400004Y-73294435D01*
X112399996Y-73294435D01*
X112220750Y-73314630D01*
X112220745Y-73314631D01*
X112140983Y-73342542D01*
X112100028Y-73349500D01*
X107621073Y-73349500D01*
X107554034Y-73329815D01*
X107508279Y-73277011D01*
X107498335Y-73207853D01*
X107504032Y-73184545D01*
X107565366Y-73009262D01*
X107565369Y-73009249D01*
X107585565Y-72830003D01*
X107585565Y-72829998D01*
X107580395Y-72784117D01*
X107592449Y-72715295D01*
X107639798Y-72663915D01*
X107707408Y-72646290D01*
X107773814Y-72668016D01*
X107807930Y-72703191D01*
X107812969Y-72711032D01*
X107812971Y-72711034D01*
X107921700Y-72805249D01*
X107921706Y-72805254D01*
X107962174Y-72823735D01*
X108052580Y-72865023D01*
X108052583Y-72865023D01*
X108052584Y-72865024D01*
X108195000Y-72885500D01*
X108195003Y-72885500D01*
X109194984Y-72885500D01*
X109195000Y-72885500D01*
X109258522Y-72881493D01*
X109258526Y-72881492D01*
X109258527Y-72881492D01*
X109278755Y-72875919D01*
X109305104Y-72868660D01*
X109355680Y-72865469D01*
X109495000Y-72885500D01*
X109495003Y-72885500D01*
X110645000Y-72885500D01*
X110716940Y-72880355D01*
X110854992Y-72839819D01*
X110976032Y-72762031D01*
X111070254Y-72653294D01*
X111120382Y-72543530D01*
X111130023Y-72522419D01*
X111130024Y-72522414D01*
X111132615Y-72504394D01*
X111150500Y-72380000D01*
X111150500Y-70880000D01*
X111150500Y-70729997D01*
X115345034Y-70729997D01*
X115345034Y-70730002D01*
X115364858Y-70956599D01*
X115364860Y-70956610D01*
X115423730Y-71176317D01*
X115423735Y-71176331D01*
X115519863Y-71382478D01*
X115570974Y-71455472D01*
X116250000Y-70776446D01*
X116250000Y-70782661D01*
X116277259Y-70884394D01*
X116329920Y-70975606D01*
X116404394Y-71050080D01*
X116495606Y-71102741D01*
X116597339Y-71130000D01*
X116603553Y-71130000D01*
X115924526Y-71809025D01*
X115997513Y-71860132D01*
X115997521Y-71860136D01*
X116203668Y-71956264D01*
X116203682Y-71956269D01*
X116423389Y-72015139D01*
X116423400Y-72015141D01*
X116649998Y-72034966D01*
X116650002Y-72034966D01*
X116876599Y-72015141D01*
X116876610Y-72015139D01*
X117096317Y-71956269D01*
X117096331Y-71956264D01*
X117302478Y-71860136D01*
X117375471Y-71809024D01*
X116696447Y-71130000D01*
X116702661Y-71130000D01*
X116804394Y-71102741D01*
X116895606Y-71050080D01*
X116970080Y-70975606D01*
X117022741Y-70884394D01*
X117050000Y-70782661D01*
X117050000Y-70776447D01*
X117729024Y-71455471D01*
X117780136Y-71382478D01*
X117876264Y-71176331D01*
X117876269Y-71176317D01*
X117935139Y-70956610D01*
X117935141Y-70956599D01*
X117954966Y-70730002D01*
X117954966Y-70729997D01*
X117935141Y-70503400D01*
X117935139Y-70503389D01*
X117876269Y-70283682D01*
X117876264Y-70283668D01*
X117780136Y-70077521D01*
X117780132Y-70077513D01*
X117729025Y-70004526D01*
X117050000Y-70683551D01*
X117050000Y-70677339D01*
X117022741Y-70575606D01*
X116970080Y-70484394D01*
X116895606Y-70409920D01*
X116804394Y-70357259D01*
X116702661Y-70330000D01*
X116696448Y-70330000D01*
X117375472Y-69650974D01*
X117302478Y-69599863D01*
X117096331Y-69503735D01*
X117096317Y-69503730D01*
X116876610Y-69444860D01*
X116876599Y-69444858D01*
X116650002Y-69425034D01*
X116649998Y-69425034D01*
X116423400Y-69444858D01*
X116423389Y-69444860D01*
X116203682Y-69503730D01*
X116203673Y-69503734D01*
X115997516Y-69599866D01*
X115997512Y-69599868D01*
X115924526Y-69650973D01*
X115924526Y-69650974D01*
X116603553Y-70330000D01*
X116597339Y-70330000D01*
X116495606Y-70357259D01*
X116404394Y-70409920D01*
X116329920Y-70484394D01*
X116277259Y-70575606D01*
X116250000Y-70677339D01*
X116250000Y-70683552D01*
X115570974Y-70004526D01*
X115570973Y-70004526D01*
X115519868Y-70077512D01*
X115519866Y-70077516D01*
X115423734Y-70283673D01*
X115423730Y-70283682D01*
X115364860Y-70503389D01*
X115364858Y-70503400D01*
X115345034Y-70729997D01*
X111150500Y-70729997D01*
X111150500Y-69818421D01*
X111151762Y-69800775D01*
X111155941Y-69771706D01*
X111160500Y-69740000D01*
X111160500Y-68240000D01*
X111155355Y-68168060D01*
X111114819Y-68030008D01*
X111037031Y-67908968D01*
X110978176Y-67857969D01*
X110953199Y-67836326D01*
X110915425Y-67777548D01*
X110910403Y-67742614D01*
X110910403Y-66024500D01*
X110930088Y-65957461D01*
X110982892Y-65911706D01*
X111034403Y-65900500D01*
X115002631Y-65900500D01*
X115069670Y-65920185D01*
X115095415Y-65942238D01*
X115343862Y-66222478D01*
X115640574Y-66557160D01*
X115649357Y-66568289D01*
X115649944Y-66569128D01*
X115649950Y-66569135D01*
X115649953Y-66569139D01*
X115649955Y-66569141D01*
X115649957Y-66569143D01*
X115658258Y-66577444D01*
X115663362Y-66582864D01*
X115697826Y-66621738D01*
X115708211Y-66633098D01*
X115708231Y-66633119D01*
X115708682Y-66633598D01*
X115708685Y-66633601D01*
X115759022Y-66680223D01*
X115759843Y-66680836D01*
X115773306Y-66692492D01*
X115810859Y-66730046D01*
X115905437Y-66796269D01*
X115997266Y-66860568D01*
X116203504Y-66956739D01*
X116423308Y-67015635D01*
X116585230Y-67029801D01*
X116649998Y-67035468D01*
X116650000Y-67035468D01*
X116650002Y-67035468D01*
X116706673Y-67030509D01*
X116876692Y-67015635D01*
X117096496Y-66956739D01*
X117302734Y-66860568D01*
X117489139Y-66730047D01*
X117650047Y-66569139D01*
X117780568Y-66382734D01*
X117876739Y-66176496D01*
X117935635Y-65956692D01*
X117955468Y-65730000D01*
X117935635Y-65503308D01*
X117876739Y-65283504D01*
X117780568Y-65077266D01*
X117650047Y-64890861D01*
X117650045Y-64890858D01*
X117489141Y-64729954D01*
X117302734Y-64599432D01*
X117302732Y-64599431D01*
X117096497Y-64503261D01*
X117096488Y-64503258D01*
X116876697Y-64444366D01*
X116876687Y-64444364D01*
X116656239Y-64425077D01*
X116653295Y-64424704D01*
X116649726Y-64424370D01*
X116649724Y-64424370D01*
X116630087Y-64423936D01*
X116232271Y-64415159D01*
X116210816Y-64412806D01*
X116143922Y-64399500D01*
X116143918Y-64399500D01*
X115523829Y-64399500D01*
X115521094Y-64399470D01*
X115313272Y-64394885D01*
X115309510Y-64394822D01*
X115307806Y-64394794D01*
X115307630Y-64394792D01*
X115307628Y-64394792D01*
X115307623Y-64394792D01*
X115275463Y-64396335D01*
X115247892Y-64397658D01*
X115244773Y-64398127D01*
X115226372Y-64399500D01*
X110085983Y-64399500D01*
X109940995Y-64428340D01*
X109940985Y-64428343D01*
X109804414Y-64484912D01*
X109804401Y-64484919D01*
X109681487Y-64567048D01*
X109681483Y-64567051D01*
X109576954Y-64671580D01*
X109576951Y-64671584D01*
X109494822Y-64794498D01*
X109494815Y-64794511D01*
X109438246Y-64931082D01*
X109438243Y-64931092D01*
X109409403Y-65076079D01*
X109409403Y-67620784D01*
X109389718Y-67687823D01*
X109336914Y-67733578D01*
X109267758Y-67743522D01*
X109205003Y-67734500D01*
X109205000Y-67734500D01*
X108205000Y-67734500D01*
X108204997Y-67734500D01*
X108133059Y-67739644D01*
X107995005Y-67780182D01*
X107873969Y-67857967D01*
X107873965Y-67857971D01*
X107779750Y-67966700D01*
X107779744Y-67966709D01*
X107719976Y-68097580D01*
X107719975Y-68097585D01*
X107711987Y-68153147D01*
X107682962Y-68216703D01*
X107624184Y-68254477D01*
X107589249Y-68259500D01*
X107167129Y-68259500D01*
X107126172Y-68252541D01*
X107098270Y-68242777D01*
X107041495Y-68202054D01*
X107015749Y-68137101D01*
X107029206Y-68068539D01*
X107045513Y-68044534D01*
X107055254Y-68033294D01*
X107096542Y-67942884D01*
X107115023Y-67902419D01*
X107115024Y-67902414D01*
X107121414Y-67857969D01*
X107135500Y-67760000D01*
X107135500Y-66260000D01*
X107130355Y-66188060D01*
X107126959Y-66176496D01*
X107121929Y-66159365D01*
X107089819Y-66050008D01*
X107038401Y-65970000D01*
X107012032Y-65928969D01*
X107012028Y-65928965D01*
X106903299Y-65834750D01*
X106903297Y-65834748D01*
X106903294Y-65834746D01*
X106903290Y-65834744D01*
X106772419Y-65774976D01*
X106772414Y-65774975D01*
X106630000Y-65754500D01*
X105630000Y-65754500D01*
X105629984Y-65754500D01*
X105566481Y-65758506D01*
X105555613Y-65761499D01*
X105519889Y-65771340D01*
X105469316Y-65774530D01*
X105330000Y-65754500D01*
X104180000Y-65754500D01*
X104179997Y-65754500D01*
X104108059Y-65759644D01*
X103970005Y-65800182D01*
X103848969Y-65877967D01*
X103848965Y-65877971D01*
X103754750Y-65986700D01*
X103754744Y-65986709D01*
X103694976Y-66117580D01*
X103694975Y-66117585D01*
X103674500Y-66259999D01*
X103674500Y-67760002D01*
X103679644Y-67831940D01*
X103702263Y-67908969D01*
X103719216Y-67966706D01*
X103720182Y-67969994D01*
X103797967Y-68091030D01*
X103797971Y-68091035D01*
X103810382Y-68101789D01*
X103848156Y-68160567D01*
X103848154Y-68230437D01*
X103810379Y-68289214D01*
X103746823Y-68318238D01*
X103729178Y-68319500D01*
X103728237Y-68319500D01*
X103684391Y-68311489D01*
X103064852Y-68077290D01*
X103009104Y-68035172D01*
X102992709Y-68005147D01*
X102979420Y-67969994D01*
X102841856Y-67606087D01*
X102778511Y-67438517D01*
X102770500Y-67394671D01*
X102770500Y-67256080D01*
X102741659Y-67111093D01*
X102741658Y-67111092D01*
X102741658Y-67111088D01*
X102702119Y-67015633D01*
X102685085Y-66974508D01*
X102673214Y-66956741D01*
X102641902Y-66909879D01*
X102621025Y-66843203D01*
X102639510Y-66775823D01*
X102691489Y-66729133D01*
X102692416Y-66728694D01*
X102752734Y-66700568D01*
X102939139Y-66570047D01*
X103100047Y-66409139D01*
X103230568Y-66222734D01*
X103326739Y-66016496D01*
X103385635Y-65796692D01*
X103405468Y-65570000D01*
X103385635Y-65343308D01*
X103326739Y-65123504D01*
X103230568Y-64917266D01*
X103100047Y-64730861D01*
X103100045Y-64730858D01*
X102939141Y-64569954D01*
X102752734Y-64439432D01*
X102752732Y-64439431D01*
X102546497Y-64343261D01*
X102546488Y-64343258D01*
X102326697Y-64284366D01*
X102326693Y-64284365D01*
X102326692Y-64284365D01*
X102326691Y-64284364D01*
X102326686Y-64284364D01*
X102100002Y-64264532D01*
X102099998Y-64264532D01*
X101873313Y-64284364D01*
X101873302Y-64284366D01*
X101653511Y-64343258D01*
X101653502Y-64343261D01*
X101447267Y-64439431D01*
X101447265Y-64439432D01*
X101260858Y-64569954D01*
X101099954Y-64730858D01*
X100969432Y-64917265D01*
X100969431Y-64917267D01*
X100873261Y-65123502D01*
X100873258Y-65123511D01*
X100814366Y-65343302D01*
X100814364Y-65343313D01*
X100794532Y-65569998D01*
X100794532Y-65570001D01*
X100814364Y-65796686D01*
X100814366Y-65796697D01*
X100873258Y-66016488D01*
X100873261Y-66016497D01*
X100969431Y-66222732D01*
X100969432Y-66222734D01*
X101099954Y-66409141D01*
X101260858Y-66570045D01*
X101260861Y-66570047D01*
X101409026Y-66673792D01*
X101452650Y-66728367D01*
X101459844Y-66797865D01*
X101428322Y-66860220D01*
X101425587Y-66863044D01*
X101417050Y-66871580D01*
X101373954Y-66936081D01*
X101373953Y-66936082D01*
X101334919Y-66994499D01*
X101334912Y-66994511D01*
X101278343Y-67131082D01*
X101278340Y-67131092D01*
X101249500Y-67276079D01*
X101249500Y-67341761D01*
X101241489Y-67385607D01*
X100792068Y-68574484D01*
X100792045Y-68574547D01*
X100784876Y-68596472D01*
X100779405Y-68610325D01*
X100773261Y-68623502D01*
X100714366Y-68843302D01*
X100714364Y-68843313D01*
X100694532Y-69069998D01*
X100694532Y-69070001D01*
X100714364Y-69296686D01*
X100714366Y-69296697D01*
X100773258Y-69516488D01*
X100773261Y-69516497D01*
X100869431Y-69722732D01*
X100869432Y-69722734D01*
X100999954Y-69909141D01*
X101160858Y-70070045D01*
X101171522Y-70077512D01*
X101347266Y-70200568D01*
X101553504Y-70296739D01*
X101773308Y-70355635D01*
X101935230Y-70369801D01*
X101999998Y-70375468D01*
X102000000Y-70375468D01*
X102000002Y-70375468D01*
X102056673Y-70370509D01*
X102226692Y-70355635D01*
X102446496Y-70296739D01*
X102466623Y-70287353D01*
X102492150Y-70278683D01*
X102495482Y-70277943D01*
X102495482Y-70277942D01*
X102495486Y-70277942D01*
X103684388Y-69828510D01*
X103728234Y-69820500D01*
X103840500Y-69820500D01*
X103907539Y-69840185D01*
X103953294Y-69892989D01*
X103964500Y-69944500D01*
X103964500Y-71030002D01*
X103969644Y-71101940D01*
X104010182Y-71239994D01*
X104087967Y-71361030D01*
X104087971Y-71361034D01*
X104196700Y-71455249D01*
X104196706Y-71455254D01*
X104237174Y-71473735D01*
X104327580Y-71515023D01*
X104327583Y-71515023D01*
X104327584Y-71515024D01*
X104470000Y-71535500D01*
X104470003Y-71535500D01*
X105585079Y-71535500D01*
X105652118Y-71555185D01*
X105697873Y-71607989D01*
X105699640Y-71612047D01*
X105754914Y-71745492D01*
X105754918Y-71745499D01*
X105767442Y-71764241D01*
X105767444Y-71764246D01*
X105837046Y-71868414D01*
X105837052Y-71868421D01*
X105859368Y-71890737D01*
X105892853Y-71952060D01*
X105887869Y-72021752D01*
X105845997Y-72077685D01*
X105812642Y-72095459D01*
X105730478Y-72124209D01*
X105720477Y-72130494D01*
X105654506Y-72149500D01*
X102862230Y-72149500D01*
X102795191Y-72129815D01*
X102774553Y-72113185D01*
X102525316Y-71863947D01*
X102525315Y-71863946D01*
X102522204Y-71860835D01*
X102522189Y-71860821D01*
X99677113Y-69015745D01*
X99662135Y-68997614D01*
X99660791Y-68995631D01*
X99660784Y-68995619D01*
X99128170Y-68319119D01*
X98750125Y-67838944D01*
X98743744Y-67830059D01*
X98708980Y-67776849D01*
X98708979Y-67776847D01*
X98658723Y-67722254D01*
X98652524Y-67714976D01*
X98641714Y-67701246D01*
X98641712Y-67701243D01*
X98630488Y-67687823D01*
X98622529Y-67678306D01*
X98621631Y-67677295D01*
X98621630Y-67677294D01*
X98589146Y-67646291D01*
X98583544Y-67640587D01*
X98551784Y-67606087D01*
X98551776Y-67606081D01*
X98368627Y-67463531D01*
X98368626Y-67463530D01*
X98241386Y-67394671D01*
X98164504Y-67353064D01*
X98164495Y-67353061D01*
X97944984Y-67277702D01*
X97773282Y-67249050D01*
X97716049Y-67239500D01*
X97483951Y-67239500D01*
X97438164Y-67247140D01*
X97255015Y-67277702D01*
X97035504Y-67353061D01*
X97035495Y-67353064D01*
X96831371Y-67463531D01*
X96831365Y-67463535D01*
X96648222Y-67606081D01*
X96648219Y-67606084D01*
X96648216Y-67606086D01*
X96648216Y-67606087D01*
X96611206Y-67646291D01*
X96491016Y-67776852D01*
X96364075Y-67971151D01*
X96270842Y-68183699D01*
X96213866Y-68408691D01*
X96213864Y-68408702D01*
X96194700Y-68639993D01*
X95341047Y-68639993D01*
X95418345Y-68592315D01*
X95542315Y-68468345D01*
X95634356Y-68319124D01*
X95634358Y-68319119D01*
X95689505Y-68152697D01*
X95689506Y-68152690D01*
X95699999Y-68049986D01*
X95700000Y-68049973D01*
X95700000Y-67825000D01*
X93600000Y-67825000D01*
X93600000Y-68749999D01*
X93099999Y-68749999D01*
X93100000Y-68749998D01*
X93100000Y-67325000D01*
X93600000Y-67325000D01*
X95699999Y-67325000D01*
X95699999Y-67100028D01*
X95699998Y-67100013D01*
X95689505Y-66997302D01*
X95634358Y-66830880D01*
X95634356Y-66830875D01*
X95542315Y-66681654D01*
X95418345Y-66557684D01*
X95269124Y-66465643D01*
X95269119Y-66465641D01*
X95102697Y-66410494D01*
X95102690Y-66410493D01*
X94999986Y-66400000D01*
X93600000Y-66400000D01*
X93600000Y-67325000D01*
X93100000Y-67325000D01*
X93100000Y-66400000D01*
X91700028Y-66400000D01*
X91700012Y-66400001D01*
X91597302Y-66410494D01*
X91563504Y-66421694D01*
X91493676Y-66424096D01*
X91433634Y-66388364D01*
X91402441Y-66325844D01*
X91400500Y-66303988D01*
X91400500Y-65569997D01*
X95795034Y-65569997D01*
X95795034Y-65570002D01*
X95814858Y-65796599D01*
X95814860Y-65796610D01*
X95873730Y-66016317D01*
X95873735Y-66016331D01*
X95969863Y-66222478D01*
X96020974Y-66295472D01*
X96700000Y-65616446D01*
X96700000Y-65622661D01*
X96727259Y-65724394D01*
X96779920Y-65815606D01*
X96854394Y-65890080D01*
X96945606Y-65942741D01*
X97047339Y-65970000D01*
X97053553Y-65970000D01*
X96374526Y-66649025D01*
X96447513Y-66700132D01*
X96447521Y-66700136D01*
X96653668Y-66796264D01*
X96653682Y-66796269D01*
X96873389Y-66855139D01*
X96873400Y-66855141D01*
X97099998Y-66874966D01*
X97100002Y-66874966D01*
X97326599Y-66855141D01*
X97326610Y-66855139D01*
X97546317Y-66796269D01*
X97546331Y-66796264D01*
X97752478Y-66700136D01*
X97825471Y-66649024D01*
X97146447Y-65970000D01*
X97152661Y-65970000D01*
X97254394Y-65942741D01*
X97345606Y-65890080D01*
X97420080Y-65815606D01*
X97472741Y-65724394D01*
X97500000Y-65622661D01*
X97500000Y-65616447D01*
X98179024Y-66295471D01*
X98230136Y-66222478D01*
X98326264Y-66016331D01*
X98326269Y-66016317D01*
X98385139Y-65796610D01*
X98385141Y-65796599D01*
X98404966Y-65570002D01*
X98404966Y-65569997D01*
X98385141Y-65343400D01*
X98385139Y-65343389D01*
X98326269Y-65123682D01*
X98326264Y-65123668D01*
X98230136Y-64917521D01*
X98230132Y-64917513D01*
X98179025Y-64844526D01*
X97500000Y-65523551D01*
X97500000Y-65517339D01*
X97472741Y-65415606D01*
X97420080Y-65324394D01*
X97345606Y-65249920D01*
X97254394Y-65197259D01*
X97152661Y-65170000D01*
X97146448Y-65170000D01*
X97825472Y-64490974D01*
X97752478Y-64439863D01*
X97546331Y-64343735D01*
X97546317Y-64343730D01*
X97326610Y-64284860D01*
X97326599Y-64284858D01*
X97100002Y-64265034D01*
X97099998Y-64265034D01*
X96873400Y-64284858D01*
X96873389Y-64284860D01*
X96653682Y-64343730D01*
X96653673Y-64343734D01*
X96447516Y-64439866D01*
X96447512Y-64439868D01*
X96374526Y-64490973D01*
X96374526Y-64490974D01*
X97053553Y-65170000D01*
X97047339Y-65170000D01*
X96945606Y-65197259D01*
X96854394Y-65249920D01*
X96779920Y-65324394D01*
X96727259Y-65415606D01*
X96700000Y-65517339D01*
X96700000Y-65523552D01*
X96020974Y-64844526D01*
X96020973Y-64844526D01*
X95969868Y-64917512D01*
X95969866Y-64917516D01*
X95873734Y-65123673D01*
X95873730Y-65123682D01*
X95814860Y-65343389D01*
X95814858Y-65343400D01*
X95795034Y-65569997D01*
X91400500Y-65569997D01*
X91400500Y-61902155D01*
X102944315Y-61902155D01*
X102944315Y-62500000D01*
X103928629Y-62500000D01*
X103924235Y-62504394D01*
X103871574Y-62595606D01*
X103844315Y-62697339D01*
X103844315Y-62802661D01*
X103871574Y-62904394D01*
X103924235Y-62995606D01*
X103928629Y-63000000D01*
X102944315Y-63000000D01*
X102944315Y-63597844D01*
X102950716Y-63657372D01*
X102950718Y-63657379D01*
X103000960Y-63792086D01*
X103000964Y-63792093D01*
X103087124Y-63907187D01*
X103087127Y-63907190D01*
X103202221Y-63993350D01*
X103202228Y-63993354D01*
X103336935Y-64043596D01*
X103336942Y-64043598D01*
X103396470Y-64049999D01*
X103396487Y-64050000D01*
X103994315Y-64050000D01*
X103994315Y-63065686D01*
X103998709Y-63070080D01*
X104089921Y-63122741D01*
X104191654Y-63150000D01*
X104296976Y-63150000D01*
X104398709Y-63122741D01*
X104489921Y-63070080D01*
X104494315Y-63065686D01*
X104494315Y-64050000D01*
X105092143Y-64050000D01*
X105092159Y-64049999D01*
X105151687Y-64043598D01*
X105151694Y-64043596D01*
X105286401Y-63993354D01*
X105286408Y-63993350D01*
X105401502Y-63907190D01*
X105401505Y-63907187D01*
X105487665Y-63792093D01*
X105487669Y-63792086D01*
X105537911Y-63657380D01*
X105541739Y-63621781D01*
X105568477Y-63557230D01*
X105625870Y-63517382D01*
X105695695Y-63514888D01*
X105755784Y-63550540D01*
X105766604Y-63563912D01*
X105784271Y-63589143D01*
X105945173Y-63750045D01*
X105945176Y-63750047D01*
X106131581Y-63880568D01*
X106337819Y-63976739D01*
X106557623Y-64035635D01*
X106719545Y-64049801D01*
X106784313Y-64055468D01*
X106784315Y-64055468D01*
X106784317Y-64055468D01*
X106846826Y-64049999D01*
X107011007Y-64035635D01*
X107230811Y-63976739D01*
X107437049Y-63880568D01*
X107623454Y-63750047D01*
X107784362Y-63589139D01*
X107914883Y-63402734D01*
X108011054Y-63196496D01*
X108069950Y-62976692D01*
X108089783Y-62750000D01*
X108069950Y-62523308D01*
X108011054Y-62303504D01*
X107914883Y-62097266D01*
X107784362Y-61910861D01*
X107784360Y-61910858D01*
X107623456Y-61749954D01*
X107437049Y-61619432D01*
X107437047Y-61619431D01*
X107230812Y-61523261D01*
X107230803Y-61523258D01*
X107011012Y-61464366D01*
X107011008Y-61464365D01*
X107011007Y-61464365D01*
X107011006Y-61464364D01*
X107011001Y-61464364D01*
X106784317Y-61444532D01*
X106784313Y-61444532D01*
X106557628Y-61464364D01*
X106557617Y-61464366D01*
X106337826Y-61523258D01*
X106337817Y-61523261D01*
X106131582Y-61619431D01*
X106131580Y-61619432D01*
X105945173Y-61749954D01*
X105784266Y-61910861D01*
X105766602Y-61936088D01*
X105712025Y-61979712D01*
X105642526Y-61986904D01*
X105580172Y-61955380D01*
X105544760Y-61895150D01*
X105541740Y-61878218D01*
X105537913Y-61842627D01*
X105537911Y-61842620D01*
X105487669Y-61707913D01*
X105487665Y-61707906D01*
X105401505Y-61592812D01*
X105401502Y-61592809D01*
X105286408Y-61506649D01*
X105286401Y-61506645D01*
X105151694Y-61456403D01*
X105151687Y-61456401D01*
X105092159Y-61450000D01*
X104494315Y-61450000D01*
X104494315Y-62434314D01*
X104489921Y-62429920D01*
X104398709Y-62377259D01*
X104296976Y-62350000D01*
X104191654Y-62350000D01*
X104089921Y-62377259D01*
X103998709Y-62429920D01*
X103994315Y-62434314D01*
X103994315Y-61450000D01*
X103396470Y-61450000D01*
X103336942Y-61456401D01*
X103336935Y-61456403D01*
X103202228Y-61506645D01*
X103202221Y-61506649D01*
X103087127Y-61592809D01*
X103087124Y-61592812D01*
X103000964Y-61707906D01*
X103000960Y-61707913D01*
X102950718Y-61842620D01*
X102950716Y-61842627D01*
X102944315Y-61902155D01*
X91400500Y-61902155D01*
X91400500Y-59275748D01*
X91420185Y-59208709D01*
X91472989Y-59162954D01*
X91542147Y-59153010D01*
X91605703Y-59182035D01*
X91628495Y-59208213D01*
X91805475Y-59480737D01*
X92014039Y-59738294D01*
X92014040Y-59738294D01*
X93508692Y-58243642D01*
X93582532Y-58345274D01*
X93760614Y-58523356D01*
X93862244Y-58597195D01*
X92367592Y-60091847D01*
X92367593Y-60091848D01*
X92625150Y-60300412D01*
X92950400Y-60511633D01*
X93295949Y-60687699D01*
X93658007Y-60826681D01*
X94032613Y-60927056D01*
X94032620Y-60927057D01*
X94415656Y-60987724D01*
X94802943Y-61008022D01*
X94802945Y-61008022D01*
X95190231Y-60987724D01*
X95573267Y-60927057D01*
X95573274Y-60927056D01*
X95947880Y-60826681D01*
X96309938Y-60687699D01*
X96655487Y-60511633D01*
X96980727Y-60300420D01*
X96980729Y-60300419D01*
X97238293Y-60091846D01*
X95743642Y-58597195D01*
X95845274Y-58523356D01*
X96023356Y-58345274D01*
X96097195Y-58243642D01*
X97591846Y-59738293D01*
X97768619Y-59519999D01*
X102962497Y-59519999D01*
X102962498Y-59520000D01*
X103925684Y-59520000D01*
X103921290Y-59524394D01*
X103868629Y-59615606D01*
X103841370Y-59717339D01*
X103841370Y-59822661D01*
X103868629Y-59924394D01*
X103921290Y-60015606D01*
X103925684Y-60020000D01*
X102962498Y-60020000D01*
X103015100Y-60216317D01*
X103015104Y-60216326D01*
X103111235Y-60422482D01*
X103241712Y-60608820D01*
X103402549Y-60769657D01*
X103588887Y-60900134D01*
X103795043Y-60996265D01*
X103795052Y-60996269D01*
X103991369Y-61048872D01*
X103991370Y-61048871D01*
X103991370Y-60085686D01*
X103995764Y-60090080D01*
X104086976Y-60142741D01*
X104188709Y-60170000D01*
X104294031Y-60170000D01*
X104395764Y-60142741D01*
X104486976Y-60090080D01*
X104491370Y-60085686D01*
X104491370Y-61048872D01*
X104687687Y-60996269D01*
X104687696Y-60996265D01*
X104893852Y-60900134D01*
X105080190Y-60769657D01*
X105241028Y-60608819D01*
X105258560Y-60583781D01*
X105313136Y-60540155D01*
X105382634Y-60532961D01*
X105444989Y-60564482D01*
X105480404Y-60624712D01*
X105483425Y-60641647D01*
X105487277Y-60677480D01*
X105537572Y-60812328D01*
X105537576Y-60812335D01*
X105623822Y-60927544D01*
X105623825Y-60927547D01*
X105739034Y-61013793D01*
X105739041Y-61013797D01*
X105873887Y-61064091D01*
X105873886Y-61064091D01*
X105880814Y-61064835D01*
X105933497Y-61070500D01*
X107629242Y-61070499D01*
X107688853Y-61064091D01*
X107823701Y-61013796D01*
X107938916Y-60927546D01*
X108025166Y-60812331D01*
X108075461Y-60677483D01*
X108081870Y-60617873D01*
X108081869Y-58922128D01*
X108075461Y-58862517D01*
X108064369Y-58832779D01*
X108025167Y-58727671D01*
X108025163Y-58727664D01*
X107938917Y-58612455D01*
X107938914Y-58612452D01*
X107823705Y-58526206D01*
X107823698Y-58526202D01*
X107688852Y-58475908D01*
X107688853Y-58475908D01*
X107629253Y-58469501D01*
X107629251Y-58469500D01*
X107629243Y-58469500D01*
X107629235Y-58469500D01*
X107267824Y-58469500D01*
X107200785Y-58449815D01*
X107155030Y-58397011D01*
X107145086Y-58327853D01*
X107174111Y-58264297D01*
X107202728Y-58239961D01*
X107308343Y-58174817D01*
X107432315Y-58050845D01*
X107524356Y-57901624D01*
X107524358Y-57901619D01*
X107579505Y-57735197D01*
X107579506Y-57735190D01*
X107589999Y-57632486D01*
X110890001Y-57632486D01*
X110900494Y-57735197D01*
X110955641Y-57901619D01*
X110955643Y-57901624D01*
X111047684Y-58050845D01*
X111171654Y-58174815D01*
X111320875Y-58266856D01*
X111320880Y-58266858D01*
X111487302Y-58322005D01*
X111487309Y-58322006D01*
X111590019Y-58332499D01*
X111814999Y-58332499D01*
X112315000Y-58332499D01*
X112539972Y-58332499D01*
X112539986Y-58332498D01*
X112642697Y-58322005D01*
X112809119Y-58266858D01*
X112809124Y-58266856D01*
X112958345Y-58174815D01*
X113082315Y-58050845D01*
X113174356Y-57901624D01*
X113174358Y-57901619D01*
X113229505Y-57735197D01*
X113229506Y-57735190D01*
X113239999Y-57632486D01*
X113240000Y-57632473D01*
X113240000Y-57577135D01*
X124049500Y-57577135D01*
X124049500Y-59372870D01*
X124049501Y-59372876D01*
X124055908Y-59432483D01*
X124106202Y-59567328D01*
X124106206Y-59567335D01*
X124192452Y-59682544D01*
X124192455Y-59682547D01*
X124307664Y-59768793D01*
X124307671Y-59768797D01*
X124442517Y-59819091D01*
X124442516Y-59819091D01*
X124449444Y-59819835D01*
X124502127Y-59825500D01*
X126297872Y-59825499D01*
X126357483Y-59819091D01*
X126492331Y-59768796D01*
X126607546Y-59682546D01*
X126693796Y-59567331D01*
X126744091Y-59432483D01*
X126750500Y-59372873D01*
X126750499Y-57577128D01*
X126744091Y-57517517D01*
X126728577Y-57475923D01*
X126693797Y-57382671D01*
X126693793Y-57382664D01*
X126607547Y-57267455D01*
X126607544Y-57267452D01*
X126492335Y-57181206D01*
X126492328Y-57181202D01*
X126360401Y-57131997D01*
X126304467Y-57090126D01*
X126280050Y-57024662D01*
X126294902Y-56956389D01*
X126316053Y-56928133D01*
X126438108Y-56806078D01*
X126573600Y-56612578D01*
X126673429Y-56398492D01*
X126673432Y-56398486D01*
X126730636Y-56185000D01*
X125833012Y-56185000D01*
X125865925Y-56127993D01*
X125900000Y-56000826D01*
X125900000Y-55869174D01*
X125865925Y-55742007D01*
X125833012Y-55685000D01*
X126730636Y-55685000D01*
X126730635Y-55684999D01*
X126673432Y-55471513D01*
X126673429Y-55471507D01*
X126573600Y-55257422D01*
X126573599Y-55257420D01*
X126438113Y-55063926D01*
X126438108Y-55063920D01*
X126271082Y-54896894D01*
X126077578Y-54761399D01*
X125863492Y-54661570D01*
X125863486Y-54661567D01*
X125650000Y-54604364D01*
X125650000Y-55501988D01*
X125592993Y-55469075D01*
X125465826Y-55435000D01*
X125334174Y-55435000D01*
X125207007Y-55469075D01*
X125150000Y-55501988D01*
X125150000Y-54604364D01*
X125149999Y-54604364D01*
X124936513Y-54661567D01*
X124936507Y-54661570D01*
X124722422Y-54761399D01*
X124722420Y-54761400D01*
X124528926Y-54896886D01*
X124528920Y-54896891D01*
X124361891Y-55063920D01*
X124361886Y-55063926D01*
X124226400Y-55257420D01*
X124226399Y-55257422D01*
X124126570Y-55471507D01*
X124126567Y-55471513D01*
X124069364Y-55684999D01*
X124069364Y-55685000D01*
X124966988Y-55685000D01*
X124934075Y-55742007D01*
X124900000Y-55869174D01*
X124900000Y-56000826D01*
X124934075Y-56127993D01*
X124966988Y-56185000D01*
X124069364Y-56185000D01*
X124126567Y-56398486D01*
X124126570Y-56398492D01*
X124226399Y-56612578D01*
X124361894Y-56806082D01*
X124483946Y-56928134D01*
X124517431Y-56989457D01*
X124512447Y-57059149D01*
X124470575Y-57115082D01*
X124439598Y-57131997D01*
X124307671Y-57181202D01*
X124307664Y-57181206D01*
X124192455Y-57267452D01*
X124192452Y-57267455D01*
X124106206Y-57382664D01*
X124106202Y-57382671D01*
X124055908Y-57517517D01*
X124049501Y-57577116D01*
X124049501Y-57577123D01*
X124049500Y-57577135D01*
X113240000Y-57577135D01*
X113240000Y-56232500D01*
X112315000Y-56232500D01*
X112315000Y-58332499D01*
X111814999Y-58332499D01*
X111815000Y-58332498D01*
X111815000Y-56232500D01*
X110890001Y-56232500D01*
X110890001Y-57632486D01*
X107589999Y-57632486D01*
X107590000Y-57632473D01*
X107590000Y-56232500D01*
X105240001Y-56232500D01*
X105240001Y-57632486D01*
X105250494Y-57735197D01*
X105305641Y-57901619D01*
X105305643Y-57901624D01*
X105397684Y-58050845D01*
X105521654Y-58174815D01*
X105670875Y-58266856D01*
X105670880Y-58266858D01*
X105740823Y-58290035D01*
X105798268Y-58329808D01*
X105825091Y-58394323D01*
X105812776Y-58463099D01*
X105765233Y-58514299D01*
X105745156Y-58523921D01*
X105739046Y-58526199D01*
X105739034Y-58526206D01*
X105623825Y-58612452D01*
X105623822Y-58612455D01*
X105537576Y-58727664D01*
X105537572Y-58727671D01*
X105487278Y-58862517D01*
X105483426Y-58898352D01*
X105456688Y-58962903D01*
X105399296Y-59002752D01*
X105329471Y-59005245D01*
X105269382Y-58969593D01*
X105258562Y-58956221D01*
X105241027Y-58931179D01*
X105080190Y-58770342D01*
X104893852Y-58639865D01*
X104687698Y-58543734D01*
X104491370Y-58491127D01*
X104491370Y-59454314D01*
X104486976Y-59449920D01*
X104395764Y-59397259D01*
X104294031Y-59370000D01*
X104188709Y-59370000D01*
X104086976Y-59397259D01*
X103995764Y-59449920D01*
X103991370Y-59454314D01*
X103991370Y-58491127D01*
X103795041Y-58543734D01*
X103588887Y-58639865D01*
X103402549Y-58770342D01*
X103241712Y-58931179D01*
X103111235Y-59117517D01*
X103015104Y-59323673D01*
X103015100Y-59323682D01*
X102962497Y-59519999D01*
X97768619Y-59519999D01*
X97800419Y-59480729D01*
X97800420Y-59480727D01*
X98011633Y-59155487D01*
X98187699Y-58809938D01*
X98326681Y-58447880D01*
X98427056Y-58073274D01*
X98427057Y-58073267D01*
X98487724Y-57690231D01*
X98508022Y-57302944D01*
X98508022Y-57302943D01*
X98487724Y-56915656D01*
X98427057Y-56532620D01*
X98427056Y-56532613D01*
X98326681Y-56158007D01*
X98187699Y-55795949D01*
X98011633Y-55450400D01*
X97800412Y-55125150D01*
X97591848Y-54867593D01*
X97591847Y-54867592D01*
X96097195Y-56362244D01*
X96023356Y-56260614D01*
X95845274Y-56082532D01*
X95743642Y-56008692D01*
X97238294Y-54514040D01*
X97238294Y-54514039D01*
X96999744Y-54320866D01*
X96960032Y-54263379D01*
X96957704Y-54193549D01*
X96993499Y-54133545D01*
X97056052Y-54102418D01*
X97077779Y-54100500D01*
X105126390Y-54100500D01*
X105193429Y-54120185D01*
G37*
%TD.AperFunction*%
%TA.AperFunction,Conductor*%
G36*
X134741846Y-97132405D02*
G01*
X134950419Y-96874841D01*
X134950420Y-96874839D01*
X135161633Y-96549599D01*
X135165014Y-96542965D01*
X135212987Y-96492168D01*
X135280808Y-96475372D01*
X135346944Y-96497908D01*
X135390396Y-96552622D01*
X135399500Y-96599258D01*
X135399500Y-97975500D01*
X135379815Y-98042539D01*
X135327011Y-98088294D01*
X135275500Y-98099500D01*
X133925749Y-98099500D01*
X133858710Y-98079815D01*
X133812955Y-98027011D01*
X133803011Y-97957853D01*
X133832036Y-97894297D01*
X133858214Y-97871505D01*
X134130727Y-97694532D01*
X134130729Y-97694531D01*
X134388293Y-97485958D01*
X132893642Y-95991307D01*
X132995274Y-95917468D01*
X133173356Y-95739386D01*
X133247195Y-95637754D01*
X134741846Y-97132405D01*
G37*
%TD.AperFunction*%
%TA.AperFunction,Conductor*%
G36*
X135342539Y-54120185D02*
G01*
X135388294Y-54172989D01*
X135399500Y-54224500D01*
X135399500Y-55218676D01*
X135379815Y-55285715D01*
X135327011Y-55331470D01*
X135257853Y-55341414D01*
X135194297Y-55312389D01*
X135171505Y-55286212D01*
X135097465Y-55172202D01*
X134888904Y-54914649D01*
X134888903Y-54914648D01*
X133394251Y-56409300D01*
X133320412Y-56307670D01*
X133142330Y-56129588D01*
X133040698Y-56055748D01*
X134535350Y-54561096D01*
X134535350Y-54561095D01*
X134277797Y-54352534D01*
X134240781Y-54328495D01*
X134195278Y-54275473D01*
X134185665Y-54206268D01*
X134214992Y-54142851D01*
X134273950Y-54105358D01*
X134308317Y-54100500D01*
X135275500Y-54100500D01*
X135342539Y-54120185D01*
G37*
%TD.AperFunction*%
%TA.AperFunction,Conductor*%
G36*
X92595148Y-54120185D02*
G01*
X92640903Y-54172989D01*
X92650847Y-54242147D01*
X92621822Y-54305703D01*
X92606144Y-54320866D01*
X92367592Y-54514039D01*
X92367592Y-54514040D01*
X93862245Y-56008692D01*
X93760614Y-56082532D01*
X93582532Y-56260614D01*
X93508692Y-56362244D01*
X92014040Y-54867592D01*
X92014039Y-54867592D01*
X91805478Y-55125146D01*
X91628495Y-55397675D01*
X91575474Y-55443177D01*
X91506269Y-55452791D01*
X91442852Y-55423464D01*
X91405358Y-55364507D01*
X91400500Y-55330139D01*
X91400500Y-54224500D01*
X91420185Y-54157461D01*
X91472989Y-54111706D01*
X91524500Y-54100500D01*
X92528109Y-54100500D01*
X92595148Y-54120185D01*
G37*
%TD.AperFunction*%
%TD*%
%TA.AperFunction,Conductor*%
%TO.N,+5V*%
G36*
X125158657Y-82253001D02*
G01*
X125158967Y-82253323D01*
X125887106Y-83039389D01*
X125890214Y-83047787D01*
X125889162Y-83052207D01*
X125393805Y-84134992D01*
X125387247Y-84141090D01*
X125378299Y-84140764D01*
X125374893Y-84138398D01*
X124680085Y-83443590D01*
X124679347Y-83442780D01*
X124356794Y-83053316D01*
X124354156Y-83044758D01*
X124357531Y-83037581D01*
X125142112Y-82253000D01*
X125150384Y-82249574D01*
X125158657Y-82253001D01*
G37*
%TD.AperFunction*%
%TD*%
%TA.AperFunction,Conductor*%
%TO.N,+5V*%
G36*
X105952618Y-75091051D02*
G01*
X106529272Y-75139106D01*
X106537232Y-75143208D01*
X106540000Y-75150766D01*
X106540000Y-75629234D01*
X106536573Y-75637507D01*
X106529272Y-75640894D01*
X105952629Y-75688947D01*
X105944099Y-75686219D01*
X105939997Y-75678259D01*
X105939957Y-75677345D01*
X105939000Y-75390000D01*
X105939957Y-75102671D01*
X105943411Y-75094411D01*
X105951696Y-75091012D01*
X105952618Y-75091051D01*
G37*
%TD.AperFunction*%
%TD*%
%TA.AperFunction,Conductor*%
%TO.N,+5V*%
G36*
X106661588Y-75164437D02*
G01*
X106665944Y-75172261D01*
X106666022Y-75173608D01*
X106666022Y-75619897D01*
X106662595Y-75628170D01*
X106654322Y-75631597D01*
X106648543Y-75630070D01*
X106404703Y-75491546D01*
X106399202Y-75484480D01*
X106400309Y-75475594D01*
X106401305Y-75474114D01*
X106645151Y-75166341D01*
X106652975Y-75161986D01*
X106661588Y-75164437D01*
G37*
%TD.AperFunction*%
%TD*%
%TA.AperFunction,Conductor*%
%TO.N,+5V*%
G36*
X116277867Y-83537405D02*
G01*
X116281214Y-83544313D01*
X116348470Y-84116978D01*
X116346032Y-84125595D01*
X116338215Y-84129963D01*
X116336889Y-84130043D01*
X116050039Y-84130999D01*
X116049961Y-84130999D01*
X115762262Y-84130040D01*
X115754000Y-84126586D01*
X115750601Y-84118301D01*
X115750616Y-84117752D01*
X115779441Y-83545090D01*
X115783279Y-83536999D01*
X115791126Y-83533978D01*
X116269594Y-83533978D01*
X116277867Y-83537405D01*
G37*
%TD.AperFunction*%
%TD*%
%TA.AperFunction,Conductor*%
%TO.N,+5V*%
G36*
X116317327Y-83399957D02*
G01*
X116325588Y-83403411D01*
X116328987Y-83411696D01*
X116328947Y-83412629D01*
X116280894Y-83989272D01*
X116276792Y-83997232D01*
X116269234Y-84000000D01*
X115790766Y-84000000D01*
X115782493Y-83996573D01*
X115779106Y-83989272D01*
X115731052Y-83412629D01*
X115733780Y-83404099D01*
X115741740Y-83399997D01*
X115742653Y-83399957D01*
X116030000Y-83399000D01*
X116317327Y-83399957D01*
G37*
%TD.AperFunction*%
%TD*%
%TA.AperFunction,Conductor*%
%TO.N,Net-(C12-Pad2)*%
G36*
X111807507Y-88433427D02*
G01*
X111810894Y-88440728D01*
X111858947Y-89017370D01*
X111856219Y-89025900D01*
X111848259Y-89030002D01*
X111847326Y-89030042D01*
X111560039Y-89030999D01*
X111559961Y-89030999D01*
X111272673Y-89030042D01*
X111264411Y-89026588D01*
X111261012Y-89018303D01*
X111261052Y-89017370D01*
X111309106Y-88440728D01*
X111313208Y-88432768D01*
X111320766Y-88430000D01*
X111799234Y-88430000D01*
X111807507Y-88433427D01*
G37*
%TD.AperFunction*%
%TD*%
%TA.AperFunction,Conductor*%
%TO.N,Net-(C12-Pad2)*%
G36*
X116288043Y-78139394D02*
G01*
X116291365Y-78146105D01*
X116368219Y-78716782D01*
X116365927Y-78725439D01*
X116358186Y-78729939D01*
X116356663Y-78730044D01*
X116070039Y-78730999D01*
X116069961Y-78730999D01*
X115782059Y-78730040D01*
X115773797Y-78726586D01*
X115770398Y-78718301D01*
X115770403Y-78718005D01*
X115789619Y-78147272D01*
X115793322Y-78139120D01*
X115801312Y-78135967D01*
X116279770Y-78135967D01*
X116288043Y-78139394D01*
G37*
%TD.AperFunction*%
%TD*%
%TA.AperFunction,Conductor*%
%TO.N,Net-(C12-Pad2)*%
G36*
X116356664Y-78099955D02*
G01*
X116364925Y-78103409D01*
X116368324Y-78111694D01*
X116368219Y-78113217D01*
X116291365Y-78683895D01*
X116286865Y-78691636D01*
X116279770Y-78694033D01*
X115801312Y-78694033D01*
X115793039Y-78690606D01*
X115789619Y-78682727D01*
X115770405Y-78112051D01*
X115773551Y-78103669D01*
X115781704Y-78099966D01*
X115782009Y-78099959D01*
X116070000Y-78099000D01*
X116356664Y-78099955D01*
G37*
%TD.AperFunction*%
%TD*%
%TA.AperFunction,Conductor*%
%TO.N,Net-(C12-Pad2)*%
G36*
X115803303Y-78619492D02*
G01*
X116068517Y-78728393D01*
X116072373Y-78730970D01*
X116275148Y-78935101D01*
X116278547Y-78943386D01*
X116276346Y-78950177D01*
X115959273Y-79391139D01*
X115951661Y-79395856D01*
X115942944Y-79393808D01*
X115941501Y-79392582D01*
X115603393Y-79054474D01*
X115599966Y-79046201D01*
X115600996Y-79041403D01*
X115788191Y-78625513D01*
X115794712Y-78619376D01*
X115803303Y-78619492D01*
G37*
%TD.AperFunction*%
%TD*%
%TA.AperFunction,Conductor*%
%TO.N,Net-(U6B--)*%
G36*
X114412882Y-85690201D02*
G01*
X114438941Y-85701090D01*
X114676525Y-85800360D01*
X114682837Y-85806712D01*
X114682874Y-85815508D01*
X114451950Y-86391739D01*
X114445692Y-86398144D01*
X114436738Y-86398247D01*
X114432817Y-86395660D01*
X114095472Y-86058315D01*
X114092045Y-86050042D01*
X114092059Y-86049492D01*
X114109446Y-85701088D01*
X114113281Y-85692998D01*
X114121101Y-85689973D01*
X114408347Y-85689298D01*
X114412882Y-85690201D01*
G37*
%TD.AperFunction*%
%TD*%
%TA.AperFunction,Conductor*%
%TO.N,Net-(U6B--)*%
G36*
X114046208Y-86388235D02*
G01*
X114050035Y-86390784D01*
X114243418Y-86584167D01*
X114246845Y-86592440D01*
X114243418Y-86600713D01*
X114239149Y-86603434D01*
X114129552Y-86643352D01*
X114120606Y-86642963D01*
X114114752Y-86636869D01*
X114092731Y-86584167D01*
X114014434Y-86396778D01*
X114014408Y-86387826D01*
X114020720Y-86381474D01*
X114029675Y-86381447D01*
X114046208Y-86388235D01*
G37*
%TD.AperFunction*%
%TA.AperFunction,Conductor*%
G36*
X114042850Y-86348449D02*
G01*
X114045733Y-86350560D01*
X114062737Y-86367564D01*
X114078269Y-86373942D01*
X114084621Y-86380254D01*
X114084648Y-86389209D01*
X114082950Y-86392088D01*
X114081645Y-86393714D01*
X114073794Y-86398021D01*
X114068076Y-86397214D01*
X114050547Y-86390017D01*
X114046718Y-86387467D01*
X114028220Y-86368969D01*
X114024793Y-86360696D01*
X114026109Y-86355306D01*
X114027076Y-86353443D01*
X114033928Y-86347679D01*
X114042850Y-86348449D01*
G37*
%TD.AperFunction*%
%TD*%
%TA.AperFunction,Conductor*%
%TO.N,Net-(U6B--)*%
G36*
X107905466Y-86109596D02*
G01*
X107911706Y-86115777D01*
X108090849Y-86533139D01*
X108090964Y-86542093D01*
X108088371Y-86546027D01*
X107750294Y-86884104D01*
X107742021Y-86887531D01*
X107733748Y-86884104D01*
X107732429Y-86882530D01*
X107497413Y-86546027D01*
X107423462Y-86440142D01*
X107421535Y-86431399D01*
X107424752Y-86425200D01*
X107627629Y-86220967D01*
X107631480Y-86218394D01*
X107896511Y-86109569D01*
X107905466Y-86109596D01*
G37*
%TD.AperFunction*%
%TD*%
%TA.AperFunction,Conductor*%
%TO.N,GND*%
G36*
X110120000Y-78080000D02*
G01*
X110120000Y-78580000D01*
X109520000Y-78630000D01*
X109519000Y-78330000D01*
X109520000Y-78030000D01*
X110120000Y-78080000D01*
G37*
%TD.AperFunction*%
%TD*%
%TA.AperFunction,Conductor*%
%TO.N,GND*%
G36*
X112271000Y-78070000D02*
G01*
X112384805Y-78347164D01*
X111777695Y-78580000D01*
X111777695Y-78080000D01*
X112057868Y-77857868D01*
X112271000Y-78070000D01*
G37*
%TD.AperFunction*%
%TD*%
%TA.AperFunction,Conductor*%
%TO.N,GND*%
G36*
X109820000Y-78330000D02*
G01*
X109520000Y-78331000D01*
X109220000Y-78330000D01*
X109230000Y-77737956D01*
X109730000Y-77737956D01*
X109820000Y-78330000D01*
G37*
%TD.AperFunction*%
%TD*%
%TA.AperFunction,Conductor*%
%TO.N,GND*%
G36*
X109780000Y-77580000D02*
G01*
X109730000Y-78180000D01*
X109230000Y-78180000D01*
X109180000Y-77580000D01*
X109480000Y-77579000D01*
X109780000Y-77580000D01*
G37*
%TD.AperFunction*%
%TD*%
%TA.AperFunction,Conductor*%
%TO.N,GND*%
G36*
X112570000Y-78880000D02*
G01*
X112270000Y-78881000D01*
X111970000Y-78880000D01*
X112020000Y-78280000D01*
X112520000Y-78280000D01*
X112570000Y-78880000D01*
G37*
%TD.AperFunction*%
%TD*%
%TA.AperFunction,Conductor*%
%TO.N,GND*%
G36*
X112570000Y-78070000D02*
G01*
X112520000Y-78670000D01*
X112020000Y-78670000D01*
X111970000Y-78070000D01*
X112270000Y-78069000D01*
X112570000Y-78070000D01*
G37*
%TD.AperFunction*%
%TD*%
%TA.AperFunction,Conductor*%
%TO.N,Net-(JP1-B)*%
G36*
X102250188Y-67473427D02*
G01*
X102252859Y-67477563D01*
X102735099Y-68753258D01*
X102734819Y-68762208D01*
X102728645Y-68768199D01*
X102004490Y-69069134D01*
X101995536Y-69069144D01*
X101271353Y-68768198D01*
X101265029Y-68761860D01*
X101264900Y-68753260D01*
X101747141Y-67477562D01*
X101753272Y-67471036D01*
X101758085Y-67470000D01*
X102241915Y-67470000D01*
X102250188Y-67473427D01*
G37*
%TD.AperFunction*%
%TD*%
%TA.AperFunction,Conductor*%
%TO.N,Net-(JP1-B)*%
G36*
X103592437Y-68817141D02*
G01*
X103598964Y-68823272D01*
X103600000Y-68828085D01*
X103600000Y-69311914D01*
X103596573Y-69320187D01*
X103592437Y-69322858D01*
X102316741Y-69805099D01*
X102307791Y-69804819D01*
X102301801Y-69798646D01*
X102000864Y-69074487D01*
X102000854Y-69065538D01*
X102301801Y-68341352D01*
X102308139Y-68335029D01*
X102316739Y-68334900D01*
X103592437Y-68817141D01*
G37*
%TD.AperFunction*%
%TD*%
%TA.AperFunction,Conductor*%
%TO.N,Net-(JP2-B)*%
G36*
X115302122Y-64900262D02*
G01*
X116638574Y-64929747D01*
X116646768Y-64933355D01*
X116650014Y-64941429D01*
X116650993Y-65725139D01*
X116647576Y-65733417D01*
X116647559Y-65733434D01*
X116093101Y-66286914D01*
X116084825Y-66290334D01*
X116076555Y-66286900D01*
X116076080Y-66286396D01*
X115293189Y-65403321D01*
X115290244Y-65395559D01*
X115290244Y-64911960D01*
X115293671Y-64903687D01*
X115301944Y-64900260D01*
X115302122Y-64900262D01*
G37*
%TD.AperFunction*%
%TD*%
%TA.AperFunction,Conductor*%
%TO.N,+3.3V*%
G36*
X98431328Y-83539359D02*
G01*
X98436743Y-83543933D01*
X98650514Y-83883785D01*
X99221374Y-84791336D01*
X99222878Y-84800164D01*
X99219743Y-84805839D01*
X98525839Y-85499743D01*
X98517566Y-85503170D01*
X98511336Y-85501374D01*
X97395083Y-84799238D01*
X97263933Y-84716743D01*
X97258756Y-84709438D01*
X97259349Y-84702376D01*
X97597438Y-83883783D01*
X97603761Y-83877447D01*
X98422376Y-83539350D01*
X98431328Y-83539359D01*
G37*
%TD.AperFunction*%
%TD*%
%TA.AperFunction,Conductor*%
%TO.N,+3.3V*%
G36*
X122028765Y-93157137D02*
G01*
X122816214Y-93482325D01*
X122822553Y-93488650D01*
X122822562Y-93488673D01*
X123147749Y-94276121D01*
X123147740Y-94285076D01*
X123143542Y-94290243D01*
X121815881Y-95198642D01*
X121807118Y-95200486D01*
X121801001Y-95197259D01*
X121107628Y-94503886D01*
X121104201Y-94495613D01*
X121106245Y-94489006D01*
X121790699Y-93488650D01*
X122014645Y-93161344D01*
X122022144Y-93156452D01*
X122028765Y-93157137D01*
G37*
%TD.AperFunction*%
%TD*%
%TA.AperFunction,Conductor*%
%TO.N,Net-(U1-SO)*%
G36*
X98243625Y-68012917D02*
G01*
X98244536Y-68013943D01*
X99263608Y-69308319D01*
X99266033Y-69316940D01*
X99262688Y-69323830D01*
X98920397Y-69666121D01*
X98912124Y-69669548D01*
X98910974Y-69669491D01*
X97610541Y-69541041D01*
X97602645Y-69536818D01*
X97599991Y-69529408D01*
X97599296Y-68644149D01*
X97602714Y-68635879D01*
X98227081Y-68012898D01*
X98235356Y-68009481D01*
X98243625Y-68012917D01*
G37*
%TD.AperFunction*%
%TD*%
%TA.AperFunction,Conductor*%
%TO.N,Net-(U1-SO)*%
G36*
X106664547Y-72556468D02*
G01*
X106668911Y-72561730D01*
X106780088Y-72827817D01*
X106780992Y-72832367D01*
X106780037Y-73118730D01*
X106776583Y-73126992D01*
X106768736Y-73130384D01*
X106206023Y-73149587D01*
X106197638Y-73146444D01*
X106193931Y-73138293D01*
X106193924Y-73137894D01*
X106193924Y-72659533D01*
X106197351Y-72651260D01*
X106203258Y-72648075D01*
X106655754Y-72554782D01*
X106664547Y-72556468D01*
G37*
%TD.AperFunction*%
%TD*%
%TA.AperFunction,Conductor*%
%TO.N,Net-(U1-SO)*%
G36*
X106109919Y-72926276D02*
G01*
X106112442Y-72930038D01*
X106189392Y-73114208D01*
X106189419Y-73123163D01*
X106183107Y-73129515D01*
X106181086Y-73130151D01*
X106104136Y-73146909D01*
X106095323Y-73145321D01*
X106090214Y-73137967D01*
X106089946Y-73135477D01*
X106089946Y-72934549D01*
X106093373Y-72926276D01*
X106101646Y-72922849D01*
X106109919Y-72926276D01*
G37*
%TD.AperFunction*%
%TD*%
%TA.AperFunction,Conductor*%
%TO.N,Net-(U1-S1)*%
G36*
X112395378Y-73875423D02*
G01*
X112399892Y-73883156D01*
X112400000Y-73884739D01*
X112400000Y-74331275D01*
X112396573Y-74339548D01*
X112388300Y-74342975D01*
X112383171Y-74341791D01*
X112135643Y-74221052D01*
X112129709Y-74214345D01*
X112130256Y-74205407D01*
X112131451Y-74203464D01*
X112378984Y-73877660D01*
X112386717Y-73873147D01*
X112395378Y-73875423D01*
G37*
%TD.AperFunction*%
%TD*%
%TA.AperFunction,Conductor*%
%TO.N,Net-(U1-S1)*%
G36*
X113195900Y-73803780D02*
G01*
X113200002Y-73811740D01*
X113200042Y-73812673D01*
X113201000Y-74100000D01*
X113201000Y-74100078D01*
X113200042Y-74387326D01*
X113196588Y-74395588D01*
X113188303Y-74398987D01*
X113187370Y-74398947D01*
X112610728Y-74350894D01*
X112602768Y-74346792D01*
X112600000Y-74339234D01*
X112600000Y-73860766D01*
X112603427Y-73852493D01*
X112610728Y-73849106D01*
X113187371Y-73801052D01*
X113195900Y-73803780D01*
G37*
%TD.AperFunction*%
%TD*%
%TA.AperFunction,Conductor*%
%TO.N,Net-(U1-S1)*%
G36*
X98490201Y-71179992D02*
G01*
X98498472Y-71183425D01*
X98501712Y-71189647D01*
X98729060Y-72470567D01*
X98727132Y-72479312D01*
X98725813Y-72480885D01*
X98383595Y-72823103D01*
X98375322Y-72826530D01*
X98368503Y-72824336D01*
X97749603Y-72380308D01*
X96974789Y-71824420D01*
X96970064Y-71816813D01*
X96972103Y-71808094D01*
X96973319Y-71806659D01*
X97595862Y-71182730D01*
X97604127Y-71179296D01*
X98490201Y-71179992D01*
G37*
%TD.AperFunction*%
%TD*%
%TA.AperFunction,Conductor*%
%TO.N,Net-(JP1-A)*%
G36*
X106617505Y-68825300D02*
G01*
X106622359Y-68828217D01*
X106957803Y-69163661D01*
X106961230Y-69171934D01*
X106957803Y-69180207D01*
X106951473Y-69183472D01*
X106213610Y-69307708D01*
X106204882Y-69305702D01*
X106200129Y-69298113D01*
X106199967Y-69296198D01*
X106199692Y-69179705D01*
X106199298Y-69013054D01*
X106200193Y-69008541D01*
X106310731Y-68742634D01*
X106317071Y-68736311D01*
X106324953Y-68735936D01*
X106617505Y-68825300D01*
G37*
%TD.AperFunction*%
%TD*%
%TA.AperFunction,Conductor*%
%TO.N,Net-(JP1-A)*%
G36*
X106805595Y-68693967D02*
G01*
X106809963Y-68701784D01*
X106810043Y-68703110D01*
X106811000Y-68990000D01*
X106811000Y-68990078D01*
X106810040Y-69277737D01*
X106806585Y-69285999D01*
X106798301Y-69289398D01*
X106797752Y-69289383D01*
X106225090Y-69260559D01*
X106216999Y-69256721D01*
X106213978Y-69248874D01*
X106213978Y-68770406D01*
X106217405Y-68762133D01*
X106224312Y-68758786D01*
X106796978Y-68691529D01*
X106805595Y-68693967D01*
G37*
%TD.AperFunction*%
%TD*%
%TA.AperFunction,Conductor*%
%TO.N,Net-(JP1-A)*%
G36*
X106378739Y-68427351D02*
G01*
X106381925Y-68433261D01*
X106475217Y-68885752D01*
X106473531Y-68894547D01*
X106468269Y-68898911D01*
X106202182Y-69010088D01*
X106197632Y-69010992D01*
X105911269Y-69010037D01*
X105903007Y-69006583D01*
X105899615Y-68998737D01*
X105880413Y-68436023D01*
X105883556Y-68427638D01*
X105891707Y-68423931D01*
X105892106Y-68423924D01*
X106370466Y-68423924D01*
X106378739Y-68427351D01*
G37*
%TD.AperFunction*%
%TD*%
%TA.AperFunction,Conductor*%
%TO.N,Net-(JP1-A)*%
G36*
X106212618Y-68711051D02*
G01*
X106789272Y-68759106D01*
X106797232Y-68763208D01*
X106800000Y-68770766D01*
X106800000Y-69249234D01*
X106796573Y-69257507D01*
X106789272Y-69260894D01*
X106212629Y-69308947D01*
X106204099Y-69306219D01*
X106199997Y-69298259D01*
X106199957Y-69297345D01*
X106199000Y-69010000D01*
X106199957Y-68722671D01*
X106203411Y-68714411D01*
X106211696Y-68711012D01*
X106212618Y-68711051D01*
G37*
%TD.AperFunction*%
%TD*%
%TA.AperFunction,Conductor*%
%TO.N,Net-(JP1-A)*%
G36*
X106801588Y-68784437D02*
G01*
X106805944Y-68792261D01*
X106806022Y-68793608D01*
X106806022Y-69239897D01*
X106802595Y-69248170D01*
X106794322Y-69251597D01*
X106788543Y-69250070D01*
X106544703Y-69111546D01*
X106539202Y-69104480D01*
X106540309Y-69095594D01*
X106541305Y-69094114D01*
X106785151Y-68786341D01*
X106792975Y-68781986D01*
X106801588Y-68784437D01*
G37*
%TD.AperFunction*%
%TD*%
%TA.AperFunction,Conductor*%
%TO.N,Net-(JP2-A)*%
G36*
X106423308Y-70209494D02*
G01*
X106687815Y-70318103D01*
X106691663Y-70320671D01*
X106893544Y-70523504D01*
X106896951Y-70531786D01*
X106893505Y-70540051D01*
X106893169Y-70540371D01*
X106673358Y-70742440D01*
X106665440Y-70745527D01*
X106188086Y-70745527D01*
X106179813Y-70742100D01*
X106176386Y-70733827D01*
X106177414Y-70729031D01*
X106266059Y-70531786D01*
X106408195Y-70215520D01*
X106414711Y-70209381D01*
X106423308Y-70209494D01*
G37*
%TD.AperFunction*%
%TD*%
%TA.AperFunction,Conductor*%
%TO.N,Net-(CD1-Pad1)*%
G36*
X107887327Y-83399957D02*
G01*
X107895588Y-83403411D01*
X107898987Y-83411696D01*
X107898947Y-83412629D01*
X107850894Y-83989272D01*
X107846792Y-83997232D01*
X107839234Y-84000000D01*
X107360766Y-84000000D01*
X107352493Y-83996573D01*
X107349106Y-83989272D01*
X107301052Y-83412629D01*
X107303780Y-83404099D01*
X107311740Y-83399997D01*
X107312653Y-83399957D01*
X107600000Y-83399000D01*
X107887327Y-83399957D01*
G37*
%TD.AperFunction*%
%TD*%
%TA.AperFunction,Conductor*%
%TO.N,Net-(CD1-Pad1)*%
G36*
X105095378Y-85975423D02*
G01*
X105099892Y-85983156D01*
X105100000Y-85984739D01*
X105100000Y-86431275D01*
X105096573Y-86439548D01*
X105088300Y-86442975D01*
X105083171Y-86441791D01*
X104835643Y-86321052D01*
X104829709Y-86314345D01*
X104830256Y-86305407D01*
X104831451Y-86303464D01*
X105078984Y-85977660D01*
X105086717Y-85973147D01*
X105095378Y-85975423D01*
G37*
%TD.AperFunction*%
%TD*%
%TA.AperFunction,Conductor*%
%TO.N,Net-(CD1-Pad1)*%
G36*
X104312618Y-85901051D02*
G01*
X104889272Y-85949106D01*
X104897232Y-85953208D01*
X104900000Y-85960766D01*
X104900000Y-86439234D01*
X104896573Y-86447507D01*
X104889272Y-86450894D01*
X104312629Y-86498947D01*
X104304099Y-86496219D01*
X104299997Y-86488259D01*
X104299957Y-86487345D01*
X104299000Y-86200000D01*
X104299957Y-85912671D01*
X104303411Y-85904411D01*
X104311696Y-85901012D01*
X104312618Y-85901051D01*
G37*
%TD.AperFunction*%
%TD*%
%TA.AperFunction,Conductor*%
%TO.N,Net-(CD1-Pad1)*%
G36*
X107847507Y-82803427D02*
G01*
X107850894Y-82810728D01*
X107898947Y-83387370D01*
X107896219Y-83395900D01*
X107888259Y-83400002D01*
X107887326Y-83400042D01*
X107600039Y-83400999D01*
X107599961Y-83400999D01*
X107312673Y-83400042D01*
X107304411Y-83396588D01*
X107301012Y-83388303D01*
X107301052Y-83387370D01*
X107349106Y-82810728D01*
X107353208Y-82802768D01*
X107360766Y-82800000D01*
X107839234Y-82800000D01*
X107847507Y-82803427D01*
G37*
%TD.AperFunction*%
%TD*%
%TA.AperFunction,Conductor*%
%TO.N,Net-(CD1-Pad1)*%
G36*
X107887327Y-82699957D02*
G01*
X107895588Y-82703411D01*
X107898987Y-82711696D01*
X107898947Y-82712629D01*
X107850894Y-83289272D01*
X107846792Y-83297232D01*
X107839234Y-83300000D01*
X107360766Y-83300000D01*
X107352493Y-83296573D01*
X107349106Y-83289272D01*
X107301052Y-82712629D01*
X107303780Y-82704099D01*
X107311740Y-82699997D01*
X107312653Y-82699957D01*
X107600000Y-82699000D01*
X107887327Y-82699957D01*
G37*
%TD.AperFunction*%
%TD*%
%TA.AperFunction,Conductor*%
%TO.N,Net-(CD2-Pad1)*%
G36*
X113083005Y-83433540D02*
G01*
X113084605Y-83435535D01*
X113587197Y-84225889D01*
X113588745Y-84234709D01*
X113586377Y-84239579D01*
X112972902Y-84988865D01*
X112965009Y-84993095D01*
X112956437Y-84990506D01*
X112954322Y-84988245D01*
X112420534Y-84239579D01*
X112378617Y-84180789D01*
X112376606Y-84172065D01*
X112379373Y-84166256D01*
X112722998Y-83777031D01*
X112723464Y-83776535D01*
X113066460Y-83433539D01*
X113074732Y-83430113D01*
X113083005Y-83433540D01*
G37*
%TD.AperFunction*%
%TD*%
%TA.AperFunction,Conductor*%
%TO.N,Net-(CD2-Pad1)*%
G36*
X110412618Y-83301051D02*
G01*
X110989272Y-83349106D01*
X110997232Y-83353208D01*
X111000000Y-83360766D01*
X111000000Y-83839234D01*
X110996573Y-83847507D01*
X110989272Y-83850894D01*
X110412629Y-83898947D01*
X110404099Y-83896219D01*
X110399997Y-83888259D01*
X110399957Y-83887345D01*
X110399000Y-83600000D01*
X110399957Y-83312671D01*
X110403411Y-83304411D01*
X110411696Y-83301012D01*
X110412618Y-83301051D01*
G37*
%TD.AperFunction*%
%TD*%
%TA.AperFunction,Conductor*%
%TO.N,Net-(CD2-Pad1)*%
G36*
X109712618Y-83301051D02*
G01*
X110289272Y-83349106D01*
X110297232Y-83353208D01*
X110300000Y-83360766D01*
X110300000Y-83839234D01*
X110296573Y-83847507D01*
X110289272Y-83850894D01*
X109712629Y-83898947D01*
X109704099Y-83896219D01*
X109699997Y-83888259D01*
X109699957Y-83887345D01*
X109699000Y-83600000D01*
X109699957Y-83312671D01*
X109703411Y-83304411D01*
X109711696Y-83301012D01*
X109712618Y-83301051D01*
G37*
%TD.AperFunction*%
%TD*%
%TA.AperFunction,Conductor*%
%TO.N,Net-(CD2-Pad1)*%
G36*
X110395900Y-83303780D02*
G01*
X110400002Y-83311740D01*
X110400042Y-83312673D01*
X110401000Y-83600000D01*
X110401000Y-83600078D01*
X110400042Y-83887326D01*
X110396588Y-83895588D01*
X110388303Y-83898987D01*
X110387370Y-83898947D01*
X109810728Y-83850894D01*
X109802768Y-83846792D01*
X109800000Y-83839234D01*
X109800000Y-83360766D01*
X109803427Y-83352493D01*
X109810728Y-83349106D01*
X110387371Y-83301052D01*
X110395900Y-83303780D01*
G37*
%TD.AperFunction*%
%TD*%
M02*
