%TF.GenerationSoftware,KiCad,Pcbnew,8.0.3-unknown-202406152119~3f4dc01d97~ubuntu22.04.1*%
%TF.CreationDate,2024-06-18T16:57:28+05:30*%
%TF.ProjectId,SDR-Board,5344522d-426f-4617-9264-2e6b69636164,rev?*%
%TF.SameCoordinates,Original*%
%TF.FileFunction,Soldermask,Top*%
%TF.FilePolarity,Negative*%
%FSLAX46Y46*%
G04 Gerber Fmt 4.6, Leading zero omitted, Abs format (unit mm)*
G04 Created by KiCad (PCBNEW 8.0.3-unknown-202406152119~3f4dc01d97~ubuntu22.04.1) date 2024-06-18 16:57:28*
%MOMM*%
%LPD*%
G01*
G04 APERTURE LIST*
G04 Aperture macros list*
%AMRoundRect*
0 Rectangle with rounded corners*
0 $1 Rounding radius*
0 $2 $3 $4 $5 $6 $7 $8 $9 X,Y pos of 4 corners*
0 Add a 4 corners polygon primitive as box body*
4,1,4,$2,$3,$4,$5,$6,$7,$8,$9,$2,$3,0*
0 Add four circle primitives for the rounded corners*
1,1,$1+$1,$2,$3*
1,1,$1+$1,$4,$5*
1,1,$1+$1,$6,$7*
1,1,$1+$1,$8,$9*
0 Add four rect primitives between the rounded corners*
20,1,$1+$1,$2,$3,$4,$5,0*
20,1,$1+$1,$4,$5,$6,$7,0*
20,1,$1+$1,$6,$7,$8,$9,0*
20,1,$1+$1,$8,$9,$2,$3,0*%
G04 Aperture macros list end*
%ADD10RoundRect,0.250000X0.400000X0.625000X-0.400000X0.625000X-0.400000X-0.625000X0.400000X-0.625000X0*%
%ADD11RoundRect,0.250000X-0.650000X0.412500X-0.650000X-0.412500X0.650000X-0.412500X0.650000X0.412500X0*%
%ADD12RoundRect,0.250000X0.650000X-1.000000X0.650000X1.000000X-0.650000X1.000000X-0.650000X-1.000000X0*%
%ADD13RoundRect,0.250000X0.650000X-0.412500X0.650000X0.412500X-0.650000X0.412500X-0.650000X-0.412500X0*%
%ADD14RoundRect,0.250000X-0.412500X-0.650000X0.412500X-0.650000X0.412500X0.650000X-0.412500X0.650000X0*%
%ADD15RoundRect,0.250000X-0.625000X0.400000X-0.625000X-0.400000X0.625000X-0.400000X0.625000X0.400000X0*%
%ADD16RoundRect,0.137500X0.662500X0.137500X-0.662500X0.137500X-0.662500X-0.137500X0.662500X-0.137500X0*%
%ADD17C,1.600000*%
%ADD18RoundRect,0.150000X-0.150000X0.725000X-0.150000X-0.725000X0.150000X-0.725000X0.150000X0.725000X0*%
%ADD19C,0.800000*%
%ADD20C,6.400000*%
%ADD21R,1.700000X1.700000*%
%ADD22O,1.700000X1.700000*%
%ADD23RoundRect,0.250001X0.462499X1.074999X-0.462499X1.074999X-0.462499X-1.074999X0.462499X-1.074999X0*%
%ADD24RoundRect,0.250000X0.625000X-0.400000X0.625000X0.400000X-0.625000X0.400000X-0.625000X-0.400000X0*%
%ADD25C,1.800000*%
%ADD26RoundRect,0.375000X0.625000X0.375000X-0.625000X0.375000X-0.625000X-0.375000X0.625000X-0.375000X0*%
%ADD27RoundRect,0.500000X0.500000X1.400000X-0.500000X1.400000X-0.500000X-1.400000X0.500000X-1.400000X0*%
%ADD28RoundRect,0.250000X0.385000X1.350000X-0.385000X1.350000X-0.385000X-1.350000X0.385000X-1.350000X0*%
%ADD29RoundRect,0.250000X0.425000X1.600000X-0.425000X1.600000X-0.425000X-1.600000X0.425000X-1.600000X0*%
%ADD30R,1.600000X1.600000*%
%ADD31O,1.600000X1.600000*%
%ADD32RoundRect,0.375000X-0.375000X0.625000X-0.375000X-0.625000X0.375000X-0.625000X0.375000X0.625000X0*%
%ADD33RoundRect,0.500000X-1.400000X0.500000X-1.400000X-0.500000X1.400000X-0.500000X1.400000X0.500000X0*%
%ADD34RoundRect,0.250000X0.412500X0.650000X-0.412500X0.650000X-0.412500X-0.650000X0.412500X-0.650000X0*%
%ADD35RoundRect,0.250000X-1.350000X0.385000X-1.350000X-0.385000X1.350000X-0.385000X1.350000X0.385000X0*%
%ADD36RoundRect,0.250000X-1.600000X0.425000X-1.600000X-0.425000X1.600000X-0.425000X1.600000X0.425000X0*%
%ADD37RoundRect,0.250000X-0.400000X-0.625000X0.400000X-0.625000X0.400000X0.625000X-0.400000X0.625000X0*%
%ADD38RoundRect,0.250000X-0.650000X1.000000X-0.650000X-1.000000X0.650000X-1.000000X0.650000X1.000000X0*%
%ADD39RoundRect,0.250000X1.500000X0.650000X-1.500000X0.650000X-1.500000X-0.650000X1.500000X-0.650000X0*%
%ADD40RoundRect,0.250000X-0.400000X-1.450000X0.400000X-1.450000X0.400000X1.450000X-0.400000X1.450000X0*%
G04 APERTURE END LIST*
D10*
%TO.C,RS1*%
X114712500Y-91774416D03*
X111612500Y-91774416D03*
%TD*%
D11*
%TO.C,C16*%
X121100000Y-80275000D03*
X121100000Y-83400000D03*
%TD*%
D12*
%TO.C,D4*%
X132300000Y-73800000D03*
X132300000Y-69800000D03*
%TD*%
D13*
%TO.C,C1*%
X109290000Y-62482500D03*
X109290000Y-59357500D03*
%TD*%
D14*
%TO.C,C3*%
X106330000Y-78020000D03*
X109455000Y-78020000D03*
%TD*%
D15*
%TO.C,R3*%
X116770000Y-57575000D03*
X116770000Y-60675000D03*
%TD*%
D16*
%TO.C,U2*%
X112815000Y-75395000D03*
X112815000Y-74125000D03*
X112815000Y-72855000D03*
X112815000Y-71585000D03*
X112815000Y-70315000D03*
X112815000Y-69045000D03*
X112815000Y-67775000D03*
X112815000Y-66505000D03*
X106315000Y-66505000D03*
X106315000Y-67775000D03*
X106315000Y-69045000D03*
X106315000Y-70315000D03*
X106315000Y-71585000D03*
X106315000Y-72855000D03*
X106315000Y-74125000D03*
X106315000Y-75395000D03*
%TD*%
D11*
%TO.C,C2*%
X122170000Y-57545000D03*
X122170000Y-60670000D03*
%TD*%
D17*
%TO.C,C5*%
X97100000Y-65570000D03*
X102100000Y-65570000D03*
%TD*%
D18*
%TO.C,U6*%
X116030000Y-78575000D03*
X114760000Y-78575000D03*
X113490000Y-78575000D03*
X112220000Y-78575000D03*
X112220000Y-83725000D03*
X113490000Y-83725000D03*
X114760000Y-83725000D03*
X116030000Y-83725000D03*
%TD*%
D19*
%TO.C,H4*%
X129552944Y-94697056D03*
X130255888Y-93000000D03*
X130255888Y-96394112D03*
X131952944Y-92297056D03*
D20*
X131952944Y-94697056D03*
D19*
X131952944Y-97097056D03*
X133650000Y-93000000D03*
X133650000Y-96394112D03*
X134352944Y-94697056D03*
%TD*%
D13*
%TO.C,CC2*%
X104000000Y-93062500D03*
X104000000Y-89937500D03*
%TD*%
D21*
%TO.C,J3*%
X100500000Y-89900000D03*
D22*
X100500000Y-92440000D03*
X100500000Y-94980000D03*
%TD*%
D13*
%TO.C,C17*%
X126850000Y-96552500D03*
X126850000Y-93427500D03*
%TD*%
D23*
%TO.C,L1*%
X114487500Y-60700000D03*
X111512500Y-60700000D03*
%TD*%
D24*
%TO.C,R5*%
X118440000Y-79910000D03*
X118440000Y-76810000D03*
%TD*%
D25*
%TO.C,U1*%
X97600000Y-83880000D03*
X97600000Y-81340000D03*
X97600000Y-78800000D03*
X97600000Y-76260000D03*
X97600000Y-73720000D03*
X97600000Y-71180000D03*
X97600000Y-68640000D03*
%TD*%
D26*
%TO.C,U5*%
X128550000Y-90550000D03*
X128550000Y-88250000D03*
D27*
X122250000Y-88250000D03*
D26*
X128550000Y-85950000D03*
%TD*%
D17*
%TO.C,C7*%
X102000000Y-82000000D03*
X102000000Y-77000000D03*
%TD*%
D28*
%TO.C,RX1*%
X109240000Y-55732500D03*
D29*
X106415000Y-55982500D03*
X112065000Y-55982500D03*
%TD*%
D30*
%TO.C,D3*%
X104244315Y-62750000D03*
D31*
X106784315Y-62750000D03*
%TD*%
D15*
%TO.C,R6*%
X110070000Y-80470000D03*
X110070000Y-83570000D03*
%TD*%
D32*
%TO.C,U3*%
X133900000Y-76850000D03*
X131600000Y-76850000D03*
D33*
X131600000Y-83150000D03*
D32*
X129300000Y-76850000D03*
%TD*%
D11*
%TO.C,C11*%
X118470000Y-81945000D03*
X118470000Y-85070000D03*
%TD*%
D30*
%TO.C,C8*%
X125600000Y-75250000D03*
D17*
X125600000Y-72750000D03*
%TD*%
D34*
%TO.C,C12*%
X109322500Y-88400000D03*
X106197500Y-88400000D03*
%TD*%
D19*
%TO.C,H2*%
X92402944Y-57302944D03*
X93105888Y-55605888D03*
X93105888Y-59000000D03*
X94802944Y-54902944D03*
D20*
X94802944Y-57302944D03*
D19*
X94802944Y-59702944D03*
X96500000Y-55605888D03*
X96500000Y-59000000D03*
X97202944Y-57302944D03*
%TD*%
D30*
%TO.C,C15*%
X122820000Y-93484888D03*
D17*
X122820000Y-95984888D03*
%TD*%
D21*
%TO.C,J1*%
X93200000Y-76275000D03*
D22*
X93200000Y-78815000D03*
X93200000Y-81355000D03*
%TD*%
D17*
%TO.C,C6*%
X116650000Y-70730000D03*
X116650000Y-65730000D03*
%TD*%
D35*
%TO.C,TX1*%
X93100000Y-70400000D03*
D36*
X93350000Y-73225000D03*
X93350000Y-67575000D03*
%TD*%
D19*
%TO.C,H1*%
X129700000Y-57350000D03*
X130402944Y-55652944D03*
X130402944Y-59047056D03*
X132100000Y-54950000D03*
D20*
X132100000Y-57350000D03*
D19*
X132100000Y-59750000D03*
X133797056Y-55652944D03*
X133797056Y-59047056D03*
X134500000Y-57350000D03*
%TD*%
D24*
%TO.C,R4*%
X107595000Y-86150000D03*
X107595000Y-83050000D03*
%TD*%
D34*
%TO.C,CC1*%
X114762500Y-94300000D03*
X111637500Y-94300000D03*
%TD*%
D30*
%TO.C,D2*%
X106781370Y-59770000D03*
D31*
X104241370Y-59770000D03*
%TD*%
D30*
%TO.C,C13*%
X125150000Y-82245113D03*
D17*
X125150000Y-79745113D03*
%TD*%
D10*
%TO.C,R7*%
X107370000Y-80730000D03*
X104270000Y-80730000D03*
%TD*%
D24*
%TO.C,R2*%
X119360000Y-60675000D03*
X119360000Y-57575000D03*
%TD*%
D37*
%TO.C,RS2*%
X106250000Y-93000000D03*
X109350000Y-93000000D03*
%TD*%
D38*
%TO.C,D5*%
X118300000Y-88700000D03*
X118300000Y-92700000D03*
%TD*%
D21*
%TO.C,J2*%
X125400000Y-58475000D03*
D22*
X125400000Y-55935000D03*
%TD*%
D34*
%TO.C,C14*%
X97592500Y-86800000D03*
X94467500Y-86800000D03*
%TD*%
D19*
%TO.C,H3*%
X92452944Y-94697056D03*
X93155888Y-93000000D03*
X93155888Y-96394112D03*
X94852944Y-92297056D03*
D20*
X94852944Y-94697056D03*
D19*
X94852944Y-97097056D03*
X96550000Y-93000000D03*
X96550000Y-96394112D03*
X97252944Y-94697056D03*
%TD*%
D13*
%TO.C,CD1*%
X104800000Y-86262500D03*
X104800000Y-83137500D03*
%TD*%
D39*
%TO.C,D1*%
X131000000Y-66300000D03*
X126000000Y-66300000D03*
%TD*%
D17*
%TO.C,C4*%
X102000000Y-74070000D03*
X102000000Y-69070000D03*
%TD*%
D15*
%TO.C,R9*%
X111520000Y-85910000D03*
X111520000Y-89010000D03*
%TD*%
%TO.C,R8*%
X114090000Y-85920000D03*
X114090000Y-89020000D03*
%TD*%
D40*
%TO.C,F1*%
X124475000Y-62300000D03*
X128925000Y-62300000D03*
%TD*%
M02*
