M48
; DRILL file {KiCad 8.0.3-unknown-202406242120~006f0a95c1~ubuntu22.04.1} date 2024-06-25T16:46:03+0530
; FORMAT={-:-/ absolute / inch / decimal}
; #@! TF.CreationDate,2024-06-25T16:46:03+05:30
; #@! TF.GenerationSoftware,Kicad,Pcbnew,8.0.3-unknown-202406242120~006f0a95c1~ubuntu22.04.1
; #@! TF.FileFunction,Plated,1,2,PTH
FMAT,2
INCH
; #@! TA.AperFunction,Plated,PTH,ViaDrill
T1C0.0118
; #@! TA.AperFunction,Plated,PTH,ComponentDrill
T2C0.0197
; #@! TA.AperFunction,Plated,PTH,ComponentDrill
T3C0.0315
; #@! TA.AperFunction,Plated,PTH,ComponentDrill
T4C0.0394
; #@! TA.AperFunction,Plated,PTH,ComponentDrill
T5C0.0400
; #@! TA.AperFunction,Plated,PTH,ComponentDrill
T6C0.1260
%
G90
G05
T1
X3.6535Y-3.3937
X3.6535Y-3.4528
X3.6535Y-3.5079
X3.6535Y-3.5669
X3.7087Y-2.4409
X3.7087Y-2.5
X3.7126Y-3.5079
X3.7126Y-3.5669
X3.7677Y-2.4409
X3.7677Y-2.5
X3.8189Y-2.4409
X3.8189Y-2.5
X3.878Y-2.4409
X3.878Y-2.5
X3.9331Y-2.1693
X3.9331Y-2.2283
X3.9331Y-2.2756
X3.9331Y-2.3346
X3.937Y-2.4409
X3.937Y-2.5
X3.9764Y-2.8701
X3.9921Y-2.1693
X3.9921Y-2.2283
X3.9921Y-2.2756
X3.9921Y-2.3346
X4.0157Y-3.1126
X4.0157Y-3.1437
X4.0276Y-2.7913
X4.0551Y-2.7835
X4.0827Y-2.7835
X4.1035Y-2.5492
X4.1063Y-3.3937
X4.1378Y-3.3937
X4.1654Y-3.5866
X4.1709Y-2.9681
X4.1764Y-2.8681
X4.1996Y-2.9673
X4.2039Y-2.8673
X4.2362Y-3.2559
X4.2362Y-3.2835
X4.2374Y-3.3945
X4.2488Y-3.0197
X4.2874Y-2.8134
X4.3102Y-3.0543
X4.311Y-3.3465
X4.3118Y-3.0839
X4.3189Y-3.2913
X4.3382Y-3.3461
X4.3465Y-2.8134
X4.3465Y-3.2913
X4.3472Y-2.8713
X4.3807Y-2.6181
X4.3921Y-3.5051
X4.4075Y-2.4949
X4.4201Y-3.0736
X4.4201Y-3.1055
X4.4252Y-2.9173
X4.4567Y-2.9173
X4.4665Y-2.4949
X4.4884Y-3.4004
X4.4921Y-3.8346
X4.5043Y-3.3736
X4.5256Y-2.4949
X4.5417Y-3.024
X4.5512Y-3.8346
X4.5681Y-3.2835
X4.5689Y-3.3122
X4.5697Y-3.0748
X4.5697Y-3.0996
X4.5744Y-3.024
X4.5748Y-2.8937
X4.5846Y-2.4949
X4.5902Y-2.7008
X4.6102Y-3.8346
X4.622Y-2.8937
X4.6693Y-3.8346
X4.7008Y-2.4016
X4.7047Y-2.374
X4.7283Y-3.8346
X4.7425Y-3.5917
X4.7425Y-3.6228
X4.7638Y-2.5236
X4.7638Y-2.5827
X4.7638Y-2.6417
X4.7638Y-2.7008
X4.7638Y-2.748
X4.7638Y-2.8071
X4.7795Y-2.9673
X4.7795Y-2.9984
X4.8228Y-2.5236
X4.8228Y-2.5827
X4.8228Y-2.6417
X4.8228Y-2.7008
X4.8228Y-2.748
X4.8228Y-2.8071
X4.9921Y-3.3079
X5.0157Y-3.0354
X5.1772Y-3.5098
X5.185Y-2.4161
X5.185Y-2.4724
X5.2126Y-3.5098
X5.2165Y-3.378
X5.2165Y-3.437
X5.252Y-2.4409
X5.252Y-2.5
X5.2756Y-3.378
X5.2756Y-3.437
X5.311Y-2.4409
X5.311Y-2.5
X5.311Y-2.5591
X5.311Y-2.6181
X5.311Y-2.6772
X5.311Y-2.7362
X5.311Y-2.7953
X5.311Y-2.8543
X5.311Y-2.9134
T2
X3.6379Y-2.256
X3.6399Y-3.7282
X3.6656Y-2.1892
X3.6656Y-2.3228
X3.6676Y-3.6614
X3.6676Y-3.795
X3.7324Y-2.1615
X3.7324Y-2.3505
X3.7344Y-3.6337
X3.7344Y-3.8227
X3.7992Y-2.1892
X3.7992Y-2.3228
X3.8012Y-3.6614
X3.8012Y-3.795
X3.8269Y-2.256
X3.8289Y-3.7282
X5.1005Y-3.7282
X5.1063Y-2.2579
X5.1282Y-3.6614
X5.1282Y-3.795
X5.134Y-2.1911
X5.134Y-2.3247
X5.195Y-3.6337
X5.195Y-3.8227
X5.2008Y-2.1634
X5.2008Y-2.3524
X5.2618Y-3.6614
X5.2618Y-3.795
X5.2676Y-2.1911
X5.2676Y-2.3247
X5.2895Y-3.7282
X5.2953Y-2.2579
T3
X3.8228Y-2.5815
X4.015Y-3.0449
X4.015Y-3.2417
X4.0157Y-2.7193
X4.0157Y-2.9161
X4.0197Y-2.5815
X4.104Y-2.3531
X4.1041Y-2.4705
X4.204Y-2.3531
X4.2041Y-2.4705
X4.5925Y-2.5878
X4.5925Y-2.7846
X4.8354Y-3.6805
X4.8354Y-3.7789
X4.9272Y-3.1396
X4.9272Y-3.238
X4.9449Y-2.8642
X4.9449Y-2.9626
T4
X3.6693Y-3.003
X3.6693Y-3.103
X3.6693Y-3.203
X3.9567Y-3.5394
X3.9567Y-3.6394
X3.9567Y-3.7394
X4.937Y-2.2022
X4.937Y-2.3022
T5
X3.8425Y-2.7024
X3.8425Y-2.8024
X3.8425Y-2.9024
X3.8425Y-3.0024
X3.8425Y-3.1024
X3.8425Y-3.2024
X3.8425Y-3.3024
T6
X3.7324Y-2.256
X3.7344Y-3.7282
X5.195Y-3.7282
X5.2008Y-2.2579
M30
