%TF.GenerationSoftware,KiCad,Pcbnew,8.0.3-unknown-202406242120~006f0a95c1~ubuntu22.04.1*%
%TF.CreationDate,2024-06-25T16:46:03+05:30*%
%TF.ProjectId,SDR-Board,5344522d-426f-4617-9264-2e6b69636164,rev?*%
%TF.SameCoordinates,Original*%
%TF.FileFunction,Soldermask,Bot*%
%TF.FilePolarity,Negative*%
%FSLAX46Y46*%
G04 Gerber Fmt 4.6, Leading zero omitted, Abs format (unit mm)*
G04 Created by KiCad (PCBNEW 8.0.3-unknown-202406242120~006f0a95c1~ubuntu22.04.1) date 2024-06-25 16:46:03*
%MOMM*%
%LPD*%
G01*
G04 APERTURE LIST*
G04 Aperture macros list*
%AMRoundRect*
0 Rectangle with rounded corners*
0 $1 Rounding radius*
0 $2 $3 $4 $5 $6 $7 $8 $9 X,Y pos of 4 corners*
0 Add a 4 corners polygon primitive as box body*
4,1,4,$2,$3,$4,$5,$6,$7,$8,$9,$2,$3,0*
0 Add four circle primitives for the rounded corners*
1,1,$1+$1,$2,$3*
1,1,$1+$1,$4,$5*
1,1,$1+$1,$6,$7*
1,1,$1+$1,$8,$9*
0 Add four rect primitives between the rounded corners*
20,1,$1+$1,$2,$3,$4,$5,0*
20,1,$1+$1,$4,$5,$6,$7,0*
20,1,$1+$1,$6,$7,$8,$9,0*
20,1,$1+$1,$8,$9,$2,$3,0*%
G04 Aperture macros list end*
%ADD10C,1.600000*%
%ADD11C,0.800000*%
%ADD12C,6.400000*%
%ADD13R,1.700000X1.700000*%
%ADD14O,1.700000X1.700000*%
%ADD15C,1.800000*%
%ADD16RoundRect,0.250000X0.425000X1.600000X-0.425000X1.600000X-0.425000X-1.600000X0.425000X-1.600000X0*%
%ADD17R,1.600000X1.600000*%
%ADD18O,1.600000X1.600000*%
%ADD19RoundRect,0.250000X-1.600000X0.425000X-1.600000X-0.425000X1.600000X-0.425000X1.600000X0.425000X0*%
%ADD20RoundRect,0.250000X0.412500X0.650000X-0.412500X0.650000X-0.412500X-0.650000X0.412500X-0.650000X0*%
G04 APERTURE END LIST*
D10*
%TO.C,C5*%
X97100000Y-65570000D03*
X102100000Y-65570000D03*
%TD*%
D11*
%TO.C,H4*%
X129552944Y-94697056D03*
X130255888Y-93000000D03*
X130255888Y-96394112D03*
X131952944Y-92297056D03*
D12*
X131952944Y-94697056D03*
D11*
X131952944Y-97097056D03*
X133650000Y-93000000D03*
X133650000Y-96394112D03*
X134352944Y-94697056D03*
%TD*%
D13*
%TO.C,J3*%
X100500000Y-89900000D03*
D14*
X100500000Y-92440000D03*
X100500000Y-94980000D03*
%TD*%
D15*
%TO.C,U1*%
X97600000Y-83880000D03*
X97600000Y-81340000D03*
X97600000Y-78800000D03*
X97600000Y-76260000D03*
X97600000Y-73720000D03*
X97600000Y-71180000D03*
X97600000Y-68640000D03*
%TD*%
D10*
%TO.C,C7*%
X101980000Y-82340000D03*
X101980000Y-77340000D03*
%TD*%
D16*
%TO.C,RX1*%
X106415000Y-55982500D03*
X112065000Y-55982500D03*
%TD*%
D17*
%TO.C,D3*%
X104244315Y-62750000D03*
D18*
X106784315Y-62750000D03*
%TD*%
D17*
%TO.C,C8*%
X125600000Y-75250000D03*
D10*
X125600000Y-72750000D03*
%TD*%
D11*
%TO.C,H2*%
X92402944Y-57302944D03*
X93105888Y-55605888D03*
X93105888Y-59000000D03*
X94802944Y-54902944D03*
D12*
X94802944Y-57302944D03*
D11*
X94802944Y-59702944D03*
X96500000Y-55605888D03*
X96500000Y-59000000D03*
X97202944Y-57302944D03*
%TD*%
D17*
%TO.C,C15*%
X122820000Y-93484888D03*
D10*
X122820000Y-95984888D03*
%TD*%
D13*
%TO.C,J1*%
X93200000Y-76275000D03*
D14*
X93200000Y-78815000D03*
X93200000Y-81355000D03*
%TD*%
D10*
%TO.C,C6*%
X116650000Y-70730000D03*
X116650000Y-65730000D03*
%TD*%
D19*
%TO.C,TX1*%
X93350000Y-73225000D03*
X93350000Y-67575000D03*
%TD*%
D11*
%TO.C,H1*%
X129700000Y-57350000D03*
X130402944Y-55652944D03*
X130402944Y-59047056D03*
X132100000Y-54950000D03*
D12*
X132100000Y-57350000D03*
D11*
X132100000Y-59750000D03*
X133797056Y-55652944D03*
X133797056Y-59047056D03*
X134500000Y-57350000D03*
%TD*%
D17*
%TO.C,D2*%
X106781370Y-59770000D03*
D18*
X104241370Y-59770000D03*
%TD*%
D17*
%TO.C,C13*%
X125150000Y-82245113D03*
D10*
X125150000Y-79745113D03*
%TD*%
D13*
%TO.C,J2*%
X125400000Y-58475000D03*
D14*
X125400000Y-55935000D03*
%TD*%
D11*
%TO.C,H3*%
X92452944Y-94697056D03*
X93155888Y-93000000D03*
X93155888Y-96394112D03*
X94852944Y-92297056D03*
D12*
X94852944Y-94697056D03*
D11*
X94852944Y-97097056D03*
X96550000Y-93000000D03*
X96550000Y-96394112D03*
X97252944Y-94697056D03*
%TD*%
D10*
%TO.C,C4*%
X102000000Y-74070000D03*
X102000000Y-69070000D03*
%TD*%
D20*
%TO.C,CD2*%
X112962500Y-85000000D03*
X109837500Y-85000000D03*
%TD*%
M02*
